M48
INCH,LZ
;FILE_FORMAT=2:4
;TYPE=PLATED
;Layer: PTH_Through
;EasyEDA v6.5.46, 2025-01-08 10:31:20
;10
;Gerber Generator version 0.2
;Holesize 1 = 0.0120 inch
T01C0.0120
;Holesize 2 = 0.0280 inch
T02C0.0280
;Holesize 3 = 0.0320 inch
T03C0.0320
;Holesize 4 = 0.0360 inch
T04C0.0360
;Holesize 5 = 0.0390 inch
T05C0.0390
;Holesize 6 = 0.0400 inch
T06C0.0400
;Holesize 7 = 0.0400 inch
T07C0.0400
;Holesize 8 = 0.0410 inch
T08C0.0410
;Holesize 9 = 0.0470 inch
T09C0.0470
;Holesize 10 = 0.0590 inch
T10C0.0590
%
G05
G90
T01
X020900Y007905
X017819Y003512
X031303Y004614
X008932Y007077
X022872Y008195
X036807Y001439
X008106Y010750
T02
X035750Y021697
X036750Y021697
X037750Y021697
T03
X003850Y022251G85X003850Y022249
X002850Y022251G85X002850Y022249
X003850Y021251G85X003850Y021249
X002850Y021251G85X002850Y021249
X002850Y020251G85X002850Y020249
X003850Y020251G85X003850Y020249
X003850Y019251G85X003850Y019249
X002850Y019251G85X002850Y019249
X002850Y018251G85X002850Y018249
X003850Y018251G85X003850Y018249
X003850Y017251G85X003850Y017249
X002850Y017251G85X002850Y017249
X002850Y016251G85X002850Y016249
X002850Y015251G85X002850Y015249
X002850Y014251G85X002850Y014249
X002850Y013251G85X002850Y013249
X002850Y012251G85X002850Y012249
X002850Y011251G85X002850Y011249
X002850Y010251G85X002850Y010249
X002850Y009251G85X002850Y009249
X002850Y008251G85X002850Y008249
X002850Y007251G85X002850Y007249
X003850Y016251G85X003850Y016249
X003850Y015251G85X003850Y015249
X003850Y014251G85X003850Y014249
X003850Y013251G85X003850Y013249
X003850Y012251G85X003850Y012249
X003850Y011251G85X003850Y011249
X003850Y010251G85X003850Y010249
X003850Y009251G85X003850Y009249
X003850Y008251G85X003850Y008249
X003850Y007251G85X003850Y007249
X002850Y006251G85X002850Y006249
X002850Y005251G85X002850Y005249
X002850Y004251G85X002850Y004249
X002850Y003251G85X002850Y003249
X002850Y002251G85X002850Y002249
X003850Y002251G85X003850Y002249
X003850Y003251G85X003850Y003249
X003850Y004251G85X003850Y004249
X003850Y005251G85X003850Y005249
X003850Y006251G85X003850Y006249
X015850Y017251G85X015850Y017249
X016850Y017251G85X016850Y017249
X016850Y016251G85X016850Y016249
X015850Y016251G85X015850Y016249
X015850Y015251G85X015850Y015249
X016850Y015251G85X016850Y015249
X016850Y014251G85X016850Y014249
X015850Y014251G85X015850Y014249
X016850Y013251G85X016850Y013249
X015850Y013251G85X015850Y013249
X016850Y012251G85X016850Y012249
X015850Y012251G85X015850Y012249
X016850Y011251G85X016850Y011249
X015850Y011251G85X015850Y011249
X016850Y010251G85X016850Y010249
X015850Y010251G85X015850Y010249
X016850Y009251G85X016850Y009249
X015850Y009251G85X015850Y009249
X016850Y008251G85X016850Y008249
X015850Y008251G85X015850Y008249
X016850Y007251G85X016850Y007249
X015850Y007251G85X015850Y007249
X016850Y006251G85X016850Y006249
X015850Y006251G85X015850Y006249
X016850Y005251G85X016850Y005249
X015850Y005251G85X015850Y005249
X016850Y004251G85X016850Y004249
X015850Y004251G85X015850Y004249
X016850Y003251G85X016850Y003249
X015850Y003251G85X015850Y003249
X016850Y002251G85X016850Y002249
X015850Y002251G85X015850Y002249
X014850Y002251G85X014850Y002249
X014850Y003251G85X014850Y003249
X013850Y003251G85X013850Y003249
X013850Y002251G85X013850Y002249
X012850Y002251G85X012850Y002249
X012850Y003251G85X012850Y003249
X007850Y003251G85X007850Y003249
X007850Y002251G85X007850Y002249
X008850Y003251G85X008850Y003249
X009850Y003251G85X009850Y003249
X009850Y002251G85X009850Y002249
X008850Y002251G85X008850Y002249
T04
X028600Y017050
X028600Y021050
X037200Y012550
X033200Y012550
X031742Y012500
X027742Y012500
X018425Y013400
X022425Y013400
X018425Y012300
X022425Y012300
X018425Y011100
X022425Y011100
X018425Y009900
X022425Y009900
X018425Y008700
X022425Y008700
X018425Y007400
X022425Y007400
X018425Y006150
X022425Y006150
X023400Y021050
X023400Y017050
X036750Y015500
X036750Y019500
X037200Y014050
X033200Y014050
T05
X039024Y012935
X040575Y012935
X042126Y012935
T06
X031324Y003420G85X031324Y003418
X032324Y003420G85X032324Y003418
X030324Y003420G85X030324Y003418
X029324Y003420G85X029324Y003418
X025513Y003419G85X025513Y003417
X026513Y003419G85X026513Y003417
X024513Y003420G85X024513Y003418
X023513Y003420G85X023513Y003418
X024655Y011800G85X024657Y011800
X024655Y012800G85X024657Y012800
X024655Y010800G85X024657Y010800
X024655Y009800G85X024657Y009800
X024655Y008800G85X024657Y008800
X024655Y007800G85X024657Y007800
X024655Y006800G85X024657Y006800
X024655Y005800G85X024657Y005800
X037121Y003420G85X037121Y003418
X038121Y003420G85X038121Y003418
X036121Y003420G85X036121Y003418
X035121Y003420G85X035121Y003418
X038983Y009125G85X038985Y009125
X038983Y010125G85X038985Y010125
X038982Y008125G85X038984Y008125
X038982Y007125G85X038984Y007125
T07
X042200Y011100
X042200Y010100
X042200Y009100
X042200Y008100
X042200Y007100
X042200Y006100
T08
X019710Y003388
X020694Y003388
T09
X030727Y006950
X029742Y006950
X028758Y006950
X030727Y010750
X029742Y010750
X028758Y010750
X036184Y006950
X035200Y006950
X034216Y006950
X036184Y010750
X035200Y010750
X034216Y010750
T10
X018700Y022250G85X018700Y022250
X018700Y015450G85X018700Y015450
X034300Y015450G85X034300Y015450
X034300Y022250G85X034300Y022250
M30
