G04 Layer: TopSilkscreenLayer*
G04 EasyEDA v6.5.46, 2025-01-08 10:31:20*
G04 Gerber Generator version 0.2*
G04 Scale: 100 percent, Rotated: No, Reflected: No *
G04 Dimensions in inches *
G04 leading zeros omitted , absolute positions ,3 integer and 6 decimal *
%FSLAX36Y36*%
%MOIN*%

%ADD10C,0.0080*%
%ADD11C,0.0060*%
%ADD12C,0.0039*%
%ADD13C,0.0056*%
%ADD14C,0.0042*%
%ADD15C,0.0051*%
%ADD16C,0.0049*%
%ADD17C,0.0052*%
%ADD18C,0.0040*%
%ADD19C,0.0100*%
%ADD20C,0.0050*%
%ADD21C,0.0136*%

%LPD*%
G36*
X4080320Y1831840D02*
G01*
X4075040Y1831420D01*
X4073880Y1830960D01*
X4073120Y1830040D01*
X4072400Y1828420D01*
X4071920Y1826780D01*
X4071620Y1824740D01*
X4071480Y1822380D01*
X4071500Y1819780D01*
X4071980Y1815560D01*
X4073120Y1812520D01*
X4075120Y1810300D01*
X4078200Y1808540D01*
X4079900Y1807860D01*
X4081280Y1807560D01*
X4082660Y1807600D01*
X4084360Y1807980D01*
X4086740Y1808940D01*
X4088480Y1810460D01*
X4089780Y1812800D01*
X4090840Y1816220D01*
X4091720Y1819620D01*
X4092540Y1822280D01*
X4093320Y1824300D01*
X4094140Y1825740D01*
X4095040Y1826660D01*
X4096080Y1827120D01*
X4097300Y1827200D01*
X4098740Y1826980D01*
X4100539Y1825900D01*
X4101960Y1823860D01*
X4102799Y1821220D01*
X4102860Y1818460D01*
X4102420Y1816600D01*
X4101620Y1814360D01*
X4100520Y1811900D01*
X4099200Y1809360D01*
X4099280Y1809160D01*
X4099780Y1808980D01*
X4100600Y1808860D01*
X4101660Y1808820D01*
X4103060Y1808899D01*
X4104060Y1809199D01*
X4104800Y1809780D01*
X4105380Y1810700D01*
X4105920Y1812120D01*
X4106340Y1813880D01*
X4106640Y1815900D01*
X4106780Y1818040D01*
X4106800Y1820180D01*
X4106680Y1822220D01*
X4106400Y1824019D01*
X4105980Y1825460D01*
X4104880Y1827480D01*
X4103460Y1829139D01*
X4101760Y1830420D01*
X4099860Y1831300D01*
X4097840Y1831759D01*
X4095760Y1831759D01*
X4093700Y1831279D01*
X4091720Y1830300D01*
X4090040Y1828899D01*
X4088800Y1826980D01*
X4087760Y1824120D01*
X4086760Y1819920D01*
X4085820Y1816420D01*
X4084660Y1814139D01*
X4083140Y1812900D01*
X4081120Y1812520D01*
X4079080Y1812960D01*
X4077480Y1814199D01*
X4076320Y1816060D01*
X4075640Y1818380D01*
X4075480Y1821020D01*
X4075860Y1823800D01*
X4076800Y1826560D01*
X4078320Y1829160D01*
G37*
G36*
X4061700Y1831660D02*
G01*
X4059580Y1831060D01*
X4057380Y1829500D01*
X4056139Y1828260D01*
X4055460Y1827240D01*
X4055240Y1826200D01*
X4055330Y1825560D01*
X4058460Y1825560D01*
X4058500Y1826240D01*
X4058740Y1826940D01*
X4059100Y1827580D01*
X4059560Y1828060D01*
X4060100Y1828420D01*
X4060480Y1828560D01*
X4062080Y1828560D01*
X4062460Y1828660D01*
X4063519Y1828360D01*
X4064040Y1828100D01*
X4064460Y1827740D01*
X4064740Y1827300D01*
X4064840Y1826860D01*
X4064780Y1826440D01*
X4064520Y1826339D01*
X4064080Y1826560D01*
X4063360Y1827120D01*
X4062380Y1828060D01*
X4062080Y1828560D01*
X4060480Y1828560D01*
X4060700Y1828460D01*
X4060779Y1828140D01*
X4060720Y1827820D01*
X4060560Y1827560D01*
X4060320Y1827380D01*
X4059700Y1827180D01*
X4059380Y1826819D01*
X4059120Y1826300D01*
X4058600Y1824440D01*
X4058460Y1825560D01*
X4055330Y1825560D01*
X4055419Y1824920D01*
X4055740Y1823880D01*
X4056240Y1822800D01*
X4056880Y1821800D01*
X4058380Y1819940D01*
X4058860Y1818460D01*
X4059100Y1816080D01*
X4059160Y1805280D01*
X4051180Y1804520D01*
X4046259Y1803760D01*
X4041440Y1802740D01*
X4036700Y1801420D01*
X4032878Y1800120D01*
X4064840Y1800120D01*
X4072320Y1799319D01*
X4077360Y1798460D01*
X4082320Y1797280D01*
X4087160Y1795780D01*
X4091860Y1794000D01*
X4096420Y1791920D01*
X4100820Y1789580D01*
X4105020Y1787000D01*
X4108980Y1784160D01*
X4112740Y1781080D01*
X4116220Y1777800D01*
X4119420Y1774319D01*
X4120920Y1772500D01*
X4123660Y1768720D01*
X4124920Y1766780D01*
X4127260Y1762640D01*
X4129260Y1758660D01*
X4130860Y1754960D01*
X4132120Y1751320D01*
X4133140Y1747540D01*
X4134340Y1741100D01*
X4134600Y1737700D01*
X4134540Y1733440D01*
X4134220Y1728740D01*
X4133639Y1723980D01*
X4132860Y1719560D01*
X4131900Y1715860D01*
X4131019Y1713180D01*
X4129000Y1708160D01*
X4127880Y1705780D01*
X4126680Y1703480D01*
X4123960Y1699060D01*
X4122440Y1696920D01*
X4120820Y1694820D01*
X4117180Y1690660D01*
X4115160Y1688580D01*
X4111540Y1685260D01*
X4107580Y1682160D01*
X4103340Y1679300D01*
X4098860Y1676699D01*
X4096540Y1675480D01*
X4091800Y1673320D01*
X4086920Y1671440D01*
X4081960Y1669900D01*
X4076960Y1668720D01*
X4072000Y1667920D01*
X4064840Y1667280D01*
X4064840Y1694580D01*
X4067080Y1696519D01*
X4068580Y1697620D01*
X4070560Y1698220D01*
X4074220Y1698500D01*
X4085240Y1698740D01*
X4089180Y1698940D01*
X4092080Y1699180D01*
X4093519Y1699440D01*
X4094280Y1700140D01*
X4094700Y1701819D01*
X4094900Y1705200D01*
X4094960Y1721879D01*
X4102020Y1722040D01*
X4106019Y1722240D01*
X4108580Y1722660D01*
X4109960Y1723380D01*
X4110380Y1724480D01*
X4109920Y1725200D01*
X4106680Y1729340D01*
X4098220Y1739640D01*
X4106300Y1740380D01*
X4108440Y1741100D01*
X4110700Y1742740D01*
X4114060Y1745860D01*
X4117559Y1749340D01*
X4119320Y1751680D01*
X4119520Y1753220D01*
X4118340Y1754340D01*
X4117420Y1754580D01*
X4116240Y1754139D01*
X4114480Y1752860D01*
X4106700Y1745920D01*
X4094980Y1745920D01*
X4094540Y1767740D01*
X4069660Y1768160D01*
X4064900Y1772920D01*
X4064840Y1800120D01*
X4032878Y1800120D01*
X4029840Y1798959D01*
X4025400Y1796980D01*
X4021120Y1794760D01*
X4017000Y1792300D01*
X4013039Y1789600D01*
X4009280Y1786680D01*
X4005680Y1783540D01*
X4003901Y1781819D01*
X4012780Y1781819D01*
X4012780Y1782220D01*
X4013380Y1782980D01*
X4014520Y1784019D01*
X4017960Y1786639D01*
X4022320Y1789480D01*
X4024580Y1790780D01*
X4026800Y1791920D01*
X4029280Y1793040D01*
X4034840Y1795180D01*
X4040820Y1797060D01*
X4046760Y1798580D01*
X4052200Y1799580D01*
X4054600Y1799840D01*
X4056680Y1799940D01*
X4059160Y1799940D01*
X4059160Y1773220D01*
X4053700Y1768120D01*
X4029120Y1768120D01*
X4028720Y1777660D01*
X4028420Y1779760D01*
X4027960Y1781020D01*
X4027300Y1781680D01*
X4026600Y1782000D01*
X4025960Y1782060D01*
X4025320Y1781900D01*
X4024660Y1781480D01*
X4024240Y1780720D01*
X4023900Y1779220D01*
X4023620Y1777100D01*
X4023300Y1771660D01*
X4023260Y1765560D01*
X4023540Y1759980D01*
X4023800Y1757740D01*
X4024120Y1756080D01*
X4024540Y1755120D01*
X4025179Y1754460D01*
X4025760Y1754139D01*
X4026400Y1754160D01*
X4027180Y1754500D01*
X4027880Y1755100D01*
X4028380Y1756080D01*
X4028700Y1757500D01*
X4028900Y1759500D01*
X4029140Y1763680D01*
X4053519Y1763680D01*
X4059160Y1758540D01*
X4059120Y1743620D01*
X4058900Y1737880D01*
X4058720Y1737040D01*
X4046400Y1739700D01*
X4043440Y1740220D01*
X4041220Y1740500D01*
X4040059Y1740480D01*
X4039580Y1740160D01*
X4039180Y1739620D01*
X4038920Y1738940D01*
X4038720Y1737120D01*
X4038140Y1736560D01*
X4036680Y1736339D01*
X4029060Y1736300D01*
X4029000Y1742400D01*
X4028759Y1743700D01*
X4028240Y1744420D01*
X4027400Y1744820D01*
X4026240Y1745060D01*
X4025320Y1744980D01*
X4024600Y1744520D01*
X4024080Y1743580D01*
X4023740Y1742120D01*
X4023519Y1740060D01*
X4023399Y1737300D01*
X4023440Y1729960D01*
X4023580Y1726660D01*
X4023820Y1724259D01*
X4024080Y1723100D01*
X4024500Y1722740D01*
X4025140Y1722480D01*
X4025899Y1722340D01*
X4026720Y1722360D01*
X4027760Y1722620D01*
X4028380Y1723260D01*
X4028700Y1724580D01*
X4029140Y1731120D01*
X4036660Y1731080D01*
X4038100Y1730860D01*
X4038700Y1730340D01*
X4039140Y1727760D01*
X4040020Y1726720D01*
X4041340Y1726320D01*
X4043000Y1726620D01*
X4046980Y1727700D01*
X4057500Y1730160D01*
X4060560Y1731020D01*
X4062740Y1731800D01*
X4063840Y1732440D01*
X4064300Y1733680D01*
X4064620Y1736279D01*
X4064800Y1740400D01*
X4064840Y1758800D01*
X4070040Y1763680D01*
X4089260Y1763680D01*
X4089260Y1746100D01*
X4085100Y1745740D01*
X4082660Y1745400D01*
X4080640Y1744600D01*
X4078260Y1742860D01*
X4071580Y1736780D01*
X4069820Y1734880D01*
X4069180Y1733660D01*
X4069420Y1732780D01*
X4070740Y1731560D01*
X4072440Y1731540D01*
X4074820Y1732820D01*
X4080360Y1737340D01*
X4082360Y1738760D01*
X4083960Y1739680D01*
X4085059Y1740000D01*
X4086300Y1739880D01*
X4086680Y1739760D01*
X4086820Y1739620D01*
X4085740Y1737400D01*
X4081720Y1729880D01*
X4080560Y1727380D01*
X4079780Y1725360D01*
X4079500Y1724100D01*
X4079760Y1722960D01*
X4080899Y1722320D01*
X4083420Y1722040D01*
X4087820Y1721980D01*
X4088600Y1721720D01*
X4089020Y1720500D01*
X4089200Y1717740D01*
X4089260Y1703740D01*
X4069620Y1703740D01*
X4067660Y1705880D01*
X4066680Y1706740D01*
X4065539Y1707480D01*
X4064360Y1708040D01*
X4063260Y1708340D01*
X4060860Y1708320D01*
X4058480Y1707720D01*
X4056460Y1706660D01*
X4054320Y1704420D01*
X4052520Y1703959D01*
X4048639Y1703779D01*
X4029060Y1703740D01*
X4029060Y1707660D01*
X4028740Y1710880D01*
X4027840Y1712760D01*
X4026460Y1713240D01*
X4024640Y1712200D01*
X4024000Y1711140D01*
X4023600Y1708959D01*
X4023420Y1705120D01*
X4023399Y1694660D01*
X4023500Y1691300D01*
X4023700Y1688800D01*
X4024040Y1687060D01*
X4024540Y1685980D01*
X4025260Y1685440D01*
X4026200Y1685360D01*
X4027400Y1685600D01*
X4028279Y1686040D01*
X4028800Y1687020D01*
X4029020Y1688959D01*
X4029060Y1698560D01*
X4054100Y1698560D01*
X4059160Y1694280D01*
X4059160Y1667480D01*
X4054420Y1667540D01*
X4050740Y1667980D01*
X4046440Y1668800D01*
X4041800Y1669940D01*
X4037140Y1671300D01*
X4032720Y1672820D01*
X4030680Y1673620D01*
X4027720Y1675000D01*
X4024560Y1676680D01*
X4021380Y1678560D01*
X4018399Y1680460D01*
X4015840Y1682260D01*
X4013920Y1683820D01*
X4012840Y1684980D01*
X4012799Y1685620D01*
X4012960Y1686399D01*
X4013240Y1691639D01*
X4013560Y1712860D01*
X4013620Y1740860D01*
X4013420Y1766600D01*
X4013200Y1775800D01*
X4012940Y1781040D01*
X4012780Y1781819D01*
X4003901Y1781819D01*
X4000680Y1778420D01*
X3997620Y1774760D01*
X3994800Y1770920D01*
X3992220Y1766879D01*
X3990040Y1762900D01*
X3988180Y1758680D01*
X3986520Y1754079D01*
X3985140Y1749420D01*
X3984120Y1745000D01*
X3983780Y1742960D01*
X3983580Y1741100D01*
X3983500Y1739440D01*
X3983500Y1736300D01*
X3989200Y1736300D01*
X3989200Y1739680D01*
X3989340Y1741639D01*
X3989700Y1744040D01*
X3990260Y1746740D01*
X3991000Y1749640D01*
X3991860Y1752580D01*
X3992820Y1755440D01*
X3993840Y1758080D01*
X3994860Y1760380D01*
X3995860Y1762240D01*
X3998580Y1766639D01*
X4001860Y1771339D01*
X4005179Y1775620D01*
X4008720Y1779580D01*
X4008720Y1736300D01*
X3970899Y1736360D01*
X3968140Y1736560D01*
X3966420Y1737000D01*
X3964440Y1738320D01*
X3963420Y1738880D01*
X3962360Y1739340D01*
X3961360Y1739660D01*
X3960160Y1739800D01*
X3959100Y1739620D01*
X3958000Y1739000D01*
X3956680Y1737920D01*
X3955160Y1736240D01*
X3954400Y1734640D01*
X3954390Y1732800D01*
X3957640Y1732800D01*
X3957679Y1734760D01*
X3959060Y1736279D01*
X3960360Y1736800D01*
X3961280Y1737000D01*
X3961400Y1736900D01*
X3960779Y1736459D01*
X3959360Y1735680D01*
X3958780Y1735080D01*
X3958420Y1734360D01*
X3958300Y1733580D01*
X3958420Y1732780D01*
X3958759Y1732100D01*
X3959340Y1731540D01*
X3960800Y1730860D01*
X3961120Y1730640D01*
X3961080Y1730500D01*
X3960700Y1730420D01*
X3958700Y1731100D01*
X3957640Y1732800D01*
X3954390Y1732800D01*
X3955340Y1729740D01*
X3955100Y1728959D01*
X3954040Y1728200D01*
X3950080Y1726220D01*
X3948460Y1725040D01*
X3947020Y1723620D01*
X3945700Y1721900D01*
X3944420Y1719820D01*
X3943680Y1717980D01*
X3943340Y1715780D01*
X3943279Y1712700D01*
X3943380Y1710140D01*
X3943720Y1707840D01*
X3944280Y1705800D01*
X3945100Y1703980D01*
X3946160Y1702360D01*
X3947500Y1700940D01*
X3949100Y1699680D01*
X3950980Y1698580D01*
X3953100Y1697620D01*
X3955160Y1697060D01*
X3957660Y1696819D01*
X3961139Y1696780D01*
X3964120Y1696900D01*
X3966740Y1697160D01*
X3968960Y1697560D01*
X3970700Y1698100D01*
X3973740Y1699319D01*
X3973740Y1712620D01*
X3962880Y1712600D01*
X3960820Y1712380D01*
X3960040Y1711840D01*
X3959920Y1710780D01*
X3960020Y1709740D01*
X3960580Y1709199D01*
X3961920Y1708959D01*
X3968960Y1708920D01*
X3968519Y1702840D01*
X3968080Y1701620D01*
X3967080Y1701000D01*
X3965200Y1700580D01*
X3961620Y1700220D01*
X3958240Y1700520D01*
X3955120Y1701459D01*
X3952400Y1703040D01*
X3950680Y1704680D01*
X3949380Y1706579D01*
X3948519Y1708700D01*
X3948060Y1710960D01*
X3948000Y1713260D01*
X3948320Y1715560D01*
X3949000Y1717780D01*
X3950020Y1719820D01*
X3951380Y1721639D01*
X3953039Y1723140D01*
X3954980Y1724240D01*
X3957220Y1724900D01*
X3960520Y1725120D01*
X3964120Y1724740D01*
X3967600Y1723860D01*
X3970620Y1722540D01*
X3973740Y1720740D01*
X3973680Y1725380D01*
X3973180Y1726399D01*
X3971840Y1727100D01*
X3967140Y1728560D01*
X3965920Y1729100D01*
X3965500Y1729600D01*
X3965740Y1730140D01*
X3966620Y1730580D01*
X3968380Y1730900D01*
X3971160Y1731060D01*
X4008720Y1731120D01*
X4008680Y1701180D01*
X4008519Y1694460D01*
X4008320Y1690040D01*
X4008200Y1688920D01*
X4008060Y1688620D01*
X4004720Y1692380D01*
X4001640Y1696300D01*
X3998860Y1700300D01*
X3996400Y1704340D01*
X3994280Y1708420D01*
X3992500Y1712480D01*
X3991080Y1716480D01*
X3990040Y1720400D01*
X3989420Y1724199D01*
X3989200Y1727820D01*
X3989200Y1731120D01*
X3983500Y1731120D01*
X3983500Y1727980D01*
X3983820Y1724379D01*
X3984700Y1719800D01*
X3985940Y1714920D01*
X3987440Y1710380D01*
X3989280Y1706040D01*
X3991440Y1701819D01*
X3993920Y1697720D01*
X3996720Y1693779D01*
X3999780Y1690000D01*
X4003100Y1686399D01*
X4006700Y1683000D01*
X4010520Y1679800D01*
X4014560Y1676819D01*
X4018800Y1674079D01*
X4023240Y1671560D01*
X4027860Y1669319D01*
X4032640Y1667360D01*
X4037559Y1665680D01*
X4042100Y1664520D01*
X4047540Y1663420D01*
X4052740Y1662620D01*
X4054880Y1662380D01*
X4059160Y1662300D01*
X4059100Y1651360D01*
X4058900Y1648959D01*
X4058500Y1647520D01*
X4055899Y1644319D01*
X4055729Y1643440D01*
X4058420Y1643440D01*
X4059020Y1641600D01*
X4059880Y1640200D01*
X4061160Y1639540D01*
X4062580Y1639640D01*
X4063880Y1640580D01*
X4064600Y1641260D01*
X4064740Y1641220D01*
X4064700Y1640900D01*
X4064440Y1640420D01*
X4063540Y1639440D01*
X4062980Y1639060D01*
X4061520Y1638680D01*
X4060160Y1639100D01*
X4059100Y1640140D01*
X4058580Y1641660D01*
X4058420Y1643440D01*
X4055729Y1643440D01*
X4055360Y1641540D01*
X4056200Y1638899D01*
X4058399Y1636860D01*
X4060779Y1636020D01*
X4063020Y1636000D01*
X4065000Y1636660D01*
X4066580Y1637860D01*
X4067660Y1639500D01*
X4068080Y1641399D01*
X4067720Y1643440D01*
X4065640Y1646740D01*
X4065140Y1648380D01*
X4064900Y1650920D01*
X4064840Y1662300D01*
X4067080Y1662300D01*
X4070640Y1662620D01*
X4075740Y1663440D01*
X4081160Y1664520D01*
X4085640Y1665640D01*
X4088180Y1666440D01*
X4093200Y1668320D01*
X4098100Y1670520D01*
X4102840Y1673020D01*
X4107400Y1675800D01*
X4111740Y1678860D01*
X4115840Y1682120D01*
X4119680Y1685600D01*
X4123200Y1689280D01*
X4126400Y1693100D01*
X4127860Y1695060D01*
X4130480Y1699079D01*
X4131660Y1701140D01*
X4133600Y1705120D01*
X4135360Y1709300D01*
X4136960Y1713600D01*
X4138240Y1717560D01*
X4138720Y1719280D01*
X4139060Y1721080D01*
X4139660Y1726260D01*
X4140040Y1732340D01*
X4140100Y1737880D01*
X4140000Y1740000D01*
X4139380Y1744580D01*
X4138320Y1749319D01*
X4137660Y1751699D01*
X4136019Y1756500D01*
X4134060Y1761220D01*
X4131780Y1765780D01*
X4129240Y1770120D01*
X4127880Y1772180D01*
X4126460Y1774139D01*
X4122900Y1778480D01*
X4119340Y1782420D01*
X4117640Y1784060D01*
X4115880Y1785600D01*
X4111760Y1788720D01*
X4106940Y1791980D01*
X4102340Y1794740D01*
X4097660Y1797160D01*
X4092880Y1799240D01*
X4087980Y1801000D01*
X4085480Y1801780D01*
X4080360Y1803080D01*
X4075040Y1804079D01*
X4069520Y1804800D01*
X4064840Y1805280D01*
X4064900Y1816879D01*
X4065120Y1819360D01*
X4065620Y1820800D01*
X4066480Y1821759D01*
X4067780Y1823560D01*
X4068120Y1825740D01*
X4067500Y1827980D01*
X4065960Y1829940D01*
X4063820Y1831279D01*
G37*
G36*
X4071360Y1661560D02*
G01*
X4071360Y1657120D01*
X4102260Y1657120D01*
X4102260Y1653080D01*
X4102160Y1651260D01*
X4101880Y1649340D01*
X4101460Y1647520D01*
X4100960Y1646040D01*
X4100140Y1644460D01*
X4099200Y1643140D01*
X4098080Y1642080D01*
X4096780Y1641220D01*
X4095280Y1640580D01*
X4093519Y1640140D01*
X4091520Y1639880D01*
X4089200Y1639800D01*
X4086040Y1639980D01*
X4083340Y1640520D01*
X4081100Y1641420D01*
X4079300Y1642720D01*
X4077940Y1644420D01*
X4076980Y1646540D01*
X4076420Y1649120D01*
X4076240Y1652140D01*
X4076240Y1657120D01*
X4071360Y1657120D01*
X4071420Y1653839D01*
X4071620Y1651360D01*
X4071960Y1649079D01*
X4072420Y1647000D01*
X4073039Y1645080D01*
X4073780Y1643340D01*
X4074680Y1641780D01*
X4075740Y1640380D01*
X4076940Y1639139D01*
X4078279Y1638060D01*
X4079800Y1637120D01*
X4081460Y1636320D01*
X4083100Y1635780D01*
X4084940Y1635360D01*
X4086900Y1635100D01*
X4088940Y1635000D01*
X4090960Y1635040D01*
X4092919Y1635220D01*
X4094740Y1635580D01*
X4096380Y1636080D01*
X4098920Y1637220D01*
X4101040Y1638600D01*
X4102760Y1640240D01*
X4104120Y1642220D01*
X4105120Y1644560D01*
X4105820Y1647300D01*
X4106200Y1650520D01*
X4106340Y1654220D01*
X4106340Y1661560D01*
G37*
D10*
X2873089Y911498D02*
G01*
X2858788Y873899D01*
X2873089Y911498D02*
G01*
X2887389Y873899D01*
X2864188Y886498D02*
G01*
X2882088Y886498D01*
X2899188Y911498D02*
G01*
X2899188Y873899D01*
X2916388Y911498D02*
G01*
X2916388Y881098D01*
X2918189Y875698D01*
X2921788Y873899D01*
X2925388Y873899D01*
X2911089Y898998D02*
G01*
X2923589Y898998D01*
X2964688Y911498D02*
G01*
X2964688Y873899D01*
X2989789Y911498D02*
G01*
X2964688Y886498D01*
X2973689Y895399D02*
G01*
X2989789Y873899D01*
X3001589Y898998D02*
G01*
X3001589Y873899D01*
X3001589Y891799D02*
G01*
X3006989Y897199D01*
X3010589Y898998D01*
X3015888Y898998D01*
X3019489Y897199D01*
X3021288Y891799D01*
X3021288Y873899D01*
X3041989Y898998D02*
G01*
X3038488Y897199D01*
X3034889Y893598D01*
X3033089Y888299D01*
X3033089Y884699D01*
X3034889Y879299D01*
X3038488Y875698D01*
X3041989Y873899D01*
X3047389Y873899D01*
X3050988Y875698D01*
X3054588Y879299D01*
X3056388Y884699D01*
X3056388Y888299D01*
X3054588Y893598D01*
X3050988Y897199D01*
X3047389Y898998D01*
X3041989Y898998D01*
X3068189Y911498D02*
G01*
X3068189Y873899D01*
X3068189Y893598D02*
G01*
X3071788Y897199D01*
X3075289Y898998D01*
X3080689Y898998D01*
X3084288Y897199D01*
X3087888Y893598D01*
X3089688Y888299D01*
X3089688Y884699D01*
X3087888Y879299D01*
X3084288Y875698D01*
X3080689Y873899D01*
X3075289Y873899D01*
X3071788Y875698D01*
X3068189Y879299D01*
X3365048Y909699D02*
G01*
X3379349Y872100D01*
X3393648Y909699D02*
G01*
X3379349Y872100D01*
X3405448Y909699D02*
G01*
X3407249Y907899D01*
X3409049Y909699D01*
X3407249Y911500D01*
X3405448Y909699D01*
X3407249Y897199D02*
G01*
X3407249Y872100D01*
X3442349Y909699D02*
G01*
X3442349Y872100D01*
X3442349Y891799D02*
G01*
X3438748Y895399D01*
X3435249Y897199D01*
X3429849Y897199D01*
X3426248Y895399D01*
X3422649Y891799D01*
X3420848Y886500D01*
X3420848Y882899D01*
X3422649Y877500D01*
X3426248Y873899D01*
X3429849Y872100D01*
X3435249Y872100D01*
X3438748Y873899D01*
X3442349Y877500D01*
X3454148Y886500D02*
G01*
X3475649Y886500D01*
X3475649Y890000D01*
X3473849Y893600D01*
X3472048Y895399D01*
X3468449Y897199D01*
X3463149Y897199D01*
X3459548Y895399D01*
X3455949Y891799D01*
X3454148Y886500D01*
X3454148Y882899D01*
X3455949Y877500D01*
X3459548Y873899D01*
X3463149Y872100D01*
X3468449Y872100D01*
X3472048Y873899D01*
X3475649Y877500D01*
X3496449Y897199D02*
G01*
X3492848Y895399D01*
X3489249Y891799D01*
X3487448Y886500D01*
X3487448Y882899D01*
X3489249Y877500D01*
X3492848Y873899D01*
X3496449Y872100D01*
X3501749Y872100D01*
X3505348Y873899D01*
X3508949Y877500D01*
X3510748Y882899D01*
X3510748Y886500D01*
X3508949Y891799D01*
X3505348Y895399D01*
X3501749Y897199D01*
X3496449Y897199D01*
X3550048Y909699D02*
G01*
X3550048Y872100D01*
X3575149Y909699D02*
G01*
X3550048Y884699D01*
X3559049Y893600D02*
G01*
X3575149Y872100D01*
X3586949Y897199D02*
G01*
X3586949Y872100D01*
X3586949Y890000D02*
G01*
X3592349Y895399D01*
X3595949Y897199D01*
X3601248Y897199D01*
X3604849Y895399D01*
X3606648Y890000D01*
X3606648Y872100D01*
X3627349Y897199D02*
G01*
X3623849Y895399D01*
X3620249Y891799D01*
X3618449Y886500D01*
X3618449Y882899D01*
X3620249Y877500D01*
X3623849Y873899D01*
X3627349Y872100D01*
X3632749Y872100D01*
X3636349Y873899D01*
X3639948Y877500D01*
X3641749Y882899D01*
X3641749Y886500D01*
X3639948Y891799D01*
X3636349Y895399D01*
X3632749Y897199D01*
X3627349Y897199D01*
X3653549Y909699D02*
G01*
X3653549Y872100D01*
X3653549Y891799D02*
G01*
X3657148Y895399D01*
X3660649Y897199D01*
X3666049Y897199D01*
X3669648Y895399D01*
X3673248Y891799D01*
X3674948Y886500D01*
X3674948Y882899D01*
X3673248Y877500D01*
X3669648Y873899D01*
X3666049Y872100D01*
X3660649Y872100D01*
X3657148Y873899D01*
X3653549Y877500D01*
X3380200Y539699D02*
G01*
X3365901Y502100D01*
X3380200Y539699D02*
G01*
X3394501Y502100D01*
X3371301Y514699D02*
G01*
X3389201Y514699D01*
X3406301Y527199D02*
G01*
X3406301Y509299D01*
X3408100Y503899D01*
X3411701Y502100D01*
X3417101Y502100D01*
X3420700Y503899D01*
X3426000Y509299D01*
X3426000Y527199D02*
G01*
X3426000Y502100D01*
X3459300Y539699D02*
G01*
X3459300Y502100D01*
X3459300Y521799D02*
G01*
X3455700Y525399D01*
X3452200Y527199D01*
X3446800Y527199D01*
X3443200Y525399D01*
X3439601Y521799D01*
X3437800Y516500D01*
X3437800Y512899D01*
X3439601Y507500D01*
X3443200Y503899D01*
X3446800Y502100D01*
X3452200Y502100D01*
X3455700Y503899D01*
X3459300Y507500D01*
X3471100Y539699D02*
G01*
X3472901Y537899D01*
X3474700Y539699D01*
X3472901Y541500D01*
X3471100Y539699D01*
X3472901Y527199D02*
G01*
X3472901Y502100D01*
X3495501Y527199D02*
G01*
X3491900Y525399D01*
X3488301Y521799D01*
X3486500Y516500D01*
X3486500Y512899D01*
X3488301Y507500D01*
X3491900Y503899D01*
X3495501Y502100D01*
X3500801Y502100D01*
X3504400Y503899D01*
X3508001Y507500D01*
X3509800Y512899D01*
X3509800Y516500D01*
X3508001Y521799D01*
X3504400Y525399D01*
X3500801Y527199D01*
X3495501Y527199D01*
X3549101Y539699D02*
G01*
X3549101Y502100D01*
X3574201Y539699D02*
G01*
X3549101Y514699D01*
X3558100Y523600D02*
G01*
X3574201Y502100D01*
X3586000Y527199D02*
G01*
X3586000Y502100D01*
X3586000Y520000D02*
G01*
X3591400Y525399D01*
X3595001Y527199D01*
X3600300Y527199D01*
X3603900Y525399D01*
X3605700Y520000D01*
X3605700Y502100D01*
X3626500Y527199D02*
G01*
X3622901Y525399D01*
X3619300Y521799D01*
X3617501Y516500D01*
X3617501Y512899D01*
X3619300Y507500D01*
X3622901Y503899D01*
X3626500Y502100D01*
X3631800Y502100D01*
X3635401Y503899D01*
X3639000Y507500D01*
X3640801Y512899D01*
X3640801Y516500D01*
X3639000Y521799D01*
X3635401Y525399D01*
X3631800Y527199D01*
X3626500Y527199D01*
X3652601Y539699D02*
G01*
X3652601Y502100D01*
X3652601Y521799D02*
G01*
X3656201Y525399D01*
X3659700Y527199D01*
X3665101Y527199D01*
X3668701Y525399D01*
X3672300Y521799D01*
X3674101Y516500D01*
X3674101Y512899D01*
X3672300Y507500D01*
X3668701Y503899D01*
X3665101Y502100D01*
X3659700Y502100D01*
X3656201Y503899D01*
X3652601Y507500D01*
X2925736Y541498D02*
G01*
X2925736Y503899D01*
X2925736Y503899D02*
G01*
X2947236Y503899D01*
X2985837Y532599D02*
G01*
X2984036Y536199D01*
X2980537Y539699D01*
X2976936Y541498D01*
X2969736Y541498D01*
X2966136Y539699D01*
X2962637Y536199D01*
X2960837Y532599D01*
X2959036Y527199D01*
X2959036Y518299D01*
X2960837Y512899D01*
X2962637Y509299D01*
X2966136Y505698D01*
X2969736Y503899D01*
X2976936Y503899D01*
X2980537Y505698D01*
X2984036Y509299D01*
X2985837Y512899D01*
X2997637Y541498D02*
G01*
X2997637Y503899D01*
X2997637Y541498D02*
G01*
X3010236Y541498D01*
X3015537Y539699D01*
X3019137Y536199D01*
X3020937Y532599D01*
X3022736Y527199D01*
X3022736Y518299D01*
X3020937Y512899D01*
X3019137Y509299D01*
X3015537Y505698D01*
X3010236Y503899D01*
X2997637Y503899D01*
X1854300Y162901D02*
G01*
X1840000Y125300D01*
X1854300Y162901D02*
G01*
X1868599Y125300D01*
X1845399Y137901D02*
G01*
X1863299Y137901D01*
X1880399Y162901D02*
G01*
X1880399Y125300D01*
X1880399Y145001D02*
G01*
X1883999Y148600D01*
X1887600Y150401D01*
X1893000Y150401D01*
X1896499Y148600D01*
X1900100Y145001D01*
X1901899Y139701D01*
X1901899Y136100D01*
X1900100Y130700D01*
X1896499Y127100D01*
X1893000Y125300D01*
X1887600Y125300D01*
X1883999Y127100D01*
X1880399Y130700D01*
X1922700Y150401D02*
G01*
X1919099Y148600D01*
X1915500Y145001D01*
X1913699Y139701D01*
X1913699Y136100D01*
X1915500Y130700D01*
X1919099Y127100D01*
X1922700Y125300D01*
X1928000Y125300D01*
X1931599Y127100D01*
X1935200Y130700D01*
X1936999Y136100D01*
X1936999Y139701D01*
X1935200Y145001D01*
X1931599Y148600D01*
X1928000Y150401D01*
X1922700Y150401D01*
X1948800Y150401D02*
G01*
X1948800Y125300D01*
X1948800Y139701D02*
G01*
X1950600Y145001D01*
X1954200Y148600D01*
X1957799Y150401D01*
X1963100Y150401D01*
X1980299Y162901D02*
G01*
X1980299Y132501D01*
X1982100Y127100D01*
X1985699Y125300D01*
X1989200Y125300D01*
X1974899Y150401D02*
G01*
X1987500Y150401D01*
X2053699Y157600D02*
G01*
X2050100Y161100D01*
X2044700Y162901D01*
X2037600Y162901D01*
X2032200Y161100D01*
X2028599Y157600D01*
X2028599Y154000D01*
X2030399Y150401D01*
X2032200Y148600D01*
X2035799Y146801D01*
X2046499Y143200D01*
X2050100Y141500D01*
X2051899Y139701D01*
X2053699Y136100D01*
X2053699Y130700D01*
X2050100Y127100D01*
X2044700Y125300D01*
X2037600Y125300D01*
X2032200Y127100D01*
X2028599Y130700D01*
X2065500Y150401D02*
G01*
X2072600Y125300D01*
X2079799Y150401D02*
G01*
X2072600Y125300D01*
X2079799Y150401D02*
G01*
X2086999Y125300D01*
X2094099Y150401D02*
G01*
X2086999Y125300D01*
X2105900Y162901D02*
G01*
X2107700Y161100D01*
X2109499Y162901D01*
X2107700Y164701D01*
X2105900Y162901D01*
X2107700Y150401D02*
G01*
X2107700Y125300D01*
X2126700Y162901D02*
G01*
X2126700Y132501D01*
X2128500Y127100D01*
X2132100Y125300D01*
X2135600Y125300D01*
X2121300Y150401D02*
G01*
X2133800Y150401D01*
X2168900Y145001D02*
G01*
X2165299Y148600D01*
X2161800Y150401D01*
X2156400Y150401D01*
X2152799Y148600D01*
X2149200Y145001D01*
X2147399Y139701D01*
X2147399Y136100D01*
X2149200Y130700D01*
X2152799Y127100D01*
X2156400Y125300D01*
X2161800Y125300D01*
X2165299Y127100D01*
X2168900Y130700D01*
X2180699Y162901D02*
G01*
X2180699Y125300D01*
X2180699Y143200D02*
G01*
X2186099Y148600D01*
X2189700Y150401D01*
X2195000Y150401D01*
X2198599Y148600D01*
X2200399Y143200D01*
X2200399Y125300D01*
X2270244Y164699D02*
G01*
X2270244Y127100D01*
X2257744Y164699D02*
G01*
X2282843Y164699D01*
X2294643Y141500D02*
G01*
X2316044Y141500D01*
X2316044Y145000D01*
X2314243Y148600D01*
X2312543Y150399D01*
X2308944Y152199D01*
X2303544Y152199D01*
X2299943Y150399D01*
X2296444Y146799D01*
X2294643Y141500D01*
X2294643Y137899D01*
X2296444Y132500D01*
X2299943Y128899D01*
X2303544Y127100D01*
X2308944Y127100D01*
X2312543Y128899D01*
X2316044Y132500D01*
X2327943Y164699D02*
G01*
X2327943Y127100D01*
X2339744Y141500D02*
G01*
X2361144Y141500D01*
X2361144Y145000D01*
X2359344Y148600D01*
X2357644Y150399D01*
X2354044Y152199D01*
X2348644Y152199D01*
X2345043Y150399D01*
X2341544Y146799D01*
X2339744Y141500D01*
X2339744Y137899D01*
X2341544Y132500D01*
X2345043Y128899D01*
X2348644Y127100D01*
X2354044Y127100D01*
X2357644Y128899D01*
X2361144Y132500D01*
X2372943Y152199D02*
G01*
X2372943Y127100D01*
X2372943Y145000D02*
G01*
X2378343Y150399D01*
X2381944Y152199D01*
X2387344Y152199D01*
X2390843Y150399D01*
X2392644Y145000D01*
X2392644Y127100D01*
X2392644Y145000D02*
G01*
X2398044Y150399D01*
X2401643Y152199D01*
X2406944Y152199D01*
X2410544Y150399D01*
X2412344Y145000D01*
X2412344Y127100D01*
X2424143Y141500D02*
G01*
X2445644Y141500D01*
X2445644Y145000D01*
X2443843Y148600D01*
X2442043Y150399D01*
X2438443Y152199D01*
X2433144Y152199D01*
X2429543Y150399D01*
X2425943Y146799D01*
X2424143Y141500D01*
X2424143Y137899D01*
X2425943Y132500D01*
X2429543Y128899D01*
X2433144Y127100D01*
X2438443Y127100D01*
X2442043Y128899D01*
X2445644Y132500D01*
X2462843Y164699D02*
G01*
X2462843Y134299D01*
X2464643Y128899D01*
X2468244Y127100D01*
X2471743Y127100D01*
X2457443Y152199D02*
G01*
X2469943Y152199D01*
X2483544Y152199D02*
G01*
X2483544Y127100D01*
X2483544Y141500D02*
G01*
X2485343Y146799D01*
X2488944Y150399D01*
X2492543Y152199D01*
X2497943Y152199D01*
X2511544Y152199D02*
G01*
X2522244Y127100D01*
X2532943Y152199D02*
G01*
X2522244Y127100D01*
X2518644Y120000D01*
X2515043Y116399D01*
X2511544Y114600D01*
X2509744Y114600D01*
X2572344Y164699D02*
G01*
X2572344Y127100D01*
X2572344Y164699D02*
G01*
X2588443Y164699D01*
X2593843Y162899D01*
X2595644Y161100D01*
X2597443Y157600D01*
X2597443Y154000D01*
X2595644Y150399D01*
X2593843Y148600D01*
X2588443Y146799D01*
X2572344Y146799D01*
X2584844Y146799D02*
G01*
X2597443Y127100D01*
X2634243Y159400D02*
G01*
X2630644Y162899D01*
X2625343Y164699D01*
X2618144Y164699D01*
X2612744Y162899D01*
X2609243Y159400D01*
X2609243Y155799D01*
X2611044Y152199D01*
X2612744Y150399D01*
X2616343Y148600D01*
X2627143Y145000D01*
X2630644Y143299D01*
X2632443Y141500D01*
X2634243Y137899D01*
X2634243Y132500D01*
X2630644Y128899D01*
X2625343Y127100D01*
X2618144Y127100D01*
X2612744Y128899D01*
X2609243Y132500D01*
X2647843Y155799D02*
G01*
X2647843Y157600D01*
X2649643Y161100D01*
X2651444Y162899D01*
X2655043Y164699D01*
X2662143Y164699D01*
X2665744Y162899D01*
X2667543Y161100D01*
X2669344Y157600D01*
X2669344Y154000D01*
X2667543Y150399D01*
X2663944Y145000D01*
X2646044Y127100D01*
X2671144Y127100D01*
X2686544Y164699D02*
G01*
X2706243Y164699D01*
X2695443Y150399D01*
X2700843Y150399D01*
X2704444Y148600D01*
X2706243Y146799D01*
X2707943Y141500D01*
X2707943Y137899D01*
X2706243Y132500D01*
X2702644Y128899D01*
X2697244Y127100D01*
X2691844Y127100D01*
X2686544Y128899D01*
X2684744Y130700D01*
X2682943Y134299D01*
X2721643Y155799D02*
G01*
X2721643Y157600D01*
X2723343Y161100D01*
X2725144Y162899D01*
X2728743Y164699D01*
X2735943Y164699D01*
X2739444Y162899D01*
X2741243Y161100D01*
X2743044Y157600D01*
X2743044Y154000D01*
X2741243Y150399D01*
X2737744Y145000D01*
X2719844Y127100D01*
X2744844Y127100D01*
X2871507Y162901D02*
G01*
X2871507Y125300D01*
X2859007Y162901D02*
G01*
X2884107Y162901D01*
X2895906Y162901D02*
G01*
X2897707Y161100D01*
X2899407Y162901D01*
X2897707Y164701D01*
X2895906Y162901D01*
X2897707Y150401D02*
G01*
X2897707Y125300D01*
X2911306Y150401D02*
G01*
X2911306Y125300D01*
X2911306Y143200D02*
G01*
X2916607Y148600D01*
X2920207Y150401D01*
X2925607Y150401D01*
X2929206Y148600D01*
X2930906Y143200D01*
X2930906Y125300D01*
X2944507Y150401D02*
G01*
X2955307Y125300D01*
X2966006Y150401D02*
G01*
X2955307Y125300D01*
X2951706Y118200D01*
X2948107Y114600D01*
X2944507Y112800D01*
X2942807Y112800D01*
X2990406Y162901D02*
G01*
X2990406Y125300D01*
X2977807Y162901D02*
G01*
X3002906Y162901D01*
X3014706Y150401D02*
G01*
X3014706Y125300D01*
X3014706Y139701D02*
G01*
X3016507Y145001D01*
X3020106Y148600D01*
X3023607Y150401D01*
X3029007Y150401D01*
X3062307Y150401D02*
G01*
X3062307Y125300D01*
X3062307Y145001D02*
G01*
X3058707Y148600D01*
X3055106Y150401D01*
X3049807Y150401D01*
X3046207Y148600D01*
X3042606Y145001D01*
X3040807Y139701D01*
X3040807Y136100D01*
X3042606Y130700D01*
X3046207Y127100D01*
X3049807Y125300D01*
X3055106Y125300D01*
X3058707Y127100D01*
X3062307Y130700D01*
X3074107Y150401D02*
G01*
X3093806Y125300D01*
X3093806Y150401D02*
G01*
X3074107Y125300D01*
X3133207Y162901D02*
G01*
X3133207Y125300D01*
X3133207Y162901D02*
G01*
X3149306Y162901D01*
X3154606Y161100D01*
X3156406Y159301D01*
X3158207Y155801D01*
X3158207Y152201D01*
X3156406Y148600D01*
X3154606Y146801D01*
X3149306Y145001D01*
X3133207Y145001D01*
X3145707Y145001D02*
G01*
X3158207Y125300D01*
X3195106Y157600D02*
G01*
X3191507Y161100D01*
X3186107Y162901D01*
X3179007Y162901D01*
X3173607Y161100D01*
X3170006Y157600D01*
X3170006Y154000D01*
X3171806Y150401D01*
X3173607Y148600D01*
X3177206Y146801D01*
X3187906Y143200D01*
X3191507Y141500D01*
X3193307Y139701D01*
X3195106Y136100D01*
X3195106Y130700D01*
X3191507Y127100D01*
X3186107Y125300D01*
X3179007Y125300D01*
X3173607Y127100D01*
X3170006Y130700D01*
X3208707Y154000D02*
G01*
X3208707Y155801D01*
X3210506Y159301D01*
X3212307Y161100D01*
X3215807Y162901D01*
X3223006Y162901D01*
X3226607Y161100D01*
X3228406Y159301D01*
X3230207Y155801D01*
X3230207Y152201D01*
X3228406Y148600D01*
X3224807Y143200D01*
X3206907Y125300D01*
X3231907Y125300D01*
X3247307Y162901D02*
G01*
X3267007Y162901D01*
X3256306Y148600D01*
X3261607Y148600D01*
X3265207Y146801D01*
X3267007Y145001D01*
X3268806Y139701D01*
X3268806Y136100D01*
X3267007Y130700D01*
X3263406Y127100D01*
X3258107Y125300D01*
X3252707Y125300D01*
X3247307Y127100D01*
X3245506Y128901D01*
X3243806Y132501D01*
X3282407Y154000D02*
G01*
X3282407Y155801D01*
X3284206Y159301D01*
X3286006Y161100D01*
X3289606Y162901D01*
X3296706Y162901D01*
X3300307Y161100D01*
X3302106Y159301D01*
X3303906Y155801D01*
X3303906Y152201D01*
X3302106Y148600D01*
X3298506Y143200D01*
X3280607Y125300D01*
X3305707Y125300D01*
X3480309Y164699D02*
G01*
X3480309Y127100D01*
X3480309Y164699D02*
G01*
X3496409Y164699D01*
X3501809Y162899D01*
X3503609Y161100D01*
X3505410Y157600D01*
X3505410Y154000D01*
X3503609Y150399D01*
X3501809Y148600D01*
X3496409Y146799D01*
X3480309Y146799D02*
G01*
X3496409Y146799D01*
X3501809Y145000D01*
X3503609Y143299D01*
X3505410Y139699D01*
X3505410Y134299D01*
X3503609Y130700D01*
X3501809Y128899D01*
X3496409Y127100D01*
X3480309Y127100D01*
X3517209Y152199D02*
G01*
X3517209Y134299D01*
X3519009Y128899D01*
X3522510Y127100D01*
X3527910Y127100D01*
X3531509Y128899D01*
X3536809Y134299D01*
X3536809Y152199D02*
G01*
X3536809Y127100D01*
X3554009Y164699D02*
G01*
X3554009Y134299D01*
X3555810Y128899D01*
X3559409Y127100D01*
X3563010Y127100D01*
X3548710Y152199D02*
G01*
X3561210Y152199D01*
X3580209Y164699D02*
G01*
X3580209Y134299D01*
X3581909Y128899D01*
X3585510Y127100D01*
X3589110Y127100D01*
X3574809Y152199D02*
G01*
X3587309Y152199D01*
X3609910Y152199D02*
G01*
X3606310Y150399D01*
X3602709Y146799D01*
X3600910Y141500D01*
X3600910Y137899D01*
X3602709Y132500D01*
X3606310Y128899D01*
X3609910Y127100D01*
X3615209Y127100D01*
X3618810Y128899D01*
X3622410Y132500D01*
X3624210Y137899D01*
X3624210Y141500D01*
X3622410Y146799D01*
X3618810Y150399D01*
X3615209Y152199D01*
X3609910Y152199D01*
X3636009Y152199D02*
G01*
X3636009Y127100D01*
X3636009Y145000D02*
G01*
X3641409Y150399D01*
X3644910Y152199D01*
X3650309Y152199D01*
X3653909Y150399D01*
X3655709Y145000D01*
X3655709Y127100D01*
X3687209Y146799D02*
G01*
X3685410Y150399D01*
X3680010Y152199D01*
X3674610Y152199D01*
X3669309Y150399D01*
X3667510Y146799D01*
X3669309Y143299D01*
X3672910Y141500D01*
X3681809Y139699D01*
X3685410Y137899D01*
X3687209Y134299D01*
X3687209Y132500D01*
X3685410Y128899D01*
X3680010Y127100D01*
X3674610Y127100D01*
X3669309Y128899D01*
X3667510Y132500D01*
X3726509Y143299D02*
G01*
X3758810Y143299D01*
X3798109Y164699D02*
G01*
X3798109Y127100D01*
X3798109Y164699D02*
G01*
X3814210Y164699D01*
X3819610Y162899D01*
X3821409Y161100D01*
X3823209Y157600D01*
X3823209Y154000D01*
X3821409Y150399D01*
X3819610Y148600D01*
X3814210Y146799D01*
X3798109Y146799D01*
X3810709Y146799D02*
G01*
X3823209Y127100D01*
X3835010Y157600D02*
G01*
X3838609Y159400D01*
X3843909Y164699D01*
X3843909Y127100D01*
X4060299Y670850D02*
G01*
X4097899Y670850D01*
X4060299Y670850D02*
G01*
X4060299Y686950D01*
X4062100Y692350D01*
X4063900Y694151D01*
X4067399Y695951D01*
X4071000Y695951D01*
X4074600Y694151D01*
X4076400Y692350D01*
X4078199Y686950D01*
X4078199Y670850D02*
G01*
X4078199Y686950D01*
X4080000Y692350D01*
X4081700Y694151D01*
X4085299Y695951D01*
X4090699Y695951D01*
X4094300Y694151D01*
X4096099Y692350D01*
X4097899Y686950D01*
X4097899Y670850D01*
X4072799Y707750D02*
G01*
X4090699Y707750D01*
X4096099Y709551D01*
X4097899Y713051D01*
X4097899Y718451D01*
X4096099Y722051D01*
X4090699Y727350D01*
X4072799Y727350D02*
G01*
X4097899Y727350D01*
X4060299Y744551D02*
G01*
X4090699Y744551D01*
X4096099Y746350D01*
X4097899Y749951D01*
X4097899Y753551D01*
X4072799Y739250D02*
G01*
X4072799Y751750D01*
X4060299Y770751D02*
G01*
X4090699Y770751D01*
X4096099Y772451D01*
X4097899Y776051D01*
X4097899Y779650D01*
X4072799Y765351D02*
G01*
X4072799Y777851D01*
X4072799Y800450D02*
G01*
X4074600Y796851D01*
X4078199Y793251D01*
X4083500Y791451D01*
X4087100Y791451D01*
X4092500Y793251D01*
X4096099Y796851D01*
X4097899Y800450D01*
X4097899Y805751D01*
X4096099Y809351D01*
X4092500Y812950D01*
X4087100Y814751D01*
X4083500Y814751D01*
X4078199Y812950D01*
X4074600Y809351D01*
X4072799Y805751D01*
X4072799Y800450D01*
X4072799Y826550D02*
G01*
X4097899Y826550D01*
X4080000Y826550D02*
G01*
X4074600Y831950D01*
X4072799Y835450D01*
X4072799Y840850D01*
X4074600Y844450D01*
X4080000Y846251D01*
X4097899Y846251D01*
X4078199Y877750D02*
G01*
X4074600Y875951D01*
X4072799Y870551D01*
X4072799Y865151D01*
X4074600Y859850D01*
X4078199Y858051D01*
X4081700Y859850D01*
X4083500Y863451D01*
X4085299Y872350D01*
X4087100Y875951D01*
X4090699Y877750D01*
X4092500Y877750D01*
X4096099Y875951D01*
X4097899Y870551D01*
X4097899Y865151D01*
X4096099Y859850D01*
X4092500Y858051D01*
X4081700Y917051D02*
G01*
X4081700Y949351D01*
X4069200Y1015551D02*
G01*
X4065600Y1013751D01*
X4062100Y1010151D01*
X4060299Y1006550D01*
X4060299Y999450D01*
X4062100Y995850D01*
X4065600Y992251D01*
X4069200Y990450D01*
X4074600Y988650D01*
X4083500Y988650D01*
X4088900Y990450D01*
X4092500Y992251D01*
X4096099Y995850D01*
X4097899Y999450D01*
X4097899Y1006550D01*
X4096099Y1010151D01*
X4092500Y1013751D01*
X4088900Y1015551D01*
X4060299Y1045250D02*
G01*
X4085299Y1027350D01*
X4085299Y1054151D01*
X4060299Y1045250D02*
G01*
X4097899Y1045250D01*
X4290299Y773198D02*
G01*
X4327900Y773198D01*
X4290299Y773198D02*
G01*
X4290299Y796498D01*
X4308199Y773198D02*
G01*
X4308199Y787498D01*
X4327900Y773198D02*
G01*
X4327900Y796498D01*
X4290299Y808299D02*
G01*
X4327900Y808299D01*
X4290299Y808299D02*
G01*
X4327900Y822599D01*
X4290299Y836898D02*
G01*
X4327900Y822599D01*
X4290299Y836898D02*
G01*
X4327900Y836898D01*
X4290299Y848699D02*
G01*
X4327900Y848699D01*
X4299200Y887399D02*
G01*
X4295600Y885599D01*
X4292100Y881999D01*
X4290299Y878398D01*
X4290299Y871298D01*
X4292100Y867698D01*
X4295600Y864099D01*
X4299200Y862298D01*
X4304600Y860498D01*
X4313500Y860498D01*
X4318900Y862298D01*
X4322500Y864099D01*
X4326099Y867698D01*
X4327900Y871298D01*
X4327900Y878398D01*
X4326099Y881999D01*
X4322500Y885599D01*
X4318900Y887399D01*
X4299200Y928499D02*
G01*
X4297399Y928499D01*
X4293900Y930299D01*
X4292100Y932098D01*
X4290299Y935698D01*
X4290299Y942799D01*
X4292100Y946399D01*
X4293900Y948198D01*
X4297399Y949998D01*
X4301000Y949998D01*
X4304600Y948198D01*
X4310000Y944598D01*
X4327900Y926698D01*
X4327900Y951799D01*
X2635299Y659949D02*
G01*
X2672899Y659949D01*
X2635299Y659949D02*
G01*
X2635299Y676050D01*
X2637100Y681449D01*
X2638900Y683249D01*
X2642399Y685050D01*
X2646000Y685050D01*
X2649600Y683249D01*
X2651400Y681449D01*
X2653199Y676050D01*
X2653199Y659949D02*
G01*
X2653199Y676050D01*
X2655000Y681449D01*
X2656700Y683249D01*
X2660299Y685050D01*
X2665699Y685050D01*
X2669300Y683249D01*
X2671099Y681449D01*
X2672899Y676050D01*
X2672899Y659949D01*
X2647799Y696849D02*
G01*
X2665699Y696849D01*
X2671099Y698649D01*
X2672899Y702150D01*
X2672899Y707550D01*
X2671099Y711149D01*
X2665699Y716449D01*
X2647799Y716449D02*
G01*
X2672899Y716449D01*
X2635299Y733649D02*
G01*
X2665699Y733649D01*
X2671099Y735450D01*
X2672899Y739050D01*
X2672899Y742649D01*
X2647799Y728350D02*
G01*
X2647799Y740850D01*
X2635299Y759850D02*
G01*
X2665699Y759850D01*
X2671099Y761550D01*
X2672899Y765149D01*
X2672899Y768750D01*
X2647799Y754450D02*
G01*
X2647799Y766950D01*
X2647799Y789549D02*
G01*
X2649600Y785949D01*
X2653199Y782350D01*
X2658500Y780549D01*
X2662100Y780549D01*
X2667500Y782350D01*
X2671099Y785949D01*
X2672899Y789549D01*
X2672899Y794850D01*
X2671099Y798449D01*
X2667500Y802049D01*
X2662100Y803850D01*
X2658500Y803850D01*
X2653199Y802049D01*
X2649600Y798449D01*
X2647799Y794850D01*
X2647799Y789549D01*
X2647799Y815650D02*
G01*
X2672899Y815650D01*
X2655000Y815650D02*
G01*
X2649600Y821050D01*
X2647799Y824549D01*
X2647799Y829949D01*
X2649600Y833550D01*
X2655000Y835349D01*
X2672899Y835349D01*
X2653199Y866849D02*
G01*
X2649600Y865050D01*
X2647799Y859650D01*
X2647799Y854250D01*
X2649600Y848949D01*
X2653199Y847150D01*
X2656700Y848949D01*
X2658500Y852550D01*
X2660299Y861449D01*
X2662100Y865050D01*
X2665699Y866849D01*
X2667500Y866849D01*
X2671099Y865050D01*
X2672899Y859650D01*
X2672899Y854250D01*
X2671099Y848949D01*
X2667500Y847150D01*
X2656700Y906149D02*
G01*
X2656700Y938449D01*
X2640600Y1002849D02*
G01*
X2637100Y999250D01*
X2635299Y993850D01*
X2635299Y986750D01*
X2637100Y981350D01*
X2640600Y977750D01*
X2644200Y977750D01*
X2647799Y979549D01*
X2649600Y981350D01*
X2651400Y984949D01*
X2655000Y995650D01*
X2656700Y999250D01*
X2658500Y1001050D01*
X2662100Y1002849D01*
X2667500Y1002849D01*
X2671099Y999250D01*
X2672899Y993850D01*
X2672899Y986750D01*
X2671099Y981350D01*
X2667500Y977750D01*
X2658500Y1014650D02*
G01*
X2658500Y1036149D01*
X2655000Y1036149D01*
X2651400Y1034349D01*
X2649600Y1032550D01*
X2647799Y1028949D01*
X2647799Y1023550D01*
X2649600Y1020050D01*
X2653199Y1016449D01*
X2658500Y1014650D01*
X2662100Y1014650D01*
X2667500Y1016449D01*
X2671099Y1020050D01*
X2672899Y1023550D01*
X2672899Y1028949D01*
X2671099Y1032550D01*
X2667500Y1036149D01*
X2635299Y1053249D02*
G01*
X2665699Y1053249D01*
X2671099Y1055050D01*
X2672899Y1058649D01*
X2672899Y1062249D01*
X2647799Y1047950D02*
G01*
X2647799Y1060450D01*
X2635299Y1079450D02*
G01*
X2665699Y1079450D01*
X2671099Y1081250D01*
X2672899Y1084749D01*
X2672899Y1088350D01*
X2647799Y1074050D02*
G01*
X2647799Y1086550D01*
X2635299Y1100149D02*
G01*
X2637100Y1101950D01*
X2635299Y1103750D01*
X2633500Y1101950D01*
X2635299Y1100149D01*
X2647799Y1101950D02*
G01*
X2672899Y1101950D01*
X2647799Y1115549D02*
G01*
X2672899Y1115549D01*
X2655000Y1115549D02*
G01*
X2649600Y1120949D01*
X2647799Y1124549D01*
X2647799Y1129850D01*
X2649600Y1133449D01*
X2655000Y1135250D01*
X2672899Y1135250D01*
X2647799Y1168550D02*
G01*
X2676400Y1168550D01*
X2681800Y1166750D01*
X2683599Y1164949D01*
X2685399Y1161350D01*
X2685399Y1156050D01*
X2683599Y1152449D01*
X2653199Y1168550D02*
G01*
X2649600Y1164949D01*
X2647799Y1161350D01*
X2647799Y1156050D01*
X2649600Y1152449D01*
X2653199Y1148850D01*
X2658500Y1147049D01*
X2662100Y1147049D01*
X2667500Y1148850D01*
X2671099Y1152449D01*
X2672899Y1156050D01*
X2672899Y1161350D01*
X2671099Y1164949D01*
X2667500Y1168550D01*
X2653199Y1200050D02*
G01*
X2649600Y1198249D01*
X2647799Y1192849D01*
X2647799Y1187550D01*
X2649600Y1182150D01*
X2653199Y1180349D01*
X2656700Y1182150D01*
X2658500Y1185749D01*
X2660299Y1194650D01*
X2662100Y1198249D01*
X2665699Y1200050D01*
X2667500Y1200050D01*
X2671099Y1198249D01*
X2672899Y1192849D01*
X2672899Y1187550D01*
X2671099Y1182150D01*
X2667500Y1180349D01*
D11*
X2965399Y1905000D02*
G01*
X2922500Y1905000D01*
X2965399Y1905000D02*
G01*
X2965399Y1886599D01*
X2963400Y1880500D01*
X2961300Y1878400D01*
X2957200Y1876399D01*
X2953100Y1876399D01*
X2948999Y1878400D01*
X2946999Y1880500D01*
X2945000Y1886599D01*
X2945000Y1905000D01*
X2945000Y1890700D02*
G01*
X2922500Y1876399D01*
X2957200Y1862899D02*
G01*
X2959300Y1858800D01*
X2965399Y1852600D01*
X2922500Y1852600D01*
X2957200Y1839099D02*
G01*
X2959300Y1835000D01*
X2965399Y1828899D01*
X2922500Y1828899D01*
D10*
X2879700Y1957600D02*
G01*
X2879700Y1937899D01*
X2865399Y1948699D01*
X2865399Y1943299D01*
X2863599Y1939699D01*
X2861800Y1937899D01*
X2856499Y1936100D01*
X2852899Y1936100D01*
X2847500Y1937899D01*
X2843900Y1941500D01*
X2842100Y1946900D01*
X2842100Y1952300D01*
X2843900Y1957600D01*
X2845699Y1959400D01*
X2849300Y1961199D01*
X2851099Y1922500D02*
G01*
X2849300Y1924299D01*
X2847500Y1922500D01*
X2849300Y1920799D01*
X2851099Y1922500D01*
X2879700Y1905399D02*
G01*
X2879700Y1885700D01*
X2865399Y1896399D01*
X2865399Y1890999D01*
X2863599Y1887500D01*
X2861800Y1885700D01*
X2856499Y1883899D01*
X2852899Y1883899D01*
X2847500Y1885700D01*
X2843900Y1889299D01*
X2842100Y1894600D01*
X2842100Y1900000D01*
X2843900Y1905399D01*
X2845699Y1907199D01*
X2849300Y1908899D01*
X2879700Y1872100D02*
G01*
X2842100Y1872100D01*
X2867200Y1854200D02*
G01*
X2849300Y1872100D01*
X2856499Y1864899D02*
G01*
X2842100Y1852399D01*
D11*
X4042299Y2205399D02*
G01*
X4038199Y2203400D01*
X4034099Y2199299D01*
X4031999Y2195200D01*
X4030000Y2189000D01*
X4030000Y2178800D01*
X4031999Y2172700D01*
X4034099Y2168600D01*
X4038199Y2164499D01*
X4042299Y2162500D01*
X4050500Y2162500D01*
X4054499Y2164499D01*
X4058599Y2168600D01*
X4060699Y2172700D01*
X4062700Y2178800D01*
X4062700Y2189000D01*
X4060699Y2195200D01*
X4058599Y2199299D01*
X4054499Y2203400D01*
X4050500Y2205399D01*
X4042299Y2205399D01*
X4048400Y2170599D02*
G01*
X4060699Y2158400D01*
X4076199Y2197199D02*
G01*
X4080299Y2199299D01*
X4086499Y2205399D01*
X4086499Y2162500D01*
D12*
X3795299Y1550000D02*
G01*
X3832899Y1550000D01*
X3795299Y1561799D02*
G01*
X3832899Y1561799D01*
X3795299Y1561799D02*
G01*
X3795299Y1577899D01*
X3797100Y1583299D01*
X3798900Y1585100D01*
X3802399Y1586900D01*
X3806000Y1586900D01*
X3809600Y1585100D01*
X3811400Y1583299D01*
X3813199Y1577899D01*
X3813199Y1561799D01*
X3813199Y1574299D02*
G01*
X3832899Y1586900D01*
X3795299Y1598699D02*
G01*
X3832899Y1598699D01*
X3795299Y1598699D02*
G01*
X3795299Y1621900D01*
X3813199Y1598699D02*
G01*
X3813199Y1613000D01*
X3807799Y1684600D02*
G01*
X3813199Y1682800D01*
X3816700Y1679200D01*
X3818500Y1673800D01*
X3818500Y1671999D01*
X3816700Y1666700D01*
X3813199Y1663099D01*
X3807799Y1661300D01*
X3806000Y1661300D01*
X3800600Y1663099D01*
X3797100Y1666700D01*
X3795299Y1671999D01*
X3795299Y1673800D01*
X3797100Y1679200D01*
X3800600Y1682800D01*
X3807799Y1684600D01*
X3816700Y1684600D01*
X3825699Y1682800D01*
X3831099Y1679200D01*
X3832899Y1673800D01*
X3832899Y1670300D01*
X3831099Y1664899D01*
X3827500Y1663099D01*
X3795299Y1717899D02*
G01*
X3795299Y1700000D01*
X3811400Y1698200D01*
X3809600Y1700000D01*
X3807799Y1705300D01*
X3807799Y1710700D01*
X3809600Y1716100D01*
X3813199Y1719600D01*
X3818500Y1721399D01*
X3822100Y1721399D01*
X3827500Y1719600D01*
X3831099Y1716100D01*
X3832899Y1710700D01*
X3832899Y1705300D01*
X3831099Y1700000D01*
X3829300Y1698200D01*
X3825699Y1696399D01*
X3795299Y1744000D02*
G01*
X3797100Y1738600D01*
X3802399Y1735000D01*
X3811400Y1733200D01*
X3816700Y1733200D01*
X3825699Y1735000D01*
X3831099Y1738600D01*
X3832899Y1744000D01*
X3832899Y1747600D01*
X3831099Y1752899D01*
X3825699Y1756500D01*
X3816700Y1758299D01*
X3811400Y1758299D01*
X3802399Y1756500D01*
X3797100Y1752899D01*
X3795299Y1747600D01*
X3795299Y1744000D01*
X3795299Y1788000D02*
G01*
X3820299Y1770100D01*
X3820299Y1796999D01*
X3795299Y1788000D02*
G01*
X3832899Y1788000D01*
X3795299Y1808800D02*
G01*
X3832899Y1808800D01*
X3795299Y1808800D02*
G01*
X3832899Y1833800D01*
X3795299Y1833800D02*
G01*
X3832899Y1833800D01*
X3861800Y1420799D02*
G01*
X3860100Y1424400D01*
X3856499Y1427899D01*
X3852899Y1429699D01*
X3845699Y1429699D01*
X3842200Y1427899D01*
X3838599Y1424400D01*
X3836800Y1420799D01*
X3835000Y1415399D01*
X3835000Y1406500D01*
X3836800Y1401100D01*
X3838599Y1397500D01*
X3842200Y1393899D01*
X3845699Y1392100D01*
X3852899Y1392100D01*
X3856499Y1393899D01*
X3860100Y1397500D01*
X3861800Y1401100D01*
X3861800Y1406500D01*
X3852899Y1406500D02*
G01*
X3861800Y1406500D01*
X3995000Y1429699D02*
G01*
X3995000Y1392100D01*
X3995000Y1429699D02*
G01*
X4007500Y1429699D01*
X4012899Y1427899D01*
X4016499Y1424400D01*
X4018299Y1420799D01*
X4020100Y1415399D01*
X4020100Y1406500D01*
X4018299Y1401100D01*
X4016499Y1397500D01*
X4012899Y1393899D01*
X4007500Y1392100D01*
X3995000Y1392100D01*
X4175100Y1424400D02*
G01*
X4171499Y1427899D01*
X4166099Y1429699D01*
X4158900Y1429699D01*
X4153599Y1427899D01*
X4150000Y1424400D01*
X4150000Y1420799D01*
X4151800Y1417199D01*
X4153599Y1415399D01*
X4157200Y1413600D01*
X4167899Y1410000D01*
X4171499Y1408299D01*
X4173299Y1406500D01*
X4175100Y1402899D01*
X4175100Y1397500D01*
X4171499Y1393899D01*
X4166099Y1392100D01*
X4158900Y1392100D01*
X4153599Y1393899D01*
X4150000Y1397500D01*
D11*
X3687299Y2365100D02*
G01*
X3683199Y2363099D01*
X3679099Y2359000D01*
X3676999Y2354899D01*
X3675000Y2348699D01*
X3675000Y2338499D01*
X3676999Y2332399D01*
X3679099Y2328299D01*
X3683199Y2324200D01*
X3687299Y2322199D01*
X3695500Y2322199D01*
X3699499Y2324200D01*
X3703599Y2328299D01*
X3705699Y2332399D01*
X3707700Y2338499D01*
X3707700Y2348699D01*
X3705699Y2354899D01*
X3703599Y2359000D01*
X3699499Y2363099D01*
X3695500Y2365100D01*
X3687299Y2365100D01*
X3693400Y2330300D02*
G01*
X3705699Y2318099D01*
X3723299Y2354899D02*
G01*
X3723299Y2356900D01*
X3725299Y2360999D01*
X3727399Y2363099D01*
X3731499Y2365100D01*
X3739600Y2365100D01*
X3743699Y2363099D01*
X3745799Y2360999D01*
X3747799Y2356900D01*
X3747799Y2352800D01*
X3745799Y2348699D01*
X3741700Y2342600D01*
X3721199Y2322199D01*
X3749899Y2322199D01*
X3519996Y1360399D02*
G01*
X3519996Y1317500D01*
X3519996Y1360399D02*
G01*
X3538396Y1360399D01*
X3544495Y1358400D01*
X3546595Y1356300D01*
X3548595Y1352199D01*
X3548595Y1348099D01*
X3546595Y1344000D01*
X3544495Y1341999D01*
X3538396Y1340000D01*
X3519996Y1340000D01*
X3534296Y1340000D02*
G01*
X3548595Y1317500D01*
X3572395Y1360399D02*
G01*
X3566196Y1358400D01*
X3564196Y1354299D01*
X3564196Y1350199D01*
X3566196Y1346100D01*
X3570295Y1344000D01*
X3578495Y1341999D01*
X3584596Y1340000D01*
X3588696Y1335900D01*
X3590796Y1331799D01*
X3590796Y1325599D01*
X3588696Y1321500D01*
X3586696Y1319499D01*
X3580496Y1317500D01*
X3572395Y1317500D01*
X3566196Y1319499D01*
X3564196Y1321500D01*
X3562096Y1325599D01*
X3562096Y1331799D01*
X3564196Y1335900D01*
X3568296Y1340000D01*
X3574395Y1341999D01*
X3582596Y1344000D01*
X3586696Y1346100D01*
X3588696Y1350199D01*
X3588696Y1354299D01*
X3586696Y1358400D01*
X3580496Y1360399D01*
X3572395Y1360399D01*
D10*
X3467399Y1265799D02*
G01*
X3467399Y1267600D01*
X3469200Y1271100D01*
X3471000Y1272899D01*
X3474499Y1274699D01*
X3481700Y1274699D01*
X3485299Y1272899D01*
X3487100Y1271100D01*
X3488900Y1267600D01*
X3488900Y1264000D01*
X3487100Y1260399D01*
X3483500Y1255000D01*
X3465600Y1237100D01*
X3490699Y1237100D01*
X3504300Y1246100D02*
G01*
X3502500Y1244299D01*
X3504300Y1242500D01*
X3506000Y1244299D01*
X3504300Y1246100D01*
X3542899Y1274699D02*
G01*
X3525000Y1237100D01*
X3517899Y1274699D02*
G01*
X3542899Y1274699D01*
X3554700Y1274699D02*
G01*
X3554700Y1237100D01*
X3572600Y1262199D02*
G01*
X3554700Y1244299D01*
X3561899Y1251500D02*
G01*
X3574399Y1237100D01*
D11*
X2974237Y1355399D02*
G01*
X2974237Y1312500D01*
X2974237Y1355399D02*
G01*
X2992637Y1355399D01*
X2998737Y1353400D01*
X3000837Y1351300D01*
X3002836Y1347199D01*
X3002836Y1343099D01*
X3000837Y1339000D01*
X2998737Y1336999D01*
X2992637Y1335000D01*
X2974237Y1335000D01*
X2988536Y1335000D02*
G01*
X3002836Y1312500D01*
X3042937Y1341100D02*
G01*
X3040937Y1335000D01*
X3036836Y1330900D01*
X3030736Y1328800D01*
X3028636Y1328800D01*
X3022537Y1330900D01*
X3018437Y1335000D01*
X3016337Y1341100D01*
X3016337Y1343099D01*
X3018437Y1349299D01*
X3022537Y1353400D01*
X3028636Y1355399D01*
X3030736Y1355399D01*
X3036836Y1353400D01*
X3040937Y1349299D01*
X3042937Y1341100D01*
X3042937Y1330900D01*
X3040937Y1320599D01*
X3036836Y1314499D01*
X3030736Y1312500D01*
X3026637Y1312500D01*
X3020437Y1314499D01*
X3018437Y1318600D01*
D10*
X2927890Y1262600D02*
G01*
X2931490Y1264400D01*
X2936890Y1269699D01*
X2936890Y1232100D01*
X2950491Y1241100D02*
G01*
X2948690Y1239299D01*
X2950491Y1237500D01*
X2952290Y1239299D01*
X2950491Y1241100D01*
X2985591Y1269699D02*
G01*
X2967691Y1269699D01*
X2965891Y1253600D01*
X2967691Y1255399D01*
X2972991Y1257199D01*
X2978391Y1257199D01*
X2983791Y1255399D01*
X2987390Y1251799D01*
X2989090Y1246500D01*
X2989090Y1242899D01*
X2987390Y1237500D01*
X2983791Y1233899D01*
X2978391Y1232100D01*
X2972991Y1232100D01*
X2967691Y1233899D01*
X2965891Y1235700D01*
X2964090Y1239299D01*
X3000991Y1269699D02*
G01*
X3000991Y1232100D01*
X3018791Y1257199D02*
G01*
X3000991Y1239299D01*
X3008091Y1246500D02*
G01*
X3020591Y1232100D01*
D11*
X2014137Y489241D02*
G01*
X2014137Y458541D01*
X2016136Y452440D01*
X2020236Y448341D01*
X2026436Y446341D01*
X2030537Y446341D01*
X2036637Y448341D01*
X2040736Y452440D01*
X2042736Y458541D01*
X2042736Y489241D01*
X2080837Y483141D02*
G01*
X2078737Y487240D01*
X2072637Y489241D01*
X2068536Y489241D01*
X2062437Y487240D01*
X2058337Y481041D01*
X2056237Y470841D01*
X2056237Y460641D01*
X2058337Y452440D01*
X2062437Y448341D01*
X2068536Y446341D01*
X2070636Y446341D01*
X2076737Y448341D01*
X2080837Y452440D01*
X2082836Y458541D01*
X2082836Y460641D01*
X2080837Y466741D01*
X2076737Y470841D01*
X2070636Y472840D01*
X2068536Y472840D01*
X2062437Y470841D01*
X2058337Y466741D01*
X2056237Y460641D01*
D10*
X2082998Y1320300D02*
G01*
X2088298Y1322100D01*
X2090099Y1325599D01*
X2090099Y1329200D01*
X2088298Y1332800D01*
X2084699Y1334600D01*
X2077599Y1336399D01*
X2072199Y1338200D01*
X2068599Y1341700D01*
X2066799Y1345300D01*
X2066799Y1350700D01*
X2068599Y1354299D01*
X2070398Y1356100D01*
X2075798Y1357899D01*
X2082998Y1357899D01*
X2088298Y1356100D01*
X2090099Y1354299D01*
X2091899Y1350700D01*
X2091899Y1345300D01*
X2090099Y1341700D01*
X2086499Y1338200D01*
X2081198Y1336399D01*
X2073999Y1334600D01*
X2070398Y1332800D01*
X2068599Y1329200D01*
X2068599Y1325599D01*
X2070398Y1322100D01*
X2075798Y1320300D01*
X2082998Y1320300D01*
X2053199Y1329200D02*
G01*
X2053199Y1327399D01*
X2051499Y1323899D01*
X2049699Y1322100D01*
X2046099Y1320300D01*
X2038899Y1320300D01*
X2035398Y1322100D01*
X2033599Y1323899D01*
X2031799Y1327399D01*
X2031799Y1330999D01*
X2033599Y1334600D01*
X2037098Y1340000D01*
X2054998Y1357899D01*
X2029998Y1357899D01*
X2007398Y1320300D02*
G01*
X2012799Y1322100D01*
X2016399Y1327399D01*
X2018199Y1336399D01*
X2018199Y1341700D01*
X2016399Y1350700D01*
X2012799Y1356100D01*
X2007398Y1357899D01*
X2003899Y1357899D01*
X1998499Y1356100D01*
X1994898Y1350700D01*
X1993099Y1341700D01*
X1993099Y1336399D01*
X1994898Y1327399D01*
X1998499Y1322100D01*
X2003899Y1320300D01*
X2007398Y1320300D01*
X2082998Y1210300D02*
G01*
X2088298Y1212100D01*
X2090099Y1215599D01*
X2090099Y1219200D01*
X2088298Y1222800D01*
X2084699Y1224600D01*
X2077599Y1226399D01*
X2072199Y1228200D01*
X2068599Y1231700D01*
X2066799Y1235300D01*
X2066799Y1240700D01*
X2068599Y1244299D01*
X2070398Y1246100D01*
X2075798Y1247899D01*
X2082998Y1247899D01*
X2088298Y1246100D01*
X2090099Y1244299D01*
X2091899Y1240700D01*
X2091899Y1235300D01*
X2090099Y1231700D01*
X2086499Y1228200D01*
X2081198Y1226399D01*
X2073999Y1224600D01*
X2070398Y1222800D01*
X2068599Y1219200D01*
X2068599Y1215599D01*
X2070398Y1212100D01*
X2075798Y1210300D01*
X2082998Y1210300D01*
X2053199Y1219200D02*
G01*
X2053199Y1217399D01*
X2051499Y1213899D01*
X2049699Y1212100D01*
X2046099Y1210300D01*
X2038899Y1210300D01*
X2035398Y1212100D01*
X2033599Y1213899D01*
X2031799Y1217399D01*
X2031799Y1220999D01*
X2033599Y1224600D01*
X2037098Y1230000D01*
X2054998Y1247899D01*
X2029998Y1247899D01*
X2007398Y1210300D02*
G01*
X2012799Y1212100D01*
X2016399Y1217399D01*
X2018199Y1226399D01*
X2018199Y1231700D01*
X2016399Y1240700D01*
X2012799Y1246100D01*
X2007398Y1247899D01*
X2003899Y1247899D01*
X1998499Y1246100D01*
X1994898Y1240700D01*
X1993099Y1231700D01*
X1993099Y1226399D01*
X1994898Y1217399D01*
X1998499Y1212100D01*
X2003899Y1210300D01*
X2007398Y1210300D01*
X2082998Y1090300D02*
G01*
X2088298Y1092100D01*
X2090099Y1095599D01*
X2090099Y1099200D01*
X2088298Y1102800D01*
X2084699Y1104600D01*
X2077599Y1106399D01*
X2072199Y1108200D01*
X2068599Y1111700D01*
X2066799Y1115300D01*
X2066799Y1120700D01*
X2068599Y1124299D01*
X2070398Y1126100D01*
X2075798Y1127899D01*
X2082998Y1127899D01*
X2088298Y1126100D01*
X2090099Y1124299D01*
X2091899Y1120700D01*
X2091899Y1115300D01*
X2090099Y1111700D01*
X2086499Y1108200D01*
X2081198Y1106399D01*
X2073999Y1104600D01*
X2070398Y1102800D01*
X2068599Y1099200D01*
X2068599Y1095599D01*
X2070398Y1092100D01*
X2075798Y1090300D01*
X2082998Y1090300D01*
X2053199Y1099200D02*
G01*
X2053199Y1097399D01*
X2051499Y1093899D01*
X2049699Y1092100D01*
X2046099Y1090300D01*
X2038899Y1090300D01*
X2035398Y1092100D01*
X2033599Y1093899D01*
X2031799Y1097399D01*
X2031799Y1100999D01*
X2033599Y1104600D01*
X2037098Y1110000D01*
X2054998Y1127899D01*
X2029998Y1127899D01*
X2007398Y1090300D02*
G01*
X2012799Y1092100D01*
X2016399Y1097399D01*
X2018199Y1106399D01*
X2018199Y1111700D01*
X2016399Y1120700D01*
X2012799Y1126100D01*
X2007398Y1127899D01*
X2003899Y1127899D01*
X1998499Y1126100D01*
X1994898Y1120700D01*
X1993099Y1111700D01*
X1993099Y1106399D01*
X1994898Y1097399D01*
X1998499Y1092100D01*
X2003899Y1090300D01*
X2007398Y1090300D01*
X2089799Y970300D02*
G01*
X2095100Y972100D01*
X2096899Y975599D01*
X2096899Y979200D01*
X2095100Y982800D01*
X2091499Y984600D01*
X2084399Y986399D01*
X2078999Y988200D01*
X2075399Y991700D01*
X2073599Y995300D01*
X2073599Y1000700D01*
X2075399Y1004299D01*
X2077200Y1006100D01*
X2082600Y1007899D01*
X2089799Y1007899D01*
X2095100Y1006100D01*
X2096899Y1004299D01*
X2098699Y1000700D01*
X2098699Y995300D01*
X2096899Y991700D01*
X2093299Y988200D01*
X2088000Y986399D01*
X2080799Y984600D01*
X2077200Y982800D01*
X2075399Y979200D01*
X2075399Y975599D01*
X2077200Y972100D01*
X2082600Y970300D01*
X2089799Y970300D01*
X2060000Y979200D02*
G01*
X2060000Y977399D01*
X2058299Y973899D01*
X2056499Y972100D01*
X2052899Y970300D01*
X2045699Y970300D01*
X2042200Y972100D01*
X2040399Y973899D01*
X2038599Y977399D01*
X2038599Y980999D01*
X2040399Y984600D01*
X2043900Y990000D01*
X2061800Y1007899D01*
X2036800Y1007899D01*
X2014200Y970300D02*
G01*
X2019600Y972100D01*
X2023199Y977399D01*
X2025000Y986399D01*
X2025000Y991700D01*
X2023199Y1000700D01*
X2019600Y1006100D01*
X2014200Y1007899D01*
X2010699Y1007899D01*
X2005299Y1006100D01*
X2001700Y1000700D01*
X1999899Y991700D01*
X1999899Y986399D01*
X2001700Y977399D01*
X2005299Y972100D01*
X2010699Y970300D01*
X2014200Y970300D01*
X2082998Y850300D02*
G01*
X2088298Y852100D01*
X2090099Y855599D01*
X2090099Y859200D01*
X2088298Y862800D01*
X2084699Y864600D01*
X2077599Y866399D01*
X2072199Y868200D01*
X2068599Y871700D01*
X2066799Y875300D01*
X2066799Y880700D01*
X2068599Y884299D01*
X2070398Y886100D01*
X2075798Y887899D01*
X2082998Y887899D01*
X2088298Y886100D01*
X2090099Y884299D01*
X2091899Y880700D01*
X2091899Y875300D01*
X2090099Y871700D01*
X2086499Y868200D01*
X2081198Y866399D01*
X2073999Y864600D01*
X2070398Y862800D01*
X2068599Y859200D01*
X2068599Y855599D01*
X2070398Y852100D01*
X2075798Y850300D01*
X2082998Y850300D01*
X2053199Y859200D02*
G01*
X2053199Y857399D01*
X2051499Y853899D01*
X2049699Y852100D01*
X2046099Y850300D01*
X2038899Y850300D01*
X2035398Y852100D01*
X2033599Y853899D01*
X2031799Y857399D01*
X2031799Y860999D01*
X2033599Y864600D01*
X2037098Y870000D01*
X2054998Y887899D01*
X2029998Y887899D01*
X2007398Y850300D02*
G01*
X2012799Y852100D01*
X2016399Y857399D01*
X2018199Y866399D01*
X2018199Y871700D01*
X2016399Y880700D01*
X2012799Y886100D01*
X2007398Y887899D01*
X2003899Y887899D01*
X1998499Y886100D01*
X1994898Y880700D01*
X1993099Y871700D01*
X1993099Y866399D01*
X1994898Y857399D01*
X1998499Y852100D01*
X2003899Y850300D01*
X2007398Y850300D01*
X2089799Y720300D02*
G01*
X2095100Y722100D01*
X2096899Y725599D01*
X2096899Y729200D01*
X2095100Y732800D01*
X2091499Y734600D01*
X2084399Y736399D01*
X2078999Y738200D01*
X2075399Y741700D01*
X2073599Y745300D01*
X2073599Y750700D01*
X2075399Y754299D01*
X2077200Y756100D01*
X2082600Y757899D01*
X2089799Y757899D01*
X2095100Y756100D01*
X2096899Y754299D01*
X2098699Y750700D01*
X2098699Y745300D01*
X2096899Y741700D01*
X2093299Y738200D01*
X2088000Y736399D01*
X2080799Y734600D01*
X2077200Y732800D01*
X2075399Y729200D01*
X2075399Y725599D01*
X2077200Y722100D01*
X2082600Y720300D01*
X2089799Y720300D01*
X2060000Y729200D02*
G01*
X2060000Y727399D01*
X2058299Y723899D01*
X2056499Y722100D01*
X2052899Y720300D01*
X2045699Y720300D01*
X2042200Y722100D01*
X2040399Y723899D01*
X2038599Y727399D01*
X2038599Y730999D01*
X2040399Y734600D01*
X2043900Y740000D01*
X2061800Y757899D01*
X2036800Y757899D01*
X2014200Y720300D02*
G01*
X2019600Y722100D01*
X2023199Y727399D01*
X2025000Y736399D01*
X2025000Y741700D01*
X2023199Y750700D01*
X2019600Y756100D01*
X2014200Y757899D01*
X2010699Y757899D01*
X2005299Y756100D01*
X2001700Y750700D01*
X1999899Y741700D01*
X1999899Y736399D01*
X2001700Y727399D01*
X2005299Y722100D01*
X2010699Y720300D01*
X2014200Y720300D01*
X2082998Y595300D02*
G01*
X2088298Y597100D01*
X2090099Y600599D01*
X2090099Y604200D01*
X2088298Y607800D01*
X2084699Y609600D01*
X2077599Y611399D01*
X2072199Y613200D01*
X2068599Y616700D01*
X2066799Y620300D01*
X2066799Y625700D01*
X2068599Y629299D01*
X2070398Y631100D01*
X2075798Y632899D01*
X2082998Y632899D01*
X2088298Y631100D01*
X2090099Y629299D01*
X2091899Y625700D01*
X2091899Y620300D01*
X2090099Y616700D01*
X2086499Y613200D01*
X2081198Y611399D01*
X2073999Y609600D01*
X2070398Y607800D01*
X2068599Y604200D01*
X2068599Y600599D01*
X2070398Y597100D01*
X2075798Y595300D01*
X2082998Y595300D01*
X2053199Y604200D02*
G01*
X2053199Y602399D01*
X2051499Y598899D01*
X2049699Y597100D01*
X2046099Y595300D01*
X2038899Y595300D01*
X2035398Y597100D01*
X2033599Y598899D01*
X2031799Y602399D01*
X2031799Y605999D01*
X2033599Y609600D01*
X2037098Y615000D01*
X2054998Y632899D01*
X2029998Y632899D01*
X2007398Y595300D02*
G01*
X2012799Y597100D01*
X2016399Y602399D01*
X2018199Y611399D01*
X2018199Y616700D01*
X2016399Y625700D01*
X2012799Y631100D01*
X2007398Y632899D01*
X2003899Y632899D01*
X1998499Y631100D01*
X1994898Y625700D01*
X1993099Y616700D01*
X1993099Y611399D01*
X1994898Y602399D01*
X1998499Y597100D01*
X2003899Y595300D01*
X2007398Y595300D01*
D11*
X2234600Y1905000D02*
G01*
X2277500Y1905000D01*
X2234600Y1905000D02*
G01*
X2234600Y1923400D01*
X2236599Y1929499D01*
X2238699Y1931599D01*
X2242799Y1933600D01*
X2246899Y1933600D01*
X2251000Y1931599D01*
X2253000Y1929499D01*
X2255000Y1923400D01*
X2255000Y1905000D01*
X2255000Y1919299D02*
G01*
X2277500Y1933600D01*
X2242799Y1947100D02*
G01*
X2240699Y1951199D01*
X2234600Y1957399D01*
X2277500Y1957399D01*
X2234600Y1981100D02*
G01*
X2236599Y1975000D01*
X2240699Y1972899D01*
X2244799Y1972899D01*
X2248900Y1975000D01*
X2251000Y1979000D01*
X2253000Y1987199D01*
X2255000Y1993400D01*
X2259099Y1997500D01*
X2263199Y1999499D01*
X2269399Y1999499D01*
X2273500Y1997500D01*
X2275500Y1995399D01*
X2277500Y1989299D01*
X2277500Y1981100D01*
X2275500Y1975000D01*
X2273500Y1972899D01*
X2269399Y1970900D01*
X2263199Y1970900D01*
X2259099Y1972899D01*
X2255000Y1976999D01*
X2253000Y1983099D01*
X2251000Y1991300D01*
X2248900Y1995399D01*
X2244799Y1997500D01*
X2240699Y1997500D01*
X2236599Y1995399D01*
X2234600Y1989299D01*
X2234600Y1981100D01*
D10*
X2324200Y1875848D02*
G01*
X2322399Y1875848D01*
X2318900Y1877649D01*
X2317100Y1879448D01*
X2315299Y1882948D01*
X2315299Y1890149D01*
X2317100Y1893748D01*
X2318900Y1895549D01*
X2322399Y1897348D01*
X2326000Y1897348D01*
X2329600Y1895549D01*
X2335000Y1891948D01*
X2352899Y1874049D01*
X2352899Y1899149D01*
X2324200Y1912748D02*
G01*
X2322399Y1912748D01*
X2318900Y1914448D01*
X2317100Y1916248D01*
X2315299Y1919848D01*
X2315299Y1927049D01*
X2317100Y1930549D01*
X2318900Y1932348D01*
X2322399Y1934149D01*
X2326000Y1934149D01*
X2329600Y1932348D01*
X2335000Y1928849D01*
X2352899Y1910949D01*
X2352899Y1935949D01*
D11*
X3780399Y1750000D02*
G01*
X3737500Y1750000D01*
X3780399Y1750000D02*
G01*
X3780399Y1731599D01*
X3778400Y1725500D01*
X3776300Y1723400D01*
X3772200Y1721399D01*
X3768100Y1721399D01*
X3763999Y1723400D01*
X3761999Y1725500D01*
X3760000Y1731599D01*
X3760000Y1750000D01*
X3760000Y1735700D02*
G01*
X3737500Y1721399D01*
X3772200Y1707899D02*
G01*
X3774300Y1703800D01*
X3780399Y1697600D01*
X3737500Y1697600D01*
X3780399Y1680000D02*
G01*
X3780399Y1657500D01*
X3763999Y1669800D01*
X3763999Y1663699D01*
X3761999Y1659600D01*
X3760000Y1657500D01*
X3753800Y1655500D01*
X3749700Y1655500D01*
X3743599Y1657500D01*
X3739499Y1661599D01*
X3737500Y1667800D01*
X3737500Y1673899D01*
X3739499Y1680000D01*
X3741499Y1682100D01*
X3745600Y1684099D01*
D10*
X3687600Y1796347D02*
G01*
X3689399Y1792748D01*
X3694700Y1787447D01*
X3657100Y1787447D01*
X3666099Y1773847D02*
G01*
X3664300Y1775547D01*
X3662500Y1773847D01*
X3664300Y1772047D01*
X3666099Y1773847D01*
X3694700Y1751248D02*
G01*
X3692899Y1756648D01*
X3689399Y1758447D01*
X3685799Y1758447D01*
X3682200Y1756648D01*
X3680399Y1753047D01*
X3678599Y1745848D01*
X3676800Y1740547D01*
X3673299Y1736948D01*
X3669700Y1735147D01*
X3664300Y1735147D01*
X3660699Y1736948D01*
X3658900Y1738748D01*
X3657100Y1744047D01*
X3657100Y1751248D01*
X3658900Y1756648D01*
X3660699Y1758447D01*
X3664300Y1760248D01*
X3669700Y1760248D01*
X3673299Y1758447D01*
X3676800Y1754848D01*
X3678599Y1749448D01*
X3680399Y1742348D01*
X3682200Y1738748D01*
X3685799Y1736948D01*
X3689399Y1736948D01*
X3692899Y1738748D01*
X3694700Y1744047D01*
X3694700Y1751248D01*
X3694700Y1723348D02*
G01*
X3657100Y1723348D01*
X3682200Y1705448D02*
G01*
X3664300Y1723348D01*
X3671499Y1716147D02*
G01*
X3657100Y1703647D01*
D11*
X2506261Y1415199D02*
G01*
X2504261Y1419299D01*
X2500162Y1423400D01*
X2496062Y1425399D01*
X2487861Y1425399D01*
X2483761Y1423400D01*
X2479661Y1419299D01*
X2477662Y1415199D01*
X2475562Y1409000D01*
X2475562Y1398800D01*
X2477662Y1392699D01*
X2479661Y1388600D01*
X2483761Y1384499D01*
X2487861Y1382500D01*
X2496062Y1382500D01*
X2500162Y1384499D01*
X2504261Y1388600D01*
X2506261Y1392699D01*
X2519762Y1425399D02*
G01*
X2519762Y1382500D01*
X2519762Y1425399D02*
G01*
X2548361Y1382500D01*
X2548361Y1425399D02*
G01*
X2548361Y1382500D01*
X2590562Y1425399D02*
G01*
X2570061Y1382500D01*
X2561862Y1425399D02*
G01*
X2590562Y1425399D01*
X2650000Y2350399D02*
G01*
X2650000Y2307500D01*
X2650000Y2350399D02*
G01*
X2668400Y2350399D01*
X2674499Y2348400D01*
X2676599Y2346300D01*
X2678599Y2342199D01*
X2678599Y2336100D01*
X2676599Y2331999D01*
X2674499Y2330000D01*
X2668400Y2327899D01*
X2650000Y2327899D01*
X2692100Y2342199D02*
G01*
X2696199Y2344299D01*
X2702399Y2350399D01*
X2702399Y2307500D01*
D13*
X1804399Y1821999D02*
G01*
X1871199Y1821999D01*
X1804399Y1843000D02*
G01*
X1871199Y1843000D01*
X1804399Y1843000D02*
G01*
X1871199Y1887500D01*
X1804399Y1887500D02*
G01*
X1871199Y1887500D01*
X3354399Y1809600D02*
G01*
X3357500Y1803200D01*
X3363900Y1796900D01*
X3370299Y1793699D01*
X3379799Y1790500D01*
X3395699Y1790500D01*
X3405299Y1793699D01*
X3411599Y1796900D01*
X3418000Y1803200D01*
X3421199Y1809600D01*
X3421199Y1822300D01*
X3418000Y1828699D01*
X3411599Y1835000D01*
X3405299Y1838200D01*
X3395699Y1841399D01*
X3379799Y1841399D01*
X3370299Y1838200D01*
X3363900Y1835000D01*
X3357500Y1828699D01*
X3354399Y1822300D01*
X3354399Y1809600D01*
X3354399Y1862399D02*
G01*
X3402100Y1862399D01*
X3411599Y1865599D01*
X3418000Y1871999D01*
X3421199Y1881500D01*
X3421199Y1887899D01*
X3418000Y1897399D01*
X3411599Y1903800D01*
X3402100Y1906999D01*
X3354399Y1906999D01*
X3354399Y1950199D02*
G01*
X3421199Y1950199D01*
X3354399Y1928000D02*
G01*
X3354399Y1972500D01*
D14*
X356999Y357100D02*
G01*
X332199Y357100D01*
X356999Y357100D02*
G01*
X356999Y348800D01*
X355799Y345300D01*
X353400Y342899D01*
X351100Y341700D01*
X347500Y340500D01*
X341599Y340500D01*
X338099Y341700D01*
X335700Y342899D01*
X333299Y345300D01*
X332199Y348800D01*
X332199Y357100D01*
X351100Y331500D02*
G01*
X352199Y331500D01*
X354600Y330399D01*
X355799Y329200D01*
X356999Y326799D01*
X356999Y322100D01*
X355799Y319699D01*
X354600Y318499D01*
X352199Y317399D01*
X349899Y317399D01*
X347500Y318499D01*
X344000Y320900D01*
X332199Y332699D01*
X332199Y316199D01*
X348699Y293000D02*
G01*
X345199Y294200D01*
X342800Y296599D01*
X341599Y300100D01*
X341599Y301300D01*
X342800Y304800D01*
X345199Y307199D01*
X348699Y308400D01*
X349899Y308400D01*
X353400Y307199D01*
X355799Y304800D01*
X356999Y301300D01*
X356999Y300100D01*
X355799Y296599D01*
X353400Y294200D01*
X348699Y293000D01*
X342800Y293000D01*
X336900Y294200D01*
X333299Y296599D01*
X332199Y300100D01*
X332199Y302500D01*
X333299Y305999D01*
X335700Y307199D01*
X356999Y958400D02*
G01*
X332199Y958400D01*
X356999Y958400D02*
G01*
X356999Y950100D01*
X355799Y946599D01*
X353400Y944200D01*
X351100Y943000D01*
X347500Y941799D01*
X341599Y941799D01*
X338099Y943000D01*
X335700Y944200D01*
X333299Y946599D01*
X332199Y950100D01*
X332199Y958400D01*
X352199Y934000D02*
G01*
X353400Y931700D01*
X356999Y928099D01*
X332199Y928099D01*
X356999Y903800D02*
G01*
X332199Y915599D01*
X356999Y920300D02*
G01*
X356999Y903800D01*
X356999Y1952399D02*
G01*
X356999Y1939400D01*
X347500Y1946500D01*
X347500Y1942899D01*
X346300Y1940599D01*
X345199Y1939400D01*
X341599Y1938200D01*
X339200Y1938200D01*
X335700Y1939400D01*
X333299Y1941700D01*
X332199Y1945300D01*
X332199Y1948800D01*
X333299Y1952399D01*
X334499Y1953600D01*
X336900Y1954699D01*
X356999Y1930399D02*
G01*
X332199Y1920900D01*
X356999Y1911500D02*
G01*
X332199Y1920900D01*
X356999Y1901300D02*
G01*
X356999Y1888299D01*
X347500Y1895399D01*
X347500Y1891900D01*
X346300Y1889499D01*
X345199Y1888299D01*
X341599Y1887100D01*
X339200Y1887100D01*
X335700Y1888299D01*
X333299Y1890700D01*
X332199Y1894200D01*
X332199Y1897800D01*
X333299Y1901300D01*
X334499Y1902500D01*
X336900Y1903699D01*
X356999Y456399D02*
G01*
X332199Y456399D01*
X356999Y456399D02*
G01*
X356999Y448200D01*
X355799Y444600D01*
X353400Y442300D01*
X351100Y441100D01*
X347500Y439899D01*
X341599Y439899D01*
X338099Y441100D01*
X335700Y442300D01*
X333299Y444600D01*
X332199Y448200D01*
X332199Y456399D01*
X351100Y430900D02*
G01*
X352199Y430900D01*
X354600Y429699D01*
X355799Y428600D01*
X356999Y426199D01*
X356999Y421500D01*
X355799Y419099D01*
X354600Y417899D01*
X352199Y416700D01*
X349899Y416700D01*
X347500Y417899D01*
X344000Y420300D01*
X332199Y432100D01*
X332199Y415599D01*
X356999Y391199D02*
G01*
X332199Y403000D01*
X356999Y407800D02*
G01*
X356999Y391199D01*
X356999Y556399D02*
G01*
X332199Y556399D01*
X356999Y556399D02*
G01*
X356999Y548099D01*
X355799Y544600D01*
X353400Y542199D01*
X351100Y540999D01*
X347500Y539800D01*
X341599Y539800D01*
X338099Y540999D01*
X335700Y542199D01*
X333299Y544600D01*
X332199Y548099D01*
X332199Y556399D01*
X351100Y530900D02*
G01*
X352199Y530900D01*
X354600Y529699D01*
X355799Y528499D01*
X356999Y526100D01*
X356999Y521399D01*
X355799Y519000D01*
X354600Y517899D01*
X352199Y516700D01*
X349899Y516700D01*
X347500Y517899D01*
X344000Y520199D01*
X332199Y531999D01*
X332199Y515500D01*
X356999Y493499D02*
G01*
X356999Y505300D01*
X346300Y506500D01*
X347500Y505300D01*
X348699Y501799D01*
X348699Y498200D01*
X347500Y494699D01*
X345199Y492300D01*
X341599Y491100D01*
X339200Y491100D01*
X335700Y492300D01*
X333299Y494699D01*
X332199Y498200D01*
X332199Y501799D01*
X333299Y505300D01*
X334499Y506500D01*
X336900Y507699D01*
X356999Y757699D02*
G01*
X332199Y757699D01*
X356999Y757699D02*
G01*
X356999Y749499D01*
X355799Y745900D01*
X353400Y743600D01*
X351100Y742399D01*
X347500Y741199D01*
X341599Y741199D01*
X338099Y742399D01*
X335700Y743600D01*
X333299Y745900D01*
X332199Y749499D01*
X332199Y757699D01*
X351100Y732199D02*
G01*
X352199Y732199D01*
X354600Y730999D01*
X355799Y729899D01*
X356999Y727500D01*
X356999Y722800D01*
X355799Y720399D01*
X354600Y719200D01*
X352199Y718000D01*
X349899Y718000D01*
X347500Y719200D01*
X344000Y721599D01*
X332199Y733400D01*
X332199Y716900D01*
X352199Y709099D02*
G01*
X353400Y706700D01*
X356999Y703099D01*
X332199Y703099D01*
X356999Y854800D02*
G01*
X332199Y854800D01*
X356999Y854800D02*
G01*
X356999Y846500D01*
X355799Y842899D01*
X353400Y840599D01*
X351100Y839400D01*
X347500Y838200D01*
X341599Y838200D01*
X338099Y839400D01*
X335700Y840599D01*
X333299Y842899D01*
X332199Y846500D01*
X332199Y854800D01*
X352199Y830399D02*
G01*
X353400Y828099D01*
X356999Y824499D01*
X332199Y824499D01*
X348699Y801300D02*
G01*
X345199Y802500D01*
X342800Y804899D01*
X341599Y808400D01*
X341599Y809600D01*
X342800Y813200D01*
X345199Y815500D01*
X348699Y816700D01*
X349899Y816700D01*
X353400Y815500D01*
X355799Y813200D01*
X356999Y809600D01*
X356999Y808400D01*
X355799Y804899D01*
X353400Y802500D01*
X348699Y801300D01*
X342800Y801300D01*
X336900Y802500D01*
X333299Y804899D01*
X332199Y808400D01*
X332199Y810799D01*
X333299Y814299D01*
X335700Y815500D01*
X356999Y1158600D02*
G01*
X332199Y1158600D01*
X356999Y1158600D02*
G01*
X356999Y1150300D01*
X355799Y1146799D01*
X353400Y1144400D01*
X351100Y1143200D01*
X347500Y1142100D01*
X341599Y1142100D01*
X338099Y1143200D01*
X335700Y1144400D01*
X333299Y1146799D01*
X332199Y1150300D01*
X332199Y1158600D01*
X352199Y1134299D02*
G01*
X353400Y1131900D01*
X356999Y1128299D01*
X332199Y1128299D01*
X356999Y1118200D02*
G01*
X356999Y1105199D01*
X347500Y1112300D01*
X347500Y1108699D01*
X346300Y1106399D01*
X345199Y1105199D01*
X341599Y1104000D01*
X339200Y1104000D01*
X335700Y1105199D01*
X333299Y1107500D01*
X332199Y1111100D01*
X332199Y1114600D01*
X333299Y1118200D01*
X334499Y1119400D01*
X336900Y1120500D01*
X356999Y1257600D02*
G01*
X332199Y1257600D01*
X356999Y1257600D02*
G01*
X356999Y1249400D01*
X355799Y1245799D01*
X353400Y1243400D01*
X351100Y1242300D01*
X347500Y1241100D01*
X341599Y1241100D01*
X338099Y1242300D01*
X335700Y1243400D01*
X333299Y1245799D01*
X332199Y1249400D01*
X332199Y1257600D01*
X352199Y1233299D02*
G01*
X353400Y1230900D01*
X356999Y1227399D01*
X332199Y1227399D01*
X352199Y1219600D02*
G01*
X353400Y1217199D01*
X356999Y1213699D01*
X332199Y1213699D01*
X356999Y1346100D02*
G01*
X332199Y1346100D01*
X356999Y1346100D02*
G01*
X356999Y1337899D01*
X355799Y1334299D01*
X353400Y1331900D01*
X351100Y1330799D01*
X347500Y1329600D01*
X341599Y1329600D01*
X338099Y1330799D01*
X335700Y1331900D01*
X333299Y1334299D01*
X332199Y1337899D01*
X332199Y1346100D01*
X348699Y1306399D02*
G01*
X345199Y1307600D01*
X342800Y1310000D01*
X341599Y1313499D01*
X341599Y1314699D01*
X342800Y1318200D01*
X345199Y1320599D01*
X348699Y1321799D01*
X349899Y1321799D01*
X353400Y1320599D01*
X355799Y1318200D01*
X356999Y1314699D01*
X356999Y1313499D01*
X355799Y1310000D01*
X353400Y1307600D01*
X348699Y1306399D01*
X342800Y1306399D01*
X336900Y1307600D01*
X333299Y1310000D01*
X332199Y1313499D01*
X332199Y1315900D01*
X333299Y1319400D01*
X335700Y1320599D01*
X357100Y1545199D02*
G01*
X332300Y1545199D01*
X357100Y1545199D02*
G01*
X357100Y1536999D01*
X355900Y1533400D01*
X353600Y1531100D01*
X351199Y1529899D01*
X347699Y1528699D01*
X341700Y1528699D01*
X338200Y1529899D01*
X335799Y1531100D01*
X333499Y1533400D01*
X332300Y1536999D01*
X332300Y1545199D01*
X357100Y1506700D02*
G01*
X357100Y1518499D01*
X346500Y1519699D01*
X347699Y1518499D01*
X348800Y1515000D01*
X348800Y1511399D01*
X347699Y1507899D01*
X345300Y1505500D01*
X341700Y1504299D01*
X339400Y1504299D01*
X335799Y1505500D01*
X333499Y1507899D01*
X332300Y1511399D01*
X332300Y1515000D01*
X333499Y1518499D01*
X334699Y1519699D01*
X336999Y1520900D01*
X356599Y1852600D02*
G01*
X331799Y1852600D01*
X356599Y1852600D02*
G01*
X356599Y1841999D01*
X355399Y1838499D01*
X354200Y1837300D01*
X351900Y1836100D01*
X349499Y1836100D01*
X347100Y1837300D01*
X345900Y1838499D01*
X344800Y1841999D01*
X344800Y1852600D01*
X344800Y1844400D02*
G01*
X331799Y1836100D01*
X353000Y1811700D02*
G01*
X355399Y1814099D01*
X356599Y1817699D01*
X356599Y1822399D01*
X355399Y1825900D01*
X353000Y1828299D01*
X350700Y1828299D01*
X348299Y1827100D01*
X347100Y1825900D01*
X345900Y1823600D01*
X343600Y1816500D01*
X342399Y1814099D01*
X341199Y1812899D01*
X338899Y1811700D01*
X335300Y1811700D01*
X332899Y1814099D01*
X331799Y1817699D01*
X331799Y1822399D01*
X332899Y1825900D01*
X335300Y1828299D01*
X356599Y1795700D02*
G01*
X331799Y1795700D01*
X356599Y1803899D02*
G01*
X356599Y1787399D01*
X356999Y1644099D02*
G01*
X332199Y1644099D01*
X356999Y1644099D02*
G01*
X356999Y1635900D01*
X355799Y1632300D01*
X353400Y1630000D01*
X351100Y1628800D01*
X347500Y1627600D01*
X341599Y1627600D01*
X338099Y1628800D01*
X335700Y1630000D01*
X333299Y1632300D01*
X332199Y1635900D01*
X332199Y1644099D01*
X356999Y1617399D02*
G01*
X356999Y1604400D01*
X347500Y1611500D01*
X347500Y1608000D01*
X346300Y1605599D01*
X345199Y1604400D01*
X341599Y1603200D01*
X339200Y1603200D01*
X335700Y1604400D01*
X333299Y1606799D01*
X332199Y1610300D01*
X332199Y1613899D01*
X333299Y1617399D01*
X334499Y1618600D01*
X336900Y1619800D01*
X357100Y1733400D02*
G01*
X332300Y1733400D01*
X357100Y1741599D02*
G01*
X357100Y1725100D01*
X357100Y1717300D02*
G01*
X332300Y1700799D01*
X357100Y1700799D02*
G01*
X332300Y1717300D01*
X357100Y2029200D02*
G01*
X357100Y2040999D01*
X346500Y2042199D01*
X347699Y2040999D01*
X348800Y2037500D01*
X348800Y2033899D01*
X347699Y2030399D01*
X345300Y2028000D01*
X341700Y2026799D01*
X339400Y2026799D01*
X335799Y2028000D01*
X333499Y2030399D01*
X332300Y2033899D01*
X332300Y2037500D01*
X333499Y2040999D01*
X334699Y2042199D01*
X336999Y2043400D01*
X357100Y2019000D02*
G01*
X332300Y2009600D01*
X357100Y2000100D02*
G01*
X332300Y2009600D01*
X350700Y2137899D02*
G01*
X353000Y2139099D01*
X355399Y2141500D01*
X356599Y2143800D01*
X356599Y2148600D01*
X355399Y2150900D01*
X353000Y2153299D01*
X350700Y2154499D01*
X347100Y2155700D01*
X341199Y2155700D01*
X337699Y2154499D01*
X335300Y2153299D01*
X332899Y2150900D01*
X331799Y2148600D01*
X331799Y2143800D01*
X332899Y2141500D01*
X335300Y2139099D01*
X337699Y2137899D01*
X341199Y2137899D01*
X341199Y2143800D02*
G01*
X341199Y2137899D01*
X356599Y2130100D02*
G01*
X331799Y2130100D01*
X356599Y2130100D02*
G01*
X331799Y2113600D01*
X356599Y2113600D02*
G01*
X331799Y2113600D01*
X356599Y2105799D02*
G01*
X331799Y2105799D01*
X356599Y2105799D02*
G01*
X356599Y2097500D01*
X355399Y2094000D01*
X353000Y2091599D01*
X350700Y2090399D01*
X347100Y2089200D01*
X341199Y2089200D01*
X337699Y2090399D01*
X335300Y2091599D01*
X332899Y2094000D01*
X331799Y2097500D01*
X331799Y2105799D01*
X356999Y255500D02*
G01*
X332199Y255500D01*
X356999Y255500D02*
G01*
X356999Y247199D01*
X355799Y243600D01*
X353400Y241300D01*
X351100Y240100D01*
X347500Y238899D01*
X341599Y238899D01*
X338099Y240100D01*
X335700Y241300D01*
X333299Y243600D01*
X332199Y247199D01*
X332199Y255500D01*
X356999Y228800D02*
G01*
X356999Y215799D01*
X347500Y222800D01*
X347500Y219299D01*
X346300Y216900D01*
X345199Y215799D01*
X341599Y214600D01*
X339200Y214600D01*
X335700Y215799D01*
X333299Y218099D01*
X332199Y221700D01*
X332199Y225199D01*
X333299Y228800D01*
X334499Y229899D01*
X336900Y231100D01*
X352199Y206799D02*
G01*
X353400Y204400D01*
X356999Y200900D01*
X332199Y200900D01*
X356999Y656399D02*
G01*
X332199Y656399D01*
X356999Y656399D02*
G01*
X356999Y648099D01*
X355799Y644600D01*
X353400Y642199D01*
X351100Y641100D01*
X347500Y639899D01*
X341599Y639899D01*
X338099Y641100D01*
X335700Y642199D01*
X333299Y644600D01*
X332199Y648099D01*
X332199Y656399D01*
X351100Y630900D02*
G01*
X352199Y630900D01*
X354600Y629699D01*
X355799Y628499D01*
X356999Y626199D01*
X356999Y621399D01*
X355799Y619099D01*
X354600Y617899D01*
X352199Y616700D01*
X349899Y616700D01*
X347500Y617899D01*
X344000Y620300D01*
X332199Y632100D01*
X332199Y615500D01*
X356999Y605399D02*
G01*
X356999Y592399D01*
X347500Y599499D01*
X347500Y595900D01*
X346300Y593499D01*
X345199Y592399D01*
X341599Y591199D01*
X339200Y591199D01*
X335700Y592399D01*
X333299Y594699D01*
X332199Y598299D01*
X332199Y601799D01*
X333299Y605399D01*
X334499Y606500D01*
X336900Y607699D01*
X356999Y1059299D02*
G01*
X332199Y1059299D01*
X356999Y1059299D02*
G01*
X356999Y1050999D01*
X355799Y1047500D01*
X353400Y1045100D01*
X351100Y1043899D01*
X347500Y1042699D01*
X341599Y1042699D01*
X338099Y1043899D01*
X335700Y1045100D01*
X333299Y1047500D01*
X332199Y1050999D01*
X332199Y1059299D01*
X352199Y1034899D02*
G01*
X353400Y1032600D01*
X356999Y1029000D01*
X332199Y1029000D01*
X356999Y1007100D02*
G01*
X356999Y1018899D01*
X346300Y1020100D01*
X347500Y1018899D01*
X348699Y1015300D01*
X348699Y1011799D01*
X347500Y1008200D01*
X345199Y1005900D01*
X341599Y1004699D01*
X339200Y1004699D01*
X335700Y1005900D01*
X333299Y1008200D01*
X332199Y1011799D01*
X332199Y1015300D01*
X333299Y1018899D01*
X334499Y1020100D01*
X336900Y1021199D01*
X357100Y1445399D02*
G01*
X332300Y1445399D01*
X357100Y1445399D02*
G01*
X357100Y1437199D01*
X355900Y1433600D01*
X353600Y1431199D01*
X351199Y1430100D01*
X347699Y1428899D01*
X341700Y1428899D01*
X338200Y1430100D01*
X335799Y1431199D01*
X333499Y1433600D01*
X332300Y1437199D01*
X332300Y1445399D01*
X357100Y1404499D02*
G01*
X332300Y1416399D01*
X357100Y1421100D02*
G01*
X357100Y1404499D01*
X357100Y2255100D02*
G01*
X332300Y2245599D01*
X357100Y2236199D02*
G01*
X332300Y2245599D01*
X357100Y2228400D02*
G01*
X332300Y2228400D01*
X357100Y2220599D02*
G01*
X332300Y2220599D01*
X357100Y2220599D02*
G01*
X332300Y2204000D01*
X357100Y2204000D02*
G01*
X332300Y2204000D01*
X460500Y1055900D02*
G01*
X435700Y1055900D01*
X460500Y1055900D02*
G01*
X460500Y1047699D01*
X459299Y1044099D01*
X456999Y1041799D01*
X454600Y1040599D01*
X451100Y1039400D01*
X445199Y1039400D01*
X441599Y1040599D01*
X439299Y1041799D01*
X436900Y1044099D01*
X435700Y1047699D01*
X435700Y1055900D01*
X455799Y1031599D02*
G01*
X456999Y1029200D01*
X460500Y1025700D01*
X435700Y1025700D01*
X460500Y1006100D02*
G01*
X444000Y1017899D01*
X444000Y1000199D01*
X460500Y1006100D02*
G01*
X435700Y1006100D01*
X460500Y253400D02*
G01*
X435700Y253400D01*
X460500Y253400D02*
G01*
X460500Y245100D01*
X459299Y241599D01*
X456999Y239200D01*
X454600Y238000D01*
X451100Y236900D01*
X445199Y236900D01*
X441599Y238000D01*
X439299Y239200D01*
X436900Y241599D01*
X435700Y245100D01*
X435700Y253400D01*
X460500Y226700D02*
G01*
X460500Y213699D01*
X451100Y220799D01*
X451100Y217199D01*
X449899Y214899D01*
X448699Y213699D01*
X445199Y212500D01*
X442800Y212500D01*
X439299Y213699D01*
X436900Y216100D01*
X435700Y219600D01*
X435700Y223099D01*
X436900Y226700D01*
X438099Y227899D01*
X440399Y229099D01*
X460500Y197600D02*
G01*
X459299Y201199D01*
X455799Y203499D01*
X449899Y204699D01*
X446300Y204699D01*
X440399Y203499D01*
X436900Y201199D01*
X435700Y197600D01*
X435700Y195300D01*
X436900Y191700D01*
X440399Y189299D01*
X446300Y188200D01*
X449899Y188200D01*
X455799Y189299D01*
X459299Y191700D01*
X460500Y195300D01*
X460500Y197600D01*
X460500Y554499D02*
G01*
X435700Y554499D01*
X460500Y554499D02*
G01*
X460500Y546199D01*
X459299Y542699D01*
X456999Y540300D01*
X454600Y539099D01*
X451100Y538000D01*
X445199Y538000D01*
X441599Y539099D01*
X439299Y540300D01*
X436900Y542699D01*
X435700Y546199D01*
X435700Y554499D01*
X454600Y529000D02*
G01*
X455799Y529000D01*
X458200Y527800D01*
X459299Y526599D01*
X460500Y524299D01*
X460500Y519499D01*
X459299Y517199D01*
X458200Y515999D01*
X455799Y514800D01*
X453400Y514800D01*
X451100Y515999D01*
X447500Y518299D01*
X435700Y530199D01*
X435700Y513600D01*
X460500Y494000D02*
G01*
X444000Y505799D01*
X444000Y488099D01*
X460500Y494000D02*
G01*
X435700Y494000D01*
X460500Y859000D02*
G01*
X435700Y859000D01*
X460500Y859000D02*
G01*
X460500Y850700D01*
X459299Y847100D01*
X456999Y844800D01*
X454600Y843600D01*
X451100Y842399D01*
X445199Y842399D01*
X441599Y843600D01*
X439299Y844800D01*
X436900Y847100D01*
X435700Y850700D01*
X435700Y859000D01*
X455799Y834600D02*
G01*
X456999Y832300D01*
X460500Y828699D01*
X435700Y828699D01*
X460500Y815000D02*
G01*
X459299Y818499D01*
X456999Y819699D01*
X454600Y819699D01*
X452300Y818499D01*
X451100Y816199D01*
X449899Y811500D01*
X448699Y807899D01*
X446300Y805500D01*
X444000Y804400D01*
X440399Y804400D01*
X438099Y805500D01*
X436900Y806700D01*
X435700Y810300D01*
X435700Y815000D01*
X436900Y818499D01*
X438099Y819699D01*
X440399Y820900D01*
X444000Y820900D01*
X446300Y819699D01*
X448699Y817399D01*
X449899Y813800D01*
X451100Y809099D01*
X452300Y806700D01*
X454600Y805500D01*
X456999Y805500D01*
X459299Y806700D01*
X460500Y810300D01*
X460500Y815000D01*
X460500Y356799D02*
G01*
X435700Y356799D01*
X460500Y356799D02*
G01*
X460500Y348499D01*
X459299Y345000D01*
X456999Y342600D01*
X454600Y341399D01*
X451100Y340300D01*
X445199Y340300D01*
X441599Y341399D01*
X439299Y342600D01*
X436900Y345000D01*
X435700Y348499D01*
X435700Y356799D01*
X454600Y331300D02*
G01*
X455799Y331300D01*
X458200Y330100D01*
X459299Y328899D01*
X460500Y326500D01*
X460500Y321799D01*
X459299Y319499D01*
X458200Y318299D01*
X455799Y317100D01*
X453400Y317100D01*
X451100Y318299D01*
X447500Y320599D01*
X435700Y332500D01*
X435700Y315900D01*
X460500Y302199D02*
G01*
X459299Y305700D01*
X456999Y306900D01*
X454600Y306900D01*
X452300Y305700D01*
X451100Y303400D01*
X449899Y298699D01*
X448699Y295100D01*
X446300Y292699D01*
X444000Y291599D01*
X440399Y291599D01*
X438099Y292699D01*
X436900Y293899D01*
X435700Y297500D01*
X435700Y302199D01*
X436900Y305700D01*
X438099Y306900D01*
X440399Y308099D01*
X444000Y308099D01*
X446300Y306900D01*
X448699Y304600D01*
X449899Y300999D01*
X451100Y296300D01*
X452300Y293899D01*
X454600Y292699D01*
X456999Y292699D01*
X459299Y293899D01*
X460500Y297500D01*
X460500Y302199D01*
X460500Y455700D02*
G01*
X435700Y455700D01*
X460500Y455700D02*
G01*
X460500Y447399D01*
X459299Y443899D01*
X456999Y441500D01*
X454600Y440300D01*
X451100Y439200D01*
X445199Y439200D01*
X441599Y440300D01*
X439299Y441500D01*
X436900Y443899D01*
X435700Y447399D01*
X435700Y455700D01*
X454600Y430199D02*
G01*
X455799Y430199D01*
X458200Y429000D01*
X459299Y427800D01*
X460500Y425500D01*
X460500Y420700D01*
X459299Y418400D01*
X458200Y417199D01*
X455799Y415999D01*
X453400Y415999D01*
X451100Y417199D01*
X447500Y419499D01*
X435700Y431399D01*
X435700Y414800D01*
X456999Y392800D02*
G01*
X459299Y394000D01*
X460500Y397600D01*
X460500Y399899D01*
X459299Y403499D01*
X455799Y405799D01*
X449899Y406999D01*
X444000Y406999D01*
X439299Y405799D01*
X436900Y403499D01*
X435700Y399899D01*
X435700Y398699D01*
X436900Y395199D01*
X439299Y392800D01*
X442800Y391700D01*
X444000Y391700D01*
X447500Y392800D01*
X449899Y395199D01*
X451100Y398699D01*
X451100Y399899D01*
X449899Y403499D01*
X447500Y405799D01*
X444000Y406999D01*
X460500Y657300D02*
G01*
X435700Y657300D01*
X460500Y657300D02*
G01*
X460500Y649000D01*
X459299Y645500D01*
X456999Y643099D01*
X454600Y641900D01*
X451100Y640700D01*
X445199Y640700D01*
X441599Y641900D01*
X439299Y643099D01*
X436900Y645500D01*
X435700Y649000D01*
X435700Y657300D01*
X454600Y631799D02*
G01*
X455799Y631799D01*
X458200Y630599D01*
X459299Y629400D01*
X460500Y626999D01*
X460500Y622300D01*
X459299Y619899D01*
X458200Y618800D01*
X455799Y617600D01*
X453400Y617600D01*
X451100Y618800D01*
X447500Y621100D01*
X435700Y632899D01*
X435700Y616399D01*
X454600Y607399D02*
G01*
X455799Y607399D01*
X458200Y606199D01*
X459299Y605000D01*
X460500Y602699D01*
X460500Y598000D01*
X459299Y595599D01*
X458200Y594400D01*
X455799Y593200D01*
X453400Y593200D01*
X451100Y594400D01*
X447500Y596799D01*
X435700Y608600D01*
X435700Y591999D01*
X460500Y757100D02*
G01*
X435700Y757100D01*
X460500Y757100D02*
G01*
X460500Y748800D01*
X459299Y745300D01*
X456999Y742899D01*
X454600Y741700D01*
X451100Y740500D01*
X445199Y740500D01*
X441599Y741700D01*
X439299Y742899D01*
X436900Y745300D01*
X435700Y748800D01*
X435700Y757100D01*
X454600Y731599D02*
G01*
X455799Y731599D01*
X458200Y730399D01*
X459299Y729200D01*
X460500Y726799D01*
X460500Y722100D01*
X459299Y719699D01*
X458200Y718600D01*
X455799Y717399D01*
X453400Y717399D01*
X451100Y718600D01*
X447500Y720900D01*
X435700Y732699D01*
X435700Y716199D01*
X460500Y701300D02*
G01*
X459299Y704899D01*
X455799Y707199D01*
X449899Y708400D01*
X446300Y708400D01*
X440399Y707199D01*
X436900Y704899D01*
X435700Y701300D01*
X435700Y698899D01*
X436900Y695399D01*
X440399Y693000D01*
X446300Y691900D01*
X449899Y691900D01*
X455799Y693000D01*
X459299Y695399D01*
X460500Y698899D01*
X460500Y701300D01*
X460500Y954800D02*
G01*
X435700Y954800D01*
X460500Y954800D02*
G01*
X460500Y946599D01*
X459299Y943000D01*
X456999Y940700D01*
X454600Y939499D01*
X451100Y938299D01*
X445199Y938299D01*
X441599Y939499D01*
X439299Y940700D01*
X436900Y943000D01*
X435700Y946599D01*
X435700Y954800D01*
X455799Y930500D02*
G01*
X456999Y928099D01*
X460500Y924600D01*
X435700Y924600D01*
X456999Y902600D02*
G01*
X459299Y903800D01*
X460500Y907300D01*
X460500Y909699D01*
X459299Y913200D01*
X455799Y915599D01*
X449899Y916799D01*
X444000Y916799D01*
X439299Y915599D01*
X436900Y913200D01*
X435700Y909699D01*
X435700Y908499D01*
X436900Y905000D01*
X439299Y902600D01*
X442800Y901399D01*
X444000Y901399D01*
X447500Y902600D01*
X449899Y905000D01*
X451100Y908499D01*
X451100Y909699D01*
X449899Y913200D01*
X447500Y915599D01*
X444000Y916799D01*
X460500Y1155399D02*
G01*
X435700Y1155399D01*
X460500Y1155399D02*
G01*
X460500Y1147100D01*
X459299Y1143600D01*
X456999Y1141199D01*
X454600Y1140000D01*
X451100Y1138800D01*
X445199Y1138800D01*
X441599Y1140000D01*
X439299Y1141199D01*
X436900Y1143600D01*
X435700Y1147100D01*
X435700Y1155399D01*
X455799Y1130999D02*
G01*
X456999Y1128699D01*
X460500Y1125100D01*
X435700Y1125100D01*
X454600Y1116100D02*
G01*
X455799Y1116100D01*
X458200Y1115000D01*
X459299Y1113800D01*
X460500Y1111399D01*
X460500Y1106700D01*
X459299Y1104299D01*
X458200Y1103099D01*
X455799Y1101999D01*
X453400Y1101999D01*
X451100Y1103099D01*
X447500Y1105500D01*
X435700Y1117300D01*
X435700Y1100799D01*
X460500Y1257100D02*
G01*
X435700Y1257100D01*
X460500Y1257100D02*
G01*
X460500Y1248800D01*
X459299Y1245300D01*
X456999Y1242899D01*
X454600Y1241700D01*
X451100Y1240599D01*
X445199Y1240599D01*
X441599Y1241700D01*
X439299Y1242899D01*
X436900Y1245300D01*
X435700Y1248800D01*
X435700Y1257100D01*
X455799Y1232800D02*
G01*
X456999Y1230399D01*
X460500Y1226799D01*
X435700Y1226799D01*
X460500Y1211999D02*
G01*
X459299Y1215500D01*
X455799Y1217899D01*
X449899Y1219000D01*
X446300Y1219000D01*
X440399Y1217899D01*
X436900Y1215500D01*
X435700Y1211999D01*
X435700Y1209600D01*
X436900Y1205999D01*
X440399Y1203699D01*
X446300Y1202500D01*
X449899Y1202500D01*
X455799Y1203699D01*
X459299Y1205999D01*
X460500Y1209600D01*
X460500Y1211999D01*
X455500Y1346900D02*
G01*
X430700Y1346900D01*
X455500Y1346900D02*
G01*
X455500Y1338600D01*
X454299Y1335000D01*
X451999Y1332699D01*
X449600Y1331500D01*
X446100Y1330300D01*
X440199Y1330300D01*
X436599Y1331500D01*
X434299Y1332699D01*
X431900Y1335000D01*
X430700Y1338600D01*
X430700Y1346900D01*
X455500Y1316599D02*
G01*
X454299Y1320199D01*
X451999Y1321300D01*
X449600Y1321300D01*
X447300Y1320199D01*
X446100Y1317800D01*
X444899Y1313099D01*
X443699Y1309499D01*
X441300Y1307199D01*
X439000Y1305999D01*
X435399Y1305999D01*
X433099Y1307199D01*
X431900Y1308299D01*
X430700Y1311900D01*
X430700Y1316599D01*
X431900Y1320199D01*
X433099Y1321300D01*
X435399Y1322500D01*
X439000Y1322500D01*
X441300Y1321300D01*
X443699Y1319000D01*
X444899Y1315399D01*
X446100Y1310700D01*
X447300Y1308299D01*
X449600Y1307199D01*
X451999Y1307199D01*
X454299Y1308299D01*
X455500Y1311900D01*
X455500Y1316599D01*
X460500Y1645999D02*
G01*
X435700Y1645999D01*
X460500Y1645999D02*
G01*
X460500Y1637699D01*
X459299Y1634200D01*
X456999Y1631799D01*
X454600Y1630700D01*
X451100Y1629499D01*
X445199Y1629499D01*
X441599Y1630700D01*
X439299Y1631799D01*
X436900Y1634200D01*
X435700Y1637699D01*
X435700Y1645999D01*
X454600Y1620500D02*
G01*
X455799Y1620500D01*
X458200Y1619299D01*
X459299Y1618099D01*
X460500Y1615799D01*
X460500Y1610999D01*
X459299Y1608699D01*
X458200Y1607500D01*
X455799Y1606300D01*
X453400Y1606300D01*
X451100Y1607500D01*
X447500Y1609899D01*
X435700Y1621700D01*
X435700Y1605100D01*
X460700Y1743099D02*
G01*
X435799Y1743099D01*
X460700Y1743099D02*
G01*
X460700Y1732500D01*
X459499Y1728899D01*
X458299Y1727699D01*
X455900Y1726599D01*
X453600Y1726599D01*
X451199Y1727699D01*
X450000Y1728899D01*
X448800Y1732500D01*
X448800Y1743099D01*
X448800Y1734800D02*
G01*
X435799Y1726599D01*
X460700Y1718800D02*
G01*
X435799Y1702199D01*
X460700Y1702199D02*
G01*
X435799Y1718800D01*
X460700Y1855000D02*
G01*
X435799Y1864499D01*
X460700Y1855000D02*
G01*
X435799Y1845599D01*
X444099Y1860900D02*
G01*
X444099Y1849099D01*
X460700Y1837800D02*
G01*
X435799Y1837800D01*
X460700Y1837800D02*
G01*
X460700Y1827100D01*
X459499Y1823600D01*
X458299Y1822399D01*
X455900Y1821199D01*
X453600Y1821199D01*
X451199Y1822399D01*
X450000Y1823600D01*
X448800Y1827100D01*
X448800Y1837800D01*
X448800Y1829499D02*
G01*
X435799Y1821199D01*
X460700Y1813400D02*
G01*
X435799Y1813400D01*
X460700Y1813400D02*
G01*
X460700Y1798099D01*
X448800Y1813400D02*
G01*
X448800Y1804000D01*
X435799Y1813400D02*
G01*
X435799Y1798099D01*
X460700Y1790300D02*
G01*
X435799Y1790300D01*
X460700Y1790300D02*
G01*
X460700Y1774899D01*
X448800Y1790300D02*
G01*
X448800Y1780799D01*
X455500Y1442600D02*
G01*
X430700Y1442600D01*
X455500Y1442600D02*
G01*
X455500Y1434400D01*
X454299Y1430799D01*
X451999Y1428499D01*
X449600Y1427300D01*
X446100Y1426100D01*
X440199Y1426100D01*
X436599Y1427300D01*
X434299Y1428499D01*
X431900Y1430799D01*
X430700Y1434400D01*
X430700Y1442600D01*
X451999Y1404099D02*
G01*
X454299Y1405300D01*
X455500Y1408800D01*
X455500Y1411199D01*
X454299Y1414699D01*
X450799Y1417100D01*
X444899Y1418299D01*
X439000Y1418299D01*
X434299Y1417100D01*
X431900Y1414699D01*
X430700Y1411199D01*
X430700Y1410000D01*
X431900Y1406500D01*
X434299Y1404099D01*
X437800Y1402899D01*
X439000Y1402899D01*
X442500Y1404099D01*
X444899Y1406500D01*
X446100Y1410000D01*
X446100Y1411199D01*
X444899Y1414699D01*
X442500Y1417100D01*
X439000Y1418299D01*
X455700Y1548099D02*
G01*
X430799Y1548099D01*
X455700Y1548099D02*
G01*
X455700Y1539800D01*
X454499Y1536300D01*
X452100Y1533899D01*
X449800Y1532699D01*
X446199Y1531599D01*
X440300Y1531599D01*
X436799Y1532699D01*
X434400Y1533899D01*
X431999Y1536300D01*
X430799Y1539800D01*
X430799Y1548099D01*
X455700Y1511900D02*
G01*
X439099Y1523800D01*
X439099Y1505999D01*
X455700Y1511900D02*
G01*
X430799Y1511900D01*
X1318959Y241399D02*
G01*
X1318959Y266300D01*
X1318959Y241399D02*
G01*
X1310659Y241399D01*
X1307160Y242600D01*
X1304759Y245000D01*
X1303559Y247300D01*
X1302359Y250900D01*
X1302359Y256799D01*
X1303559Y260300D01*
X1304759Y262699D01*
X1307160Y265100D01*
X1310659Y266300D01*
X1318959Y266300D01*
X1280360Y241399D02*
G01*
X1292259Y241399D01*
X1293360Y252100D01*
X1292259Y250900D01*
X1288659Y249699D01*
X1285159Y249699D01*
X1281559Y250900D01*
X1279260Y253299D01*
X1278059Y256799D01*
X1278059Y259200D01*
X1279260Y262699D01*
X1281559Y265100D01*
X1285159Y266300D01*
X1288659Y266300D01*
X1292259Y265100D01*
X1293360Y263899D01*
X1294560Y261500D01*
X1269059Y247300D02*
G01*
X1269059Y246199D01*
X1267860Y243800D01*
X1266660Y242600D01*
X1264359Y241399D01*
X1259560Y241399D01*
X1257259Y242600D01*
X1256059Y243800D01*
X1254859Y246199D01*
X1254859Y248499D01*
X1256059Y250900D01*
X1258459Y254400D01*
X1270259Y266300D01*
X1253659Y266300D01*
X1318950Y340610D02*
G01*
X1318950Y365509D01*
X1318950Y340610D02*
G01*
X1310649Y340610D01*
X1307150Y341810D01*
X1304750Y344209D01*
X1303549Y346509D01*
X1302349Y350109D01*
X1302349Y356010D01*
X1303549Y359510D01*
X1304750Y361909D01*
X1307150Y364310D01*
X1310649Y365509D01*
X1318950Y365509D01*
X1280450Y340610D02*
G01*
X1292250Y340610D01*
X1293450Y351309D01*
X1292250Y350109D01*
X1288649Y348910D01*
X1285150Y348910D01*
X1281549Y350109D01*
X1279250Y352510D01*
X1278050Y356010D01*
X1278050Y358409D01*
X1279250Y361909D01*
X1281549Y364310D01*
X1285150Y365509D01*
X1288649Y365509D01*
X1292250Y364310D01*
X1293450Y363110D01*
X1294549Y360709D01*
X1267849Y340610D02*
G01*
X1254849Y340610D01*
X1261949Y350109D01*
X1258450Y350109D01*
X1256049Y351309D01*
X1254849Y352510D01*
X1253649Y356010D01*
X1253649Y358409D01*
X1254849Y361909D01*
X1257250Y364310D01*
X1260749Y365509D01*
X1264350Y365509D01*
X1267849Y364310D01*
X1269049Y363110D01*
X1270249Y360709D01*
X1411499Y241439D02*
G01*
X1411499Y266239D01*
X1411499Y241439D02*
G01*
X1403199Y241439D01*
X1399700Y242640D01*
X1397299Y244940D01*
X1396099Y247339D01*
X1394899Y250839D01*
X1394899Y256840D01*
X1396099Y260340D01*
X1397299Y262739D01*
X1399700Y265039D01*
X1403199Y266239D01*
X1411499Y266239D01*
X1372899Y241439D02*
G01*
X1384799Y241439D01*
X1385900Y252040D01*
X1384799Y250839D01*
X1381199Y249740D01*
X1377700Y249740D01*
X1374099Y250839D01*
X1371800Y253240D01*
X1370600Y256840D01*
X1370600Y259140D01*
X1371800Y262739D01*
X1374099Y265039D01*
X1377700Y266239D01*
X1381199Y266239D01*
X1384799Y265039D01*
X1385900Y263840D01*
X1387100Y261539D01*
X1355699Y241439D02*
G01*
X1359200Y242640D01*
X1361599Y246140D01*
X1362799Y252040D01*
X1362799Y255639D01*
X1361599Y261539D01*
X1359200Y265039D01*
X1355699Y266239D01*
X1353299Y266239D01*
X1349799Y265039D01*
X1347399Y261539D01*
X1346199Y255639D01*
X1346199Y252040D01*
X1347399Y246140D01*
X1349799Y242640D01*
X1353299Y241439D01*
X1355699Y241439D01*
X1512759Y241399D02*
G01*
X1512759Y266300D01*
X1512759Y241399D02*
G01*
X1504459Y241399D01*
X1500959Y242600D01*
X1498559Y245000D01*
X1497359Y247300D01*
X1496159Y250900D01*
X1496159Y256799D01*
X1497359Y260300D01*
X1498559Y262699D01*
X1500959Y265100D01*
X1504459Y266300D01*
X1512759Y266300D01*
X1476559Y241399D02*
G01*
X1488360Y258000D01*
X1470659Y258000D01*
X1476559Y241399D02*
G01*
X1476559Y266300D01*
X1456959Y241399D02*
G01*
X1460460Y242600D01*
X1461660Y245000D01*
X1461660Y247300D01*
X1460460Y249699D01*
X1458159Y250900D01*
X1453360Y252100D01*
X1449859Y253299D01*
X1447460Y255599D01*
X1446360Y258000D01*
X1446360Y261500D01*
X1447460Y263899D01*
X1448659Y265100D01*
X1452259Y266300D01*
X1456959Y266300D01*
X1460460Y265100D01*
X1461660Y263899D01*
X1462860Y261500D01*
X1462860Y258000D01*
X1461660Y255599D01*
X1459359Y253299D01*
X1455760Y252100D01*
X1451059Y250900D01*
X1448659Y249699D01*
X1447460Y247300D01*
X1447460Y245000D01*
X1448659Y242600D01*
X1452259Y241399D01*
X1456959Y241399D01*
X1411279Y340639D02*
G01*
X1411279Y365439D01*
X1411279Y340639D02*
G01*
X1402979Y340639D01*
X1399480Y341840D01*
X1397079Y344140D01*
X1395879Y346539D01*
X1394679Y350140D01*
X1394679Y356039D01*
X1395879Y359540D01*
X1397079Y361939D01*
X1399480Y364239D01*
X1402979Y365439D01*
X1411279Y365439D01*
X1372780Y340639D02*
G01*
X1384579Y340639D01*
X1385780Y351239D01*
X1384579Y350140D01*
X1380979Y348939D01*
X1377479Y348939D01*
X1373879Y350140D01*
X1371580Y352440D01*
X1370379Y356039D01*
X1370379Y358339D01*
X1371580Y361939D01*
X1373879Y364239D01*
X1377479Y365439D01*
X1380979Y365439D01*
X1384579Y364239D01*
X1385780Y363139D01*
X1386880Y360740D01*
X1362579Y345340D02*
G01*
X1360180Y344140D01*
X1356679Y340639D01*
X1356679Y365439D01*
X1512749Y340610D02*
G01*
X1512749Y365509D01*
X1512749Y340610D02*
G01*
X1504449Y340610D01*
X1500950Y341810D01*
X1498549Y344209D01*
X1497349Y346509D01*
X1496149Y350109D01*
X1496149Y356010D01*
X1497349Y359510D01*
X1498549Y361909D01*
X1500950Y364310D01*
X1504449Y365509D01*
X1512749Y365509D01*
X1476549Y340610D02*
G01*
X1488350Y357210D01*
X1470649Y357210D01*
X1476549Y340610D02*
G01*
X1476549Y365509D01*
X1447449Y348910D02*
G01*
X1448649Y352510D01*
X1451049Y354810D01*
X1454549Y356010D01*
X1455749Y356010D01*
X1459350Y354810D01*
X1461649Y352510D01*
X1462849Y348910D01*
X1462849Y347710D01*
X1461649Y344209D01*
X1459350Y341810D01*
X1455749Y340610D01*
X1454549Y340610D01*
X1451049Y341810D01*
X1448649Y344209D01*
X1447449Y348910D01*
X1447449Y354810D01*
X1448649Y360709D01*
X1451049Y364310D01*
X1454549Y365509D01*
X1456949Y365509D01*
X1460450Y364310D01*
X1461649Y361909D01*
X1666300Y258699D02*
G01*
X1641499Y258699D01*
X1666300Y258699D02*
G01*
X1666300Y250399D01*
X1665100Y246900D01*
X1662799Y244499D01*
X1660399Y243299D01*
X1656899Y242100D01*
X1650900Y242100D01*
X1647399Y243299D01*
X1645000Y244499D01*
X1642700Y246900D01*
X1641499Y250399D01*
X1641499Y258699D01*
X1666300Y222500D02*
G01*
X1649799Y234299D01*
X1649799Y216599D01*
X1666300Y222500D02*
G01*
X1641499Y222500D01*
X1662799Y194600D02*
G01*
X1665100Y195799D01*
X1666300Y199400D01*
X1666300Y201700D01*
X1665100Y205300D01*
X1661599Y207600D01*
X1655699Y208800D01*
X1649799Y208800D01*
X1645000Y207600D01*
X1642700Y205300D01*
X1641499Y201700D01*
X1641499Y200500D01*
X1642700Y196999D01*
X1645000Y194600D01*
X1648599Y193400D01*
X1649799Y193400D01*
X1653299Y194600D01*
X1655699Y196999D01*
X1656899Y200500D01*
X1656899Y201700D01*
X1655699Y205300D01*
X1653299Y207600D01*
X1649799Y208800D01*
X1666300Y960900D02*
G01*
X1641499Y960900D01*
X1666300Y960900D02*
G01*
X1666300Y952600D01*
X1665100Y949000D01*
X1662799Y946700D01*
X1660399Y945500D01*
X1656899Y944299D01*
X1650900Y944299D01*
X1647399Y945500D01*
X1645000Y946700D01*
X1642700Y949000D01*
X1641499Y952600D01*
X1641499Y960900D01*
X1666300Y934200D02*
G01*
X1666300Y921199D01*
X1656899Y928200D01*
X1656899Y924699D01*
X1655699Y922300D01*
X1654499Y921199D01*
X1650900Y920000D01*
X1648599Y920000D01*
X1645000Y921199D01*
X1642700Y923499D01*
X1641499Y927100D01*
X1641499Y930599D01*
X1642700Y934200D01*
X1643900Y935300D01*
X1646199Y936500D01*
X1660399Y910999D02*
G01*
X1661599Y910999D01*
X1663900Y909800D01*
X1665100Y908600D01*
X1666300Y906300D01*
X1666300Y901500D01*
X1665100Y899200D01*
X1663900Y898000D01*
X1661599Y896799D01*
X1659200Y896799D01*
X1656899Y898000D01*
X1653299Y900399D01*
X1641499Y912199D01*
X1641499Y895599D01*
X1666300Y1249699D02*
G01*
X1641499Y1259200D01*
X1666300Y1249699D02*
G01*
X1641499Y1240300D01*
X1649799Y1255700D02*
G01*
X1649799Y1243800D01*
X1661599Y1232500D02*
G01*
X1662799Y1230100D01*
X1666300Y1226599D01*
X1641499Y1226599D01*
X1666300Y1211700D02*
G01*
X1665100Y1215199D01*
X1661599Y1217600D01*
X1655699Y1218800D01*
X1652100Y1218800D01*
X1646199Y1217600D01*
X1642700Y1215199D01*
X1641499Y1211700D01*
X1641499Y1209299D01*
X1642700Y1205799D01*
X1646199Y1203400D01*
X1652100Y1202199D01*
X1655699Y1202199D01*
X1661599Y1203400D01*
X1665100Y1205799D01*
X1666300Y1209299D01*
X1666300Y1211700D01*
X1563999Y257199D02*
G01*
X1539200Y257199D01*
X1563999Y257199D02*
G01*
X1563999Y248899D01*
X1562799Y245399D01*
X1560500Y243000D01*
X1558100Y241799D01*
X1554600Y240599D01*
X1548699Y240599D01*
X1545100Y241799D01*
X1542799Y243000D01*
X1540399Y245399D01*
X1539200Y248899D01*
X1539200Y257199D01*
X1563999Y220999D02*
G01*
X1547500Y232800D01*
X1547500Y215100D01*
X1563999Y220999D02*
G01*
X1539200Y220999D01*
X1563999Y190799D02*
G01*
X1539200Y202600D01*
X1563999Y207300D02*
G01*
X1563999Y190799D01*
X1563900Y962399D02*
G01*
X1539099Y962399D01*
X1563900Y962399D02*
G01*
X1563900Y954099D01*
X1562700Y950599D01*
X1560299Y948200D01*
X1558000Y947100D01*
X1554399Y945900D01*
X1548500Y945900D01*
X1545000Y947100D01*
X1542600Y948200D01*
X1540200Y950599D01*
X1539099Y954099D01*
X1539099Y962399D01*
X1563900Y935700D02*
G01*
X1563900Y922699D01*
X1554399Y929800D01*
X1554399Y926300D01*
X1553199Y923899D01*
X1552100Y922699D01*
X1548500Y921500D01*
X1546199Y921500D01*
X1542600Y922699D01*
X1540200Y925100D01*
X1539099Y928600D01*
X1539099Y932199D01*
X1540200Y935700D01*
X1541400Y936900D01*
X1543800Y938099D01*
X1563900Y911399D02*
G01*
X1563900Y898400D01*
X1554399Y905500D01*
X1554399Y901900D01*
X1553199Y899499D01*
X1552100Y898400D01*
X1548500Y897199D01*
X1546199Y897199D01*
X1542600Y898400D01*
X1540200Y900700D01*
X1539099Y904299D01*
X1539099Y907800D01*
X1540200Y911399D01*
X1541400Y912500D01*
X1543800Y913699D01*
X1563900Y1252600D02*
G01*
X1539099Y1261999D01*
X1563900Y1252600D02*
G01*
X1539099Y1243099D01*
X1547299Y1258499D02*
G01*
X1547299Y1246700D01*
X1559200Y1235300D02*
G01*
X1560299Y1233000D01*
X1563900Y1229400D01*
X1539099Y1229400D01*
X1559200Y1221599D02*
G01*
X1560299Y1219299D01*
X1563900Y1215700D01*
X1539099Y1215700D01*
X1666300Y456900D02*
G01*
X1641499Y456900D01*
X1666300Y456900D02*
G01*
X1666300Y448600D01*
X1665100Y445100D01*
X1662799Y442699D01*
X1660399Y441500D01*
X1656899Y440399D01*
X1650900Y440399D01*
X1647399Y441500D01*
X1645000Y442699D01*
X1642700Y445100D01*
X1641499Y448600D01*
X1641499Y456900D01*
X1666300Y420700D02*
G01*
X1649799Y432600D01*
X1649799Y414800D01*
X1666300Y420700D02*
G01*
X1641499Y420700D01*
X1660399Y405799D02*
G01*
X1661599Y405799D01*
X1663900Y404699D01*
X1665100Y403499D01*
X1666300Y401100D01*
X1666300Y396399D01*
X1665100Y394000D01*
X1663900Y392800D01*
X1661599Y391700D01*
X1659200Y391700D01*
X1656899Y392800D01*
X1653299Y395199D01*
X1641499Y406999D01*
X1641499Y390500D01*
X1666300Y564000D02*
G01*
X1641499Y564000D01*
X1666300Y564000D02*
G01*
X1666300Y555700D01*
X1665100Y552199D01*
X1662799Y549800D01*
X1660399Y548600D01*
X1656899Y547500D01*
X1650900Y547500D01*
X1647399Y548600D01*
X1645000Y549800D01*
X1642700Y552199D01*
X1641499Y555700D01*
X1641499Y564000D01*
X1666300Y527800D02*
G01*
X1649799Y539699D01*
X1649799Y521900D01*
X1666300Y527800D02*
G01*
X1641499Y527800D01*
X1666300Y506999D02*
G01*
X1665100Y510599D01*
X1661599Y513000D01*
X1655699Y514099D01*
X1652100Y514099D01*
X1646199Y513000D01*
X1642700Y510599D01*
X1641499Y506999D01*
X1641499Y504699D01*
X1642700Y501100D01*
X1646199Y498800D01*
X1652100Y497600D01*
X1655699Y497600D01*
X1661599Y498800D01*
X1665100Y501100D01*
X1666300Y504699D01*
X1666300Y506999D01*
X1666300Y658600D02*
G01*
X1641499Y658600D01*
X1666300Y658600D02*
G01*
X1666300Y650300D01*
X1665100Y646700D01*
X1662799Y644400D01*
X1660399Y643200D01*
X1656899Y641999D01*
X1650900Y641999D01*
X1647399Y643200D01*
X1645000Y644400D01*
X1642700Y646700D01*
X1641499Y650300D01*
X1641499Y658600D01*
X1666300Y631900D02*
G01*
X1666300Y618899D01*
X1656899Y625900D01*
X1656899Y622399D01*
X1655699Y620000D01*
X1654499Y618899D01*
X1650900Y617699D01*
X1648599Y617699D01*
X1645000Y618899D01*
X1642700Y621199D01*
X1641499Y624800D01*
X1641499Y628299D01*
X1642700Y631900D01*
X1643900Y633000D01*
X1646199Y634200D01*
X1666300Y604000D02*
G01*
X1665100Y607500D01*
X1662799Y608699D01*
X1660399Y608699D01*
X1658000Y607500D01*
X1656899Y605100D01*
X1655699Y600399D01*
X1654499Y596900D01*
X1652100Y594499D01*
X1649799Y593299D01*
X1646199Y593299D01*
X1643900Y594499D01*
X1642700Y595700D01*
X1641499Y599200D01*
X1641499Y604000D01*
X1642700Y607500D01*
X1643900Y608699D01*
X1646199Y609899D01*
X1649799Y609899D01*
X1652100Y608699D01*
X1654499Y606300D01*
X1655699Y602800D01*
X1656899Y598099D01*
X1658000Y595700D01*
X1660399Y594499D01*
X1662799Y594499D01*
X1665100Y595700D01*
X1666300Y599200D01*
X1666300Y604000D01*
X1666300Y757100D02*
G01*
X1641499Y757100D01*
X1666300Y757100D02*
G01*
X1666300Y748800D01*
X1665100Y745300D01*
X1662799Y742899D01*
X1660399Y741700D01*
X1656899Y740500D01*
X1650900Y740500D01*
X1647399Y741700D01*
X1645000Y742899D01*
X1642700Y745300D01*
X1641499Y748800D01*
X1641499Y757100D01*
X1666300Y730399D02*
G01*
X1666300Y717399D01*
X1656899Y724499D01*
X1656899Y720900D01*
X1655699Y718600D01*
X1654499Y717399D01*
X1650900Y716199D01*
X1648599Y716199D01*
X1645000Y717399D01*
X1642700Y719699D01*
X1641499Y723299D01*
X1641499Y726799D01*
X1642700Y730399D01*
X1643900Y731599D01*
X1646199Y732699D01*
X1662799Y694200D02*
G01*
X1665100Y695399D01*
X1666300Y698899D01*
X1666300Y701300D01*
X1665100Y704899D01*
X1661599Y707199D01*
X1655699Y708400D01*
X1649799Y708400D01*
X1645000Y707199D01*
X1642700Y704899D01*
X1641499Y701300D01*
X1641499Y700100D01*
X1642700Y696599D01*
X1645000Y694200D01*
X1648599Y693000D01*
X1649799Y693000D01*
X1653299Y694200D01*
X1655699Y696599D01*
X1656899Y700100D01*
X1656899Y701300D01*
X1655699Y704899D01*
X1653299Y707199D01*
X1649799Y708400D01*
X1666300Y861100D02*
G01*
X1641499Y861100D01*
X1666300Y861100D02*
G01*
X1666300Y852800D01*
X1665100Y849299D01*
X1662799Y846900D01*
X1660399Y845700D01*
X1656899Y844499D01*
X1650900Y844499D01*
X1647399Y845700D01*
X1645000Y846900D01*
X1642700Y849299D01*
X1641499Y852800D01*
X1641499Y861100D01*
X1666300Y834400D02*
G01*
X1666300Y821399D01*
X1656899Y828499D01*
X1656899Y824899D01*
X1655699Y822600D01*
X1654499Y821399D01*
X1650900Y820199D01*
X1648599Y820199D01*
X1645000Y821399D01*
X1642700Y823699D01*
X1641499Y827300D01*
X1641499Y830799D01*
X1642700Y834400D01*
X1643900Y835599D01*
X1646199Y836700D01*
X1666300Y800599D02*
G01*
X1649799Y812399D01*
X1649799Y794699D01*
X1666300Y800599D02*
G01*
X1641499Y800599D01*
X1666300Y1045300D02*
G01*
X1641499Y1054800D01*
X1666300Y1045300D02*
G01*
X1641499Y1035900D01*
X1649799Y1051199D02*
G01*
X1649799Y1039400D01*
X1661599Y1028099D02*
G01*
X1662799Y1025700D01*
X1666300Y1022199D01*
X1641499Y1022199D01*
X1666300Y1002500D02*
G01*
X1649799Y1014400D01*
X1649799Y996599D01*
X1666300Y1002500D02*
G01*
X1641499Y1002500D01*
X1666300Y1144299D02*
G01*
X1641499Y1153800D01*
X1666300Y1144299D02*
G01*
X1641499Y1134899D01*
X1649799Y1150199D02*
G01*
X1649799Y1138400D01*
X1661599Y1127100D02*
G01*
X1662799Y1124699D01*
X1666300Y1121100D01*
X1641499Y1121100D01*
X1660399Y1112199D02*
G01*
X1661599Y1112199D01*
X1663900Y1110999D01*
X1665100Y1109800D01*
X1666300Y1107399D01*
X1666300Y1102699D01*
X1665100Y1100300D01*
X1663900Y1099200D01*
X1661599Y1098000D01*
X1659200Y1098000D01*
X1656899Y1099200D01*
X1653299Y1101500D01*
X1641499Y1113299D01*
X1641499Y1096799D01*
X1563900Y457699D02*
G01*
X1539099Y457699D01*
X1563900Y457699D02*
G01*
X1563900Y449499D01*
X1562700Y445900D01*
X1560299Y443600D01*
X1558000Y442399D01*
X1554399Y441199D01*
X1548500Y441199D01*
X1545000Y442399D01*
X1542600Y443600D01*
X1540200Y445900D01*
X1539099Y449499D01*
X1539099Y457699D01*
X1563900Y421599D02*
G01*
X1547299Y433400D01*
X1547299Y415700D01*
X1563900Y421599D02*
G01*
X1539099Y421599D01*
X1563900Y405500D02*
G01*
X1563900Y392500D01*
X1554399Y399600D01*
X1554399Y396100D01*
X1553199Y393699D01*
X1552100Y392500D01*
X1548500Y391300D01*
X1546199Y391300D01*
X1542600Y392500D01*
X1540200Y394899D01*
X1539099Y398400D01*
X1539099Y401999D01*
X1540200Y405500D01*
X1541400Y406700D01*
X1543800Y407899D01*
X1563900Y559800D02*
G01*
X1539099Y559800D01*
X1563900Y559800D02*
G01*
X1563900Y551500D01*
X1562700Y548000D01*
X1560299Y545599D01*
X1558000Y544400D01*
X1554399Y543200D01*
X1548500Y543200D01*
X1545000Y544400D01*
X1542600Y545599D01*
X1540200Y548000D01*
X1539099Y551500D01*
X1539099Y559800D01*
X1563900Y523600D02*
G01*
X1547299Y535399D01*
X1547299Y517699D01*
X1563900Y523600D02*
G01*
X1539099Y523600D01*
X1559200Y509899D02*
G01*
X1560299Y507600D01*
X1563900Y504000D01*
X1539099Y504000D01*
X1563900Y661100D02*
G01*
X1539099Y661100D01*
X1563900Y661100D02*
G01*
X1563900Y652800D01*
X1562700Y649299D01*
X1560299Y646900D01*
X1558000Y645799D01*
X1554399Y644600D01*
X1548500Y644600D01*
X1545000Y645799D01*
X1542600Y646900D01*
X1540200Y649299D01*
X1539099Y652800D01*
X1539099Y661100D01*
X1563900Y634400D02*
G01*
X1563900Y621399D01*
X1554399Y628499D01*
X1554399Y625000D01*
X1553199Y622600D01*
X1552100Y621399D01*
X1548500Y620199D01*
X1546199Y620199D01*
X1542600Y621399D01*
X1540200Y623800D01*
X1539099Y627300D01*
X1539099Y630900D01*
X1540200Y634400D01*
X1541400Y635599D01*
X1543800Y636799D01*
X1555600Y597100D02*
G01*
X1552100Y598200D01*
X1549700Y600599D01*
X1548500Y604200D01*
X1548500Y605300D01*
X1549700Y608899D01*
X1552100Y611199D01*
X1555600Y612399D01*
X1556800Y612399D01*
X1560299Y611199D01*
X1562700Y608899D01*
X1563900Y605300D01*
X1563900Y604200D01*
X1562700Y600599D01*
X1560299Y598200D01*
X1555600Y597100D01*
X1549700Y597100D01*
X1543800Y598200D01*
X1540200Y600599D01*
X1539099Y604200D01*
X1539099Y606500D01*
X1540200Y610100D01*
X1542600Y611199D01*
X1563900Y757500D02*
G01*
X1539099Y757500D01*
X1563900Y757500D02*
G01*
X1563900Y749299D01*
X1562700Y745700D01*
X1560299Y743400D01*
X1558000Y742199D01*
X1554399Y740999D01*
X1548500Y740999D01*
X1545000Y742199D01*
X1542600Y743400D01*
X1540200Y745700D01*
X1539099Y749299D01*
X1539099Y757500D01*
X1563900Y730799D02*
G01*
X1563900Y717800D01*
X1554399Y724899D01*
X1554399Y721399D01*
X1553199Y719000D01*
X1552100Y717800D01*
X1548500Y716700D01*
X1546199Y716700D01*
X1542600Y717800D01*
X1540200Y720199D01*
X1539099Y723699D01*
X1539099Y727300D01*
X1540200Y730799D01*
X1541400Y731999D01*
X1543800Y733200D01*
X1563900Y692300D02*
G01*
X1539099Y704099D01*
X1563900Y708899D02*
G01*
X1563900Y692300D01*
X1563900Y860999D02*
G01*
X1539099Y860999D01*
X1563900Y860999D02*
G01*
X1563900Y852699D01*
X1562700Y849200D01*
X1560299Y846799D01*
X1558000Y845599D01*
X1554399Y844499D01*
X1548500Y844499D01*
X1545000Y845599D01*
X1542600Y846799D01*
X1540200Y849200D01*
X1539099Y852699D01*
X1539099Y860999D01*
X1563900Y834299D02*
G01*
X1563900Y821300D01*
X1554399Y828400D01*
X1554399Y824800D01*
X1553199Y822500D01*
X1552100Y821300D01*
X1548500Y820100D01*
X1546199Y820100D01*
X1542600Y821300D01*
X1540200Y823699D01*
X1539099Y827199D01*
X1539099Y830799D01*
X1540200Y834299D01*
X1541400Y835500D01*
X1543800Y836700D01*
X1563900Y798099D02*
G01*
X1563900Y810000D01*
X1553199Y811100D01*
X1554399Y810000D01*
X1555600Y806399D01*
X1555600Y802899D01*
X1554399Y799299D01*
X1552100Y796999D01*
X1548500Y795799D01*
X1546199Y795799D01*
X1542600Y796999D01*
X1540200Y799299D01*
X1539099Y802899D01*
X1539099Y806399D01*
X1540200Y810000D01*
X1541400Y811100D01*
X1543800Y812300D01*
X1563900Y1050300D02*
G01*
X1539099Y1059699D01*
X1563900Y1050300D02*
G01*
X1539099Y1040799D01*
X1547299Y1056199D02*
G01*
X1547299Y1044400D01*
X1559200Y1033000D02*
G01*
X1560299Y1030700D01*
X1563900Y1027100D01*
X1539099Y1027100D01*
X1563900Y1005100D02*
G01*
X1563900Y1016900D01*
X1553199Y1018099D01*
X1554399Y1016900D01*
X1555600Y1013400D01*
X1555600Y1009899D01*
X1554399Y1006300D01*
X1552100Y1003899D01*
X1548500Y1002800D01*
X1546199Y1002800D01*
X1542600Y1003899D01*
X1540200Y1006300D01*
X1539099Y1009899D01*
X1539099Y1013400D01*
X1540200Y1016900D01*
X1541400Y1018099D01*
X1543800Y1019299D01*
X1563900Y1154099D02*
G01*
X1539099Y1163499D01*
X1563900Y1154099D02*
G01*
X1539099Y1144600D01*
X1547299Y1160000D02*
G01*
X1547299Y1148099D01*
X1559200Y1136799D02*
G01*
X1560299Y1134400D01*
X1563900Y1130900D01*
X1539099Y1130900D01*
X1563900Y1120700D02*
G01*
X1563900Y1107699D01*
X1554399Y1114800D01*
X1554399Y1111300D01*
X1553199Y1108899D01*
X1552100Y1107699D01*
X1548500Y1106500D01*
X1546199Y1106500D01*
X1542600Y1107699D01*
X1540200Y1110100D01*
X1539099Y1113600D01*
X1539099Y1117199D01*
X1540200Y1120700D01*
X1541400Y1121900D01*
X1543800Y1123099D01*
X1666400Y357100D02*
G01*
X1641599Y357100D01*
X1666400Y357100D02*
G01*
X1666400Y348800D01*
X1665299Y345300D01*
X1662899Y342899D01*
X1660500Y341799D01*
X1656999Y340599D01*
X1651099Y340599D01*
X1647500Y341799D01*
X1645200Y342899D01*
X1642799Y345300D01*
X1641599Y348800D01*
X1641599Y357100D01*
X1666400Y320999D02*
G01*
X1649899Y332800D01*
X1649899Y315000D01*
X1666400Y320999D02*
G01*
X1641599Y320999D01*
X1666400Y295399D02*
G01*
X1649899Y307199D01*
X1649899Y289499D01*
X1666400Y295399D02*
G01*
X1641599Y295399D01*
X1563999Y356999D02*
G01*
X1539200Y356999D01*
X1563999Y356999D02*
G01*
X1563999Y348699D01*
X1562799Y345199D01*
X1560500Y342800D01*
X1558100Y341599D01*
X1554600Y340399D01*
X1548699Y340399D01*
X1545100Y341599D01*
X1542799Y342800D01*
X1540399Y345199D01*
X1539200Y348699D01*
X1539200Y356999D01*
X1563999Y320799D02*
G01*
X1547500Y332600D01*
X1547500Y314899D01*
X1563999Y320799D02*
G01*
X1539200Y320799D01*
X1563999Y292899D02*
G01*
X1563999Y304800D01*
X1553400Y305900D01*
X1554600Y304800D01*
X1555799Y301199D01*
X1555799Y297699D01*
X1554600Y294099D01*
X1552200Y291799D01*
X1548699Y290599D01*
X1546300Y290599D01*
X1542799Y291799D01*
X1540399Y294099D01*
X1539200Y297699D01*
X1539200Y301199D01*
X1540399Y304800D01*
X1541599Y305900D01*
X1543900Y307100D01*
X1563900Y1332399D02*
G01*
X1539099Y1341799D01*
X1563900Y1332399D02*
G01*
X1539099Y1322899D01*
X1547299Y1338299D02*
G01*
X1547299Y1326399D01*
X1555600Y1299699D02*
G01*
X1552100Y1300900D01*
X1549700Y1303299D01*
X1548500Y1306799D01*
X1548500Y1308000D01*
X1549700Y1311599D01*
X1552100Y1313899D01*
X1555600Y1315100D01*
X1556800Y1315100D01*
X1560299Y1313899D01*
X1562700Y1311599D01*
X1563900Y1308000D01*
X1563900Y1306799D01*
X1562700Y1303299D01*
X1560299Y1300900D01*
X1555600Y1299699D01*
X1549700Y1299699D01*
X1543800Y1300900D01*
X1540200Y1303299D01*
X1539099Y1306799D01*
X1539099Y1309200D01*
X1540200Y1312699D01*
X1542600Y1313899D01*
X1666300Y1332500D02*
G01*
X1641499Y1341900D01*
X1666300Y1332500D02*
G01*
X1641499Y1323000D01*
X1649799Y1338400D02*
G01*
X1649799Y1326599D01*
X1666300Y1309299D02*
G01*
X1665100Y1312800D01*
X1662799Y1314000D01*
X1660399Y1314000D01*
X1658000Y1312800D01*
X1656899Y1310500D01*
X1655699Y1305799D01*
X1654499Y1302199D01*
X1652100Y1299800D01*
X1649799Y1298699D01*
X1646199Y1298699D01*
X1643900Y1299800D01*
X1642700Y1300999D01*
X1641499Y1304600D01*
X1641499Y1309299D01*
X1642700Y1312800D01*
X1643900Y1314000D01*
X1646199Y1315199D01*
X1649799Y1315199D01*
X1652100Y1314000D01*
X1654499Y1311700D01*
X1655699Y1308099D01*
X1656899Y1303400D01*
X1658000Y1300999D01*
X1660399Y1299800D01*
X1662799Y1299800D01*
X1665100Y1300999D01*
X1666300Y1304600D01*
X1666300Y1309299D01*
X1666300Y1434600D02*
G01*
X1641499Y1444000D01*
X1666300Y1434600D02*
G01*
X1641499Y1425100D01*
X1649799Y1440500D02*
G01*
X1649799Y1428600D01*
X1662799Y1403099D02*
G01*
X1665100Y1404299D01*
X1666300Y1407800D01*
X1666300Y1410199D01*
X1665100Y1413800D01*
X1661599Y1416100D01*
X1655699Y1417300D01*
X1649799Y1417300D01*
X1645000Y1416100D01*
X1642700Y1413800D01*
X1641499Y1410199D01*
X1641499Y1409000D01*
X1642700Y1405500D01*
X1645000Y1403099D01*
X1648599Y1401900D01*
X1649799Y1401900D01*
X1653299Y1403099D01*
X1655699Y1405500D01*
X1656899Y1409000D01*
X1656899Y1410199D01*
X1655699Y1413800D01*
X1653299Y1416100D01*
X1649799Y1417300D01*
X1563999Y1431700D02*
G01*
X1539200Y1441199D01*
X1563999Y1431700D02*
G01*
X1539200Y1422300D01*
X1547500Y1437600D02*
G01*
X1547500Y1425799D01*
X1563999Y1397899D02*
G01*
X1539200Y1409699D01*
X1563999Y1414499D02*
G01*
X1563999Y1397899D01*
X1563999Y1533899D02*
G01*
X1539200Y1543299D01*
X1563999Y1533899D02*
G01*
X1539200Y1524400D01*
X1547500Y1539800D02*
G01*
X1547500Y1528000D01*
X1563999Y1502399D02*
G01*
X1563999Y1514299D01*
X1553400Y1515399D01*
X1554600Y1514299D01*
X1555799Y1510700D01*
X1555799Y1507199D01*
X1554600Y1503600D01*
X1552200Y1501300D01*
X1548699Y1500100D01*
X1546300Y1500100D01*
X1542799Y1501300D01*
X1540399Y1503600D01*
X1539200Y1507199D01*
X1539200Y1510700D01*
X1540399Y1514299D01*
X1541599Y1515399D01*
X1543900Y1516599D01*
X1666400Y1533800D02*
G01*
X1641599Y1543200D01*
X1666400Y1533800D02*
G01*
X1641599Y1524299D01*
X1649899Y1539699D02*
G01*
X1649899Y1527899D01*
X1666400Y1504699D02*
G01*
X1649899Y1516500D01*
X1649899Y1498800D01*
X1666400Y1504699D02*
G01*
X1641599Y1504699D01*
X1563900Y1633600D02*
G01*
X1539099Y1643099D01*
X1563900Y1633600D02*
G01*
X1539099Y1624200D01*
X1547299Y1639499D02*
G01*
X1547299Y1627699D01*
X1563900Y1614000D02*
G01*
X1563900Y1600999D01*
X1554399Y1608099D01*
X1554399Y1604600D01*
X1553199Y1602199D01*
X1552100Y1600999D01*
X1548500Y1599800D01*
X1546199Y1599800D01*
X1542600Y1600999D01*
X1540200Y1603400D01*
X1539099Y1606900D01*
X1539099Y1610500D01*
X1540200Y1614000D01*
X1541400Y1615199D01*
X1543800Y1616399D01*
X1666300Y1632899D02*
G01*
X1641499Y1642399D01*
X1666300Y1632899D02*
G01*
X1641499Y1623499D01*
X1649799Y1638899D02*
G01*
X1649799Y1626999D01*
X1660399Y1614499D02*
G01*
X1661599Y1614499D01*
X1663900Y1613299D01*
X1665100Y1612100D01*
X1666300Y1609800D01*
X1666300Y1605100D01*
X1665100Y1602699D01*
X1663900Y1601500D01*
X1661599Y1600300D01*
X1659200Y1600300D01*
X1656899Y1601500D01*
X1653299Y1603899D01*
X1641499Y1615700D01*
X1641499Y1599099D01*
X1563900Y1735700D02*
G01*
X1539099Y1745199D01*
X1563900Y1735700D02*
G01*
X1539099Y1726300D01*
X1547299Y1741599D02*
G01*
X1547299Y1729800D01*
X1559200Y1718499D02*
G01*
X1560299Y1716100D01*
X1563900Y1712600D01*
X1539099Y1712600D01*
X1661300Y1733099D02*
G01*
X1636499Y1742500D01*
X1661300Y1733099D02*
G01*
X1636499Y1723600D01*
X1644799Y1739000D02*
G01*
X1644799Y1727199D01*
X1661300Y1708699D02*
G01*
X1660100Y1712300D01*
X1656599Y1714699D01*
X1650699Y1715799D01*
X1647100Y1715799D01*
X1641199Y1714699D01*
X1637700Y1712300D01*
X1636499Y1708699D01*
X1636499Y1706399D01*
X1637700Y1702800D01*
X1641199Y1700500D01*
X1647100Y1699299D01*
X1650699Y1699299D01*
X1656599Y1700500D01*
X1660100Y1702800D01*
X1661300Y1706399D01*
X1661300Y1708699D01*
D15*
X582100Y2234400D02*
G01*
X560399Y2234400D01*
X572800Y2234400D02*
G01*
X577399Y2232800D01*
X580500Y2229699D01*
X582100Y2226599D01*
X582100Y2221999D01*
X582100Y2204000D02*
G01*
X580500Y2207100D01*
X577399Y2210200D01*
X572800Y2211700D01*
X569699Y2211700D01*
X565000Y2210200D01*
X561900Y2207100D01*
X560399Y2204000D01*
X560399Y2199299D01*
X561900Y2196199D01*
X565000Y2193099D01*
X569699Y2191599D01*
X572800Y2191599D01*
X577399Y2193099D01*
X580500Y2196199D01*
X582100Y2199299D01*
X582100Y2204000D01*
X592899Y2181300D02*
G01*
X560399Y2181300D01*
X577399Y2181300D02*
G01*
X580500Y2178200D01*
X582100Y2175100D01*
X582100Y2170500D01*
X580500Y2167399D01*
X577399Y2164299D01*
X572800Y2162700D01*
X569699Y2162700D01*
X565000Y2164299D01*
X561900Y2167399D01*
X560399Y2170500D01*
X560399Y2175100D01*
X561900Y2178200D01*
X565000Y2181300D01*
X582100Y2144699D02*
G01*
X580500Y2147800D01*
X577399Y2150900D01*
X572800Y2152500D01*
X569699Y2152500D01*
X565000Y2150900D01*
X561900Y2147800D01*
X560399Y2144699D01*
X560399Y2140100D01*
X561900Y2136999D01*
X565000Y2133899D01*
X569699Y2132300D01*
X572800Y2132300D01*
X577399Y2133899D01*
X580500Y2136999D01*
X582100Y2140100D01*
X582100Y2144699D01*
X592899Y2117399D02*
G01*
X566599Y2117399D01*
X561900Y2115900D01*
X560399Y2112800D01*
X560399Y2109699D01*
X582100Y2122100D02*
G01*
X582100Y2111199D01*
X592899Y2080799D02*
G01*
X560399Y2080799D01*
X577399Y2080799D02*
G01*
X580500Y2083899D01*
X582100Y2086999D01*
X582100Y2091700D01*
X580500Y2094800D01*
X577399Y2097899D01*
X572800Y2099400D01*
X569699Y2099400D01*
X565000Y2097899D01*
X561900Y2094800D01*
X560399Y2091700D01*
X560399Y2086999D01*
X561900Y2083899D01*
X565000Y2080799D01*
X582100Y2069000D02*
G01*
X560399Y2059699D01*
X582100Y2050399D02*
G01*
X560399Y2059699D01*
X554200Y2062800D01*
X551100Y2065900D01*
X549499Y2069000D01*
X549499Y2070599D01*
X582100Y2040199D02*
G01*
X560399Y2040199D01*
X575900Y2040199D02*
G01*
X580500Y2035500D01*
X582100Y2032399D01*
X582100Y2027800D01*
X580500Y2024699D01*
X575900Y2023099D01*
X560399Y2023099D01*
X568099Y2011300D02*
G01*
X566599Y2012899D01*
X565000Y2011300D01*
X566599Y2009800D01*
X568099Y2011300D01*
X577399Y1980900D02*
G01*
X580500Y1984000D01*
X582100Y1987100D01*
X582100Y1991799D01*
X580500Y1994899D01*
X577399Y1998000D01*
X572800Y1999600D01*
X569699Y1999600D01*
X565000Y1998000D01*
X561900Y1994899D01*
X560399Y1991799D01*
X560399Y1987100D01*
X561900Y1984000D01*
X565000Y1980900D01*
X582100Y1963000D02*
G01*
X580500Y1966100D01*
X577399Y1969200D01*
X572800Y1970700D01*
X569699Y1970700D01*
X565000Y1969200D01*
X561900Y1966100D01*
X560399Y1963000D01*
X560399Y1958299D01*
X561900Y1955199D01*
X565000Y1952100D01*
X569699Y1950500D01*
X572800Y1950500D01*
X577399Y1952100D01*
X580500Y1955199D01*
X582100Y1958299D01*
X582100Y1963000D01*
X582100Y1940300D02*
G01*
X560399Y1940300D01*
X575900Y1940300D02*
G01*
X580500Y1935700D01*
X582100Y1932600D01*
X582100Y1927899D01*
X580500Y1924800D01*
X575900Y1923200D01*
X560399Y1923200D01*
X575900Y1923200D02*
G01*
X580500Y1918600D01*
X582100Y1915500D01*
X582100Y1910799D01*
X580500Y1907699D01*
X575900Y1906199D01*
X560399Y1906199D01*
D16*
X821480Y478299D02*
G01*
X821480Y435700D01*
X865280Y468099D02*
G01*
X863180Y472199D01*
X859179Y476199D01*
X855079Y478299D01*
X846980Y478299D01*
X842979Y476199D01*
X838879Y472199D01*
X836880Y468099D01*
X834780Y461999D01*
X834780Y451900D01*
X836880Y445799D01*
X838879Y441799D01*
X842979Y437699D01*
X846980Y435700D01*
X855079Y435700D01*
X859179Y437699D01*
X863180Y441799D01*
X865280Y445799D01*
X906980Y472199D02*
G01*
X902979Y476199D01*
X896880Y478299D01*
X888779Y478299D01*
X882680Y476199D01*
X878680Y472199D01*
X878680Y468099D01*
X880680Y464099D01*
X882680Y461999D01*
X886779Y460000D01*
X898879Y455999D01*
X902979Y453899D01*
X904979Y451900D01*
X906980Y447800D01*
X906980Y441799D01*
X902979Y437699D01*
X896880Y435700D01*
X888779Y435700D01*
X882680Y437699D01*
X878680Y441799D01*
X920379Y478299D02*
G01*
X920379Y435700D01*
X920379Y478299D02*
G01*
X938680Y478299D01*
X944780Y476199D01*
X946779Y474200D01*
X948779Y470199D01*
X948779Y464099D01*
X946779Y460000D01*
X944780Y458000D01*
X938680Y455999D01*
X920379Y455999D01*
D15*
X1644600Y2161300D02*
G01*
X1606999Y2161300D01*
X1644600Y2161300D02*
G01*
X1644600Y2145200D01*
X1642799Y2139899D01*
X1641000Y2138099D01*
X1637500Y2136300D01*
X1633900Y2136300D01*
X1630299Y2138099D01*
X1628500Y2139899D01*
X1626700Y2145200D01*
X1626700Y2161300D01*
X1626700Y2148800D02*
G01*
X1606999Y2136300D01*
X1644600Y2124499D02*
G01*
X1606999Y2124499D01*
X1644600Y2124499D02*
G01*
X1644600Y2101199D01*
X1626700Y2124499D02*
G01*
X1626700Y2110100D01*
X1606999Y2124499D02*
G01*
X1606999Y2101199D01*
X1639200Y2064299D02*
G01*
X1642799Y2067899D01*
X1644600Y2073299D01*
X1644600Y2080399D01*
X1642799Y2085799D01*
X1639200Y2089400D01*
X1635699Y2089400D01*
X1632100Y2087600D01*
X1630299Y2085799D01*
X1628500Y2082199D01*
X1624899Y2071500D01*
X1623100Y2067899D01*
X1621400Y2066100D01*
X1617799Y2064299D01*
X1612399Y2064299D01*
X1608800Y2067899D01*
X1606999Y2073299D01*
X1606999Y2080399D01*
X1608800Y2085799D01*
X1612399Y2089400D01*
X1644600Y2052500D02*
G01*
X1606999Y2052500D01*
X1644600Y2052500D02*
G01*
X1644600Y2029299D01*
X1626700Y2052500D02*
G01*
X1626700Y2038200D01*
X1606999Y2052500D02*
G01*
X1606999Y2029299D01*
X1644600Y2004899D02*
G01*
X1606999Y2004899D01*
X1644600Y2017500D02*
G01*
X1644600Y1992399D01*
D14*
X460700Y2255000D02*
G01*
X435799Y2245599D01*
X460700Y2236100D02*
G01*
X435799Y2245599D01*
X460700Y2228299D02*
G01*
X435799Y2228299D01*
X460700Y2220500D02*
G01*
X435799Y2220500D01*
X460700Y2220500D02*
G01*
X435799Y2204000D01*
X460700Y2204000D02*
G01*
X435799Y2204000D01*
X460700Y2027199D02*
G01*
X460700Y2039000D01*
X450000Y2040199D01*
X451199Y2039000D01*
X452399Y2035500D01*
X452399Y2031999D01*
X451199Y2028400D01*
X448800Y2025999D01*
X445300Y2024899D01*
X442899Y2024899D01*
X439400Y2025999D01*
X436999Y2028400D01*
X435799Y2031999D01*
X435799Y2035500D01*
X436999Y2039000D01*
X438200Y2040199D01*
X440599Y2041399D01*
X460700Y2017100D02*
G01*
X435799Y2007600D01*
X460700Y1998200D02*
G01*
X435799Y2007600D01*
X454200Y2137199D02*
G01*
X456599Y2138299D01*
X459000Y2140700D01*
X460100Y2143099D01*
X460100Y2147800D01*
X459000Y2150200D01*
X456599Y2152500D01*
X454200Y2153699D01*
X450700Y2154899D01*
X444800Y2154899D01*
X441199Y2153699D01*
X438899Y2152500D01*
X436500Y2150200D01*
X435300Y2147800D01*
X435300Y2143099D01*
X436500Y2140700D01*
X438899Y2138299D01*
X441199Y2137199D01*
X444800Y2137199D01*
X444800Y2143099D02*
G01*
X444800Y2137199D01*
X460100Y2129400D02*
G01*
X435300Y2129400D01*
X460100Y2129400D02*
G01*
X435300Y2112800D01*
X460100Y2112800D02*
G01*
X435300Y2112800D01*
X460100Y2105000D02*
G01*
X435300Y2105000D01*
X460100Y2105000D02*
G01*
X460100Y2096700D01*
X459000Y2093200D01*
X456599Y2090799D01*
X454200Y2089600D01*
X450700Y2088499D01*
X444800Y2088499D01*
X441199Y2089600D01*
X438899Y2090799D01*
X436500Y2093200D01*
X435300Y2096700D01*
X435300Y2105000D01*
X460500Y1953499D02*
G01*
X460500Y1940500D01*
X451100Y1947600D01*
X451100Y1944000D01*
X449899Y1941599D01*
X448699Y1940500D01*
X445199Y1939299D01*
X442800Y1939299D01*
X439299Y1940500D01*
X436900Y1942800D01*
X435700Y1946399D01*
X435700Y1949899D01*
X436900Y1953499D01*
X438099Y1954600D01*
X440399Y1955799D01*
X460500Y1931500D02*
G01*
X435700Y1921999D01*
X460500Y1912600D02*
G01*
X435700Y1921999D01*
X460500Y1902399D02*
G01*
X460500Y1889400D01*
X451100Y1896500D01*
X451100Y1893000D01*
X449899Y1890599D01*
X448699Y1889400D01*
X445199Y1888200D01*
X442800Y1888200D01*
X439299Y1889400D01*
X436900Y1891799D01*
X435700Y1895300D01*
X435700Y1898899D01*
X436900Y1902399D01*
X438099Y1903600D01*
X440399Y1904800D01*
D17*
X728600Y2234499D02*
G01*
X683499Y2234499D01*
X728600Y2234499D02*
G01*
X683499Y2217300D01*
X728600Y2200100D02*
G01*
X683499Y2217300D01*
X728600Y2200100D02*
G01*
X683499Y2200100D01*
X700700Y2185900D02*
G01*
X700700Y2160200D01*
X705000Y2160200D01*
X709299Y2162300D01*
X711399Y2164499D01*
X713600Y2168800D01*
X713600Y2175200D01*
X711399Y2179499D01*
X707100Y2183800D01*
X700700Y2185900D01*
X696399Y2185900D01*
X689899Y2183800D01*
X685700Y2179499D01*
X683499Y2175200D01*
X683499Y2168800D01*
X685700Y2164499D01*
X689899Y2160200D01*
X713600Y2120200D02*
G01*
X679200Y2120200D01*
X672800Y2122399D01*
X670599Y2124499D01*
X668499Y2128800D01*
X668499Y2135300D01*
X670599Y2139600D01*
X707100Y2120200D02*
G01*
X711399Y2124499D01*
X713600Y2128800D01*
X713600Y2135300D01*
X711399Y2139600D01*
X707100Y2143800D01*
X700700Y2145999D01*
X696399Y2145999D01*
X689899Y2143800D01*
X685700Y2139600D01*
X683499Y2135300D01*
X683499Y2128800D01*
X685700Y2124499D01*
X689899Y2120200D01*
X713600Y2080300D02*
G01*
X683499Y2080300D01*
X707100Y2080300D02*
G01*
X711399Y2084600D01*
X713600Y2088899D01*
X713600Y2095300D01*
X711399Y2099600D01*
X707100Y2103899D01*
X700700Y2106100D01*
X696399Y2106100D01*
X689899Y2103899D01*
X685700Y2099600D01*
X683499Y2095300D01*
X683499Y2088899D01*
X685700Y2084600D01*
X689899Y2080300D01*
X717899Y2030900D02*
G01*
X720000Y2030900D01*
X724299Y2028800D01*
X726500Y2026599D01*
X728600Y2022300D01*
X728600Y2013699D01*
X726500Y2009400D01*
X724299Y2007300D01*
X720000Y2005100D01*
X715700Y2005100D01*
X711399Y2007300D01*
X705000Y2011599D01*
X683499Y2033000D01*
X683499Y2003000D01*
X728600Y1963000D02*
G01*
X728600Y1984499D01*
X709299Y1986700D01*
X711399Y1984499D01*
X713600Y1978099D01*
X713600Y1971599D01*
X711399Y1965199D01*
X707100Y1960900D01*
X700700Y1958800D01*
X696399Y1958800D01*
X689899Y1960900D01*
X685700Y1965199D01*
X683499Y1971599D01*
X683499Y1978099D01*
X685700Y1984499D01*
X687800Y1986700D01*
X692100Y1988800D01*
X722199Y1918800D02*
G01*
X726500Y1920999D01*
X728600Y1927399D01*
X728600Y1931700D01*
X726500Y1938099D01*
X720000Y1942399D01*
X709299Y1944600D01*
X698499Y1944600D01*
X689899Y1942399D01*
X685700Y1938099D01*
X683499Y1931700D01*
X683499Y1929499D01*
X685700Y1923099D01*
X689899Y1918800D01*
X696399Y1916700D01*
X698499Y1916700D01*
X705000Y1918800D01*
X709299Y1923099D01*
X711399Y1929499D01*
X711399Y1931700D01*
X709299Y1938099D01*
X705000Y1942399D01*
X698499Y1944600D01*
X728600Y1889600D02*
G01*
X726500Y1895999D01*
X720000Y1900300D01*
X709299Y1902500D01*
X702800Y1902500D01*
X692100Y1900300D01*
X685700Y1895999D01*
X683499Y1889600D01*
X683499Y1885300D01*
X685700Y1878899D01*
X692100Y1874600D01*
X702800Y1872399D01*
X709299Y1872399D01*
X720000Y1874600D01*
X726500Y1878899D01*
X728600Y1885300D01*
X728600Y1889600D01*
X728600Y1825199D02*
G01*
X683499Y1825199D01*
X728600Y1825199D02*
G01*
X728600Y1805900D01*
X726500Y1799400D01*
X724299Y1797300D01*
X720000Y1795100D01*
X713600Y1795100D01*
X709299Y1797300D01*
X707100Y1799400D01*
X705000Y1805900D01*
X705000Y1825199D01*
X728600Y1780999D02*
G01*
X683499Y1780999D01*
X728600Y1780999D02*
G01*
X728600Y1761599D01*
X726500Y1755199D01*
X724299Y1753000D01*
X720000Y1750900D01*
X715700Y1750900D01*
X711399Y1753000D01*
X709299Y1755199D01*
X707100Y1761599D01*
X707100Y1780999D01*
X707100Y1765900D02*
G01*
X683499Y1750900D01*
X728600Y1723800D02*
G01*
X726500Y1728099D01*
X722199Y1732399D01*
X717899Y1734600D01*
X711399Y1736700D01*
X700700Y1736700D01*
X694200Y1734600D01*
X689899Y1732399D01*
X685700Y1728099D01*
X683499Y1723800D01*
X683499Y1715199D01*
X685700Y1710999D01*
X689899Y1706700D01*
X694200Y1704499D01*
X700700Y1702399D01*
X711399Y1702399D01*
X717899Y1704499D01*
X722199Y1706700D01*
X726500Y1710999D01*
X728600Y1715199D01*
X728600Y1723800D01*
X737199Y1640100D02*
G01*
X732899Y1644400D01*
X726500Y1648699D01*
X717899Y1653000D01*
X707100Y1655100D01*
X698499Y1655100D01*
X687800Y1653000D01*
X679200Y1648699D01*
X672800Y1644400D01*
X668499Y1640100D01*
X728600Y1625900D02*
G01*
X683499Y1625900D01*
X728600Y1625900D02*
G01*
X728600Y1598000D01*
X707100Y1625900D02*
G01*
X707100Y1608699D01*
X683499Y1625900D02*
G01*
X683499Y1598000D01*
X713600Y1583800D02*
G01*
X683499Y1583800D01*
X705000Y1583800D02*
G01*
X711399Y1577399D01*
X713600Y1573099D01*
X713600Y1566700D01*
X711399Y1562399D01*
X705000Y1560199D01*
X683499Y1560199D01*
X705000Y1560199D02*
G01*
X711399Y1553800D01*
X713600Y1549499D01*
X713600Y1543000D01*
X711399Y1538699D01*
X705000Y1536599D01*
X683499Y1536599D01*
X728600Y1522399D02*
G01*
X683499Y1522399D01*
X707100Y1522399D02*
G01*
X711399Y1518099D01*
X713600Y1513800D01*
X713600Y1507399D01*
X711399Y1503099D01*
X707100Y1498800D01*
X700700Y1496700D01*
X696399Y1496700D01*
X689899Y1498800D01*
X685700Y1503099D01*
X683499Y1507399D01*
X683499Y1513800D01*
X685700Y1518099D01*
X689899Y1522399D01*
X700700Y1482500D02*
G01*
X700700Y1456700D01*
X705000Y1456700D01*
X709299Y1458899D01*
X711399Y1460999D01*
X713600Y1465300D01*
X713600Y1471700D01*
X711399Y1475999D01*
X707100Y1480300D01*
X700700Y1482500D01*
X696399Y1482500D01*
X689899Y1480300D01*
X685700Y1475999D01*
X683499Y1471700D01*
X683499Y1465300D01*
X685700Y1460999D01*
X689899Y1456700D01*
X728600Y1416799D02*
G01*
X683499Y1416799D01*
X707100Y1416799D02*
G01*
X711399Y1421100D01*
X713600Y1425399D01*
X713600Y1431799D01*
X711399Y1436100D01*
X707100Y1440399D01*
X700700Y1442500D01*
X696399Y1442500D01*
X689899Y1440399D01*
X685700Y1436100D01*
X683499Y1431799D01*
X683499Y1425399D01*
X685700Y1421100D01*
X689899Y1416799D01*
X737199Y1402600D02*
G01*
X732899Y1398299D01*
X726500Y1394000D01*
X717899Y1389699D01*
X707100Y1387600D01*
X698499Y1387600D01*
X687800Y1389699D01*
X679200Y1394000D01*
X672800Y1398299D01*
X668499Y1402600D01*
D14*
X946090Y404349D02*
G01*
X946090Y379549D01*
X946090Y404349D02*
G01*
X955489Y379549D01*
X964989Y404349D02*
G01*
X955489Y379549D01*
X964989Y404349D02*
G01*
X964989Y379549D01*
X972790Y404349D02*
G01*
X972790Y379549D01*
X997089Y400850D02*
G01*
X994790Y403150D01*
X991189Y404349D01*
X986490Y404349D01*
X982989Y403150D01*
X980590Y400850D01*
X980590Y398449D01*
X981790Y396050D01*
X982989Y394949D01*
X985290Y393750D01*
X992389Y391350D01*
X994790Y390149D01*
X995990Y388949D01*
X997089Y386649D01*
X997089Y383049D01*
X994790Y380749D01*
X991189Y379549D01*
X986490Y379549D01*
X982989Y380749D01*
X980590Y383049D01*
X1011989Y404349D02*
G01*
X1009690Y403150D01*
X1007290Y400850D01*
X1006090Y398449D01*
X1004889Y394949D01*
X1004889Y388949D01*
X1006090Y385450D01*
X1007290Y383049D01*
X1009690Y380749D01*
X1011989Y379549D01*
X1016790Y379549D01*
X1019089Y380749D01*
X1021490Y383049D01*
X1022690Y385450D01*
X1023789Y388949D01*
X1023789Y394949D01*
X1022690Y398449D01*
X1021490Y400850D01*
X1019089Y403150D01*
X1016790Y404349D01*
X1011989Y404349D01*
X872590Y400850D02*
G01*
X870290Y403150D01*
X866689Y404349D01*
X861989Y404349D01*
X858389Y403150D01*
X856090Y400850D01*
X856090Y398449D01*
X857290Y396050D01*
X858389Y394949D01*
X860789Y393750D01*
X867889Y391350D01*
X870290Y390149D01*
X871390Y388949D01*
X872590Y386649D01*
X872590Y383049D01*
X870290Y380749D01*
X866689Y379549D01*
X861989Y379549D01*
X858389Y380749D01*
X856090Y383049D01*
X898190Y398449D02*
G01*
X896989Y400850D01*
X894589Y403150D01*
X892190Y404349D01*
X887489Y404349D01*
X885190Y403150D01*
X882790Y400850D01*
X881589Y398449D01*
X880389Y394949D01*
X880389Y388949D01*
X881589Y385450D01*
X882790Y383049D01*
X885190Y380749D01*
X887489Y379549D01*
X892190Y379549D01*
X894589Y380749D01*
X896989Y383049D01*
X898190Y385450D01*
X905990Y404349D02*
G01*
X905990Y379549D01*
X922489Y404349D02*
G01*
X905990Y387849D01*
X911890Y393750D02*
G01*
X922489Y379549D01*
X736089Y404349D02*
G01*
X736089Y379549D01*
X736089Y404349D02*
G01*
X746689Y404349D01*
X750290Y403150D01*
X751390Y401950D01*
X752590Y399650D01*
X752590Y397249D01*
X751390Y394949D01*
X750290Y393750D01*
X746689Y392550D01*
X736089Y392550D01*
X744389Y392550D02*
G01*
X752590Y379549D01*
X760389Y404349D02*
G01*
X760389Y379549D01*
X760389Y404349D02*
G01*
X775789Y404349D01*
X760389Y392550D02*
G01*
X769889Y392550D01*
X760389Y379549D02*
G01*
X775789Y379549D01*
X800090Y400850D02*
G01*
X797790Y403150D01*
X794189Y404349D01*
X789489Y404349D01*
X785990Y403150D01*
X783590Y400850D01*
X783590Y398449D01*
X784790Y396050D01*
X785990Y394949D01*
X788289Y393750D01*
X795389Y391350D01*
X797790Y390149D01*
X798990Y388949D01*
X800090Y386649D01*
X800090Y383049D01*
X797790Y380749D01*
X794189Y379549D01*
X789489Y379549D01*
X785990Y380749D01*
X783590Y383049D01*
X807889Y404349D02*
G01*
X807889Y379549D01*
X807889Y404349D02*
G01*
X823289Y404349D01*
X807889Y392550D02*
G01*
X817389Y392550D01*
X807889Y379549D02*
G01*
X823289Y379549D01*
X839390Y404349D02*
G01*
X839390Y379549D01*
X831090Y404349D02*
G01*
X847590Y404349D01*
X768789Y298449D02*
G01*
X767590Y300850D01*
X765290Y303150D01*
X762889Y304349D01*
X758189Y304349D01*
X755790Y303150D01*
X753389Y300850D01*
X752289Y298449D01*
X751089Y294949D01*
X751089Y288949D01*
X752289Y285450D01*
X753389Y283049D01*
X755790Y280749D01*
X758189Y279549D01*
X762889Y279549D01*
X765290Y280749D01*
X767590Y283049D01*
X768789Y285450D01*
X768789Y288949D01*
X762889Y288949D02*
G01*
X768789Y288949D01*
X776589Y304349D02*
G01*
X776589Y279549D01*
X776589Y304349D02*
G01*
X793190Y279549D01*
X793190Y304349D02*
G01*
X793190Y279549D01*
X800990Y304349D02*
G01*
X800990Y279549D01*
X800990Y304349D02*
G01*
X809189Y304349D01*
X812790Y303150D01*
X815090Y300850D01*
X816289Y298449D01*
X817489Y294949D01*
X817489Y288949D01*
X816289Y285450D01*
X815090Y283049D01*
X812790Y280749D01*
X809189Y279549D01*
X800990Y279549D01*
X841090Y304349D02*
G01*
X841090Y279549D01*
X841090Y304349D02*
G01*
X850489Y279549D01*
X859989Y304349D02*
G01*
X850489Y279549D01*
X859989Y304349D02*
G01*
X859989Y279549D01*
X874889Y304349D02*
G01*
X872489Y303150D01*
X870190Y300850D01*
X868990Y298449D01*
X867790Y294949D01*
X867790Y288949D01*
X868990Y285450D01*
X870190Y283049D01*
X872489Y280749D01*
X874889Y279549D01*
X879589Y279549D01*
X881989Y280749D01*
X884290Y283049D01*
X885489Y285450D01*
X886689Y288949D01*
X886689Y294949D01*
X885489Y298449D01*
X884290Y300850D01*
X881989Y303150D01*
X879589Y304349D01*
X874889Y304349D01*
X910990Y300850D02*
G01*
X908689Y303150D01*
X905090Y304349D01*
X900389Y304349D01*
X896890Y303150D01*
X894489Y300850D01*
X894489Y298449D01*
X895690Y296050D01*
X896890Y294949D01*
X899189Y293750D01*
X906289Y291350D01*
X908689Y290149D01*
X909889Y288949D01*
X910990Y286649D01*
X910990Y283049D01*
X908689Y280749D01*
X905090Y279549D01*
X900389Y279549D01*
X896890Y280749D01*
X894489Y283049D01*
X918789Y304349D02*
G01*
X918789Y279549D01*
X980290Y304349D02*
G01*
X968389Y304349D01*
X967290Y293750D01*
X968389Y294949D01*
X971989Y296050D01*
X975489Y296050D01*
X979089Y294949D01*
X981390Y292550D01*
X982590Y288949D01*
X982590Y286649D01*
X981390Y283049D01*
X979089Y280749D01*
X975489Y279549D01*
X971989Y279549D01*
X968389Y280749D01*
X967290Y281950D01*
X966090Y284250D01*
X990389Y304349D02*
G01*
X999889Y279549D01*
X1009290Y304349D02*
G01*
X999889Y279549D01*
D18*
X1130000Y2175500D02*
G01*
X1130000Y2141399D01*
X1132299Y2134499D01*
X1136800Y2130000D01*
X1143599Y2127700D01*
X1148199Y2127700D01*
X1155000Y2130000D01*
X1159499Y2134499D01*
X1161800Y2141399D01*
X1161800Y2175500D01*
X1208599Y2168600D02*
G01*
X1204099Y2173200D01*
X1197299Y2175500D01*
X1188199Y2175500D01*
X1181400Y2173200D01*
X1176800Y2168600D01*
X1176800Y2164099D01*
X1179099Y2159499D01*
X1181400Y2157300D01*
X1185900Y2155000D01*
X1199499Y2150500D01*
X1204099Y2148200D01*
X1206400Y2145900D01*
X1208599Y2141399D01*
X1208599Y2134499D01*
X1204099Y2130000D01*
X1197299Y2127700D01*
X1188199Y2127700D01*
X1181400Y2130000D01*
X1176800Y2134499D01*
X1223599Y2175500D02*
G01*
X1223599Y2127700D01*
X1223599Y2175500D02*
G01*
X1244099Y2175500D01*
X1250900Y2173200D01*
X1253199Y2170900D01*
X1255500Y2166399D01*
X1255500Y2161799D01*
X1253199Y2157300D01*
X1250900Y2155000D01*
X1244099Y2152700D01*
X1223599Y2152700D02*
G01*
X1244099Y2152700D01*
X1250900Y2150500D01*
X1253199Y2148200D01*
X1255500Y2143600D01*
X1255500Y2136799D01*
X1253199Y2132300D01*
X1250900Y2130000D01*
X1244099Y2127700D01*
X1223599Y2127700D01*
D11*
X3520000Y1510399D02*
G01*
X3520000Y1467500D01*
X3520000Y1510399D02*
G01*
X3538400Y1510399D01*
X3544499Y1508400D01*
X3546599Y1506300D01*
X3548599Y1502199D01*
X3548599Y1498099D01*
X3546599Y1494000D01*
X3544499Y1491999D01*
X3538400Y1490000D01*
X3520000Y1490000D01*
X3534300Y1490000D02*
G01*
X3548599Y1467500D01*
X3564200Y1500199D02*
G01*
X3564200Y1502199D01*
X3566199Y1506300D01*
X3568299Y1508400D01*
X3572399Y1510399D01*
X3580500Y1510399D01*
X3584600Y1508400D01*
X3586700Y1506300D01*
X3588699Y1502199D01*
X3588699Y1498099D01*
X3586700Y1494000D01*
X3582600Y1487899D01*
X3562100Y1467500D01*
X3590799Y1467500D01*
X3616499Y1510399D02*
G01*
X3610399Y1508400D01*
X3606300Y1502199D01*
X3604300Y1491999D01*
X3604300Y1485900D01*
X3606300Y1475599D01*
X3610399Y1469499D01*
X3616499Y1467500D01*
X3620600Y1467500D01*
X3626800Y1469499D01*
X3630900Y1475599D01*
X3632899Y1485900D01*
X3632899Y1491999D01*
X3630900Y1502199D01*
X3626800Y1508400D01*
X3620600Y1510399D01*
X3616499Y1510399D01*
D10*
X3492651Y1424699D02*
G01*
X3512352Y1424699D01*
X3501552Y1410399D01*
X3506952Y1410399D01*
X3510551Y1408600D01*
X3512352Y1406799D01*
X3514152Y1401500D01*
X3514152Y1397899D01*
X3512352Y1392500D01*
X3508752Y1388899D01*
X3503352Y1387100D01*
X3497951Y1387100D01*
X3492651Y1388899D01*
X3490852Y1390700D01*
X3489052Y1394299D01*
X3529452Y1424699D02*
G01*
X3549152Y1424699D01*
X3538451Y1410399D01*
X3543851Y1410399D01*
X3547352Y1408600D01*
X3549152Y1406799D01*
X3550951Y1401500D01*
X3550951Y1397899D01*
X3549152Y1392500D01*
X3545551Y1388899D01*
X3540252Y1387100D01*
X3534852Y1387100D01*
X3529452Y1388899D01*
X3527752Y1390700D01*
X3525951Y1394299D01*
G36*
X565500Y1817500D02*
G01*
X565500Y1763500D01*
X568500Y1763500D01*
X568500Y1817500D01*
G37*
G36*
X568500Y1820500D02*
G01*
X568500Y1760500D01*
X571500Y1760500D01*
X571500Y1820500D01*
G37*
G36*
X571500Y1823500D02*
G01*
X571500Y1760500D01*
X574500Y1760500D01*
X574500Y1823500D01*
G37*
G36*
X574500Y1823500D02*
G01*
X574500Y1760500D01*
X577500Y1760500D01*
X577500Y1823500D01*
G37*
G36*
X577500Y1787500D02*
G01*
X577500Y1760500D01*
X580500Y1760500D01*
X580500Y1787500D01*
G37*
G36*
X580500Y1898500D02*
G01*
X580500Y1841500D01*
X583500Y1841500D01*
X583500Y1898500D01*
G37*
G36*
X580500Y1817500D02*
G01*
X580500Y1760500D01*
X583500Y1760500D01*
X583500Y1817500D01*
G37*
G36*
X580500Y1754500D02*
G01*
X580500Y1730500D01*
X583500Y1730500D01*
X583500Y1754500D01*
G37*
G36*
X580500Y1715500D02*
G01*
X580500Y1691500D01*
X583500Y1691500D01*
X583500Y1715500D01*
G37*
G36*
X583500Y2240500D02*
G01*
X583500Y2213500D01*
X586500Y2213500D01*
X586500Y2240500D01*
G37*
G36*
X583500Y2192500D02*
G01*
X583500Y2171500D01*
X586500Y2171500D01*
X586500Y2192500D01*
G37*
G36*
X583500Y2162500D02*
G01*
X583500Y2102500D01*
X586500Y2102500D01*
X586500Y2162500D01*
G37*
G36*
X583500Y2093500D02*
G01*
X583500Y2030500D01*
X586500Y2030500D01*
X586500Y2093500D01*
G37*
G36*
X583500Y2021500D02*
G01*
X583500Y1961500D01*
X586500Y1961500D01*
X586500Y2021500D01*
G37*
G36*
X583500Y1949500D02*
G01*
X583500Y1904500D01*
X586500Y1904500D01*
X586500Y1949500D01*
G37*
G36*
X583500Y1901500D02*
G01*
X583500Y1832500D01*
X586500Y1832500D01*
X586500Y1901500D01*
G37*
G36*
X583500Y1823500D02*
G01*
X583500Y1760500D01*
X586500Y1760500D01*
X586500Y1823500D01*
G37*
G36*
X583500Y1754500D02*
G01*
X583500Y1730500D01*
X586500Y1730500D01*
X586500Y1754500D01*
G37*
G36*
X583500Y1715500D02*
G01*
X583500Y1691500D01*
X586500Y1691500D01*
X586500Y1715500D01*
G37*
G36*
X586500Y2240500D02*
G01*
X586500Y2213500D01*
X589500Y2213500D01*
X589500Y2240500D01*
G37*
G36*
X586500Y2195500D02*
G01*
X586500Y2171500D01*
X589500Y2171500D01*
X589500Y2195500D01*
G37*
G36*
X586500Y2162500D02*
G01*
X586500Y2099500D01*
X589500Y2099500D01*
X589500Y2162500D01*
G37*
G36*
X586500Y2093500D02*
G01*
X586500Y2030500D01*
X589500Y2030500D01*
X589500Y2093500D01*
G37*
G36*
X586500Y2024500D02*
G01*
X586500Y1961500D01*
X589500Y1961500D01*
X589500Y2024500D01*
G37*
G36*
X586500Y1949500D02*
G01*
X586500Y1907500D01*
X589500Y1907500D01*
X589500Y1949500D01*
G37*
G36*
X586500Y1901500D02*
G01*
X586500Y1832500D01*
X589500Y1832500D01*
X589500Y1901500D01*
G37*
G36*
X586500Y1823500D02*
G01*
X586500Y1760500D01*
X589500Y1760500D01*
X589500Y1823500D01*
G37*
G36*
X586500Y1754500D02*
G01*
X586500Y1730500D01*
X589500Y1730500D01*
X589500Y1754500D01*
G37*
G36*
X586500Y1715500D02*
G01*
X586500Y1691500D01*
X589500Y1691500D01*
X589500Y1715500D01*
G37*
G36*
X589500Y2240500D02*
G01*
X589500Y2213500D01*
X592500Y2213500D01*
X592500Y2240500D01*
G37*
G36*
X589500Y2195500D02*
G01*
X589500Y2174500D01*
X592500Y2174500D01*
X592500Y2195500D01*
G37*
G36*
X589500Y2162500D02*
G01*
X589500Y2099500D01*
X592500Y2099500D01*
X592500Y2162500D01*
G37*
G36*
X589500Y2093500D02*
G01*
X589500Y2030500D01*
X592500Y2030500D01*
X592500Y2093500D01*
G37*
G36*
X589500Y2024500D02*
G01*
X589500Y1961500D01*
X592500Y1961500D01*
X592500Y2024500D01*
G37*
G36*
X589500Y1949500D02*
G01*
X589500Y1910500D01*
X592500Y1910500D01*
X592500Y1949500D01*
G37*
G36*
X589500Y1901500D02*
G01*
X589500Y1832500D01*
X592500Y1832500D01*
X592500Y1901500D01*
G37*
G36*
X589500Y1823500D02*
G01*
X589500Y1760500D01*
X592500Y1760500D01*
X592500Y1823500D01*
G37*
G36*
X589500Y1754500D02*
G01*
X589500Y1730500D01*
X592500Y1730500D01*
X592500Y1754500D01*
G37*
G36*
X589500Y1715500D02*
G01*
X589500Y1691500D01*
X592500Y1691500D01*
X592500Y1715500D01*
G37*
G36*
X592500Y2240500D02*
G01*
X592500Y2213500D01*
X595500Y2213500D01*
X595500Y2240500D01*
G37*
G36*
X592500Y2198500D02*
G01*
X592500Y2177500D01*
X595500Y2177500D01*
X595500Y2198500D01*
G37*
G36*
X592500Y2162500D02*
G01*
X592500Y2138500D01*
X595500Y2138500D01*
X595500Y2162500D01*
G37*
G36*
X592500Y2126500D02*
G01*
X592500Y2099500D01*
X595500Y2099500D01*
X595500Y2126500D01*
G37*
G36*
X592500Y2093500D02*
G01*
X592500Y2069500D01*
X595500Y2069500D01*
X595500Y2093500D01*
G37*
G36*
X592500Y2054500D02*
G01*
X592500Y2030500D01*
X595500Y2030500D01*
X595500Y2054500D01*
G37*
G36*
X592500Y2024500D02*
G01*
X592500Y1997500D01*
X595500Y1997500D01*
X595500Y2024500D01*
G37*
G36*
X592500Y1985500D02*
G01*
X592500Y1961500D01*
X595500Y1961500D01*
X595500Y1985500D01*
G37*
G36*
X592500Y1949500D02*
G01*
X592500Y1925500D01*
X595500Y1925500D01*
X595500Y1949500D01*
G37*
G36*
X592500Y1901500D02*
G01*
X592500Y1874500D01*
X595500Y1874500D01*
X595500Y1901500D01*
G37*
G36*
X592500Y1856500D02*
G01*
X592500Y1832500D01*
X595500Y1832500D01*
X595500Y1856500D01*
G37*
G36*
X592500Y1823500D02*
G01*
X592500Y1799500D01*
X595500Y1799500D01*
X595500Y1823500D01*
G37*
G36*
X592500Y1787500D02*
G01*
X592500Y1760500D01*
X595500Y1760500D01*
X595500Y1787500D01*
G37*
G36*
X592500Y1754500D02*
G01*
X592500Y1730500D01*
X595500Y1730500D01*
X595500Y1754500D01*
G37*
G36*
X592500Y1715500D02*
G01*
X592500Y1691500D01*
X595500Y1691500D01*
X595500Y1715500D01*
G37*
G36*
X595500Y2240500D02*
G01*
X595500Y2213500D01*
X598500Y2213500D01*
X598500Y2240500D01*
G37*
G36*
X595500Y2201500D02*
G01*
X595500Y2177500D01*
X598500Y2177500D01*
X598500Y2201500D01*
G37*
G36*
X595500Y2162500D02*
G01*
X595500Y2138500D01*
X598500Y2138500D01*
X598500Y2162500D01*
G37*
G36*
X595500Y2126500D02*
G01*
X595500Y2099500D01*
X598500Y2099500D01*
X598500Y2126500D01*
G37*
G36*
X595500Y2093500D02*
G01*
X595500Y2069500D01*
X598500Y2069500D01*
X598500Y2093500D01*
G37*
G36*
X595500Y2054500D02*
G01*
X595500Y2030500D01*
X598500Y2030500D01*
X598500Y2054500D01*
G37*
G36*
X595500Y2024500D02*
G01*
X595500Y1997500D01*
X598500Y1997500D01*
X598500Y2024500D01*
G37*
G36*
X595500Y1985500D02*
G01*
X595500Y1961500D01*
X598500Y1961500D01*
X598500Y1985500D01*
G37*
G36*
X595500Y1949500D02*
G01*
X595500Y1925500D01*
X598500Y1925500D01*
X598500Y1949500D01*
G37*
G36*
X595500Y1901500D02*
G01*
X595500Y1874500D01*
X598500Y1874500D01*
X598500Y1901500D01*
G37*
G36*
X595500Y1856500D02*
G01*
X595500Y1832500D01*
X598500Y1832500D01*
X598500Y1856500D01*
G37*
G36*
X595500Y1823500D02*
G01*
X595500Y1799500D01*
X598500Y1799500D01*
X598500Y1823500D01*
G37*
G36*
X595500Y1787500D02*
G01*
X595500Y1760500D01*
X598500Y1760500D01*
X598500Y1787500D01*
G37*
G36*
X595500Y1754500D02*
G01*
X595500Y1730500D01*
X598500Y1730500D01*
X598500Y1754500D01*
G37*
G36*
X595500Y1715500D02*
G01*
X595500Y1691500D01*
X598500Y1691500D01*
X598500Y1715500D01*
G37*
G36*
X598500Y2240500D02*
G01*
X598500Y2213500D01*
X601500Y2213500D01*
X601500Y2240500D01*
G37*
G36*
X598500Y2201500D02*
G01*
X598500Y2180500D01*
X601500Y2180500D01*
X601500Y2201500D01*
G37*
G36*
X598500Y2162500D02*
G01*
X598500Y2138500D01*
X601500Y2138500D01*
X601500Y2162500D01*
G37*
G36*
X598500Y2126500D02*
G01*
X598500Y2099500D01*
X601500Y2099500D01*
X601500Y2126500D01*
G37*
G36*
X598500Y2093500D02*
G01*
X598500Y2069500D01*
X601500Y2069500D01*
X601500Y2093500D01*
G37*
G36*
X598500Y2054500D02*
G01*
X598500Y2030500D01*
X601500Y2030500D01*
X601500Y2054500D01*
G37*
G36*
X598500Y2024500D02*
G01*
X598500Y1997500D01*
X601500Y1997500D01*
X601500Y2024500D01*
G37*
G36*
X598500Y1985500D02*
G01*
X598500Y1961500D01*
X601500Y1961500D01*
X601500Y1985500D01*
G37*
G36*
X598500Y1949500D02*
G01*
X598500Y1925500D01*
X601500Y1925500D01*
X601500Y1949500D01*
G37*
G36*
X598500Y1901500D02*
G01*
X598500Y1874500D01*
X601500Y1874500D01*
X601500Y1901500D01*
G37*
G36*
X598500Y1856500D02*
G01*
X598500Y1832500D01*
X601500Y1832500D01*
X601500Y1856500D01*
G37*
G36*
X598500Y1823500D02*
G01*
X598500Y1799500D01*
X601500Y1799500D01*
X601500Y1823500D01*
G37*
G36*
X598500Y1787500D02*
G01*
X598500Y1760500D01*
X601500Y1760500D01*
X601500Y1787500D01*
G37*
G36*
X598500Y1754500D02*
G01*
X598500Y1730500D01*
X601500Y1730500D01*
X601500Y1754500D01*
G37*
G36*
X598500Y1715500D02*
G01*
X598500Y1691500D01*
X601500Y1691500D01*
X601500Y1715500D01*
G37*
G36*
X601500Y2240500D02*
G01*
X601500Y2213500D01*
X604500Y2213500D01*
X604500Y2240500D01*
G37*
G36*
X601500Y2204500D02*
G01*
X601500Y2183500D01*
X604500Y2183500D01*
X604500Y2204500D01*
G37*
G36*
X601500Y2162500D02*
G01*
X601500Y2138500D01*
X604500Y2138500D01*
X604500Y2162500D01*
G37*
G36*
X601500Y2126500D02*
G01*
X601500Y2099500D01*
X604500Y2099500D01*
X604500Y2126500D01*
G37*
G36*
X601500Y2093500D02*
G01*
X601500Y2069500D01*
X604500Y2069500D01*
X604500Y2093500D01*
G37*
G36*
X601500Y2054500D02*
G01*
X601500Y2030500D01*
X604500Y2030500D01*
X604500Y2054500D01*
G37*
G36*
X601500Y2024500D02*
G01*
X601500Y1997500D01*
X604500Y1997500D01*
X604500Y2024500D01*
G37*
G36*
X601500Y1985500D02*
G01*
X601500Y1961500D01*
X604500Y1961500D01*
X604500Y1985500D01*
G37*
G36*
X601500Y1949500D02*
G01*
X601500Y1925500D01*
X604500Y1925500D01*
X604500Y1949500D01*
G37*
G36*
X601500Y1901500D02*
G01*
X601500Y1874500D01*
X604500Y1874500D01*
X604500Y1901500D01*
G37*
G36*
X601500Y1856500D02*
G01*
X601500Y1832500D01*
X604500Y1832500D01*
X604500Y1856500D01*
G37*
G36*
X601500Y1823500D02*
G01*
X601500Y1799500D01*
X604500Y1799500D01*
X604500Y1823500D01*
G37*
G36*
X601500Y1787500D02*
G01*
X601500Y1760500D01*
X604500Y1760500D01*
X604500Y1787500D01*
G37*
G36*
X601500Y1754500D02*
G01*
X601500Y1730500D01*
X604500Y1730500D01*
X604500Y1754500D01*
G37*
G36*
X601500Y1715500D02*
G01*
X601500Y1691500D01*
X604500Y1691500D01*
X604500Y1715500D01*
G37*
G36*
X604500Y2240500D02*
G01*
X604500Y2213500D01*
X607500Y2213500D01*
X607500Y2240500D01*
G37*
G36*
X604500Y2207500D02*
G01*
X604500Y2174500D01*
X607500Y2174500D01*
X607500Y2207500D01*
G37*
G36*
X604500Y2162500D02*
G01*
X604500Y2138500D01*
X607500Y2138500D01*
X607500Y2162500D01*
G37*
G36*
X604500Y2126500D02*
G01*
X604500Y2099500D01*
X607500Y2099500D01*
X607500Y2126500D01*
G37*
G36*
X604500Y2093500D02*
G01*
X604500Y2069500D01*
X607500Y2069500D01*
X607500Y2093500D01*
G37*
G36*
X604500Y2054500D02*
G01*
X604500Y2030500D01*
X607500Y2030500D01*
X607500Y2054500D01*
G37*
G36*
X604500Y2024500D02*
G01*
X604500Y1997500D01*
X607500Y1997500D01*
X607500Y2024500D01*
G37*
G36*
X604500Y1985500D02*
G01*
X604500Y1961500D01*
X607500Y1961500D01*
X607500Y1985500D01*
G37*
G36*
X604500Y1949500D02*
G01*
X604500Y1925500D01*
X607500Y1925500D01*
X607500Y1949500D01*
G37*
G36*
X604500Y1901500D02*
G01*
X604500Y1874500D01*
X607500Y1874500D01*
X607500Y1901500D01*
G37*
G36*
X604500Y1856500D02*
G01*
X604500Y1832500D01*
X607500Y1832500D01*
X607500Y1856500D01*
G37*
G36*
X604500Y1823500D02*
G01*
X604500Y1799500D01*
X607500Y1799500D01*
X607500Y1823500D01*
G37*
G36*
X604500Y1787500D02*
G01*
X604500Y1760500D01*
X607500Y1760500D01*
X607500Y1787500D01*
G37*
G36*
X604500Y1754500D02*
G01*
X604500Y1730500D01*
X607500Y1730500D01*
X607500Y1754500D01*
G37*
G36*
X604500Y1715500D02*
G01*
X604500Y1691500D01*
X607500Y1691500D01*
X607500Y1715500D01*
G37*
G36*
X607500Y2240500D02*
G01*
X607500Y2213500D01*
X610500Y2213500D01*
X610500Y2240500D01*
G37*
G36*
X607500Y2207500D02*
G01*
X607500Y2171500D01*
X610500Y2171500D01*
X610500Y2207500D01*
G37*
G36*
X607500Y2162500D02*
G01*
X607500Y2138500D01*
X610500Y2138500D01*
X610500Y2162500D01*
G37*
G36*
X607500Y2126500D02*
G01*
X607500Y2099500D01*
X610500Y2099500D01*
X610500Y2126500D01*
G37*
G36*
X607500Y2093500D02*
G01*
X607500Y2069500D01*
X610500Y2069500D01*
X610500Y2093500D01*
G37*
G36*
X607500Y2054500D02*
G01*
X607500Y2030500D01*
X610500Y2030500D01*
X610500Y2054500D01*
G37*
G36*
X607500Y2024500D02*
G01*
X607500Y1997500D01*
X610500Y1997500D01*
X610500Y2024500D01*
G37*
G36*
X607500Y1985500D02*
G01*
X607500Y1961500D01*
X610500Y1961500D01*
X610500Y1985500D01*
G37*
G36*
X607500Y1949500D02*
G01*
X607500Y1925500D01*
X610500Y1925500D01*
X610500Y1949500D01*
G37*
G36*
X607500Y1901500D02*
G01*
X607500Y1874500D01*
X610500Y1874500D01*
X610500Y1901500D01*
G37*
G36*
X607500Y1856500D02*
G01*
X607500Y1832500D01*
X610500Y1832500D01*
X610500Y1856500D01*
G37*
G36*
X607500Y1823500D02*
G01*
X607500Y1799500D01*
X610500Y1799500D01*
X610500Y1823500D01*
G37*
G36*
X607500Y1787500D02*
G01*
X607500Y1760500D01*
X610500Y1760500D01*
X610500Y1787500D01*
G37*
G36*
X607500Y1754500D02*
G01*
X607500Y1730500D01*
X610500Y1730500D01*
X610500Y1754500D01*
G37*
G36*
X607500Y1715500D02*
G01*
X607500Y1691500D01*
X610500Y1691500D01*
X610500Y1715500D01*
G37*
G36*
X610500Y2240500D02*
G01*
X610500Y2213500D01*
X613500Y2213500D01*
X613500Y2240500D01*
G37*
G36*
X610500Y2210500D02*
G01*
X610500Y2171500D01*
X613500Y2171500D01*
X613500Y2210500D01*
G37*
G36*
X610500Y2162500D02*
G01*
X610500Y2099500D01*
X613500Y2099500D01*
X613500Y2162500D01*
G37*
G36*
X610500Y2093500D02*
G01*
X610500Y2030500D01*
X613500Y2030500D01*
X613500Y2093500D01*
G37*
G36*
X610500Y2024500D02*
G01*
X610500Y1961500D01*
X613500Y1961500D01*
X613500Y2024500D01*
G37*
G36*
X610500Y1949500D02*
G01*
X610500Y1925500D01*
X613500Y1925500D01*
X613500Y1949500D01*
G37*
G36*
X610500Y1901500D02*
G01*
X610500Y1874500D01*
X613500Y1874500D01*
X613500Y1901500D01*
G37*
G36*
X610500Y1856500D02*
G01*
X610500Y1832500D01*
X613500Y1832500D01*
X613500Y1856500D01*
G37*
G36*
X610500Y1823500D02*
G01*
X610500Y1799500D01*
X613500Y1799500D01*
X613500Y1823500D01*
G37*
G36*
X610500Y1787500D02*
G01*
X610500Y1760500D01*
X613500Y1760500D01*
X613500Y1787500D01*
G37*
G36*
X610500Y1754500D02*
G01*
X610500Y1691500D01*
X613500Y1691500D01*
X613500Y1754500D01*
G37*
G36*
X613500Y2240500D02*
G01*
X613500Y2213500D01*
X616500Y2213500D01*
X616500Y2240500D01*
G37*
G36*
X613500Y2195500D02*
G01*
X613500Y2171500D01*
X616500Y2171500D01*
X616500Y2195500D01*
G37*
G36*
X613500Y2162500D02*
G01*
X613500Y2099500D01*
X616500Y2099500D01*
X616500Y2162500D01*
G37*
G36*
X613500Y2093500D02*
G01*
X613500Y2030500D01*
X616500Y2030500D01*
X616500Y2093500D01*
G37*
G36*
X613500Y2024500D02*
G01*
X613500Y1961500D01*
X616500Y1961500D01*
X616500Y2024500D01*
G37*
G36*
X613500Y1955500D02*
G01*
X613500Y1910500D01*
X616500Y1910500D01*
X616500Y1955500D01*
G37*
G36*
X613500Y1901500D02*
G01*
X613500Y1874500D01*
X616500Y1874500D01*
X616500Y1901500D01*
G37*
G36*
X613500Y1856500D02*
G01*
X613500Y1832500D01*
X616500Y1832500D01*
X616500Y1856500D01*
G37*
G36*
X613500Y1823500D02*
G01*
X613500Y1799500D01*
X616500Y1799500D01*
X616500Y1823500D01*
G37*
G36*
X613500Y1787500D02*
G01*
X613500Y1760500D01*
X616500Y1760500D01*
X616500Y1787500D01*
G37*
G36*
X613500Y1754500D02*
G01*
X613500Y1691500D01*
X616500Y1691500D01*
X616500Y1754500D01*
G37*
G36*
X613500Y1673500D02*
G01*
X613500Y1655500D01*
X616500Y1655500D01*
X616500Y1673500D01*
G37*
G36*
X616500Y2240500D02*
G01*
X616500Y2213500D01*
X619500Y2213500D01*
X619500Y2240500D01*
G37*
G36*
X616500Y2195500D02*
G01*
X616500Y2171500D01*
X619500Y2171500D01*
X619500Y2195500D01*
G37*
G36*
X616500Y2162500D02*
G01*
X616500Y2099500D01*
X619500Y2099500D01*
X619500Y2162500D01*
G37*
G36*
X616500Y2093500D02*
G01*
X616500Y2030500D01*
X619500Y2030500D01*
X619500Y2093500D01*
G37*
G36*
X616500Y2024500D02*
G01*
X616500Y1961500D01*
X619500Y1961500D01*
X619500Y2024500D01*
G37*
G36*
X616500Y1955500D02*
G01*
X616500Y1910500D01*
X619500Y1910500D01*
X619500Y1955500D01*
G37*
G36*
X616500Y1901500D02*
G01*
X616500Y1874500D01*
X619500Y1874500D01*
X619500Y1901500D01*
G37*
G36*
X616500Y1856500D02*
G01*
X616500Y1832500D01*
X619500Y1832500D01*
X619500Y1856500D01*
G37*
G36*
X616500Y1823500D02*
G01*
X616500Y1799500D01*
X619500Y1799500D01*
X619500Y1823500D01*
G37*
G36*
X616500Y1787500D02*
G01*
X616500Y1760500D01*
X619500Y1760500D01*
X619500Y1787500D01*
G37*
G36*
X616500Y1754500D02*
G01*
X616500Y1691500D01*
X619500Y1691500D01*
X619500Y1754500D01*
G37*
G36*
X616500Y1676500D02*
G01*
X616500Y1670500D01*
X619500Y1670500D01*
X619500Y1676500D01*
G37*
G36*
X616500Y1658500D02*
G01*
X616500Y1652500D01*
X619500Y1652500D01*
X619500Y1658500D01*
G37*
G36*
X619500Y2240500D02*
G01*
X619500Y2213500D01*
X622500Y2213500D01*
X622500Y2240500D01*
G37*
G36*
X619500Y2195500D02*
G01*
X619500Y2171500D01*
X622500Y2171500D01*
X622500Y2195500D01*
G37*
G36*
X619500Y2162500D02*
G01*
X619500Y2102500D01*
X622500Y2102500D01*
X622500Y2162500D01*
G37*
G36*
X619500Y2093500D02*
G01*
X619500Y2033500D01*
X622500Y2033500D01*
X622500Y2093500D01*
G37*
G36*
X619500Y2021500D02*
G01*
X619500Y1961500D01*
X622500Y1961500D01*
X622500Y2021500D01*
G37*
G36*
X619500Y1955500D02*
G01*
X619500Y1910500D01*
X622500Y1910500D01*
X622500Y1955500D01*
G37*
G36*
X619500Y1901500D02*
G01*
X619500Y1874500D01*
X622500Y1874500D01*
X622500Y1901500D01*
G37*
G36*
X619500Y1856500D02*
G01*
X619500Y1832500D01*
X622500Y1832500D01*
X622500Y1856500D01*
G37*
G36*
X619500Y1823500D02*
G01*
X619500Y1799500D01*
X622500Y1799500D01*
X622500Y1823500D01*
G37*
G36*
X619500Y1787500D02*
G01*
X619500Y1760500D01*
X622500Y1760500D01*
X622500Y1787500D01*
G37*
G36*
X619500Y1754500D02*
G01*
X619500Y1694500D01*
X622500Y1694500D01*
X622500Y1754500D01*
G37*
G36*
X619500Y1679500D02*
G01*
X619500Y1673500D01*
X622500Y1673500D01*
X622500Y1679500D01*
G37*
G36*
X619500Y1670500D02*
G01*
X619500Y1667500D01*
X622500Y1667500D01*
X622500Y1670500D01*
G37*
G36*
X619500Y1661500D02*
G01*
X619500Y1658500D01*
X622500Y1658500D01*
X622500Y1661500D01*
G37*
G36*
X619500Y1655500D02*
G01*
X619500Y1649500D01*
X622500Y1649500D01*
X622500Y1655500D01*
G37*
G36*
X622500Y2240500D02*
G01*
X622500Y2213500D01*
X625500Y2213500D01*
X625500Y2240500D01*
G37*
G36*
X622500Y2195500D02*
G01*
X622500Y2171500D01*
X625500Y2171500D01*
X625500Y2195500D01*
G37*
G36*
X622500Y2093500D02*
G01*
X622500Y2069500D01*
X625500Y2069500D01*
X625500Y2093500D01*
G37*
G36*
X622500Y1949500D02*
G01*
X622500Y1925500D01*
X625500Y1925500D01*
X625500Y1949500D01*
G37*
G36*
X622500Y1901500D02*
G01*
X622500Y1874500D01*
X625500Y1874500D01*
X625500Y1901500D01*
G37*
G36*
X622500Y1856500D02*
G01*
X622500Y1832500D01*
X625500Y1832500D01*
X625500Y1856500D01*
G37*
G36*
X622500Y1679500D02*
G01*
X622500Y1676500D01*
X625500Y1676500D01*
X625500Y1679500D01*
G37*
G36*
X622500Y1670500D02*
G01*
X622500Y1667500D01*
X625500Y1667500D01*
X625500Y1670500D01*
G37*
G36*
X622500Y1664500D02*
G01*
X622500Y1658500D01*
X625500Y1658500D01*
X625500Y1664500D01*
G37*
G36*
X622500Y1655500D02*
G01*
X622500Y1649500D01*
X625500Y1649500D01*
X625500Y1655500D01*
G37*
G36*
X625500Y2240500D02*
G01*
X625500Y2171500D01*
X628500Y2171500D01*
X628500Y2240500D01*
G37*
G36*
X625500Y2093500D02*
G01*
X625500Y2069500D01*
X628500Y2069500D01*
X628500Y2093500D01*
G37*
G36*
X625500Y1949500D02*
G01*
X625500Y1925500D01*
X628500Y1925500D01*
X628500Y1949500D01*
G37*
G36*
X625500Y1901500D02*
G01*
X625500Y1832500D01*
X628500Y1832500D01*
X628500Y1901500D01*
G37*
G36*
X625500Y1679500D02*
G01*
X625500Y1676500D01*
X628500Y1676500D01*
X628500Y1679500D01*
G37*
G36*
X625500Y1670500D02*
G01*
X625500Y1661500D01*
X628500Y1661500D01*
X628500Y1670500D01*
G37*
G36*
X625500Y1652500D02*
G01*
X625500Y1649500D01*
X628500Y1649500D01*
X628500Y1652500D01*
G37*
G36*
X628500Y2240500D02*
G01*
X628500Y2171500D01*
X631500Y2171500D01*
X631500Y2240500D01*
G37*
G36*
X628500Y2093500D02*
G01*
X628500Y2069500D01*
X631500Y2069500D01*
X631500Y2093500D01*
G37*
G36*
X628500Y1949500D02*
G01*
X628500Y1925500D01*
X631500Y1925500D01*
X631500Y1949500D01*
G37*
G36*
X628500Y1901500D02*
G01*
X628500Y1832500D01*
X631500Y1832500D01*
X631500Y1901500D01*
G37*
G36*
X628500Y1679500D02*
G01*
X628500Y1676500D01*
X631500Y1676500D01*
X631500Y1679500D01*
G37*
G36*
X628500Y1670500D02*
G01*
X628500Y1667500D01*
X631500Y1667500D01*
X631500Y1670500D01*
G37*
G36*
X628500Y1661500D02*
G01*
X628500Y1658500D01*
X631500Y1658500D01*
X631500Y1661500D01*
G37*
G36*
X628500Y1652500D02*
G01*
X628500Y1649500D01*
X631500Y1649500D01*
X631500Y1652500D01*
G37*
G36*
X631500Y2240500D02*
G01*
X631500Y2171500D01*
X634500Y2171500D01*
X634500Y2240500D01*
G37*
G36*
X631500Y2093500D02*
G01*
X631500Y2069500D01*
X634500Y2069500D01*
X634500Y2093500D01*
G37*
G36*
X631500Y1949500D02*
G01*
X631500Y1925500D01*
X634500Y1925500D01*
X634500Y1949500D01*
G37*
G36*
X631500Y1901500D02*
G01*
X631500Y1832500D01*
X634500Y1832500D01*
X634500Y1901500D01*
G37*
G36*
X631500Y1679500D02*
G01*
X631500Y1673500D01*
X634500Y1673500D01*
X634500Y1679500D01*
G37*
G36*
X631500Y1670500D02*
G01*
X631500Y1658500D01*
X634500Y1658500D01*
X634500Y1670500D01*
G37*
G36*
X631500Y1655500D02*
G01*
X631500Y1649500D01*
X634500Y1649500D01*
X634500Y1655500D01*
G37*
G36*
X634500Y2240500D02*
G01*
X634500Y2174500D01*
X637500Y2174500D01*
X637500Y2240500D01*
G37*
G36*
X634500Y2093500D02*
G01*
X634500Y2069500D01*
X637500Y2069500D01*
X637500Y2093500D01*
G37*
G36*
X634500Y1949500D02*
G01*
X634500Y1925500D01*
X637500Y1925500D01*
X637500Y1949500D01*
G37*
G36*
X634500Y1901500D02*
G01*
X634500Y1835500D01*
X637500Y1835500D01*
X637500Y1901500D01*
G37*
G36*
X634500Y1676500D02*
G01*
X634500Y1670500D01*
X637500Y1670500D01*
X637500Y1676500D01*
G37*
G36*
X634500Y1658500D02*
G01*
X634500Y1652500D01*
X637500Y1652500D01*
X637500Y1658500D01*
G37*
G36*
X637500Y1673500D02*
G01*
X637500Y1655500D01*
X640500Y1655500D01*
X640500Y1673500D01*
G37*
D19*
X2860147Y1795000D02*
G01*
X2860000Y1730000D01*
X2859852Y2015000D02*
G01*
X2860000Y2080000D01*
X2890000Y2015000D02*
G01*
X2830000Y2015000D01*
X2815000Y2000000D01*
X2815000Y1980000D01*
X2825000Y1970000D01*
X2825000Y1840000D01*
X2815000Y1830000D01*
X2815000Y1810000D01*
X2830000Y1795000D01*
X2890000Y1795000D01*
X2830000Y2015000D02*
G01*
X2890000Y2015000D01*
X2905000Y2000000D01*
X2905000Y1980000D01*
X2895000Y1970000D01*
X2895000Y1840000D01*
X2895299Y1839699D01*
X2905000Y1830000D01*
X2905000Y1810000D01*
X2890000Y1795000D01*
X2830000Y1795000D01*
X4170788Y660000D02*
G01*
X4269211Y660000D01*
X4269211Y550158D02*
G01*
X4269211Y1169841D01*
X4170788Y550158D02*
G01*
X4269211Y550158D01*
X4170788Y1169841D02*
G01*
X4170788Y550158D01*
X4269211Y1169841D02*
G01*
X4170788Y1169841D01*
X3171087Y785551D02*
G01*
X2777388Y785551D01*
X3171087Y557204D02*
G01*
X2777388Y557204D01*
X2777388Y557204D02*
G01*
X2777388Y785551D01*
X3171087Y557204D02*
G01*
X3171087Y785551D01*
X3154233Y575000D02*
G01*
X2794233Y575000D01*
X2794233Y765000D01*
X3154233Y765000D01*
X3154233Y575000D01*
X3104233Y765000D02*
G01*
X3044233Y765000D01*
X3044233Y785000D01*
X3104233Y785000D01*
X3104233Y765000D01*
X2904233Y765000D02*
G01*
X2844233Y765000D01*
X2844233Y785000D01*
X2904233Y785000D01*
X2904233Y765000D01*
X3169233Y720000D02*
G01*
X3154233Y720000D01*
X3154233Y765000D01*
X3169233Y765000D01*
X3169233Y720000D01*
X2794233Y720000D02*
G01*
X2779233Y720000D01*
X2779233Y765000D01*
X2794233Y765000D01*
X2794233Y720000D01*
D12*
X3874799Y1540000D02*
G01*
X3929920Y1540000D01*
X3929920Y1258110D01*
X3874799Y1258110D01*
X3874799Y1540000D01*
X3850000Y2141100D02*
G01*
X4264960Y2141100D01*
X4264960Y1541100D01*
X3850000Y1541100D01*
X3850000Y2141100D01*
X4029920Y1540390D02*
G01*
X4085039Y1540390D01*
X4085039Y1258499D01*
X4029920Y1258499D01*
X4029920Y1540390D01*
X4185039Y1540000D02*
G01*
X4240159Y1540000D01*
X4240159Y1258110D01*
X4185039Y1258110D01*
X4185039Y1540000D01*
X3850000Y2140000D02*
G01*
X4264960Y2140000D01*
X4264960Y1885279D01*
X3850000Y1885279D01*
X3850000Y2140000D01*
D19*
X3564825Y2110021D02*
G01*
X3785000Y2110021D01*
X3629996Y1255147D02*
G01*
X3694996Y1255000D01*
X3409996Y1254852D02*
G01*
X3344996Y1255000D01*
X3409996Y1285000D02*
G01*
X3409996Y1225000D01*
X3424996Y1210000D01*
X3444996Y1210000D01*
X3454996Y1220000D01*
X3584996Y1220000D01*
X3594996Y1210000D01*
X3614996Y1210000D01*
X3629996Y1225000D01*
X3629996Y1285000D01*
X3409996Y1225000D02*
G01*
X3409996Y1285000D01*
X3424996Y1300000D01*
X3444996Y1300000D01*
X3454996Y1290000D01*
X3584996Y1290000D01*
X3585295Y1290300D01*
X3594996Y1300000D01*
X3614996Y1300000D01*
X3629996Y1285000D01*
X3629996Y1225000D01*
X3084237Y1250147D02*
G01*
X3149237Y1250000D01*
X2864237Y1249852D02*
G01*
X2799237Y1250000D01*
X2864237Y1280000D02*
G01*
X2864237Y1220000D01*
X2879237Y1205000D01*
X2899237Y1205000D01*
X2909237Y1215000D01*
X3039237Y1215000D01*
X3049237Y1205000D01*
X3069237Y1205000D01*
X3084237Y1220000D01*
X3084237Y1280000D01*
X2864237Y1220000D02*
G01*
X2864237Y1280000D01*
X2879237Y1295000D01*
X2899237Y1295000D01*
X2909237Y1285000D01*
X3039237Y1285000D01*
X3039537Y1285300D01*
X3049237Y1295000D01*
X3069237Y1295000D01*
X3084237Y1280000D01*
X3084237Y1220000D01*
X1960200Y428841D02*
G01*
X1960200Y403841D01*
X2080200Y403841D01*
X2080200Y432343D01*
X1872561Y204000D02*
G01*
X2167838Y204000D01*
X1872561Y204000D02*
G01*
X1872561Y432343D01*
X2167838Y432343D01*
X2167838Y204000D01*
X1997037Y432341D02*
G01*
X1987637Y432341D01*
X1932500Y1339852D02*
G01*
X1867500Y1340000D01*
X2152500Y1340147D02*
G01*
X2217500Y1340000D01*
X2152500Y1310000D02*
G01*
X2152500Y1370000D01*
X2137500Y1385000D01*
X2117500Y1385000D01*
X2107500Y1375000D01*
X1977500Y1375000D01*
X1967500Y1385000D01*
X1947500Y1385000D01*
X1932500Y1370000D01*
X1932500Y1310000D01*
X2152500Y1370000D02*
G01*
X2152500Y1310000D01*
X2137500Y1295000D01*
X2117500Y1295000D01*
X2107500Y1305000D01*
X1977500Y1305000D01*
X1977200Y1304699D01*
X1967500Y1295000D01*
X1947500Y1295000D01*
X1932500Y1310000D01*
X1932500Y1370000D01*
X1932500Y1229852D02*
G01*
X1867500Y1230000D01*
X2152500Y1230147D02*
G01*
X2217500Y1230000D01*
X2152500Y1200000D02*
G01*
X2152500Y1260000D01*
X2137500Y1275000D01*
X2117500Y1275000D01*
X2107500Y1265000D01*
X1977500Y1265000D01*
X1967500Y1275000D01*
X1947500Y1275000D01*
X1932500Y1260000D01*
X1932500Y1200000D01*
X2152500Y1260000D02*
G01*
X2152500Y1200000D01*
X2137500Y1185000D01*
X2117500Y1185000D01*
X2107500Y1195000D01*
X1977500Y1195000D01*
X1977200Y1194699D01*
X1967500Y1185000D01*
X1947500Y1185000D01*
X1932500Y1200000D01*
X1932500Y1260000D01*
X1932500Y1109852D02*
G01*
X1867500Y1110000D01*
X2152500Y1110147D02*
G01*
X2217500Y1110000D01*
X2152500Y1080000D02*
G01*
X2152500Y1140000D01*
X2137500Y1155000D01*
X2117500Y1155000D01*
X2107500Y1145000D01*
X1977500Y1145000D01*
X1967500Y1155000D01*
X1947500Y1155000D01*
X1932500Y1140000D01*
X1932500Y1080000D01*
X2152500Y1140000D02*
G01*
X2152500Y1080000D01*
X2137500Y1065000D01*
X2117500Y1065000D01*
X2107500Y1075000D01*
X1977500Y1075000D01*
X1977200Y1074699D01*
X1967500Y1065000D01*
X1947500Y1065000D01*
X1932500Y1080000D01*
X1932500Y1140000D01*
X1932500Y989852D02*
G01*
X1867500Y990000D01*
X2152500Y990147D02*
G01*
X2217500Y990000D01*
X2152500Y960000D02*
G01*
X2152500Y1020000D01*
X2137500Y1035000D01*
X2117500Y1035000D01*
X2107500Y1025000D01*
X1977500Y1025000D01*
X1967500Y1035000D01*
X1947500Y1035000D01*
X1932500Y1020000D01*
X1932500Y960000D01*
X2152500Y1020000D02*
G01*
X2152500Y960000D01*
X2137500Y945000D01*
X2117500Y945000D01*
X2107500Y955000D01*
X1977500Y955000D01*
X1977200Y954699D01*
X1967500Y945000D01*
X1947500Y945000D01*
X1932500Y960000D01*
X1932500Y1020000D01*
X1932500Y869852D02*
G01*
X1867500Y870000D01*
X2152500Y870147D02*
G01*
X2217500Y870000D01*
X2152500Y840000D02*
G01*
X2152500Y900000D01*
X2137500Y915000D01*
X2117500Y915000D01*
X2107500Y905000D01*
X1977500Y905000D01*
X1967500Y915000D01*
X1947500Y915000D01*
X1932500Y900000D01*
X1932500Y840000D01*
X2152500Y900000D02*
G01*
X2152500Y840000D01*
X2137500Y825000D01*
X2117500Y825000D01*
X2107500Y835000D01*
X1977500Y835000D01*
X1977200Y834699D01*
X1967500Y825000D01*
X1947500Y825000D01*
X1932500Y840000D01*
X1932500Y900000D01*
X1932500Y739852D02*
G01*
X1867500Y740000D01*
X2152500Y740147D02*
G01*
X2217500Y740000D01*
X2152500Y710000D02*
G01*
X2152500Y770000D01*
X2137500Y785000D01*
X2117500Y785000D01*
X2107500Y775000D01*
X1977500Y775000D01*
X1967500Y785000D01*
X1947500Y785000D01*
X1932500Y770000D01*
X1932500Y710000D01*
X2152500Y770000D02*
G01*
X2152500Y710000D01*
X2137500Y695000D01*
X2117500Y695000D01*
X2107500Y705000D01*
X1977500Y705000D01*
X1977200Y704699D01*
X1967500Y695000D01*
X1947500Y695000D01*
X1932500Y710000D01*
X1932500Y770000D01*
X1932500Y614852D02*
G01*
X1867500Y615000D01*
X2152500Y615147D02*
G01*
X2217500Y615000D01*
X2152500Y585000D02*
G01*
X2152500Y645000D01*
X2137500Y660000D01*
X2117500Y660000D01*
X2107500Y650000D01*
X1977500Y650000D01*
X1967500Y660000D01*
X1947500Y660000D01*
X1932500Y645000D01*
X1932500Y585000D01*
X2152500Y645000D02*
G01*
X2152500Y585000D01*
X2137500Y570000D01*
X2117500Y570000D01*
X2107500Y580000D01*
X1977500Y580000D01*
X1977200Y579699D01*
X1967500Y570000D01*
X1947500Y570000D01*
X1932500Y585000D01*
X1932500Y645000D01*
X2339852Y2015000D02*
G01*
X2340000Y2080000D01*
X2340147Y1795000D02*
G01*
X2340000Y1730000D01*
X2310000Y1795000D02*
G01*
X2370000Y1795000D01*
X2385000Y1810000D01*
X2385000Y1830000D01*
X2375000Y1840000D01*
X2375000Y1970000D01*
X2385000Y1980000D01*
X2385000Y2000000D01*
X2370000Y2015000D01*
X2310000Y2015000D01*
X2370000Y1795000D02*
G01*
X2310000Y1795000D01*
X2295000Y1810000D01*
X2295000Y1830000D01*
X2305000Y1840000D01*
X2305000Y1970000D01*
X2304700Y1970300D01*
X2295000Y1980000D01*
X2295000Y2000000D01*
X2310000Y2015000D01*
X2370000Y2015000D01*
X3171086Y1165551D02*
G01*
X2777386Y1165551D01*
X3171086Y937204D02*
G01*
X2777386Y937204D01*
X2777386Y937204D02*
G01*
X2777386Y1165551D01*
X3171086Y937204D02*
G01*
X3171086Y1165551D01*
X3154232Y955000D02*
G01*
X2794232Y955000D01*
X2794232Y1145000D01*
X3154232Y1145000D01*
X3154232Y955000D01*
X3104232Y1145000D02*
G01*
X3044232Y1145000D01*
X3044232Y1165000D01*
X3104232Y1165000D01*
X3104232Y1145000D01*
X2904232Y1145000D02*
G01*
X2844232Y1145000D01*
X2844232Y1165000D01*
X2904232Y1165000D01*
X2904232Y1145000D01*
X3169232Y1100000D02*
G01*
X3154232Y1100000D01*
X3154232Y1145000D01*
X3169232Y1145000D01*
X3169232Y1100000D01*
X2794232Y1100000D02*
G01*
X2779232Y1100000D01*
X2779232Y1145000D01*
X2794232Y1145000D01*
X2794232Y1100000D01*
X3716850Y785551D02*
G01*
X3323149Y785551D01*
X3716850Y557204D02*
G01*
X3323149Y557204D01*
X3323149Y557204D02*
G01*
X3323149Y785551D01*
X3716850Y557204D02*
G01*
X3716850Y785551D01*
X3699994Y575000D02*
G01*
X3339994Y575000D01*
X3339994Y765000D01*
X3699994Y765000D01*
X3699994Y575000D01*
X3649994Y765000D02*
G01*
X3589994Y765000D01*
X3589994Y785000D01*
X3649994Y785000D01*
X3649994Y765000D01*
X3449994Y765000D02*
G01*
X3389994Y765000D01*
X3389994Y785000D01*
X3449994Y785000D01*
X3449994Y765000D01*
X3714994Y720000D02*
G01*
X3699994Y720000D01*
X3699994Y765000D01*
X3714994Y765000D01*
X3714994Y720000D01*
X3339994Y720000D02*
G01*
X3324994Y720000D01*
X3324994Y765000D01*
X3339994Y765000D01*
X3339994Y720000D01*
X3716850Y1165551D02*
G01*
X3323149Y1165551D01*
X3716850Y937204D02*
G01*
X3323149Y937204D01*
X3323149Y937204D02*
G01*
X3323149Y1165551D01*
X3716850Y937204D02*
G01*
X3716850Y1165551D01*
X3699994Y955000D02*
G01*
X3339994Y955000D01*
X3339994Y1145000D01*
X3699994Y1145000D01*
X3699994Y955000D01*
X3649994Y1145000D02*
G01*
X3589994Y1145000D01*
X3589994Y1165000D01*
X3649994Y1165000D01*
X3649994Y1145000D01*
X3449994Y1145000D02*
G01*
X3389994Y1145000D01*
X3389994Y1165000D01*
X3449994Y1165000D01*
X3449994Y1145000D01*
X3714994Y1100000D02*
G01*
X3699994Y1100000D01*
X3699994Y1145000D01*
X3714994Y1145000D01*
X3714994Y1100000D01*
X3339994Y1100000D02*
G01*
X3324994Y1100000D01*
X3324994Y1145000D01*
X3339994Y1145000D01*
X3339994Y1100000D01*
X3675147Y1640000D02*
G01*
X3675000Y1575000D01*
X3674852Y1860000D02*
G01*
X3675000Y1925000D01*
X3705000Y1860000D02*
G01*
X3645000Y1860000D01*
X3630000Y1845000D01*
X3630000Y1825000D01*
X3640000Y1815000D01*
X3640000Y1685000D01*
X3630000Y1675000D01*
X3630000Y1655000D01*
X3645000Y1640000D01*
X3705000Y1640000D01*
X3645000Y1860000D02*
G01*
X3705000Y1860000D01*
X3720000Y1845000D01*
X3720000Y1825000D01*
X3710000Y1815000D01*
X3710000Y1685000D01*
X3710299Y1684699D01*
X3720000Y1675000D01*
X3720000Y1655000D01*
X3705000Y1640000D01*
X3645000Y1640000D01*
X2957575Y440219D02*
G01*
X3207136Y440313D01*
X3207136Y400850D01*
X3286694Y400850D01*
X3286694Y440340D01*
X3327345Y440320D01*
X3327345Y204119D01*
X2837366Y204000D01*
X2837366Y440219D01*
X2878017Y440219D01*
X2878017Y400819D01*
X2957575Y400819D01*
X2957575Y440219D01*
X2376514Y440217D02*
G01*
X2626075Y440311D01*
X2626075Y400848D01*
X2705634Y400848D01*
X2705634Y440338D01*
X2746284Y440318D01*
X2746284Y204117D01*
X2256305Y203998D01*
X2256305Y440217D01*
X2296956Y440217D01*
X2296956Y400817D01*
X2376514Y400817D01*
X2376514Y440217D01*
X2365562Y650000D02*
G01*
X2365471Y1211889D01*
X2404931Y1211889D01*
X2404931Y1291449D01*
X2365442Y1291449D01*
X2365442Y1370000D01*
X2601661Y1370000D01*
X2601661Y490000D01*
X2365562Y490000D01*
X2365562Y570000D01*
X2365562Y570000D02*
G01*
X2404961Y570000D01*
X2404961Y640000D01*
X2365562Y640000D01*
X2365562Y649560D01*
X3537330Y440219D02*
G01*
X3786890Y440313D01*
X3786890Y400850D01*
X3866449Y400850D01*
X3866449Y440340D01*
X3907100Y440320D01*
X3907100Y204119D01*
X3417120Y204000D01*
X3417120Y440219D01*
X3457771Y440219D01*
X3457771Y400819D01*
X3537330Y400819D01*
X3537330Y440219D01*
D20*
X1800000Y2295000D02*
G01*
X3500000Y2295000D01*
X3500000Y1475000D01*
X1800000Y1475000D01*
X1800000Y2295000D01*
D19*
X3425000Y2160000D02*
G01*
X3425000Y2110000D01*
X3400000Y2135000D02*
G01*
X3450000Y2135000D01*
X1875000Y1610000D02*
G01*
X1875000Y1660000D01*
X3425000Y1610000D02*
G01*
X3425000Y1660000D01*
X1875000Y2160000D02*
G01*
X1875000Y2110000D01*
X1850000Y2135000D02*
G01*
X1900000Y2135000D01*
D20*
X235000Y169000D02*
G01*
X1731000Y169000D01*
X1731000Y2295000D01*
X1376999Y2295000D01*
X1376999Y2235999D01*
X1011999Y2235999D01*
X1011999Y2295000D01*
X235000Y2295000D01*
X235000Y169000D01*
X1015000Y350000D02*
G01*
X1015000Y355000D01*
X1015000Y360000D01*
X1030000Y345000D01*
X1015000Y345000D01*
X1015000Y355000D01*
X663000Y1535999D02*
G01*
X663000Y1530999D01*
X1355000Y2295000D02*
G01*
X1035000Y2295000D01*
X1035000Y2025000D01*
X1355000Y2025000D01*
X1355000Y2295000D01*
D19*
X3800000Y737721D02*
G01*
X3799907Y987280D01*
X3839369Y987280D01*
X3839369Y1066840D01*
X3799879Y1066840D01*
X3799899Y1107491D01*
X4036099Y1107491D01*
X4036220Y617510D01*
X3800000Y617510D01*
X3800000Y658162D01*
X3839399Y658162D01*
X3839399Y737721D01*
X3800000Y737721D01*
X3630000Y1405147D02*
G01*
X3695000Y1405000D01*
X3410000Y1404852D02*
G01*
X3345000Y1405000D01*
X3410000Y1435000D02*
G01*
X3410000Y1375000D01*
X3425000Y1360000D01*
X3445000Y1360000D01*
X3455000Y1370000D01*
X3585000Y1370000D01*
X3595000Y1360000D01*
X3615000Y1360000D01*
X3630000Y1375000D01*
X3630000Y1435000D01*
X3410000Y1375000D02*
G01*
X3410000Y1435000D01*
X3425000Y1450000D01*
X3445000Y1450000D01*
X3455000Y1440000D01*
X3585000Y1440000D01*
X3585299Y1440300D01*
X3595000Y1450000D01*
X3615000Y1450000D01*
X3630000Y1435000D01*
X3630000Y1375000D01*
G75*
G01*
X3785000Y2109700D02*
G03*
X3564825Y2110022I-110000J60001D01*
D12*
G75*
G01
X4129330Y2012640D02*
G03X4129330Y2012640I-71850J0D01*
M02*
