G04 Layer: TopLayer*
G04 EasyEDA v6.5.46, 2025-01-08 10:31:20*
G04 Gerber Generator version 0.2*
G04 Scale: 100 percent, Rotated: No, Reflected: No *
G04 Dimensions in inches *
G04 leading zeros omitted , absolute positions ,3 integer and 6 decimal *
%FSLAX36Y36*%
%MOIN*%

%ADD10C,0.0100*%
%ADD11C,0.0787*%
%ADD12C,0.0630*%
%ADD13R,0.0709X0.0709*%
%ADD14C,0.0709*%
%ADD15O,0.059054999999999996X0.07873999999999999*%
%ADD16C,0.0669*%
%ADD17C,0.0700*%
%ADD18R,0.0984X0.0984*%
%ADD19C,0.0660*%
%ADD20C,0.0240*%
%ADD21C,0.0136*%

%LPD*%
G36*
X2706780Y1212720D02*
G01*
X2705260Y1213020D01*
X2703960Y1213880D01*
X2130300Y1787540D01*
X2129440Y1788839D01*
X2129140Y1790360D01*
X2129440Y1791900D01*
X2130300Y1793200D01*
X2131600Y1794060D01*
X2133140Y1794360D01*
X2303600Y1794360D01*
X2305120Y1794060D01*
X2306420Y1793200D01*
X2361020Y1738600D01*
X2361880Y1737300D01*
X2362180Y1735780D01*
X2362180Y1727180D01*
X2370780Y1727180D01*
X2372300Y1726879D01*
X2373600Y1726020D01*
X2797240Y1302380D01*
X2798120Y1301080D01*
X2798420Y1299520D01*
X2798100Y1297980D01*
X2797200Y1296680D01*
X2795860Y1295820D01*
X2794320Y1295560D01*
X2792780Y1295900D01*
X2791820Y1296339D01*
X2786100Y1298120D01*
X2780220Y1299199D01*
X2774240Y1299560D01*
X2768260Y1299199D01*
X2762380Y1298120D01*
X2756660Y1296339D01*
X2751200Y1293880D01*
X2746080Y1290780D01*
X2741380Y1287100D01*
X2737140Y1282860D01*
X2733440Y1278160D01*
X2730360Y1273040D01*
X2727900Y1267580D01*
X2726120Y1261860D01*
X2725040Y1255980D01*
X2724680Y1250000D01*
X2725040Y1244020D01*
X2726120Y1238140D01*
X2727900Y1232420D01*
X2730360Y1226960D01*
X2733440Y1221840D01*
X2735539Y1219180D01*
X2736300Y1217580D01*
X2736280Y1215800D01*
X2735500Y1214220D01*
X2734120Y1213100D01*
X2732380Y1212720D01*
G37*

%LPC*%
G36*
X2362180Y1660740D02*
G01*
X2363040Y1661120D01*
X2368160Y1664220D01*
X2372860Y1667900D01*
X2377100Y1672140D01*
X2380780Y1676840D01*
X2383880Y1681960D01*
X2384260Y1682820D01*
X2362180Y1682820D01*
G37*
G36*
X2317820Y1660740D02*
G01*
X2317820Y1682820D01*
X2295740Y1682820D01*
X2296120Y1681960D01*
X2299220Y1676840D01*
X2302900Y1672140D01*
X2307140Y1667900D01*
X2311840Y1664220D01*
X2316960Y1661120D01*
G37*
G36*
X2295740Y1727180D02*
G01*
X2317820Y1727180D01*
X2317820Y1749259D01*
X2316960Y1748880D01*
X2311840Y1745780D01*
X2307140Y1742100D01*
X2302900Y1737860D01*
X2299220Y1733160D01*
X2296120Y1728040D01*
G37*

%LPD*%
G36*
X617160Y8820D02*
G01*
X595140Y9220D01*
X573320Y10380D01*
X551580Y12340D01*
X529900Y15060D01*
X508340Y18560D01*
X486920Y22820D01*
X465660Y27839D01*
X444600Y33620D01*
X423760Y40160D01*
X403160Y47420D01*
X382840Y55420D01*
X362819Y64140D01*
X343120Y73580D01*
X323760Y83699D01*
X304780Y94520D01*
X286200Y106000D01*
X268040Y118120D01*
X263340Y121519D01*
X262240Y122739D01*
X261720Y124320D01*
X261880Y125980D01*
X262720Y127420D01*
X264060Y128400D01*
X265680Y128760D01*
X3662980Y128760D01*
X3664500Y128460D01*
X3665800Y127579D01*
X3666420Y126960D01*
X3669600Y124740D01*
X3673100Y123100D01*
X3676840Y122100D01*
X3680700Y121780D01*
X3684540Y122100D01*
X3688279Y123100D01*
X3691780Y124740D01*
X3694960Y126960D01*
X3697679Y129700D01*
X3699900Y132860D01*
X3701540Y136360D01*
X3702540Y140100D01*
X3702880Y143960D01*
X3702540Y147800D01*
X3701540Y151540D01*
X3699900Y155040D01*
X3697679Y158220D01*
X3694960Y160940D01*
X3691780Y163160D01*
X3688279Y164800D01*
X3684540Y165799D01*
X3680700Y166140D01*
X3676840Y165799D01*
X3673100Y164800D01*
X3669600Y163160D01*
X3666420Y160940D01*
X3665800Y160320D01*
X3664500Y159460D01*
X3662980Y159160D01*
X3660560Y159160D01*
X3659040Y159460D01*
X3657740Y160320D01*
X3656860Y161620D01*
X3656560Y163160D01*
X3656860Y164680D01*
X3657740Y165980D01*
X3790840Y299080D01*
X3792200Y299980D01*
X3793800Y300260D01*
X3795480Y299840D01*
X3800880Y298080D01*
X3806440Y297020D01*
X3812120Y296660D01*
X3817780Y297020D01*
X3823340Y298080D01*
X3828740Y299840D01*
X3833880Y302240D01*
X3838680Y305280D01*
X3843039Y308900D01*
X3846940Y313040D01*
X3850260Y317640D01*
X3853000Y322600D01*
X3855100Y327879D01*
X3856500Y333380D01*
X3857220Y339020D01*
X3857220Y344680D01*
X3856500Y350319D01*
X3855100Y355820D01*
X3853000Y361100D01*
X3850260Y366060D01*
X3846940Y370660D01*
X3843039Y374799D01*
X3838680Y378420D01*
X3833880Y381460D01*
X3828740Y383860D01*
X3823340Y385620D01*
X3817780Y386680D01*
X3812120Y387040D01*
X3806440Y386680D01*
X3800880Y385620D01*
X3795480Y383860D01*
X3790340Y381460D01*
X3785539Y378420D01*
X3781180Y374799D01*
X3777280Y370660D01*
X3773960Y366060D01*
X3771220Y361100D01*
X3769120Y355820D01*
X3767720Y350319D01*
X3767000Y344680D01*
X3767000Y339020D01*
X3767720Y333380D01*
X3769120Y327879D01*
X3770299Y324940D01*
X3770580Y323440D01*
X3770260Y321920D01*
X3769400Y320640D01*
X3627020Y178260D01*
X3625720Y177380D01*
X3624180Y177079D01*
X3478420Y177079D01*
X3476880Y177380D01*
X3475580Y178260D01*
X3474720Y179560D01*
X3474420Y181080D01*
X3474720Y182620D01*
X3475580Y183920D01*
X3590840Y299160D01*
X3592200Y300060D01*
X3593800Y300340D01*
X3595480Y299920D01*
X3600880Y298160D01*
X3606440Y297100D01*
X3612120Y296740D01*
X3617780Y297100D01*
X3623340Y298160D01*
X3628740Y299920D01*
X3633880Y302320D01*
X3638680Y305360D01*
X3643039Y308980D01*
X3646940Y313120D01*
X3650260Y317720D01*
X3653000Y322680D01*
X3655100Y327960D01*
X3656500Y333459D01*
X3657220Y339099D01*
X3657220Y344760D01*
X3656500Y350400D01*
X3655100Y355900D01*
X3653000Y361180D01*
X3650260Y366140D01*
X3646940Y370740D01*
X3643039Y374880D01*
X3638680Y378500D01*
X3633880Y381540D01*
X3628740Y383940D01*
X3623340Y385700D01*
X3617780Y386760D01*
X3612120Y387120D01*
X3606440Y386760D01*
X3600880Y385700D01*
X3595480Y383940D01*
X3590340Y381540D01*
X3585539Y378500D01*
X3581180Y374880D01*
X3577280Y370740D01*
X3573960Y366140D01*
X3571220Y361180D01*
X3569120Y355900D01*
X3567720Y350400D01*
X3567000Y344760D01*
X3567000Y339099D01*
X3567720Y333459D01*
X3569120Y327960D01*
X3570299Y325020D01*
X3570580Y323519D01*
X3570260Y322000D01*
X3569400Y320720D01*
X3443039Y194360D01*
X3441740Y193500D01*
X3440220Y193200D01*
X1723040Y193200D01*
X1721339Y193560D01*
X1719980Y194620D01*
X1719180Y196160D01*
X1719100Y197880D01*
X1719760Y199480D01*
X1721940Y202600D01*
X1724500Y207520D01*
X1726399Y212719D01*
X1727640Y218100D01*
X1728160Y223619D01*
X1728000Y229140D01*
X1727100Y234620D01*
X1725540Y239920D01*
X1723300Y244980D01*
X1720420Y249720D01*
X1717560Y253320D01*
X1716860Y254620D01*
X1716699Y256100D01*
X1717080Y257540D01*
X1717960Y258740D01*
X1719220Y259520D01*
X1720680Y259800D01*
X1906960Y259800D01*
X1910120Y260120D01*
X1912960Y260980D01*
X1915580Y262380D01*
X1918040Y264400D01*
X1950960Y297320D01*
X1952200Y298160D01*
X1953680Y298480D01*
X1955160Y298240D01*
X1958560Y296980D01*
X1964019Y295740D01*
X1969580Y295200D01*
X1975180Y295380D01*
X1980700Y296280D01*
X1986060Y297880D01*
X1991180Y300140D01*
X1995960Y303040D01*
X2000340Y306520D01*
X2004220Y310540D01*
X2007580Y315020D01*
X2010320Y319900D01*
X2012420Y325080D01*
X2013839Y330500D01*
X2014560Y336040D01*
X2014560Y341640D01*
X2013839Y347180D01*
X2012420Y352600D01*
X2010320Y357780D01*
X2007580Y362660D01*
X2004220Y367140D01*
X2000340Y371160D01*
X1995960Y374640D01*
X1991180Y377540D01*
X1986060Y379820D01*
X1981720Y381100D01*
X1980300Y381860D01*
X1979280Y383140D01*
X1978860Y384700D01*
X1979100Y386300D01*
X1979940Y387680D01*
X1981279Y388600D01*
X1982860Y388940D01*
X2057600Y388940D01*
X2059220Y388600D01*
X2060560Y387620D01*
X2061399Y386200D01*
X2061579Y384560D01*
X2061080Y382980D01*
X2060000Y381719D01*
X2058500Y381040D01*
X2057000Y380700D01*
X2051740Y378760D01*
X2046780Y376180D01*
X2042200Y372980D01*
X2038060Y369219D01*
X2034420Y364960D01*
X2031380Y360260D01*
X2028940Y355220D01*
X2027180Y349920D01*
X2026120Y344420D01*
X2025760Y338840D01*
X2026120Y333260D01*
X2027180Y327760D01*
X2028940Y322460D01*
X2031380Y317420D01*
X2034420Y312720D01*
X2038060Y308480D01*
X2042200Y304700D01*
X2046780Y301500D01*
X2051740Y298920D01*
X2057000Y296980D01*
X2062440Y295740D01*
X2068020Y295200D01*
X2073600Y295380D01*
X2079120Y296280D01*
X2084500Y297880D01*
X2089600Y300140D01*
X2094379Y303040D01*
X2098760Y306520D01*
X2102660Y310540D01*
X2106000Y315020D01*
X2108740Y319900D01*
X2110840Y325080D01*
X2112260Y330500D01*
X2112980Y336040D01*
X2112980Y341640D01*
X2112260Y347180D01*
X2110840Y352600D01*
X2110060Y354540D01*
X2109760Y356060D01*
X2110080Y357580D01*
X2110940Y358860D01*
X2123720Y371659D01*
X2125020Y372520D01*
X2126560Y372819D01*
X2310140Y372819D01*
X2311840Y372440D01*
X2313220Y371380D01*
X2314020Y369820D01*
X2314080Y368080D01*
X2313140Y366140D01*
X2310400Y361160D01*
X2308320Y355900D01*
X2306900Y350400D01*
X2306200Y344760D01*
X2306200Y339099D01*
X2306900Y333459D01*
X2308320Y327960D01*
X2310400Y322680D01*
X2313140Y317720D01*
X2316480Y313120D01*
X2320360Y308980D01*
X2324740Y305360D01*
X2329520Y302320D01*
X2334660Y299900D01*
X2340060Y298160D01*
X2345640Y297100D01*
X2351300Y296740D01*
X2356960Y297100D01*
X2362540Y298160D01*
X2367940Y299900D01*
X2373060Y302320D01*
X2377860Y305360D01*
X2382240Y308980D01*
X2386120Y313120D01*
X2389460Y317720D01*
X2392180Y322680D01*
X2394280Y327960D01*
X2395680Y333459D01*
X2396400Y339099D01*
X2396400Y344760D01*
X2395680Y350400D01*
X2394280Y355900D01*
X2392180Y361160D01*
X2389460Y366140D01*
X2388520Y368080D01*
X2388580Y369820D01*
X2389360Y371380D01*
X2390740Y372440D01*
X2392440Y372819D01*
X2410140Y372819D01*
X2411840Y372440D01*
X2413220Y371380D01*
X2414020Y369820D01*
X2414080Y368080D01*
X2413140Y366140D01*
X2410400Y361160D01*
X2408320Y355900D01*
X2406900Y350400D01*
X2406200Y344760D01*
X2406200Y339099D01*
X2406900Y333459D01*
X2408320Y327960D01*
X2410400Y322680D01*
X2413140Y317720D01*
X2416480Y313120D01*
X2420360Y308980D01*
X2424740Y305360D01*
X2429520Y302320D01*
X2434660Y299900D01*
X2440060Y298160D01*
X2445640Y297100D01*
X2451300Y296740D01*
X2456960Y297100D01*
X2462540Y298160D01*
X2467940Y299900D01*
X2473060Y302320D01*
X2477860Y305360D01*
X2482240Y308980D01*
X2486120Y313120D01*
X2489460Y317720D01*
X2492180Y322680D01*
X2494280Y327960D01*
X2495680Y333459D01*
X2496400Y339099D01*
X2496400Y344760D01*
X2495680Y350400D01*
X2494280Y355900D01*
X2492180Y361160D01*
X2489460Y366140D01*
X2488520Y368080D01*
X2488580Y369820D01*
X2489360Y371380D01*
X2490740Y372440D01*
X2492440Y372819D01*
X2497180Y372819D01*
X2498700Y372520D01*
X2500000Y371659D01*
X2508600Y363060D01*
X2509460Y361780D01*
X2509760Y360280D01*
X2509480Y358760D01*
X2508320Y355820D01*
X2506900Y350319D01*
X2506200Y344680D01*
X2506200Y339020D01*
X2506900Y333380D01*
X2508320Y327879D01*
X2510400Y322600D01*
X2513140Y317640D01*
X2516480Y313040D01*
X2520360Y308900D01*
X2524740Y305280D01*
X2529520Y302240D01*
X2534660Y299820D01*
X2540060Y298080D01*
X2545640Y297020D01*
X2551300Y296660D01*
X2556960Y297020D01*
X2562540Y298080D01*
X2567940Y299820D01*
X2573060Y302240D01*
X2577860Y305280D01*
X2582240Y308900D01*
X2586120Y313040D01*
X2589460Y317640D01*
X2592180Y322600D01*
X2594280Y327879D01*
X2595680Y333380D01*
X2596400Y339020D01*
X2596400Y344680D01*
X2595680Y350319D01*
X2594280Y355820D01*
X2592180Y361079D01*
X2589460Y366060D01*
X2586120Y370660D01*
X2582240Y374799D01*
X2577860Y378400D01*
X2572900Y381560D01*
X2571680Y382760D01*
X2571080Y384360D01*
X2571200Y386060D01*
X2572020Y387540D01*
X2573380Y388579D01*
X2575040Y388940D01*
X2627540Y388940D01*
X2629220Y388579D01*
X2630580Y387540D01*
X2631400Y386060D01*
X2631500Y384360D01*
X2630899Y382760D01*
X2629700Y381560D01*
X2624740Y378400D01*
X2620360Y374799D01*
X2616480Y370660D01*
X2613140Y366060D01*
X2610400Y361079D01*
X2608320Y355820D01*
X2606900Y350319D01*
X2606200Y344680D01*
X2606200Y339020D01*
X2606900Y333380D01*
X2608320Y327879D01*
X2610400Y322600D01*
X2613140Y317640D01*
X2616480Y313040D01*
X2620360Y308900D01*
X2624740Y305280D01*
X2629520Y302240D01*
X2634660Y299820D01*
X2640059Y298080D01*
X2645640Y297020D01*
X2651300Y296660D01*
X2656960Y297020D01*
X2662540Y298080D01*
X2667940Y299820D01*
X2673060Y302240D01*
X2677860Y305280D01*
X2682240Y308900D01*
X2686120Y313040D01*
X2689460Y317640D01*
X2692180Y322600D01*
X2694280Y327879D01*
X2695680Y333380D01*
X2696400Y339020D01*
X2696400Y344680D01*
X2695680Y350319D01*
X2694280Y355820D01*
X2692180Y361079D01*
X2689460Y366060D01*
X2686120Y370660D01*
X2682240Y374799D01*
X2677860Y378400D01*
X2672900Y381560D01*
X2671680Y382760D01*
X2671080Y384360D01*
X2671200Y386060D01*
X2672020Y387540D01*
X2673380Y388579D01*
X2675040Y388940D01*
X2862200Y388940D01*
X2863740Y388640D01*
X2865040Y387760D01*
X2889660Y363140D01*
X2890520Y361860D01*
X2890820Y360360D01*
X2890539Y358840D01*
X2889380Y355900D01*
X2887960Y350400D01*
X2887260Y344760D01*
X2887260Y339099D01*
X2887960Y333459D01*
X2889380Y327960D01*
X2891460Y322680D01*
X2894200Y317720D01*
X2897540Y313120D01*
X2901420Y308980D01*
X2905800Y305360D01*
X2910580Y302320D01*
X2915720Y299920D01*
X2921120Y298160D01*
X2926700Y297100D01*
X2932360Y296740D01*
X2938020Y297100D01*
X2943600Y298160D01*
X2949000Y299920D01*
X2954120Y302320D01*
X2958920Y305360D01*
X2963300Y308980D01*
X2967180Y313120D01*
X2970520Y317720D01*
X2973240Y322680D01*
X2975340Y327960D01*
X2976740Y333459D01*
X2977460Y339099D01*
X2977460Y344760D01*
X2976740Y350400D01*
X2975340Y355900D01*
X2973240Y361180D01*
X2970520Y366140D01*
X2967180Y370740D01*
X2963300Y374880D01*
X2958920Y378500D01*
X2954120Y381540D01*
X2949000Y383940D01*
X2943600Y385700D01*
X2938020Y386760D01*
X2932360Y387120D01*
X2926700Y386760D01*
X2921120Y385700D01*
X2915620Y383900D01*
X2914040Y383519D01*
X2912460Y383800D01*
X2911100Y384700D01*
X2897580Y398220D01*
X2896700Y399520D01*
X2896400Y401040D01*
X2896700Y402580D01*
X2897580Y403880D01*
X2898880Y404739D01*
X2900400Y405040D01*
X3088940Y405040D01*
X3092100Y405360D01*
X3094940Y406220D01*
X3097559Y407620D01*
X3100020Y409640D01*
X3128480Y438100D01*
X3129620Y438900D01*
X3130960Y439260D01*
X3134120Y439540D01*
X3137860Y440540D01*
X3141360Y442180D01*
X3144540Y444400D01*
X3147260Y447120D01*
X3149480Y450300D01*
X3151120Y453800D01*
X3152120Y457540D01*
X3152460Y461380D01*
X3152140Y464940D01*
X3152340Y466580D01*
X3153180Y467980D01*
X3154520Y468940D01*
X3156120Y469280D01*
X3361600Y469280D01*
X3363140Y468980D01*
X3364440Y468120D01*
X3469400Y363140D01*
X3470260Y361860D01*
X3470580Y360360D01*
X3470299Y358840D01*
X3469120Y355900D01*
X3467720Y350400D01*
X3467000Y344760D01*
X3467000Y339099D01*
X3467720Y333459D01*
X3469120Y327960D01*
X3471220Y322680D01*
X3473960Y317720D01*
X3477280Y313120D01*
X3481180Y308980D01*
X3485539Y305360D01*
X3490340Y302320D01*
X3495480Y299920D01*
X3500880Y298160D01*
X3506440Y297100D01*
X3512120Y296740D01*
X3517780Y297100D01*
X3523340Y298160D01*
X3528740Y299920D01*
X3533880Y302320D01*
X3538680Y305360D01*
X3543039Y308980D01*
X3546940Y313120D01*
X3550260Y317720D01*
X3553000Y322680D01*
X3555100Y327960D01*
X3556500Y333459D01*
X3557220Y339099D01*
X3557220Y344760D01*
X3556500Y350400D01*
X3555100Y355900D01*
X3553000Y361180D01*
X3550260Y366140D01*
X3546940Y370740D01*
X3543039Y374880D01*
X3538680Y378500D01*
X3533880Y381540D01*
X3528740Y383940D01*
X3523340Y385700D01*
X3517780Y386760D01*
X3512120Y387120D01*
X3506440Y386760D01*
X3500880Y385700D01*
X3495380Y383900D01*
X3493800Y383519D01*
X3492200Y383800D01*
X3490840Y384700D01*
X3380440Y495100D01*
X3378000Y497100D01*
X3375360Y498519D01*
X3372520Y499380D01*
X3369360Y499680D01*
X3120899Y499680D01*
X3117740Y499380D01*
X3114900Y498519D01*
X3112260Y497100D01*
X3109820Y495100D01*
X3106100Y491380D01*
X3104800Y490500D01*
X3103260Y490200D01*
X1720660Y490200D01*
X1719160Y490500D01*
X1717880Y491340D01*
X1717000Y492580D01*
X1716660Y494080D01*
X1716900Y495580D01*
X1717700Y496900D01*
X1718760Y498080D01*
X1721940Y502600D01*
X1724500Y507520D01*
X1726399Y512720D01*
X1727640Y518100D01*
X1728160Y523620D01*
X1728000Y529140D01*
X1727100Y534620D01*
X1725540Y539920D01*
X1723300Y544980D01*
X1721339Y548200D01*
X1720800Y549780D01*
X1720940Y551460D01*
X1721780Y552920D01*
X1723120Y553920D01*
X1724760Y554260D01*
X1808720Y554260D01*
X1810240Y553960D01*
X1811540Y553100D01*
X1844160Y520480D01*
X1846620Y518459D01*
X1849240Y517060D01*
X1852080Y516200D01*
X1855240Y515880D01*
X3781880Y515880D01*
X3785040Y516200D01*
X3787880Y517060D01*
X3790500Y518459D01*
X3792960Y520480D01*
X3956200Y683720D01*
X3958220Y686180D01*
X3959620Y688800D01*
X3960480Y691640D01*
X3960800Y694800D01*
X3960800Y765000D01*
X3960480Y768160D01*
X3959620Y771020D01*
X3958220Y773640D01*
X3956200Y776100D01*
X3941060Y791240D01*
X3940160Y792600D01*
X3939880Y794200D01*
X3940299Y795860D01*
X3942060Y801260D01*
X3943120Y806840D01*
X3943480Y812500D01*
X3943120Y818160D01*
X3942060Y823740D01*
X3940299Y829140D01*
X3937900Y834280D01*
X3934860Y839060D01*
X3933480Y840720D01*
X3932760Y842020D01*
X3932580Y843520D01*
X3932940Y844960D01*
X3933820Y846180D01*
X3935100Y846979D01*
X3936560Y847260D01*
X4159580Y847260D01*
X4161120Y846960D01*
X4162420Y846100D01*
X4180000Y828520D01*
X4180840Y827300D01*
X4181160Y825860D01*
X4180960Y824400D01*
X4179740Y820780D01*
X4178660Y815440D01*
X4178320Y810000D01*
X4178660Y804560D01*
X4179740Y799220D01*
X4181480Y794040D01*
X4183900Y789160D01*
X4186920Y784620D01*
X4190520Y780520D01*
X4194620Y776919D01*
X4199160Y773900D01*
X4204040Y771480D01*
X4209220Y769740D01*
X4214560Y768660D01*
X4220000Y768319D01*
X4225440Y768660D01*
X4230780Y769740D01*
X4235960Y771480D01*
X4240840Y773900D01*
X4245380Y776919D01*
X4249480Y780520D01*
X4253080Y784620D01*
X4256100Y789160D01*
X4258520Y794040D01*
X4260260Y799220D01*
X4261340Y804560D01*
X4261680Y810000D01*
X4261340Y815440D01*
X4260260Y820780D01*
X4258520Y825960D01*
X4256100Y830840D01*
X4253080Y835380D01*
X4249480Y839479D01*
X4245380Y843080D01*
X4240840Y846100D01*
X4235960Y848520D01*
X4230780Y850260D01*
X4225440Y851340D01*
X4220000Y851680D01*
X4214560Y851340D01*
X4209220Y850260D01*
X4205620Y849040D01*
X4204160Y848840D01*
X4202720Y849180D01*
X4201500Y850000D01*
X4178420Y873080D01*
X4175980Y875080D01*
X4173340Y876500D01*
X4170500Y877360D01*
X4167340Y877660D01*
X3936580Y877660D01*
X3935120Y877940D01*
X3933840Y878740D01*
X3932960Y879960D01*
X3932600Y881420D01*
X3932780Y882900D01*
X3933500Y884220D01*
X3934940Y885939D01*
X3937980Y890720D01*
X3940380Y895860D01*
X3942140Y901260D01*
X3943200Y906840D01*
X3943560Y912500D01*
X3943200Y918160D01*
X3942140Y923740D01*
X3940380Y929140D01*
X3937980Y934280D01*
X3934940Y939060D01*
X3931200Y943580D01*
X3930460Y944900D01*
X3930280Y946380D01*
X3930659Y947840D01*
X3931540Y949060D01*
X3932799Y949860D01*
X3934280Y950140D01*
X4156720Y950140D01*
X4158240Y949840D01*
X4159540Y948960D01*
X4180000Y928520D01*
X4180840Y927300D01*
X4181160Y925860D01*
X4180960Y924400D01*
X4179740Y920780D01*
X4178660Y915440D01*
X4178320Y910000D01*
X4178660Y904560D01*
X4179740Y899220D01*
X4181480Y894040D01*
X4183900Y889160D01*
X4186920Y884620D01*
X4190520Y880520D01*
X4194620Y876919D01*
X4199160Y873900D01*
X4204040Y871480D01*
X4209220Y869740D01*
X4214560Y868660D01*
X4220000Y868319D01*
X4225440Y868660D01*
X4230780Y869740D01*
X4235960Y871480D01*
X4240840Y873900D01*
X4245380Y876919D01*
X4249480Y880520D01*
X4253080Y884620D01*
X4256100Y889160D01*
X4258520Y894040D01*
X4260260Y899220D01*
X4261340Y904560D01*
X4261680Y910000D01*
X4261340Y915440D01*
X4260260Y920780D01*
X4258520Y925960D01*
X4256100Y930840D01*
X4253080Y935380D01*
X4249480Y939479D01*
X4245380Y943080D01*
X4240840Y946100D01*
X4235960Y948520D01*
X4230780Y950260D01*
X4225440Y951340D01*
X4220000Y951680D01*
X4214560Y951340D01*
X4209220Y950260D01*
X4205620Y949040D01*
X4204160Y948840D01*
X4202720Y949180D01*
X4201500Y950000D01*
X4175560Y975939D01*
X4173100Y977960D01*
X4170480Y979360D01*
X4167640Y980220D01*
X4164480Y980540D01*
X3938780Y980540D01*
X3937120Y980900D01*
X3935760Y981900D01*
X3934940Y983400D01*
X3934820Y985080D01*
X3935400Y986680D01*
X3937980Y990720D01*
X3940380Y995860D01*
X3942140Y1001260D01*
X3943200Y1006840D01*
X3943560Y1012500D01*
X3943200Y1018160D01*
X3942140Y1023740D01*
X3940380Y1029140D01*
X3937980Y1034280D01*
X3934940Y1039060D01*
X3931320Y1043439D01*
X3927180Y1047320D01*
X3922580Y1050660D01*
X3917620Y1053400D01*
X3912340Y1055480D01*
X3906840Y1056900D01*
X3901200Y1057600D01*
X3895539Y1057600D01*
X3889900Y1056900D01*
X3884400Y1055480D01*
X3879120Y1053400D01*
X3874160Y1050660D01*
X3869560Y1047320D01*
X3865419Y1043439D01*
X3861800Y1039060D01*
X3858759Y1034280D01*
X3856360Y1029140D01*
X3854600Y1023740D01*
X3853540Y1018160D01*
X3853180Y1012500D01*
X3853540Y1006840D01*
X3854600Y1001260D01*
X3856360Y995860D01*
X3858759Y990720D01*
X3861340Y986680D01*
X3861920Y985080D01*
X3861800Y983400D01*
X3860980Y981900D01*
X3859620Y980900D01*
X3857960Y980540D01*
X2653340Y980540D01*
X2651820Y980840D01*
X2650520Y981700D01*
X2495540Y1136680D01*
X2493500Y1138360D01*
X2492560Y1139460D01*
X2492080Y1140840D01*
X2492120Y1142280D01*
X2492680Y1143640D01*
X2493680Y1144680D01*
X2494360Y1145180D01*
X2498500Y1149060D01*
X2502120Y1153440D01*
X2505160Y1158220D01*
X2507580Y1163360D01*
X2509340Y1168760D01*
X2510400Y1174340D01*
X2510760Y1180000D01*
X2510400Y1185660D01*
X2509340Y1191240D01*
X2507580Y1196640D01*
X2505160Y1201780D01*
X2502120Y1206560D01*
X2498500Y1210940D01*
X2497580Y1211800D01*
X2496660Y1213100D01*
X2496320Y1214640D01*
X2496600Y1216200D01*
X2497460Y1217520D01*
X2498760Y1218420D01*
X2500320Y1218720D01*
X2596740Y1218720D01*
X2598260Y1218420D01*
X2599560Y1217560D01*
X2660840Y1156280D01*
X2663300Y1154260D01*
X2665920Y1152860D01*
X2668759Y1152000D01*
X2671920Y1151680D01*
X2874400Y1151680D01*
X2875940Y1151380D01*
X2877240Y1150520D01*
X2931160Y1096600D01*
X2932040Y1095240D01*
X2932320Y1093640D01*
X2931820Y1091800D01*
X2930040Y1086340D01*
X2928960Y1080620D01*
X2928360Y1079160D01*
X2927260Y1078060D01*
X2925800Y1077460D01*
X2924240Y1077460D01*
X2922799Y1078060D01*
X2921680Y1079160D01*
X2921100Y1080620D01*
X2920000Y1086340D01*
X2918240Y1091800D01*
X2915800Y1096980D01*
X2912720Y1101820D01*
X2909080Y1106240D01*
X2904900Y1110160D01*
X2900260Y1113520D01*
X2895240Y1116280D01*
X2889900Y1118400D01*
X2884360Y1119820D01*
X2878680Y1120540D01*
X2872940Y1120540D01*
X2867260Y1119820D01*
X2861720Y1118400D01*
X2856380Y1116280D01*
X2851360Y1113520D01*
X2846720Y1110160D01*
X2842559Y1106240D01*
X2838900Y1101820D01*
X2835820Y1096980D01*
X2833380Y1091800D01*
X2831620Y1086340D01*
X2830539Y1080720D01*
X2830179Y1075000D01*
X2830539Y1069280D01*
X2831620Y1063660D01*
X2833380Y1058200D01*
X2835820Y1053020D01*
X2838900Y1048180D01*
X2842559Y1043760D01*
X2846720Y1039840D01*
X2851360Y1036480D01*
X2856380Y1033720D01*
X2861720Y1031600D01*
X2867260Y1030180D01*
X2872940Y1029460D01*
X2878680Y1029460D01*
X2884360Y1030180D01*
X2889900Y1031600D01*
X2893060Y1032860D01*
X2894580Y1033139D01*
X2896080Y1032820D01*
X2897360Y1031960D01*
X2911540Y1017800D01*
X2913980Y1015780D01*
X2916620Y1014380D01*
X2919460Y1013520D01*
X2922620Y1013199D01*
X3374780Y1013199D01*
X3377940Y1013520D01*
X3380779Y1014380D01*
X3383420Y1015780D01*
X3385860Y1017800D01*
X3400040Y1031960D01*
X3401320Y1032820D01*
X3402820Y1033139D01*
X3404340Y1032860D01*
X3407480Y1031600D01*
X3413020Y1030180D01*
X3418700Y1029460D01*
X3424440Y1029460D01*
X3430120Y1030180D01*
X3435680Y1031600D01*
X3441000Y1033720D01*
X3446019Y1036480D01*
X3450659Y1039840D01*
X3454840Y1043760D01*
X3458480Y1048180D01*
X3461560Y1053020D01*
X3464000Y1058200D01*
X3465760Y1063660D01*
X3466860Y1069380D01*
X3467440Y1070840D01*
X3468560Y1071940D01*
X3470000Y1072540D01*
X3471580Y1072540D01*
X3473020Y1071940D01*
X3474120Y1070840D01*
X3474720Y1069380D01*
X3475800Y1063660D01*
X3477580Y1058200D01*
X3480020Y1053020D01*
X3483080Y1048180D01*
X3486740Y1043760D01*
X3490920Y1039840D01*
X3495560Y1036480D01*
X3500580Y1033720D01*
X3505899Y1031600D01*
X3511440Y1030180D01*
X3517140Y1029460D01*
X3522860Y1029460D01*
X3528540Y1030180D01*
X3534100Y1031600D01*
X3539420Y1033720D01*
X3544440Y1036480D01*
X3549080Y1039840D01*
X3553260Y1043760D01*
X3556920Y1048180D01*
X3559980Y1053020D01*
X3562540Y1058480D01*
X3563360Y1059640D01*
X3564540Y1060440D01*
X3565920Y1060780D01*
X3567320Y1060600D01*
X3570580Y1059680D01*
X3571760Y1058800D01*
X3572520Y1057560D01*
X3572799Y1056120D01*
X3572799Y1039800D01*
X3573080Y1037300D01*
X3573820Y1035160D01*
X3575040Y1033220D01*
X3576640Y1031620D01*
X3578580Y1030400D01*
X3580720Y1029640D01*
X3583220Y1029360D01*
X3653639Y1029360D01*
X3656120Y1029640D01*
X3658279Y1030400D01*
X3660200Y1031620D01*
X3661820Y1033220D01*
X3663020Y1035160D01*
X3663780Y1037300D01*
X3664060Y1039800D01*
X3664060Y1110200D01*
X3663780Y1112700D01*
X3663020Y1114840D01*
X3661820Y1116780D01*
X3660200Y1118380D01*
X3658279Y1119600D01*
X3656120Y1120360D01*
X3653639Y1120640D01*
X3583220Y1120640D01*
X3580720Y1120360D01*
X3578580Y1119600D01*
X3577280Y1118780D01*
X3576040Y1118280D01*
X3574700Y1118200D01*
X3573420Y1118560D01*
X3572320Y1119340D01*
X3559540Y1132140D01*
X3557080Y1134140D01*
X3554460Y1135560D01*
X3551620Y1136420D01*
X3548460Y1136720D01*
X3165899Y1136720D01*
X3162740Y1136420D01*
X3159900Y1135560D01*
X3157280Y1134140D01*
X3154820Y1132140D01*
X3125120Y1102440D01*
X3123820Y1101560D01*
X3122300Y1101260D01*
X3120760Y1101560D01*
X3119460Y1102440D01*
X3118600Y1103740D01*
X3118300Y1105260D01*
X3118300Y1110200D01*
X3118020Y1112700D01*
X3117260Y1114840D01*
X3116040Y1116780D01*
X3114440Y1118380D01*
X3112500Y1119600D01*
X3110360Y1120360D01*
X3107860Y1120640D01*
X3037460Y1120640D01*
X3034960Y1120360D01*
X3032820Y1119600D01*
X3031520Y1118780D01*
X3030280Y1118280D01*
X3028940Y1118200D01*
X3027660Y1118560D01*
X3026560Y1119340D01*
X2937780Y1208120D01*
X2935320Y1210140D01*
X2932700Y1211540D01*
X2929860Y1212400D01*
X2926700Y1212720D01*
X2816080Y1212720D01*
X2814360Y1213100D01*
X2812960Y1214220D01*
X2812200Y1215800D01*
X2812180Y1217580D01*
X2812940Y1219180D01*
X2815020Y1221840D01*
X2818120Y1226960D01*
X2820580Y1232420D01*
X2822360Y1238140D01*
X2823440Y1244020D01*
X2823800Y1250000D01*
X2823440Y1255980D01*
X2822360Y1261860D01*
X2820580Y1267580D01*
X2819460Y1270080D01*
X2819100Y1271640D01*
X2819400Y1273200D01*
X2820280Y1274540D01*
X2934360Y1388640D01*
X2935659Y1389500D01*
X2937200Y1389800D01*
X3270000Y1389800D01*
X3271500Y1389520D01*
X3272780Y1388680D01*
X3273639Y1387440D01*
X3276120Y1381960D01*
X3279220Y1376840D01*
X3282900Y1372140D01*
X3287140Y1367900D01*
X3291840Y1364220D01*
X3296960Y1361120D01*
X3300779Y1359400D01*
X3302020Y1358500D01*
X3302860Y1357200D01*
X3303120Y1355680D01*
X3302799Y1354180D01*
X3301940Y1352900D01*
X3300640Y1352060D01*
X3299120Y1351759D01*
X3260980Y1351759D01*
X3257820Y1351440D01*
X3254980Y1350580D01*
X3252360Y1349180D01*
X3249900Y1347160D01*
X3198780Y1296040D01*
X3197440Y1295160D01*
X3195860Y1294860D01*
X3194300Y1295220D01*
X3191820Y1296339D01*
X3186100Y1298120D01*
X3180220Y1299199D01*
X3174240Y1299560D01*
X3168260Y1299199D01*
X3162380Y1298120D01*
X3156660Y1296339D01*
X3151200Y1293880D01*
X3146080Y1290780D01*
X3141380Y1287100D01*
X3137140Y1282860D01*
X3133440Y1278160D01*
X3130360Y1273040D01*
X3127900Y1267580D01*
X3126120Y1261860D01*
X3125040Y1255980D01*
X3124680Y1250000D01*
X3125040Y1244020D01*
X3126120Y1238140D01*
X3127900Y1232420D01*
X3130360Y1226960D01*
X3133440Y1221840D01*
X3137140Y1217140D01*
X3141380Y1212900D01*
X3146080Y1209220D01*
X3151200Y1206120D01*
X3156660Y1203660D01*
X3162380Y1201880D01*
X3168260Y1200800D01*
X3174240Y1200440D01*
X3180220Y1200800D01*
X3186100Y1201880D01*
X3191820Y1203660D01*
X3197260Y1206120D01*
X3202400Y1209220D01*
X3207100Y1212900D01*
X3211340Y1217140D01*
X3215020Y1221840D01*
X3218120Y1226960D01*
X3220580Y1232420D01*
X3222360Y1238140D01*
X3223440Y1244020D01*
X3223800Y1250000D01*
X3223440Y1255980D01*
X3222360Y1261860D01*
X3220580Y1267580D01*
X3219460Y1270080D01*
X3219100Y1271640D01*
X3219400Y1273200D01*
X3220280Y1274540D01*
X3265920Y1320180D01*
X3267220Y1321060D01*
X3268740Y1321360D01*
X3863420Y1321360D01*
X3865100Y1320980D01*
X3866460Y1319960D01*
X3867280Y1318440D01*
X3867380Y1316720D01*
X3866760Y1315140D01*
X3866259Y1314400D01*
X3863840Y1309500D01*
X3862100Y1304340D01*
X3861040Y1299000D01*
X3860680Y1293540D01*
X3861040Y1288100D01*
X3862100Y1282760D01*
X3863840Y1277600D01*
X3866259Y1272700D01*
X3868039Y1270020D01*
X3868680Y1268440D01*
X3868580Y1266720D01*
X3867760Y1265200D01*
X3866400Y1264180D01*
X3864720Y1263800D01*
X3772020Y1263800D01*
X3770380Y1264160D01*
X3769020Y1265160D01*
X3768200Y1266620D01*
X3766340Y1272580D01*
X3763880Y1278040D01*
X3760779Y1283160D01*
X3757100Y1287860D01*
X3752860Y1292100D01*
X3748159Y1295780D01*
X3743020Y1298880D01*
X3737580Y1301339D01*
X3731860Y1303120D01*
X3725980Y1304199D01*
X3720000Y1304560D01*
X3714020Y1304199D01*
X3708140Y1303120D01*
X3702420Y1301339D01*
X3696960Y1298880D01*
X3691840Y1295780D01*
X3687120Y1292100D01*
X3682900Y1287860D01*
X3679200Y1283160D01*
X3676120Y1278040D01*
X3673660Y1272580D01*
X3671880Y1266860D01*
X3670800Y1260980D01*
X3670440Y1255000D01*
X3670800Y1249020D01*
X3671880Y1243140D01*
X3673660Y1237420D01*
X3676120Y1231960D01*
X3679200Y1226840D01*
X3682900Y1222140D01*
X3687120Y1217900D01*
X3691840Y1214220D01*
X3696960Y1211120D01*
X3702420Y1208660D01*
X3708140Y1206880D01*
X3714020Y1205800D01*
X3720000Y1205440D01*
X3725980Y1205800D01*
X3731860Y1206880D01*
X3737580Y1208660D01*
X3743020Y1211120D01*
X3748159Y1214220D01*
X3752860Y1217900D01*
X3757100Y1222140D01*
X3760779Y1226840D01*
X3763580Y1231480D01*
X3764480Y1232500D01*
X3765659Y1233180D01*
X3767000Y1233400D01*
X4167460Y1233400D01*
X4170620Y1233720D01*
X4173460Y1234580D01*
X4176100Y1235980D01*
X4178540Y1238000D01*
X4194100Y1253540D01*
X4195320Y1254380D01*
X4196740Y1254720D01*
X4198200Y1254500D01*
X4201800Y1253280D01*
X4207160Y1252220D01*
X4212600Y1251860D01*
X4218040Y1252220D01*
X4223380Y1253280D01*
X4228540Y1255040D01*
X4233440Y1257440D01*
X4237980Y1260480D01*
X4242080Y1264080D01*
X4245660Y1268180D01*
X4248700Y1272700D01*
X4251100Y1277600D01*
X4252860Y1282760D01*
X4253920Y1288100D01*
X4254280Y1293540D01*
X4253920Y1299000D01*
X4252860Y1304340D01*
X4251100Y1309500D01*
X4248700Y1314400D01*
X4245660Y1318920D01*
X4242080Y1323020D01*
X4237980Y1326620D01*
X4233440Y1329660D01*
X4228540Y1332060D01*
X4223380Y1333820D01*
X4218040Y1334880D01*
X4212600Y1335240D01*
X4207160Y1334880D01*
X4201800Y1333820D01*
X4196640Y1332060D01*
X4191760Y1329660D01*
X4187220Y1326620D01*
X4183120Y1323020D01*
X4179520Y1318920D01*
X4176500Y1314400D01*
X4174080Y1309500D01*
X4172320Y1304340D01*
X4171259Y1299000D01*
X4170899Y1293540D01*
X4171259Y1288100D01*
X4172320Y1282760D01*
X4173560Y1279140D01*
X4173759Y1277680D01*
X4173420Y1276260D01*
X4172600Y1275040D01*
X4162540Y1264980D01*
X4161240Y1264100D01*
X4159700Y1263800D01*
X4095120Y1263800D01*
X4093440Y1264180D01*
X4092080Y1265200D01*
X4091259Y1266720D01*
X4091160Y1268440D01*
X4091800Y1270020D01*
X4093580Y1272700D01*
X4096000Y1277600D01*
X4097740Y1282760D01*
X4098800Y1288100D01*
X4099160Y1293540D01*
X4098800Y1299000D01*
X4097740Y1304340D01*
X4096000Y1309500D01*
X4093580Y1314400D01*
X4090539Y1318920D01*
X4086960Y1323020D01*
X4082860Y1326620D01*
X4078320Y1329660D01*
X4073440Y1332060D01*
X4068260Y1333820D01*
X4062919Y1334880D01*
X4057480Y1335240D01*
X4052040Y1334880D01*
X4046680Y1333820D01*
X4043080Y1332600D01*
X4041620Y1332380D01*
X4040179Y1332720D01*
X4038960Y1333560D01*
X4025360Y1347160D01*
X4022900Y1349180D01*
X4020280Y1350580D01*
X4017440Y1351440D01*
X4014280Y1351759D01*
X3740880Y1351759D01*
X3739360Y1352060D01*
X3738060Y1352900D01*
X3737200Y1354180D01*
X3736880Y1355680D01*
X3737140Y1357200D01*
X3737980Y1358500D01*
X3739220Y1359400D01*
X3743039Y1361120D01*
X3748159Y1364220D01*
X3752860Y1367900D01*
X3757100Y1372140D01*
X3760779Y1376840D01*
X3763880Y1381960D01*
X3766340Y1387420D01*
X3768120Y1393140D01*
X3769200Y1399019D01*
X3769560Y1405000D01*
X3769200Y1410980D01*
X3768120Y1416860D01*
X3766340Y1422580D01*
X3763880Y1428040D01*
X3760779Y1433160D01*
X3757100Y1437860D01*
X3752860Y1442100D01*
X3748159Y1445780D01*
X3743039Y1448880D01*
X3737580Y1451339D01*
X3731860Y1453120D01*
X3725980Y1454199D01*
X3720000Y1454560D01*
X3714020Y1454199D01*
X3708140Y1453120D01*
X3702420Y1451339D01*
X3696960Y1448880D01*
X3691840Y1445780D01*
X3687140Y1442100D01*
X3682900Y1437860D01*
X3679220Y1433160D01*
X3676120Y1428040D01*
X3673660Y1422580D01*
X3671880Y1416860D01*
X3670800Y1410980D01*
X3670440Y1405000D01*
X3670800Y1399019D01*
X3671880Y1393140D01*
X3673660Y1387420D01*
X3676120Y1381960D01*
X3679220Y1376840D01*
X3682900Y1372140D01*
X3687140Y1367900D01*
X3691840Y1364220D01*
X3696960Y1361120D01*
X3700779Y1359400D01*
X3702020Y1358500D01*
X3702860Y1357200D01*
X3703120Y1355680D01*
X3702799Y1354180D01*
X3701940Y1352900D01*
X3700640Y1352060D01*
X3699120Y1351759D01*
X3340880Y1351759D01*
X3339360Y1352060D01*
X3338060Y1352900D01*
X3337200Y1354180D01*
X3336880Y1355680D01*
X3337140Y1357200D01*
X3337980Y1358500D01*
X3339220Y1359400D01*
X3343039Y1361120D01*
X3348159Y1364220D01*
X3352860Y1367900D01*
X3357100Y1372140D01*
X3360779Y1376840D01*
X3363880Y1381960D01*
X3366340Y1387420D01*
X3368120Y1393140D01*
X3369200Y1399019D01*
X3369560Y1405000D01*
X3369200Y1410980D01*
X3368120Y1416860D01*
X3366340Y1422580D01*
X3363880Y1428040D01*
X3360779Y1433160D01*
X3357100Y1437860D01*
X3352860Y1442100D01*
X3348159Y1445780D01*
X3343039Y1448880D01*
X3337580Y1451339D01*
X3331860Y1453120D01*
X3325980Y1454199D01*
X3320000Y1454560D01*
X3314020Y1454199D01*
X3308140Y1453120D01*
X3302420Y1451339D01*
X3296960Y1448880D01*
X3291840Y1445780D01*
X3287140Y1442100D01*
X3282900Y1437860D01*
X3279220Y1433160D01*
X3276120Y1428040D01*
X3273660Y1422560D01*
X3272780Y1421320D01*
X3271500Y1420500D01*
X3270000Y1420200D01*
X2929440Y1420200D01*
X2926280Y1419900D01*
X2923440Y1419040D01*
X2920800Y1417620D01*
X2918360Y1415620D01*
X2825500Y1322760D01*
X2824220Y1321900D01*
X2822679Y1321600D01*
X2821139Y1321900D01*
X2819860Y1322760D01*
X2322440Y1820180D01*
X2319980Y1822180D01*
X2317360Y1823600D01*
X2314520Y1824460D01*
X2311360Y1824760D01*
X2094740Y1824760D01*
X2093200Y1825060D01*
X2091900Y1825940D01*
X2056500Y1861339D01*
X2055640Y1862640D01*
X2055340Y1864160D01*
X2055640Y1865700D01*
X2056500Y1867000D01*
X2057800Y1867860D01*
X2059340Y1868160D01*
X3046000Y1868160D01*
X3047520Y1867860D01*
X3048820Y1867000D01*
X3254760Y1661040D01*
X3255620Y1659760D01*
X3255940Y1658260D01*
X3255659Y1656740D01*
X3254820Y1655440D01*
X3253540Y1654560D01*
X3252040Y1654220D01*
X3244660Y1654040D01*
X3237580Y1653120D01*
X3230640Y1651480D01*
X3223920Y1649139D01*
X3217460Y1646120D01*
X3211340Y1642460D01*
X3205640Y1638180D01*
X3200419Y1633320D01*
X3195700Y1627980D01*
X3191580Y1622160D01*
X3188060Y1615960D01*
X3185200Y1609420D01*
X3183039Y1602640D01*
X3181580Y1595660D01*
X3180840Y1588560D01*
X3180840Y1581440D01*
X3181580Y1574340D01*
X3183039Y1567360D01*
X3185200Y1560580D01*
X3188060Y1554040D01*
X3191580Y1547840D01*
X3195700Y1542020D01*
X3200419Y1536680D01*
X3205640Y1531819D01*
X3211340Y1527540D01*
X3217460Y1523880D01*
X3223920Y1520860D01*
X3230640Y1518520D01*
X3237580Y1516879D01*
X3244660Y1515960D01*
X3251780Y1515780D01*
X3258900Y1516320D01*
X3265899Y1517600D01*
X3272740Y1519600D01*
X3279360Y1522280D01*
X3285640Y1525640D01*
X3291560Y1529620D01*
X3297040Y1534180D01*
X3302020Y1539280D01*
X3306440Y1544880D01*
X3310260Y1550900D01*
X3313460Y1557280D01*
X3315960Y1563940D01*
X3317780Y1570840D01*
X3318880Y1577880D01*
X3319240Y1585000D01*
X3319160Y1586819D01*
X3319380Y1588380D01*
X3320220Y1589740D01*
X3321520Y1590680D01*
X3323080Y1591020D01*
X3324640Y1590720D01*
X3325980Y1589840D01*
X3353320Y1562500D01*
X3354200Y1561200D01*
X3354500Y1559660D01*
X3354500Y1545200D01*
X3354820Y1542040D01*
X3355680Y1539199D01*
X3357080Y1536579D01*
X3358960Y1534280D01*
X3361259Y1532380D01*
X3363900Y1530980D01*
X3368380Y1529680D01*
X3369560Y1528800D01*
X3370320Y1527560D01*
X3370600Y1526120D01*
X3370600Y1496020D01*
X3370880Y1493520D01*
X3371620Y1491380D01*
X3372840Y1489440D01*
X3374440Y1487840D01*
X3376380Y1486620D01*
X3378519Y1485880D01*
X3381019Y1485580D01*
X3478980Y1485580D01*
X3481480Y1485880D01*
X3483620Y1486620D01*
X3485560Y1487840D01*
X3487160Y1489440D01*
X3488380Y1491380D01*
X3489120Y1493520D01*
X3489420Y1496020D01*
X3489420Y1525800D01*
X3489720Y1527340D01*
X3490580Y1528640D01*
X3491880Y1529500D01*
X3493420Y1529800D01*
X3627260Y1529800D01*
X3628740Y1529520D01*
X3630020Y1528680D01*
X3634220Y1521840D01*
X3637900Y1517140D01*
X3642140Y1512900D01*
X3646840Y1509220D01*
X3651960Y1506120D01*
X3657420Y1503660D01*
X3663140Y1501879D01*
X3669020Y1500800D01*
X3675000Y1500440D01*
X3680980Y1500800D01*
X3686860Y1501879D01*
X3692580Y1503660D01*
X3698039Y1506120D01*
X3703159Y1509220D01*
X3707860Y1512900D01*
X3712100Y1517140D01*
X3715779Y1521840D01*
X3718880Y1526960D01*
X3721340Y1532420D01*
X3723120Y1538140D01*
X3724200Y1544019D01*
X3724560Y1550000D01*
X3724200Y1555980D01*
X3723120Y1561860D01*
X3721340Y1567580D01*
X3718880Y1573040D01*
X3715779Y1578160D01*
X3712100Y1582860D01*
X3707860Y1587100D01*
X3703159Y1590780D01*
X3698039Y1593880D01*
X3692580Y1596339D01*
X3686860Y1598120D01*
X3680980Y1599199D01*
X3675000Y1599560D01*
X3669020Y1599199D01*
X3663140Y1598120D01*
X3657420Y1596339D01*
X3651960Y1593880D01*
X3646840Y1590780D01*
X3642140Y1587100D01*
X3637900Y1582860D01*
X3634220Y1578160D01*
X3631120Y1573040D01*
X3628660Y1567580D01*
X3627240Y1563020D01*
X3626420Y1561560D01*
X3625059Y1560560D01*
X3623420Y1560200D01*
X3493420Y1560200D01*
X3491880Y1560500D01*
X3490580Y1561380D01*
X3489720Y1562680D01*
X3489420Y1564199D01*
X3489420Y1593980D01*
X3489120Y1596480D01*
X3488380Y1598620D01*
X3487160Y1600560D01*
X3485560Y1602160D01*
X3483620Y1603380D01*
X3481480Y1604120D01*
X3478980Y1604400D01*
X3381019Y1604400D01*
X3378519Y1604120D01*
X3376380Y1603380D01*
X3374440Y1602160D01*
X3372840Y1600560D01*
X3371620Y1598620D01*
X3370760Y1596160D01*
X3369940Y1594780D01*
X3368639Y1593839D01*
X3367080Y1593480D01*
X3365500Y1593760D01*
X3364160Y1594660D01*
X3064840Y1893980D01*
X3062380Y1895980D01*
X3059760Y1897400D01*
X3056920Y1898260D01*
X3053759Y1898560D01*
X2046440Y1898560D01*
X2044920Y1898860D01*
X2043620Y1899740D01*
X1807740Y2135620D01*
X1805280Y2137620D01*
X1802660Y2139040D01*
X1799820Y2139900D01*
X1796660Y2140200D01*
X428020Y2140200D01*
X426500Y2140500D01*
X425220Y2141340D01*
X424360Y2142580D01*
X423300Y2144980D01*
X420420Y2149720D01*
X416980Y2154040D01*
X413000Y2157880D01*
X408560Y2161200D01*
X403740Y2163920D01*
X398620Y2166000D01*
X393260Y2167400D01*
X387760Y2168100D01*
X382239Y2168100D01*
X376740Y2167400D01*
X371380Y2166000D01*
X366260Y2163920D01*
X361440Y2161200D01*
X357000Y2157880D01*
X353020Y2154040D01*
X349580Y2149720D01*
X346700Y2144980D01*
X344460Y2139920D01*
X342900Y2134620D01*
X342000Y2129140D01*
X341840Y2123620D01*
X342360Y2118100D01*
X343600Y2112720D01*
X345500Y2107520D01*
X348060Y2102600D01*
X351240Y2098080D01*
X354960Y2093980D01*
X359159Y2090380D01*
X363800Y2087360D01*
X368800Y2084960D01*
X374040Y2083220D01*
X379480Y2082160D01*
X385000Y2081800D01*
X390520Y2082160D01*
X395959Y2083220D01*
X401200Y2084960D01*
X406200Y2087360D01*
X410840Y2090380D01*
X415040Y2093980D01*
X418760Y2098080D01*
X421940Y2102600D01*
X424560Y2107660D01*
X425460Y2108800D01*
X426700Y2109540D01*
X428120Y2109800D01*
X1788899Y2109800D01*
X1790420Y2109500D01*
X1791720Y2108640D01*
X1853320Y2047040D01*
X1854199Y2045740D01*
X1854500Y2044199D01*
X1854199Y2042680D01*
X1853320Y2041380D01*
X1852020Y2040500D01*
X1850500Y2040200D01*
X428020Y2040200D01*
X426500Y2040500D01*
X425220Y2041339D01*
X424360Y2042580D01*
X423300Y2044980D01*
X420420Y2049720D01*
X416980Y2054040D01*
X413000Y2057880D01*
X408560Y2061200D01*
X403740Y2063920D01*
X398620Y2066000D01*
X393260Y2067400D01*
X387760Y2068100D01*
X382239Y2068100D01*
X376740Y2067400D01*
X371380Y2066000D01*
X366260Y2063920D01*
X361440Y2061200D01*
X357000Y2057880D01*
X353020Y2054040D01*
X349580Y2049720D01*
X346700Y2044980D01*
X344460Y2039920D01*
X342900Y2034620D01*
X342000Y2029139D01*
X341840Y2023620D01*
X342360Y2018100D01*
X343600Y2012720D01*
X345500Y2007520D01*
X348060Y2002600D01*
X351240Y1998080D01*
X352299Y1996900D01*
X353100Y1995580D01*
X353340Y1994079D01*
X353000Y1992580D01*
X352120Y1991339D01*
X350840Y1990500D01*
X349340Y1990200D01*
X342960Y1990200D01*
X341420Y1990500D01*
X340120Y1991380D01*
X326160Y2005340D01*
X325319Y2006579D01*
X325000Y2008060D01*
X325240Y2009540D01*
X326400Y2012720D01*
X327640Y2018100D01*
X328160Y2023620D01*
X328000Y2029139D01*
X327100Y2034620D01*
X325540Y2039920D01*
X323300Y2044980D01*
X320420Y2049720D01*
X316980Y2054040D01*
X313000Y2057880D01*
X308560Y2061200D01*
X303740Y2063920D01*
X298620Y2066000D01*
X293260Y2067400D01*
X287760Y2068100D01*
X282240Y2068100D01*
X276740Y2067400D01*
X271380Y2066000D01*
X266260Y2063920D01*
X261439Y2061200D01*
X257000Y2057880D01*
X253020Y2054040D01*
X249579Y2049720D01*
X246700Y2044980D01*
X244460Y2039920D01*
X242900Y2034620D01*
X242000Y2029139D01*
X241840Y2023620D01*
X242360Y2018100D01*
X243600Y2012720D01*
X245500Y2007520D01*
X248060Y2002600D01*
X251240Y1998080D01*
X254960Y1993980D01*
X259160Y1990380D01*
X263800Y1987360D01*
X268800Y1984960D01*
X274040Y1983220D01*
X279480Y1982160D01*
X285000Y1981800D01*
X290520Y1982160D01*
X295960Y1983220D01*
X300620Y1984760D01*
X302080Y1984960D01*
X303500Y1984640D01*
X304700Y1983800D01*
X324120Y1964400D01*
X326560Y1962380D01*
X329200Y1960980D01*
X332040Y1960120D01*
X335200Y1959800D01*
X349320Y1959800D01*
X350780Y1959520D01*
X352040Y1958740D01*
X352920Y1957540D01*
X353300Y1956100D01*
X353140Y1954620D01*
X352440Y1953320D01*
X349580Y1949720D01*
X346700Y1944980D01*
X344460Y1939920D01*
X342900Y1934620D01*
X342000Y1929139D01*
X341840Y1923620D01*
X342360Y1918100D01*
X343600Y1912720D01*
X345500Y1907520D01*
X348060Y1902600D01*
X351240Y1898080D01*
X354960Y1893980D01*
X359159Y1890380D01*
X363800Y1887360D01*
X368800Y1884960D01*
X374040Y1883220D01*
X379480Y1882160D01*
X385000Y1881800D01*
X390520Y1882160D01*
X395959Y1883220D01*
X401200Y1884960D01*
X406200Y1887360D01*
X410840Y1890380D01*
X415040Y1893980D01*
X418760Y1898080D01*
X421940Y1902600D01*
X424500Y1907520D01*
X426400Y1912720D01*
X427640Y1918100D01*
X428160Y1923620D01*
X428000Y1929139D01*
X427100Y1934620D01*
X425540Y1939920D01*
X423300Y1944980D01*
X420420Y1949720D01*
X417560Y1953320D01*
X416860Y1954620D01*
X416700Y1956100D01*
X417080Y1957540D01*
X417960Y1958740D01*
X419219Y1959520D01*
X420680Y1959800D01*
X1841840Y1959800D01*
X1843360Y1959500D01*
X1844660Y1958640D01*
X2035720Y1767580D01*
X2038160Y1765580D01*
X2040800Y1764160D01*
X2043640Y1763300D01*
X2046800Y1763000D01*
X2110200Y1763000D01*
X2111720Y1762700D01*
X2113020Y1761819D01*
X2685940Y1188920D01*
X2686800Y1187620D01*
X2687100Y1186080D01*
X2686800Y1184560D01*
X2685940Y1183260D01*
X2684640Y1182380D01*
X2683100Y1182080D01*
X2679680Y1182080D01*
X2678159Y1182380D01*
X2676860Y1183260D01*
X2615580Y1244540D01*
X2613120Y1246540D01*
X2610500Y1247960D01*
X2607660Y1248820D01*
X2604500Y1249120D01*
X2506660Y1249120D01*
X2505000Y1249480D01*
X2503640Y1250500D01*
X2502820Y1251980D01*
X2502700Y1253680D01*
X2503280Y1255260D01*
X2505160Y1258220D01*
X2507580Y1263360D01*
X2509340Y1268760D01*
X2510400Y1274340D01*
X2510760Y1280000D01*
X2510400Y1285660D01*
X2509340Y1291240D01*
X2507580Y1296639D01*
X2505160Y1301780D01*
X2502120Y1306560D01*
X2498500Y1310940D01*
X2494360Y1314820D01*
X2489780Y1318160D01*
X2484800Y1320900D01*
X2479520Y1322980D01*
X2474040Y1324400D01*
X2468400Y1325100D01*
X2462720Y1325100D01*
X2457100Y1324400D01*
X2451600Y1322980D01*
X2448660Y1321819D01*
X2447140Y1321540D01*
X2445640Y1321840D01*
X2444360Y1322700D01*
X2416440Y1350620D01*
X2414000Y1352620D01*
X2411360Y1354040D01*
X2408520Y1354900D01*
X2405360Y1355200D01*
X2292500Y1355200D01*
X2291000Y1355500D01*
X2289720Y1356320D01*
X2288840Y1357560D01*
X2286380Y1363040D01*
X2283280Y1368160D01*
X2279600Y1372860D01*
X2275360Y1377100D01*
X2270660Y1380780D01*
X2265540Y1383880D01*
X2260080Y1386339D01*
X2254360Y1388120D01*
X2248480Y1389199D01*
X2242500Y1389560D01*
X2236520Y1389199D01*
X2230640Y1388120D01*
X2224920Y1386339D01*
X2219460Y1383880D01*
X2214340Y1380780D01*
X2209640Y1377100D01*
X2205400Y1372860D01*
X2201720Y1368160D01*
X2198620Y1363040D01*
X2196160Y1357580D01*
X2194380Y1351860D01*
X2193300Y1345980D01*
X2192940Y1340000D01*
X2193300Y1334019D01*
X2194380Y1328140D01*
X2196160Y1322420D01*
X2198620Y1316960D01*
X2201720Y1311840D01*
X2205500Y1307040D01*
X2206360Y1305740D01*
X2206680Y1304199D01*
X2206360Y1302680D01*
X2205500Y1301380D01*
X2204200Y1300500D01*
X2202680Y1300200D01*
X2159660Y1300200D01*
X2158120Y1300500D01*
X2156820Y1301380D01*
X1995520Y1462680D01*
X1993060Y1464700D01*
X1990440Y1466100D01*
X1987600Y1466960D01*
X1984440Y1467280D01*
X1765880Y1467280D01*
X1764360Y1467580D01*
X1763060Y1468440D01*
X1726160Y1505340D01*
X1725320Y1506579D01*
X1725000Y1508060D01*
X1725240Y1509540D01*
X1726399Y1512720D01*
X1727640Y1518100D01*
X1728160Y1523620D01*
X1728000Y1529139D01*
X1727100Y1534620D01*
X1725540Y1539920D01*
X1723300Y1544980D01*
X1720420Y1549720D01*
X1716980Y1554040D01*
X1713000Y1557880D01*
X1708560Y1561200D01*
X1703740Y1563920D01*
X1698620Y1566000D01*
X1693260Y1567400D01*
X1687760Y1568100D01*
X1682240Y1568100D01*
X1676740Y1567400D01*
X1671380Y1566000D01*
X1666260Y1563920D01*
X1661440Y1561200D01*
X1657000Y1557880D01*
X1653020Y1554040D01*
X1649580Y1549720D01*
X1646699Y1544980D01*
X1645640Y1542580D01*
X1644780Y1541339D01*
X1643500Y1540500D01*
X1641980Y1540200D01*
X1628020Y1540200D01*
X1626500Y1540500D01*
X1625220Y1541339D01*
X1624360Y1542580D01*
X1623300Y1544980D01*
X1620420Y1549720D01*
X1616980Y1554040D01*
X1613000Y1557880D01*
X1608560Y1561200D01*
X1603740Y1563920D01*
X1598620Y1566000D01*
X1593260Y1567400D01*
X1587760Y1568100D01*
X1582240Y1568100D01*
X1576740Y1567400D01*
X1571380Y1566000D01*
X1566260Y1563920D01*
X1561440Y1561200D01*
X1557000Y1557880D01*
X1553020Y1554040D01*
X1549580Y1549720D01*
X1546699Y1544980D01*
X1544460Y1539920D01*
X1542900Y1534620D01*
X1542000Y1529139D01*
X1541840Y1523620D01*
X1542360Y1518100D01*
X1543600Y1512720D01*
X1545500Y1507520D01*
X1548060Y1502600D01*
X1551240Y1498080D01*
X1554960Y1493980D01*
X1559160Y1490380D01*
X1563800Y1487360D01*
X1568800Y1484960D01*
X1574040Y1483220D01*
X1579480Y1482160D01*
X1585000Y1481800D01*
X1590520Y1482160D01*
X1595960Y1483220D01*
X1601200Y1484960D01*
X1606200Y1487360D01*
X1610840Y1490380D01*
X1615040Y1493980D01*
X1618760Y1498080D01*
X1621940Y1502600D01*
X1624560Y1507660D01*
X1625460Y1508800D01*
X1626699Y1509540D01*
X1628120Y1509800D01*
X1641879Y1509800D01*
X1643300Y1509540D01*
X1644540Y1508800D01*
X1645440Y1507660D01*
X1648060Y1502600D01*
X1651240Y1498080D01*
X1654960Y1493980D01*
X1659160Y1490380D01*
X1663800Y1487360D01*
X1668800Y1484960D01*
X1674040Y1483220D01*
X1679480Y1482160D01*
X1685000Y1481800D01*
X1690520Y1482160D01*
X1695960Y1483220D01*
X1700620Y1484760D01*
X1702080Y1484960D01*
X1703500Y1484640D01*
X1704700Y1483800D01*
X1747040Y1441459D01*
X1749500Y1439460D01*
X1752120Y1438040D01*
X1754960Y1437180D01*
X1758120Y1436879D01*
X1976680Y1436879D01*
X1978200Y1436579D01*
X1979500Y1435700D01*
X2140820Y1274400D01*
X2143260Y1272380D01*
X2145900Y1270980D01*
X2148740Y1270120D01*
X2151900Y1269800D01*
X2202680Y1269800D01*
X2204220Y1269500D01*
X2205520Y1268640D01*
X2206380Y1267340D01*
X2206680Y1265800D01*
X2206380Y1264280D01*
X2205400Y1262860D01*
X2201720Y1258160D01*
X2198620Y1253040D01*
X2196160Y1247580D01*
X2194380Y1241860D01*
X2193300Y1235980D01*
X2192940Y1230000D01*
X2193300Y1224020D01*
X2194380Y1218140D01*
X2196160Y1212420D01*
X2198620Y1206960D01*
X2201720Y1201840D01*
X2205400Y1197140D01*
X2209640Y1192900D01*
X2211220Y1191660D01*
X2212280Y1190400D01*
X2212740Y1188820D01*
X2212540Y1187200D01*
X2211700Y1185800D01*
X2210360Y1184840D01*
X2208760Y1184500D01*
X1876240Y1184500D01*
X1874640Y1184840D01*
X1873300Y1185800D01*
X1872460Y1187200D01*
X1872260Y1188820D01*
X1872720Y1190400D01*
X1873779Y1191660D01*
X1875360Y1192900D01*
X1879600Y1197140D01*
X1883280Y1201840D01*
X1886380Y1206960D01*
X1888839Y1212420D01*
X1890620Y1218140D01*
X1891699Y1224020D01*
X1892060Y1230000D01*
X1891699Y1235980D01*
X1890620Y1241860D01*
X1888839Y1247580D01*
X1886380Y1253040D01*
X1883280Y1258160D01*
X1879600Y1262860D01*
X1875360Y1267100D01*
X1870660Y1270780D01*
X1865540Y1273880D01*
X1860080Y1276340D01*
X1854360Y1278120D01*
X1848480Y1279200D01*
X1842500Y1279560D01*
X1836519Y1279200D01*
X1830640Y1278120D01*
X1824920Y1276340D01*
X1819460Y1273880D01*
X1814340Y1270780D01*
X1809640Y1267100D01*
X1805400Y1262860D01*
X1801720Y1258160D01*
X1798620Y1253040D01*
X1796160Y1247580D01*
X1794379Y1241860D01*
X1793300Y1235980D01*
X1792940Y1230000D01*
X1793300Y1224020D01*
X1794379Y1218140D01*
X1796160Y1212420D01*
X1798620Y1206960D01*
X1801720Y1201840D01*
X1805400Y1197140D01*
X1809640Y1192900D01*
X1811220Y1191660D01*
X1812280Y1190400D01*
X1812740Y1188820D01*
X1812540Y1187200D01*
X1811699Y1185800D01*
X1810360Y1184840D01*
X1808760Y1184500D01*
X1714800Y1184500D01*
X1713220Y1184840D01*
X1711900Y1185760D01*
X1711040Y1187120D01*
X1710800Y1188720D01*
X1711220Y1190280D01*
X1712200Y1191560D01*
X1715040Y1193980D01*
X1718760Y1198080D01*
X1721940Y1202600D01*
X1724500Y1207520D01*
X1726399Y1212720D01*
X1727640Y1218100D01*
X1728160Y1223620D01*
X1728000Y1229140D01*
X1727100Y1234620D01*
X1725540Y1239920D01*
X1723300Y1244980D01*
X1720420Y1249720D01*
X1716980Y1254040D01*
X1713000Y1257880D01*
X1708560Y1261200D01*
X1703740Y1263920D01*
X1698620Y1266000D01*
X1693260Y1267400D01*
X1687760Y1268100D01*
X1682240Y1268100D01*
X1676740Y1267400D01*
X1671380Y1266000D01*
X1666260Y1263920D01*
X1661440Y1261200D01*
X1657000Y1257880D01*
X1653020Y1254040D01*
X1649580Y1249720D01*
X1646699Y1244980D01*
X1644460Y1239920D01*
X1642900Y1234620D01*
X1642000Y1229140D01*
X1641840Y1223620D01*
X1642360Y1218100D01*
X1643600Y1212720D01*
X1645500Y1207520D01*
X1648060Y1202600D01*
X1651240Y1198080D01*
X1654960Y1193980D01*
X1657800Y1191560D01*
X1658800Y1190280D01*
X1659199Y1188720D01*
X1658959Y1187120D01*
X1658100Y1185760D01*
X1656780Y1184840D01*
X1655200Y1184500D01*
X1614800Y1184500D01*
X1613220Y1184840D01*
X1611900Y1185760D01*
X1611040Y1187120D01*
X1610800Y1188720D01*
X1611220Y1190280D01*
X1612200Y1191560D01*
X1615040Y1193980D01*
X1618760Y1198080D01*
X1621940Y1202600D01*
X1624500Y1207520D01*
X1626399Y1212720D01*
X1627640Y1218100D01*
X1628160Y1223620D01*
X1628000Y1229140D01*
X1627100Y1234620D01*
X1625540Y1239920D01*
X1623300Y1244980D01*
X1620420Y1249720D01*
X1616980Y1254040D01*
X1613000Y1257880D01*
X1608560Y1261200D01*
X1603740Y1263920D01*
X1598620Y1266000D01*
X1593260Y1267400D01*
X1587760Y1268100D01*
X1582240Y1268100D01*
X1576740Y1267400D01*
X1571380Y1266000D01*
X1566260Y1263920D01*
X1561440Y1261200D01*
X1557000Y1257880D01*
X1553020Y1254040D01*
X1549580Y1249720D01*
X1546699Y1244980D01*
X1544460Y1239920D01*
X1542900Y1234620D01*
X1542000Y1229140D01*
X1541840Y1223620D01*
X1542360Y1218100D01*
X1543600Y1212720D01*
X1545500Y1207520D01*
X1548060Y1202600D01*
X1551240Y1198080D01*
X1554960Y1193980D01*
X1557800Y1191560D01*
X1558800Y1190280D01*
X1559199Y1188720D01*
X1558959Y1187120D01*
X1558100Y1185760D01*
X1556780Y1184840D01*
X1555200Y1184500D01*
X414799Y1184500D01*
X413220Y1184840D01*
X411900Y1185760D01*
X411040Y1187120D01*
X410800Y1188720D01*
X411220Y1190280D01*
X412200Y1191560D01*
X415040Y1193980D01*
X418760Y1198080D01*
X421940Y1202600D01*
X424500Y1207520D01*
X426400Y1212720D01*
X427640Y1218100D01*
X428160Y1223620D01*
X428000Y1229140D01*
X427100Y1234620D01*
X425540Y1239920D01*
X423300Y1244980D01*
X420420Y1249720D01*
X416980Y1254040D01*
X413000Y1257880D01*
X408560Y1261200D01*
X403740Y1263920D01*
X398620Y1266000D01*
X393260Y1267400D01*
X387760Y1268100D01*
X382239Y1268100D01*
X376740Y1267400D01*
X371380Y1266000D01*
X369660Y1265300D01*
X368140Y1265000D01*
X366620Y1265300D01*
X365340Y1266180D01*
X351740Y1279760D01*
X349280Y1281780D01*
X346659Y1283180D01*
X343820Y1284040D01*
X340660Y1284360D01*
X314620Y1284360D01*
X313040Y1284680D01*
X311720Y1285600D01*
X310860Y1286980D01*
X310620Y1288560D01*
X311040Y1290120D01*
X312020Y1291399D01*
X315040Y1293980D01*
X318760Y1298080D01*
X321940Y1302600D01*
X324500Y1307520D01*
X326400Y1312720D01*
X327640Y1318100D01*
X328160Y1323620D01*
X328000Y1329139D01*
X327100Y1334620D01*
X325540Y1339920D01*
X323300Y1344980D01*
X320420Y1349720D01*
X316980Y1354040D01*
X313000Y1357880D01*
X308560Y1361200D01*
X303740Y1363920D01*
X298620Y1366000D01*
X293260Y1367400D01*
X287760Y1368100D01*
X282240Y1368100D01*
X276740Y1367400D01*
X271380Y1366000D01*
X266260Y1363920D01*
X261439Y1361200D01*
X257000Y1357880D01*
X253020Y1354040D01*
X249579Y1349720D01*
X246700Y1344980D01*
X244460Y1339920D01*
X242900Y1334620D01*
X242000Y1329139D01*
X241840Y1323620D01*
X242360Y1318100D01*
X243600Y1312720D01*
X245500Y1307520D01*
X248060Y1302600D01*
X251240Y1298080D01*
X254960Y1293980D01*
X258800Y1290700D01*
X259820Y1289340D01*
X260200Y1287700D01*
X259860Y1286020D01*
X258840Y1284660D01*
X257360Y1283820D01*
X255240Y1283180D01*
X252600Y1281780D01*
X250159Y1279760D01*
X224140Y1253760D01*
X222120Y1251300D01*
X220720Y1248680D01*
X219860Y1245820D01*
X219560Y1242660D01*
X219560Y1106220D01*
X219860Y1103060D01*
X220720Y1100200D01*
X222120Y1097580D01*
X224140Y1095120D01*
X254880Y1064400D01*
X256200Y1063320D01*
X257240Y1062000D01*
X257659Y1060380D01*
X257380Y1058740D01*
X256439Y1057340D01*
X253020Y1054040D01*
X249579Y1049720D01*
X246700Y1044980D01*
X244460Y1039920D01*
X242900Y1034620D01*
X242000Y1029140D01*
X241840Y1023620D01*
X242360Y1018100D01*
X243600Y1012720D01*
X245500Y1007520D01*
X248060Y1002600D01*
X251240Y998080D01*
X254960Y993980D01*
X259160Y990380D01*
X263800Y987360D01*
X268800Y984960D01*
X274040Y983220D01*
X279480Y982159D01*
X285000Y981800D01*
X290520Y982159D01*
X295960Y983220D01*
X301200Y984960D01*
X306200Y987360D01*
X310840Y990380D01*
X315040Y993980D01*
X318760Y998080D01*
X321940Y1002600D01*
X324500Y1007520D01*
X326400Y1012720D01*
X327640Y1018100D01*
X328160Y1023620D01*
X328000Y1029140D01*
X327100Y1034620D01*
X325540Y1039920D01*
X323300Y1044980D01*
X320420Y1049720D01*
X317560Y1053320D01*
X316860Y1054620D01*
X316700Y1056100D01*
X317080Y1057540D01*
X317960Y1058740D01*
X319220Y1059520D01*
X320680Y1059800D01*
X349320Y1059800D01*
X350780Y1059520D01*
X352040Y1058740D01*
X352920Y1057540D01*
X353300Y1056100D01*
X353140Y1054620D01*
X352440Y1053320D01*
X349580Y1049720D01*
X346700Y1044980D01*
X344460Y1039920D01*
X342900Y1034620D01*
X342000Y1029140D01*
X341840Y1023620D01*
X342360Y1018100D01*
X343600Y1012720D01*
X345500Y1007520D01*
X348060Y1002600D01*
X351240Y998080D01*
X354960Y993980D01*
X359159Y990380D01*
X363800Y987360D01*
X368800Y984960D01*
X374040Y983220D01*
X379480Y982159D01*
X385000Y981800D01*
X390520Y982159D01*
X395959Y983220D01*
X401200Y984960D01*
X406200Y987360D01*
X410840Y990380D01*
X415040Y993980D01*
X418760Y998080D01*
X421940Y1002600D01*
X424500Y1007520D01*
X426400Y1012720D01*
X427640Y1018100D01*
X428160Y1023620D01*
X428000Y1029140D01*
X427100Y1034620D01*
X425540Y1039920D01*
X423300Y1044980D01*
X420420Y1049720D01*
X417560Y1053320D01*
X416860Y1054620D01*
X416700Y1056100D01*
X417080Y1057540D01*
X417960Y1058740D01*
X419219Y1059520D01*
X421120Y1059800D01*
X422660Y1059500D01*
X423960Y1058640D01*
X512520Y970060D01*
X514980Y968060D01*
X517600Y966640D01*
X520439Y965780D01*
X523600Y965480D01*
X1555120Y965480D01*
X1556740Y965140D01*
X1558080Y964160D01*
X1558920Y962740D01*
X1559100Y961100D01*
X1558600Y959520D01*
X1557520Y958259D01*
X1557000Y957880D01*
X1553020Y954040D01*
X1549580Y949720D01*
X1546699Y944980D01*
X1544460Y939920D01*
X1542900Y934620D01*
X1542000Y929140D01*
X1541840Y923620D01*
X1542360Y918100D01*
X1543600Y912720D01*
X1545500Y907520D01*
X1548060Y902600D01*
X1550420Y899220D01*
X1551080Y897620D01*
X1551000Y895900D01*
X1550200Y894360D01*
X1548839Y893300D01*
X1547140Y892940D01*
X440220Y892940D01*
X438700Y893240D01*
X437400Y894100D01*
X426160Y905340D01*
X425319Y906580D01*
X425000Y908060D01*
X425240Y909539D01*
X426400Y912720D01*
X427640Y918100D01*
X428160Y923620D01*
X428000Y929140D01*
X427100Y934620D01*
X425540Y939920D01*
X423300Y944980D01*
X420420Y949720D01*
X416980Y954040D01*
X413000Y957880D01*
X408560Y961200D01*
X403740Y963920D01*
X398620Y966000D01*
X393260Y967400D01*
X387760Y968100D01*
X382239Y968100D01*
X376740Y967400D01*
X371380Y966000D01*
X366260Y963920D01*
X361440Y961200D01*
X357000Y957880D01*
X353020Y954040D01*
X349580Y949720D01*
X346700Y944980D01*
X344460Y939920D01*
X342900Y934620D01*
X342000Y929140D01*
X341840Y923620D01*
X342360Y918100D01*
X343600Y912720D01*
X345500Y907520D01*
X348060Y902600D01*
X351240Y898080D01*
X354960Y893980D01*
X359159Y890380D01*
X363800Y887360D01*
X368800Y884960D01*
X374040Y883220D01*
X379480Y882159D01*
X385000Y881800D01*
X390520Y882159D01*
X395959Y883220D01*
X400620Y884760D01*
X402080Y884960D01*
X403500Y884640D01*
X404700Y883800D01*
X421380Y867120D01*
X423840Y865120D01*
X426460Y863700D01*
X429300Y862840D01*
X432460Y862540D01*
X1551920Y862540D01*
X1553460Y862220D01*
X1554760Y861340D01*
X1555620Y860040D01*
X1555920Y858500D01*
X1555600Y856960D01*
X1554700Y855660D01*
X1553020Y854040D01*
X1549580Y849720D01*
X1546699Y844980D01*
X1544460Y839920D01*
X1542900Y834620D01*
X1542000Y829140D01*
X1541840Y823620D01*
X1542360Y818100D01*
X1543600Y812720D01*
X1545500Y807520D01*
X1548060Y802600D01*
X1548920Y801380D01*
X1549580Y799780D01*
X1549500Y798060D01*
X1548700Y796520D01*
X1547320Y795460D01*
X1545640Y795100D01*
X438060Y795100D01*
X436540Y795400D01*
X435240Y796260D01*
X426160Y805340D01*
X425319Y806580D01*
X425000Y808060D01*
X425240Y809539D01*
X426400Y812720D01*
X427640Y818100D01*
X428160Y823620D01*
X428000Y829140D01*
X427100Y834620D01*
X425540Y839920D01*
X423300Y844980D01*
X420420Y849720D01*
X416980Y854040D01*
X413000Y857880D01*
X408560Y861200D01*
X403740Y863920D01*
X398620Y866000D01*
X393260Y867400D01*
X387760Y868100D01*
X382239Y868100D01*
X376740Y867400D01*
X371380Y866000D01*
X366260Y863920D01*
X362060Y861560D01*
X360480Y861060D01*
X358840Y861240D01*
X357420Y862080D01*
X356440Y863420D01*
X356100Y865040D01*
X356100Y868900D01*
X355780Y872060D01*
X354920Y874920D01*
X353519Y877540D01*
X351500Y880000D01*
X326160Y905340D01*
X325319Y906580D01*
X325000Y908060D01*
X325240Y909539D01*
X326400Y912720D01*
X327640Y918100D01*
X328160Y923620D01*
X328000Y929140D01*
X327100Y934620D01*
X325540Y939920D01*
X323300Y944980D01*
X320420Y949720D01*
X316980Y954040D01*
X313000Y957880D01*
X308560Y961200D01*
X303740Y963920D01*
X298620Y966000D01*
X293260Y967400D01*
X287760Y968100D01*
X282240Y968100D01*
X276740Y967400D01*
X271380Y966000D01*
X266260Y963920D01*
X261439Y961200D01*
X257000Y957880D01*
X253020Y954040D01*
X249579Y949720D01*
X246700Y944980D01*
X244460Y939920D01*
X242900Y934620D01*
X242000Y929140D01*
X241840Y923620D01*
X242360Y918100D01*
X243600Y912720D01*
X245500Y907520D01*
X248060Y902600D01*
X251240Y898080D01*
X254960Y893980D01*
X259160Y890380D01*
X263800Y887360D01*
X268800Y884960D01*
X274040Y883220D01*
X279480Y882159D01*
X285000Y881800D01*
X290520Y882159D01*
X295960Y883220D01*
X300620Y884760D01*
X302080Y884960D01*
X303500Y884640D01*
X304700Y883800D01*
X324520Y863980D01*
X325400Y862680D01*
X325700Y861160D01*
X325700Y854520D01*
X325360Y852920D01*
X324420Y851600D01*
X323020Y850759D01*
X321400Y850540D01*
X319840Y851000D01*
X318580Y852039D01*
X316980Y854040D01*
X313000Y857880D01*
X308560Y861200D01*
X303740Y863920D01*
X298620Y866000D01*
X293260Y867400D01*
X287760Y868100D01*
X282240Y868100D01*
X276740Y867400D01*
X271380Y866000D01*
X266260Y863920D01*
X261439Y861200D01*
X257000Y857880D01*
X253020Y854040D01*
X249579Y849720D01*
X246700Y844980D01*
X244460Y839920D01*
X242900Y834620D01*
X242000Y829140D01*
X241840Y823620D01*
X242360Y818100D01*
X243600Y812720D01*
X245500Y807520D01*
X248060Y802600D01*
X251240Y798080D01*
X254960Y793980D01*
X259160Y790380D01*
X263800Y787360D01*
X268800Y784960D01*
X274040Y783220D01*
X279480Y782159D01*
X285000Y781800D01*
X290520Y782159D01*
X295960Y783220D01*
X301200Y784960D01*
X306200Y787360D01*
X310840Y790380D01*
X315040Y793980D01*
X318760Y798080D01*
X319460Y799080D01*
X320780Y800260D01*
X322480Y800780D01*
X324240Y800500D01*
X325700Y799479D01*
X326580Y797940D01*
X326880Y796960D01*
X328280Y794340D01*
X330300Y791880D01*
X357900Y764260D01*
X358820Y762840D01*
X359060Y761160D01*
X358579Y759520D01*
X357460Y758240D01*
X357000Y757880D01*
X353020Y754040D01*
X349580Y749720D01*
X346700Y744980D01*
X344460Y739920D01*
X342900Y734620D01*
X342000Y729140D01*
X341840Y723620D01*
X342360Y718100D01*
X343600Y712720D01*
X345500Y707520D01*
X348060Y702600D01*
X351240Y698080D01*
X354960Y693980D01*
X359159Y690380D01*
X363800Y687360D01*
X368800Y684960D01*
X374040Y683220D01*
X379480Y682159D01*
X385000Y681800D01*
X390520Y682159D01*
X395959Y683220D01*
X401200Y684960D01*
X406200Y687360D01*
X410840Y690380D01*
X415040Y693980D01*
X418760Y698080D01*
X421940Y702600D01*
X424500Y707520D01*
X426400Y712720D01*
X427640Y718100D01*
X428160Y723620D01*
X428080Y726360D01*
X428340Y727920D01*
X429200Y729240D01*
X430480Y730160D01*
X432040Y730480D01*
X433600Y730180D01*
X434900Y729320D01*
X467180Y697039D01*
X468060Y695740D01*
X468360Y694200D01*
X468060Y692680D01*
X467180Y691380D01*
X465880Y690500D01*
X464360Y690200D01*
X435200Y690200D01*
X432040Y689900D01*
X429200Y689040D01*
X426560Y687620D01*
X424120Y685620D01*
X404660Y666180D01*
X403380Y665300D01*
X401860Y665000D01*
X400340Y665300D01*
X398620Y666000D01*
X393260Y667400D01*
X387760Y668100D01*
X382239Y668100D01*
X376740Y667400D01*
X371380Y666000D01*
X366260Y663920D01*
X361440Y661200D01*
X357000Y657880D01*
X353020Y654040D01*
X349580Y649720D01*
X346700Y644980D01*
X344460Y639920D01*
X342900Y634620D01*
X342000Y629140D01*
X341840Y623620D01*
X342360Y618100D01*
X343600Y612720D01*
X345500Y607520D01*
X348060Y602600D01*
X351240Y598080D01*
X354960Y593980D01*
X359159Y590380D01*
X363800Y587360D01*
X368800Y584960D01*
X374040Y583220D01*
X379480Y582160D01*
X385000Y581800D01*
X390520Y582160D01*
X395959Y583220D01*
X401200Y584960D01*
X406200Y587360D01*
X410840Y590380D01*
X415040Y593980D01*
X418760Y598080D01*
X421940Y602600D01*
X424500Y607520D01*
X426400Y612720D01*
X427640Y618100D01*
X428160Y623620D01*
X428000Y629140D01*
X427100Y634620D01*
X425040Y641820D01*
X425319Y643379D01*
X426200Y644720D01*
X440120Y658640D01*
X441420Y659500D01*
X442960Y659800D01*
X1549319Y659800D01*
X1550780Y659520D01*
X1552040Y658740D01*
X1552920Y657540D01*
X1553300Y656100D01*
X1553140Y654620D01*
X1552440Y653319D01*
X1549580Y649720D01*
X1546699Y644980D01*
X1544460Y639920D01*
X1542900Y634620D01*
X1542000Y629140D01*
X1541840Y623620D01*
X1542360Y618100D01*
X1543600Y612720D01*
X1545500Y607520D01*
X1548060Y602600D01*
X1551240Y598080D01*
X1554960Y593980D01*
X1557600Y591720D01*
X1558600Y590440D01*
X1559019Y588880D01*
X1558779Y587280D01*
X1557920Y585920D01*
X1556600Y585000D01*
X1555020Y584660D01*
X429660Y584660D01*
X426500Y584360D01*
X423660Y583500D01*
X421019Y582080D01*
X418579Y580080D01*
X404660Y566180D01*
X403380Y565300D01*
X401860Y565000D01*
X400340Y565300D01*
X398620Y566000D01*
X393260Y567400D01*
X387760Y568100D01*
X382239Y568100D01*
X376740Y567400D01*
X371380Y566000D01*
X366260Y563920D01*
X361440Y561200D01*
X356980Y557860D01*
X355680Y557020D01*
X354159Y556740D01*
X352640Y557060D01*
X351360Y557920D01*
X350500Y559220D01*
X350200Y560740D01*
X350200Y574800D01*
X349880Y577960D01*
X349020Y580820D01*
X347620Y583440D01*
X345600Y585900D01*
X326160Y605340D01*
X325319Y606580D01*
X325000Y608060D01*
X325240Y609540D01*
X326400Y612720D01*
X327640Y618100D01*
X328160Y623620D01*
X328000Y629140D01*
X327100Y634620D01*
X325540Y639920D01*
X323300Y644980D01*
X320420Y649720D01*
X316980Y654040D01*
X313000Y657880D01*
X308560Y661200D01*
X303740Y663920D01*
X298620Y666000D01*
X293260Y667400D01*
X287760Y668100D01*
X282240Y668100D01*
X276740Y667400D01*
X271380Y666000D01*
X266260Y663920D01*
X261439Y661200D01*
X257000Y657880D01*
X253020Y654040D01*
X249579Y649720D01*
X246700Y644980D01*
X244460Y639920D01*
X242900Y634620D01*
X242000Y629140D01*
X241840Y623620D01*
X242360Y618100D01*
X243600Y612720D01*
X245500Y607520D01*
X248060Y602600D01*
X251240Y598080D01*
X254960Y593980D01*
X259160Y590380D01*
X263800Y587360D01*
X268800Y584960D01*
X274040Y583220D01*
X279480Y582160D01*
X285000Y581800D01*
X290520Y582160D01*
X295960Y583220D01*
X300620Y584760D01*
X302080Y584960D01*
X303500Y584640D01*
X304700Y583800D01*
X318620Y569880D01*
X319500Y568580D01*
X319800Y567060D01*
X319800Y560740D01*
X319500Y559220D01*
X318640Y557920D01*
X317360Y557060D01*
X315840Y556740D01*
X314320Y557020D01*
X313000Y557880D01*
X308560Y561200D01*
X303740Y563920D01*
X298620Y566000D01*
X293260Y567400D01*
X287760Y568100D01*
X282240Y568100D01*
X276740Y567400D01*
X271380Y566000D01*
X266260Y563920D01*
X261439Y561200D01*
X257000Y557880D01*
X253020Y554040D01*
X249579Y549720D01*
X246700Y544980D01*
X244460Y539920D01*
X242900Y534620D01*
X242000Y529140D01*
X241840Y523620D01*
X242360Y518100D01*
X243600Y512720D01*
X245500Y507520D01*
X248060Y502600D01*
X251240Y498080D01*
X254960Y493980D01*
X259160Y490379D01*
X263800Y487360D01*
X268800Y484960D01*
X274040Y483220D01*
X279480Y482160D01*
X285000Y481800D01*
X290520Y482160D01*
X295960Y483220D01*
X300620Y484760D01*
X302080Y484960D01*
X303500Y484640D01*
X304700Y483800D01*
X313420Y475100D01*
X314280Y473800D01*
X314600Y472260D01*
X314600Y464640D01*
X314240Y463020D01*
X313280Y461680D01*
X311860Y460860D01*
X310200Y460660D01*
X308620Y461160D01*
X303740Y463920D01*
X298620Y466000D01*
X293260Y467400D01*
X287760Y468100D01*
X282240Y468100D01*
X276740Y467400D01*
X271380Y466000D01*
X266260Y463920D01*
X261439Y461200D01*
X257000Y457879D01*
X253020Y454040D01*
X249579Y449720D01*
X246700Y444980D01*
X244460Y439920D01*
X242900Y434620D01*
X242000Y429140D01*
X241840Y423620D01*
X242360Y418100D01*
X243600Y412720D01*
X244760Y409540D01*
X245000Y408060D01*
X244680Y406580D01*
X243840Y405340D01*
X190219Y351719D01*
X188200Y349260D01*
X186800Y346640D01*
X185940Y343780D01*
X185620Y340620D01*
X185620Y200539D01*
X186080Y195560D01*
X185440Y193920D01*
X184140Y192719D01*
X182460Y192180D01*
X180720Y192420D01*
X179240Y193380D01*
X169200Y203800D01*
X154600Y220040D01*
X140600Y236820D01*
X127200Y254060D01*
X114420Y271780D01*
X102300Y289940D01*
X90820Y308520D01*
X80000Y327500D01*
X69880Y346860D01*
X60460Y366560D01*
X51740Y386599D01*
X43760Y406920D01*
X36500Y427520D01*
X29960Y448360D01*
X24200Y469420D01*
X19180Y490680D01*
X14920Y512100D01*
X11419Y533660D01*
X8700Y555340D01*
X6760Y577100D01*
X5600Y598900D01*
X5200Y620800D01*
X5200Y1877820D01*
X5600Y1899860D01*
X6760Y1921660D01*
X8720Y1943420D01*
X11439Y1965100D01*
X14940Y1986660D01*
X19200Y2008080D01*
X24220Y2029340D01*
X30000Y2050400D01*
X36540Y2071240D01*
X43800Y2091840D01*
X51800Y2112160D01*
X60519Y2132180D01*
X69960Y2151880D01*
X80079Y2171240D01*
X90879Y2190220D01*
X102360Y2208800D01*
X114500Y2226960D01*
X127280Y2244680D01*
X140680Y2261920D01*
X154700Y2278680D01*
X169300Y2294920D01*
X184460Y2310640D01*
X200180Y2325800D01*
X216420Y2340400D01*
X233180Y2354400D01*
X250440Y2367800D01*
X268160Y2380580D01*
X286320Y2392700D01*
X304900Y2404180D01*
X323880Y2414980D01*
X343240Y2425100D01*
X362939Y2434540D01*
X382960Y2443240D01*
X403300Y2451240D01*
X423900Y2458500D01*
X444739Y2465020D01*
X465800Y2470800D01*
X487060Y2475820D01*
X508480Y2480080D01*
X530040Y2483580D01*
X551720Y2486300D01*
X573460Y2488240D01*
X595280Y2489400D01*
X617160Y2489800D01*
X3797820Y2489800D01*
X3819860Y2489400D01*
X3841660Y2488220D01*
X3863420Y2486280D01*
X3885100Y2483560D01*
X3906660Y2480060D01*
X3928080Y2475800D01*
X3949320Y2470760D01*
X3970380Y2464980D01*
X3991240Y2458460D01*
X4011820Y2451200D01*
X4032160Y2443200D01*
X4052180Y2434480D01*
X4071880Y2425040D01*
X4091240Y2414920D01*
X4110220Y2404100D01*
X4128800Y2392620D01*
X4146960Y2380480D01*
X4164660Y2367720D01*
X4181920Y2354320D01*
X4198680Y2340300D01*
X4214920Y2325700D01*
X4230640Y2310540D01*
X4245800Y2294820D01*
X4260400Y2278560D01*
X4274400Y2261800D01*
X4287800Y2244560D01*
X4300560Y2226840D01*
X4312700Y2208680D01*
X4324180Y2190100D01*
X4334980Y2171120D01*
X4345100Y2151760D01*
X4354520Y2132060D01*
X4363240Y2112020D01*
X4371240Y2091699D01*
X4378500Y2071100D01*
X4385020Y2050260D01*
X4390800Y2029199D01*
X4395820Y2007940D01*
X4400080Y1986519D01*
X4403580Y1964960D01*
X4406300Y1943280D01*
X4408240Y1921519D01*
X4409400Y1899720D01*
X4409800Y1877820D01*
X4409800Y620780D01*
X4409400Y598760D01*
X4408220Y576940D01*
X4406280Y555200D01*
X4403560Y533520D01*
X4400060Y511960D01*
X4395800Y490540D01*
X4390760Y469280D01*
X4384980Y448220D01*
X4378460Y427380D01*
X4371180Y406780D01*
X4363180Y386460D01*
X4354460Y366440D01*
X4345040Y346740D01*
X4334920Y327380D01*
X4324100Y308400D01*
X4312620Y289820D01*
X4300480Y271660D01*
X4287700Y253939D01*
X4274300Y236700D01*
X4260300Y219940D01*
X4245700Y203700D01*
X4230540Y187979D01*
X4214820Y172820D01*
X4198560Y158220D01*
X4181800Y144220D01*
X4164560Y130820D01*
X4146840Y118040D01*
X4128680Y105920D01*
X4110080Y94440D01*
X4091100Y83640D01*
X4071760Y73520D01*
X4052040Y64080D01*
X4032020Y55380D01*
X4011700Y47380D01*
X3991100Y40119D01*
X3970260Y33580D01*
X3949180Y27820D01*
X3927940Y22799D01*
X3906500Y18540D01*
X3884940Y15040D01*
X3863279Y12320D01*
X3841520Y10380D01*
X3819720Y9220D01*
X3797820Y8820D01*
G37*

%LPC*%
G36*
X4110000Y284800D02*
G01*
X4116060Y285180D01*
X4122020Y286260D01*
X4127799Y288060D01*
X4133320Y290560D01*
X4138519Y293700D01*
X4143279Y297440D01*
X4147559Y301720D01*
X4151300Y306480D01*
X4154440Y311680D01*
X4156940Y317200D01*
X4158740Y322980D01*
X4159820Y328940D01*
X4160200Y335000D01*
X4159820Y341060D01*
X4158740Y347020D01*
X4156940Y352800D01*
X4154440Y358320D01*
X4151300Y363519D01*
X4147559Y368280D01*
X4143279Y372560D01*
X4138519Y376300D01*
X4133320Y379440D01*
X4127799Y381940D01*
X4122020Y383740D01*
X4116060Y384820D01*
X4110000Y385200D01*
X4103940Y384820D01*
X4097980Y383740D01*
X4092200Y381940D01*
X4086680Y379440D01*
X4081480Y376300D01*
X4076720Y372560D01*
X4072440Y368280D01*
X4068700Y363519D01*
X4065560Y358320D01*
X4063060Y352800D01*
X4061259Y347020D01*
X4060179Y341060D01*
X4059800Y335000D01*
X4060179Y328940D01*
X4061259Y322980D01*
X4063060Y317200D01*
X4065560Y311680D01*
X4068700Y306480D01*
X4072440Y301720D01*
X4076720Y297440D01*
X4081480Y293700D01*
X4086680Y290560D01*
X4092200Y288060D01*
X4097980Y286260D01*
X4103940Y285180D01*
G37*
G36*
X3232360Y296660D02*
G01*
X3238020Y297020D01*
X3243600Y298080D01*
X3249000Y299840D01*
X3254120Y302240D01*
X3258920Y305280D01*
X3263300Y308900D01*
X3267180Y313040D01*
X3270520Y317640D01*
X3273240Y322600D01*
X3275340Y327879D01*
X3276740Y333380D01*
X3277460Y339020D01*
X3277460Y344680D01*
X3276740Y350319D01*
X3275340Y355820D01*
X3273240Y361100D01*
X3270520Y366060D01*
X3267180Y370660D01*
X3263300Y374799D01*
X3258920Y378420D01*
X3254120Y381460D01*
X3249000Y383860D01*
X3243600Y385620D01*
X3238020Y386680D01*
X3232360Y387040D01*
X3226700Y386680D01*
X3221120Y385620D01*
X3215720Y383860D01*
X3210580Y381460D01*
X3205800Y378420D01*
X3201420Y374799D01*
X3197540Y370660D01*
X3194200Y366060D01*
X3191460Y361100D01*
X3189380Y355820D01*
X3187960Y350319D01*
X3187260Y344680D01*
X3187260Y339020D01*
X3187960Y333380D01*
X3189380Y327879D01*
X3191460Y322600D01*
X3194200Y317640D01*
X3197540Y313040D01*
X3201420Y308900D01*
X3205800Y305280D01*
X3210580Y302240D01*
X3215720Y299840D01*
X3221120Y298080D01*
X3226700Y297020D01*
G37*
G36*
X3712120Y296660D02*
G01*
X3717780Y297020D01*
X3723340Y298080D01*
X3728740Y299840D01*
X3733880Y302240D01*
X3738680Y305280D01*
X3743039Y308900D01*
X3746940Y313040D01*
X3750260Y317640D01*
X3753000Y322600D01*
X3755100Y327879D01*
X3756500Y333380D01*
X3757220Y339020D01*
X3757220Y344680D01*
X3756500Y350319D01*
X3755100Y355820D01*
X3753000Y361100D01*
X3750260Y366060D01*
X3746940Y370660D01*
X3743039Y374799D01*
X3738680Y378420D01*
X3733880Y381460D01*
X3728740Y383860D01*
X3723340Y385620D01*
X3717780Y386680D01*
X3712120Y387040D01*
X3706440Y386680D01*
X3700880Y385620D01*
X3695480Y383860D01*
X3690340Y381460D01*
X3685539Y378420D01*
X3681180Y374799D01*
X3677280Y370660D01*
X3673960Y366060D01*
X3671220Y361100D01*
X3669120Y355820D01*
X3667720Y350319D01*
X3667000Y344680D01*
X3667000Y339020D01*
X3667720Y333380D01*
X3669120Y327879D01*
X3671220Y322600D01*
X3673960Y317640D01*
X3677280Y313040D01*
X3681180Y308900D01*
X3685539Y305280D01*
X3690340Y302240D01*
X3695480Y299840D01*
X3700880Y298080D01*
X3706440Y297020D01*
G37*
G36*
X3132360Y296660D02*
G01*
X3138020Y297020D01*
X3143600Y298080D01*
X3149000Y299840D01*
X3154120Y302240D01*
X3158920Y305280D01*
X3163300Y308900D01*
X3167180Y313040D01*
X3170520Y317640D01*
X3173240Y322600D01*
X3175340Y327879D01*
X3176740Y333380D01*
X3177460Y339020D01*
X3177460Y344680D01*
X3176740Y350319D01*
X3175340Y355820D01*
X3173240Y361100D01*
X3170520Y366060D01*
X3167180Y370660D01*
X3163300Y374799D01*
X3158920Y378420D01*
X3154120Y381460D01*
X3149000Y383860D01*
X3143600Y385620D01*
X3138020Y386680D01*
X3132360Y387040D01*
X3126700Y386680D01*
X3121120Y385620D01*
X3115720Y383860D01*
X3110580Y381460D01*
X3105800Y378420D01*
X3101420Y374799D01*
X3097540Y370660D01*
X3094200Y366060D01*
X3091460Y361100D01*
X3089380Y355820D01*
X3087960Y350319D01*
X3087260Y344680D01*
X3087260Y339020D01*
X3087960Y333380D01*
X3089380Y327879D01*
X3091460Y322600D01*
X3094200Y317640D01*
X3097540Y313040D01*
X3101420Y308900D01*
X3105800Y305280D01*
X3110580Y302240D01*
X3115720Y299840D01*
X3121120Y298080D01*
X3126700Y297020D01*
G37*
G36*
X3032360Y296740D02*
G01*
X3038020Y297100D01*
X3043600Y298160D01*
X3049000Y299920D01*
X3054120Y302320D01*
X3058920Y305360D01*
X3063300Y308980D01*
X3067180Y313120D01*
X3070520Y317720D01*
X3073240Y322680D01*
X3075340Y327960D01*
X3076740Y333459D01*
X3077460Y339099D01*
X3077460Y344760D01*
X3076740Y350400D01*
X3075340Y355900D01*
X3073240Y361180D01*
X3070520Y366140D01*
X3067180Y370740D01*
X3063300Y374880D01*
X3058920Y378500D01*
X3054120Y381540D01*
X3049000Y383940D01*
X3043600Y385700D01*
X3038020Y386760D01*
X3032360Y387120D01*
X3026700Y386760D01*
X3021120Y385700D01*
X3015720Y383940D01*
X3010580Y381540D01*
X3005800Y378500D01*
X3001420Y374880D01*
X2997540Y370740D01*
X2994200Y366140D01*
X2991460Y361180D01*
X2989380Y355900D01*
X2987960Y350400D01*
X2987260Y344760D01*
X2987260Y339099D01*
X2987960Y333459D01*
X2989380Y327960D01*
X2991460Y322680D01*
X2994200Y317720D01*
X2997540Y313120D01*
X3001420Y308980D01*
X3005800Y305360D01*
X3010580Y302320D01*
X3015720Y299920D01*
X3021120Y298160D01*
X3026700Y297100D01*
G37*
G36*
X4184800Y564360D02*
G01*
X4255200Y564360D01*
X4257700Y564640D01*
X4259840Y565400D01*
X4261780Y566620D01*
X4263380Y568220D01*
X4264600Y570160D01*
X4265360Y572300D01*
X4265640Y574800D01*
X4265640Y645200D01*
X4265360Y647700D01*
X4264600Y649840D01*
X4263380Y651780D01*
X4261780Y653379D01*
X4259840Y654599D01*
X4257700Y655360D01*
X4255200Y655639D01*
X4184800Y655639D01*
X4182300Y655360D01*
X4180160Y654599D01*
X4178220Y653379D01*
X4176620Y651780D01*
X4175400Y649840D01*
X4174640Y647700D01*
X4174360Y645200D01*
X4174360Y574800D01*
X4174640Y572300D01*
X4175400Y570160D01*
X4176620Y568220D01*
X4178220Y566620D01*
X4180160Y565400D01*
X4182300Y564640D01*
G37*
G36*
X4220000Y668319D02*
G01*
X4225440Y668660D01*
X4230780Y669740D01*
X4235960Y671480D01*
X4240840Y673900D01*
X4245380Y676919D01*
X4249480Y680520D01*
X4253080Y684620D01*
X4256100Y689160D01*
X4258520Y694040D01*
X4260260Y699220D01*
X4261340Y704560D01*
X4261680Y710000D01*
X4261340Y715440D01*
X4260260Y720780D01*
X4258520Y725960D01*
X4256100Y730840D01*
X4253080Y735380D01*
X4249480Y739479D01*
X4245380Y743080D01*
X4240840Y746100D01*
X4235960Y748520D01*
X4230780Y750260D01*
X4225440Y751340D01*
X4220000Y751680D01*
X4214560Y751340D01*
X4209220Y750260D01*
X4204040Y748520D01*
X4199160Y746100D01*
X4194620Y743080D01*
X4190520Y739479D01*
X4186920Y735380D01*
X4183900Y730840D01*
X4181480Y725960D01*
X4179740Y720780D01*
X4178660Y715440D01*
X4178320Y710000D01*
X4178660Y704560D01*
X4179740Y699220D01*
X4181480Y694040D01*
X4183900Y689160D01*
X4186920Y684620D01*
X4190520Y680520D01*
X4194620Y676919D01*
X4199160Y673900D01*
X4204040Y671480D01*
X4209220Y669740D01*
X4214560Y668660D01*
G37*
G36*
X125000Y674800D02*
G01*
X131060Y675180D01*
X137020Y676260D01*
X142800Y678060D01*
X148320Y680560D01*
X153520Y683700D01*
X158280Y687440D01*
X162560Y691720D01*
X166300Y696480D01*
X169440Y701680D01*
X171940Y707200D01*
X173740Y712980D01*
X174820Y718940D01*
X175200Y725000D01*
X174820Y731060D01*
X173740Y737020D01*
X171940Y742800D01*
X169440Y748319D01*
X166300Y753520D01*
X162560Y758280D01*
X158280Y762560D01*
X153520Y766300D01*
X148320Y769440D01*
X142800Y771940D01*
X137020Y773740D01*
X131060Y774820D01*
X125000Y775200D01*
X118940Y774820D01*
X112980Y773740D01*
X107200Y771940D01*
X101679Y769440D01*
X96480Y766300D01*
X91720Y762560D01*
X87440Y758280D01*
X83699Y753520D01*
X80559Y748319D01*
X78060Y742800D01*
X76260Y737020D01*
X75180Y731060D01*
X74800Y725000D01*
X75180Y718940D01*
X76260Y712980D01*
X78060Y707200D01*
X80559Y701680D01*
X83699Y696480D01*
X87440Y691720D01*
X91720Y687440D01*
X96480Y683700D01*
X101679Y680560D01*
X107200Y678060D01*
X112980Y676260D01*
X118940Y675180D01*
G37*
G36*
X285000Y681800D02*
G01*
X290520Y682159D01*
X295960Y683220D01*
X301200Y684960D01*
X306200Y687360D01*
X310840Y690380D01*
X315040Y693980D01*
X318760Y698080D01*
X321940Y702600D01*
X324500Y707520D01*
X326400Y712720D01*
X327640Y718100D01*
X328160Y723620D01*
X328000Y729140D01*
X327100Y734620D01*
X325540Y739920D01*
X323300Y744980D01*
X320420Y749720D01*
X316980Y754040D01*
X313000Y757880D01*
X308560Y761200D01*
X303740Y763920D01*
X298620Y766000D01*
X293260Y767400D01*
X287760Y768100D01*
X282240Y768100D01*
X276740Y767400D01*
X271380Y766000D01*
X266260Y763920D01*
X261439Y761200D01*
X257000Y757880D01*
X253020Y754040D01*
X249579Y749720D01*
X246700Y744980D01*
X244460Y739920D01*
X242900Y734620D01*
X242000Y729140D01*
X241840Y723620D01*
X242360Y718100D01*
X243600Y712720D01*
X245500Y707520D01*
X248060Y702600D01*
X251240Y698080D01*
X254960Y693980D01*
X259160Y690380D01*
X263800Y687360D01*
X268800Y684960D01*
X274040Y683220D01*
X279480Y682159D01*
G37*
G36*
X4220000Y968319D02*
G01*
X4225440Y968660D01*
X4230780Y969740D01*
X4235960Y971480D01*
X4240840Y973900D01*
X4245380Y976919D01*
X4249480Y980520D01*
X4253080Y984620D01*
X4256100Y989160D01*
X4258520Y994040D01*
X4260260Y999220D01*
X4261340Y1004560D01*
X4261680Y1010000D01*
X4261340Y1015440D01*
X4260260Y1020780D01*
X4258520Y1025960D01*
X4256100Y1030840D01*
X4253080Y1035380D01*
X4249480Y1039479D01*
X4245380Y1043080D01*
X4240840Y1046100D01*
X4235960Y1048520D01*
X4230780Y1050260D01*
X4225440Y1051340D01*
X4220000Y1051680D01*
X4214560Y1051340D01*
X4209220Y1050260D01*
X4204040Y1048520D01*
X4199160Y1046100D01*
X4194620Y1043080D01*
X4190520Y1039479D01*
X4186920Y1035380D01*
X4183900Y1030840D01*
X4181480Y1025960D01*
X4179740Y1020780D01*
X4178660Y1015440D01*
X4178320Y1010000D01*
X4178660Y1004560D01*
X4179740Y999220D01*
X4181480Y994040D01*
X4183900Y989160D01*
X4186920Y984620D01*
X4190520Y980520D01*
X4194620Y976919D01*
X4199160Y973900D01*
X4204040Y971480D01*
X4209220Y969740D01*
X4214560Y968660D01*
G37*
G36*
X4220000Y1068320D02*
G01*
X4225440Y1068660D01*
X4230780Y1069740D01*
X4235960Y1071480D01*
X4240840Y1073900D01*
X4245380Y1076920D01*
X4249480Y1080520D01*
X4253080Y1084620D01*
X4256100Y1089160D01*
X4258520Y1094040D01*
X4260260Y1099220D01*
X4261340Y1104560D01*
X4261680Y1110000D01*
X4261340Y1115440D01*
X4260260Y1120780D01*
X4258520Y1125960D01*
X4256100Y1130840D01*
X4253080Y1135380D01*
X4249480Y1139480D01*
X4245380Y1143080D01*
X4240840Y1146100D01*
X4235960Y1148520D01*
X4230780Y1150260D01*
X4225440Y1151340D01*
X4220000Y1151680D01*
X4214560Y1151340D01*
X4209220Y1150260D01*
X4204040Y1148520D01*
X4199160Y1146100D01*
X4194620Y1143080D01*
X4190520Y1139480D01*
X4186920Y1135380D01*
X4183900Y1130840D01*
X4181480Y1125960D01*
X4179740Y1120780D01*
X4178660Y1115440D01*
X4178320Y1110000D01*
X4178660Y1104560D01*
X4179740Y1099220D01*
X4181480Y1094040D01*
X4183900Y1089160D01*
X4186920Y1084620D01*
X4190520Y1080520D01*
X4194620Y1076920D01*
X4199160Y1073900D01*
X4204040Y1071480D01*
X4209220Y1069740D01*
X4214560Y1068660D01*
G37*
G36*
X3320000Y1205440D02*
G01*
X3325980Y1205800D01*
X3331860Y1206880D01*
X3337580Y1208660D01*
X3343020Y1211120D01*
X3348159Y1214220D01*
X3352860Y1217900D01*
X3357100Y1222140D01*
X3360779Y1226840D01*
X3363880Y1231960D01*
X3366340Y1237420D01*
X3368120Y1243140D01*
X3369200Y1249020D01*
X3369560Y1255000D01*
X3369200Y1260980D01*
X3368120Y1266860D01*
X3366340Y1272580D01*
X3363880Y1278040D01*
X3360779Y1283160D01*
X3357100Y1287860D01*
X3352860Y1292100D01*
X3348159Y1295780D01*
X3343020Y1298880D01*
X3337580Y1301339D01*
X3331860Y1303120D01*
X3325980Y1304199D01*
X3320000Y1304560D01*
X3314020Y1304199D01*
X3308140Y1303120D01*
X3302420Y1301339D01*
X3296960Y1298880D01*
X3291840Y1295780D01*
X3287120Y1292100D01*
X3282900Y1287860D01*
X3279200Y1283160D01*
X3276120Y1278040D01*
X3273660Y1272580D01*
X3271880Y1266860D01*
X3270800Y1260980D01*
X3270440Y1255000D01*
X3270800Y1249020D01*
X3271880Y1243140D01*
X3273660Y1237420D01*
X3276120Y1231960D01*
X3279200Y1226840D01*
X3282900Y1222140D01*
X3287120Y1217900D01*
X3291840Y1214220D01*
X3296960Y1211120D01*
X3302420Y1208660D01*
X3308140Y1206880D01*
X3314020Y1205800D01*
G37*
G36*
X1585000Y1281800D02*
G01*
X1590520Y1282160D01*
X1595960Y1283220D01*
X1601200Y1284960D01*
X1606200Y1287360D01*
X1610840Y1290380D01*
X1615040Y1293980D01*
X1618760Y1298080D01*
X1621940Y1302600D01*
X1624500Y1307520D01*
X1626399Y1312720D01*
X1627640Y1318100D01*
X1628160Y1323620D01*
X1628000Y1329139D01*
X1627100Y1334620D01*
X1625540Y1339920D01*
X1623300Y1344980D01*
X1620420Y1349720D01*
X1616980Y1354040D01*
X1613000Y1357880D01*
X1608560Y1361200D01*
X1603740Y1363920D01*
X1598620Y1366000D01*
X1593260Y1367400D01*
X1587760Y1368100D01*
X1582240Y1368100D01*
X1576740Y1367400D01*
X1571380Y1366000D01*
X1566260Y1363920D01*
X1561440Y1361200D01*
X1557000Y1357880D01*
X1553020Y1354040D01*
X1549580Y1349720D01*
X1546699Y1344980D01*
X1544460Y1339920D01*
X1542900Y1334620D01*
X1542000Y1329139D01*
X1541840Y1323620D01*
X1542360Y1318100D01*
X1543600Y1312720D01*
X1545500Y1307520D01*
X1548060Y1302600D01*
X1551240Y1298080D01*
X1554960Y1293980D01*
X1559160Y1290380D01*
X1563800Y1287360D01*
X1568800Y1284960D01*
X1574040Y1283220D01*
X1579480Y1282160D01*
G37*
G36*
X1685000Y1281800D02*
G01*
X1690520Y1282160D01*
X1695960Y1283220D01*
X1701200Y1284960D01*
X1706200Y1287360D01*
X1710840Y1290380D01*
X1715040Y1293980D01*
X1718760Y1298080D01*
X1721940Y1302600D01*
X1724500Y1307520D01*
X1726399Y1312720D01*
X1727640Y1318100D01*
X1728160Y1323620D01*
X1728000Y1329139D01*
X1727100Y1334620D01*
X1725540Y1339920D01*
X1723300Y1344980D01*
X1720420Y1349720D01*
X1716980Y1354040D01*
X1713000Y1357880D01*
X1708560Y1361200D01*
X1703740Y1363920D01*
X1698620Y1366000D01*
X1693260Y1367400D01*
X1687760Y1368100D01*
X1682240Y1368100D01*
X1676740Y1367400D01*
X1671380Y1366000D01*
X1666260Y1363920D01*
X1661440Y1361200D01*
X1657000Y1357880D01*
X1653020Y1354040D01*
X1649580Y1349720D01*
X1646699Y1344980D01*
X1644460Y1339920D01*
X1642900Y1334620D01*
X1642000Y1329139D01*
X1641840Y1323620D01*
X1642360Y1318100D01*
X1643600Y1312720D01*
X1645500Y1307520D01*
X1648060Y1302600D01*
X1651240Y1298080D01*
X1654960Y1293980D01*
X1659160Y1290380D01*
X1663800Y1287360D01*
X1668800Y1284960D01*
X1674040Y1283220D01*
X1679480Y1282160D01*
G37*
G36*
X385000Y1281800D02*
G01*
X390520Y1282160D01*
X395959Y1283220D01*
X401200Y1284960D01*
X406200Y1287360D01*
X410840Y1290380D01*
X415040Y1293980D01*
X418760Y1298080D01*
X421940Y1302600D01*
X424500Y1307520D01*
X426400Y1312720D01*
X427640Y1318100D01*
X428160Y1323620D01*
X428000Y1329139D01*
X427100Y1334620D01*
X425540Y1339920D01*
X423300Y1344980D01*
X420420Y1349720D01*
X416980Y1354040D01*
X413000Y1357880D01*
X408560Y1361200D01*
X403740Y1363920D01*
X398620Y1366000D01*
X393260Y1367400D01*
X387760Y1368100D01*
X382239Y1368100D01*
X376740Y1367400D01*
X371380Y1366000D01*
X366260Y1363920D01*
X361440Y1361200D01*
X357000Y1357880D01*
X353020Y1354040D01*
X349580Y1349720D01*
X346700Y1344980D01*
X344460Y1339920D01*
X342900Y1334620D01*
X342000Y1329139D01*
X341840Y1323620D01*
X342360Y1318100D01*
X343600Y1312720D01*
X345500Y1307520D01*
X348060Y1302600D01*
X351240Y1298080D01*
X354960Y1293980D01*
X359159Y1290380D01*
X363800Y1287360D01*
X368800Y1284960D01*
X374040Y1283220D01*
X379480Y1282160D01*
G37*
G36*
X1842500Y1290440D02*
G01*
X1848480Y1290800D01*
X1854360Y1291879D01*
X1860080Y1293660D01*
X1865540Y1296120D01*
X1870660Y1299220D01*
X1875360Y1302900D01*
X1879600Y1307140D01*
X1883280Y1311840D01*
X1886380Y1316960D01*
X1888839Y1322420D01*
X1890620Y1328140D01*
X1891699Y1334019D01*
X1892060Y1340000D01*
X1891699Y1345980D01*
X1890620Y1351860D01*
X1888839Y1357580D01*
X1886380Y1363040D01*
X1883280Y1368160D01*
X1879600Y1372860D01*
X1875360Y1377100D01*
X1870660Y1380780D01*
X1865540Y1383880D01*
X1860080Y1386339D01*
X1854360Y1388120D01*
X1848480Y1389199D01*
X1842500Y1389560D01*
X1836519Y1389199D01*
X1830640Y1388120D01*
X1824920Y1386339D01*
X1819460Y1383880D01*
X1814340Y1380780D01*
X1809640Y1377100D01*
X1805400Y1372860D01*
X1801720Y1368160D01*
X1798620Y1363040D01*
X1796160Y1357580D01*
X1794379Y1351860D01*
X1793300Y1345980D01*
X1792940Y1340000D01*
X1793300Y1334019D01*
X1794379Y1328140D01*
X1796160Y1322420D01*
X1798620Y1316960D01*
X1801720Y1311840D01*
X1805400Y1307140D01*
X1809640Y1302900D01*
X1814340Y1299220D01*
X1819460Y1296120D01*
X1824920Y1293660D01*
X1830640Y1291879D01*
X1836519Y1290800D01*
G37*
G36*
X1585000Y1381800D02*
G01*
X1590520Y1382160D01*
X1595960Y1383220D01*
X1601200Y1384960D01*
X1606200Y1387360D01*
X1610840Y1390380D01*
X1615040Y1393980D01*
X1618760Y1398080D01*
X1621940Y1402600D01*
X1624500Y1407520D01*
X1626399Y1412720D01*
X1627640Y1418100D01*
X1628160Y1423620D01*
X1628000Y1429139D01*
X1627100Y1434620D01*
X1625540Y1439920D01*
X1623300Y1444980D01*
X1620420Y1449720D01*
X1616980Y1454040D01*
X1613000Y1457880D01*
X1608560Y1461200D01*
X1603740Y1463920D01*
X1598620Y1466000D01*
X1593260Y1467400D01*
X1587760Y1468100D01*
X1582240Y1468100D01*
X1576740Y1467400D01*
X1571380Y1466000D01*
X1566260Y1463920D01*
X1561440Y1461200D01*
X1557000Y1457880D01*
X1553020Y1454040D01*
X1549580Y1449720D01*
X1546699Y1444980D01*
X1544460Y1439920D01*
X1542900Y1434620D01*
X1542000Y1429139D01*
X1541840Y1423620D01*
X1542360Y1418100D01*
X1543600Y1412720D01*
X1545500Y1407520D01*
X1548060Y1402600D01*
X1551240Y1398080D01*
X1554960Y1393980D01*
X1559160Y1390380D01*
X1563800Y1387360D01*
X1568800Y1384960D01*
X1574040Y1383220D01*
X1579480Y1382160D01*
G37*
G36*
X1685000Y1381800D02*
G01*
X1690520Y1382160D01*
X1695960Y1383220D01*
X1701200Y1384960D01*
X1706200Y1387360D01*
X1710840Y1390380D01*
X1715040Y1393980D01*
X1718760Y1398080D01*
X1721940Y1402600D01*
X1724500Y1407520D01*
X1726399Y1412720D01*
X1727640Y1418100D01*
X1728160Y1423620D01*
X1728000Y1429139D01*
X1727100Y1434620D01*
X1725540Y1439920D01*
X1723300Y1444980D01*
X1720420Y1449720D01*
X1716980Y1454040D01*
X1713000Y1457880D01*
X1708560Y1461200D01*
X1703740Y1463920D01*
X1698620Y1466000D01*
X1693260Y1467400D01*
X1687760Y1468100D01*
X1682240Y1468100D01*
X1676740Y1467400D01*
X1671380Y1466000D01*
X1666260Y1463920D01*
X1661440Y1461200D01*
X1657000Y1457880D01*
X1653020Y1454040D01*
X1649580Y1449720D01*
X1646699Y1444980D01*
X1644460Y1439920D01*
X1642900Y1434620D01*
X1642000Y1429139D01*
X1641840Y1423620D01*
X1642360Y1418100D01*
X1643600Y1412720D01*
X1645500Y1407520D01*
X1648060Y1402600D01*
X1651240Y1398080D01*
X1654960Y1393980D01*
X1659160Y1390380D01*
X1663800Y1387360D01*
X1668800Y1384960D01*
X1674040Y1383220D01*
X1679480Y1382160D01*
G37*
G36*
X385000Y1381800D02*
G01*
X390520Y1382160D01*
X395959Y1383220D01*
X401200Y1384960D01*
X406200Y1387360D01*
X410840Y1390380D01*
X415040Y1393980D01*
X418760Y1398080D01*
X421940Y1402600D01*
X424500Y1407520D01*
X426400Y1412720D01*
X427640Y1418100D01*
X428160Y1423620D01*
X428000Y1429139D01*
X427100Y1434620D01*
X425540Y1439920D01*
X423300Y1444980D01*
X420420Y1449720D01*
X416980Y1454040D01*
X413000Y1457880D01*
X408560Y1461200D01*
X403740Y1463920D01*
X398620Y1466000D01*
X393260Y1467400D01*
X387760Y1468100D01*
X382239Y1468100D01*
X376740Y1467400D01*
X371380Y1466000D01*
X366260Y1463920D01*
X361440Y1461200D01*
X357000Y1457880D01*
X353020Y1454040D01*
X349580Y1449720D01*
X346700Y1444980D01*
X344460Y1439920D01*
X342900Y1434620D01*
X342000Y1429139D01*
X341840Y1423620D01*
X342360Y1418100D01*
X343600Y1412720D01*
X345500Y1407520D01*
X348060Y1402600D01*
X351240Y1398080D01*
X354960Y1393980D01*
X359159Y1390380D01*
X363800Y1387360D01*
X368800Y1384960D01*
X374040Y1383220D01*
X379480Y1382160D01*
G37*
G36*
X285000Y1381800D02*
G01*
X290520Y1382160D01*
X295960Y1383220D01*
X301200Y1384960D01*
X306200Y1387360D01*
X310840Y1390380D01*
X315040Y1393980D01*
X318760Y1398080D01*
X321940Y1402600D01*
X324500Y1407520D01*
X326400Y1412720D01*
X327640Y1418100D01*
X328160Y1423620D01*
X328000Y1429139D01*
X327100Y1434620D01*
X325540Y1439920D01*
X323300Y1444980D01*
X320420Y1449720D01*
X316980Y1454040D01*
X313000Y1457880D01*
X308560Y1461200D01*
X303740Y1463920D01*
X298620Y1466000D01*
X293260Y1467400D01*
X287760Y1468100D01*
X282240Y1468100D01*
X276740Y1467400D01*
X271380Y1466000D01*
X266260Y1463920D01*
X261439Y1461200D01*
X257000Y1457880D01*
X253020Y1454040D01*
X249579Y1449720D01*
X246700Y1444980D01*
X244460Y1439920D01*
X242900Y1434620D01*
X242000Y1429139D01*
X241840Y1423620D01*
X242360Y1418100D01*
X243600Y1412720D01*
X245500Y1407520D01*
X248060Y1402600D01*
X251240Y1398080D01*
X254960Y1393980D01*
X259160Y1390380D01*
X263800Y1387360D01*
X268800Y1384960D01*
X274040Y1383220D01*
X279480Y1382160D01*
G37*
G36*
X385000Y1481800D02*
G01*
X390520Y1482160D01*
X395959Y1483220D01*
X401200Y1484960D01*
X406200Y1487360D01*
X410840Y1490380D01*
X415040Y1493980D01*
X418760Y1498080D01*
X421940Y1502600D01*
X424500Y1507520D01*
X426400Y1512720D01*
X427640Y1518100D01*
X428160Y1523620D01*
X428000Y1529139D01*
X427100Y1534620D01*
X425540Y1539920D01*
X423300Y1544980D01*
X420420Y1549720D01*
X416980Y1554040D01*
X413000Y1557880D01*
X408560Y1561200D01*
X403740Y1563920D01*
X398620Y1566000D01*
X393260Y1567400D01*
X387760Y1568100D01*
X382239Y1568100D01*
X376740Y1567400D01*
X371380Y1566000D01*
X366260Y1563920D01*
X361440Y1561200D01*
X357000Y1557880D01*
X353020Y1554040D01*
X349580Y1549720D01*
X346700Y1544980D01*
X344460Y1539920D01*
X342900Y1534620D01*
X342000Y1529139D01*
X341840Y1523620D01*
X342360Y1518100D01*
X343600Y1512720D01*
X345500Y1507520D01*
X348060Y1502600D01*
X351240Y1498080D01*
X354960Y1493980D01*
X359159Y1490380D01*
X363800Y1487360D01*
X368800Y1484960D01*
X374040Y1483220D01*
X379480Y1482160D01*
G37*
G36*
X285000Y1481800D02*
G01*
X290520Y1482160D01*
X295960Y1483220D01*
X301200Y1484960D01*
X306200Y1487360D01*
X310840Y1490380D01*
X315040Y1493980D01*
X318760Y1498080D01*
X321940Y1502600D01*
X324500Y1507520D01*
X326400Y1512720D01*
X327640Y1518100D01*
X328160Y1523620D01*
X328000Y1529139D01*
X327100Y1534620D01*
X325540Y1539920D01*
X323300Y1544980D01*
X320420Y1549720D01*
X316980Y1554040D01*
X313000Y1557880D01*
X308560Y1561200D01*
X303740Y1563920D01*
X298620Y1566000D01*
X293260Y1567400D01*
X287760Y1568100D01*
X282240Y1568100D01*
X276740Y1567400D01*
X271380Y1566000D01*
X266260Y1563920D01*
X261439Y1561200D01*
X257000Y1557880D01*
X253020Y1554040D01*
X249579Y1549720D01*
X246700Y1544980D01*
X244460Y1539920D01*
X242900Y1534620D01*
X242000Y1529139D01*
X241840Y1523620D01*
X242360Y1518100D01*
X243600Y1512720D01*
X245500Y1507520D01*
X248060Y1502600D01*
X251240Y1498080D01*
X254960Y1493980D01*
X259160Y1490380D01*
X263800Y1487360D01*
X268800Y1484960D01*
X274040Y1483220D01*
X279480Y1482160D01*
G37*
G36*
X1821020Y1485580D02*
G01*
X1842900Y1485580D01*
X1842900Y1517900D01*
X1810600Y1517900D01*
X1810600Y1496020D01*
X1810880Y1493520D01*
X1811620Y1491380D01*
X1812840Y1489440D01*
X1814440Y1487840D01*
X1816380Y1486620D01*
X1818520Y1485880D01*
G37*
G36*
X1897100Y1485580D02*
G01*
X1918980Y1485580D01*
X1921480Y1485880D01*
X1923620Y1486620D01*
X1925560Y1487840D01*
X1927160Y1489440D01*
X1928380Y1491380D01*
X1929120Y1493520D01*
X1929420Y1496020D01*
X1929420Y1517900D01*
X1897100Y1517900D01*
G37*
G36*
X1810600Y1572100D02*
G01*
X1842900Y1572100D01*
X1842900Y1604400D01*
X1821020Y1604400D01*
X1818520Y1604120D01*
X1816380Y1603380D01*
X1814440Y1602160D01*
X1812840Y1600560D01*
X1811620Y1598620D01*
X1810880Y1596480D01*
X1810600Y1593980D01*
G37*
G36*
X1897100Y1572100D02*
G01*
X1929420Y1572100D01*
X1929420Y1593980D01*
X1929120Y1596480D01*
X1928380Y1598620D01*
X1927160Y1600560D01*
X1925560Y1602160D01*
X1923620Y1603380D01*
X1921480Y1604120D01*
X1918980Y1604400D01*
X1897100Y1604400D01*
G37*
G36*
X1685000Y1581800D02*
G01*
X1690520Y1582160D01*
X1695960Y1583220D01*
X1701200Y1584960D01*
X1706200Y1587360D01*
X1710840Y1590380D01*
X1715040Y1593980D01*
X1718760Y1598080D01*
X1721940Y1602600D01*
X1724500Y1607520D01*
X1726399Y1612720D01*
X1727640Y1618100D01*
X1728160Y1623620D01*
X1728000Y1629139D01*
X1727100Y1634620D01*
X1725540Y1639920D01*
X1723300Y1644980D01*
X1720420Y1649720D01*
X1716980Y1654040D01*
X1713000Y1657880D01*
X1708560Y1661200D01*
X1703740Y1663920D01*
X1698620Y1666000D01*
X1693260Y1667400D01*
X1687760Y1668100D01*
X1682240Y1668100D01*
X1676740Y1667400D01*
X1671380Y1666000D01*
X1666260Y1663920D01*
X1661440Y1661200D01*
X1657000Y1657880D01*
X1653020Y1654040D01*
X1649580Y1649720D01*
X1646699Y1644980D01*
X1644460Y1639920D01*
X1642900Y1634620D01*
X1642000Y1629139D01*
X1641840Y1623620D01*
X1642360Y1618100D01*
X1643600Y1612720D01*
X1645500Y1607520D01*
X1648060Y1602600D01*
X1651240Y1598080D01*
X1654960Y1593980D01*
X1659160Y1590380D01*
X1663800Y1587360D01*
X1668800Y1584960D01*
X1674040Y1583220D01*
X1679480Y1582160D01*
G37*
G36*
X1585000Y1581800D02*
G01*
X1590520Y1582160D01*
X1595960Y1583220D01*
X1601200Y1584960D01*
X1606200Y1587360D01*
X1610840Y1590380D01*
X1615040Y1593980D01*
X1618760Y1598080D01*
X1621940Y1602600D01*
X1624500Y1607520D01*
X1626399Y1612720D01*
X1627640Y1618100D01*
X1628160Y1623620D01*
X1628000Y1629139D01*
X1627100Y1634620D01*
X1625540Y1639920D01*
X1623300Y1644980D01*
X1620420Y1649720D01*
X1616980Y1654040D01*
X1613000Y1657880D01*
X1608560Y1661200D01*
X1603740Y1663920D01*
X1598620Y1666000D01*
X1593260Y1667400D01*
X1587760Y1668100D01*
X1582240Y1668100D01*
X1576740Y1667400D01*
X1571380Y1666000D01*
X1566260Y1663920D01*
X1561440Y1661200D01*
X1557000Y1657880D01*
X1553020Y1654040D01*
X1549580Y1649720D01*
X1546699Y1644980D01*
X1544460Y1639920D01*
X1542900Y1634620D01*
X1542000Y1629139D01*
X1541840Y1623620D01*
X1542360Y1618100D01*
X1543600Y1612720D01*
X1545500Y1607520D01*
X1548060Y1602600D01*
X1551240Y1598080D01*
X1554960Y1593980D01*
X1559160Y1590380D01*
X1563800Y1587360D01*
X1568800Y1584960D01*
X1574040Y1583220D01*
X1579480Y1582160D01*
G37*
G36*
X385000Y1581800D02*
G01*
X390520Y1582160D01*
X395959Y1583220D01*
X401200Y1584960D01*
X406200Y1587360D01*
X410840Y1590380D01*
X415040Y1593980D01*
X418760Y1598080D01*
X421940Y1602600D01*
X424500Y1607520D01*
X426400Y1612720D01*
X427640Y1618100D01*
X428160Y1623620D01*
X428000Y1629139D01*
X427100Y1634620D01*
X425540Y1639920D01*
X423300Y1644980D01*
X420420Y1649720D01*
X416980Y1654040D01*
X413000Y1657880D01*
X408560Y1661200D01*
X403740Y1663920D01*
X398620Y1666000D01*
X393260Y1667400D01*
X387760Y1668100D01*
X382239Y1668100D01*
X376740Y1667400D01*
X371380Y1666000D01*
X366260Y1663920D01*
X361440Y1661200D01*
X357000Y1657880D01*
X353020Y1654040D01*
X349580Y1649720D01*
X346700Y1644980D01*
X344460Y1639920D01*
X342900Y1634620D01*
X342000Y1629139D01*
X341840Y1623620D01*
X342360Y1618100D01*
X343600Y1612720D01*
X345500Y1607520D01*
X348060Y1602600D01*
X351240Y1598080D01*
X354960Y1593980D01*
X359159Y1590380D01*
X363800Y1587360D01*
X368800Y1584960D01*
X374040Y1583220D01*
X379480Y1582160D01*
G37*
G36*
X285000Y1581800D02*
G01*
X290520Y1582160D01*
X295960Y1583220D01*
X301200Y1584960D01*
X306200Y1587360D01*
X310840Y1590380D01*
X315040Y1593980D01*
X318760Y1598080D01*
X321940Y1602600D01*
X324500Y1607520D01*
X326400Y1612720D01*
X327640Y1618100D01*
X328160Y1623620D01*
X328000Y1629139D01*
X327100Y1634620D01*
X325540Y1639920D01*
X323300Y1644980D01*
X320420Y1649720D01*
X316980Y1654040D01*
X313000Y1657880D01*
X308560Y1661200D01*
X303740Y1663920D01*
X298620Y1666000D01*
X293260Y1667400D01*
X287760Y1668100D01*
X282240Y1668100D01*
X276740Y1667400D01*
X271380Y1666000D01*
X266260Y1663920D01*
X261439Y1661200D01*
X257000Y1657880D01*
X253020Y1654040D01*
X249579Y1649720D01*
X246700Y1644980D01*
X244460Y1639920D01*
X242900Y1634620D01*
X242000Y1629139D01*
X241840Y1623620D01*
X242360Y1618100D01*
X243600Y1612720D01*
X245500Y1607520D01*
X248060Y1602600D01*
X251240Y1598080D01*
X254960Y1593980D01*
X259160Y1590380D01*
X263800Y1587360D01*
X268800Y1584960D01*
X274040Y1583220D01*
X279480Y1582160D01*
G37*
G36*
X2860000Y1655440D02*
G01*
X2865980Y1655800D01*
X2871860Y1656879D01*
X2877580Y1658660D01*
X2883039Y1661120D01*
X2888159Y1664220D01*
X2892860Y1667900D01*
X2897100Y1672140D01*
X2900779Y1676840D01*
X2903880Y1681960D01*
X2906340Y1687420D01*
X2908120Y1693140D01*
X2909200Y1699019D01*
X2909560Y1705000D01*
X2909200Y1710980D01*
X2908120Y1716860D01*
X2906340Y1722580D01*
X2903880Y1728040D01*
X2900779Y1733160D01*
X2897100Y1737860D01*
X2892860Y1742100D01*
X2888159Y1745780D01*
X2883039Y1748880D01*
X2877580Y1751339D01*
X2871860Y1753120D01*
X2865980Y1754199D01*
X2860000Y1754560D01*
X2854020Y1754199D01*
X2848140Y1753120D01*
X2842420Y1751339D01*
X2836960Y1748880D01*
X2831840Y1745780D01*
X2827140Y1742100D01*
X2822900Y1737860D01*
X2819220Y1733160D01*
X2816120Y1728040D01*
X2813660Y1722580D01*
X2811880Y1716860D01*
X2810800Y1710980D01*
X2810440Y1705000D01*
X2810800Y1699019D01*
X2811880Y1693140D01*
X2813660Y1687420D01*
X2816120Y1681960D01*
X2819220Y1676840D01*
X2822900Y1672140D01*
X2827140Y1667900D01*
X2831840Y1664220D01*
X2836960Y1661120D01*
X2842420Y1658660D01*
X2848140Y1656879D01*
X2854020Y1655800D01*
G37*
G36*
X1685000Y1681800D02*
G01*
X1690520Y1682160D01*
X1695960Y1683220D01*
X1701200Y1684960D01*
X1706200Y1687360D01*
X1710840Y1690380D01*
X1715040Y1693980D01*
X1718760Y1698080D01*
X1721940Y1702600D01*
X1724500Y1707520D01*
X1726399Y1712720D01*
X1727640Y1718100D01*
X1728160Y1723620D01*
X1728000Y1729139D01*
X1727100Y1734620D01*
X1725540Y1739920D01*
X1723300Y1744980D01*
X1720420Y1749720D01*
X1716980Y1754040D01*
X1713000Y1757880D01*
X1708560Y1761200D01*
X1703740Y1763920D01*
X1698620Y1766000D01*
X1693260Y1767400D01*
X1687760Y1768100D01*
X1682240Y1768100D01*
X1676740Y1767400D01*
X1671380Y1766000D01*
X1666260Y1763920D01*
X1661440Y1761200D01*
X1657000Y1757880D01*
X1653020Y1754040D01*
X1649580Y1749720D01*
X1646699Y1744980D01*
X1644460Y1739920D01*
X1642900Y1734620D01*
X1642000Y1729139D01*
X1641840Y1723620D01*
X1642360Y1718100D01*
X1643600Y1712720D01*
X1645500Y1707520D01*
X1648060Y1702600D01*
X1651240Y1698080D01*
X1654960Y1693980D01*
X1659160Y1690380D01*
X1663800Y1687360D01*
X1668800Y1684960D01*
X1674040Y1683220D01*
X1679480Y1682160D01*
G37*
G36*
X1585000Y1681800D02*
G01*
X1590520Y1682160D01*
X1595960Y1683220D01*
X1601200Y1684960D01*
X1606200Y1687360D01*
X1610840Y1690380D01*
X1615040Y1693980D01*
X1618760Y1698080D01*
X1621940Y1702600D01*
X1624500Y1707520D01*
X1626399Y1712720D01*
X1627640Y1718100D01*
X1628160Y1723620D01*
X1628000Y1729139D01*
X1627100Y1734620D01*
X1625540Y1739920D01*
X1623300Y1744980D01*
X1620420Y1749720D01*
X1616980Y1754040D01*
X1613000Y1757880D01*
X1608560Y1761200D01*
X1603740Y1763920D01*
X1598620Y1766000D01*
X1593260Y1767400D01*
X1587760Y1768100D01*
X1582240Y1768100D01*
X1576740Y1767400D01*
X1571380Y1766000D01*
X1566260Y1763920D01*
X1561440Y1761200D01*
X1557000Y1757880D01*
X1553020Y1754040D01*
X1549580Y1749720D01*
X1546699Y1744980D01*
X1544460Y1739920D01*
X1542900Y1734620D01*
X1542000Y1729139D01*
X1541840Y1723620D01*
X1542360Y1718100D01*
X1543600Y1712720D01*
X1545500Y1707520D01*
X1548060Y1702600D01*
X1551240Y1698080D01*
X1554960Y1693980D01*
X1559160Y1690380D01*
X1563800Y1687360D01*
X1568800Y1684960D01*
X1574040Y1683220D01*
X1579480Y1682160D01*
G37*
G36*
X385000Y1681800D02*
G01*
X390520Y1682160D01*
X395959Y1683220D01*
X401200Y1684960D01*
X406200Y1687360D01*
X410840Y1690380D01*
X415040Y1693980D01*
X418760Y1698080D01*
X421940Y1702600D01*
X424500Y1707520D01*
X426400Y1712720D01*
X427640Y1718100D01*
X428160Y1723620D01*
X428000Y1729139D01*
X427100Y1734620D01*
X425540Y1739920D01*
X423300Y1744980D01*
X420420Y1749720D01*
X416980Y1754040D01*
X413000Y1757880D01*
X408560Y1761200D01*
X403740Y1763920D01*
X398620Y1766000D01*
X393260Y1767400D01*
X387760Y1768100D01*
X382239Y1768100D01*
X376740Y1767400D01*
X371380Y1766000D01*
X366260Y1763920D01*
X361440Y1761200D01*
X357000Y1757880D01*
X353020Y1754040D01*
X349580Y1749720D01*
X346700Y1744980D01*
X344460Y1739920D01*
X342900Y1734620D01*
X342000Y1729139D01*
X341840Y1723620D01*
X342360Y1718100D01*
X343600Y1712720D01*
X345500Y1707520D01*
X348060Y1702600D01*
X351240Y1698080D01*
X354960Y1693980D01*
X359159Y1690380D01*
X363800Y1687360D01*
X368800Y1684960D01*
X374040Y1683220D01*
X379480Y1682160D01*
G37*
G36*
X285000Y1681800D02*
G01*
X290520Y1682160D01*
X295960Y1683220D01*
X301200Y1684960D01*
X306200Y1687360D01*
X310840Y1690380D01*
X315040Y1693980D01*
X318760Y1698080D01*
X321940Y1702600D01*
X324500Y1707520D01*
X326400Y1712720D01*
X327640Y1718100D01*
X328160Y1723620D01*
X328000Y1729139D01*
X327100Y1734620D01*
X325540Y1739920D01*
X323300Y1744980D01*
X320420Y1749720D01*
X316980Y1754040D01*
X313000Y1757880D01*
X308560Y1761200D01*
X303740Y1763920D01*
X298620Y1766000D01*
X293260Y1767400D01*
X287760Y1768100D01*
X282240Y1768100D01*
X276740Y1767400D01*
X271380Y1766000D01*
X266260Y1763920D01*
X261439Y1761200D01*
X257000Y1757880D01*
X253020Y1754040D01*
X249579Y1749720D01*
X246700Y1744980D01*
X244460Y1739920D01*
X242900Y1734620D01*
X242000Y1729139D01*
X241840Y1723620D01*
X242360Y1718100D01*
X243600Y1712720D01*
X245500Y1707520D01*
X248060Y1702600D01*
X251240Y1698080D01*
X254960Y1693980D01*
X259160Y1690380D01*
X263800Y1687360D01*
X268800Y1684960D01*
X274040Y1683220D01*
X279480Y1682160D01*
G37*
G36*
X285000Y1781800D02*
G01*
X290520Y1782160D01*
X295960Y1783220D01*
X301200Y1784960D01*
X306200Y1787360D01*
X310840Y1790380D01*
X315040Y1793980D01*
X318760Y1798080D01*
X321940Y1802600D01*
X324500Y1807520D01*
X326400Y1812720D01*
X327640Y1818100D01*
X328160Y1823620D01*
X328000Y1829139D01*
X327100Y1834620D01*
X325540Y1839920D01*
X323300Y1844980D01*
X320420Y1849720D01*
X316980Y1854040D01*
X313000Y1857880D01*
X308560Y1861200D01*
X303740Y1863920D01*
X298620Y1866000D01*
X293260Y1867400D01*
X287760Y1868100D01*
X282240Y1868100D01*
X276740Y1867400D01*
X271380Y1866000D01*
X266260Y1863920D01*
X261439Y1861200D01*
X257000Y1857880D01*
X253020Y1854040D01*
X249579Y1849720D01*
X246700Y1844980D01*
X244460Y1839920D01*
X242900Y1834620D01*
X242000Y1829139D01*
X241840Y1823620D01*
X242360Y1818100D01*
X243600Y1812720D01*
X245500Y1807520D01*
X248060Y1802600D01*
X251240Y1798080D01*
X254960Y1793980D01*
X259160Y1790380D01*
X263800Y1787360D01*
X268800Y1784960D01*
X274040Y1783220D01*
X279480Y1782160D01*
G37*
G36*
X385000Y1781800D02*
G01*
X390520Y1782160D01*
X395959Y1783220D01*
X401200Y1784960D01*
X406200Y1787360D01*
X410840Y1790380D01*
X415040Y1793980D01*
X418760Y1798080D01*
X421940Y1802600D01*
X424500Y1807520D01*
X426400Y1812720D01*
X427640Y1818100D01*
X428160Y1823620D01*
X428000Y1829139D01*
X427100Y1834620D01*
X425540Y1839920D01*
X423300Y1844980D01*
X420420Y1849720D01*
X416980Y1854040D01*
X413000Y1857880D01*
X408560Y1861200D01*
X403740Y1863920D01*
X398620Y1866000D01*
X393260Y1867400D01*
X387760Y1868100D01*
X382239Y1868100D01*
X376740Y1867400D01*
X371380Y1866000D01*
X366260Y1863920D01*
X361440Y1861200D01*
X357000Y1857880D01*
X353020Y1854040D01*
X349580Y1849720D01*
X346700Y1844980D01*
X344460Y1839920D01*
X342900Y1834620D01*
X342000Y1829139D01*
X341840Y1823620D01*
X342360Y1818100D01*
X343600Y1812720D01*
X345500Y1807520D01*
X348060Y1802600D01*
X351240Y1798080D01*
X354960Y1793980D01*
X359159Y1790380D01*
X363800Y1787360D01*
X368800Y1784960D01*
X374040Y1783220D01*
X379480Y1782160D01*
G37*
G36*
X285000Y1881800D02*
G01*
X290520Y1882160D01*
X295960Y1883220D01*
X301200Y1884960D01*
X306200Y1887360D01*
X310840Y1890380D01*
X315040Y1893980D01*
X318760Y1898080D01*
X321940Y1902600D01*
X324500Y1907520D01*
X326400Y1912720D01*
X327640Y1918100D01*
X328160Y1923620D01*
X328000Y1929139D01*
X327100Y1934620D01*
X325540Y1939920D01*
X323300Y1944980D01*
X320420Y1949720D01*
X316980Y1954040D01*
X313000Y1957880D01*
X308560Y1961200D01*
X303740Y1963920D01*
X298620Y1966000D01*
X293260Y1967400D01*
X287760Y1968100D01*
X282240Y1968100D01*
X276740Y1967400D01*
X271380Y1966000D01*
X266260Y1963920D01*
X261439Y1961200D01*
X257000Y1957880D01*
X253020Y1954040D01*
X249579Y1949720D01*
X246700Y1944980D01*
X244460Y1939920D01*
X242900Y1934620D01*
X242000Y1929139D01*
X241840Y1923620D01*
X242360Y1918100D01*
X243600Y1912720D01*
X245500Y1907520D01*
X248060Y1902600D01*
X251240Y1898080D01*
X254960Y1893980D01*
X259160Y1890380D01*
X263800Y1887360D01*
X268800Y1884960D01*
X274040Y1883220D01*
X279480Y1882160D01*
G37*
G36*
X3675000Y1900440D02*
G01*
X3680980Y1900800D01*
X3686860Y1901879D01*
X3692580Y1903660D01*
X3698039Y1906120D01*
X3703159Y1909220D01*
X3707860Y1912900D01*
X3712100Y1917140D01*
X3715779Y1921840D01*
X3718880Y1926960D01*
X3721340Y1932420D01*
X3723120Y1938140D01*
X3724200Y1944019D01*
X3724560Y1950000D01*
X3724200Y1955980D01*
X3723120Y1961860D01*
X3721340Y1967580D01*
X3718880Y1973040D01*
X3715779Y1978160D01*
X3712100Y1982860D01*
X3707860Y1987100D01*
X3703159Y1990780D01*
X3698039Y1993880D01*
X3692580Y1996339D01*
X3686860Y1998120D01*
X3680980Y1999199D01*
X3675000Y1999560D01*
X3669020Y1999199D01*
X3663140Y1998120D01*
X3657420Y1996339D01*
X3651960Y1993880D01*
X3646840Y1990780D01*
X3642140Y1987100D01*
X3637900Y1982860D01*
X3634220Y1978160D01*
X3631120Y1973040D01*
X3628660Y1967580D01*
X3626880Y1961860D01*
X3625800Y1955980D01*
X3625440Y1950000D01*
X3625800Y1944019D01*
X3626880Y1938140D01*
X3628660Y1932420D01*
X3631120Y1926960D01*
X3634220Y1921840D01*
X3637900Y1917140D01*
X3642140Y1912900D01*
X3646840Y1909220D01*
X3651960Y1906120D01*
X3657420Y1903660D01*
X3663140Y1901879D01*
X3669020Y1900800D01*
G37*
G36*
X4059400Y1933560D02*
G01*
X4067020Y1934120D01*
X4074540Y1935400D01*
X4081920Y1937420D01*
X4089060Y1940120D01*
X4095920Y1943520D01*
X4102420Y1947540D01*
X4108480Y1952180D01*
X4114080Y1957400D01*
X4119140Y1963120D01*
X4123639Y1969300D01*
X4127520Y1975880D01*
X4130740Y1982820D01*
X4133279Y1990020D01*
X4135100Y1997440D01*
X4136200Y2005000D01*
X4136580Y2012640D01*
X4136200Y2020280D01*
X4135100Y2027840D01*
X4133279Y2035260D01*
X4130740Y2042460D01*
X4127520Y2049400D01*
X4123639Y2055980D01*
X4119140Y2062160D01*
X4114080Y2067880D01*
X4108480Y2073100D01*
X4102420Y2077740D01*
X4095920Y2081759D01*
X4089060Y2085160D01*
X4081920Y2087860D01*
X4074540Y2089860D01*
X4067020Y2091160D01*
X4059400Y2091720D01*
X4051760Y2091519D01*
X4044160Y2090600D01*
X4036700Y2088959D01*
X4029440Y2086600D01*
X4022420Y2083540D01*
X4015740Y2079820D01*
X4009460Y2075480D01*
X4003620Y2070560D01*
X3998279Y2065080D01*
X3993500Y2059120D01*
X3989300Y2052740D01*
X3985760Y2045960D01*
X3982880Y2038899D01*
X3980680Y2031560D01*
X3979220Y2024060D01*
X3978480Y2016459D01*
X3978480Y2008820D01*
X3979220Y2001220D01*
X3980680Y1993720D01*
X3982880Y1986380D01*
X3985760Y1979300D01*
X3989300Y1972540D01*
X3993500Y1966160D01*
X3998279Y1960200D01*
X4003620Y1954720D01*
X4009460Y1949800D01*
X4015740Y1945460D01*
X4022420Y1941740D01*
X4029440Y1938680D01*
X4036700Y1936320D01*
X4044160Y1934680D01*
X4051760Y1933760D01*
G37*
G36*
X2340000Y2055440D02*
G01*
X2345980Y2055800D01*
X2351860Y2056879D01*
X2357580Y2058660D01*
X2363040Y2061120D01*
X2368160Y2064220D01*
X2372860Y2067900D01*
X2377100Y2072140D01*
X2380780Y2076840D01*
X2383880Y2081960D01*
X2386360Y2087440D01*
X2387220Y2088680D01*
X2388500Y2089520D01*
X2390000Y2089800D01*
X2810000Y2089800D01*
X2811500Y2089520D01*
X2812780Y2088680D01*
X2813639Y2087440D01*
X2816120Y2081960D01*
X2819220Y2076840D01*
X2822900Y2072140D01*
X2827140Y2067900D01*
X2831840Y2064220D01*
X2836960Y2061120D01*
X2842420Y2058660D01*
X2848140Y2056879D01*
X2854020Y2055800D01*
X2860000Y2055440D01*
X2865980Y2055800D01*
X2871860Y2056879D01*
X2877580Y2058660D01*
X2883039Y2061120D01*
X2888159Y2064220D01*
X2892860Y2067900D01*
X2897100Y2072140D01*
X2900779Y2076840D01*
X2903880Y2081960D01*
X2906340Y2087420D01*
X2908120Y2093140D01*
X2909200Y2099020D01*
X2909560Y2105000D01*
X2909200Y2110980D01*
X2908120Y2116860D01*
X2906340Y2122580D01*
X2903880Y2128040D01*
X2900779Y2133160D01*
X2897100Y2137860D01*
X2892860Y2142100D01*
X2888159Y2145780D01*
X2883039Y2148880D01*
X2877580Y2151340D01*
X2871860Y2153120D01*
X2865980Y2154200D01*
X2860000Y2154560D01*
X2854020Y2154200D01*
X2848140Y2153120D01*
X2842420Y2151340D01*
X2836960Y2148880D01*
X2831840Y2145780D01*
X2827140Y2142100D01*
X2822900Y2137860D01*
X2819220Y2133160D01*
X2816120Y2128040D01*
X2813660Y2122560D01*
X2812780Y2121320D01*
X2811500Y2120500D01*
X2810000Y2120200D01*
X2390000Y2120200D01*
X2388500Y2120500D01*
X2387220Y2121320D01*
X2386340Y2122560D01*
X2383880Y2128040D01*
X2380780Y2133160D01*
X2377100Y2137860D01*
X2372860Y2142100D01*
X2368160Y2145780D01*
X2363040Y2148880D01*
X2357580Y2151340D01*
X2351860Y2153120D01*
X2345980Y2154200D01*
X2340000Y2154560D01*
X2334020Y2154200D01*
X2328140Y2153120D01*
X2322420Y2151340D01*
X2316960Y2148880D01*
X2311840Y2145780D01*
X2307140Y2142100D01*
X2302900Y2137860D01*
X2299220Y2133160D01*
X2296120Y2128040D01*
X2293660Y2122580D01*
X2291880Y2116860D01*
X2290800Y2110980D01*
X2290440Y2105000D01*
X2290800Y2099020D01*
X2291880Y2093140D01*
X2293660Y2087420D01*
X2296120Y2081960D01*
X2299220Y2076840D01*
X2302900Y2072140D01*
X2307140Y2067900D01*
X2311840Y2064220D01*
X2316960Y2061120D01*
X2322420Y2058660D01*
X2328140Y2056879D01*
X2334020Y2055800D01*
G37*
G36*
X285000Y2081800D02*
G01*
X290520Y2082160D01*
X295960Y2083220D01*
X301200Y2084960D01*
X306200Y2087360D01*
X310840Y2090380D01*
X315040Y2093980D01*
X318760Y2098080D01*
X321940Y2102600D01*
X324500Y2107520D01*
X326400Y2112720D01*
X327640Y2118100D01*
X328160Y2123620D01*
X328000Y2129140D01*
X327100Y2134620D01*
X325540Y2139920D01*
X323300Y2144980D01*
X320420Y2149720D01*
X316980Y2154040D01*
X313000Y2157880D01*
X308560Y2161200D01*
X303740Y2163920D01*
X298620Y2166000D01*
X293260Y2167400D01*
X287760Y2168100D01*
X282240Y2168100D01*
X276740Y2167400D01*
X271380Y2166000D01*
X266260Y2163920D01*
X261439Y2161200D01*
X257000Y2157880D01*
X253020Y2154040D01*
X249579Y2149720D01*
X246700Y2144980D01*
X244460Y2139920D01*
X242900Y2134620D01*
X242000Y2129140D01*
X241840Y2123620D01*
X242360Y2118100D01*
X243600Y2112720D01*
X245500Y2107520D01*
X248060Y2102600D01*
X251240Y2098080D01*
X254960Y2093980D01*
X259160Y2090380D01*
X263800Y2087360D01*
X268800Y2084960D01*
X274040Y2083220D01*
X279480Y2082160D01*
G37*
G36*
X2081780Y2115780D02*
G01*
X2088899Y2116320D01*
X2095900Y2117600D01*
X2102740Y2119600D01*
X2109360Y2122280D01*
X2115640Y2125640D01*
X2121560Y2129620D01*
X2127040Y2134180D01*
X2132020Y2139280D01*
X2136440Y2144880D01*
X2140260Y2150900D01*
X2143460Y2157280D01*
X2145960Y2163940D01*
X2147780Y2170840D01*
X2148880Y2177880D01*
X2149240Y2185000D01*
X2148880Y2192120D01*
X2147780Y2199160D01*
X2145960Y2206060D01*
X2143460Y2212720D01*
X2140260Y2219100D01*
X2136440Y2225120D01*
X2132020Y2230720D01*
X2127040Y2235820D01*
X2121560Y2240380D01*
X2115640Y2244360D01*
X2109360Y2247720D01*
X2102740Y2250400D01*
X2095900Y2252400D01*
X2088899Y2253680D01*
X2081780Y2254220D01*
X2074660Y2254040D01*
X2067580Y2253120D01*
X2060640Y2251480D01*
X2053920Y2249140D01*
X2047460Y2246120D01*
X2041339Y2242460D01*
X2035640Y2238180D01*
X2030420Y2233320D01*
X2025700Y2227980D01*
X2021579Y2222160D01*
X2018060Y2215960D01*
X2015200Y2209420D01*
X2013040Y2202640D01*
X2011579Y2195660D01*
X2010840Y2188560D01*
X2010840Y2181440D01*
X2011579Y2174340D01*
X2013040Y2167360D01*
X2015200Y2160580D01*
X2018060Y2154040D01*
X2021579Y2147840D01*
X2025700Y2142020D01*
X2030420Y2136680D01*
X2035640Y2131820D01*
X2041339Y2127540D01*
X2047460Y2123880D01*
X2053920Y2120860D01*
X2060640Y2118520D01*
X2067580Y2116880D01*
X2074660Y2115960D01*
G37*
G36*
X3775000Y2120140D02*
G01*
X3780179Y2120480D01*
X3785280Y2121500D01*
X3790200Y2123160D01*
X3794860Y2125460D01*
X3799180Y2128340D01*
X3803080Y2131780D01*
X3806520Y2135680D01*
X3809400Y2140000D01*
X3811700Y2144660D01*
X3813360Y2149580D01*
X3814380Y2154680D01*
X3814720Y2159980D01*
X3814720Y2179420D01*
X3814380Y2184720D01*
X3813360Y2189820D01*
X3811700Y2194740D01*
X3809400Y2199400D01*
X3806520Y2203720D01*
X3803080Y2207620D01*
X3799180Y2211060D01*
X3794860Y2213940D01*
X3790200Y2216240D01*
X3785280Y2217900D01*
X3780179Y2218920D01*
X3775000Y2219260D01*
X3769820Y2218920D01*
X3764720Y2217900D01*
X3759800Y2216240D01*
X3755140Y2213940D01*
X3750820Y2211060D01*
X3746920Y2207620D01*
X3743480Y2203720D01*
X3740600Y2199400D01*
X3738300Y2194740D01*
X3736640Y2189820D01*
X3735620Y2184720D01*
X3735280Y2179420D01*
X3735280Y2159980D01*
X3735620Y2154680D01*
X3736640Y2149580D01*
X3738300Y2144660D01*
X3740600Y2140000D01*
X3743480Y2135680D01*
X3746920Y2131780D01*
X3750820Y2128340D01*
X3755140Y2125460D01*
X3759800Y2123160D01*
X3764720Y2121500D01*
X3769820Y2120480D01*
G37*
G36*
X3675000Y2120140D02*
G01*
X3680179Y2120480D01*
X3685280Y2121500D01*
X3690200Y2123160D01*
X3694860Y2125460D01*
X3699180Y2128340D01*
X3703080Y2131780D01*
X3706520Y2135680D01*
X3709400Y2140000D01*
X3711700Y2144660D01*
X3713360Y2149580D01*
X3714380Y2154680D01*
X3714720Y2159980D01*
X3714720Y2179420D01*
X3714380Y2184720D01*
X3713360Y2189820D01*
X3711700Y2194740D01*
X3709400Y2199400D01*
X3706520Y2203720D01*
X3703080Y2207620D01*
X3699180Y2211060D01*
X3694860Y2213940D01*
X3690200Y2216240D01*
X3685280Y2217900D01*
X3680179Y2218920D01*
X3675000Y2219260D01*
X3669820Y2218920D01*
X3664720Y2217900D01*
X3659800Y2216240D01*
X3655140Y2213940D01*
X3650820Y2211060D01*
X3646920Y2207620D01*
X3643480Y2203720D01*
X3640600Y2199400D01*
X3638300Y2194740D01*
X3636640Y2189820D01*
X3635620Y2184720D01*
X3635280Y2179420D01*
X3635280Y2159980D01*
X3635620Y2154680D01*
X3636640Y2149580D01*
X3638300Y2144660D01*
X3640600Y2140000D01*
X3643480Y2135680D01*
X3646920Y2131780D01*
X3650820Y2128340D01*
X3655140Y2125460D01*
X3659800Y2123160D01*
X3664720Y2121500D01*
X3669820Y2120480D01*
G37*
G36*
X3575000Y2120140D02*
G01*
X3580179Y2120480D01*
X3585280Y2121500D01*
X3590200Y2123160D01*
X3594860Y2125460D01*
X3599180Y2128340D01*
X3603080Y2131780D01*
X3606520Y2135680D01*
X3609400Y2140000D01*
X3611700Y2144660D01*
X3613360Y2149580D01*
X3614380Y2154680D01*
X3614720Y2159980D01*
X3614720Y2179420D01*
X3614380Y2184720D01*
X3613360Y2189820D01*
X3611700Y2194740D01*
X3609400Y2199400D01*
X3606520Y2203720D01*
X3603080Y2207620D01*
X3599180Y2211060D01*
X3594860Y2213940D01*
X3590200Y2216240D01*
X3585280Y2217900D01*
X3580179Y2218920D01*
X3575000Y2219260D01*
X3569820Y2218920D01*
X3564720Y2217900D01*
X3559800Y2216240D01*
X3555779Y2214260D01*
X3554180Y2213840D01*
X3552559Y2214120D01*
X3551180Y2215020D01*
X3530580Y2235620D01*
X3528140Y2237620D01*
X3525500Y2239040D01*
X3522660Y2239900D01*
X3519500Y2240200D01*
X3493420Y2240200D01*
X3491880Y2240500D01*
X3490580Y2241380D01*
X3489720Y2242680D01*
X3489420Y2244200D01*
X3489420Y2273980D01*
X3489120Y2276480D01*
X3488380Y2278620D01*
X3487160Y2280560D01*
X3485560Y2282160D01*
X3483620Y2283380D01*
X3481480Y2284120D01*
X3478980Y2284400D01*
X3381019Y2284400D01*
X3378519Y2284120D01*
X3376380Y2283380D01*
X3374440Y2282160D01*
X3372840Y2280560D01*
X3371620Y2278620D01*
X3370880Y2276480D01*
X3370600Y2273980D01*
X3370600Y2176020D01*
X3370880Y2173520D01*
X3371620Y2171380D01*
X3372840Y2169440D01*
X3374440Y2167840D01*
X3376380Y2166620D01*
X3378519Y2165880D01*
X3381019Y2165580D01*
X3478980Y2165580D01*
X3481480Y2165880D01*
X3483620Y2166620D01*
X3485560Y2167840D01*
X3487160Y2169440D01*
X3488380Y2171380D01*
X3489120Y2173520D01*
X3489420Y2176020D01*
X3489420Y2205800D01*
X3489720Y2207340D01*
X3490580Y2208640D01*
X3491880Y2209500D01*
X3493420Y2209800D01*
X3511740Y2209800D01*
X3513279Y2209500D01*
X3514580Y2208640D01*
X3534580Y2188620D01*
X3535340Y2187560D01*
X3535720Y2186320D01*
X3535280Y2179420D01*
X3535280Y2159980D01*
X3535620Y2154680D01*
X3536640Y2149580D01*
X3538300Y2144660D01*
X3540600Y2140000D01*
X3543480Y2135680D01*
X3546920Y2131780D01*
X3550820Y2128340D01*
X3555140Y2125460D01*
X3559800Y2123160D01*
X3564720Y2121500D01*
X3569820Y2120480D01*
G37*
G36*
X1821020Y2165580D02*
G01*
X1918980Y2165580D01*
X1921480Y2165880D01*
X1923620Y2166620D01*
X1925560Y2167840D01*
X1927160Y2169440D01*
X1928380Y2171380D01*
X1929120Y2173520D01*
X1929420Y2176020D01*
X1929420Y2273980D01*
X1929120Y2276480D01*
X1928380Y2278620D01*
X1927160Y2280560D01*
X1925560Y2282160D01*
X1923620Y2283380D01*
X1921480Y2284120D01*
X1918980Y2284400D01*
X1821020Y2284400D01*
X1818520Y2284120D01*
X1816380Y2283380D01*
X1814440Y2282160D01*
X1812840Y2280560D01*
X1811620Y2278620D01*
X1810880Y2276480D01*
X1810600Y2273980D01*
X1810600Y2176020D01*
X1810880Y2173520D01*
X1811620Y2171380D01*
X1812840Y2169440D01*
X1814440Y2167840D01*
X1816380Y2166620D01*
X1818520Y2165880D01*
G37*
G36*
X385000Y2181800D02*
G01*
X390520Y2182160D01*
X395959Y2183220D01*
X401200Y2184960D01*
X406200Y2187360D01*
X410840Y2190380D01*
X415040Y2193980D01*
X418760Y2198080D01*
X421940Y2202600D01*
X424500Y2207520D01*
X426400Y2212720D01*
X427640Y2218100D01*
X428160Y2223620D01*
X428000Y2229140D01*
X427100Y2234620D01*
X425540Y2239920D01*
X423300Y2244980D01*
X420420Y2249720D01*
X416980Y2254040D01*
X413000Y2257880D01*
X408560Y2261200D01*
X403740Y2263920D01*
X398620Y2266000D01*
X393260Y2267400D01*
X387760Y2268100D01*
X382239Y2268100D01*
X376740Y2267400D01*
X371380Y2266000D01*
X366260Y2263920D01*
X361440Y2261200D01*
X357000Y2257880D01*
X353020Y2254040D01*
X349580Y2249720D01*
X346700Y2244980D01*
X344460Y2239920D01*
X342900Y2234620D01*
X342000Y2229140D01*
X341840Y2223620D01*
X342360Y2218100D01*
X343600Y2212720D01*
X345500Y2207520D01*
X348060Y2202600D01*
X351240Y2198080D01*
X354960Y2193980D01*
X359159Y2190380D01*
X363800Y2187360D01*
X368800Y2184960D01*
X374040Y2183220D01*
X379480Y2182160D01*
G37*
G36*
X285000Y2181800D02*
G01*
X290520Y2182160D01*
X295960Y2183220D01*
X301200Y2184960D01*
X306200Y2187360D01*
X310840Y2190380D01*
X315040Y2193980D01*
X318760Y2198080D01*
X321940Y2202600D01*
X324500Y2207520D01*
X326400Y2212720D01*
X327640Y2218100D01*
X328160Y2223620D01*
X328000Y2229140D01*
X327100Y2234620D01*
X325540Y2239920D01*
X323300Y2244980D01*
X320420Y2249720D01*
X316980Y2254040D01*
X313000Y2257880D01*
X308560Y2261200D01*
X303740Y2263920D01*
X298620Y2266000D01*
X293260Y2267400D01*
X287760Y2268100D01*
X282240Y2268100D01*
X276740Y2267400D01*
X271380Y2266000D01*
X266260Y2263920D01*
X261439Y2261200D01*
X257000Y2257880D01*
X253020Y2254040D01*
X249579Y2249720D01*
X246700Y2244980D01*
X244460Y2239920D01*
X242900Y2234620D01*
X242000Y2229140D01*
X241840Y2223620D01*
X242360Y2218100D01*
X243600Y2212720D01*
X245500Y2207520D01*
X248060Y2202600D01*
X251240Y2198080D01*
X254960Y2193980D01*
X259160Y2190380D01*
X263800Y2187360D01*
X268800Y2184960D01*
X274040Y2183220D01*
X279480Y2182160D01*
G37*
G36*
X3982500Y2319800D02*
G01*
X3988560Y2320180D01*
X3994520Y2321260D01*
X4000299Y2323060D01*
X4005820Y2325560D01*
X4011019Y2328700D01*
X4015779Y2332440D01*
X4020059Y2336720D01*
X4023800Y2341480D01*
X4026940Y2346680D01*
X4029440Y2352200D01*
X4031240Y2357980D01*
X4032320Y2363940D01*
X4032700Y2370000D01*
X4032320Y2376060D01*
X4031240Y2382020D01*
X4029440Y2387800D01*
X4026940Y2393320D01*
X4023800Y2398520D01*
X4020059Y2403280D01*
X4015779Y2407560D01*
X4011019Y2411300D01*
X4005820Y2414440D01*
X4000299Y2416940D01*
X3994520Y2418740D01*
X3988560Y2419820D01*
X3982500Y2420200D01*
X3976440Y2419820D01*
X3970480Y2418740D01*
X3964700Y2416940D01*
X3959180Y2414440D01*
X3953980Y2411300D01*
X3949220Y2407560D01*
X3944940Y2403280D01*
X3941200Y2398520D01*
X3938060Y2393320D01*
X3935560Y2387800D01*
X3933759Y2382020D01*
X3932679Y2376060D01*
X3932300Y2370000D01*
X3932679Y2363940D01*
X3933759Y2357980D01*
X3935560Y2352200D01*
X3938060Y2346680D01*
X3941200Y2341480D01*
X3944940Y2336720D01*
X3949220Y2332440D01*
X3953980Y2328700D01*
X3959180Y2325560D01*
X3964700Y2323060D01*
X3970480Y2321260D01*
X3976440Y2320180D01*
G37*
G36*
X530000Y2329800D02*
G01*
X536060Y2330180D01*
X542020Y2331260D01*
X547800Y2333060D01*
X553320Y2335560D01*
X558520Y2338700D01*
X563280Y2342440D01*
X567560Y2346720D01*
X571300Y2351480D01*
X574440Y2356680D01*
X576940Y2362200D01*
X578740Y2367980D01*
X579820Y2373940D01*
X580200Y2380000D01*
X579820Y2386060D01*
X578740Y2392020D01*
X576940Y2397800D01*
X574440Y2403320D01*
X571300Y2408520D01*
X567560Y2413280D01*
X563280Y2417560D01*
X558520Y2421300D01*
X553320Y2424440D01*
X547800Y2426940D01*
X542020Y2428740D01*
X536060Y2429820D01*
X530000Y2430200D01*
X523940Y2429820D01*
X517980Y2428740D01*
X512200Y2426940D01*
X506680Y2424440D01*
X501480Y2421300D01*
X496719Y2417560D01*
X492440Y2413280D01*
X488700Y2408520D01*
X485560Y2403320D01*
X483060Y2397800D01*
X481260Y2392020D01*
X480180Y2386060D01*
X479799Y2380000D01*
X480180Y2373940D01*
X481260Y2367980D01*
X483060Y2362200D01*
X485560Y2356680D01*
X488700Y2351480D01*
X492440Y2346720D01*
X496719Y2342440D01*
X501480Y2338700D01*
X506680Y2335560D01*
X512200Y2333060D01*
X517980Y2331260D01*
X523940Y2330180D01*
G37*

%LPD*%
D10*
X3720000Y1255005D02*
G01*
X3726400Y1248604D01*
X4167659Y1248604D01*
X4212600Y1293544D01*
X3898289Y712505D02*
G01*
X3869260Y741534D01*
X2682489Y741534D01*
X2670959Y730005D01*
X2327380Y730005D01*
X2272380Y675005D01*
X435000Y675005D01*
X385000Y625005D01*
X285000Y325005D02*
G01*
X221460Y261464D01*
X221460Y202485D01*
X262060Y161885D01*
X3632139Y161885D01*
X3812110Y341855D01*
X2860000Y2105005D02*
G01*
X2340000Y2105005D01*
X2242500Y870005D02*
G01*
X2252500Y880005D01*
X2465559Y880005D01*
X2465559Y980005D02*
G01*
X2252500Y980005D01*
X2242500Y990005D01*
X2465559Y1180005D02*
G01*
X2460190Y1185374D01*
X2287129Y1185374D01*
X2242500Y1230005D01*
X2465559Y1280005D02*
G01*
X2405559Y1340005D01*
X2242500Y1340005D01*
X285000Y225005D02*
G01*
X335000Y275005D01*
X1907150Y275005D01*
X1970990Y338845D01*
X3174240Y1250005D02*
G01*
X3260789Y1336554D01*
X4014470Y1336554D01*
X4057479Y1293544D01*
X2242500Y1110005D02*
G01*
X2435559Y1110005D01*
X2465559Y1080005D01*
X3612110Y341934D02*
G01*
X3448170Y177995D01*
X268730Y177995D01*
X237570Y209155D01*
X237570Y240754D01*
X266120Y269304D01*
X293910Y269304D01*
X329789Y305185D01*
X329789Y480214D01*
X285000Y525005D01*
X385000Y525005D02*
G01*
X429459Y569465D01*
X1816670Y569465D01*
X1855050Y531084D01*
X3782070Y531084D01*
X3945590Y694605D01*
X3945590Y765205D01*
X3898289Y812505D01*
X3898370Y912505D02*
G01*
X2644930Y912505D01*
X2527430Y1030005D01*
X2429930Y1030005D01*
X2409930Y1050005D01*
X1799549Y1050005D01*
X1774549Y1075005D01*
X810630Y1075005D01*
X385000Y1225005D02*
G01*
X340850Y1269155D01*
X261039Y1269155D01*
X234749Y1242865D01*
X234749Y1106015D01*
X265760Y1075005D01*
X429079Y1075005D01*
X523409Y980675D01*
X1780500Y980675D01*
X1827250Y933924D01*
X2533990Y933924D01*
X2605450Y862465D01*
X4167539Y862465D01*
X4220000Y810005D01*
X4220000Y910005D02*
G01*
X4164669Y965335D01*
X2645389Y965335D01*
X2484650Y1126075D01*
X2323720Y1126075D01*
X2280490Y1169304D01*
X340700Y1169304D01*
X285000Y1225005D01*
X1585000Y1525005D02*
G01*
X1685000Y1525005D01*
X1685000Y1525005D02*
G01*
X1757929Y1452074D01*
X1984629Y1452074D01*
X2151700Y1285005D01*
X2341090Y1285005D01*
X2392169Y1233924D01*
X2604690Y1233924D01*
X2671729Y1166885D01*
X2882359Y1166885D01*
X2974240Y1075005D01*
X3430000Y2225005D02*
G01*
X3519700Y2225005D01*
X3575000Y2169704D01*
X2822680Y1298445D02*
G01*
X2311549Y1809564D01*
X2086779Y1809564D01*
X1871340Y2025005D01*
X385000Y2025005D01*
X3320000Y1405005D02*
G01*
X2929240Y1405005D01*
X2822680Y1298445D01*
X2822680Y1298445D02*
G01*
X2774240Y1250005D01*
X385000Y2125005D02*
G01*
X1796850Y2125005D01*
X2038490Y1883364D01*
X3053950Y1883364D01*
X3369700Y1567615D01*
X3369700Y1545005D01*
X3399849Y1545005D02*
G01*
X3369700Y1545005D01*
X3399849Y1545005D02*
G01*
X3430000Y1545005D01*
X3430000Y1545005D02*
G01*
X3670000Y1545005D01*
X3675000Y1550005D01*
X3072659Y1075005D02*
G01*
X3026139Y1075005D01*
X3571899Y1075005D02*
G01*
X3571899Y1098274D01*
X3548649Y1121525D01*
X3165709Y1121525D01*
X3119189Y1075005D01*
X3618429Y1075005D02*
G01*
X3571899Y1075005D01*
X3072659Y1075005D02*
G01*
X3119189Y1075005D01*
X285000Y2025005D02*
G01*
X335000Y1975005D01*
X1849790Y1975005D01*
X2046599Y1778195D01*
X2118149Y1778195D01*
X2698829Y1197514D01*
X2926890Y1197514D01*
X3026139Y1098265D01*
X3026139Y1075005D01*
X2551300Y341855D02*
G01*
X2505129Y388024D01*
X2118599Y388024D01*
X2069420Y338845D01*
X3421580Y1075005D02*
G01*
X3374979Y1028404D01*
X2922420Y1028404D01*
X2875820Y1075005D01*
X2465559Y780005D02*
G01*
X2282500Y780005D01*
X2242500Y740005D01*
X2465559Y680005D02*
G01*
X2307500Y680005D01*
X2242500Y615005D01*
X285000Y425005D02*
G01*
X200819Y340824D01*
X200819Y200335D01*
X257199Y143955D01*
X3680690Y143955D01*
X285000Y625005D02*
G01*
X335000Y575005D01*
X335000Y512195D01*
X372190Y475005D01*
X3111220Y475005D01*
X3120699Y484484D01*
X3369560Y484484D01*
X3512110Y341934D01*
X385000Y925005D02*
G01*
X432269Y877734D01*
X1741040Y877734D01*
X1799229Y819544D01*
X2287190Y819544D01*
X285000Y925005D02*
G01*
X340900Y869104D01*
X340900Y802764D01*
X368659Y775005D01*
X410709Y775005D01*
X478040Y707674D01*
X893199Y707674D01*
X3130270Y461385D02*
G01*
X3089129Y420244D01*
X1760590Y420244D01*
X1712259Y371914D01*
X431909Y371914D01*
X385000Y325005D01*
X1781880Y351224D02*
G01*
X1834790Y404135D01*
X2870159Y404135D01*
X2932359Y341934D01*
X2090010Y790475D02*
G01*
X1775290Y790475D01*
X1764709Y779895D01*
X430109Y779895D01*
X385000Y825005D01*
D11*
G01*
X2860000Y1705000D03*
G01*
X2860000Y2105000D03*
D12*
G01*
X4220000Y1110000D03*
G01*
X4220000Y1010000D03*
G01*
X4220000Y910000D03*
G01*
X4220000Y810000D03*
G01*
X4220000Y710000D03*
D13*
G01*
X4220000Y610000D03*
G01*
X3072659Y695000D03*
D14*
G01*
X2974240Y695000D03*
G01*
X2875820Y695000D03*
D12*
G01*
X3902359Y1293539D03*
G01*
X4057479Y1293539D03*
G01*
X4212600Y1293539D03*
D15*
G01*
X3575000Y2169699D03*
G01*
X3675000Y2169699D03*
G01*
X3775000Y2169699D03*
D11*
G01*
X3720000Y1255000D03*
G01*
X3320000Y1255000D03*
G01*
X3174240Y1250000D03*
G01*
X2774240Y1250000D03*
D16*
G01*
X1970990Y338840D03*
G01*
X2069420Y338840D03*
D11*
G01*
X1842500Y1340000D03*
G01*
X2242500Y1340000D03*
G01*
X1842500Y1230000D03*
G01*
X2242500Y1230000D03*
G01*
X1842500Y1110000D03*
G01*
X2242500Y1110000D03*
G01*
X1842500Y990000D03*
G01*
X2242500Y990000D03*
G01*
X1842500Y870000D03*
G01*
X2242500Y870000D03*
G01*
X1842500Y740000D03*
G01*
X2242500Y740000D03*
G01*
X1842500Y615000D03*
G01*
X2242500Y615000D03*
G01*
X2340000Y2105000D03*
G01*
X2340000Y1705000D03*
D13*
G01*
X3072659Y1075000D03*
D14*
G01*
X2974240Y1075000D03*
G01*
X2875820Y1075000D03*
D13*
G01*
X3618429Y695000D03*
D14*
G01*
X3520000Y695000D03*
G01*
X3421580Y695000D03*
D13*
G01*
X3618429Y1075000D03*
D14*
G01*
X3520000Y1075000D03*
G01*
X3421580Y1075000D03*
D11*
G01*
X3675000Y1550000D03*
G01*
X3675000Y1950000D03*
D17*
G01*
X3132359Y341849D03*
G01*
X3232359Y341849D03*
G01*
X3032359Y341930D03*
G01*
X2932359Y341930D03*
G01*
X2551300Y341849D03*
G01*
X2651300Y341849D03*
G01*
X2451300Y341930D03*
G01*
X2351300Y341930D03*
G01*
X2465559Y1180000D03*
G01*
X2465559Y1280000D03*
G01*
X2465559Y1080000D03*
G01*
X2465559Y980000D03*
G01*
X2465559Y880000D03*
G01*
X2465559Y780000D03*
G01*
X2465559Y680000D03*
G01*
X2465559Y580000D03*
G01*
X3712110Y341849D03*
G01*
X3812110Y341849D03*
G01*
X3612110Y341930D03*
G01*
X3512110Y341930D03*
D18*
G01*
X1870000Y2225000D03*
G01*
X1870000Y1545000D03*
G01*
X3430000Y1545000D03*
G01*
X3430000Y2225000D03*
D19*
G01*
X385000Y2225000D03*
G01*
X285000Y2225000D03*
G01*
X385000Y2125000D03*
G01*
X285000Y2125000D03*
G01*
X285000Y2025000D03*
G01*
X385000Y2025000D03*
G01*
X385000Y1925000D03*
G01*
X285000Y1925000D03*
G01*
X285000Y1825000D03*
G01*
X385000Y1825000D03*
G01*
X385000Y1725000D03*
G01*
X285000Y1725000D03*
G01*
X285000Y1625000D03*
G01*
X285000Y1525000D03*
G01*
X285000Y1425000D03*
G01*
X285000Y1325000D03*
G01*
X285000Y1225000D03*
G01*
X285000Y1125000D03*
G01*
X285000Y1025000D03*
G01*
X285000Y925000D03*
G01*
X285000Y825000D03*
G01*
X285000Y725000D03*
G01*
X385000Y1625000D03*
G01*
X385000Y1525000D03*
G01*
X385000Y1425000D03*
G01*
X385000Y1325000D03*
G01*
X385000Y1225000D03*
G01*
X385000Y1125000D03*
G01*
X385000Y1025000D03*
G01*
X385000Y925000D03*
G01*
X385000Y825000D03*
G01*
X385000Y725000D03*
G01*
X285000Y625000D03*
G01*
X285000Y525000D03*
G01*
X285000Y425000D03*
G01*
X285000Y325000D03*
G01*
X285000Y225000D03*
G01*
X385000Y225000D03*
G01*
X385000Y325000D03*
G01*
X385000Y425000D03*
G01*
X385000Y525000D03*
G01*
X385000Y625000D03*
G01*
X1585000Y1725000D03*
G01*
X1685000Y1725000D03*
G01*
X1685000Y1625000D03*
G01*
X1585000Y1625000D03*
G01*
X1585000Y1525000D03*
G01*
X1685000Y1525000D03*
G01*
X1685000Y1425000D03*
G01*
X1585000Y1425000D03*
G01*
X1685000Y1325000D03*
G01*
X1585000Y1325000D03*
G01*
X1685000Y1225000D03*
G01*
X1585000Y1225000D03*
G01*
X1685000Y1125000D03*
G01*
X1585000Y1125000D03*
G01*
X1685000Y1025000D03*
G01*
X1585000Y1025000D03*
G01*
X1685000Y925000D03*
G01*
X1585000Y925000D03*
G01*
X1685000Y825000D03*
G01*
X1585000Y825000D03*
G01*
X1685000Y725000D03*
G01*
X1585000Y725000D03*
G01*
X1685000Y625000D03*
G01*
X1585000Y625000D03*
G01*
X1685000Y525000D03*
G01*
X1585000Y525000D03*
G01*
X1685000Y425000D03*
G01*
X1585000Y425000D03*
G01*
X1685000Y325000D03*
G01*
X1585000Y325000D03*
G01*
X1685000Y225000D03*
G01*
X1585000Y225000D03*
G01*
X1485000Y225000D03*
G01*
X1485000Y325000D03*
G01*
X1385000Y325000D03*
G01*
X1385000Y225000D03*
G01*
X1285000Y225000D03*
G01*
X1285000Y325000D03*
G01*
X785000Y325000D03*
G01*
X785000Y225000D03*
G01*
X885000Y325000D03*
G01*
X985000Y325000D03*
G01*
X985000Y225000D03*
G01*
X885000Y225000D03*
D17*
G01*
X3898370Y912500D03*
G01*
X3898370Y1012500D03*
G01*
X3898289Y812500D03*
G01*
X3898289Y712500D03*
D11*
G01*
X3720000Y1405000D03*
G01*
X3320000Y1405000D03*
D20*
G01*
X2090010Y790470D03*
G01*
X1781880Y351219D03*
G01*
X3130270Y461379D03*
G01*
X893199Y707669D03*
G01*
X2287190Y819540D03*
G01*
X3680690Y143949D03*
G01*
X810630Y1075000D03*
M02*
