%FSLAX25Y25*%
%MOIN*%
G70*
G01*
G75*
G04 Layer_Color=12517567*
%ADD10O,0.01772X0.05512*%
%ADD11R,0.05118X0.08268*%
%ADD12O,0.00984X0.06102*%
%ADD13O,0.06102X0.00984*%
%ADD14R,0.08661X0.11024*%
%ADD15R,0.11024X0.11024*%
%ADD16R,0.02362X0.03740*%
%ADD17O,0.05512X0.01378*%
%ADD18R,0.06693X0.04134*%
%ADD19C,0.03500*%
%ADD20C,0.02000*%
%ADD21C,0.01200*%
%ADD22C,0.00800*%
%ADD23C,0.01500*%
%ADD24C,0.01400*%
%ADD25C,0.01000*%
%ADD26C,0.00492*%
%ADD27C,0.00787*%
%ADD28C,0.06693*%
%ADD29R,0.06200X0.06200*%
%ADD30C,0.02000*%
%ADD31C,0.00984*%
%ADD32C,0.00100*%
%ADD33C,0.00394*%
%ADD34C,0.02500*%
%ADD35R,0.03937X0.04331*%
%ADD36R,0.04331X0.03937*%
%ADD37R,0.06000X0.05000*%
%ADD38R,0.05000X0.06000*%
%ADD39R,0.07087X0.05512*%
%ADD40R,0.05906X0.05118*%
%ADD41R,0.06200X0.06200*%
%ADD42C,0.06200*%
%ADD43C,0.03000*%
%ADD44C,0.04000*%
%ADD45R,0.03700X0.17300*%
%ADD46O,0.02572X0.06312*%
%ADD47R,0.05918X0.09068*%
%ADD48O,0.01784X0.06902*%
%ADD49O,0.06902X0.01784*%
%ADD50R,0.09461X0.11824*%
%ADD51R,0.11824X0.11824*%
%ADD52R,0.03162X0.04540*%
%ADD53O,0.06312X0.02178*%
%ADD54R,0.07493X0.04934*%
%ADD55C,0.07493*%
%ADD56R,0.07000X0.07000*%
%ADD57R,0.04737X0.05131*%
%ADD58R,0.05131X0.04737*%
%ADD59R,0.06800X0.05800*%
%ADD60R,0.05800X0.06800*%
%ADD61R,0.07887X0.06312*%
%ADD62R,0.06706X0.05918*%
%ADD63R,0.07000X0.07000*%
%ADD64C,0.07000*%
D25*
X0Y0D02*
X125000D01*
X0Y150000D02*
X125000D01*
X0Y0D02*
Y150000D01*
X125000Y0D02*
Y150000D01*
D26*
X527484Y-190546D02*
X527015Y-190077D01*
X526313Y-189843D01*
X525375D01*
X524673Y-190077D01*
X524204Y-190546D01*
Y-191014D01*
X524438Y-191483D01*
X524673Y-191717D01*
X525141Y-191951D01*
X526547Y-192420D01*
X527015Y-192654D01*
X527250Y-192889D01*
X527484Y-193357D01*
Y-194060D01*
X527015Y-194529D01*
X526313Y-194763D01*
X525375D01*
X524673Y-194529D01*
X524204Y-194060D01*
X529991Y-189843D02*
X529522Y-190077D01*
X529054Y-190546D01*
X528820Y-191014D01*
X528585Y-191717D01*
Y-192889D01*
X528820Y-193591D01*
X529054Y-194060D01*
X529522Y-194529D01*
X529991Y-194763D01*
X530928D01*
X531397Y-194529D01*
X531865Y-194060D01*
X532100Y-193591D01*
X532334Y-192889D01*
Y-191717D01*
X532100Y-191014D01*
X531865Y-190546D01*
X531397Y-190077D01*
X530928Y-189843D01*
X529991D01*
X533482D02*
Y-194763D01*
X536294D01*
X536833Y-189843D02*
Y-194763D01*
Y-189843D02*
X538473D01*
X539175Y-190077D01*
X539644Y-190546D01*
X539878Y-191014D01*
X540113Y-191717D01*
Y-192889D01*
X539878Y-193591D01*
X539644Y-194060D01*
X539175Y-194529D01*
X538473Y-194763D01*
X536833D01*
X544260Y-189843D02*
X541214D01*
Y-194763D01*
X544260D01*
X541214Y-192186D02*
X543088D01*
X545080Y-189843D02*
Y-194763D01*
Y-189843D02*
X547188D01*
X547891Y-190077D01*
X548126Y-190311D01*
X548360Y-190780D01*
Y-191249D01*
X548126Y-191717D01*
X547891Y-191951D01*
X547188Y-192186D01*
X545080D01*
X546720D02*
X548360Y-194763D01*
X553327Y-189843D02*
Y-194763D01*
Y-189843D02*
X555201Y-194763D01*
X557076Y-189843D02*
X555201Y-194763D01*
X557076Y-189843D02*
Y-194763D01*
X562230D02*
X560356Y-189843D01*
X558481Y-194763D01*
X559184Y-193123D02*
X561527D01*
X566658Y-190546D02*
X566190Y-190077D01*
X565487Y-189843D01*
X564550D01*
X563847Y-190077D01*
X563378Y-190546D01*
Y-191014D01*
X563613Y-191483D01*
X563847Y-191717D01*
X564315Y-191951D01*
X565721Y-192420D01*
X566190Y-192654D01*
X566424Y-192889D01*
X566658Y-193357D01*
Y-194060D01*
X566190Y-194529D01*
X565487Y-194763D01*
X564550D01*
X563847Y-194529D01*
X563378Y-194060D01*
X567760Y-189843D02*
Y-194763D01*
X571040Y-189843D02*
X567760Y-193123D01*
X568931Y-191951D02*
X571040Y-194763D01*
X576007Y-189843D02*
Y-194763D01*
Y-189843D02*
X578115D01*
X578818Y-190077D01*
X579052Y-190311D01*
X579287Y-190780D01*
Y-191249D01*
X579052Y-191717D01*
X578818Y-191951D01*
X578115Y-192186D01*
X576007D02*
X578115D01*
X578818Y-192420D01*
X579052Y-192654D01*
X579287Y-193123D01*
Y-193826D01*
X579052Y-194294D01*
X578818Y-194529D01*
X578115Y-194763D01*
X576007D01*
X581794Y-189843D02*
X581325Y-190077D01*
X580857Y-190546D01*
X580622Y-191014D01*
X580388Y-191717D01*
Y-192889D01*
X580622Y-193591D01*
X580857Y-194060D01*
X581325Y-194529D01*
X581794Y-194763D01*
X582731D01*
X583200Y-194529D01*
X583668Y-194060D01*
X583903Y-193591D01*
X584137Y-192889D01*
Y-191717D01*
X583903Y-191014D01*
X583668Y-190546D01*
X583200Y-190077D01*
X582731Y-189843D01*
X581794D01*
X586925D02*
Y-194763D01*
X585285Y-189843D02*
X588565D01*
X590791D02*
Y-194763D01*
X589151Y-189843D02*
X592431D01*
X594422D02*
X593954Y-190077D01*
X593485Y-190546D01*
X593251Y-191014D01*
X593017Y-191717D01*
Y-192889D01*
X593251Y-193591D01*
X593485Y-194060D01*
X593954Y-194529D01*
X594422Y-194763D01*
X595360D01*
X595828Y-194529D01*
X596297Y-194060D01*
X596531Y-193591D01*
X596765Y-192889D01*
Y-191717D01*
X596531Y-191014D01*
X596297Y-190546D01*
X595828Y-190077D01*
X595360Y-189843D01*
X594422D01*
X597913D02*
Y-194763D01*
Y-189843D02*
X599788Y-194763D01*
X601662Y-189843D02*
X599788Y-194763D01*
X601662Y-189843D02*
Y-194763D01*
D55*
X101400Y62800D02*
D03*
X73841D02*
D03*
D56*
X37500Y8400D02*
D03*
X47500D02*
D03*
X57500D02*
D03*
X67500D02*
D03*
X77500D02*
D03*
X87500D02*
D03*
D57*
X84000Y67847D02*
D03*
Y61154D02*
D03*
X91100Y61154D02*
D03*
Y67847D02*
D03*
X99300Y126854D02*
D03*
Y133546D02*
D03*
X92200D02*
D03*
Y126854D02*
D03*
X85100Y133546D02*
D03*
Y126854D02*
D03*
X97300Y30954D02*
D03*
Y37646D02*
D03*
X22300Y132846D02*
D03*
Y126154D02*
D03*
X37100Y132846D02*
D03*
Y126154D02*
D03*
X29100Y88346D02*
D03*
Y81654D02*
D03*
X36200Y88346D02*
D03*
Y81654D02*
D03*
X8500Y88346D02*
D03*
Y81654D02*
D03*
X16700Y88346D02*
D03*
Y81654D02*
D03*
X29400Y132846D02*
D03*
Y126154D02*
D03*
X43200Y88346D02*
D03*
Y81654D02*
D03*
X44200Y132846D02*
D03*
Y126154D02*
D03*
X8100Y102654D02*
D03*
Y109346D02*
D03*
X99300Y119346D02*
D03*
Y112654D02*
D03*
X73800Y126954D02*
D03*
Y133646D02*
D03*
X66700Y126954D02*
D03*
Y133646D02*
D03*
X51300Y132846D02*
D03*
Y126154D02*
D03*
X33800Y55246D02*
D03*
Y48554D02*
D03*
X26700D02*
D03*
Y55246D02*
D03*
X92200Y98554D02*
D03*
Y105246D02*
D03*
X67100D02*
D03*
Y98554D02*
D03*
X52900Y83545D02*
D03*
Y76853D02*
D03*
X59900D02*
D03*
Y83545D02*
D03*
D58*
X93753Y75100D02*
D03*
X100446D02*
D03*
X61846Y48400D02*
D03*
X55154D02*
D03*
X83354Y37800D02*
D03*
X90046D02*
D03*
X99454Y104000D02*
D03*
X106146D02*
D03*
X83354Y44900D02*
D03*
X90046D02*
D03*
X8254Y123700D02*
D03*
X14946D02*
D03*
X8254Y116600D02*
D03*
X14946D02*
D03*
X53054Y112600D02*
D03*
X59746D02*
D03*
X41054Y34300D02*
D03*
X47746D02*
D03*
X41054Y48400D02*
D03*
X47746D02*
D03*
X8254Y130800D02*
D03*
X14946D02*
D03*
X45546Y98300D02*
D03*
X38854D02*
D03*
X75946Y44900D02*
D03*
X69254D02*
D03*
X75946Y37800D02*
D03*
X69254D02*
D03*
X75946Y30800D02*
D03*
X69254D02*
D03*
X55154Y41300D02*
D03*
X61846D02*
D03*
X55154Y34300D02*
D03*
X61846D02*
D03*
X83354Y30700D02*
D03*
X90046D02*
D03*
X100754Y87900D02*
D03*
X107446D02*
D03*
X67254Y76700D02*
D03*
X73946D02*
D03*
X67254Y83800D02*
D03*
X73946D02*
D03*
X59746Y90899D02*
D03*
X53054D02*
D03*
X59746Y105500D02*
D03*
X53054D02*
D03*
Y98399D02*
D03*
X59746D02*
D03*
X67254Y90900D02*
D03*
X73946D02*
D03*
X40146Y74400D02*
D03*
X33454D02*
D03*
X40146Y67300D02*
D03*
X33454D02*
D03*
D59*
X77800Y52900D02*
D03*
X88800D02*
D03*
X100700Y96000D02*
D03*
X111700D02*
D03*
X42300Y56500D02*
D03*
X53300D02*
D03*
D60*
X16800Y97100D02*
D03*
Y108100D02*
D03*
X84100Y99900D02*
D03*
Y110900D02*
D03*
X75100Y99900D02*
D03*
Y110900D02*
D03*
D61*
X7100Y59480D02*
D03*
Y44520D02*
D03*
X16800Y59480D02*
D03*
Y44520D02*
D03*
X84100Y90980D02*
D03*
Y76020D02*
D03*
D62*
X25800Y97160D02*
D03*
Y104640D02*
D03*
D63*
X117800Y133000D02*
D03*
D64*
X107800D02*
D03*
X117800Y123000D02*
D03*
X107800D02*
D03*
X117800Y113000D02*
D03*
X107800D02*
D03*
M02*
