G04 This is an RS-274x file exported by *
G04 gerbv version 2.10.0 *
G04 More information is available about gerbv at *
G04 https://gerbv.github.io/ *
G04 --End of header info--*
%MOIN*%
%FSLAX36Y36*%
%IPPOS*%
G04 --Define apertures--*
%ADD10O,0.0177X0.0551*%
%ADD11R,0.0512X0.0827*%
%ADD12O,0.0098X0.0610*%
%ADD13O,0.0610X0.0098*%
%ADD14R,0.0866X0.1102*%
%ADD15R,0.1102X0.1102*%
%ADD16R,0.0236X0.0374*%
%ADD17O,0.0551X0.0138*%
%ADD18R,0.0669X0.0413*%
%ADD19C,0.0350*%
%ADD20C,0.0200*%
%ADD21C,0.0120*%
%ADD22C,0.0080*%
%ADD23C,0.0150*%
%ADD24C,0.0140*%
%ADD25C,0.0100*%
%ADD26C,0.0049*%
%ADD27C,0.0079*%
%ADD28C,0.0669*%
%ADD29R,0.0620X0.0620*%
%ADD30C,0.0200*%
%ADD31C,0.0098*%
%ADD32C,0.0010*%
%ADD33C,0.0039*%
%ADD34C,0.0250*%
G04 --Start main section--*
G36*
G01X0880000Y0121000D02*
G01X0838000Y0121000D01*
G01X0838000Y0047000D01*
G01X0880000Y0047000D01*
G01X0880000Y0030000D01*
G01X0426330Y0030000D01*
G01X0426330Y0150000D01*
G01X0360000Y0216330D01*
G01X0360000Y0321460D01*
G01X0363390Y0324850D01*
G01X0573250Y0324850D01*
G01X0573250Y0326220D01*
G01X0609480Y0362450D01*
G01X0611760Y0360930D01*
G01X0618000Y0359690D01*
G01X0624240Y0360930D01*
G01X0629540Y0364460D01*
G01X0630470Y0365860D01*
G01X0640470Y0365860D01*
G01X0641260Y0364670D01*
G01X0646550Y0361130D01*
G01X0652800Y0359890D01*
G01X0659040Y0361130D01*
G01X0664330Y0364670D01*
G01X0667870Y0369960D01*
G01X0669110Y0376200D01*
G01X0667870Y0382450D01*
G01X0664330Y0387740D01*
G01X0659040Y0391280D01*
G01X0652800Y0392520D01*
G01X0650600Y0403570D01*
G01X0705520Y0458490D01*
G01X0880000Y0458490D01*
G01X0880000Y0121000D01*
G37*
G36*
G01X0880000Y0121000D02*
G37*
G36*
G01X0949240Y1149240D02*
G01X0949240Y1149240D01*
G01X0949240Y1149240D01*
G01X0949240Y1019240D01*
G01X0949240Y0965060D01*
G01X0945470Y0962540D01*
G01X0941930Y0957240D01*
G01X0940690Y0951000D01*
G01X0941930Y0944760D01*
G01X0945470Y0939460D01*
G01X0949240Y0936940D01*
G01X0949240Y0917760D01*
G01X1027310Y0839690D01*
G01X1029460Y0836470D01*
G01X1032690Y0834310D01*
G01X1035000Y0832000D01*
G01X1035000Y0764000D01*
G01X0961000Y0764000D01*
G01X0944000Y0781000D01*
G01X0875000Y0850000D01*
G01X0827520Y0850000D01*
G01X0827070Y0852240D01*
G01X0823540Y0857540D01*
G01X0818240Y0861070D01*
G01X0812000Y0862310D01*
G01X0805760Y0861070D01*
G01X0800460Y0857540D01*
G01X0796930Y0852240D01*
G01X0796480Y0850000D01*
G01X0780000Y0850000D01*
G01X0780000Y0667800D01*
G01X0778060Y0666310D01*
G01X0771030Y0662840D01*
G01X0762360Y0669490D01*
G01X0750810Y0674280D01*
G01X0738410Y0675910D01*
G01X0726010Y0674280D01*
G01X0714460Y0669490D01*
G01X0704530Y0661880D01*
G01X0696920Y0651960D01*
G01X0692130Y0640400D01*
G01X0690500Y0628000D01*
G01X0692130Y0615600D01*
G01X0696920Y0604040D01*
G01X0704530Y0594120D01*
G01X0714460Y0586510D01*
G01X0726010Y0581720D01*
G01X0738410Y0580090D01*
G01X0738410Y0530410D01*
G01X0703540Y0495530D01*
G01X0698240Y0499070D01*
G01X0692000Y0500310D01*
G01X0685760Y0499070D01*
G01X0680460Y0495530D01*
G01X0676930Y0490240D01*
G01X0675690Y0484000D01*
G01X0676930Y0477760D01*
G01X0680460Y0472470D01*
G01X0685760Y0468930D01*
G01X0692000Y0467690D01*
G01X0694240Y0456400D01*
G01X0646000Y0408160D01*
G01X0645750Y0407550D01*
G01X0645200Y0407180D01*
G01X0644830Y0405320D01*
G01X0644480Y0404480D01*
G01X0628340Y0388340D01*
G01X0624240Y0391070D01*
G01X0618000Y0392310D01*
G01X0611760Y0391070D01*
G01X0606460Y0387540D01*
G01X0602930Y0382240D01*
G01X0601690Y0376000D01*
G01X0602930Y0369760D01*
G01X0604800Y0366960D01*
G01X0569190Y0331340D01*
G01X0363390Y0331340D01*
G01X0360140Y0330000D01*
G01X0011220Y0330000D01*
G01X0011220Y1018640D01*
G01X0018470Y1029500D01*
G01X0018950Y1029890D01*
G01X0025000Y1028690D01*
G01X0031240Y1029930D01*
G01X0036530Y1033470D01*
G01X0040070Y1038760D01*
G01X0041310Y1045000D01*
G01X0040070Y1051240D01*
G01X0036530Y1056540D01*
G01X0031240Y1060070D01*
G01X0025000Y1061310D01*
G01X0018950Y1060110D01*
G01X0018470Y1060500D01*
G01X0011220Y1071360D01*
G01X0011220Y1100940D01*
G01X0057640Y1100940D01*
G01X0059540Y1102840D01*
G01X0059540Y1102840D01*
G01X0073120Y1116420D01*
G01X0085780Y1129090D01*
G01X0087990Y1130000D01*
G01X0138710Y1130000D01*
G01X0140910Y1129090D01*
G01X0150000Y1120000D01*
G01X0159090Y1110910D01*
G01X0160000Y1108710D01*
G01X0160000Y1050000D01*
G01X0160000Y1050000D01*
G01X0090000Y0980000D01*
G01X0090000Y0977310D01*
G01X0090000Y0612910D01*
G01X0090000Y0600000D01*
G01X0290000Y0400000D01*
G01X0470000Y0400000D01*
G01X0472000Y0402000D01*
G01X0489440Y0419440D01*
G01X0497170Y0413100D01*
G01X0497170Y0413100D01*
G01X0497170Y0413100D01*
G01X0493930Y0408240D01*
G01X0492690Y0402000D01*
G01X0493930Y0395760D01*
G01X0497470Y0390460D01*
G01X0502760Y0386930D01*
G01X0509000Y0385690D01*
G01X0515240Y0386930D01*
G01X0520530Y0390460D01*
G01X0524070Y0395760D01*
G01X0525310Y0402000D01*
G01X0524070Y0408240D01*
G01X0520530Y0413530D01*
G01X0515240Y0417070D01*
G01X0509000Y0418310D01*
G01X0502760Y0417070D01*
G01X0497900Y0413830D01*
G01X0491910Y0421130D01*
G01X0491560Y0421560D01*
G01X0591000Y0521000D01*
G01X0591000Y0930140D01*
G01X0600460Y0936470D01*
G01X0605760Y0932930D01*
G01X0612000Y0931690D01*
G01X0618240Y0932930D01*
G01X0623530Y0936470D01*
G01X0627070Y0941760D01*
G01X0628310Y0948000D01*
G01X0627070Y0954240D01*
G01X0623530Y0959540D01*
G01X0618240Y0963070D01*
G01X0612000Y0964310D01*
G01X0605760Y0963070D01*
G01X0600460Y0959540D01*
G01X0591000Y0965860D01*
G01X0591000Y0991760D01*
G01X0597000Y0996690D01*
G01X0603240Y0997930D01*
G01X0608530Y1001460D01*
G01X0612070Y1006760D01*
G01X0613310Y1013000D01*
G01X0612070Y1019240D01*
G01X0608530Y1024530D01*
G01X0603240Y1028070D01*
G01X0597000Y1029310D01*
G01X0591000Y1034240D01*
G01X0591000Y1077930D01*
G01X0612760Y1099690D01*
G01X0622330Y1096780D01*
G01X0622930Y1093760D01*
G01X0626470Y1088460D01*
G01X0631760Y1084930D01*
G01X0638000Y1083690D01*
G01X0644240Y1084930D01*
G01X0649540Y1088460D01*
G01X0653070Y1093760D01*
G01X0654310Y1100000D01*
G01X0653070Y1106240D01*
G01X0652360Y1107310D01*
G01X0651240Y1112930D01*
G01X0656540Y1116460D01*
G01X0660070Y1121760D01*
G01X0661310Y1128000D01*
G01X0660070Y1134240D01*
G01X0656540Y1139530D01*
G01X0655200Y1140430D01*
G01X0658100Y1150000D01*
G01X0948930Y1150000D01*
G01X0949240Y1149240D01*
G37*
G36*
G01X0949240Y1149240D02*
G37*
G36*
G01X0580000Y1300860D02*
G01X0570540Y1294540D01*
G01X0565240Y1298070D01*
G01X0559000Y1299310D01*
G01X0552760Y1298070D01*
G01X0547470Y1294540D01*
G01X0543930Y1289240D01*
G01X0542690Y1283000D01*
G01X0543930Y1276760D01*
G01X0547470Y1271460D01*
G01X0552760Y1267930D01*
G01X0559000Y1266690D01*
G01X0565240Y1267930D01*
G01X0570540Y1271460D01*
G01X0580000Y1265140D01*
G01X0580000Y1239860D01*
G01X0570540Y1233540D01*
G01X0565240Y1237070D01*
G01X0559000Y1238310D01*
G01X0552760Y1237070D01*
G01X0547470Y1233540D01*
G01X0543930Y1228240D01*
G01X0542690Y1222000D01*
G01X0543930Y1215760D01*
G01X0547470Y1210460D01*
G01X0552760Y1206930D01*
G01X0559000Y1205690D01*
G01X0565240Y1206930D01*
G01X0570540Y1210460D01*
G01X0580000Y1204140D01*
G01X0580000Y1113070D01*
G01X0482120Y1015190D01*
G01X0473300Y1019900D01*
G01X0474310Y1025000D01*
G01X0473070Y1031240D01*
G01X0469530Y1036540D01*
G01X0464350Y1040000D01*
G01X0464350Y1050000D01*
G01X0469530Y1053470D01*
G01X0473070Y1058760D01*
G01X0474310Y1065000D01*
G01X0473070Y1071240D01*
G01X0469530Y1076530D01*
G01X0464240Y1080070D01*
G01X0458000Y1081310D01*
G01X0451760Y1080070D01*
G01X0446460Y1076530D01*
G01X0442930Y1071240D01*
G01X0441690Y1065000D01*
G01X0442930Y1058760D01*
G01X0446460Y1053470D01*
G01X0451650Y1050000D01*
G01X0451650Y1040000D01*
G01X0446460Y1036540D01*
G01X0442930Y1031240D01*
G01X0441690Y1025000D01*
G01X0442930Y1018760D01*
G01X0446460Y1013470D01*
G01X0451760Y1009930D01*
G01X0458000Y1008690D01*
G01X0463100Y1009700D01*
G01X0466200Y1003890D01*
G01X0461060Y0995310D01*
G01X0210000Y0995310D01*
G01X0203760Y0994070D01*
G01X0198470Y0990540D01*
G01X0194930Y0985240D01*
G01X0193690Y0979000D01*
G01X0194930Y0972760D01*
G01X0198470Y0967460D01*
G01X0203760Y0963930D01*
G01X0203760Y0963930D01*
G01X0199470Y0958540D01*
G01X0199460Y0958540D01*
G01X0199460Y0958540D01*
G01X0195930Y0953240D01*
G01X0194690Y0947000D01*
G01X0195930Y0940760D01*
G01X0199470Y0935460D01*
G01X0204760Y0931930D01*
G01X0211000Y0930690D01*
G01X0217240Y0931930D01*
G01X0222530Y0935460D01*
G01X0226070Y0940760D01*
G01X0227310Y0947000D01*
G01X0226070Y0953240D01*
G01X0225660Y0953870D01*
G01X0230370Y0962690D01*
G01X0439970Y0962690D01*
G01X0444680Y0953870D01*
G01X0442930Y0951240D01*
G01X0441690Y0945000D01*
G01X0442930Y0938760D01*
G01X0446460Y0933470D01*
G01X0451760Y0929930D01*
G01X0458000Y0928690D01*
G01X0464240Y0929930D01*
G01X0469530Y0933470D01*
G01X0473070Y0938760D01*
G01X0474310Y0945000D01*
G01X0473070Y0951240D01*
G01X0470850Y0954580D01*
G01X0474670Y0963810D01*
G01X0475240Y0963930D01*
G01X0480540Y0967460D01*
G01X0536590Y1023520D01*
G01X0546160Y1020620D01*
G01X0546930Y1016760D01*
G01X0550460Y1011460D01*
G01X0555760Y1007930D01*
G01X0562000Y1006690D01*
G01X0568240Y1007930D01*
G01X0571180Y1009890D01*
G01X0580000Y1005180D01*
G01X0580000Y0524140D01*
G01X0464490Y0406490D01*
G01X0299180Y0406490D01*
G01X0096490Y0612910D01*
G01X0096490Y0977310D01*
G01X0143110Y1023920D01*
G01X0152680Y1021020D01*
G01X0152930Y1019760D01*
G01X0156460Y1014460D01*
G01X0161760Y1010930D01*
G01X0168000Y1009690D01*
G01X0174240Y1010930D01*
G01X0179540Y1014460D01*
G01X0183070Y1019760D01*
G01X0184310Y1026000D01*
G01X0183070Y1032240D01*
G01X0179540Y1037530D01*
G01X0174240Y1041070D01*
G01X0168000Y1042310D01*
G01X0166490Y1050000D01*
G01X0166490Y1050000D01*
G01X0166490Y1050000D01*
G01X0166490Y1110000D01*
G01X0164590Y1114590D01*
G01X0144590Y1134590D01*
G01X0140000Y1136490D01*
G01X0086690Y1136490D01*
G01X0082100Y1134590D01*
G01X0054950Y1107440D01*
G01X0011220Y1107440D01*
G01X0011220Y1215640D01*
G01X0018470Y1226500D01*
G01X0018950Y1226890D01*
G01X0025000Y1225690D01*
G01X0031240Y1226930D01*
G01X0036530Y1230470D01*
G01X0040070Y1235760D01*
G01X0041310Y1242000D01*
G01X0040070Y1248240D01*
G01X0036530Y1253540D01*
G01X0031240Y1257070D01*
G01X0025000Y1258310D01*
G01X0018950Y1257110D01*
G01X0018470Y1257500D01*
G01X0011220Y1268360D01*
G01X0011220Y1420000D01*
G01X0281180Y1420000D01*
G01X0285890Y1411180D01*
G01X0283930Y1408240D01*
G01X0282690Y1402000D01*
G01X0282850Y1401170D01*
G01X0280000Y1398310D01*
G01X0273760Y1397070D01*
G01X0268470Y1393540D01*
G01X0264930Y1388240D01*
G01X0263690Y1382000D01*
G01X0264930Y1375760D01*
G01X0268470Y1370470D01*
G01X0273760Y1366930D01*
G01X0280000Y1365690D01*
G01X0286240Y1366930D01*
G01X0291530Y1370470D01*
G01X0295070Y1375760D01*
G01X0296310Y1382000D01*
G01X0296150Y1382830D01*
G01X0299000Y1385690D01*
G01X0305240Y1386930D01*
G01X0310540Y1390470D01*
G01X0314070Y1395760D01*
G01X0315310Y1402000D01*
G01X0314070Y1408240D01*
G01X0312110Y1411180D01*
G01X0316820Y1420000D01*
G01X0361180Y1420000D01*
G01X0365890Y1411180D01*
G01X0363930Y1408240D01*
G01X0362690Y1402000D01*
G01X0359000Y1398310D01*
G01X0352760Y1397070D01*
G01X0347470Y1393540D01*
G01X0343930Y1388240D01*
G01X0342690Y1382000D01*
G01X0343930Y1375760D01*
G01X0347470Y1370470D01*
G01X0352760Y1366930D01*
G01X0359000Y1365690D01*
G01X0365240Y1366930D01*
G01X0370530Y1370470D01*
G01X0374070Y1375760D01*
G01X0375310Y1382000D01*
G01X0379000Y1385690D01*
G01X0385240Y1386930D01*
G01X0390530Y1390470D01*
G01X0394070Y1395760D01*
G01X0395310Y1402000D01*
G01X0394070Y1408240D01*
G01X0392110Y1411180D01*
G01X0396820Y1420000D01*
G01X0580000Y1420000D01*
G01X0580000Y1300860D01*
G37*
G36*
G01X0580000Y1300860D02*
G37*
%LPC*%
G36*
G01X0618000Y0462310D02*
G01X0611760Y0461070D01*
G01X0606460Y0457530D01*
G01X0602930Y0452240D01*
G01X0601690Y0446000D01*
G01X0602930Y0439760D01*
G01X0606460Y0434460D01*
G01X0611760Y0430930D01*
G01X0618000Y0429690D01*
G01X0624240Y0430930D01*
G01X0629540Y0434460D01*
G01X0633070Y0439760D01*
G01X0634310Y0446000D01*
G01X0633070Y0452240D01*
G01X0629540Y0457530D01*
G01X0624240Y0461070D01*
G01X0618000Y0462310D01*
G37*
G36*
G01X0618000Y0462310D02*
G37*
G36*
G01X0437000Y0452310D02*
G01X0430760Y0451070D01*
G01X0425460Y0447540D01*
G01X0421930Y0442240D01*
G01X0420690Y0436000D01*
G01X0421930Y0429760D01*
G01X0425460Y0424470D01*
G01X0430760Y0420930D01*
G01X0437000Y0419690D01*
G01X0443240Y0420930D01*
G01X0448530Y0424470D01*
G01X0452070Y0429760D01*
G01X0453310Y0436000D01*
G01X0452070Y0442240D01*
G01X0448530Y0447540D01*
G01X0443240Y0451070D01*
G01X0437000Y0452310D01*
G37*
G36*
G01X0437000Y0452310D02*
G37*
G36*
G01X0402000Y0723310D02*
G01X0395760Y0722070D01*
G01X0390460Y0718540D01*
G01X0386930Y0713240D01*
G01X0385690Y0707000D01*
G01X0386930Y0700760D01*
G01X0390460Y0695470D01*
G01X0395760Y0691930D01*
G01X0402000Y0690690D01*
G01X0408240Y0691930D01*
G01X0413530Y0695470D01*
G01X0417070Y0700760D01*
G01X0418310Y0707000D01*
G01X0417070Y0713240D01*
G01X0413530Y0718540D01*
G01X0408240Y0722070D01*
G01X0402000Y0723310D01*
G37*
G36*
G01X0402000Y0723310D02*
G37*
G36*
G01X0292000Y0771310D02*
G01X0285760Y0770070D01*
G01X0280470Y0766530D01*
G01X0276930Y0761240D01*
G01X0275690Y0755000D01*
G01X0276930Y0748760D01*
G01X0280470Y0743470D01*
G01X0285650Y0740000D01*
G01X0285650Y0730000D01*
G01X0280470Y0726540D01*
G01X0276930Y0721240D01*
G01X0275690Y0715000D01*
G01X0276930Y0708760D01*
G01X0280470Y0703460D01*
G01X0285760Y0699930D01*
G01X0292000Y0698690D01*
G01X0298240Y0699930D01*
G01X0303540Y0703460D01*
G01X0307070Y0708760D01*
G01X0308310Y0715000D01*
G01X0307070Y0721240D01*
G01X0303540Y0726540D01*
G01X0298350Y0730000D01*
G01X0298350Y0740000D01*
G01X0303540Y0743470D01*
G01X0307070Y0748760D01*
G01X0308310Y0755000D01*
G01X0307070Y0761240D01*
G01X0303540Y0766530D01*
G01X0298240Y0770070D01*
G01X0292000Y0771310D01*
G37*
G36*
G01X0292000Y0771310D02*
G37*
G36*
G01X0269000Y0617310D02*
G01X0262760Y0616070D01*
G01X0257470Y0612530D01*
G01X0253930Y0607240D01*
G01X0252690Y0601000D01*
G01X0253930Y0594760D01*
G01X0257470Y0589470D01*
G01X0262760Y0585930D01*
G01X0269000Y0584690D01*
G01X0275240Y0585930D01*
G01X0280540Y0589470D01*
G01X0284070Y0594760D01*
G01X0285310Y0601000D01*
G01X0284070Y0607240D01*
G01X0280540Y0612530D01*
G01X0275240Y0616070D01*
G01X0269000Y0617310D01*
G37*
G36*
G01X0269000Y0617310D02*
G37*
G36*
G01X0402000Y0657310D02*
G01X0395760Y0656070D01*
G01X0390460Y0652540D01*
G01X0386930Y0647240D01*
G01X0385690Y0641000D01*
G01X0386930Y0634760D01*
G01X0390460Y0629460D01*
G01X0395760Y0625930D01*
G01X0402000Y0624690D01*
G01X0408240Y0625930D01*
G01X0413530Y0629460D01*
G01X0417070Y0634760D01*
G01X0418310Y0641000D01*
G01X0417070Y0647240D01*
G01X0413530Y0652540D01*
G01X0408240Y0656070D01*
G01X0402000Y0657310D01*
G37*
G36*
G01X0402000Y0657310D02*
G37*
G36*
G01X0612000Y0121000D02*
G01X0538000Y0121000D01*
G01X0538000Y0047000D01*
G01X0612000Y0047000D01*
G01X0612000Y0121000D01*
G37*
G36*
G01X0612000Y0121000D02*
G37*
G36*
G01X0712000Y0121000D02*
G01X0638000Y0121000D01*
G01X0638000Y0047000D01*
G01X0712000Y0047000D01*
G01X0712000Y0121000D01*
G37*
G36*
G01X0712000Y0121000D02*
G37*
G36*
G01X0469000Y0078000D02*
G01X0438000Y0078000D01*
G01X0438000Y0047000D01*
G01X0469000Y0047000D01*
G01X0469000Y0078000D01*
G37*
G36*
G01X0469000Y0078000D02*
G37*
G36*
G01X0512000Y0078000D02*
G01X0481000Y0078000D01*
G01X0481000Y0047000D01*
G01X0512000Y0047000D01*
G01X0512000Y0078000D01*
G37*
G36*
G01X0512000Y0078000D02*
G37*
G36*
G01X0512000Y0121000D02*
G01X0481000Y0121000D01*
G01X0481000Y0090000D01*
G01X0512000Y0090000D01*
G01X0512000Y0121000D01*
G37*
G36*
G01X0512000Y0121000D02*
G37*
G36*
G01X0657000Y0349310D02*
G01X0650760Y0348070D01*
G01X0645470Y0344530D01*
G01X0641930Y0339240D01*
G01X0640690Y0333000D01*
G01X0641930Y0326760D01*
G01X0645470Y0321460D01*
G01X0650760Y0317930D01*
G01X0657000Y0316690D01*
G01X0663240Y0317930D01*
G01X0668530Y0321460D01*
G01X0672070Y0326760D01*
G01X0673310Y0333000D01*
G01X0672070Y0339240D01*
G01X0668530Y0344530D01*
G01X0663240Y0348070D01*
G01X0657000Y0349310D01*
G37*
G36*
G01X0657000Y0349310D02*
G37*
G36*
G01X0812000Y0121000D02*
G01X0738000Y0121000D01*
G01X0738000Y0047000D01*
G01X0812000Y0047000D01*
G01X0812000Y0121000D01*
G37*
G36*
G01X0812000Y0121000D02*
G37*
G36*
G01X0469000Y0121000D02*
G01X0438000Y0121000D01*
G01X0438000Y0090000D01*
G01X0469000Y0090000D01*
G01X0469000Y0121000D01*
G37*
G36*
G01X0469000Y0121000D02*
G37*
G36*
G01X0291000Y1227310D02*
G01X0284760Y1226070D01*
G01X0279460Y1222540D01*
G01X0276000Y1217350D01*
G01X0266000Y1217350D01*
G01X0262540Y1222540D01*
G01X0257240Y1226070D01*
G01X0251000Y1227310D01*
G01X0244760Y1226070D01*
G01X0239460Y1222540D01*
G01X0236000Y1217350D01*
G01X0226000Y1217350D01*
G01X0222530Y1222540D01*
G01X0217240Y1226070D01*
G01X0211000Y1227310D01*
G01X0204760Y1226070D01*
G01X0199470Y1222540D01*
G01X0195930Y1217240D01*
G01X0194690Y1211000D01*
G01X0195930Y1204760D01*
G01X0199470Y1199470D01*
G01X0204760Y1195930D01*
G01X0211000Y1194690D01*
G01X0217240Y1195930D01*
G01X0222530Y1199470D01*
G01X0226000Y1204650D01*
G01X0236000Y1204650D01*
G01X0239460Y1199470D01*
G01X0244760Y1195930D01*
G01X0251000Y1194690D01*
G01X0257240Y1195930D01*
G01X0262540Y1199470D01*
G01X0266000Y1204650D01*
G01X0276000Y1204650D01*
G01X0279460Y1199470D01*
G01X0284760Y1195930D01*
G01X0291000Y1194690D01*
G01X0297240Y1195930D01*
G01X0302530Y1199470D01*
G01X0306070Y1204760D01*
G01X0307310Y1211000D01*
G01X0306070Y1217240D01*
G01X0302530Y1222540D01*
G01X0297240Y1226070D01*
G01X0291000Y1227310D01*
G37*
G36*
G01X0291000Y1227310D02*
G37*
G36*
G01X0409000Y1184310D02*
G01X0402760Y1183070D01*
G01X0397460Y1179540D01*
G01X0394000Y1174350D01*
G01X0384000Y1174350D01*
G01X0380540Y1179540D01*
G01X0375240Y1183070D01*
G01X0369000Y1184310D01*
G01X0362760Y1183070D01*
G01X0357460Y1179540D01*
G01X0353930Y1174240D01*
G01X0352690Y1168000D01*
G01X0353930Y1161760D01*
G01X0357460Y1156470D01*
G01X0362760Y1152930D01*
G01X0369000Y1151690D01*
G01X0375240Y1152930D01*
G01X0380540Y1156470D01*
G01X0384000Y1161650D01*
G01X0394000Y1161650D01*
G01X0397460Y1156470D01*
G01X0402760Y1152930D01*
G01X0409000Y1151690D01*
G01X0415240Y1152930D01*
G01X0420530Y1156470D01*
G01X0424070Y1161760D01*
G01X0425310Y1168000D01*
G01X0424070Y1174240D01*
G01X0420530Y1179540D01*
G01X0415240Y1183070D01*
G01X0409000Y1184310D01*
G37*
G36*
G01X0409000Y1184310D02*
G37*
G36*
G01X0291000Y1184310D02*
G01X0284760Y1183070D01*
G01X0279460Y1179540D01*
G01X0276000Y1174350D01*
G01X0266000Y1174350D01*
G01X0262540Y1179540D01*
G01X0257240Y1183070D01*
G01X0251000Y1184310D01*
G01X0244760Y1183070D01*
G01X0239460Y1179540D01*
G01X0236000Y1174350D01*
G01X0226000Y1174350D01*
G01X0222530Y1179540D01*
G01X0217240Y1183070D01*
G01X0211000Y1184310D01*
G01X0204760Y1183070D01*
G01X0199470Y1179540D01*
G01X0195930Y1174240D01*
G01X0194690Y1168000D01*
G01X0195930Y1161760D01*
G01X0199470Y1156470D01*
G01X0204760Y1152930D01*
G01X0211000Y1151690D01*
G01X0217240Y1152930D01*
G01X0222530Y1156470D01*
G01X0226000Y1161650D01*
G01X0236000Y1161650D01*
G01X0239460Y1156470D01*
G01X0244760Y1152930D01*
G01X0245240Y1152830D01*
G01X0247200Y1143020D01*
G01X0246460Y1142530D01*
G01X0242930Y1137240D01*
G01X0241690Y1131000D01*
G01X0242930Y1124760D01*
G01X0246460Y1119460D01*
G01X0246460Y1118540D01*
G01X0242930Y1113240D01*
G01X0241690Y1107000D01*
G01X0242930Y1100760D01*
G01X0246460Y1095460D01*
G01X0251760Y1091930D01*
G01X0258000Y1090690D01*
G01X0264240Y1091930D01*
G01X0269540Y1095460D01*
G01X0273070Y1100760D01*
G01X0274310Y1107000D01*
G01X0273070Y1113240D01*
G01X0269540Y1118540D01*
G01X0269540Y1119460D01*
G01X0273070Y1124760D01*
G01X0274310Y1131000D01*
G01X0273070Y1137240D01*
G01X0269540Y1142530D01*
G01X0264240Y1146070D01*
G01X0263760Y1146170D01*
G01X0262210Y1153920D01*
G01X0268560Y1161650D01*
G01X0268430Y1161650D01*
G01X0276000Y1161650D01*
G01X0279460Y1156470D01*
G01X0284760Y1152930D01*
G01X0291000Y1151690D01*
G01X0297240Y1152930D01*
G01X0302530Y1156470D01*
G01X0306070Y1161760D01*
G01X0307310Y1168000D01*
G01X0306070Y1174240D01*
G01X0302530Y1179540D01*
G01X0297240Y1183070D01*
G01X0291000Y1184310D01*
G37*
G36*
G01X0291000Y1184310D02*
G37*
G36*
G01X0409000Y1227310D02*
G01X0402760Y1226070D01*
G01X0397460Y1222540D01*
G01X0394000Y1217350D01*
G01X0384000Y1217350D01*
G01X0380540Y1222540D01*
G01X0375240Y1226070D01*
G01X0369000Y1227310D01*
G01X0362760Y1226070D01*
G01X0357460Y1222540D01*
G01X0353930Y1217240D01*
G01X0352690Y1211000D01*
G01X0353930Y1204760D01*
G01X0357460Y1199470D01*
G01X0362760Y1195930D01*
G01X0369000Y1194690D01*
G01X0375240Y1195930D01*
G01X0380540Y1199470D01*
G01X0384000Y1204650D01*
G01X0394000Y1204650D01*
G01X0397460Y1199470D01*
G01X0402760Y1195930D01*
G01X0409000Y1194690D01*
G01X0415240Y1195930D01*
G01X0420530Y1199470D01*
G01X0424070Y1204760D01*
G01X0425310Y1211000D01*
G01X0424070Y1217240D01*
G01X0420530Y1222540D01*
G01X0415240Y1226070D01*
G01X0409000Y1227310D01*
G37*
G36*
G01X0409000Y1227310D02*
G37*
G36*
G01X0202000Y1398310D02*
G01X0195760Y1397070D01*
G01X0190470Y1393540D01*
G01X0186930Y1388240D01*
G01X0185690Y1382000D01*
G01X0186930Y1375760D01*
G01X0190470Y1370470D01*
G01X0195760Y1366930D01*
G01X0202000Y1365690D01*
G01X0208240Y1366930D01*
G01X0213530Y1370470D01*
G01X0217070Y1375760D01*
G01X0218310Y1382000D01*
G01X0217070Y1388240D01*
G01X0213530Y1393540D01*
G01X0208240Y1397070D01*
G01X0202000Y1398310D01*
G37*
G36*
G01X0202000Y1398310D02*
G37*
G36*
G01X0478000Y1344310D02*
G01X0471760Y1343070D01*
G01X0466460Y1339530D01*
G01X0462930Y1334240D01*
G01X0461690Y1328000D01*
G01X0462930Y1321760D01*
G01X0466460Y1316470D01*
G01X0471760Y1312930D01*
G01X0478000Y1311690D01*
G01X0484240Y1312930D01*
G01X0489540Y1316470D01*
G01X0493070Y1321760D01*
G01X0494310Y1328000D01*
G01X0493070Y1334240D01*
G01X0489540Y1339530D01*
G01X0484240Y1343070D01*
G01X0478000Y1344310D01*
G37*
G36*
G01X0478000Y1344310D02*
G37*
G36*
G01X0332000Y1291310D02*
G01X0325760Y1290070D01*
G01X0320460Y1286540D01*
G01X0316930Y1281240D01*
G01X0315690Y1275000D01*
G01X0316930Y1268760D01*
G01X0320460Y1263470D01*
G01X0325760Y1259930D01*
G01X0332000Y1258690D01*
G01X0338240Y1259930D01*
G01X0343540Y1263470D01*
G01X0347070Y1268760D01*
G01X0348310Y1275000D01*
G01X0347070Y1281240D01*
G01X0343540Y1286540D01*
G01X0338240Y1290070D01*
G01X0332000Y1291310D01*
G37*
G36*
G01X0332000Y1291310D02*
G37*
G36*
G01X0432000Y1120310D02*
G01X0425760Y1119070D01*
G01X0420460Y1115540D01*
G01X0416930Y1110240D01*
G01X0415690Y1104000D01*
G01X0416930Y1097760D01*
G01X0420460Y1092470D01*
G01X0425760Y1088930D01*
G01X0432000Y1087690D01*
G01X0438240Y1088930D01*
G01X0443540Y1092470D01*
G01X0447070Y1097760D01*
G01X0448310Y1104000D01*
G01X0447070Y1110240D01*
G01X0443540Y1115540D01*
G01X0438240Y1119070D01*
G01X0432000Y1120310D01*
G37*
G36*
G01X0432000Y1120310D02*
G37*
G36*
G01X0950000Y0864310D02*
G01X0943760Y0863070D01*
G01X0938460Y0859530D01*
G01X0934930Y0854240D01*
G01X0933690Y0848000D01*
G01X0934930Y0841760D01*
G01X0938460Y0836470D01*
G01X0943760Y0832930D01*
G01X0950000Y0831690D01*
G01X0956240Y0832930D01*
G01X0956340Y0832990D01*
G01X0966150Y0831040D01*
G01X0967310Y0829310D01*
G01X0972600Y0825770D01*
G01X0978840Y0824530D01*
G01X0985090Y0825770D01*
G01X0990380Y0829310D01*
G01X0993910Y0834600D01*
G01X0995150Y0840840D01*
G01X0993910Y0847080D01*
G01X0990380Y0852380D01*
G01X0985090Y0855910D01*
G01X0978840Y0857160D01*
G01X0972600Y0855910D01*
G01X0972500Y0855850D01*
G01X0962700Y0857800D01*
G01X0961530Y0859530D01*
G01X0956240Y0863070D01*
G01X0950000Y0864310D01*
G37*
G36*
G01X0950000Y0864310D02*
G37*
G36*
G01X0490000Y0856310D02*
G01X0483760Y0855070D01*
G01X0478460Y0851540D01*
G01X0474930Y0846240D01*
G01X0473690Y0840000D01*
G01X0474930Y0833760D01*
G01X0478460Y0828460D01*
G01X0483760Y0824930D01*
G01X0490000Y0823690D01*
G01X0496240Y0824930D01*
G01X0501530Y0828460D01*
G01X0505070Y0833760D01*
G01X0506310Y0840000D01*
G01X0505070Y0846240D01*
G01X0501530Y0851540D01*
G01X0496240Y0855070D01*
G01X0490000Y0856310D01*
G37*
G36*
G01X0490000Y0856310D02*
G37*
G36*
G01X0131000Y0834310D02*
G01X0124760Y0833070D01*
G01X0119470Y0829540D01*
G01X0115930Y0824240D01*
G01X0114690Y0818000D01*
G01X0115930Y0811760D01*
G01X0119470Y0806470D01*
G01X0124760Y0802930D01*
G01X0131000Y0801690D01*
G01X0137240Y0802930D01*
G01X0142540Y0806470D01*
G01X0146070Y0811760D01*
G01X0147310Y0818000D01*
G01X0146070Y0824240D01*
G01X0142540Y0829540D01*
G01X0137240Y0833070D01*
G01X0131000Y0834310D01*
G37*
G36*
G01X0131000Y0834310D02*
G37*
G36*
G01X0399000Y0865310D02*
G01X0392760Y0864070D01*
G01X0387470Y0860540D01*
G01X0383930Y0855240D01*
G01X0382690Y0849000D01*
G01X0383930Y0842760D01*
G01X0387470Y0837460D01*
G01X0392760Y0833930D01*
G01X0399000Y0832690D01*
G01X0405240Y0833930D01*
G01X0410540Y0837460D01*
G01X0414070Y0842760D01*
G01X0415310Y0849000D01*
G01X0414070Y0855240D01*
G01X0410540Y0860540D01*
G01X0405240Y0864070D01*
G01X0399000Y0865310D01*
G37*
G36*
G01X0399000Y0865310D02*
G37*
G36*
G01X0124000Y1093310D02*
G01X0117760Y1092070D01*
G01X0112470Y1088530D01*
G01X0108930Y1083240D01*
G01X0107690Y1077000D01*
G01X0108930Y1070760D01*
G01X0112470Y1065460D01*
G01X0117760Y1061930D01*
G01X0124000Y1060690D01*
G01X0130240Y1061930D01*
G01X0135540Y1065460D01*
G01X0139070Y1070760D01*
G01X0140310Y1077000D01*
G01X0139070Y1083240D01*
G01X0135540Y1088530D01*
G01X0130240Y1092070D01*
G01X0124000Y1093310D01*
G37*
G36*
G01X0124000Y1093310D02*
G37*
G36*
G01X0792000Y1015310D02*
G01X0785760Y1014070D01*
G01X0780470Y1010540D01*
G01X0776930Y1005240D01*
G01X0775690Y0999000D01*
G01X0776930Y0992760D01*
G01X0780470Y0987470D01*
G01X0785760Y0983930D01*
G01X0792000Y0982690D01*
G01X0798240Y0983930D01*
G01X0803530Y0987470D01*
G01X0807070Y0992760D01*
G01X0808310Y0999000D01*
G01X0807070Y1005240D01*
G01X0803530Y1010540D01*
G01X0798240Y1014070D01*
G01X0792000Y1015310D01*
G37*
G36*
G01X0792000Y1015310D02*
G37*
G36*
G01X0885000Y1001310D02*
G01X0878760Y1000070D01*
G01X0873470Y0996540D01*
G01X0869930Y0991240D01*
G01X0868690Y0985000D01*
G01X0869930Y0978760D01*
G01X0873470Y0973470D01*
G01X0878760Y0969930D01*
G01X0885000Y0968690D01*
G01X0891240Y0969930D01*
G01X0896530Y0973470D01*
G01X0900070Y0978760D01*
G01X0901310Y0985000D01*
G01X0900070Y0991240D01*
G01X0896530Y0996540D01*
G01X0891240Y1000070D01*
G01X0885000Y1001310D01*
G37*
G36*
G01X0885000Y1001310D02*
G37*
%LPD*%
G54D20*
G01X0870000Y0451000D02*
G01X0870000Y0567000D01*
G01X0842000Y0595000D02*
G01X0870000Y0567000D01*
G01X0842000Y0595000D02*
G01X0842000Y0795000D01*
G01X0842000Y0795000D02*
G01X0851000Y0804000D01*
G01X0802000Y0581000D02*
G01X0832000Y0551000D01*
G01X0802000Y0581000D02*
G01X0802000Y0679000D01*
G01X0618000Y1128000D02*
G01X0645000Y1128000D01*
G01X0469000Y0979000D02*
G01X0618000Y1128000D01*
G01X0210000Y0979000D02*
G01X0469000Y0979000D01*
G54D22*
G01X-106820Y-849900D02*
G01X-150140Y-849900D01*
G01X-150140Y-849900D02*
G01X-150140Y-919880D01*
G01X-150140Y-919880D02*
G01X-106820Y-919880D01*
G01X-150140Y-883220D02*
G01X-123480Y-883220D01*
G01X-095150Y-873220D02*
G01X-095150Y-919880D01*
G01X-095150Y-886560D02*
G01X-085160Y-876560D01*
G01X-085160Y-876560D02*
G01X-078490Y-873220D01*
G01X-078490Y-873220D02*
G01X-068490Y-873220D01*
G01X-068490Y-873220D02*
G01X-061830Y-876560D01*
G01X-061830Y-876560D02*
G01X-058500Y-886560D01*
G01X-058500Y-886560D02*
G01X-058500Y-919880D01*
G01X-058500Y-886560D02*
G01X-048500Y-876560D01*
G01X-048500Y-876560D02*
G01X-041830Y-873220D01*
G01X-041830Y-873220D02*
G01X-031830Y-873220D01*
G01X-031830Y-873220D02*
G01X-025170Y-876560D01*
G01X-025170Y-876560D02*
G01X-021840Y-886560D01*
G01X-021840Y-886560D02*
G01X-021840Y-919880D01*
G01X0006830Y-849900D02*
G01X0010160Y-853230D01*
G01X0010160Y-853230D02*
G01X0013490Y-849900D01*
G01X0013490Y-849900D02*
G01X0010160Y-846560D01*
G01X0010160Y-846560D02*
G01X0006830Y-849900D01*
G01X0010160Y-873220D02*
G01X0010160Y-919880D01*
G01X0065810Y-883220D02*
G01X0059150Y-876560D01*
G01X0059150Y-876560D02*
G01X0052480Y-873220D01*
G01X0052480Y-873220D02*
G01X0042480Y-873220D01*
G01X0042480Y-873220D02*
G01X0035820Y-876560D01*
G01X0035820Y-876560D02*
G01X0029150Y-883220D01*
G01X0029150Y-883220D02*
G01X0025820Y-893220D01*
G01X0025820Y-893220D02*
G01X0025820Y-899890D01*
G01X0025820Y-899890D02*
G01X0029150Y-909880D01*
G01X0029150Y-909880D02*
G01X0035820Y-916550D01*
G01X0035820Y-916550D02*
G01X0042480Y-919880D01*
G01X0042480Y-919880D02*
G01X0052480Y-919880D01*
G01X0052480Y-919880D02*
G01X0059150Y-916550D01*
G01X0059150Y-916550D02*
G01X0065810Y-909880D01*
G01X0084140Y-866560D02*
G01X0084140Y-863230D01*
G01X0084140Y-863230D02*
G01X0087470Y-856560D01*
G01X0087470Y-856560D02*
G01X0090810Y-853230D01*
G01X0090810Y-853230D02*
G01X0097470Y-849900D01*
G01X0097470Y-849900D02*
G01X0110800Y-849900D01*
G01X0110800Y-849900D02*
G01X0117470Y-853230D01*
G01X0117470Y-853230D02*
G01X0120800Y-856560D01*
G01X0120800Y-856560D02*
G01X0124130Y-863230D01*
G01X0124130Y-863230D02*
G01X0124130Y-869890D01*
G01X0124130Y-869890D02*
G01X0120800Y-876560D01*
G01X0120800Y-876560D02*
G01X0114130Y-886560D01*
G01X0114130Y-886560D02*
G01X0080810Y-919880D01*
G01X0080810Y-919880D02*
G01X0127470Y-919880D01*
G01X0146460Y-913220D02*
G01X0143130Y-916550D01*
G01X0143130Y-916550D02*
G01X0146460Y-919880D01*
G01X0146460Y-919880D02*
G01X0149790Y-916550D01*
G01X0149790Y-916550D02*
G01X0146460Y-913220D01*
G01X0165120Y-886560D02*
G01X0195120Y-886560D01*
G01X0195120Y-886560D02*
G01X0205120Y-883220D01*
G01X0205120Y-883220D02*
G01X0208450Y-879890D01*
G01X0208450Y-879890D02*
G01X0211780Y-873220D01*
G01X0211780Y-873220D02*
G01X0211780Y-863230D01*
G01X0211780Y-863230D02*
G01X0208450Y-856560D01*
G01X0208450Y-856560D02*
G01X0205120Y-853230D01*
G01X0205120Y-853230D02*
G01X0195120Y-849900D01*
G01X0195120Y-849900D02*
G01X0165120Y-849900D01*
G01X0165120Y-849900D02*
G01X0165120Y-919880D01*
G01X0267440Y-883220D02*
G01X0260770Y-876560D01*
G01X0260770Y-876560D02*
G01X0254110Y-873220D01*
G01X0254110Y-873220D02*
G01X0244110Y-873220D01*
G01X0244110Y-873220D02*
G01X0237440Y-876560D01*
G01X0237440Y-876560D02*
G01X0230780Y-883220D01*
G01X0230780Y-883220D02*
G01X0227440Y-893220D01*
G01X0227440Y-893220D02*
G01X0227440Y-899890D01*
G01X0227440Y-899890D02*
G01X0230780Y-909880D01*
G01X0230780Y-909880D02*
G01X0237440Y-916550D01*
G01X0237440Y-916550D02*
G01X0244110Y-919880D01*
G01X0244110Y-919880D02*
G01X0254110Y-919880D01*
G01X0254110Y-919880D02*
G01X0260770Y-916550D01*
G01X0260770Y-916550D02*
G01X0267440Y-909880D01*
G01X0282430Y-849900D02*
G01X0282430Y-919880D01*
G01X0282430Y-883220D02*
G01X0289100Y-876560D01*
G01X0289100Y-876560D02*
G01X0295760Y-873220D01*
G01X0295760Y-873220D02*
G01X0305760Y-873220D01*
G01X0305760Y-873220D02*
G01X0312430Y-876560D01*
G01X0312430Y-876560D02*
G01X0319090Y-883220D01*
G01X0319090Y-883220D02*
G01X0322420Y-893220D01*
G01X0322420Y-893220D02*
G01X0322420Y-899890D01*
G01X0322420Y-899890D02*
G01X0319090Y-909880D01*
G01X0319090Y-909880D02*
G01X0312430Y-916550D01*
G01X0312430Y-916550D02*
G01X0305760Y-919880D01*
G01X0305760Y-919880D02*
G01X0295760Y-919880D01*
G01X0295760Y-919880D02*
G01X0289100Y-916550D01*
G01X0289100Y-916550D02*
G01X0282430Y-909880D01*
G01X0337420Y-849900D02*
G01X0337420Y-919880D01*
G01X0337420Y-849900D02*
G01X0360750Y-849900D01*
G01X0360750Y-849900D02*
G01X0370750Y-853230D01*
G01X0370750Y-853230D02*
G01X0377410Y-859890D01*
G01X0377410Y-859890D02*
G01X0380740Y-866560D01*
G01X0380740Y-866560D02*
G01X0384080Y-876560D01*
G01X0384080Y-876560D02*
G01X0384080Y-893220D01*
G01X0384080Y-893220D02*
G01X0380740Y-903220D01*
G01X0380740Y-903220D02*
G01X0377410Y-909880D01*
G01X0377410Y-909880D02*
G01X0370750Y-916550D01*
G01X0370750Y-916550D02*
G01X0360750Y-919880D01*
G01X0360750Y-919880D02*
G01X0337420Y-919880D01*
G01X0416400Y-873220D02*
G01X0409740Y-876560D01*
G01X0409740Y-876560D02*
G01X0403070Y-883220D01*
G01X0403070Y-883220D02*
G01X0399740Y-893220D01*
G01X0399740Y-893220D02*
G01X0399740Y-899890D01*
G01X0399740Y-899890D02*
G01X0403070Y-909880D01*
G01X0403070Y-909880D02*
G01X0409740Y-916550D01*
G01X0409740Y-916550D02*
G01X0416400Y-919880D01*
G01X0416400Y-919880D02*
G01X0426400Y-919880D01*
G01X0426400Y-919880D02*
G01X0433070Y-916550D01*
G01X0433070Y-916550D02*
G01X0439730Y-909880D01*
G01X0439730Y-909880D02*
G01X0443060Y-899890D01*
G01X0443060Y-899890D02*
G01X0443060Y-893220D01*
G01X0443060Y-893220D02*
G01X0439730Y-883220D01*
G01X0439730Y-883220D02*
G01X0433070Y-876560D01*
G01X0433070Y-876560D02*
G01X0426400Y-873220D01*
G01X0426400Y-873220D02*
G01X0416400Y-873220D01*
G01X0498390Y-883220D02*
G01X0491720Y-876560D01*
G01X0491720Y-876560D02*
G01X0485060Y-873220D01*
G01X0485060Y-873220D02*
G01X0475060Y-873220D01*
G01X0475060Y-873220D02*
G01X0468390Y-876560D01*
G01X0468390Y-876560D02*
G01X0461730Y-883220D01*
G01X0461730Y-883220D02*
G01X0458400Y-893220D01*
G01X0458400Y-893220D02*
G01X0458400Y-899890D01*
G01X0458400Y-899890D02*
G01X0461730Y-909880D01*
G01X0461730Y-909880D02*
G01X0468390Y-916550D01*
G01X0468390Y-916550D02*
G01X0475060Y-919880D01*
G01X0475060Y-919880D02*
G01X0485060Y-919880D01*
G01X0485060Y-919880D02*
G01X0491720Y-916550D01*
G01X0491720Y-916550D02*
G01X0498390Y-909880D01*
G54D25*
G01X0000000Y0000000D02*
G01X1250000Y0000000D01*
G01X0000000Y1500000D02*
G01X1250000Y1500000D01*
G01X0000000Y0000000D02*
G01X0000000Y1500000D01*
G01X1250000Y0000000D02*
G01X1250000Y1500000D01*
G54D26*
G01X0199310Y0108200D02*
G01X0173540Y0108200D01*
G01X0173540Y0108200D02*
G01X0187600Y0089460D01*
G01X0187600Y0089460D02*
G01X0180570Y0089460D01*
G01X0180570Y0089460D02*
G01X0175890Y0087110D01*
G01X0175890Y0087110D02*
G01X0173540Y0084770D01*
G01X0173540Y0084770D02*
G01X0171200Y0077740D01*
G01X0171200Y0077740D02*
G01X0171200Y0073060D01*
G01X0171200Y0073060D02*
G01X0173540Y0066030D01*
G01X0173540Y0066030D02*
G01X0178230Y0061340D01*
G01X0178230Y0061340D02*
G01X0185260Y0059000D01*
G01X0185260Y0059000D02*
G01X0192290Y0059000D01*
G01X0192290Y0059000D02*
G01X0199310Y0061340D01*
G01X0199310Y0061340D02*
G01X0201660Y0063690D01*
G01X0201660Y0063690D02*
G01X0204000Y0068370D01*
G01X5277180Y-1677700D02*
G01X5274840Y-1673020D01*
G01X5274840Y-1673020D02*
G01X5270150Y-1668330D01*
G01X5270150Y-1668330D02*
G01X5265470Y-1665990D01*
G01X5265470Y-1665990D02*
G01X5256100Y-1665990D01*
G01X5256100Y-1665990D02*
G01X5251410Y-1668330D01*
G01X5251410Y-1668330D02*
G01X5246730Y-1673020D01*
G01X5246730Y-1673020D02*
G01X5244380Y-1677700D01*
G01X5244380Y-1677700D02*
G01X5242040Y-1684730D01*
G01X5242040Y-1684730D02*
G01X5242040Y-1696440D01*
G01X5242040Y-1696440D02*
G01X5244380Y-1703470D01*
G01X5244380Y-1703470D02*
G01X5246730Y-1708160D01*
G01X5246730Y-1708160D02*
G01X5251410Y-1712850D01*
G01X5251410Y-1712850D02*
G01X5256100Y-1715190D01*
G01X5256100Y-1715190D02*
G01X5265470Y-1715190D01*
G01X5265470Y-1715190D02*
G01X5270150Y-1712850D01*
G01X5270150Y-1712850D02*
G01X5274840Y-1708160D01*
G01X5274840Y-1708160D02*
G01X5277180Y-1703470D01*
G01X5305070Y-1665990D02*
G01X5300380Y-1668330D01*
G01X5300380Y-1668330D02*
G01X5295690Y-1673020D01*
G01X5295690Y-1673020D02*
G01X5293350Y-1677700D01*
G01X5293350Y-1677700D02*
G01X5291010Y-1684730D01*
G01X5291010Y-1684730D02*
G01X5291010Y-1696440D01*
G01X5291010Y-1696440D02*
G01X5293350Y-1703470D01*
G01X5293350Y-1703470D02*
G01X5295690Y-1708160D01*
G01X5295690Y-1708160D02*
G01X5300380Y-1712850D01*
G01X5300380Y-1712850D02*
G01X5305070Y-1715190D01*
G01X5305070Y-1715190D02*
G01X5314440Y-1715190D01*
G01X5314440Y-1715190D02*
G01X5319120Y-1712850D01*
G01X5319120Y-1712850D02*
G01X5323810Y-1708160D01*
G01X5323810Y-1708160D02*
G01X5326150Y-1703470D01*
G01X5326150Y-1703470D02*
G01X5328490Y-1696440D01*
G01X5328490Y-1696440D02*
G01X5328490Y-1684730D01*
G01X5328490Y-1684730D02*
G01X5326150Y-1677700D01*
G01X5326150Y-1677700D02*
G01X5323810Y-1673020D01*
G01X5323810Y-1673020D02*
G01X5319120Y-1668330D01*
G01X5319120Y-1668330D02*
G01X5314440Y-1665990D01*
G01X5314440Y-1665990D02*
G01X5305070Y-1665990D01*
G01X5339970Y-1691760D02*
G01X5361060Y-1691760D01*
G01X5361060Y-1691760D02*
G01X5368090Y-1689420D01*
G01X5368090Y-1689420D02*
G01X5370430Y-1687070D01*
G01X5370430Y-1687070D02*
G01X5372780Y-1682390D01*
G01X5372780Y-1682390D02*
G01X5372780Y-1675360D01*
G01X5372780Y-1675360D02*
G01X5370430Y-1670670D01*
G01X5370430Y-1670670D02*
G01X5368090Y-1668330D01*
G01X5368090Y-1668330D02*
G01X5361060Y-1665990D01*
G01X5361060Y-1665990D02*
G01X5339970Y-1665990D01*
G01X5339970Y-1665990D02*
G01X5339970Y-1715190D01*
G01X5383790Y-1691760D02*
G01X5404870Y-1691760D01*
G01X5404870Y-1691760D02*
G01X5411900Y-1689420D01*
G01X5411900Y-1689420D02*
G01X5414250Y-1687070D01*
G01X5414250Y-1687070D02*
G01X5416590Y-1682390D01*
G01X5416590Y-1682390D02*
G01X5416590Y-1675360D01*
G01X5416590Y-1675360D02*
G01X5414250Y-1670670D01*
G01X5414250Y-1670670D02*
G01X5411900Y-1668330D01*
G01X5411900Y-1668330D02*
G01X5404870Y-1665990D01*
G01X5404870Y-1665990D02*
G01X5383790Y-1665990D01*
G01X5383790Y-1665990D02*
G01X5383790Y-1715190D01*
G01X5458060Y-1665990D02*
G01X5427600Y-1665990D01*
G01X5427600Y-1665990D02*
G01X5427600Y-1715190D01*
G01X5427600Y-1715190D02*
G01X5458060Y-1715190D01*
G01X5427600Y-1689420D02*
G01X5446340Y-1689420D01*
G01X5466260Y-1665990D02*
G01X5466260Y-1715190D01*
G01X5466260Y-1665990D02*
G01X5487350Y-1665990D01*
G01X5487350Y-1665990D02*
G01X5494380Y-1668330D01*
G01X5494380Y-1668330D02*
G01X5496720Y-1670670D01*
G01X5496720Y-1670670D02*
G01X5499060Y-1675360D01*
G01X5499060Y-1675360D02*
G01X5499060Y-1680050D01*
G01X5499060Y-1680050D02*
G01X5496720Y-1684730D01*
G01X5496720Y-1684730D02*
G01X5494380Y-1687070D01*
G01X5494380Y-1687070D02*
G01X5487350Y-1689420D01*
G01X5487350Y-1689420D02*
G01X5466260Y-1689420D01*
G01X5482660Y-1689420D02*
G01X5499060Y-1715190D01*
G01X5548730Y-1665990D02*
G01X5548730Y-1715190D01*
G01X5559040Y-1665990D02*
G01X5559040Y-1715190D01*
G01X5559040Y-1665990D02*
G01X5591840Y-1715190D01*
G01X5591840Y-1665990D02*
G01X5591840Y-1715190D01*
G01X5605430Y-1665990D02*
G01X5605430Y-1715190D01*
G01X5605430Y-1665990D02*
G01X5638230Y-1715190D01*
G01X5638230Y-1665990D02*
G01X5638230Y-1715190D01*
G01X5682280Y-1665990D02*
G01X5651820Y-1665990D01*
G01X5651820Y-1665990D02*
G01X5651820Y-1715190D01*
G01X5651820Y-1715190D02*
G01X5682280Y-1715190D01*
G01X5651820Y-1689420D02*
G01X5670570Y-1689420D01*
G01X5690480Y-1665990D02*
G01X5690480Y-1715190D01*
G01X5690480Y-1665990D02*
G01X5711570Y-1665990D01*
G01X5711570Y-1665990D02*
G01X5718600Y-1668330D01*
G01X5718600Y-1668330D02*
G01X5720940Y-1670670D01*
G01X5720940Y-1670670D02*
G01X5723280Y-1675360D01*
G01X5723280Y-1675360D02*
G01X5723280Y-1680050D01*
G01X5723280Y-1680050D02*
G01X5720940Y-1684730D01*
G01X5720940Y-1684730D02*
G01X5718600Y-1687070D01*
G01X5718600Y-1687070D02*
G01X5711570Y-1689420D01*
G01X5711570Y-1689420D02*
G01X5690480Y-1689420D01*
G01X5706880Y-1689420D02*
G01X5723280Y-1715190D01*
G01X5772950Y-1665990D02*
G01X5772950Y-1715190D01*
G01X5772950Y-1715190D02*
G01X5801070Y-1715190D01*
G01X5843950Y-1715190D02*
G01X5825200Y-1665990D01*
G01X5825200Y-1665990D02*
G01X5806460Y-1715190D01*
G01X5813490Y-1698790D02*
G01X5836920Y-1698790D01*
G01X5855420Y-1665990D02*
G01X5874170Y-1689420D01*
G01X5874170Y-1689420D02*
G01X5874170Y-1715190D01*
G01X5892910Y-1665990D02*
G01X5874170Y-1689420D01*
G01X5929700Y-1665990D02*
G01X5899240Y-1665990D01*
G01X5899240Y-1665990D02*
G01X5899240Y-1715190D01*
G01X5899240Y-1715190D02*
G01X5929700Y-1715190D01*
G01X5899240Y-1689420D02*
G01X5917980Y-1689420D01*
G01X5937900Y-1665990D02*
G01X5937900Y-1715190D01*
G01X5937900Y-1665990D02*
G01X5958980Y-1665990D01*
G01X5958980Y-1665990D02*
G01X5966010Y-1668330D01*
G01X5966010Y-1668330D02*
G01X5968360Y-1670670D01*
G01X5968360Y-1670670D02*
G01X5970700Y-1675360D01*
G01X5970700Y-1675360D02*
G01X5970700Y-1680050D01*
G01X5970700Y-1680050D02*
G01X5968360Y-1684730D01*
G01X5968360Y-1684730D02*
G01X5966010Y-1687070D01*
G01X5966010Y-1687070D02*
G01X5958980Y-1689420D01*
G01X5958980Y-1689420D02*
G01X5937900Y-1689420D01*
G01X5954300Y-1689420D02*
G01X5970700Y-1715190D01*
G01X6025060Y-1665990D02*
G01X6050830Y-1665990D01*
G01X6050830Y-1665990D02*
G01X6036770Y-1684730D01*
G01X6036770Y-1684730D02*
G01X6043800Y-1684730D01*
G01X6043800Y-1684730D02*
G01X6048480Y-1687070D01*
G01X6048480Y-1687070D02*
G01X6050830Y-1689420D01*
G01X6050830Y-1689420D02*
G01X6053170Y-1696440D01*
G01X6053170Y-1696440D02*
G01X6053170Y-1701130D01*
G01X6053170Y-1701130D02*
G01X6050830Y-1708160D01*
G01X6050830Y-1708160D02*
G01X6046140Y-1712850D01*
G01X6046140Y-1712850D02*
G01X6039110Y-1715190D01*
G01X6039110Y-1715190D02*
G01X6032080Y-1715190D01*
G01X6032080Y-1715190D02*
G01X6025060Y-1712850D01*
G01X6025060Y-1712850D02*
G01X6022710Y-1710500D01*
G01X6022710Y-1710500D02*
G01X6020370Y-1705820D01*
G01X5514630Y-840260D02*
G01X5514630Y-899310D01*
G01X5514630Y-899310D02*
G01X5548370Y-899310D01*
G01X5599820Y-899310D02*
G01X5577330Y-840260D01*
G01X5577330Y-840260D02*
G01X5554830Y-899310D01*
G01X5563270Y-879630D02*
G01X5591380Y-879630D01*
G01X5613600Y-840260D02*
G01X5636090Y-868380D01*
G01X5636090Y-868380D02*
G01X5636090Y-899310D01*
G01X5658580Y-840260D02*
G01X5636090Y-868380D01*
G01X5702720Y-840260D02*
G01X5666170Y-840260D01*
G01X5666170Y-840260D02*
G01X5666170Y-899310D01*
G01X5666170Y-899310D02*
G01X5702720Y-899310D01*
G01X5666170Y-868380D02*
G01X5688660Y-868380D01*
G01X5712560Y-840260D02*
G01X5712560Y-899310D01*
G01X5712560Y-840260D02*
G01X5737870Y-840260D01*
G01X5737870Y-840260D02*
G01X5746300Y-843080D01*
G01X5746300Y-843080D02*
G01X5749110Y-845890D01*
G01X5749110Y-845890D02*
G01X5751920Y-851510D01*
G01X5751920Y-851510D02*
G01X5751920Y-857130D01*
G01X5751920Y-857130D02*
G01X5749110Y-862760D01*
G01X5749110Y-862760D02*
G01X5746300Y-865570D01*
G01X5746300Y-865570D02*
G01X5737870Y-868380D01*
G01X5737870Y-868380D02*
G01X5712560Y-868380D01*
G01X5732240Y-868380D02*
G01X5751920Y-899310D01*
G01X5831210Y-840260D02*
G01X5831210Y-899310D01*
G01X5811530Y-840260D02*
G01X5850890Y-840260D01*
G01X5857920Y-840260D02*
G01X5857920Y-899310D01*
G01X5889970Y-840260D02*
G01X5889970Y-899310D01*
G01X5870290Y-840260D02*
G01X5909650Y-840260D01*
G01X5916680Y-840260D02*
G01X5916680Y-899310D01*
G01X5916680Y-899310D02*
G01X5950420Y-899310D01*
G01X5993440Y-840260D02*
G01X5956890Y-840260D01*
G01X5956890Y-840260D02*
G01X5956890Y-899310D01*
G01X5956890Y-899310D02*
G01X5993440Y-899310D01*
G01X5956890Y-868380D02*
G01X5979380Y-868380D01*
G54D27*
G01X1541770Y-2057020D02*
G01X2998460Y-2057020D01*
G01X1541770Y-1742060D02*
G01X2998460Y-1742060D01*
G01X1541770Y-1427090D02*
G01X2998460Y-1427090D01*
G01X-151140Y-2214500D02*
G01X-151140Y-1112130D01*
G01X-151140Y-2214500D02*
G01X2998460Y-2214500D01*
G01X2998460Y-2214500D02*
G01X2998460Y-1112130D01*
G01X-151140Y-1112130D02*
G01X2998460Y-1112130D01*
G01X2014210Y-2214500D02*
G01X2014210Y-2057020D01*
G01X1541770Y-2214500D02*
G01X1541770Y-1112130D01*
G54D29*
G01X0475000Y0084000D03*
G54D30*
G01X0832000Y0551000D03*
G01X1001000Y0802000D03*
G01X0802000Y0679000D03*
G01X0977000Y0802000D03*
G01X0072000Y0641000D03*
G01X0740000Y0942000D03*
G01X0916000Y1092000D03*
G01X0899000Y1109000D03*
G01X0072000Y0665000D03*
G01X0635000Y1006000D03*
G01X0364000Y0436000D03*
G01X0341000Y0436000D03*
G01X0851000Y0804000D03*
G01X0339000Y0613000D03*
G01X0755000Y0414000D03*
G01X0562000Y0948000D03*
G01X0645000Y1128000D03*
G01X0210000Y0979000D03*
G01X0260000Y0850000D03*
G01X0328000Y0850000D03*
G01X0339000Y0590000D03*
G01X0458000Y1124000D03*
G01X0240000Y1382000D03*
G01X0025000Y1124000D03*
G01X0025000Y1202000D03*
G01X0119000Y0884000D03*
G01X0756000Y0344000D03*
G01X0393000Y0308000D03*
G01X0124000Y1104000D03*
G01X0399000Y1381000D03*
G54D31*
G01X5140610Y-2218200D02*
G01X6479200Y-2218200D01*
G01X5140610Y-2100090D02*
G01X6479200Y-2100090D01*
G01X5140610Y-918990D02*
G01X6479200Y-918990D01*
G01X5140610Y-2218200D02*
G01X5140610Y-800880D01*
G01X6479200Y-2218200D02*
G01X6479200Y-800880D01*
G01X5140610Y-800880D02*
G01X6479200Y-800880D01*
G01X5140610Y-1037100D02*
G01X6479200Y-1037100D01*
G01X5140610Y-1155210D02*
G01X6479200Y-1155210D01*
G01X5140610Y-1273320D02*
G01X6479200Y-1273320D01*
G01X5140610Y-1391430D02*
G01X6479200Y-1391430D01*
G01X5140610Y-1509540D02*
G01X6479200Y-1509540D01*
G01X5140610Y-1627650D02*
G01X6479200Y-1627650D01*
G01X5140610Y-1745760D02*
G01X6479200Y-1745760D01*
G01X5140610Y-1863870D02*
G01X6479200Y-1863870D01*
G01X5140610Y-1981980D02*
G01X6479200Y-1981980D01*
G54D32*
G01X0887860Y-1221880D02*
G01X0901860Y-1221880D01*
G01X0882860Y-1222880D02*
G01X0906860Y-1222880D01*
G01X0879860Y-1223880D02*
G01X0887860Y-1223880D01*
G01X0901860Y-1223880D02*
G01X0909860Y-1223880D01*
G01X0876860Y-1224880D02*
G01X0882860Y-1224880D01*
G01X0906860Y-1224880D02*
G01X0911860Y-1224880D01*
G01X0874860Y-1225880D02*
G01X0879860Y-1225880D01*
G01X0909860Y-1225880D02*
G01X0913860Y-1225880D01*
G01X0872860Y-1226880D02*
G01X0876860Y-1226880D01*
G01X0911860Y-1226880D02*
G01X0915860Y-1226880D01*
G01X0871860Y-1227880D02*
G01X0874860Y-1227880D01*
G01X0913860Y-1227880D02*
G01X0917860Y-1227880D01*
G01X0869860Y-1228880D02*
G01X0873860Y-1228880D01*
G01X0915860Y-1228880D02*
G01X0918860Y-1228880D01*
G01X0868860Y-1229880D02*
G01X0871860Y-1229880D01*
G01X0916860Y-1229880D02*
G01X0919860Y-1229880D01*
G01X0867860Y-1230880D02*
G01X0870860Y-1230880D01*
G01X0917860Y-1230880D02*
G01X0920860Y-1230880D01*
G01X0866860Y-1231880D02*
G01X0869860Y-1231880D01*
G01X0919860Y-1231880D02*
G01X0921860Y-1231880D01*
G01X0865860Y-1232880D02*
G01X0867860Y-1232880D01*
G01X0920860Y-1232880D02*
G01X0922860Y-1232880D01*
G01X0864860Y-1233880D02*
G01X0866860Y-1233880D01*
G01X0921860Y-1233880D02*
G01X0923860Y-1233880D01*
G01X0863860Y-1234880D02*
G01X0865860Y-1234880D01*
G01X0922860Y-1234880D02*
G01X0924860Y-1234880D01*
G01X0862860Y-1235880D02*
G01X0865860Y-1235880D01*
G01X0923860Y-1235880D02*
G01X0925860Y-1235880D01*
G01X0861860Y-1236880D02*
G01X0864860Y-1236880D01*
G01X0923860Y-1236880D02*
G01X0926860Y-1236880D01*
G01X0861860Y-1237880D02*
G01X0863860Y-1237880D01*
G01X0924860Y-1237880D02*
G01X0926860Y-1237880D01*
G01X0860860Y-1238880D02*
G01X0862860Y-1238880D01*
G01X0925860Y-1238880D02*
G01X0927860Y-1238880D01*
G01X0860860Y-1239880D02*
G01X0862860Y-1239880D01*
G01X0925860Y-1239880D02*
G01X0928860Y-1239880D01*
G01X0859860Y-1240880D02*
G01X0861860Y-1240880D01*
G01X0926860Y-1240880D02*
G01X0928860Y-1240880D01*
G01X0858860Y-1241880D02*
G01X0860860Y-1241880D01*
G01X0927860Y-1241880D02*
G01X0929860Y-1241880D01*
G01X0858860Y-1242880D02*
G01X0860860Y-1242880D01*
G01X0927860Y-1242880D02*
G01X0929860Y-1242880D01*
G01X0857860Y-1243880D02*
G01X0860860Y-1243880D01*
G01X0928860Y-1243880D02*
G01X0930860Y-1243880D01*
G01X0857860Y-1244880D02*
G01X0859860Y-1244880D01*
G01X0928860Y-1244880D02*
G01X0930860Y-1244880D01*
G01X0857860Y-1245880D02*
G01X0859860Y-1245880D01*
G01X0929860Y-1245880D02*
G01X0931860Y-1245880D01*
G01X0856860Y-1246880D02*
G01X0858860Y-1246880D01*
G01X0929860Y-1246880D02*
G01X0931860Y-1246880D01*
G01X0854860Y-1247880D02*
G01X0858860Y-1247880D01*
G01X0930860Y-1247880D02*
G01X0932860Y-1247880D01*
G01X0851860Y-1248880D02*
G01X0857860Y-1248880D01*
G01X0930860Y-1248880D02*
G01X0935860Y-1248880D01*
G01X0847860Y-1249880D02*
G01X0854860Y-1249880D01*
G01X0932860Y-1249880D02*
G01X0939860Y-1249880D01*
G01X0844860Y-1250880D02*
G01X0850860Y-1250880D01*
G01X0935860Y-1250880D02*
G01X0942860Y-1250880D01*
G01X0841860Y-1251880D02*
G01X0847860Y-1251880D01*
G01X0939860Y-1251880D02*
G01X0945860Y-1251880D01*
G01X0839860Y-1252880D02*
G01X0844860Y-1252880D01*
G01X0942860Y-1252880D02*
G01X0948860Y-1252880D01*
G01X0836860Y-1253880D02*
G01X0841860Y-1253880D01*
G01X0945860Y-1253880D02*
G01X0950860Y-1253880D01*
G01X0834860Y-1254880D02*
G01X0839860Y-1254880D01*
G01X0948860Y-1254880D02*
G01X0953860Y-1254880D01*
G01X0832860Y-1255880D02*
G01X0836860Y-1255880D01*
G01X0951860Y-1255880D02*
G01X0955860Y-1255880D01*
G01X0830860Y-1256880D02*
G01X0834860Y-1256880D01*
G01X0953860Y-1256880D02*
G01X0958860Y-1256880D01*
G01X0828860Y-1257880D02*
G01X0832860Y-1257880D01*
G01X0955860Y-1257880D02*
G01X0960860Y-1257880D01*
G01X0826860Y-1258880D02*
G01X0830860Y-1258880D01*
G01X0958860Y-1258880D02*
G01X0962860Y-1258880D01*
G01X0824860Y-1259880D02*
G01X0828860Y-1259880D01*
G01X0960860Y-1259880D02*
G01X0964860Y-1259880D01*
G01X0822860Y-1260880D02*
G01X0826860Y-1260880D01*
G01X0962860Y-1260880D02*
G01X0966860Y-1260880D01*
G01X0821860Y-1261880D02*
G01X0824860Y-1261880D01*
G01X0964860Y-1261880D02*
G01X0968860Y-1261880D01*
G01X0819860Y-1262880D02*
G01X0823860Y-1262880D01*
G01X0966860Y-1262880D02*
G01X0970860Y-1262880D01*
G01X0817860Y-1263880D02*
G01X0821860Y-1263880D01*
G01X0968860Y-1263880D02*
G01X0972860Y-1263880D01*
G01X0816860Y-1264880D02*
G01X0819860Y-1264880D01*
G01X0970860Y-1264880D02*
G01X0973860Y-1264880D01*
G01X0815860Y-1265880D02*
G01X0818860Y-1265880D01*
G01X0972860Y-1265880D02*
G01X0975860Y-1265880D01*
G01X0813860Y-1266880D02*
G01X0816860Y-1266880D01*
G01X0973860Y-1266880D02*
G01X0976860Y-1266880D01*
G01X0812860Y-1267880D02*
G01X0815860Y-1267880D01*
G01X0975860Y-1267880D02*
G01X0978860Y-1267880D01*
G01X0811860Y-1268880D02*
G01X0814860Y-1268880D01*
G01X0976860Y-1268880D02*
G01X0979860Y-1268880D01*
G01X0809860Y-1269880D02*
G01X0812860Y-1269880D01*
G01X0978860Y-1269880D02*
G01X0981860Y-1269880D01*
G01X0808860Y-1270880D02*
G01X0811860Y-1270880D01*
G01X0979860Y-1270880D02*
G01X0982860Y-1270880D01*
G01X0807860Y-1271880D02*
G01X0810860Y-1271880D01*
G01X0980860Y-1271880D02*
G01X0983860Y-1271880D01*
G01X0806860Y-1272880D02*
G01X0809860Y-1272880D01*
G01X0982860Y-1272880D02*
G01X0985860Y-1272880D01*
G01X0805860Y-1273880D02*
G01X0807860Y-1273880D01*
G01X0983860Y-1273880D02*
G01X0986860Y-1273880D01*
G01X0803860Y-1274880D02*
G01X0806860Y-1274880D01*
G01X0984860Y-1274880D02*
G01X0987860Y-1274880D01*
G01X0802860Y-1275880D02*
G01X0805860Y-1275880D01*
G01X0986860Y-1275880D02*
G01X0988860Y-1275880D01*
G01X0801860Y-1276880D02*
G01X0804860Y-1276880D01*
G01X0987860Y-1276880D02*
G01X0989860Y-1276880D01*
G01X0800860Y-1277880D02*
G01X0803860Y-1277880D01*
G01X0988860Y-1277880D02*
G01X0990860Y-1277880D01*
G01X0799860Y-1278880D02*
G01X0802860Y-1278880D01*
G01X0989860Y-1278880D02*
G01X0991860Y-1278880D01*
G01X0798860Y-1279880D02*
G01X0801860Y-1279880D01*
G01X0990860Y-1279880D02*
G01X0992860Y-1279880D01*
G01X0797860Y-1280880D02*
G01X0800860Y-1280880D01*
G01X0991860Y-1280880D02*
G01X0993860Y-1280880D01*
G01X0797860Y-1281880D02*
G01X0799860Y-1281880D01*
G01X0992860Y-1281880D02*
G01X0994860Y-1281880D01*
G01X0796860Y-1282880D02*
G01X0798860Y-1282880D01*
G01X0992860Y-1282880D02*
G01X0995860Y-1282880D01*
G01X0795860Y-1283880D02*
G01X0797860Y-1283880D01*
G01X0993860Y-1283880D02*
G01X0996860Y-1283880D01*
G01X0794860Y-1284880D02*
G01X0796860Y-1284880D01*
G01X0994860Y-1284880D02*
G01X0997860Y-1284880D01*
G01X0793860Y-1285880D02*
G01X0796860Y-1285880D01*
G01X0995860Y-1285880D02*
G01X0997860Y-1285880D01*
G01X0792860Y-1286880D02*
G01X0795860Y-1286880D01*
G01X0996860Y-1286880D02*
G01X0998860Y-1286880D01*
G01X0791860Y-1287880D02*
G01X0794860Y-1287880D01*
G01X0997860Y-1287880D02*
G01X0999860Y-1287880D01*
G01X0791860Y-1288880D02*
G01X0793860Y-1288880D01*
G01X0997860Y-1288880D02*
G01X1000860Y-1288880D01*
G01X0790860Y-1289880D02*
G01X0792860Y-1289880D01*
G01X0998860Y-1289880D02*
G01X1001860Y-1289880D01*
G01X0789860Y-1290880D02*
G01X0791860Y-1290880D01*
G01X0999860Y-1290880D02*
G01X1001860Y-1290880D01*
G01X0788860Y-1291880D02*
G01X0791860Y-1291880D01*
G01X1000860Y-1291880D02*
G01X1002860Y-1291880D01*
G01X0788860Y-1292880D02*
G01X0790860Y-1292880D01*
G01X0935860Y-1292880D02*
G01X0936860Y-1292880D01*
G01X1000860Y-1292880D02*
G01X1003860Y-1292880D01*
G01X0787860Y-1293880D02*
G01X0789860Y-1293880D01*
G01X0850860Y-1293880D02*
G01X0852860Y-1293880D01*
G01X0935860Y-1293880D02*
G01X0938860Y-1293880D01*
G01X1001860Y-1293880D02*
G01X1003860Y-1293880D01*
G01X0786860Y-1294880D02*
G01X0788860Y-1294880D01*
G01X0849860Y-1294880D02*
G01X0852860Y-1294880D01*
G01X0935860Y-1294880D02*
G01X0940860Y-1294880D01*
G01X1002860Y-1294880D02*
G01X1004860Y-1294880D01*
G01X0786860Y-1295880D02*
G01X0788860Y-1295880D01*
G01X0848860Y-1295880D02*
G01X0852860Y-1295880D01*
G01X0935860Y-1295880D02*
G01X0937860Y-1295880D01*
G01X0938860Y-1295880D02*
G01X0941860Y-1295880D01*
G01X1002860Y-1295880D02*
G01X1005860Y-1295880D01*
G01X0785860Y-1296880D02*
G01X0787860Y-1296880D01*
G01X0846860Y-1296880D02*
G01X0849860Y-1296880D01*
G01X0850860Y-1296880D02*
G01X0852860Y-1296880D01*
G01X0935860Y-1296880D02*
G01X0937860Y-1296880D01*
G01X0939860Y-1296880D02*
G01X0943860Y-1296880D01*
G01X1003860Y-1296880D02*
G01X1005860Y-1296880D01*
G01X0784860Y-1297880D02*
G01X0786860Y-1297880D01*
G01X0845860Y-1297880D02*
G01X0848860Y-1297880D01*
G01X0850860Y-1297880D02*
G01X0852860Y-1297880D01*
G01X0935860Y-1297880D02*
G01X0937860Y-1297880D01*
G01X0941860Y-1297880D02*
G01X0944860Y-1297880D01*
G01X1004860Y-1297880D02*
G01X1006860Y-1297880D01*
G01X0784860Y-1298880D02*
G01X0786860Y-1298880D01*
G01X0843860Y-1298880D02*
G01X0846860Y-1298880D01*
G01X0850860Y-1298880D02*
G01X0852860Y-1298880D01*
G01X0935860Y-1298880D02*
G01X0936860Y-1298880D01*
G01X0942860Y-1298880D02*
G01X0946860Y-1298880D01*
G01X1004860Y-1298880D02*
G01X1007860Y-1298880D01*
G01X0783860Y-1299880D02*
G01X0785860Y-1299880D01*
G01X0842860Y-1299880D02*
G01X0845860Y-1299880D01*
G01X0850860Y-1299880D02*
G01X0852860Y-1299880D01*
G01X0934860Y-1299880D02*
G01X0936860Y-1299880D01*
G01X0944860Y-1299880D02*
G01X0947860Y-1299880D01*
G01X1005860Y-1299880D02*
G01X1007860Y-1299880D01*
G01X0782860Y-1300880D02*
G01X0785860Y-1300880D01*
G01X0841860Y-1300880D02*
G01X0844860Y-1300880D01*
G01X0851860Y-1300880D02*
G01X0852860Y-1300880D01*
G01X0934860Y-1300880D02*
G01X0936860Y-1300880D01*
G01X0945860Y-1300880D02*
G01X0948860Y-1300880D01*
G01X1006860Y-1300880D02*
G01X1008860Y-1300880D01*
G01X0782860Y-1301880D02*
G01X0784860Y-1301880D01*
G01X0840860Y-1301880D02*
G01X0843860Y-1301880D01*
G01X0851860Y-1301880D02*
G01X0852860Y-1301880D01*
G01X0934860Y-1301880D02*
G01X0936860Y-1301880D01*
G01X0946860Y-1301880D02*
G01X0949860Y-1301880D01*
G01X1006860Y-1301880D02*
G01X1008860Y-1301880D01*
G01X0781860Y-1302880D02*
G01X0783860Y-1302880D01*
G01X0839860Y-1302880D02*
G01X0841860Y-1302880D01*
G01X0851860Y-1302880D02*
G01X0853860Y-1302880D01*
G01X0934860Y-1302880D02*
G01X0936860Y-1302880D01*
G01X0948860Y-1302880D02*
G01X0950860Y-1302880D01*
G01X1007860Y-1302880D02*
G01X1009860Y-1302880D01*
G01X0781860Y-1303880D02*
G01X0783860Y-1303880D01*
G01X0838860Y-1303880D02*
G01X0840860Y-1303880D01*
G01X0851860Y-1303880D02*
G01X0853860Y-1303880D01*
G01X0934860Y-1303880D02*
G01X0936860Y-1303880D01*
G01X0949860Y-1303880D02*
G01X0951860Y-1303880D01*
G01X1007860Y-1303880D02*
G01X1009860Y-1303880D01*
G01X0780860Y-1304880D02*
G01X0782860Y-1304880D01*
G01X0837860Y-1304880D02*
G01X0840860Y-1304880D01*
G01X0851860Y-1304880D02*
G01X0853860Y-1304880D01*
G01X0934860Y-1304880D02*
G01X0936860Y-1304880D01*
G01X0950860Y-1304880D02*
G01X0952860Y-1304880D01*
G01X1008860Y-1304880D02*
G01X1010860Y-1304880D01*
G01X0780860Y-1305880D02*
G01X0782860Y-1305880D01*
G01X0836860Y-1305880D02*
G01X0839860Y-1305880D01*
G01X0851860Y-1305880D02*
G01X0853860Y-1305880D01*
G01X0934860Y-1305880D02*
G01X0936860Y-1305880D01*
G01X0951860Y-1305880D02*
G01X0953860Y-1305880D01*
G01X1008860Y-1305880D02*
G01X1010860Y-1305880D01*
G01X0779860Y-1306880D02*
G01X0781860Y-1306880D01*
G01X0835860Y-1306880D02*
G01X0838860Y-1306880D01*
G01X0851860Y-1306880D02*
G01X0853860Y-1306880D01*
G01X0934860Y-1306880D02*
G01X0936860Y-1306880D01*
G01X0952860Y-1306880D02*
G01X0954860Y-1306880D01*
G01X1009860Y-1306880D02*
G01X1011860Y-1306880D01*
G01X0779860Y-1307880D02*
G01X0781860Y-1307880D01*
G01X0834860Y-1307880D02*
G01X0837860Y-1307880D01*
G01X0851860Y-1307880D02*
G01X0853860Y-1307880D01*
G01X0934860Y-1307880D02*
G01X0935860Y-1307880D01*
G01X0953860Y-1307880D02*
G01X0955860Y-1307880D01*
G01X1009860Y-1307880D02*
G01X1011860Y-1307880D01*
G01X0778860Y-1308880D02*
G01X0780860Y-1308880D01*
G01X0833860Y-1308880D02*
G01X0836860Y-1308880D01*
G01X0851860Y-1308880D02*
G01X0853860Y-1308880D01*
G01X0934860Y-1308880D02*
G01X0935860Y-1308880D01*
G01X0954860Y-1308880D02*
G01X0956860Y-1308880D01*
G01X1010860Y-1308880D02*
G01X1012860Y-1308880D01*
G01X0778860Y-1309880D02*
G01X0780860Y-1309880D01*
G01X0833860Y-1309880D02*
G01X0835860Y-1309880D01*
G01X0851860Y-1309880D02*
G01X0853860Y-1309880D01*
G01X0933860Y-1309880D02*
G01X0935860Y-1309880D01*
G01X0954860Y-1309880D02*
G01X0957860Y-1309880D01*
G01X1010860Y-1309880D02*
G01X1012860Y-1309880D01*
G01X0777860Y-1310880D02*
G01X0780860Y-1310880D01*
G01X0832860Y-1310880D02*
G01X0834860Y-1310880D01*
G01X0852860Y-1310880D02*
G01X0854860Y-1310880D01*
G01X0933860Y-1310880D02*
G01X0935860Y-1310880D01*
G01X0955860Y-1310880D02*
G01X0957860Y-1310880D01*
G01X1011860Y-1310880D02*
G01X1013860Y-1310880D01*
G01X0777860Y-1311880D02*
G01X0779860Y-1311880D01*
G01X0831860Y-1311880D02*
G01X0834860Y-1311880D01*
G01X0852860Y-1311880D02*
G01X0854860Y-1311880D01*
G01X0933860Y-1311880D02*
G01X0935860Y-1311880D01*
G01X0956860Y-1311880D02*
G01X0958860Y-1311880D01*
G01X1011860Y-1311880D02*
G01X1013860Y-1311880D01*
G01X0777860Y-1312880D02*
G01X0779860Y-1312880D01*
G01X0830860Y-1312880D02*
G01X0833860Y-1312880D01*
G01X0852860Y-1312880D02*
G01X0854860Y-1312880D01*
G01X0933860Y-1312880D02*
G01X0935860Y-1312880D01*
G01X0957860Y-1312880D02*
G01X0959860Y-1312880D01*
G01X1012860Y-1312880D02*
G01X1014860Y-1312880D01*
G01X0776860Y-1313880D02*
G01X0778860Y-1313880D01*
G01X0830860Y-1313880D02*
G01X0832860Y-1313880D01*
G01X0852860Y-1313880D02*
G01X0854860Y-1313880D01*
G01X0933860Y-1313880D02*
G01X0935860Y-1313880D01*
G01X0957860Y-1313880D02*
G01X0960860Y-1313880D01*
G01X1012860Y-1313880D02*
G01X1014860Y-1313880D01*
G01X0776860Y-1314880D02*
G01X0778860Y-1314880D01*
G01X0829860Y-1314880D02*
G01X0831860Y-1314880D01*
G01X0852860Y-1314880D02*
G01X0854860Y-1314880D01*
G01X0933860Y-1314880D02*
G01X0935860Y-1314880D01*
G01X0958860Y-1314880D02*
G01X0960860Y-1314880D01*
G01X1012860Y-1314880D02*
G01X1014860Y-1314880D01*
G01X0776860Y-1315880D02*
G01X0777860Y-1315880D01*
G01X0829860Y-1315880D02*
G01X0831860Y-1315880D01*
G01X0852860Y-1315880D02*
G01X0854860Y-1315880D01*
G01X0933860Y-1315880D02*
G01X0935860Y-1315880D01*
G01X0959860Y-1315880D02*
G01X0961860Y-1315880D01*
G01X1013860Y-1315880D02*
G01X1015860Y-1315880D01*
G01X0775860Y-1316880D02*
G01X0777860Y-1316880D01*
G01X0828860Y-1316880D02*
G01X0830860Y-1316880D01*
G01X0852860Y-1316880D02*
G01X0854860Y-1316880D01*
G01X0933860Y-1316880D02*
G01X0934860Y-1316880D01*
G01X0959860Y-1316880D02*
G01X0962860Y-1316880D01*
G01X1013860Y-1316880D02*
G01X1015860Y-1316880D01*
G01X0775860Y-1317880D02*
G01X0777860Y-1317880D01*
G01X0827860Y-1317880D02*
G01X0829860Y-1317880D01*
G01X0852860Y-1317880D02*
G01X0854860Y-1317880D01*
G01X0933860Y-1317880D02*
G01X0934860Y-1317880D01*
G01X0960860Y-1317880D02*
G01X0962860Y-1317880D01*
G01X1013860Y-1317880D02*
G01X1015860Y-1317880D01*
G01X0775860Y-1318880D02*
G01X0776860Y-1318880D01*
G01X0827860Y-1318880D02*
G01X0829860Y-1318880D01*
G01X0852860Y-1318880D02*
G01X0854860Y-1318880D01*
G01X0932860Y-1318880D02*
G01X0934860Y-1318880D01*
G01X0961860Y-1318880D02*
G01X0963860Y-1318880D01*
G01X1014860Y-1318880D02*
G01X1016860Y-1318880D01*
G01X0774860Y-1319880D02*
G01X0776860Y-1319880D01*
G01X0826860Y-1319880D02*
G01X0828860Y-1319880D01*
G01X0853860Y-1319880D02*
G01X0855860Y-1319880D01*
G01X0932860Y-1319880D02*
G01X0934860Y-1319880D01*
G01X0961860Y-1319880D02*
G01X0963860Y-1319880D01*
G01X1014860Y-1319880D02*
G01X1016860Y-1319880D01*
G01X0774860Y-1320880D02*
G01X0776860Y-1320880D01*
G01X0826860Y-1320880D02*
G01X0828860Y-1320880D01*
G01X0853860Y-1320880D02*
G01X0855860Y-1320880D01*
G01X0932860Y-1320880D02*
G01X0934860Y-1320880D01*
G01X0962860Y-1320880D02*
G01X0964860Y-1320880D01*
G01X1015860Y-1320880D02*
G01X1016860Y-1320880D01*
G01X0773860Y-1321880D02*
G01X0775860Y-1321880D01*
G01X0825860Y-1321880D02*
G01X0827860Y-1321880D01*
G01X0853860Y-1321880D02*
G01X0855860Y-1321880D01*
G01X0932860Y-1321880D02*
G01X0934860Y-1321880D01*
G01X0962860Y-1321880D02*
G01X0964860Y-1321880D01*
G01X1015860Y-1321880D02*
G01X1017860Y-1321880D01*
G01X0773860Y-1322880D02*
G01X0775860Y-1322880D01*
G01X0825860Y-1322880D02*
G01X0827860Y-1322880D01*
G01X0853860Y-1322880D02*
G01X0855860Y-1322880D01*
G01X0932860Y-1322880D02*
G01X0934860Y-1322880D01*
G01X0963860Y-1322880D02*
G01X0965860Y-1322880D01*
G01X1015860Y-1322880D02*
G01X1017860Y-1322880D01*
G01X0773860Y-1323880D02*
G01X0775860Y-1323880D01*
G01X0824860Y-1323880D02*
G01X0826860Y-1323880D01*
G01X0853860Y-1323880D02*
G01X0855860Y-1323880D01*
G01X0932860Y-1323880D02*
G01X0934860Y-1323880D01*
G01X0963860Y-1323880D02*
G01X0965860Y-1323880D01*
G01X1015860Y-1323880D02*
G01X1017860Y-1323880D01*
G01X0773860Y-1324880D02*
G01X0775860Y-1324880D01*
G01X0824860Y-1324880D02*
G01X0826860Y-1324880D01*
G01X0853860Y-1324880D02*
G01X0855860Y-1324880D01*
G01X0932860Y-1324880D02*
G01X0934860Y-1324880D01*
G01X0964860Y-1324880D02*
G01X0966860Y-1324880D01*
G01X1016860Y-1324880D02*
G01X1017860Y-1324880D01*
G01X0772860Y-1325880D02*
G01X0774860Y-1325880D01*
G01X0823860Y-1325880D02*
G01X0825860Y-1325880D01*
G01X0853860Y-1325880D02*
G01X0855860Y-1325880D01*
G01X0932860Y-1325880D02*
G01X0933860Y-1325880D01*
G01X0964860Y-1325880D02*
G01X0966860Y-1325880D01*
G01X1016860Y-1325880D02*
G01X1018860Y-1325880D01*
G01X0772860Y-1326880D02*
G01X0774860Y-1326880D01*
G01X0823860Y-1326880D02*
G01X0825860Y-1326880D01*
G01X0854860Y-1326880D02*
G01X0855860Y-1326880D01*
G01X0932860Y-1326880D02*
G01X0933860Y-1326880D01*
G01X0964860Y-1326880D02*
G01X0966860Y-1326880D01*
G01X1016860Y-1326880D02*
G01X1018860Y-1326880D01*
G01X0772860Y-1327880D02*
G01X0774860Y-1327880D01*
G01X0822860Y-1327880D02*
G01X0824860Y-1327880D01*
G01X0854860Y-1327880D02*
G01X0856860Y-1327880D01*
G01X0931860Y-1327880D02*
G01X0933860Y-1327880D01*
G01X0965860Y-1327880D02*
G01X0967860Y-1327880D01*
G01X1016860Y-1327880D02*
G01X1018860Y-1327880D01*
G01X0772860Y-1328880D02*
G01X0774860Y-1328880D01*
G01X0822860Y-1328880D02*
G01X0824860Y-1328880D01*
G01X0854860Y-1328880D02*
G01X0856860Y-1328880D01*
G01X0931860Y-1328880D02*
G01X0933860Y-1328880D01*
G01X0965860Y-1328880D02*
G01X0967860Y-1328880D01*
G01X1017860Y-1328880D02*
G01X1018860Y-1328880D01*
G01X0772860Y-1329880D02*
G01X0773860Y-1329880D01*
G01X0822860Y-1329880D02*
G01X0824860Y-1329880D01*
G01X0854860Y-1329880D02*
G01X0856860Y-1329880D01*
G01X0931860Y-1329880D02*
G01X0933860Y-1329880D01*
G01X0966860Y-1329880D02*
G01X0968860Y-1329880D01*
G01X1017860Y-1329880D02*
G01X1019860Y-1329880D01*
G01X0771860Y-1330880D02*
G01X0773860Y-1330880D01*
G01X0821860Y-1330880D02*
G01X0823860Y-1330880D01*
G01X0854860Y-1330880D02*
G01X0856860Y-1330880D01*
G01X0931860Y-1330880D02*
G01X0933860Y-1330880D01*
G01X0966860Y-1330880D02*
G01X0968860Y-1330880D01*
G01X1017860Y-1330880D02*
G01X1019860Y-1330880D01*
G01X0771860Y-1331880D02*
G01X0773860Y-1331880D01*
G01X0821860Y-1331880D02*
G01X0823860Y-1331880D01*
G01X0854860Y-1331880D02*
G01X0856860Y-1331880D01*
G01X0931860Y-1331880D02*
G01X0933860Y-1331880D01*
G01X0966860Y-1331880D02*
G01X0968860Y-1331880D01*
G01X1017860Y-1331880D02*
G01X1019860Y-1331880D01*
G01X0771860Y-1332880D02*
G01X0773860Y-1332880D01*
G01X0821860Y-1332880D02*
G01X0823860Y-1332880D01*
G01X0854860Y-1332880D02*
G01X0856860Y-1332880D01*
G01X0931860Y-1332880D02*
G01X0933860Y-1332880D01*
G01X0967860Y-1332880D02*
G01X0968860Y-1332880D01*
G01X1017860Y-1332880D02*
G01X1019860Y-1332880D01*
G01X0771860Y-1333880D02*
G01X0773860Y-1333880D01*
G01X0821860Y-1333880D02*
G01X0822860Y-1333880D01*
G01X0854860Y-1333880D02*
G01X0856860Y-1333880D01*
G01X0931860Y-1333880D02*
G01X0933860Y-1333880D01*
G01X0967860Y-1333880D02*
G01X0969860Y-1333880D01*
G01X1017860Y-1333880D02*
G01X1019860Y-1333880D01*
G01X0771860Y-1334880D02*
G01X0773860Y-1334880D01*
G01X0820860Y-1334880D02*
G01X0822860Y-1334880D01*
G01X0855860Y-1334880D02*
G01X0856860Y-1334880D01*
G01X0930860Y-1334880D02*
G01X0932860Y-1334880D01*
G01X0967860Y-1334880D02*
G01X0969860Y-1334880D01*
G01X1018860Y-1334880D02*
G01X1020860Y-1334880D01*
G01X0771860Y-1335880D02*
G01X0773860Y-1335880D01*
G01X0820860Y-1335880D02*
G01X0822860Y-1335880D01*
G01X0855860Y-1335880D02*
G01X0856860Y-1335880D01*
G01X0930860Y-1335880D02*
G01X0932860Y-1335880D01*
G01X0967860Y-1335880D02*
G01X0969860Y-1335880D01*
G01X1018860Y-1335880D02*
G01X1020860Y-1335880D01*
G01X0771860Y-1336880D02*
G01X0772860Y-1336880D01*
G01X0820860Y-1336880D02*
G01X0822860Y-1336880D01*
G01X0855860Y-1336880D02*
G01X0857860Y-1336880D01*
G01X0930860Y-1336880D02*
G01X0932860Y-1336880D01*
G01X0968860Y-1336880D02*
G01X0969860Y-1336880D01*
G01X1018860Y-1336880D02*
G01X1020860Y-1336880D01*
G01X0770860Y-1337880D02*
G01X0772860Y-1337880D01*
G01X0820860Y-1337880D02*
G01X0822860Y-1337880D01*
G01X0855860Y-1337880D02*
G01X0857860Y-1337880D01*
G01X0930860Y-1337880D02*
G01X0932860Y-1337880D01*
G01X0968860Y-1337880D02*
G01X0970860Y-1337880D01*
G01X1018860Y-1337880D02*
G01X1020860Y-1337880D01*
G01X0770860Y-1338880D02*
G01X0772860Y-1338880D01*
G01X0820860Y-1338880D02*
G01X0821860Y-1338880D01*
G01X0855860Y-1338880D02*
G01X0857860Y-1338880D01*
G01X0930860Y-1338880D02*
G01X0932860Y-1338880D01*
G01X0968860Y-1338880D02*
G01X0970860Y-1338880D01*
G01X1018860Y-1338880D02*
G01X1020860Y-1338880D01*
G01X0770860Y-1339880D02*
G01X0772860Y-1339880D01*
G01X0819860Y-1339880D02*
G01X0821860Y-1339880D01*
G01X0855860Y-1339880D02*
G01X0857860Y-1339880D01*
G01X0930860Y-1339880D02*
G01X0932860Y-1339880D01*
G01X0968860Y-1339880D02*
G01X0970860Y-1339880D01*
G01X1018860Y-1339880D02*
G01X1020860Y-1339880D01*
G01X0770860Y-1340880D02*
G01X0772860Y-1340880D01*
G01X0819860Y-1340880D02*
G01X0821860Y-1340880D01*
G01X0855860Y-1340880D02*
G01X0857860Y-1340880D01*
G01X0930860Y-1340880D02*
G01X0932860Y-1340880D01*
G01X0968860Y-1340880D02*
G01X0970860Y-1340880D01*
G01X1018860Y-1340880D02*
G01X1020860Y-1340880D01*
G01X0770860Y-1341880D02*
G01X0772860Y-1341880D01*
G01X0819860Y-1341880D02*
G01X0821860Y-1341880D01*
G01X0855860Y-1341880D02*
G01X0857860Y-1341880D01*
G01X0930860Y-1341880D02*
G01X0932860Y-1341880D01*
G01X0969860Y-1341880D02*
G01X0971860Y-1341880D01*
G01X1018860Y-1341880D02*
G01X1020860Y-1341880D01*
G01X0770860Y-1342880D02*
G01X0772860Y-1342880D01*
G01X0819860Y-1342880D02*
G01X0821860Y-1342880D01*
G01X0856860Y-1342880D02*
G01X0857860Y-1342880D01*
G01X0930860Y-1342880D02*
G01X0931860Y-1342880D01*
G01X0969860Y-1342880D02*
G01X0971860Y-1342880D01*
G01X1018860Y-1342880D02*
G01X1020860Y-1342880D01*
G01X0770860Y-1343880D02*
G01X0772860Y-1343880D01*
G01X0819860Y-1343880D02*
G01X0821860Y-1343880D01*
G01X0856860Y-1343880D02*
G01X0857860Y-1343880D01*
G01X0929860Y-1343880D02*
G01X0931860Y-1343880D01*
G01X0969860Y-1343880D02*
G01X0971860Y-1343880D01*
G01X1018860Y-1343880D02*
G01X1020860Y-1343880D01*
G01X0770860Y-1344880D02*
G01X0772860Y-1344880D01*
G01X0819860Y-1344880D02*
G01X0821860Y-1344880D01*
G01X0856860Y-1344880D02*
G01X0858860Y-1344880D01*
G01X0929860Y-1344880D02*
G01X0931860Y-1344880D01*
G01X0969860Y-1344880D02*
G01X0971860Y-1344880D01*
G01X1018860Y-1344880D02*
G01X1020860Y-1344880D01*
G01X0770860Y-1345880D02*
G01X0772860Y-1345880D01*
G01X0819860Y-1345880D02*
G01X0821860Y-1345880D01*
G01X0856860Y-1345880D02*
G01X0858860Y-1345880D01*
G01X0929860Y-1345880D02*
G01X0931860Y-1345880D01*
G01X0969860Y-1345880D02*
G01X0971860Y-1345880D01*
G01X1019860Y-1345880D02*
G01X1020860Y-1345880D01*
G01X0770860Y-1346880D02*
G01X0772860Y-1346880D01*
G01X0819860Y-1346880D02*
G01X0820860Y-1346880D01*
G01X0856860Y-1346880D02*
G01X0858860Y-1346880D01*
G01X0929860Y-1346880D02*
G01X0931860Y-1346880D01*
G01X0969860Y-1346880D02*
G01X0971860Y-1346880D01*
G01X1019860Y-1346880D02*
G01X1020860Y-1346880D01*
G01X0770860Y-1347880D02*
G01X0772860Y-1347880D01*
G01X0819860Y-1347880D02*
G01X0820860Y-1347880D01*
G01X0856860Y-1347880D02*
G01X0858860Y-1347880D01*
G01X0929860Y-1347880D02*
G01X0931860Y-1347880D01*
G01X0969860Y-1347880D02*
G01X0971860Y-1347880D01*
G01X1019860Y-1347880D02*
G01X1020860Y-1347880D01*
G01X0770860Y-1348880D02*
G01X0772860Y-1348880D01*
G01X0819860Y-1348880D02*
G01X0820860Y-1348880D01*
G01X0856860Y-1348880D02*
G01X0858860Y-1348880D01*
G01X0929860Y-1348880D02*
G01X0931860Y-1348880D01*
G01X0969860Y-1348880D02*
G01X0971860Y-1348880D01*
G01X1019860Y-1348880D02*
G01X1021860Y-1348880D01*
G01X0770860Y-1349880D02*
G01X0772860Y-1349880D01*
G01X0819860Y-1349880D02*
G01X0820860Y-1349880D01*
G01X0856860Y-1349880D02*
G01X0858860Y-1349880D01*
G01X0929860Y-1349880D02*
G01X0931860Y-1349880D01*
G01X0970860Y-1349880D02*
G01X0971860Y-1349880D01*
G01X1019860Y-1349880D02*
G01X1021860Y-1349880D01*
G01X0770860Y-1350880D02*
G01X0772860Y-1350880D01*
G01X0819860Y-1350880D02*
G01X0821860Y-1350880D01*
G01X0857860Y-1350880D02*
G01X0859860Y-1350880D01*
G01X0929860Y-1350880D02*
G01X0930860Y-1350880D01*
G01X0970860Y-1350880D02*
G01X0971860Y-1350880D01*
G01X1019860Y-1350880D02*
G01X1021860Y-1350880D01*
G01X0770860Y-1351880D02*
G01X0772860Y-1351880D01*
G01X0819860Y-1351880D02*
G01X0821860Y-1351880D01*
G01X0857860Y-1351880D02*
G01X0859860Y-1351880D01*
G01X0929860Y-1351880D02*
G01X0930860Y-1351880D01*
G01X0970860Y-1351880D02*
G01X0972860Y-1351880D01*
G01X1019860Y-1351880D02*
G01X1020860Y-1351880D01*
G01X0770860Y-1352880D02*
G01X0772860Y-1352880D01*
G01X0819860Y-1352880D02*
G01X0821860Y-1352880D01*
G01X0857860Y-1352880D02*
G01X0859860Y-1352880D01*
G01X0928860Y-1352880D02*
G01X0930860Y-1352880D01*
G01X0970860Y-1352880D02*
G01X0972860Y-1352880D01*
G01X1019860Y-1352880D02*
G01X1020860Y-1352880D01*
G01X0770860Y-1353880D02*
G01X0772860Y-1353880D01*
G01X0819860Y-1353880D02*
G01X0821860Y-1353880D01*
G01X0857860Y-1353880D02*
G01X0859860Y-1353880D01*
G01X0928860Y-1353880D02*
G01X0930860Y-1353880D01*
G01X0970860Y-1353880D02*
G01X0972860Y-1353880D01*
G01X1019860Y-1353880D02*
G01X1020860Y-1353880D01*
G01X0770860Y-1354880D02*
G01X0772860Y-1354880D01*
G01X0819860Y-1354880D02*
G01X0821860Y-1354880D01*
G01X0857860Y-1354880D02*
G01X0859860Y-1354880D01*
G01X0928860Y-1354880D02*
G01X0930860Y-1354880D01*
G01X0970860Y-1354880D02*
G01X0972860Y-1354880D01*
G01X1018860Y-1354880D02*
G01X1020860Y-1354880D01*
G01X0770860Y-1355880D02*
G01X0772860Y-1355880D01*
G01X0819860Y-1355880D02*
G01X0821860Y-1355880D01*
G01X0857860Y-1355880D02*
G01X0859860Y-1355880D01*
G01X0928860Y-1355880D02*
G01X0930860Y-1355880D01*
G01X0970860Y-1355880D02*
G01X0972860Y-1355880D01*
G01X1018860Y-1355880D02*
G01X1020860Y-1355880D01*
G01X0770860Y-1356880D02*
G01X0772860Y-1356880D01*
G01X0819860Y-1356880D02*
G01X0821860Y-1356880D01*
G01X0857860Y-1356880D02*
G01X0859860Y-1356880D01*
G01X0928860Y-1356880D02*
G01X0930860Y-1356880D01*
G01X0970860Y-1356880D02*
G01X0972860Y-1356880D01*
G01X1018860Y-1356880D02*
G01X1020860Y-1356880D01*
G01X0770860Y-1357880D02*
G01X0772860Y-1357880D01*
G01X0819860Y-1357880D02*
G01X0821860Y-1357880D01*
G01X0857860Y-1357880D02*
G01X0859860Y-1357880D01*
G01X0928860Y-1357880D02*
G01X0930860Y-1357880D01*
G01X0970860Y-1357880D02*
G01X0972860Y-1357880D01*
G01X1018860Y-1357880D02*
G01X1020860Y-1357880D01*
G01X0770860Y-1358880D02*
G01X0772860Y-1358880D01*
G01X0819860Y-1358880D02*
G01X0821860Y-1358880D01*
G01X0858860Y-1358880D02*
G01X0860860Y-1358880D01*
G01X0928860Y-1358880D02*
G01X0930860Y-1358880D01*
G01X0970860Y-1358880D02*
G01X0972860Y-1358880D01*
G01X1018860Y-1358880D02*
G01X1020860Y-1358880D01*
G01X0770860Y-1359880D02*
G01X0772860Y-1359880D01*
G01X0819860Y-1359880D02*
G01X0821860Y-1359880D01*
G01X0858860Y-1359880D02*
G01X0860860Y-1359880D01*
G01X0928860Y-1359880D02*
G01X0929860Y-1359880D01*
G01X0970860Y-1359880D02*
G01X0971860Y-1359880D01*
G01X1018860Y-1359880D02*
G01X1020860Y-1359880D01*
G01X0770860Y-1360880D02*
G01X0772860Y-1360880D01*
G01X0819860Y-1360880D02*
G01X0821860Y-1360880D01*
G01X0858860Y-1360880D02*
G01X0860860Y-1360880D01*
G01X0927860Y-1360880D02*
G01X0929860Y-1360880D01*
G01X0969860Y-1360880D02*
G01X0971860Y-1360880D01*
G01X1018860Y-1360880D02*
G01X1020860Y-1360880D01*
G01X0771860Y-1361880D02*
G01X0772860Y-1361880D01*
G01X0820860Y-1361880D02*
G01X0821860Y-1361880D01*
G01X0858860Y-1361880D02*
G01X0860860Y-1361880D01*
G01X0927860Y-1361880D02*
G01X0929860Y-1361880D01*
G01X0969860Y-1361880D02*
G01X0971860Y-1361880D01*
G01X1018860Y-1361880D02*
G01X1020860Y-1361880D01*
G01X0771860Y-1362880D02*
G01X0773860Y-1362880D01*
G01X0820860Y-1362880D02*
G01X0822860Y-1362880D01*
G01X0858860Y-1362880D02*
G01X0860860Y-1362880D01*
G01X0927860Y-1362880D02*
G01X0929860Y-1362880D01*
G01X0969860Y-1362880D02*
G01X0971860Y-1362880D01*
G01X1018860Y-1362880D02*
G01X1020860Y-1362880D01*
G01X0771860Y-1363880D02*
G01X0773860Y-1363880D01*
G01X0820860Y-1363880D02*
G01X0822860Y-1363880D01*
G01X0858860Y-1363880D02*
G01X0860860Y-1363880D01*
G01X0927860Y-1363880D02*
G01X0929860Y-1363880D01*
G01X0969860Y-1363880D02*
G01X0971860Y-1363880D01*
G01X1018860Y-1363880D02*
G01X1020860Y-1363880D01*
G01X0771860Y-1364880D02*
G01X0773860Y-1364880D01*
G01X0820860Y-1364880D02*
G01X0822860Y-1364880D01*
G01X0859860Y-1364880D02*
G01X0860860Y-1364880D01*
G01X0927860Y-1364880D02*
G01X0929860Y-1364880D01*
G01X0969860Y-1364880D02*
G01X0971860Y-1364880D01*
G01X1018860Y-1364880D02*
G01X1019860Y-1364880D01*
G01X0771860Y-1365880D02*
G01X0773860Y-1365880D01*
G01X0820860Y-1365880D02*
G01X0822860Y-1365880D01*
G01X0859860Y-1365880D02*
G01X0861860Y-1365880D01*
G01X0927860Y-1365880D02*
G01X0929860Y-1365880D01*
G01X0969860Y-1365880D02*
G01X0971860Y-1365880D01*
G01X1017860Y-1365880D02*
G01X1019860Y-1365880D01*
G01X0771860Y-1366880D02*
G01X0773860Y-1366880D01*
G01X0820860Y-1366880D02*
G01X0822860Y-1366880D01*
G01X0859860Y-1366880D02*
G01X0861860Y-1366880D01*
G01X0927860Y-1366880D02*
G01X0929860Y-1366880D01*
G01X0969860Y-1366880D02*
G01X0971860Y-1366880D01*
G01X1017860Y-1366880D02*
G01X1019860Y-1366880D01*
G01X0771860Y-1367880D02*
G01X0773860Y-1367880D01*
G01X0821860Y-1367880D02*
G01X0823860Y-1367880D01*
G01X0859860Y-1367880D02*
G01X0861860Y-1367880D01*
G01X0927860Y-1367880D02*
G01X0928860Y-1367880D01*
G01X0968860Y-1367880D02*
G01X0970860Y-1367880D01*
G01X1017860Y-1367880D02*
G01X1019860Y-1367880D01*
G01X0772860Y-1368880D02*
G01X0773860Y-1368880D01*
G01X0821860Y-1368880D02*
G01X0823860Y-1368880D01*
G01X0859860Y-1368880D02*
G01X0861860Y-1368880D01*
G01X0927860Y-1368880D02*
G01X0928860Y-1368880D01*
G01X0968860Y-1368880D02*
G01X0970860Y-1368880D01*
G01X1017860Y-1368880D02*
G01X1019860Y-1368880D01*
G01X0772860Y-1369880D02*
G01X0774860Y-1369880D01*
G01X0821860Y-1369880D02*
G01X0823860Y-1369880D01*
G01X0859860Y-1369880D02*
G01X0861860Y-1369880D01*
G01X0926860Y-1369880D02*
G01X0928860Y-1369880D01*
G01X0968860Y-1369880D02*
G01X0970860Y-1369880D01*
G01X1017860Y-1369880D02*
G01X1019860Y-1369880D01*
G01X0772860Y-1370880D02*
G01X0774860Y-1370880D01*
G01X0821860Y-1370880D02*
G01X0823860Y-1370880D01*
G01X0859860Y-1370880D02*
G01X0861860Y-1370880D01*
G01X0926860Y-1370880D02*
G01X0928860Y-1370880D01*
G01X0968860Y-1370880D02*
G01X0970860Y-1370880D01*
G01X1017860Y-1370880D02*
G01X1018860Y-1370880D01*
G01X0772860Y-1371880D02*
G01X0774860Y-1371880D01*
G01X0822860Y-1371880D02*
G01X0824860Y-1371880D01*
G01X0859860Y-1371880D02*
G01X0861860Y-1371880D01*
G01X0926860Y-1371880D02*
G01X0928860Y-1371880D01*
G01X0967860Y-1371880D02*
G01X0969860Y-1371880D01*
G01X1016860Y-1371880D02*
G01X1018860Y-1371880D01*
G01X0772860Y-1372880D02*
G01X0774860Y-1372880D01*
G01X0822860Y-1372880D02*
G01X0824860Y-1372880D01*
G01X0860860Y-1372880D02*
G01X0861860Y-1372880D01*
G01X0926860Y-1372880D02*
G01X0928860Y-1372880D01*
G01X0967860Y-1372880D02*
G01X0969860Y-1372880D01*
G01X1016860Y-1372880D02*
G01X1018860Y-1372880D01*
G01X0773860Y-1373880D02*
G01X0775860Y-1373880D01*
G01X0822860Y-1373880D02*
G01X0824860Y-1373880D01*
G01X0860860Y-1373880D02*
G01X0862860Y-1373880D01*
G01X0926860Y-1373880D02*
G01X0928860Y-1373880D01*
G01X0967860Y-1373880D02*
G01X0969860Y-1373880D01*
G01X1016860Y-1373880D02*
G01X1018860Y-1373880D01*
G01X0773860Y-1374880D02*
G01X0775860Y-1374880D01*
G01X0823860Y-1374880D02*
G01X0825860Y-1374880D01*
G01X0860860Y-1374880D02*
G01X0862860Y-1374880D01*
G01X0926860Y-1374880D02*
G01X0928860Y-1374880D01*
G01X0966860Y-1374880D02*
G01X0968860Y-1374880D01*
G01X1016860Y-1374880D02*
G01X1018860Y-1374880D01*
G01X0773860Y-1375880D02*
G01X0775860Y-1375880D01*
G01X0823860Y-1375880D02*
G01X0825860Y-1375880D01*
G01X0860860Y-1375880D02*
G01X0862860Y-1375880D01*
G01X0926860Y-1375880D02*
G01X0928860Y-1375880D01*
G01X0966860Y-1375880D02*
G01X0968860Y-1375880D01*
G01X1015860Y-1375880D02*
G01X1017860Y-1375880D01*
G01X0773860Y-1376880D02*
G01X0775860Y-1376880D01*
G01X0823860Y-1376880D02*
G01X0825860Y-1376880D01*
G01X0860860Y-1376880D02*
G01X0862860Y-1376880D01*
G01X0926860Y-1376880D02*
G01X0927860Y-1376880D01*
G01X0966860Y-1376880D02*
G01X0968860Y-1376880D01*
G01X1015860Y-1376880D02*
G01X1017860Y-1376880D01*
G01X0774860Y-1377880D02*
G01X0776860Y-1377880D01*
G01X0824860Y-1377880D02*
G01X0826860Y-1377880D01*
G01X0860860Y-1377880D02*
G01X0862860Y-1377880D01*
G01X0925860Y-1377880D02*
G01X0927860Y-1377880D01*
G01X0965860Y-1377880D02*
G01X0967860Y-1377880D01*
G01X1015860Y-1377880D02*
G01X1017860Y-1377880D01*
G01X0774860Y-1378880D02*
G01X0776860Y-1378880D01*
G01X0824860Y-1378880D02*
G01X0826860Y-1378880D01*
G01X0860860Y-1378880D02*
G01X0862860Y-1378880D01*
G01X0925860Y-1378880D02*
G01X0927860Y-1378880D01*
G01X0965860Y-1378880D02*
G01X0967860Y-1378880D01*
G01X1015860Y-1378880D02*
G01X1017860Y-1378880D01*
G01X0774860Y-1379880D02*
G01X0776860Y-1379880D01*
G01X0825860Y-1379880D02*
G01X0827860Y-1379880D01*
G01X0860860Y-1379880D02*
G01X0862860Y-1379880D01*
G01X0925860Y-1379880D02*
G01X0927860Y-1379880D01*
G01X0964860Y-1379880D02*
G01X0966860Y-1379880D01*
G01X1014860Y-1379880D02*
G01X1016860Y-1379880D01*
G01X0775860Y-1380880D02*
G01X0777860Y-1380880D01*
G01X0825860Y-1380880D02*
G01X0827860Y-1380880D01*
G01X0861860Y-1380880D02*
G01X0863860Y-1380880D01*
G01X0925860Y-1380880D02*
G01X0927860Y-1380880D01*
G01X0964860Y-1380880D02*
G01X0966860Y-1380880D01*
G01X1014860Y-1380880D02*
G01X1016860Y-1380880D01*
G01X0775860Y-1381880D02*
G01X0777860Y-1381880D01*
G01X0826860Y-1381880D02*
G01X0828860Y-1381880D01*
G01X0861860Y-1381880D02*
G01X0863860Y-1381880D01*
G01X0925860Y-1381880D02*
G01X0927860Y-1381880D01*
G01X0963860Y-1381880D02*
G01X0965860Y-1381880D01*
G01X1014860Y-1381880D02*
G01X1016860Y-1381880D01*
G01X0775860Y-1382880D02*
G01X0777860Y-1382880D01*
G01X0826860Y-1382880D02*
G01X0828860Y-1382880D01*
G01X0861860Y-1382880D02*
G01X0863860Y-1382880D01*
G01X0925860Y-1382880D02*
G01X0927860Y-1382880D01*
G01X0962860Y-1382880D02*
G01X0965860Y-1382880D01*
G01X1013860Y-1382880D02*
G01X1015860Y-1382880D01*
G01X0776860Y-1383880D02*
G01X0778860Y-1383880D01*
G01X0827860Y-1383880D02*
G01X0829860Y-1383880D01*
G01X0861860Y-1383880D02*
G01X0863860Y-1383880D01*
G01X0925860Y-1383880D02*
G01X0927860Y-1383880D01*
G01X0962860Y-1383880D02*
G01X0964860Y-1383880D01*
G01X1013860Y-1383880D02*
G01X1015860Y-1383880D01*
G01X0776860Y-1384880D02*
G01X0778860Y-1384880D01*
G01X0827860Y-1384880D02*
G01X0829860Y-1384880D01*
G01X0861860Y-1384880D02*
G01X0863860Y-1384880D01*
G01X0925860Y-1384880D02*
G01X0927860Y-1384880D01*
G01X0961860Y-1384880D02*
G01X0963860Y-1384880D01*
G01X1013860Y-1384880D02*
G01X1015860Y-1384880D01*
G01X0776860Y-1385880D02*
G01X0778860Y-1385880D01*
G01X0828860Y-1385880D02*
G01X0830860Y-1385880D01*
G01X0861860Y-1385880D02*
G01X0863860Y-1385880D01*
G01X0925860Y-1385880D02*
G01X0926860Y-1385880D01*
G01X0961860Y-1385880D02*
G01X0963860Y-1385880D01*
G01X1012860Y-1385880D02*
G01X1014860Y-1385880D01*
G01X0777860Y-1386880D02*
G01X0779860Y-1386880D01*
G01X0828860Y-1386880D02*
G01X0830860Y-1386880D01*
G01X0861860Y-1386880D02*
G01X0863860Y-1386880D01*
G01X0924860Y-1386880D02*
G01X0926860Y-1386880D01*
G01X0960860Y-1386880D02*
G01X0962860Y-1386880D01*
G01X1012860Y-1386880D02*
G01X1014860Y-1386880D01*
G01X0777860Y-1387880D02*
G01X0779860Y-1387880D01*
G01X0829860Y-1387880D02*
G01X0831860Y-1387880D01*
G01X0862860Y-1387880D02*
G01X0863860Y-1387880D01*
G01X0924860Y-1387880D02*
G01X0926860Y-1387880D01*
G01X0959860Y-1387880D02*
G01X0961860Y-1387880D01*
G01X1011860Y-1387880D02*
G01X1013860Y-1387880D01*
G01X0778860Y-1388880D02*
G01X0780860Y-1388880D01*
G01X0830860Y-1388880D02*
G01X0832860Y-1388880D01*
G01X0862860Y-1388880D02*
G01X0864860Y-1388880D01*
G01X0924860Y-1388880D02*
G01X0926860Y-1388880D01*
G01X0958860Y-1388880D02*
G01X0961860Y-1388880D01*
G01X1011860Y-1388880D02*
G01X1013860Y-1388880D01*
G01X0778860Y-1389880D02*
G01X0780860Y-1389880D01*
G01X0830860Y-1389880D02*
G01X0832860Y-1389880D01*
G01X0862860Y-1389880D02*
G01X0864860Y-1389880D01*
G01X0924860Y-1389880D02*
G01X0926860Y-1389880D01*
G01X0958860Y-1389880D02*
G01X0960860Y-1389880D01*
G01X1011860Y-1389880D02*
G01X1013860Y-1389880D01*
G01X0779860Y-1390880D02*
G01X0781860Y-1390880D01*
G01X0831860Y-1390880D02*
G01X0833860Y-1390880D01*
G01X0862860Y-1390880D02*
G01X0864860Y-1390880D01*
G01X0924860Y-1390880D02*
G01X0926860Y-1390880D01*
G01X0957860Y-1390880D02*
G01X0959860Y-1390880D01*
G01X1010860Y-1390880D02*
G01X1012860Y-1390880D01*
G01X0779860Y-1391880D02*
G01X0781860Y-1391880D01*
G01X0832860Y-1391880D02*
G01X0834860Y-1391880D01*
G01X0862860Y-1391880D02*
G01X0864860Y-1391880D01*
G01X0924860Y-1391880D02*
G01X0926860Y-1391880D01*
G01X0956860Y-1391880D02*
G01X0958860Y-1391880D01*
G01X1010860Y-1391880D02*
G01X1012860Y-1391880D01*
G01X0780860Y-1392880D02*
G01X0782860Y-1392880D01*
G01X0832860Y-1392880D02*
G01X0835860Y-1392880D01*
G01X0862860Y-1392880D02*
G01X0864860Y-1392880D01*
G01X0924860Y-1392880D02*
G01X0926860Y-1392880D01*
G01X0955860Y-1392880D02*
G01X0957860Y-1392880D01*
G01X1009860Y-1392880D02*
G01X1011860Y-1392880D01*
G01X0780860Y-1393880D02*
G01X0782860Y-1393880D01*
G01X0833860Y-1393880D02*
G01X0836860Y-1393880D01*
G01X0862860Y-1393880D02*
G01X0864860Y-1393880D01*
G01X0924860Y-1393880D02*
G01X0925860Y-1393880D01*
G01X0954860Y-1393880D02*
G01X0957860Y-1393880D01*
G01X1009860Y-1393880D02*
G01X1011860Y-1393880D01*
G01X0781860Y-1394880D02*
G01X0783860Y-1394880D01*
G01X0834860Y-1394880D02*
G01X0836860Y-1394880D01*
G01X0863860Y-1394880D02*
G01X0864860Y-1394880D01*
G01X0923860Y-1394880D02*
G01X0925860Y-1394880D01*
G01X0953860Y-1394880D02*
G01X0956860Y-1394880D01*
G01X1008860Y-1394880D02*
G01X1010860Y-1394880D01*
G01X0781860Y-1395880D02*
G01X0783860Y-1395880D01*
G01X0835860Y-1395880D02*
G01X0837860Y-1395880D01*
G01X0863860Y-1395880D02*
G01X0864860Y-1395880D01*
G01X0923860Y-1395880D02*
G01X0925860Y-1395880D01*
G01X0952860Y-1395880D02*
G01X0955860Y-1395880D01*
G01X1008860Y-1395880D02*
G01X1010860Y-1395880D01*
G01X0782860Y-1396880D02*
G01X0784860Y-1396880D01*
G01X0836860Y-1396880D02*
G01X0838860Y-1396880D01*
G01X0863860Y-1396880D02*
G01X0865860Y-1396880D01*
G01X0923860Y-1396880D02*
G01X0925860Y-1396880D01*
G01X0951860Y-1396880D02*
G01X0954860Y-1396880D01*
G01X1007860Y-1396880D02*
G01X1009860Y-1396880D01*
G01X0782860Y-1397880D02*
G01X0784860Y-1397880D01*
G01X0837860Y-1397880D02*
G01X0839860Y-1397880D01*
G01X0863860Y-1397880D02*
G01X0865860Y-1397880D01*
G01X0923860Y-1397880D02*
G01X0925860Y-1397880D01*
G01X0950860Y-1397880D02*
G01X0953860Y-1397880D01*
G01X1007860Y-1397880D02*
G01X1009860Y-1397880D01*
G01X0783860Y-1398880D02*
G01X0785860Y-1398880D01*
G01X0838860Y-1398880D02*
G01X0841860Y-1398880D01*
G01X0863860Y-1398880D02*
G01X0865860Y-1398880D01*
G01X0923860Y-1398880D02*
G01X0925860Y-1398880D01*
G01X0949860Y-1398880D02*
G01X0951860Y-1398880D01*
G01X1006860Y-1398880D02*
G01X1008860Y-1398880D01*
G01X0783860Y-1399880D02*
G01X0785860Y-1399880D01*
G01X0839860Y-1399880D02*
G01X0842860Y-1399880D01*
G01X0863860Y-1399880D02*
G01X0865860Y-1399880D01*
G01X0923860Y-1399880D02*
G01X0925860Y-1399880D01*
G01X0948860Y-1399880D02*
G01X0950860Y-1399880D01*
G01X1006860Y-1399880D02*
G01X1008860Y-1399880D01*
G01X0784860Y-1400880D02*
G01X0786860Y-1400880D01*
G01X0840860Y-1400880D02*
G01X0843860Y-1400880D01*
G01X0863860Y-1400880D02*
G01X0865860Y-1400880D01*
G01X0923860Y-1400880D02*
G01X0925860Y-1400880D01*
G01X0946860Y-1400880D02*
G01X0949860Y-1400880D01*
G01X1005860Y-1400880D02*
G01X1007860Y-1400880D01*
G01X0785860Y-1401880D02*
G01X0787860Y-1401880D01*
G01X0841860Y-1401880D02*
G01X0844860Y-1401880D01*
G01X0863860Y-1401880D02*
G01X0865860Y-1401880D01*
G01X0923860Y-1401880D02*
G01X0924860Y-1401880D01*
G01X0944860Y-1401880D02*
G01X0948860Y-1401880D01*
G01X1004860Y-1401880D02*
G01X1007860Y-1401880D01*
G01X0785860Y-1402880D02*
G01X0787860Y-1402880D01*
G01X0842860Y-1402880D02*
G01X0845860Y-1402880D01*
G01X0864860Y-1402880D02*
G01X0865860Y-1402880D01*
G01X0923860Y-1402880D02*
G01X0924860Y-1402880D01*
G01X0943860Y-1402880D02*
G01X0946860Y-1402880D01*
G01X1004860Y-1402880D02*
G01X1006860Y-1402880D01*
G01X0786860Y-1403880D02*
G01X0788860Y-1403880D01*
G01X0844860Y-1403880D02*
G01X0847860Y-1403880D01*
G01X0864860Y-1403880D02*
G01X0865860Y-1403880D01*
G01X0922860Y-1403880D02*
G01X0924860Y-1403880D01*
G01X0941860Y-1403880D02*
G01X0945860Y-1403880D01*
G01X1003860Y-1403880D02*
G01X1005860Y-1403880D01*
G01X0786860Y-1404880D02*
G01X0789860Y-1404880D01*
G01X0845860Y-1404880D02*
G01X0848860Y-1404880D01*
G01X0864860Y-1404880D02*
G01X0866860Y-1404880D01*
G01X0922860Y-1404880D02*
G01X0924860Y-1404880D01*
G01X0939860Y-1404880D02*
G01X0943860Y-1404880D01*
G01X1003860Y-1404880D02*
G01X1005860Y-1404880D01*
G01X0787860Y-1405880D02*
G01X0789860Y-1405880D01*
G01X0846860Y-1405880D02*
G01X0850860Y-1405880D01*
G01X0864860Y-1405880D02*
G01X0866860Y-1405880D01*
G01X0922860Y-1405880D02*
G01X0924860Y-1405880D01*
G01X0937860Y-1405880D02*
G01X0941860Y-1405880D01*
G01X1002860Y-1405880D02*
G01X1004860Y-1405880D01*
G01X0788860Y-1406880D02*
G01X0790860Y-1406880D01*
G01X0848860Y-1406880D02*
G01X0852860Y-1406880D01*
G01X0864860Y-1406880D02*
G01X0866860Y-1406880D01*
G01X0922860Y-1406880D02*
G01X0924860Y-1406880D01*
G01X0935860Y-1406880D02*
G01X0939860Y-1406880D01*
G01X1001860Y-1406880D02*
G01X1003860Y-1406880D01*
G01X0789860Y-1407880D02*
G01X0791860Y-1407880D01*
G01X0850860Y-1407880D02*
G01X0854860Y-1407880D01*
G01X0864860Y-1407880D02*
G01X0866860Y-1407880D01*
G01X0922860Y-1407880D02*
G01X0924860Y-1407880D01*
G01X0933860Y-1407880D02*
G01X0937860Y-1407880D01*
G01X1000860Y-1407880D02*
G01X1003860Y-1407880D01*
G01X0789860Y-1408880D02*
G01X0792860Y-1408880D01*
G01X0851860Y-1408880D02*
G01X0855860Y-1408880D01*
G01X0864860Y-1408880D02*
G01X0866860Y-1408880D01*
G01X0922860Y-1408880D02*
G01X0924860Y-1408880D01*
G01X0931860Y-1408880D02*
G01X0936860Y-1408880D01*
G01X1000860Y-1408880D02*
G01X1002860Y-1408880D01*
G01X0790860Y-1409880D02*
G01X0792860Y-1409880D01*
G01X0853860Y-1409880D02*
G01X0858860Y-1409880D01*
G01X0864860Y-1409880D02*
G01X0866860Y-1409880D01*
G01X0922860Y-1409880D02*
G01X0924860Y-1409880D01*
G01X0929860Y-1409880D02*
G01X0933860Y-1409880D01*
G01X0999860Y-1409880D02*
G01X1001860Y-1409880D01*
G01X0791860Y-1410880D02*
G01X0793860Y-1410880D01*
G01X0855860Y-1410880D02*
G01X0860860Y-1410880D01*
G01X0865860Y-1410880D02*
G01X0866860Y-1410880D01*
G01X0922860Y-1410880D02*
G01X0923860Y-1410880D01*
G01X0927860Y-1410880D02*
G01X0931860Y-1410880D01*
G01X0998860Y-1410880D02*
G01X1001860Y-1410880D01*
G01X0792860Y-1411880D02*
G01X0794860Y-1411880D01*
G01X0858860Y-1411880D02*
G01X0863860Y-1411880D01*
G01X0865860Y-1411880D02*
G01X0867860Y-1411880D01*
G01X0922860Y-1411880D02*
G01X0923860Y-1411880D01*
G01X0924860Y-1411880D02*
G01X0929860Y-1411880D01*
G01X0997860Y-1411880D02*
G01X1000860Y-1411880D01*
G01X0792860Y-1412880D02*
G01X0795860Y-1412880D01*
G01X0860860Y-1412880D02*
G01X0867860Y-1412880D01*
G01X0921860Y-1412880D02*
G01X0927860Y-1412880D01*
G01X0997860Y-1412880D02*
G01X0999860Y-1412880D01*
G01X0793860Y-1413880D02*
G01X0796860Y-1413880D01*
G01X0863860Y-1413880D02*
G01X0867860Y-1413880D01*
G01X0921860Y-1413880D02*
G01X0924860Y-1413880D01*
G01X0996860Y-1413880D02*
G01X0998860Y-1413880D01*
G01X0794860Y-1414880D02*
G01X0797860Y-1414880D01*
G01X0866860Y-1414880D02*
G01X0867860Y-1414880D01*
G01X0921860Y-1414880D02*
G01X0922860Y-1414880D01*
G01X0995860Y-1414880D02*
G01X0997860Y-1414880D01*
G01X0795860Y-1415880D02*
G01X0798860Y-1415880D01*
G01X0994860Y-1415880D02*
G01X0997860Y-1415880D01*
G01X0796860Y-1416880D02*
G01X0798860Y-1416880D01*
G01X0993860Y-1416880D02*
G01X0996860Y-1416880D01*
G01X0797860Y-1417880D02*
G01X0800860Y-1417880D01*
G01X0992860Y-1417880D02*
G01X0995860Y-1417880D01*
G01X0798860Y-1418880D02*
G01X0800860Y-1418880D01*
G01X0991860Y-1418880D02*
G01X0994860Y-1418880D01*
G01X0799860Y-1419880D02*
G01X0801860Y-1419880D01*
G01X0991860Y-1419880D02*
G01X0993860Y-1419880D01*
G01X0800860Y-1420880D02*
G01X0802860Y-1420880D01*
G01X0989860Y-1420880D02*
G01X0992860Y-1420880D01*
G01X0800860Y-1421880D02*
G01X0803860Y-1421880D01*
G01X0988860Y-1421880D02*
G01X0991860Y-1421880D01*
G01X0799860Y-1422880D02*
G01X0802860Y-1422880D01*
G01X0988860Y-1422880D02*
G01X0990860Y-1422880D01*
G01X0798860Y-1423880D02*
G01X0801860Y-1423880D01*
G01X0987860Y-1423880D02*
G01X0989860Y-1423880D01*
G01X0796860Y-1424880D02*
G01X0800860Y-1424880D01*
G01X0985860Y-1424880D02*
G01X0988860Y-1424880D01*
G01X0795860Y-1425880D02*
G01X0798860Y-1425880D01*
G01X0984860Y-1425880D02*
G01X0987860Y-1425880D01*
G01X0794860Y-1426880D02*
G01X0797860Y-1426880D01*
G01X0983860Y-1426880D02*
G01X0986860Y-1426880D01*
G01X0793860Y-1427880D02*
G01X0796860Y-1427880D01*
G01X0982860Y-1427880D02*
G01X0985860Y-1427880D01*
G01X0792860Y-1428880D02*
G01X0794860Y-1428880D01*
G01X0981860Y-1428880D02*
G01X0984860Y-1428880D01*
G01X0790860Y-1429880D02*
G01X0793860Y-1429880D01*
G01X0980860Y-1429880D02*
G01X0982860Y-1429880D01*
G01X0789860Y-1430880D02*
G01X0792860Y-1430880D01*
G01X0978860Y-1430880D02*
G01X0981860Y-1430880D01*
G01X0788860Y-1431880D02*
G01X0791860Y-1431880D01*
G01X0977860Y-1431880D02*
G01X0980860Y-1431880D01*
G01X0787860Y-1432880D02*
G01X0790860Y-1432880D01*
G01X0976860Y-1432880D02*
G01X0979860Y-1432880D01*
G01X0786860Y-1433880D02*
G01X0789860Y-1433880D01*
G01X0974860Y-1433880D02*
G01X0977860Y-1433880D01*
G01X0785860Y-1434880D02*
G01X0788860Y-1434880D01*
G01X0973860Y-1434880D02*
G01X0976860Y-1434880D01*
G01X0784860Y-1435880D02*
G01X0787860Y-1435880D01*
G01X0971860Y-1435880D02*
G01X0974860Y-1435880D01*
G01X0783860Y-1436880D02*
G01X0786860Y-1436880D01*
G01X0970860Y-1436880D02*
G01X0973860Y-1436880D01*
G01X0782860Y-1437880D02*
G01X0785860Y-1437880D01*
G01X0968860Y-1437880D02*
G01X0972860Y-1437880D01*
G01X0782860Y-1438880D02*
G01X0784860Y-1438880D01*
G01X0966860Y-1438880D02*
G01X0970860Y-1438880D01*
G01X0781860Y-1439880D02*
G01X0783860Y-1439880D01*
G01X0965860Y-1439880D02*
G01X0968860Y-1439880D01*
G01X0780860Y-1440880D02*
G01X0782860Y-1440880D01*
G01X0963860Y-1440880D02*
G01X0967860Y-1440880D01*
G01X0779860Y-1441880D02*
G01X0782860Y-1441880D01*
G01X0961860Y-1441880D02*
G01X0965860Y-1441880D01*
G01X0778860Y-1442880D02*
G01X0781860Y-1442880D01*
G01X0959860Y-1442880D02*
G01X0963860Y-1442880D01*
G01X0778860Y-1443880D02*
G01X0780860Y-1443880D01*
G01X0957860Y-1443880D02*
G01X0961860Y-1443880D01*
G01X0777860Y-1444880D02*
G01X0779860Y-1444880D01*
G01X0834860Y-1444880D02*
G01X0837860Y-1444880D01*
G01X0954860Y-1444880D02*
G01X0959860Y-1444880D01*
G01X0776860Y-1445880D02*
G01X0779860Y-1445880D01*
G01X0832860Y-1445880D02*
G01X0839860Y-1445880D01*
G01X0952860Y-1445880D02*
G01X0957860Y-1445880D01*
G01X0776860Y-1446880D02*
G01X0778860Y-1446880D01*
G01X0831860Y-1446880D02*
G01X0835860Y-1446880D01*
G01X0836860Y-1446880D02*
G01X0841860Y-1446880D01*
G01X0950860Y-1446880D02*
G01X0955860Y-1446880D01*
G01X0775860Y-1447880D02*
G01X0777860Y-1447880D01*
G01X0830860Y-1447880D02*
G01X0833860Y-1447880D01*
G01X0839860Y-1447880D02*
G01X0844860Y-1447880D01*
G01X0947860Y-1447880D02*
G01X0952860Y-1447880D01*
G01X0775860Y-1448880D02*
G01X0777860Y-1448880D01*
G01X0829860Y-1448880D02*
G01X0832860Y-1448880D01*
G01X0842860Y-1448880D02*
G01X0847860Y-1448880D01*
G01X0944860Y-1448880D02*
G01X0950860Y-1448880D01*
G01X0774860Y-1449880D02*
G01X0776860Y-1449880D01*
G01X0827860Y-1449880D02*
G01X0830860Y-1449880D01*
G01X0845860Y-1449880D02*
G01X0851860Y-1449880D01*
G01X0941860Y-1449880D02*
G01X0947860Y-1449880D01*
G01X0774860Y-1450880D02*
G01X0776860Y-1450880D01*
G01X0826860Y-1450880D02*
G01X0829860Y-1450880D01*
G01X0848860Y-1450880D02*
G01X0854860Y-1450880D01*
G01X0937860Y-1450880D02*
G01X0944860Y-1450880D01*
G01X0773860Y-1451880D02*
G01X0775860Y-1451880D01*
G01X0825860Y-1451880D02*
G01X0828860Y-1451880D01*
G01X0850860Y-1451880D02*
G01X0858860Y-1451880D01*
G01X0934860Y-1451880D02*
G01X0941860Y-1451880D01*
G01X0773860Y-1452880D02*
G01X0775860Y-1452880D01*
G01X0824860Y-1452880D02*
G01X0826860Y-1452880D01*
G01X0854860Y-1452880D02*
G01X0862860Y-1452880D01*
G01X0929860Y-1452880D02*
G01X0937860Y-1452880D01*
G01X0772860Y-1453880D02*
G01X0775860Y-1453880D01*
G01X0822860Y-1453880D02*
G01X0825860Y-1453880D01*
G01X0858860Y-1453880D02*
G01X0868860Y-1453880D01*
G01X0923860Y-1453880D02*
G01X0933860Y-1453880D01*
G01X0772860Y-1454880D02*
G01X0774860Y-1454880D01*
G01X0821860Y-1454880D02*
G01X0824860Y-1454880D01*
G01X0863860Y-1454880D02*
G01X0872860Y-1454880D01*
G01X0917860Y-1454880D02*
G01X0928860Y-1454880D01*
G01X0772860Y-1455880D02*
G01X0774860Y-1455880D01*
G01X0820860Y-1455880D02*
G01X0823860Y-1455880D01*
G01X0869860Y-1455880D02*
G01X0872860Y-1455880D01*
G01X0916860Y-1455880D02*
G01X0922860Y-1455880D01*
G01X0771860Y-1456880D02*
G01X0773860Y-1456880D01*
G01X0819860Y-1456880D02*
G01X0822860Y-1456880D01*
G01X0870860Y-1456880D02*
G01X0872860Y-1456880D01*
G01X0916860Y-1456880D02*
G01X0918860Y-1456880D01*
G01X0771860Y-1457880D02*
G01X0773860Y-1457880D01*
G01X0819860Y-1457880D02*
G01X0821860Y-1457880D01*
G01X0870860Y-1457880D02*
G01X0872860Y-1457880D01*
G01X0916860Y-1457880D02*
G01X0918860Y-1457880D01*
G01X0771860Y-1458880D02*
G01X0773860Y-1458880D01*
G01X0818860Y-1458880D02*
G01X0820860Y-1458880D01*
G01X0870860Y-1458880D02*
G01X0872860Y-1458880D01*
G01X0916860Y-1458880D02*
G01X0918860Y-1458880D01*
G01X0771860Y-1459880D02*
G01X0773860Y-1459880D01*
G01X0817860Y-1459880D02*
G01X0819860Y-1459880D01*
G01X0870860Y-1459880D02*
G01X0872860Y-1459880D01*
G01X0916860Y-1459880D02*
G01X0918860Y-1459880D01*
G01X0771860Y-1460880D02*
G01X0772860Y-1460880D01*
G01X0816860Y-1460880D02*
G01X0819860Y-1460880D01*
G01X0871860Y-1460880D02*
G01X0873860Y-1460880D01*
G01X0916860Y-1460880D02*
G01X0918860Y-1460880D01*
G01X0770860Y-1461880D02*
G01X0772860Y-1461880D01*
G01X0816860Y-1461880D02*
G01X0818860Y-1461880D01*
G01X0871860Y-1461880D02*
G01X0873860Y-1461880D01*
G01X0916860Y-1461880D02*
G01X0918860Y-1461880D01*
G01X0770860Y-1462880D02*
G01X0772860Y-1462880D01*
G01X0815860Y-1462880D02*
G01X0817860Y-1462880D01*
G01X0871860Y-1462880D02*
G01X0873860Y-1462880D01*
G01X0916860Y-1462880D02*
G01X0918860Y-1462880D01*
G01X0770860Y-1463880D02*
G01X0772860Y-1463880D01*
G01X0815860Y-1463880D02*
G01X0817860Y-1463880D01*
G01X0871860Y-1463880D02*
G01X0873860Y-1463880D01*
G01X0915860Y-1463880D02*
G01X0917860Y-1463880D01*
G01X0770860Y-1464880D02*
G01X0772860Y-1464880D01*
G01X0815860Y-1464880D02*
G01X0817860Y-1464880D01*
G01X0871860Y-1464880D02*
G01X0873860Y-1464880D01*
G01X0915860Y-1464880D02*
G01X0917860Y-1464880D01*
G01X0770860Y-1465880D02*
G01X0772860Y-1465880D01*
G01X0815860Y-1465880D02*
G01X0817860Y-1465880D01*
G01X0871860Y-1465880D02*
G01X0873860Y-1465880D01*
G01X0915860Y-1465880D02*
G01X0917860Y-1465880D01*
G01X0770860Y-1466880D02*
G01X0772860Y-1466880D01*
G01X0816860Y-1466880D02*
G01X0818860Y-1466880D01*
G01X0871860Y-1466880D02*
G01X0873860Y-1466880D01*
G01X0915860Y-1466880D02*
G01X0917860Y-1466880D01*
G01X0770860Y-1467880D02*
G01X0772860Y-1467880D01*
G01X0816860Y-1467880D02*
G01X0819860Y-1467880D01*
G01X0871860Y-1467880D02*
G01X0873860Y-1467880D01*
G01X0915860Y-1467880D02*
G01X0917860Y-1467880D01*
G01X0770860Y-1468880D02*
G01X0772860Y-1468880D01*
G01X0817860Y-1468880D02*
G01X0820860Y-1468880D01*
G01X0871860Y-1468880D02*
G01X0873860Y-1468880D01*
G01X0915860Y-1468880D02*
G01X0917860Y-1468880D01*
G01X0770860Y-1469880D02*
G01X0772860Y-1469880D01*
G01X0818860Y-1469880D02*
G01X0821860Y-1469880D01*
G01X0872860Y-1469880D02*
G01X0873860Y-1469880D01*
G01X0915860Y-1469880D02*
G01X0917860Y-1469880D01*
G01X0770860Y-1470880D02*
G01X0772860Y-1470880D01*
G01X0819860Y-1470880D02*
G01X0823860Y-1470880D01*
G01X0872860Y-1470880D02*
G01X0874860Y-1470880D01*
G01X0915860Y-1470880D02*
G01X0917860Y-1470880D01*
G01X0770860Y-1471880D02*
G01X0772860Y-1471880D01*
G01X0821860Y-1471880D02*
G01X0825860Y-1471880D01*
G01X0872860Y-1471880D02*
G01X0874860Y-1471880D01*
G01X0915860Y-1471880D02*
G01X0916860Y-1471880D01*
G01X0770860Y-1472880D02*
G01X0772860Y-1472880D01*
G01X0823860Y-1472880D02*
G01X0827860Y-1472880D01*
G01X0872860Y-1472880D02*
G01X0874860Y-1472880D01*
G01X0914860Y-1472880D02*
G01X0916860Y-1472880D01*
G01X0770860Y-1473880D02*
G01X0772860Y-1473880D01*
G01X0825860Y-1473880D02*
G01X0830860Y-1473880D01*
G01X0872860Y-1473880D02*
G01X0874860Y-1473880D01*
G01X0914860Y-1473880D02*
G01X0916860Y-1473880D01*
G01X0770860Y-1474880D02*
G01X0772860Y-1474880D01*
G01X0827860Y-1474880D02*
G01X0833860Y-1474880D01*
G01X0872860Y-1474880D02*
G01X0874860Y-1474880D01*
G01X0914860Y-1474880D02*
G01X0916860Y-1474880D01*
G01X0771860Y-1475880D02*
G01X0772860Y-1475880D01*
G01X0830860Y-1475880D02*
G01X0836860Y-1475880D01*
G01X0872860Y-1475880D02*
G01X0874860Y-1475880D01*
G01X0914860Y-1475880D02*
G01X0916860Y-1475880D01*
G01X0771860Y-1476880D02*
G01X0773860Y-1476880D01*
G01X0833860Y-1476880D02*
G01X0841860Y-1476880D01*
G01X0872860Y-1476880D02*
G01X0874860Y-1476880D01*
G01X0914860Y-1476880D02*
G01X0916860Y-1476880D01*
G01X0771860Y-1477880D02*
G01X0773860Y-1477880D01*
G01X0837860Y-1477880D02*
G01X0846860Y-1477880D01*
G01X0872860Y-1477880D02*
G01X0874860Y-1477880D01*
G01X0914860Y-1477880D02*
G01X0916860Y-1477880D01*
G01X0771860Y-1478880D02*
G01X0773860Y-1478880D01*
G01X0841860Y-1478880D02*
G01X0852860Y-1478880D01*
G01X0873860Y-1478880D02*
G01X0874860Y-1478880D01*
G01X0914860Y-1478880D02*
G01X0916860Y-1478880D01*
G01X0772860Y-1479880D02*
G01X0774860Y-1479880D01*
G01X0846860Y-1479880D02*
G01X0859860Y-1479880D01*
G01X0873860Y-1479880D02*
G01X0874860Y-1479880D01*
G01X0914860Y-1479880D02*
G01X0915860Y-1479880D01*
G01X0772860Y-1480880D02*
G01X0774860Y-1480880D01*
G01X0852860Y-1480880D02*
G01X0869860Y-1480880D01*
G01X0873860Y-1480880D02*
G01X0874860Y-1480880D01*
G01X0914860Y-1480880D02*
G01X0915860Y-1480880D01*
G01X0772860Y-1481880D02*
G01X0775860Y-1481880D01*
G01X0860860Y-1481880D02*
G01X0875860Y-1481880D01*
G01X0913860Y-1481880D02*
G01X0915860Y-1481880D01*
G01X0773860Y-1482880D02*
G01X0775860Y-1482880D01*
G01X0871860Y-1482880D02*
G01X0875860Y-1482880D01*
G01X0913860Y-1482880D02*
G01X0915860Y-1482880D01*
G01X0773860Y-1483880D02*
G01X0775860Y-1483880D01*
G01X0913860Y-1483880D02*
G01X0915860Y-1483880D01*
G01X0774860Y-1484880D02*
G01X0776860Y-1484880D01*
G01X0913860Y-1484880D02*
G01X0915860Y-1484880D01*
G01X0774860Y-1485880D02*
G01X0777860Y-1485880D01*
G01X0913860Y-1485880D02*
G01X0918860Y-1485880D01*
G01X0775860Y-1486880D02*
G01X0777860Y-1486880D01*
G01X0913860Y-1486880D02*
G01X0928860Y-1486880D01*
G01X0776860Y-1487880D02*
G01X0778860Y-1487880D01*
G01X0920860Y-1487880D02*
G01X0937860Y-1487880D01*
G01X0776860Y-1488880D02*
G01X0779860Y-1488880D01*
G01X0929860Y-1488880D02*
G01X0946860Y-1488880D01*
G01X0777860Y-1489880D02*
G01X0779860Y-1489880D01*
G01X0938860Y-1489880D02*
G01X0953860Y-1489880D01*
G01X0778860Y-1490880D02*
G01X0780860Y-1490880D01*
G01X0946860Y-1490880D02*
G01X0961860Y-1490880D01*
G01X0778860Y-1491880D02*
G01X0781860Y-1491880D01*
G01X0955860Y-1491880D02*
G01X0969860Y-1491880D01*
G01X0779860Y-1492880D02*
G01X0782860Y-1492880D01*
G01X0963860Y-1492880D02*
G01X0975860Y-1492880D01*
G01X0780860Y-1493880D02*
G01X0783860Y-1493880D01*
G01X0969860Y-1493880D02*
G01X0980860Y-1493880D01*
G01X0781860Y-1494880D02*
G01X0784860Y-1494880D01*
G01X0975860Y-1494880D02*
G01X0984860Y-1494880D01*
G01X0782860Y-1495880D02*
G01X0785860Y-1495880D01*
G01X0980860Y-1495880D02*
G01X0988860Y-1495880D01*
G01X0783860Y-1496880D02*
G01X0786860Y-1496880D01*
G01X0984860Y-1496880D02*
G01X0991860Y-1496880D01*
G01X0784860Y-1497880D02*
G01X0787860Y-1497880D01*
G01X0988860Y-1497880D02*
G01X0994860Y-1497880D01*
G01X0785860Y-1498880D02*
G01X0788860Y-1498880D01*
G01X0991860Y-1498880D02*
G01X0997860Y-1498880D01*
G01X0787860Y-1499880D02*
G01X0790860Y-1499880D01*
G01X0994860Y-1499880D02*
G01X1000860Y-1499880D01*
G01X0788860Y-1500880D02*
G01X0791860Y-1500880D01*
G01X0997860Y-1500880D02*
G01X1003860Y-1500880D01*
G01X0790860Y-1501880D02*
G01X0793860Y-1501880D01*
G01X1000860Y-1501880D02*
G01X1005860Y-1501880D01*
G01X0791860Y-1502880D02*
G01X0794860Y-1502880D01*
G01X1003860Y-1502880D02*
G01X1007860Y-1502880D01*
G01X0792860Y-1503880D02*
G01X0796860Y-1503880D01*
G01X1005860Y-1503880D02*
G01X1009860Y-1503880D01*
G01X0794860Y-1504880D02*
G01X0798860Y-1504880D01*
G01X1007860Y-1504880D02*
G01X1012860Y-1504880D01*
G01X0796860Y-1505880D02*
G01X0799860Y-1505880D01*
G01X1009860Y-1505880D02*
G01X1014860Y-1505880D01*
G01X0797860Y-1506880D02*
G01X0801860Y-1506880D01*
G01X1012860Y-1506880D02*
G01X1016860Y-1506880D01*
G01X0795860Y-1507880D02*
G01X0800860Y-1507880D01*
G01X1013860Y-1507880D02*
G01X1017860Y-1507880D01*
G01X0793860Y-1508880D02*
G01X0798860Y-1508880D01*
G01X1015860Y-1508880D02*
G01X1019860Y-1508880D01*
G01X0791860Y-1509880D02*
G01X0796860Y-1509880D01*
G01X1017860Y-1509880D02*
G01X1020860Y-1509880D01*
G01X0790860Y-1510880D02*
G01X0793860Y-1510880D01*
G01X1018860Y-1510880D02*
G01X1022860Y-1510880D01*
G01X0787860Y-1511880D02*
G01X0792860Y-1511880D01*
G01X1020860Y-1511880D02*
G01X1023860Y-1511880D01*
G01X0786860Y-1512880D02*
G01X0790860Y-1512880D01*
G01X1021860Y-1512880D02*
G01X1025860Y-1512880D01*
G01X0784860Y-1513880D02*
G01X0788860Y-1513880D01*
G01X1023860Y-1513880D02*
G01X1026860Y-1513880D01*
G01X0782860Y-1514880D02*
G01X0786860Y-1514880D01*
G01X1024860Y-1514880D02*
G01X1027860Y-1514880D01*
G01X0781860Y-1515880D02*
G01X0784860Y-1515880D01*
G01X1026860Y-1515880D02*
G01X1029860Y-1515880D01*
G01X0779860Y-1516880D02*
G01X0783860Y-1516880D01*
G01X1027860Y-1516880D02*
G01X1030860Y-1516880D01*
G01X0778860Y-1517880D02*
G01X0781860Y-1517880D01*
G01X1028860Y-1517880D02*
G01X1031860Y-1517880D01*
G01X0776860Y-1518880D02*
G01X0780860Y-1518880D01*
G01X1029860Y-1518880D02*
G01X1032860Y-1518880D01*
G01X0775860Y-1519880D02*
G01X0778860Y-1519880D01*
G01X1030860Y-1519880D02*
G01X1033860Y-1519880D01*
G01X0774860Y-1520880D02*
G01X0777860Y-1520880D01*
G01X1031860Y-1520880D02*
G01X1034860Y-1520880D01*
G01X0772860Y-1521880D02*
G01X0775860Y-1521880D01*
G01X1032860Y-1521880D02*
G01X1035860Y-1521880D01*
G01X0771860Y-1522880D02*
G01X0774860Y-1522880D01*
G01X1033860Y-1522880D02*
G01X1036860Y-1522880D01*
G01X0770860Y-1523880D02*
G01X0773860Y-1523880D01*
G01X0868860Y-1523880D02*
G01X0878860Y-1523880D01*
G01X1034860Y-1523880D02*
G01X1037860Y-1523880D01*
G01X0769860Y-1524880D02*
G01X0772860Y-1524880D01*
G01X0859860Y-1524880D02*
G01X0878860Y-1524880D01*
G01X0909860Y-1524880D02*
G01X0922860Y-1524880D01*
G01X1035860Y-1524880D02*
G01X1038860Y-1524880D01*
G01X0768860Y-1525880D02*
G01X0771860Y-1525880D01*
G01X0852860Y-1525880D02*
G01X0866860Y-1525880D01*
G01X0876860Y-1525880D02*
G01X0878860Y-1525880D01*
G01X0908860Y-1525880D02*
G01X0933860Y-1525880D01*
G01X1036860Y-1525880D02*
G01X1038860Y-1525880D01*
G01X0767860Y-1526880D02*
G01X0770860Y-1526880D01*
G01X0847860Y-1526880D02*
G01X0857860Y-1526880D01*
G01X0877860Y-1526880D02*
G01X0879860Y-1526880D01*
G01X0908860Y-1526880D02*
G01X0910860Y-1526880D01*
G01X0925860Y-1526880D02*
G01X0942860Y-1526880D01*
G01X1037860Y-1526880D02*
G01X1039860Y-1526880D01*
G01X0767860Y-1527880D02*
G01X0769860Y-1527880D01*
G01X0844860Y-1527880D02*
G01X0852860Y-1527880D01*
G01X0877860Y-1527880D02*
G01X0879860Y-1527880D01*
G01X0908860Y-1527880D02*
G01X0910860Y-1527880D01*
G01X0934860Y-1527880D02*
G01X0947860Y-1527880D01*
G01X1037860Y-1527880D02*
G01X1040860Y-1527880D01*
G01X0766860Y-1528880D02*
G01X0768860Y-1528880D01*
G01X0840860Y-1528880D02*
G01X0847860Y-1528880D01*
G01X0877860Y-1528880D02*
G01X0879860Y-1528880D01*
G01X0908860Y-1528880D02*
G01X0910860Y-1528880D01*
G01X0942860Y-1528880D02*
G01X0953860Y-1528880D01*
G01X1038860Y-1528880D02*
G01X1041860Y-1528880D01*
G01X0765860Y-1529880D02*
G01X0767860Y-1529880D01*
G01X0837860Y-1529880D02*
G01X0843860Y-1529880D01*
G01X0877860Y-1529880D02*
G01X0879860Y-1529880D01*
G01X0908860Y-1529880D02*
G01X0910860Y-1529880D01*
G01X0948860Y-1529880D02*
G01X0958860Y-1529880D01*
G01X1039860Y-1529880D02*
G01X1041860Y-1529880D01*
G01X0764860Y-1530880D02*
G01X0766860Y-1530880D01*
G01X0834860Y-1530880D02*
G01X0840860Y-1530880D01*
G01X0877860Y-1530880D02*
G01X0879860Y-1530880D01*
G01X0908860Y-1530880D02*
G01X0910860Y-1530880D01*
G01X0954860Y-1530880D02*
G01X0963860Y-1530880D01*
G01X1040860Y-1530880D02*
G01X1042860Y-1530880D01*
G01X0763860Y-1531880D02*
G01X0766860Y-1531880D01*
G01X0832860Y-1531880D02*
G01X0837860Y-1531880D01*
G01X0877860Y-1531880D02*
G01X0879860Y-1531880D01*
G01X0908860Y-1531880D02*
G01X0910860Y-1531880D01*
G01X0958860Y-1531880D02*
G01X0966860Y-1531880D01*
G01X1040860Y-1531880D02*
G01X1042860Y-1531880D01*
G01X0763860Y-1532880D02*
G01X0765860Y-1532880D01*
G01X0829860Y-1532880D02*
G01X0834860Y-1532880D01*
G01X0877860Y-1532880D02*
G01X0879860Y-1532880D01*
G01X0908860Y-1532880D02*
G01X0909860Y-1532880D01*
G01X0963860Y-1532880D02*
G01X0970860Y-1532880D01*
G01X1041860Y-1532880D02*
G01X1043860Y-1532880D01*
G01X0762860Y-1533880D02*
G01X0764860Y-1533880D01*
G01X0827860Y-1533880D02*
G01X0831860Y-1533880D01*
G01X0877860Y-1533880D02*
G01X0879860Y-1533880D01*
G01X0908860Y-1533880D02*
G01X0909860Y-1533880D01*
G01X0967860Y-1533880D02*
G01X0973860Y-1533880D01*
G01X1041860Y-1533880D02*
G01X1044860Y-1533880D01*
G01X0761860Y-1534880D02*
G01X0763860Y-1534880D01*
G01X0825860Y-1534880D02*
G01X0829860Y-1534880D01*
G01X0877860Y-1534880D02*
G01X0879860Y-1534880D01*
G01X0907860Y-1534880D02*
G01X0909860Y-1534880D01*
G01X0970860Y-1534880D02*
G01X0976860Y-1534880D01*
G01X1042860Y-1534880D02*
G01X1044860Y-1534880D01*
G01X0761860Y-1535880D02*
G01X0763860Y-1535880D01*
G01X0823860Y-1535880D02*
G01X0827860Y-1535880D01*
G01X0877860Y-1535880D02*
G01X0879860Y-1535880D01*
G01X0907860Y-1535880D02*
G01X0909860Y-1535880D01*
G01X0973860Y-1535880D02*
G01X0979860Y-1535880D01*
G01X1043860Y-1535880D02*
G01X1045860Y-1535880D01*
G01X0760860Y-1536880D02*
G01X0762860Y-1536880D01*
G01X0821860Y-1536880D02*
G01X0825860Y-1536880D01*
G01X0878860Y-1536880D02*
G01X0879860Y-1536880D01*
G01X0907860Y-1536880D02*
G01X0909860Y-1536880D01*
G01X0976860Y-1536880D02*
G01X0981860Y-1536880D01*
G01X1043860Y-1536880D02*
G01X1045860Y-1536880D01*
G01X0760860Y-1537880D02*
G01X0762860Y-1537880D01*
G01X0819860Y-1537880D02*
G01X0823860Y-1537880D01*
G01X0878860Y-1537880D02*
G01X0879860Y-1537880D01*
G01X0907860Y-1537880D02*
G01X0909860Y-1537880D01*
G01X0978860Y-1537880D02*
G01X0983860Y-1537880D01*
G01X1043860Y-1537880D02*
G01X1046860Y-1537880D01*
G01X0759860Y-1538880D02*
G01X0761860Y-1538880D01*
G01X0817860Y-1538880D02*
G01X0821860Y-1538880D01*
G01X0878860Y-1538880D02*
G01X0879860Y-1538880D01*
G01X0907860Y-1538880D02*
G01X0909860Y-1538880D01*
G01X0981860Y-1538880D02*
G01X0985860Y-1538880D01*
G01X1044860Y-1538880D02*
G01X1046860Y-1538880D01*
G01X0758860Y-1539880D02*
G01X0761860Y-1539880D01*
G01X0816860Y-1539880D02*
G01X0819860Y-1539880D01*
G01X0878860Y-1539880D02*
G01X0880860Y-1539880D01*
G01X0907860Y-1539880D02*
G01X0909860Y-1539880D01*
G01X0983860Y-1539880D02*
G01X0987860Y-1539880D01*
G01X1044860Y-1539880D02*
G01X1046860Y-1539880D01*
G01X0758860Y-1540880D02*
G01X0760860Y-1540880D01*
G01X0814860Y-1540880D02*
G01X0818860Y-1540880D01*
G01X0878860Y-1540880D02*
G01X0880860Y-1540880D01*
G01X0907860Y-1540880D02*
G01X0909860Y-1540880D01*
G01X0985860Y-1540880D02*
G01X0989860Y-1540880D01*
G01X1045860Y-1540880D02*
G01X1047860Y-1540880D01*
G01X0758860Y-1541880D02*
G01X0760860Y-1541880D01*
G01X0813860Y-1541880D02*
G01X0816860Y-1541880D01*
G01X0878860Y-1541880D02*
G01X0880860Y-1541880D01*
G01X0907860Y-1541880D02*
G01X0908860Y-1541880D01*
G01X0987860Y-1541880D02*
G01X0990860Y-1541880D01*
G01X1045860Y-1541880D02*
G01X1047860Y-1541880D01*
G01X0757860Y-1542880D02*
G01X0759860Y-1542880D01*
G01X0812860Y-1542880D02*
G01X0815860Y-1542880D01*
G01X0878860Y-1542880D02*
G01X0880860Y-1542880D01*
G01X0906860Y-1542880D02*
G01X0908860Y-1542880D01*
G01X0988860Y-1542880D02*
G01X0992860Y-1542880D01*
G01X1046860Y-1542880D02*
G01X1047860Y-1542880D01*
G01X0757860Y-1543880D02*
G01X0759860Y-1543880D01*
G01X0811860Y-1543880D02*
G01X0814860Y-1543880D01*
G01X0878860Y-1543880D02*
G01X0880860Y-1543880D01*
G01X0906860Y-1543880D02*
G01X0908860Y-1543880D01*
G01X0990860Y-1543880D02*
G01X0993860Y-1543880D01*
G01X1046860Y-1543880D02*
G01X1048860Y-1543880D01*
G01X0756860Y-1544880D02*
G01X0758860Y-1544880D01*
G01X0810860Y-1544880D02*
G01X0812860Y-1544880D01*
G01X0878860Y-1544880D02*
G01X0880860Y-1544880D01*
G01X0906860Y-1544880D02*
G01X0908860Y-1544880D01*
G01X0991860Y-1544880D02*
G01X0994860Y-1544880D01*
G01X1046860Y-1544880D02*
G01X1048860Y-1544880D01*
G01X0756860Y-1545880D02*
G01X0758860Y-1545880D01*
G01X0808860Y-1545880D02*
G01X0811860Y-1545880D01*
G01X0878860Y-1545880D02*
G01X0880860Y-1545880D01*
G01X0906860Y-1545880D02*
G01X0908860Y-1545880D01*
G01X0992860Y-1545880D02*
G01X0995860Y-1545880D01*
G01X1047860Y-1545880D02*
G01X1048860Y-1545880D01*
G01X0756860Y-1546880D02*
G01X0758860Y-1546880D01*
G01X0807860Y-1546880D02*
G01X0810860Y-1546880D01*
G01X0878860Y-1546880D02*
G01X0880860Y-1546880D01*
G01X0906860Y-1546880D02*
G01X0908860Y-1546880D01*
G01X0993860Y-1546880D02*
G01X0996860Y-1546880D01*
G01X1047860Y-1546880D02*
G01X1049860Y-1546880D01*
G01X0755860Y-1547880D02*
G01X0757860Y-1547880D01*
G01X0807860Y-1547880D02*
G01X0809860Y-1547880D01*
G01X0878860Y-1547880D02*
G01X0880860Y-1547880D01*
G01X0906860Y-1547880D02*
G01X0908860Y-1547880D01*
G01X0994860Y-1547880D02*
G01X0997860Y-1547880D01*
G01X1047860Y-1547880D02*
G01X1049860Y-1547880D01*
G01X0755860Y-1548880D02*
G01X0757860Y-1548880D01*
G01X0806860Y-1548880D02*
G01X0808860Y-1548880D01*
G01X0879860Y-1548880D02*
G01X0880860Y-1548880D01*
G01X0906860Y-1548880D02*
G01X0908860Y-1548880D01*
G01X0996860Y-1548880D02*
G01X0998860Y-1548880D01*
G01X1047860Y-1548880D02*
G01X1049860Y-1548880D01*
G01X0755860Y-1549880D02*
G01X0757860Y-1549880D01*
G01X0805860Y-1549880D02*
G01X0807860Y-1549880D01*
G01X0879860Y-1549880D02*
G01X0880860Y-1549880D01*
G01X0906860Y-1549880D02*
G01X0908860Y-1549880D01*
G01X0996860Y-1549880D02*
G01X0999860Y-1549880D01*
G01X1048860Y-1549880D02*
G01X1050860Y-1549880D01*
G01X0754860Y-1550880D02*
G01X0756860Y-1550880D01*
G01X0804860Y-1550880D02*
G01X0806860Y-1550880D01*
G01X0879860Y-1550880D02*
G01X0880860Y-1550880D01*
G01X0906860Y-1550880D02*
G01X0907860Y-1550880D01*
G01X0997860Y-1550880D02*
G01X0999860Y-1550880D01*
G01X1048860Y-1550880D02*
G01X1050860Y-1550880D01*
G01X0754860Y-1551880D02*
G01X0756860Y-1551880D01*
G01X0803860Y-1551880D02*
G01X0806860Y-1551880D01*
G01X0879860Y-1551880D02*
G01X0881860Y-1551880D01*
G01X0905860Y-1551880D02*
G01X0907860Y-1551880D01*
G01X0998860Y-1551880D02*
G01X1000860Y-1551880D01*
G01X1048860Y-1551880D02*
G01X1050860Y-1551880D01*
G01X0754860Y-1552880D02*
G01X0756860Y-1552880D01*
G01X0803860Y-1552880D02*
G01X0805860Y-1552880D01*
G01X0879860Y-1552880D02*
G01X0881860Y-1552880D01*
G01X0905860Y-1552880D02*
G01X0907860Y-1552880D01*
G01X0998860Y-1552880D02*
G01X1001860Y-1552880D01*
G01X1048860Y-1552880D02*
G01X1050860Y-1552880D01*
G01X0754860Y-1553880D02*
G01X0756860Y-1553880D01*
G01X0802860Y-1553880D02*
G01X0804860Y-1553880D01*
G01X0879860Y-1553880D02*
G01X0907860Y-1553880D01*
G01X0999860Y-1553880D02*
G01X1001860Y-1553880D01*
G01X1048860Y-1553880D02*
G01X1050860Y-1553880D01*
G01X0753860Y-1554880D02*
G01X0755860Y-1554880D01*
G01X0802860Y-1554880D02*
G01X0804860Y-1554880D01*
G01X0879860Y-1554880D02*
G01X0907860Y-1554880D01*
G01X0999860Y-1554880D02*
G01X1001860Y-1554880D01*
G01X1048860Y-1554880D02*
G01X1050860Y-1554880D01*
G01X0753860Y-1555880D02*
G01X0755860Y-1555880D01*
G01X0801860Y-1555880D02*
G01X0803860Y-1555880D01*
G01X1000860Y-1555880D02*
G01X1002860Y-1555880D01*
G01X1049860Y-1555880D02*
G01X1050860Y-1555880D01*
G01X0753860Y-1556880D02*
G01X0755860Y-1556880D01*
G01X0801860Y-1556880D02*
G01X0803860Y-1556880D01*
G01X1000860Y-1556880D02*
G01X1002860Y-1556880D01*
G01X1049860Y-1556880D02*
G01X1051860Y-1556880D01*
G01X0753860Y-1557880D02*
G01X0755860Y-1557880D01*
G01X0800860Y-1557880D02*
G01X0802860Y-1557880D01*
G01X1000860Y-1557880D02*
G01X1002860Y-1557880D01*
G01X1049860Y-1557880D02*
G01X1051860Y-1557880D01*
G01X0753860Y-1558880D02*
G01X0755860Y-1558880D01*
G01X0800860Y-1558880D02*
G01X0802860Y-1558880D01*
G01X1001860Y-1558880D02*
G01X1002860Y-1558880D01*
G01X1049860Y-1558880D02*
G01X1051860Y-1558880D01*
G01X0753860Y-1559880D02*
G01X0754860Y-1559880D01*
G01X0800860Y-1559880D02*
G01X0802860Y-1559880D01*
G01X1001860Y-1559880D02*
G01X1003860Y-1559880D01*
G01X1049860Y-1559880D02*
G01X1051860Y-1559880D01*
G01X0752860Y-1560880D02*
G01X0754860Y-1560880D01*
G01X0800860Y-1560880D02*
G01X0801860Y-1560880D01*
G01X1001860Y-1560880D02*
G01X1003860Y-1560880D01*
G01X1049860Y-1560880D02*
G01X1051860Y-1560880D01*
G01X0752860Y-1561880D02*
G01X0754860Y-1561880D01*
G01X0799860Y-1561880D02*
G01X0801860Y-1561880D01*
G01X1001860Y-1561880D02*
G01X1003860Y-1561880D01*
G01X1049860Y-1561880D02*
G01X1051860Y-1561880D01*
G01X0752860Y-1562880D02*
G01X0754860Y-1562880D01*
G01X0799860Y-1562880D02*
G01X0801860Y-1562880D01*
G01X1001860Y-1562880D02*
G01X1003860Y-1562880D01*
G01X1049860Y-1562880D02*
G01X1051860Y-1562880D01*
G01X0752860Y-1563880D02*
G01X0754860Y-1563880D01*
G01X0799860Y-1563880D02*
G01X0801860Y-1563880D01*
G01X1001860Y-1563880D02*
G01X1003860Y-1563880D01*
G01X1049860Y-1563880D02*
G01X1051860Y-1563880D01*
G01X0752860Y-1564880D02*
G01X0754860Y-1564880D01*
G01X0799860Y-1564880D02*
G01X0801860Y-1564880D01*
G01X1001860Y-1564880D02*
G01X1003860Y-1564880D01*
G01X1049860Y-1564880D02*
G01X1051860Y-1564880D01*
G01X0752860Y-1565880D02*
G01X0754860Y-1565880D01*
G01X0799860Y-1565880D02*
G01X0801860Y-1565880D01*
G01X1001860Y-1565880D02*
G01X1003860Y-1565880D01*
G01X1049860Y-1565880D02*
G01X1051860Y-1565880D01*
G01X0752860Y-1566880D02*
G01X0754860Y-1566880D01*
G01X0799860Y-1566880D02*
G01X0801860Y-1566880D01*
G01X1001860Y-1566880D02*
G01X1003860Y-1566880D01*
G01X1049860Y-1566880D02*
G01X1051860Y-1566880D01*
G01X0752860Y-1567880D02*
G01X0754860Y-1567880D01*
G01X0799860Y-1567880D02*
G01X0801860Y-1567880D01*
G01X1001860Y-1567880D02*
G01X1002860Y-1567880D01*
G01X1049860Y-1567880D02*
G01X1051860Y-1567880D01*
G01X0752860Y-1568880D02*
G01X0754860Y-1568880D01*
G01X0799860Y-1568880D02*
G01X0801860Y-1568880D01*
G01X1001860Y-1568880D02*
G01X1002860Y-1568880D01*
G01X1049860Y-1568880D02*
G01X1051860Y-1568880D01*
G01X0752860Y-1569880D02*
G01X0754860Y-1569880D01*
G01X0799860Y-1569880D02*
G01X0801860Y-1569880D01*
G01X1000860Y-1569880D02*
G01X1002860Y-1569880D01*
G01X1049860Y-1569880D02*
G01X1051860Y-1569880D01*
G01X0752860Y-1570880D02*
G01X0754860Y-1570880D01*
G01X0799860Y-1570880D02*
G01X0801860Y-1570880D01*
G01X1000860Y-1570880D02*
G01X1002860Y-1570880D01*
G01X1049860Y-1570880D02*
G01X1051860Y-1570880D01*
G01X0752860Y-1571880D02*
G01X0754860Y-1571880D01*
G01X0799860Y-1571880D02*
G01X0801860Y-1571880D01*
G01X1000860Y-1571880D02*
G01X1002860Y-1571880D01*
G01X1049860Y-1571880D02*
G01X1051860Y-1571880D01*
G01X0752860Y-1572880D02*
G01X0754860Y-1572880D01*
G01X0799860Y-1572880D02*
G01X0801860Y-1572880D01*
G01X1000860Y-1572880D02*
G01X1002860Y-1572880D01*
G01X1049860Y-1572880D02*
G01X1051860Y-1572880D01*
G01X0752860Y-1573880D02*
G01X0754860Y-1573880D01*
G01X0799860Y-1573880D02*
G01X0801860Y-1573880D01*
G01X0999860Y-1573880D02*
G01X1001860Y-1573880D01*
G01X1048860Y-1573880D02*
G01X1050860Y-1573880D01*
G01X0752860Y-1574880D02*
G01X0754860Y-1574880D01*
G01X0800860Y-1574880D02*
G01X0801860Y-1574880D01*
G01X0999860Y-1574880D02*
G01X1001860Y-1574880D01*
G01X1048860Y-1574880D02*
G01X1050860Y-1574880D01*
G01X0752860Y-1575880D02*
G01X0754860Y-1575880D01*
G01X0800860Y-1575880D02*
G01X0802860Y-1575880D01*
G01X0999860Y-1575880D02*
G01X1001860Y-1575880D01*
G01X1048860Y-1575880D02*
G01X1050860Y-1575880D01*
G01X0752860Y-1576880D02*
G01X0754860Y-1576880D01*
G01X0800860Y-1576880D02*
G01X0802860Y-1576880D01*
G01X0998860Y-1576880D02*
G01X1000860Y-1576880D01*
G01X1048860Y-1576880D02*
G01X1050860Y-1576880D01*
G01X0752860Y-1577880D02*
G01X0754860Y-1577880D01*
G01X0801860Y-1577880D02*
G01X0803860Y-1577880D01*
G01X0998860Y-1577880D02*
G01X1000860Y-1577880D01*
G01X1048860Y-1577880D02*
G01X1050860Y-1577880D01*
G01X0753860Y-1578880D02*
G01X0754860Y-1578880D01*
G01X0801860Y-1578880D02*
G01X0803860Y-1578880D01*
G01X0997860Y-1578880D02*
G01X0999860Y-1578880D01*
G01X1048860Y-1578880D02*
G01X1050860Y-1578880D01*
G01X0753860Y-1579880D02*
G01X0755860Y-1579880D01*
G01X0802860Y-1579880D02*
G01X0804860Y-1579880D01*
G01X0997860Y-1579880D02*
G01X0999860Y-1579880D01*
G01X1047860Y-1579880D02*
G01X1049860Y-1579880D01*
G01X0753860Y-1580880D02*
G01X0755860Y-1580880D01*
G01X0802860Y-1580880D02*
G01X0804860Y-1580880D01*
G01X0996860Y-1580880D02*
G01X0998860Y-1580880D01*
G01X1047860Y-1580880D02*
G01X1049860Y-1580880D01*
G01X0753860Y-1581880D02*
G01X0755860Y-1581880D01*
G01X0803860Y-1581880D02*
G01X0805860Y-1581880D01*
G01X0995860Y-1581880D02*
G01X0998860Y-1581880D01*
G01X1047860Y-1581880D02*
G01X1049860Y-1581880D01*
G01X0753860Y-1582880D02*
G01X0755860Y-1582880D01*
G01X0804860Y-1582880D02*
G01X0806860Y-1582880D01*
G01X0995860Y-1582880D02*
G01X0997860Y-1582880D01*
G01X1047860Y-1582880D02*
G01X1049860Y-1582880D01*
G01X0754860Y-1583880D02*
G01X0756860Y-1583880D01*
G01X0804860Y-1583880D02*
G01X0807860Y-1583880D01*
G01X0888860Y-1583880D02*
G01X0900860Y-1583880D01*
G01X0994860Y-1583880D02*
G01X0996860Y-1583880D01*
G01X1046860Y-1583880D02*
G01X1048860Y-1583880D01*
G01X0754860Y-1584880D02*
G01X0756860Y-1584880D01*
G01X0805860Y-1584880D02*
G01X0808860Y-1584880D01*
G01X0882860Y-1584880D02*
G01X0905860Y-1584880D01*
G01X0993860Y-1584880D02*
G01X0996860Y-1584880D01*
G01X1046860Y-1584880D02*
G01X1048860Y-1584880D01*
G01X0754860Y-1585880D02*
G01X0756860Y-1585880D01*
G01X0806860Y-1585880D02*
G01X0809860Y-1585880D01*
G01X0879860Y-1585880D02*
G01X0886860Y-1585880D01*
G01X0901860Y-1585880D02*
G01X0909860Y-1585880D01*
G01X0992860Y-1585880D02*
G01X0995860Y-1585880D01*
G01X1046860Y-1585880D02*
G01X1048860Y-1585880D01*
G01X0754860Y-1586880D02*
G01X0756860Y-1586880D01*
G01X0807860Y-1586880D02*
G01X0810860Y-1586880D01*
G01X0876860Y-1586880D02*
G01X0882860Y-1586880D01*
G01X0906860Y-1586880D02*
G01X0911860Y-1586880D01*
G01X0991860Y-1586880D02*
G01X0994860Y-1586880D01*
G01X1045860Y-1586880D02*
G01X1047860Y-1586880D01*
G01X0755860Y-1587880D02*
G01X0757860Y-1587880D01*
G01X0808860Y-1587880D02*
G01X0811860Y-1587880D01*
G01X0874860Y-1587880D02*
G01X0879860Y-1587880D01*
G01X0909860Y-1587880D02*
G01X0913860Y-1587880D01*
G01X0990860Y-1587880D02*
G01X0993860Y-1587880D01*
G01X1045860Y-1587880D02*
G01X1047860Y-1587880D01*
G01X0755860Y-1588880D02*
G01X0757860Y-1588880D01*
G01X0810860Y-1588880D02*
G01X0813860Y-1588880D01*
G01X0872860Y-1588880D02*
G01X0876860Y-1588880D01*
G01X0911860Y-1588880D02*
G01X0915860Y-1588880D01*
G01X0989860Y-1588880D02*
G01X0992860Y-1588880D01*
G01X1045860Y-1588880D02*
G01X1047860Y-1588880D01*
G01X0756860Y-1589880D02*
G01X0757860Y-1589880D01*
G01X0811860Y-1589880D02*
G01X0814860Y-1589880D01*
G01X0871860Y-1589880D02*
G01X0874860Y-1589880D01*
G01X0913860Y-1589880D02*
G01X0917860Y-1589880D01*
G01X0988860Y-1589880D02*
G01X0991860Y-1589880D01*
G01X1044860Y-1589880D02*
G01X1046860Y-1589880D01*
G01X0756860Y-1590880D02*
G01X0758860Y-1590880D01*
G01X0812860Y-1590880D02*
G01X0816860Y-1590880D01*
G01X0869860Y-1590880D02*
G01X0872860Y-1590880D01*
G01X0915860Y-1590880D02*
G01X0918860Y-1590880D01*
G01X0987860Y-1590880D02*
G01X0990860Y-1590880D01*
G01X1044860Y-1590880D02*
G01X1046860Y-1590880D01*
G01X0756860Y-1591880D02*
G01X0758860Y-1591880D01*
G01X0814860Y-1591880D02*
G01X0818860Y-1591880D01*
G01X0868860Y-1591880D02*
G01X0871860Y-1591880D01*
G01X0917860Y-1591880D02*
G01X0920860Y-1591880D01*
G01X0985860Y-1591880D02*
G01X0988860Y-1591880D01*
G01X1043860Y-1591880D02*
G01X1045860Y-1591880D01*
G01X0757860Y-1592880D02*
G01X0759860Y-1592880D01*
G01X0816860Y-1592880D02*
G01X0820860Y-1592880D01*
G01X0866860Y-1592880D02*
G01X0869860Y-1592880D01*
G01X0918860Y-1592880D02*
G01X0921860Y-1592880D01*
G01X0984860Y-1592880D02*
G01X0987860Y-1592880D01*
G01X1043860Y-1592880D02*
G01X1045860Y-1592880D01*
G01X0757860Y-1593880D02*
G01X0759860Y-1593880D01*
G01X0817860Y-1593880D02*
G01X0822860Y-1593880D01*
G01X0865860Y-1593880D02*
G01X0868860Y-1593880D01*
G01X0919860Y-1593880D02*
G01X0922860Y-1593880D01*
G01X0982860Y-1593880D02*
G01X0986860Y-1593880D01*
G01X1042860Y-1593880D02*
G01X1045860Y-1593880D01*
G01X0758860Y-1594880D02*
G01X0760860Y-1594880D01*
G01X0820860Y-1594880D02*
G01X0824860Y-1594880D01*
G01X0864860Y-1594880D02*
G01X0867860Y-1594880D01*
G01X0920860Y-1594880D02*
G01X0923860Y-1594880D01*
G01X0980860Y-1594880D02*
G01X0984860Y-1594880D01*
G01X1042860Y-1594880D02*
G01X1044860Y-1594880D01*
G01X0758860Y-1595880D02*
G01X0760860Y-1595880D01*
G01X0822860Y-1595880D02*
G01X0827860Y-1595880D01*
G01X0863860Y-1595880D02*
G01X0866860Y-1595880D01*
G01X0921860Y-1595880D02*
G01X0924860Y-1595880D01*
G01X0978860Y-1595880D02*
G01X0982860Y-1595880D01*
G01X1041860Y-1595880D02*
G01X1043860Y-1595880D01*
G01X0759860Y-1596880D02*
G01X0761860Y-1596880D01*
G01X0824860Y-1596880D02*
G01X0830860Y-1596880D01*
G01X0862860Y-1596880D02*
G01X0865860Y-1596880D01*
G01X0922860Y-1596880D02*
G01X0925860Y-1596880D01*
G01X0976860Y-1596880D02*
G01X0980860Y-1596880D01*
G01X1041860Y-1596880D02*
G01X1043860Y-1596880D01*
G01X0759860Y-1597880D02*
G01X0761860Y-1597880D01*
G01X0827860Y-1597880D02*
G01X0833860Y-1597880D01*
G01X0861860Y-1597880D02*
G01X0864860Y-1597880D01*
G01X0923860Y-1597880D02*
G01X0926860Y-1597880D01*
G01X0974860Y-1597880D02*
G01X0978860Y-1597880D01*
G01X1040860Y-1597880D02*
G01X1042860Y-1597880D01*
G01X0760860Y-1598880D02*
G01X0762860Y-1598880D01*
G01X0830860Y-1598880D02*
G01X0836860Y-1598880D01*
G01X0860860Y-1598880D02*
G01X0863860Y-1598880D01*
G01X0924860Y-1598880D02*
G01X0927860Y-1598880D01*
G01X0971860Y-1598880D02*
G01X0976860Y-1598880D01*
G01X1040860Y-1598880D02*
G01X1042860Y-1598880D01*
G01X0760860Y-1599880D02*
G01X0763860Y-1599880D01*
G01X0833860Y-1599880D02*
G01X0840860Y-1599880D01*
G01X0859860Y-1599880D02*
G01X0862860Y-1599880D01*
G01X0925860Y-1599880D02*
G01X0927860Y-1599880D01*
G01X0968860Y-1599880D02*
G01X0974860Y-1599880D01*
G01X1039860Y-1599880D02*
G01X1041860Y-1599880D01*
G01X0761860Y-1600880D02*
G01X0763860Y-1600880D01*
G01X0836860Y-1600880D02*
G01X0844860Y-1600880D01*
G01X0859860Y-1600880D02*
G01X0861860Y-1600880D01*
G01X0926860Y-1600880D02*
G01X0928860Y-1600880D01*
G01X0965860Y-1600880D02*
G01X0971860Y-1600880D01*
G01X1038860Y-1600880D02*
G01X1041860Y-1600880D01*
G01X0762860Y-1601880D02*
G01X0764860Y-1601880D01*
G01X0840860Y-1601880D02*
G01X0849860Y-1601880D01*
G01X0858860Y-1601880D02*
G01X0860860Y-1601880D01*
G01X0927860Y-1601880D02*
G01X0929860Y-1601880D01*
G01X0961860Y-1601880D02*
G01X0968860Y-1601880D01*
G01X1038860Y-1601880D02*
G01X1040860Y-1601880D01*
G01X0762860Y-1602880D02*
G01X0765860Y-1602880D01*
G01X0844860Y-1602880D02*
G01X0853860Y-1602880D01*
G01X0857860Y-1602880D02*
G01X0859860Y-1602880D01*
G01X0927860Y-1602880D02*
G01X0929860Y-1602880D01*
G01X0957860Y-1602880D02*
G01X0965860Y-1602880D01*
G01X1037860Y-1602880D02*
G01X1039860Y-1602880D01*
G01X0763860Y-1603880D02*
G01X0765860Y-1603880D01*
G01X0849860Y-1603880D02*
G01X0859860Y-1603880D01*
G01X0928860Y-1603880D02*
G01X0930860Y-1603880D01*
G01X0952860Y-1603880D02*
G01X0961860Y-1603880D01*
G01X1036860Y-1603880D02*
G01X1038860Y-1603880D01*
G01X0764860Y-1604880D02*
G01X0766860Y-1604880D01*
G01X0854860Y-1604880D02*
G01X0858860Y-1604880D01*
G01X0929860Y-1604880D02*
G01X0931860Y-1604880D01*
G01X0945860Y-1604880D02*
G01X0956860Y-1604880D01*
G01X1035860Y-1604880D02*
G01X1038860Y-1604880D01*
G01X0765860Y-1605880D02*
G01X0767860Y-1605880D01*
G01X0929860Y-1605880D02*
G01X0931860Y-1605880D01*
G01X0937860Y-1605880D02*
G01X0951860Y-1605880D01*
G01X1035860Y-1605880D02*
G01X1037860Y-1605880D01*
G01X0766860Y-1606880D02*
G01X0768860Y-1606880D01*
G01X0930860Y-1606880D02*
G01X0944860Y-1606880D01*
G01X1034860Y-1606880D02*
G01X1036860Y-1606880D01*
G01X0766860Y-1607880D02*
G01X0769860Y-1607880D01*
G01X0930860Y-1607880D02*
G01X0937860Y-1607880D01*
G01X1033860Y-1607880D02*
G01X1035860Y-1607880D01*
G01X0767860Y-1608880D02*
G01X0770860Y-1608880D01*
G01X1032860Y-1608880D02*
G01X1034860Y-1608880D01*
G01X0768860Y-1609880D02*
G01X0771860Y-1609880D01*
G01X1031860Y-1609880D02*
G01X1033860Y-1609880D01*
G01X0769860Y-1610880D02*
G01X0772860Y-1610880D01*
G01X1030860Y-1610880D02*
G01X1032860Y-1610880D01*
G01X0770860Y-1611880D02*
G01X0773860Y-1611880D01*
G01X1029860Y-1611880D02*
G01X1031860Y-1611880D01*
G01X0771860Y-1612880D02*
G01X0774860Y-1612880D01*
G01X1028860Y-1612880D02*
G01X1031860Y-1612880D01*
G01X0772860Y-1613880D02*
G01X0775860Y-1613880D01*
G01X1027860Y-1613880D02*
G01X1030860Y-1613880D01*
G01X0774860Y-1614880D02*
G01X0777860Y-1614880D01*
G01X1026860Y-1614880D02*
G01X1028860Y-1614880D01*
G01X0775860Y-1615880D02*
G01X0778860Y-1615880D01*
G01X1024860Y-1615880D02*
G01X1027860Y-1615880D01*
G01X0776860Y-1616880D02*
G01X0779860Y-1616880D01*
G01X1023860Y-1616880D02*
G01X1026860Y-1616880D01*
G01X0777860Y-1617880D02*
G01X0781860Y-1617880D01*
G01X1022860Y-1617880D02*
G01X1025860Y-1617880D01*
G01X0779860Y-1618880D02*
G01X0782860Y-1618880D01*
G01X1020860Y-1618880D02*
G01X1023860Y-1618880D01*
G01X0780860Y-1619880D02*
G01X0784860Y-1619880D01*
G01X1019860Y-1619880D02*
G01X1022860Y-1619880D01*
G01X0782860Y-1620880D02*
G01X0785860Y-1620880D01*
G01X1017860Y-1620880D02*
G01X1021860Y-1620880D01*
G01X0783860Y-1621880D02*
G01X0787860Y-1621880D01*
G01X1016860Y-1621880D02*
G01X1019860Y-1621880D01*
G01X0785860Y-1622880D02*
G01X0788860Y-1622880D01*
G01X1014860Y-1622880D02*
G01X1018860Y-1622880D01*
G01X0787860Y-1623880D02*
G01X0790860Y-1623880D01*
G01X1013860Y-1623880D02*
G01X1016860Y-1623880D01*
G01X0788860Y-1624880D02*
G01X0792860Y-1624880D01*
G01X1011860Y-1624880D02*
G01X1015860Y-1624880D01*
G01X0790860Y-1625880D02*
G01X0794860Y-1625880D01*
G01X1009860Y-1625880D02*
G01X1013860Y-1625880D01*
G01X0792860Y-1626880D02*
G01X0796860Y-1626880D01*
G01X1007860Y-1626880D02*
G01X1011860Y-1626880D01*
G01X0794860Y-1627880D02*
G01X0798860Y-1627880D01*
G01X1005860Y-1627880D02*
G01X1009860Y-1627880D01*
G01X0796860Y-1628880D02*
G01X0801860Y-1628880D01*
G01X1003860Y-1628880D02*
G01X1007860Y-1628880D01*
G01X0798860Y-1629880D02*
G01X0803860Y-1629880D01*
G01X1001860Y-1629880D02*
G01X1005860Y-1629880D01*
G01X0801860Y-1630880D02*
G01X0806860Y-1630880D01*
G01X0998860Y-1630880D02*
G01X1003860Y-1630880D01*
G01X0803860Y-1631880D02*
G01X0808860Y-1631880D01*
G01X0996860Y-1631880D02*
G01X1001860Y-1631880D01*
G01X0806860Y-1632880D02*
G01X0811860Y-1632880D01*
G01X0994860Y-1632880D02*
G01X0999860Y-1632880D01*
G01X0808860Y-1633880D02*
G01X0814860Y-1633880D01*
G01X0991860Y-1633880D02*
G01X0996860Y-1633880D01*
G01X0811860Y-1634880D02*
G01X0817860Y-1634880D01*
G01X0988860Y-1634880D02*
G01X0993860Y-1634880D01*
G01X0815860Y-1635880D02*
G01X0821860Y-1635880D01*
G01X0984860Y-1635880D02*
G01X0990860Y-1635880D01*
G01X0817860Y-1636880D02*
G01X0824860Y-1636880D01*
G01X0981860Y-1636880D02*
G01X0988860Y-1636880D01*
G01X0821860Y-1637880D02*
G01X0828860Y-1637880D01*
G01X0977860Y-1637880D02*
G01X0984860Y-1637880D01*
G01X0825860Y-1638880D02*
G01X0833860Y-1638880D01*
G01X0973860Y-1638880D02*
G01X0981860Y-1638880D01*
G01X0829860Y-1639880D02*
G01X0838860Y-1639880D01*
G01X0969860Y-1639880D02*
G01X0977860Y-1639880D01*
G01X0833860Y-1640880D02*
G01X0842860Y-1640880D01*
G01X0964860Y-1640880D02*
G01X0973860Y-1640880D01*
G01X0838860Y-1641880D02*
G01X0848860Y-1641880D01*
G01X0959860Y-1641880D02*
G01X0969860Y-1641880D01*
G01X0843860Y-1642880D02*
G01X0854860Y-1642880D01*
G01X0952860Y-1642880D02*
G01X0963860Y-1642880D01*
G01X0849860Y-1643880D02*
G01X0855860Y-1643880D01*
G01X0944860Y-1643880D02*
G01X0958860Y-1643880D01*
G01X0853860Y-1644880D02*
G01X0855860Y-1644880D01*
G01X0934860Y-1644880D02*
G01X0951860Y-1644880D01*
G01X0853860Y-1645880D02*
G01X0855860Y-1645880D01*
G01X0931860Y-1645880D02*
G01X0944860Y-1645880D01*
G01X0854860Y-1646880D02*
G01X0856860Y-1646880D01*
G01X0930860Y-1646880D02*
G01X0933860Y-1646880D01*
G01X0854860Y-1647880D02*
G01X0856860Y-1647880D01*
G01X0930860Y-1647880D02*
G01X0932860Y-1647880D01*
G01X0855860Y-1648880D02*
G01X0857860Y-1648880D01*
G01X0929860Y-1648880D02*
G01X0932860Y-1648880D01*
G01X0855860Y-1649880D02*
G01X0857860Y-1649880D01*
G01X0929860Y-1649880D02*
G01X0931860Y-1649880D01*
G01X0856860Y-1650880D02*
G01X0858860Y-1650880D01*
G01X0928860Y-1650880D02*
G01X0930860Y-1650880D01*
G01X0856860Y-1651880D02*
G01X0859860Y-1651880D01*
G01X0928860Y-1651880D02*
G01X0930860Y-1651880D01*
G01X0857860Y-1652880D02*
G01X0859860Y-1652880D01*
G01X0927860Y-1652880D02*
G01X0929860Y-1652880D01*
G01X0858860Y-1653880D02*
G01X0860860Y-1653880D01*
G01X0926860Y-1653880D02*
G01X0928860Y-1653880D01*
G01X0859860Y-1654880D02*
G01X0861860Y-1654880D01*
G01X0925860Y-1654880D02*
G01X0928860Y-1654880D01*
G01X0859860Y-1655880D02*
G01X0862860Y-1655880D01*
G01X0924860Y-1655880D02*
G01X0927860Y-1655880D01*
G01X0860860Y-1656880D02*
G01X0863860Y-1656880D01*
G01X0923860Y-1656880D02*
G01X0926860Y-1656880D01*
G01X0861860Y-1657880D02*
G01X0864860Y-1657880D01*
G01X0922860Y-1657880D02*
G01X0925860Y-1657880D01*
G01X0862860Y-1658880D02*
G01X0865860Y-1658880D01*
G01X0921860Y-1658880D02*
G01X0924860Y-1658880D01*
G01X0863860Y-1659880D02*
G01X0866860Y-1659880D01*
G01X0920860Y-1659880D02*
G01X0923860Y-1659880D01*
G01X0864860Y-1660880D02*
G01X0867860Y-1660880D01*
G01X0919860Y-1660880D02*
G01X0922860Y-1660880D01*
G01X0865860Y-1661880D02*
G01X0869860Y-1661880D01*
G01X0918860Y-1661880D02*
G01X0921860Y-1661880D01*
G01X0867860Y-1662880D02*
G01X0870860Y-1662880D01*
G01X0916860Y-1662880D02*
G01X0919860Y-1662880D01*
G01X0868860Y-1663880D02*
G01X0872860Y-1663880D01*
G01X0914860Y-1663880D02*
G01X0918860Y-1663880D01*
G01X0870860Y-1664880D02*
G01X0873860Y-1664880D01*
G01X0913860Y-1664880D02*
G01X0917860Y-1664880D01*
G01X0871860Y-1665880D02*
G01X0875860Y-1665880D01*
G01X0911860Y-1665880D02*
G01X0915860Y-1665880D01*
G01X0873860Y-1666880D02*
G01X0878860Y-1666880D01*
G01X0908860Y-1666880D02*
G01X0913860Y-1666880D01*
G01X0875860Y-1667880D02*
G01X0881860Y-1667880D01*
G01X0905860Y-1667880D02*
G01X0910860Y-1667880D01*
G01X0878860Y-1668880D02*
G01X0885860Y-1668880D01*
G01X0900860Y-1668880D02*
G01X0908860Y-1668880D01*
G01X0881860Y-1669880D02*
G01X0905860Y-1669880D01*
G01X0886860Y-1670880D02*
G01X0900860Y-1670880D01*
G54D33*
G01X1791580Y-1899550D02*
G01X1791580Y-1937030D01*
G01X1791580Y-1937030D02*
G01X1789240Y-1944060D01*
G01X1789240Y-1944060D02*
G01X1786890Y-1946410D01*
G01X1786890Y-1946410D02*
G01X1782210Y-1948750D01*
G01X1782210Y-1948750D02*
G01X1777520Y-1948750D01*
G01X1777520Y-1948750D02*
G01X1772840Y-1946410D01*
G01X1772840Y-1946410D02*
G01X1770490Y-1944060D01*
G01X1770490Y-1944060D02*
G01X1768150Y-1937030D01*
G01X1768150Y-1937030D02*
G01X1768150Y-1932350D01*
G01X1806570Y-1944060D02*
G01X1804230Y-1946410D01*
G01X1804230Y-1946410D02*
G01X1806570Y-1948750D01*
G01X1806570Y-1948750D02*
G01X1808920Y-1946410D01*
G01X1808920Y-1946410D02*
G01X1806570Y-1944060D01*
G01X1893500Y-1911260D02*
G01X1891160Y-1906570D01*
G01X1891160Y-1906570D02*
G01X1886470Y-1901890D01*
G01X1886470Y-1901890D02*
G01X1881780Y-1899550D01*
G01X1881780Y-1899550D02*
G01X1872410Y-1899550D01*
G01X1872410Y-1899550D02*
G01X1867730Y-1901890D01*
G01X1867730Y-1901890D02*
G01X1863040Y-1906570D01*
G01X1863040Y-1906570D02*
G01X1860700Y-1911260D01*
G01X1860700Y-1911260D02*
G01X1858350Y-1918290D01*
G01X1858350Y-1918290D02*
G01X1858350Y-1930000D01*
G01X1858350Y-1930000D02*
G01X1860700Y-1937030D01*
G01X1860700Y-1937030D02*
G01X1863040Y-1941720D01*
G01X1863040Y-1941720D02*
G01X1867730Y-1946410D01*
G01X1867730Y-1946410D02*
G01X1872410Y-1948750D01*
G01X1872410Y-1948750D02*
G01X1881780Y-1948750D01*
G01X1881780Y-1948750D02*
G01X1886470Y-1946410D01*
G01X1886470Y-1946410D02*
G01X1891160Y-1941720D01*
G01X1891160Y-1941720D02*
G01X1893500Y-1937030D01*
G01X1893500Y-1937030D02*
G01X1893500Y-1930000D01*
G01X1881780Y-1930000D02*
G01X1893500Y-1930000D01*
G01X1904740Y-1915950D02*
G01X1904740Y-1948750D01*
G01X1904740Y-1930000D02*
G01X1907090Y-1922980D01*
G01X1907090Y-1922980D02*
G01X1911770Y-1918290D01*
G01X1911770Y-1918290D02*
G01X1916460Y-1915950D01*
G01X1916460Y-1915950D02*
G01X1923490Y-1915950D01*
G01X1956060Y-1915950D02*
G01X1956060Y-1948750D01*
G01X1956060Y-1922980D02*
G01X1951370Y-1918290D01*
G01X1951370Y-1918290D02*
G01X1946680Y-1915950D01*
G01X1946680Y-1915950D02*
G01X1939650Y-1915950D01*
G01X1939650Y-1915950D02*
G01X1934970Y-1918290D01*
G01X1934970Y-1918290D02*
G01X1930280Y-1922980D01*
G01X1930280Y-1922980D02*
G01X1927940Y-1930000D01*
G01X1927940Y-1930000D02*
G01X1927940Y-1934690D01*
G01X1927940Y-1934690D02*
G01X1930280Y-1941720D01*
G01X1930280Y-1941720D02*
G01X1934970Y-1946410D01*
G01X1934970Y-1946410D02*
G01X1939650Y-1948750D01*
G01X1939650Y-1948750D02*
G01X1946680Y-1948750D01*
G01X1946680Y-1948750D02*
G01X1951370Y-1946410D01*
G01X1951370Y-1946410D02*
G01X1956060Y-1941720D01*
G01X1969170Y-1915950D02*
G01X1969170Y-1948750D01*
G01X1969170Y-1925320D02*
G01X1976200Y-1918290D01*
G01X1976200Y-1918290D02*
G01X1980890Y-1915950D01*
G01X1980890Y-1915950D02*
G01X1987920Y-1915950D01*
G01X1987920Y-1915950D02*
G01X1992600Y-1918290D01*
G01X1992600Y-1918290D02*
G01X1994950Y-1925320D01*
G01X1994950Y-1925320D02*
G01X1994950Y-1948750D01*
G01X2035950Y-1899550D02*
G01X2035950Y-1948750D01*
G01X2035950Y-1922980D02*
G01X2031260Y-1918290D01*
G01X2031260Y-1918290D02*
G01X2026580Y-1915950D01*
G01X2026580Y-1915950D02*
G01X2019550Y-1915950D01*
G01X2019550Y-1915950D02*
G01X2014860Y-1918290D01*
G01X2014860Y-1918290D02*
G01X2010180Y-1922980D01*
G01X2010180Y-1922980D02*
G01X2007830Y-1930000D01*
G01X2007830Y-1930000D02*
G01X2007830Y-1934690D01*
G01X2007830Y-1934690D02*
G01X2010180Y-1941720D01*
G01X2010180Y-1941720D02*
G01X2014860Y-1946410D01*
G01X2014860Y-1946410D02*
G01X2019550Y-1948750D01*
G01X2019550Y-1948750D02*
G01X2026580Y-1948750D01*
G01X2026580Y-1948750D02*
G01X2031260Y-1946410D01*
G01X2031260Y-1946410D02*
G01X2035950Y-1941720D01*
G01X1836490Y-2157000D02*
G01X1817740Y-2107800D01*
G01X1817740Y-2107800D02*
G01X1799000Y-2157000D01*
G01X1806030Y-2140600D02*
G01X1829460Y-2140600D01*
G01X2354060Y-2109800D02*
G01X2347030Y-2112140D01*
G01X2347030Y-2112140D02*
G01X2342340Y-2119170D01*
G01X2342340Y-2119170D02*
G01X2340000Y-2130880D01*
G01X2340000Y-2130880D02*
G01X2340000Y-2137910D01*
G01X2340000Y-2137910D02*
G01X2342340Y-2149630D01*
G01X2342340Y-2149630D02*
G01X2347030Y-2156660D01*
G01X2347030Y-2156660D02*
G01X2354060Y-2159000D01*
G01X2354060Y-2159000D02*
G01X2358740Y-2159000D01*
G01X2358740Y-2159000D02*
G01X2365770Y-2156660D01*
G01X2365770Y-2156660D02*
G01X2370460Y-2149630D01*
G01X2370460Y-2149630D02*
G01X2372800Y-2137910D01*
G01X2372800Y-2137910D02*
G01X2372800Y-2130880D01*
G01X2372800Y-2130880D02*
G01X2370460Y-2119170D01*
G01X2370460Y-2119170D02*
G01X2365770Y-2112140D01*
G01X2365770Y-2112140D02*
G01X2358740Y-2109800D01*
G01X2358740Y-2109800D02*
G01X2354060Y-2109800D01*
G01X2388500Y-2109800D02*
G01X2414270Y-2109800D01*
G01X2414270Y-2109800D02*
G01X2400210Y-2128540D01*
G01X2400210Y-2128540D02*
G01X2407240Y-2128540D01*
G01X2407240Y-2128540D02*
G01X2411930Y-2130880D01*
G01X2411930Y-2130880D02*
G01X2414270Y-2133230D01*
G01X2414270Y-2133230D02*
G01X2416620Y-2140260D01*
G01X2416620Y-2140260D02*
G01X2416620Y-2144940D01*
G01X2416620Y-2144940D02*
G01X2414270Y-2151970D01*
G01X2414270Y-2151970D02*
G01X2409590Y-2156660D01*
G01X2409590Y-2156660D02*
G01X2402560Y-2159000D01*
G01X2402560Y-2159000D02*
G01X2395530Y-2159000D01*
G01X2395530Y-2159000D02*
G01X2388500Y-2156660D01*
G01X2388500Y-2156660D02*
G01X2386160Y-2154310D01*
G01X2386160Y-2154310D02*
G01X2383810Y-2149630D01*
G01X2427630Y-2137910D02*
G01X2469800Y-2137910D01*
G01X2498380Y-2109800D02*
G01X2491350Y-2112140D01*
G01X2491350Y-2112140D02*
G01X2486670Y-2119170D01*
G01X2486670Y-2119170D02*
G01X2484330Y-2130880D01*
G01X2484330Y-2130880D02*
G01X2484330Y-2137910D01*
G01X2484330Y-2137910D02*
G01X2486670Y-2149630D01*
G01X2486670Y-2149630D02*
G01X2491350Y-2156660D01*
G01X2491350Y-2156660D02*
G01X2498380Y-2159000D01*
G01X2498380Y-2159000D02*
G01X2503070Y-2159000D01*
G01X2503070Y-2159000D02*
G01X2510100Y-2156660D01*
G01X2510100Y-2156660D02*
G01X2514790Y-2149630D01*
G01X2514790Y-2149630D02*
G01X2517130Y-2137910D01*
G01X2517130Y-2137910D02*
G01X2517130Y-2130880D01*
G01X2517130Y-2130880D02*
G01X2514790Y-2119170D01*
G01X2514790Y-2119170D02*
G01X2510100Y-2112140D01*
G01X2510100Y-2112140D02*
G01X2503070Y-2109800D01*
G01X2503070Y-2109800D02*
G01X2498380Y-2109800D01*
G01X2539850Y-2109800D02*
G01X2532820Y-2112140D01*
G01X2532820Y-2112140D02*
G01X2530480Y-2116830D01*
G01X2530480Y-2116830D02*
G01X2530480Y-2121510D01*
G01X2530480Y-2121510D02*
G01X2532820Y-2126200D01*
G01X2532820Y-2126200D02*
G01X2537510Y-2128540D01*
G01X2537510Y-2128540D02*
G01X2546880Y-2130880D01*
G01X2546880Y-2130880D02*
G01X2553910Y-2133230D01*
G01X2553910Y-2133230D02*
G01X2558600Y-2137910D01*
G01X2558600Y-2137910D02*
G01X2560940Y-2142600D01*
G01X2560940Y-2142600D02*
G01X2560940Y-2149630D01*
G01X2560940Y-2149630D02*
G01X2558600Y-2154310D01*
G01X2558600Y-2154310D02*
G01X2556260Y-2156660D01*
G01X2556260Y-2156660D02*
G01X2549230Y-2159000D01*
G01X2549230Y-2159000D02*
G01X2539850Y-2159000D01*
G01X2539850Y-2159000D02*
G01X2532820Y-2156660D01*
G01X2532820Y-2156660D02*
G01X2530480Y-2154310D01*
G01X2530480Y-2154310D02*
G01X2528140Y-2149630D01*
G01X2528140Y-2149630D02*
G01X2528140Y-2142600D01*
G01X2528140Y-2142600D02*
G01X2530480Y-2137910D01*
G01X2530480Y-2137910D02*
G01X2535170Y-2133230D01*
G01X2535170Y-2133230D02*
G01X2542200Y-2130880D01*
G01X2542200Y-2130880D02*
G01X2551570Y-2128540D01*
G01X2551570Y-2128540D02*
G01X2556260Y-2126200D01*
G01X2556260Y-2126200D02*
G01X2558600Y-2121510D01*
G01X2558600Y-2121510D02*
G01X2558600Y-2116830D01*
G01X2558600Y-2116830D02*
G01X2556260Y-2112140D01*
G01X2556260Y-2112140D02*
G01X2549230Y-2109800D01*
G01X2549230Y-2109800D02*
G01X2539850Y-2109800D01*
G01X2571950Y-2137910D02*
G01X2614130Y-2137910D01*
G01X2628650Y-2119170D02*
G01X2633340Y-2116830D01*
G01X2633340Y-2116830D02*
G01X2640370Y-2109800D01*
G01X2640370Y-2109800D02*
G01X2640370Y-2159000D01*
G01X2667080Y-2121510D02*
G01X2667080Y-2119170D01*
G01X2667080Y-2119170D02*
G01X2669420Y-2114480D01*
G01X2669420Y-2114480D02*
G01X2671760Y-2112140D01*
G01X2671760Y-2112140D02*
G01X2676450Y-2109800D01*
G01X2676450Y-2109800D02*
G01X2685820Y-2109800D01*
G01X2685820Y-2109800D02*
G01X2690510Y-2112140D01*
G01X2690510Y-2112140D02*
G01X2692850Y-2114480D01*
G01X2692850Y-2114480D02*
G01X2695190Y-2119170D01*
G01X2695190Y-2119170D02*
G01X2695190Y-2123860D01*
G01X2695190Y-2123860D02*
G01X2692850Y-2128540D01*
G01X2692850Y-2128540D02*
G01X2688160Y-2135570D01*
G01X2688160Y-2135570D02*
G01X2664730Y-2159000D01*
G01X2664730Y-2159000D02*
G01X2697540Y-2159000D01*
G01X-109140Y-1642640D02*
G01X-101640Y-1668880D01*
G01X-094150Y-1642640D02*
G01X-101640Y-1668880D01*
G01X-094150Y-1642640D02*
G01X-086650Y-1668880D01*
G01X-079150Y-1642640D02*
G01X-086650Y-1668880D01*
G01X-069970Y-1642640D02*
G01X-062470Y-1668880D01*
G01X-054970Y-1642640D02*
G01X-062470Y-1668880D01*
G01X-054970Y-1642640D02*
G01X-047470Y-1668880D01*
G01X-039980Y-1642640D02*
G01X-047470Y-1668880D01*
G01X-030790Y-1642640D02*
G01X-023300Y-1668880D01*
G01X-015800Y-1642640D02*
G01X-023300Y-1668880D01*
G01X-015800Y-1642640D02*
G01X-008300Y-1668880D01*
G01X-000800Y-1642640D02*
G01X-008300Y-1668880D01*
G01X0010250Y-1665130D02*
G01X0008380Y-1667010D01*
G01X0008380Y-1667010D02*
G01X0010250Y-1668880D01*
G01X0010250Y-1668880D02*
G01X0012130Y-1667010D01*
G01X0012130Y-1667010D02*
G01X0010250Y-1665130D01*
G01X0048870Y-1638890D02*
G01X0046990Y-1635140D01*
G01X0046990Y-1635140D02*
G01X0043240Y-1631390D01*
G01X0043240Y-1631390D02*
G01X0039490Y-1629520D01*
G01X0039490Y-1629520D02*
G01X0032000Y-1629520D01*
G01X0032000Y-1629520D02*
G01X0028250Y-1631390D01*
G01X0028250Y-1631390D02*
G01X0024500Y-1635140D01*
G01X0024500Y-1635140D02*
G01X0022630Y-1638890D01*
G01X0022630Y-1638890D02*
G01X0020750Y-1644520D01*
G01X0020750Y-1644520D02*
G01X0020750Y-1653890D01*
G01X0020750Y-1653890D02*
G01X0022630Y-1659510D01*
G01X0022630Y-1659510D02*
G01X0024500Y-1663260D01*
G01X0024500Y-1663260D02*
G01X0028250Y-1667010D01*
G01X0028250Y-1667010D02*
G01X0032000Y-1668880D01*
G01X0032000Y-1668880D02*
G01X0039490Y-1668880D01*
G01X0039490Y-1668880D02*
G01X0043240Y-1667010D01*
G01X0043240Y-1667010D02*
G01X0046990Y-1663260D01*
G01X0046990Y-1663260D02*
G01X0048870Y-1659510D01*
G01X0048870Y-1659510D02*
G01X0048870Y-1653890D01*
G01X0039490Y-1653890D02*
G01X0048870Y-1653890D01*
G01X0057860Y-1642640D02*
G01X0057860Y-1668880D01*
G01X0057860Y-1653890D02*
G01X0059740Y-1648260D01*
G01X0059740Y-1648260D02*
G01X0063490Y-1644520D01*
G01X0063490Y-1644520D02*
G01X0067240Y-1642640D01*
G01X0067240Y-1642640D02*
G01X0072860Y-1642640D01*
G01X0098910Y-1642640D02*
G01X0098910Y-1668880D01*
G01X0098910Y-1648260D02*
G01X0095160Y-1644520D01*
G01X0095160Y-1644520D02*
G01X0091420Y-1642640D01*
G01X0091420Y-1642640D02*
G01X0085790Y-1642640D01*
G01X0085790Y-1642640D02*
G01X0082040Y-1644520D01*
G01X0082040Y-1644520D02*
G01X0078290Y-1648260D01*
G01X0078290Y-1648260D02*
G01X0076420Y-1653890D01*
G01X0076420Y-1653890D02*
G01X0076420Y-1657640D01*
G01X0076420Y-1657640D02*
G01X0078290Y-1663260D01*
G01X0078290Y-1663260D02*
G01X0082040Y-1667010D01*
G01X0082040Y-1667010D02*
G01X0085790Y-1668880D01*
G01X0085790Y-1668880D02*
G01X0091420Y-1668880D01*
G01X0091420Y-1668880D02*
G01X0095160Y-1667010D01*
G01X0095160Y-1667010D02*
G01X0098910Y-1663260D01*
G01X0109410Y-1642640D02*
G01X0109410Y-1668880D01*
G01X0109410Y-1650140D02*
G01X0115030Y-1644520D01*
G01X0115030Y-1644520D02*
G01X0118780Y-1642640D01*
G01X0118780Y-1642640D02*
G01X0124400Y-1642640D01*
G01X0124400Y-1642640D02*
G01X0128150Y-1644520D01*
G01X0128150Y-1644520D02*
G01X0130030Y-1650140D01*
G01X0130030Y-1650140D02*
G01X0130030Y-1668880D01*
G01X0162830Y-1629520D02*
G01X0162830Y-1668880D01*
G01X0162830Y-1648260D02*
G01X0159080Y-1644520D01*
G01X0159080Y-1644520D02*
G01X0155330Y-1642640D01*
G01X0155330Y-1642640D02*
G01X0149710Y-1642640D01*
G01X0149710Y-1642640D02*
G01X0145960Y-1644520D01*
G01X0145960Y-1644520D02*
G01X0142210Y-1648260D01*
G01X0142210Y-1648260D02*
G01X0140340Y-1653890D01*
G01X0140340Y-1653890D02*
G01X0140340Y-1657640D01*
G01X0140340Y-1657640D02*
G01X0142210Y-1663260D01*
G01X0142210Y-1663260D02*
G01X0145960Y-1667010D01*
G01X0145960Y-1667010D02*
G01X0149710Y-1668880D01*
G01X0149710Y-1668880D02*
G01X0155330Y-1668880D01*
G01X0155330Y-1668880D02*
G01X0159080Y-1667010D01*
G01X0159080Y-1667010D02*
G01X0162830Y-1663260D01*
G01X0173330Y-1629520D02*
G01X0173330Y-1668880D01*
G01X0204060Y-1629520D02*
G01X0204060Y-1668880D01*
G01X0204060Y-1648260D02*
G01X0200320Y-1644520D01*
G01X0200320Y-1644520D02*
G01X0196570Y-1642640D01*
G01X0196570Y-1642640D02*
G01X0190940Y-1642640D01*
G01X0190940Y-1642640D02*
G01X0187200Y-1644520D01*
G01X0187200Y-1644520D02*
G01X0183450Y-1648260D01*
G01X0183450Y-1648260D02*
G01X0181570Y-1653890D01*
G01X0181570Y-1653890D02*
G01X0181570Y-1657640D01*
G01X0181570Y-1657640D02*
G01X0183450Y-1663260D01*
G01X0183450Y-1663260D02*
G01X0187200Y-1667010D01*
G01X0187200Y-1667010D02*
G01X0190940Y-1668880D01*
G01X0190940Y-1668880D02*
G01X0196570Y-1668880D01*
G01X0196570Y-1668880D02*
G01X0200320Y-1667010D01*
G01X0200320Y-1667010D02*
G01X0204060Y-1663260D01*
G01X0214560Y-1653890D02*
G01X0237050Y-1653890D01*
G01X0237050Y-1653890D02*
G01X0237050Y-1650140D01*
G01X0237050Y-1650140D02*
G01X0235180Y-1646390D01*
G01X0235180Y-1646390D02*
G01X0233310Y-1644520D01*
G01X0233310Y-1644520D02*
G01X0229560Y-1642640D01*
G01X0229560Y-1642640D02*
G01X0223930Y-1642640D01*
G01X0223930Y-1642640D02*
G01X0220180Y-1644520D01*
G01X0220180Y-1644520D02*
G01X0216440Y-1648260D01*
G01X0216440Y-1648260D02*
G01X0214560Y-1653890D01*
G01X0214560Y-1653890D02*
G01X0214560Y-1657640D01*
G01X0214560Y-1657640D02*
G01X0216440Y-1663260D01*
G01X0216440Y-1663260D02*
G01X0220180Y-1667010D01*
G01X0220180Y-1667010D02*
G01X0223930Y-1668880D01*
G01X0223930Y-1668880D02*
G01X0229560Y-1668880D01*
G01X0229560Y-1668880D02*
G01X0233310Y-1667010D01*
G01X0233310Y-1667010D02*
G01X0237050Y-1663260D01*
G01X0267980Y-1642640D02*
G01X0267980Y-1668880D01*
G01X0267980Y-1648260D02*
G01X0264230Y-1644520D01*
G01X0264230Y-1644520D02*
G01X0260480Y-1642640D01*
G01X0260480Y-1642640D02*
G01X0254860Y-1642640D01*
G01X0254860Y-1642640D02*
G01X0251110Y-1644520D01*
G01X0251110Y-1644520D02*
G01X0247360Y-1648260D01*
G01X0247360Y-1648260D02*
G01X0245490Y-1653890D01*
G01X0245490Y-1653890D02*
G01X0245490Y-1657640D01*
G01X0245490Y-1657640D02*
G01X0247360Y-1663260D01*
G01X0247360Y-1663260D02*
G01X0251110Y-1667010D01*
G01X0251110Y-1667010D02*
G01X0254860Y-1668880D01*
G01X0254860Y-1668880D02*
G01X0260480Y-1668880D01*
G01X0260480Y-1668880D02*
G01X0264230Y-1667010D01*
G01X0264230Y-1667010D02*
G01X0267980Y-1663260D01*
G01X0304720Y-1635140D02*
G01X0300970Y-1631390D01*
G01X0300970Y-1631390D02*
G01X0295350Y-1629520D01*
G01X0295350Y-1629520D02*
G01X0287850Y-1629520D01*
G01X0287850Y-1629520D02*
G01X0282230Y-1631390D01*
G01X0282230Y-1631390D02*
G01X0278480Y-1635140D01*
G01X0278480Y-1635140D02*
G01X0278480Y-1638890D01*
G01X0278480Y-1638890D02*
G01X0280350Y-1642640D01*
G01X0280350Y-1642640D02*
G01X0282230Y-1644520D01*
G01X0282230Y-1644520D02*
G01X0285970Y-1646390D01*
G01X0285970Y-1646390D02*
G01X0297220Y-1650140D01*
G01X0297220Y-1650140D02*
G01X0300970Y-1652010D01*
G01X0300970Y-1652010D02*
G01X0302840Y-1653890D01*
G01X0302840Y-1653890D02*
G01X0304720Y-1657640D01*
G01X0304720Y-1657640D02*
G01X0304720Y-1663260D01*
G01X0304720Y-1663260D02*
G01X0300970Y-1667010D01*
G01X0300970Y-1667010D02*
G01X0295350Y-1668880D01*
G01X0295350Y-1668880D02*
G01X0287850Y-1668880D01*
G01X0287850Y-1668880D02*
G01X0282230Y-1667010D01*
G01X0282230Y-1667010D02*
G01X0278480Y-1663260D01*
G01X0319150Y-1629520D02*
G01X0319150Y-1661380D01*
G01X0319150Y-1661380D02*
G01X0321030Y-1667010D01*
G01X0321030Y-1667010D02*
G01X0324770Y-1668880D01*
G01X0324770Y-1668880D02*
G01X0328520Y-1668880D01*
G01X0313530Y-1642640D02*
G01X0326650Y-1642640D01*
G01X0334150Y-1642640D02*
G01X0334150Y-1661380D01*
G01X0334150Y-1661380D02*
G01X0336020Y-1667010D01*
G01X0336020Y-1667010D02*
G01X0339770Y-1668880D01*
G01X0339770Y-1668880D02*
G01X0345390Y-1668880D01*
G01X0345390Y-1668880D02*
G01X0349140Y-1667010D01*
G01X0349140Y-1667010D02*
G01X0354760Y-1661380D01*
G01X0354760Y-1642640D02*
G01X0354760Y-1668880D01*
G01X0387560Y-1629520D02*
G01X0387560Y-1668880D01*
G01X0387560Y-1648260D02*
G01X0383820Y-1644520D01*
G01X0383820Y-1644520D02*
G01X0380070Y-1642640D01*
G01X0380070Y-1642640D02*
G01X0374440Y-1642640D01*
G01X0374440Y-1642640D02*
G01X0370690Y-1644520D01*
G01X0370690Y-1644520D02*
G01X0366950Y-1648260D01*
G01X0366950Y-1648260D02*
G01X0365070Y-1653890D01*
G01X0365070Y-1653890D02*
G01X0365070Y-1657640D01*
G01X0365070Y-1657640D02*
G01X0366950Y-1663260D01*
G01X0366950Y-1663260D02*
G01X0370690Y-1667010D01*
G01X0370690Y-1667010D02*
G01X0374440Y-1668880D01*
G01X0374440Y-1668880D02*
G01X0380070Y-1668880D01*
G01X0380070Y-1668880D02*
G01X0383820Y-1667010D01*
G01X0383820Y-1667010D02*
G01X0387560Y-1663260D01*
G01X0401810Y-1629520D02*
G01X0403680Y-1631390D01*
G01X0403680Y-1631390D02*
G01X0405560Y-1629520D01*
G01X0405560Y-1629520D02*
G01X0403680Y-1627650D01*
G01X0403680Y-1627650D02*
G01X0401810Y-1629520D01*
G01X0403680Y-1642640D02*
G01X0403680Y-1668880D01*
G01X0421860Y-1642640D02*
G01X0418120Y-1644520D01*
G01X0418120Y-1644520D02*
G01X0414370Y-1648260D01*
G01X0414370Y-1648260D02*
G01X0412490Y-1653890D01*
G01X0412490Y-1653890D02*
G01X0412490Y-1657640D01*
G01X0412490Y-1657640D02*
G01X0414370Y-1663260D01*
G01X0414370Y-1663260D02*
G01X0418120Y-1667010D01*
G01X0418120Y-1667010D02*
G01X0421860Y-1668880D01*
G01X0421860Y-1668880D02*
G01X0427490Y-1668880D01*
G01X0427490Y-1668880D02*
G01X0431240Y-1667010D01*
G01X0431240Y-1667010D02*
G01X0434990Y-1663260D01*
G01X0434990Y-1663260D02*
G01X0436860Y-1657640D01*
G01X0436860Y-1657640D02*
G01X0436860Y-1653890D01*
G01X0436860Y-1653890D02*
G01X0434990Y-1648260D01*
G01X0434990Y-1648260D02*
G01X0431240Y-1644520D01*
G01X0431240Y-1644520D02*
G01X0427490Y-1642640D01*
G01X0427490Y-1642640D02*
G01X0421860Y-1642640D01*
G01X0447360Y-1665130D02*
G01X0445480Y-1667010D01*
G01X0445480Y-1667010D02*
G01X0447360Y-1668880D01*
G01X0447360Y-1668880D02*
G01X0449230Y-1667010D01*
G01X0449230Y-1667010D02*
G01X0447360Y-1665130D01*
G01X0480350Y-1648260D02*
G01X0476600Y-1644520D01*
G01X0476600Y-1644520D02*
G01X0472850Y-1642640D01*
G01X0472850Y-1642640D02*
G01X0467220Y-1642640D01*
G01X0467220Y-1642640D02*
G01X0463480Y-1644520D01*
G01X0463480Y-1644520D02*
G01X0459730Y-1648260D01*
G01X0459730Y-1648260D02*
G01X0457850Y-1653890D01*
G01X0457850Y-1653890D02*
G01X0457850Y-1657640D01*
G01X0457850Y-1657640D02*
G01X0459730Y-1663260D01*
G01X0459730Y-1663260D02*
G01X0463480Y-1667010D01*
G01X0463480Y-1667010D02*
G01X0467220Y-1668880D01*
G01X0467220Y-1668880D02*
G01X0472850Y-1668880D01*
G01X0472850Y-1668880D02*
G01X0476600Y-1667010D01*
G01X0476600Y-1667010D02*
G01X0480350Y-1663260D01*
G01X0498150Y-1642640D02*
G01X0494400Y-1644520D01*
G01X0494400Y-1644520D02*
G01X0490660Y-1648260D01*
G01X0490660Y-1648260D02*
G01X0488780Y-1653890D01*
G01X0488780Y-1653890D02*
G01X0488780Y-1657640D01*
G01X0488780Y-1657640D02*
G01X0490660Y-1663260D01*
G01X0490660Y-1663260D02*
G01X0494400Y-1667010D01*
G01X0494400Y-1667010D02*
G01X0498150Y-1668880D01*
G01X0498150Y-1668880D02*
G01X0503780Y-1668880D01*
G01X0503780Y-1668880D02*
G01X0507520Y-1667010D01*
G01X0507520Y-1667010D02*
G01X0511270Y-1663260D01*
G01X0511270Y-1663260D02*
G01X0513150Y-1657640D01*
G01X0513150Y-1657640D02*
G01X0513150Y-1653890D01*
G01X0513150Y-1653890D02*
G01X0511270Y-1648260D01*
G01X0511270Y-1648260D02*
G01X0507520Y-1644520D01*
G01X0507520Y-1644520D02*
G01X0503780Y-1642640D01*
G01X0503780Y-1642640D02*
G01X0498150Y-1642640D01*
G01X0521770Y-1642640D02*
G01X0521770Y-1668880D01*
G01X0521770Y-1650140D02*
G01X0527390Y-1644520D01*
G01X0527390Y-1644520D02*
G01X0531140Y-1642640D01*
G01X0531140Y-1642640D02*
G01X0536760Y-1642640D01*
G01X0536760Y-1642640D02*
G01X0540510Y-1644520D01*
G01X0540510Y-1644520D02*
G01X0542390Y-1650140D01*
G01X0542390Y-1650140D02*
G01X0542390Y-1668880D01*
G01X0542390Y-1650140D02*
G01X0548010Y-1644520D01*
G01X0548010Y-1644520D02*
G01X0551760Y-1642640D01*
G01X0551760Y-1642640D02*
G01X0557380Y-1642640D01*
G01X0557380Y-1642640D02*
G01X0561130Y-1644520D01*
G01X0561130Y-1644520D02*
G01X0563000Y-1650140D01*
G01X0563000Y-1650140D02*
G01X0563000Y-1668880D01*
G01X-079720Y-1245530D02*
G01X-081590Y-1241780D01*
G01X-081590Y-1241780D02*
G01X-085340Y-1238030D01*
G01X-085340Y-1238030D02*
G01X-089090Y-1236160D01*
G01X-089090Y-1236160D02*
G01X-096590Y-1236160D01*
G01X-096590Y-1236160D02*
G01X-100340Y-1238030D01*
G01X-100340Y-1238030D02*
G01X-104090Y-1241780D01*
G01X-104090Y-1241780D02*
G01X-105960Y-1245530D01*
G01X-105960Y-1245530D02*
G01X-107840Y-1251150D01*
G01X-107840Y-1251150D02*
G01X-107840Y-1260520D01*
G01X-107840Y-1260520D02*
G01X-105960Y-1266150D01*
G01X-105960Y-1266150D02*
G01X-104090Y-1269900D01*
G01X-104090Y-1269900D02*
G01X-100340Y-1273650D01*
G01X-100340Y-1273650D02*
G01X-096590Y-1275520D01*
G01X-096590Y-1275520D02*
G01X-089090Y-1275520D01*
G01X-089090Y-1275520D02*
G01X-085340Y-1273650D01*
G01X-085340Y-1273650D02*
G01X-081590Y-1269900D01*
G01X-081590Y-1269900D02*
G01X-079720Y-1266150D01*
G01X-079720Y-1266150D02*
G01X-079720Y-1260520D01*
G01X-089090Y-1260520D02*
G01X-079720Y-1260520D01*
G01X-070720Y-1236160D02*
G01X-070720Y-1275520D01*
G01X-070720Y-1236160D02*
G01X-053850Y-1236160D01*
G01X-053850Y-1236160D02*
G01X-048230Y-1238030D01*
G01X-048230Y-1238030D02*
G01X-046360Y-1239910D01*
G01X-046360Y-1239910D02*
G01X-044480Y-1243660D01*
G01X-044480Y-1243660D02*
G01X-044480Y-1247400D01*
G01X-044480Y-1247400D02*
G01X-046360Y-1251150D01*
G01X-046360Y-1251150D02*
G01X-048230Y-1253030D01*
G01X-048230Y-1253030D02*
G01X-053850Y-1254900D01*
G01X-053850Y-1254900D02*
G01X-070720Y-1254900D01*
G01X-057600Y-1254900D02*
G01X-044480Y-1275520D01*
G01X-005680Y-1275520D02*
G01X-020680Y-1236160D01*
G01X-020680Y-1236160D02*
G01X-035670Y-1275520D01*
G01X-030050Y-1262400D02*
G01X-011300Y-1262400D01*
G01X0003500Y-1236160D02*
G01X0003500Y-1275520D01*
G01X0003500Y-1236160D02*
G01X0029740Y-1275520D01*
G01X0029740Y-1236160D02*
G01X0029740Y-1275520D01*
G01X0040610Y-1236160D02*
G01X0040610Y-1275520D01*
G01X0040610Y-1236160D02*
G01X0053740Y-1236160D01*
G01X0053740Y-1236160D02*
G01X0059360Y-1238030D01*
G01X0059360Y-1238030D02*
G01X0063110Y-1241780D01*
G01X0063110Y-1241780D02*
G01X0064980Y-1245530D01*
G01X0064980Y-1245530D02*
G01X0066860Y-1251150D01*
G01X0066860Y-1251150D02*
G01X0066860Y-1260520D01*
G01X0066860Y-1260520D02*
G01X0064980Y-1266150D01*
G01X0064980Y-1266150D02*
G01X0063110Y-1269900D01*
G01X0063110Y-1269900D02*
G01X0059360Y-1273650D01*
G01X0059360Y-1273650D02*
G01X0053740Y-1275520D01*
G01X0053740Y-1275520D02*
G01X0040610Y-1275520D01*
G01X0106590Y-1236160D02*
G01X0106590Y-1275520D01*
G01X0114840Y-1236160D02*
G01X0114840Y-1275520D01*
G01X0114840Y-1236160D02*
G01X0127960Y-1236160D01*
G01X0127960Y-1236160D02*
G01X0133580Y-1238030D01*
G01X0133580Y-1238030D02*
G01X0137330Y-1241780D01*
G01X0137330Y-1241780D02*
G01X0139210Y-1245530D01*
G01X0139210Y-1245530D02*
G01X0141080Y-1251150D01*
G01X0141080Y-1251150D02*
G01X0141080Y-1260520D01*
G01X0141080Y-1260520D02*
G01X0139210Y-1266150D01*
G01X0139210Y-1266150D02*
G01X0137330Y-1269900D01*
G01X0137330Y-1269900D02*
G01X0133580Y-1273650D01*
G01X0133580Y-1273650D02*
G01X0127960Y-1275520D01*
G01X0127960Y-1275520D02*
G01X0114840Y-1275520D01*
G01X0174260Y-1236160D02*
G01X0149890Y-1236160D01*
G01X0149890Y-1236160D02*
G01X0149890Y-1275520D01*
G01X0149890Y-1275520D02*
G01X0174260Y-1275520D01*
G01X0149890Y-1254900D02*
G01X0164880Y-1254900D01*
G01X0210810Y-1275520D02*
G01X0195810Y-1236160D01*
G01X0195810Y-1236160D02*
G01X0180820Y-1275520D01*
G01X0186440Y-1262400D02*
G01X0205180Y-1262400D01*
G01X0277160Y-1241780D02*
G01X0273410Y-1238030D01*
G01X0273410Y-1238030D02*
G01X0267790Y-1236160D01*
G01X0267790Y-1236160D02*
G01X0260290Y-1236160D01*
G01X0260290Y-1236160D02*
G01X0254670Y-1238030D01*
G01X0254670Y-1238030D02*
G01X0250920Y-1241780D01*
G01X0250920Y-1241780D02*
G01X0250920Y-1245530D01*
G01X0250920Y-1245530D02*
G01X0252790Y-1249280D01*
G01X0252790Y-1249280D02*
G01X0254670Y-1251150D01*
G01X0254670Y-1251150D02*
G01X0258420Y-1253030D01*
G01X0258420Y-1253030D02*
G01X0269660Y-1256780D01*
G01X0269660Y-1256780D02*
G01X0273410Y-1258650D01*
G01X0273410Y-1258650D02*
G01X0275290Y-1260520D01*
G01X0275290Y-1260520D02*
G01X0277160Y-1264270D01*
G01X0277160Y-1264270D02*
G01X0277160Y-1269900D01*
G01X0277160Y-1269900D02*
G01X0273410Y-1273650D01*
G01X0273410Y-1273650D02*
G01X0267790Y-1275520D01*
G01X0267790Y-1275520D02*
G01X0260290Y-1275520D01*
G01X0260290Y-1275520D02*
G01X0254670Y-1273650D01*
G01X0254670Y-1273650D02*
G01X0250920Y-1269900D01*
G01X0299090Y-1236160D02*
G01X0299090Y-1275520D01*
G01X0285970Y-1236160D02*
G01X0312210Y-1236160D01*
G01X0316900Y-1236160D02*
G01X0316900Y-1264270D01*
G01X0316900Y-1264270D02*
G01X0318770Y-1269900D01*
G01X0318770Y-1269900D02*
G01X0322520Y-1273650D01*
G01X0322520Y-1273650D02*
G01X0328140Y-1275520D01*
G01X0328140Y-1275520D02*
G01X0331890Y-1275520D01*
G01X0331890Y-1275520D02*
G01X0337510Y-1273650D01*
G01X0337510Y-1273650D02*
G01X0341260Y-1269900D01*
G01X0341260Y-1269900D02*
G01X0343140Y-1264270D01*
G01X0343140Y-1264270D02*
G01X0343140Y-1236160D01*
G01X0354010Y-1236160D02*
G01X0354010Y-1275520D01*
G01X0354010Y-1236160D02*
G01X0367130Y-1236160D01*
G01X0367130Y-1236160D02*
G01X0372750Y-1238030D01*
G01X0372750Y-1238030D02*
G01X0376500Y-1241780D01*
G01X0376500Y-1241780D02*
G01X0378370Y-1245530D01*
G01X0378370Y-1245530D02*
G01X0380250Y-1251150D01*
G01X0380250Y-1251150D02*
G01X0380250Y-1260520D01*
G01X0380250Y-1260520D02*
G01X0378370Y-1266150D01*
G01X0378370Y-1266150D02*
G01X0376500Y-1269900D01*
G01X0376500Y-1269900D02*
G01X0372750Y-1273650D01*
G01X0372750Y-1273650D02*
G01X0367130Y-1275520D01*
G01X0367130Y-1275520D02*
G01X0354010Y-1275520D01*
G01X0389060Y-1236160D02*
G01X0389060Y-1275520D01*
G01X0408550Y-1236160D02*
G01X0404800Y-1238030D01*
G01X0404800Y-1238030D02*
G01X0401060Y-1241780D01*
G01X0401060Y-1241780D02*
G01X0399180Y-1245530D01*
G01X0399180Y-1245530D02*
G01X0397310Y-1251150D01*
G01X0397310Y-1251150D02*
G01X0397310Y-1260520D01*
G01X0397310Y-1260520D02*
G01X0399180Y-1266150D01*
G01X0399180Y-1266150D02*
G01X0401060Y-1269900D01*
G01X0401060Y-1269900D02*
G01X0404800Y-1273650D01*
G01X0404800Y-1273650D02*
G01X0408550Y-1275520D01*
G01X0408550Y-1275520D02*
G01X0416050Y-1275520D01*
G01X0416050Y-1275520D02*
G01X0419800Y-1273650D01*
G01X0419800Y-1273650D02*
G01X0423550Y-1269900D01*
G01X0423550Y-1269900D02*
G01X0425420Y-1266150D01*
G01X0425420Y-1266150D02*
G01X0427300Y-1260520D01*
G01X0427300Y-1260520D02*
G01X0427300Y-1251150D01*
G01X0427300Y-1251150D02*
G01X0425420Y-1245530D01*
G01X0425420Y-1245530D02*
G01X0423550Y-1241780D01*
G01X0423550Y-1241780D02*
G01X0419800Y-1238030D01*
G01X0419800Y-1238030D02*
G01X0416050Y-1236160D01*
G01X0416050Y-1236160D02*
G01X0408550Y-1236160D01*
G01X0440230Y-1273650D02*
G01X0438350Y-1275520D01*
G01X0438350Y-1275520D02*
G01X0436480Y-1273650D01*
G01X0436480Y-1273650D02*
G01X0438350Y-1271770D01*
G01X0438350Y-1271770D02*
G01X0440230Y-1273650D01*
G01X0440230Y-1273650D02*
G01X0440230Y-1277390D01*
G01X0440230Y-1277390D02*
G01X0438350Y-1281140D01*
G01X0438350Y-1281140D02*
G01X0436480Y-1283020D01*
G01X0479780Y-1236160D02*
G01X0479780Y-1275520D01*
G01X0488030Y-1236160D02*
G01X0488030Y-1275520D01*
G01X0488030Y-1236160D02*
G01X0514270Y-1275520D01*
G01X0514270Y-1236160D02*
G01X0514270Y-1275520D01*
G01X0553250Y-1245530D02*
G01X0551380Y-1241780D01*
G01X0551380Y-1241780D02*
G01X0547630Y-1238030D01*
G01X0547630Y-1238030D02*
G01X0543880Y-1236160D01*
G01X0543880Y-1236160D02*
G01X0536380Y-1236160D01*
G01X0536380Y-1236160D02*
G01X0532630Y-1238030D01*
G01X0532630Y-1238030D02*
G01X0528890Y-1241780D01*
G01X0528890Y-1241780D02*
G01X0527010Y-1245530D01*
G01X0527010Y-1245530D02*
G01X0525140Y-1251150D01*
G01X0525140Y-1251150D02*
G01X0525140Y-1260520D01*
G01X0525140Y-1260520D02*
G01X0527010Y-1266150D01*
G01X0527010Y-1266150D02*
G01X0528890Y-1269900D01*
G01X0528890Y-1269900D02*
G01X0532630Y-1273650D01*
G01X0532630Y-1273650D02*
G01X0536380Y-1275520D01*
G01X0536380Y-1275520D02*
G01X0543880Y-1275520D01*
G01X0543880Y-1275520D02*
G01X0547630Y-1273650D01*
G01X0547630Y-1273650D02*
G01X0551380Y-1269900D01*
G01X0551380Y-1269900D02*
G01X0553250Y-1266150D01*
G01X0566190Y-1271770D02*
G01X0564310Y-1273650D01*
G01X0564310Y-1273650D02*
G01X0566190Y-1275520D01*
G01X0566190Y-1275520D02*
G01X0568060Y-1273650D01*
G01X0568060Y-1273650D02*
G01X0566190Y-1271770D01*
G01X-107840Y-1163040D02*
G01X-095180Y-1163040D01*
G01X-095180Y-1163040D02*
G01X-090970Y-1161630D01*
G01X-090970Y-1161630D02*
G01X-089560Y-1160230D01*
G01X-089560Y-1160230D02*
G01X-088150Y-1157410D01*
G01X-088150Y-1157410D02*
G01X-088150Y-1153200D01*
G01X-088150Y-1153200D02*
G01X-089560Y-1150390D01*
G01X-089560Y-1150390D02*
G01X-090970Y-1148980D01*
G01X-090970Y-1148980D02*
G01X-095180Y-1147570D01*
G01X-095180Y-1147570D02*
G01X-107840Y-1147570D01*
G01X-107840Y-1147570D02*
G01X-107840Y-1177090D01*
G01X-060460Y-1154600D02*
G01X-061870Y-1151790D01*
G01X-061870Y-1151790D02*
G01X-064680Y-1148980D01*
G01X-064680Y-1148980D02*
G01X-067490Y-1147570D01*
G01X-067490Y-1147570D02*
G01X-073110Y-1147570D01*
G01X-073110Y-1147570D02*
G01X-075920Y-1148980D01*
G01X-075920Y-1148980D02*
G01X-078740Y-1151790D01*
G01X-078740Y-1151790D02*
G01X-080140Y-1154600D01*
G01X-080140Y-1154600D02*
G01X-081550Y-1158820D01*
G01X-081550Y-1158820D02*
G01X-081550Y-1165850D01*
G01X-081550Y-1165850D02*
G01X-080140Y-1170070D01*
G01X-080140Y-1170070D02*
G01X-078740Y-1172880D01*
G01X-078740Y-1172880D02*
G01X-075920Y-1175690D01*
G01X-075920Y-1175690D02*
G01X-073110Y-1177090D01*
G01X-073110Y-1177090D02*
G01X-067490Y-1177090D01*
G01X-067490Y-1177090D02*
G01X-064680Y-1175690D01*
G01X-064680Y-1175690D02*
G01X-061870Y-1172880D01*
G01X-061870Y-1172880D02*
G01X-060460Y-1170070D01*
G01X-052170Y-1147570D02*
G01X-052170Y-1177090D01*
G01X-052170Y-1147570D02*
G01X-039510Y-1147570D01*
G01X-039510Y-1147570D02*
G01X-035300Y-1148980D01*
G01X-035300Y-1148980D02*
G01X-033890Y-1150390D01*
G01X-033890Y-1150390D02*
G01X-032490Y-1153200D01*
G01X-032490Y-1153200D02*
G01X-032490Y-1156010D01*
G01X-032490Y-1156010D02*
G01X-033890Y-1158820D01*
G01X-033890Y-1158820D02*
G01X-035300Y-1160230D01*
G01X-035300Y-1160230D02*
G01X-039510Y-1161630D01*
G01X-052170Y-1161630D02*
G01X-039510Y-1161630D01*
G01X-039510Y-1161630D02*
G01X-035300Y-1163040D01*
G01X-035300Y-1163040D02*
G01X-033890Y-1164440D01*
G01X-033890Y-1164440D02*
G01X-032490Y-1167250D01*
G01X-032490Y-1167250D02*
G01X-032490Y-1171470D01*
G01X-032490Y-1171470D02*
G01X-033890Y-1174280D01*
G01X-033890Y-1174280D02*
G01X-035300Y-1175690D01*
G01X-035300Y-1175690D02*
G01X-039510Y-1177090D01*
G01X-039510Y-1177090D02*
G01X-052170Y-1177090D01*
G01X0019810Y-1177090D02*
G01X0008560Y-1147570D01*
G01X0008560Y-1147570D02*
G01X-002680Y-1177090D01*
G01X0001540Y-1167250D02*
G01X0015590Y-1167250D01*
G01X0026700Y-1147570D02*
G01X0026700Y-1177090D01*
G01X0026700Y-1147570D02*
G01X0039350Y-1147570D01*
G01X0039350Y-1147570D02*
G01X0043570Y-1148980D01*
G01X0043570Y-1148980D02*
G01X0044970Y-1150390D01*
G01X0044970Y-1150390D02*
G01X0046380Y-1153200D01*
G01X0046380Y-1153200D02*
G01X0046380Y-1156010D01*
G01X0046380Y-1156010D02*
G01X0044970Y-1158820D01*
G01X0044970Y-1158820D02*
G01X0043570Y-1160230D01*
G01X0043570Y-1160230D02*
G01X0039350Y-1161630D01*
G01X0039350Y-1161630D02*
G01X0026700Y-1161630D01*
G01X0036540Y-1161630D02*
G01X0046380Y-1177090D01*
G01X0062830Y-1147570D02*
G01X0062830Y-1177090D01*
G01X0052990Y-1147570D02*
G01X0072670Y-1147570D01*
G01X0076180Y-1147570D02*
G01X0083210Y-1177090D01*
G01X0090240Y-1147570D02*
G01X0083210Y-1177090D01*
G01X0090240Y-1147570D02*
G01X0097270Y-1177090D01*
G01X0104300Y-1147570D02*
G01X0097270Y-1177090D01*
G01X0118640Y-1147570D02*
G01X0115820Y-1148980D01*
G01X0115820Y-1148980D02*
G01X0113010Y-1151790D01*
G01X0113010Y-1151790D02*
G01X0111610Y-1154600D01*
G01X0111610Y-1154600D02*
G01X0110200Y-1158820D01*
G01X0110200Y-1158820D02*
G01X0110200Y-1165850D01*
G01X0110200Y-1165850D02*
G01X0111610Y-1170070D01*
G01X0111610Y-1170070D02*
G01X0113010Y-1172880D01*
G01X0113010Y-1172880D02*
G01X0115820Y-1175690D01*
G01X0115820Y-1175690D02*
G01X0118640Y-1177090D01*
G01X0118640Y-1177090D02*
G01X0124260Y-1177090D01*
G01X0124260Y-1177090D02*
G01X0127070Y-1175690D01*
G01X0127070Y-1175690D02*
G01X0129880Y-1172880D01*
G01X0129880Y-1172880D02*
G01X0131290Y-1170070D01*
G01X0131290Y-1170070D02*
G01X0132690Y-1165850D01*
G01X0132690Y-1165850D02*
G01X0132690Y-1158820D01*
G01X0132690Y-1158820D02*
G01X0131290Y-1154600D01*
G01X0131290Y-1154600D02*
G01X0129880Y-1151790D01*
G01X0129880Y-1151790D02*
G01X0127070Y-1148980D01*
G01X0127070Y-1148980D02*
G01X0124260Y-1147570D01*
G01X0124260Y-1147570D02*
G01X0118640Y-1147570D01*
G01X0139580Y-1147570D02*
G01X0139580Y-1177090D01*
G01X0139580Y-1147570D02*
G01X0152230Y-1147570D01*
G01X0152230Y-1147570D02*
G01X0156450Y-1148980D01*
G01X0156450Y-1148980D02*
G01X0157860Y-1150390D01*
G01X0157860Y-1150390D02*
G01X0159260Y-1153200D01*
G01X0159260Y-1153200D02*
G01X0159260Y-1156010D01*
G01X0159260Y-1156010D02*
G01X0157860Y-1158820D01*
G01X0157860Y-1158820D02*
G01X0156450Y-1160230D01*
G01X0156450Y-1160230D02*
G01X0152230Y-1161630D01*
G01X0152230Y-1161630D02*
G01X0139580Y-1161630D01*
G01X0149420Y-1161630D02*
G01X0159260Y-1177090D01*
G01X0165870Y-1147570D02*
G01X0165870Y-1177090D01*
G01X0185550Y-1147570D02*
G01X0165870Y-1167250D01*
G01X0172900Y-1160230D02*
G01X0185550Y-1177090D01*
G01X0193560Y-1157410D02*
G01X0192160Y-1158820D01*
G01X0192160Y-1158820D02*
G01X0193560Y-1160230D01*
G01X0193560Y-1160230D02*
G01X0194970Y-1158820D01*
G01X0194970Y-1158820D02*
G01X0193560Y-1157410D01*
G01X0193560Y-1174280D02*
G01X0192160Y-1175690D01*
G01X0192160Y-1175690D02*
G01X0193560Y-1177090D01*
G01X0193560Y-1177090D02*
G01X0194970Y-1175690D01*
G01X0194970Y-1175690D02*
G01X0193560Y-1174280D01*
G01X1601380Y-1168760D02*
G01X1599510Y-1165010D01*
G01X1599510Y-1165010D02*
G01X1595760Y-1161260D01*
G01X1595760Y-1161260D02*
G01X1592010Y-1159390D01*
G01X1592010Y-1159390D02*
G01X1584510Y-1159390D01*
G01X1584510Y-1159390D02*
G01X1580770Y-1161260D01*
G01X1580770Y-1161260D02*
G01X1577020Y-1165010D01*
G01X1577020Y-1165010D02*
G01X1575140Y-1168760D01*
G01X1575140Y-1168760D02*
G01X1573270Y-1174380D01*
G01X1573270Y-1174380D02*
G01X1573270Y-1183750D01*
G01X1573270Y-1183750D02*
G01X1575140Y-1189380D01*
G01X1575140Y-1189380D02*
G01X1577020Y-1193130D01*
G01X1577020Y-1193130D02*
G01X1580770Y-1196870D01*
G01X1580770Y-1196870D02*
G01X1584510Y-1198750D01*
G01X1584510Y-1198750D02*
G01X1592010Y-1198750D01*
G01X1592010Y-1198750D02*
G01X1595760Y-1196870D01*
G01X1595760Y-1196870D02*
G01X1599510Y-1193130D01*
G01X1599510Y-1193130D02*
G01X1601380Y-1189380D01*
G01X1623690Y-1159390D02*
G01X1619940Y-1161260D01*
G01X1619940Y-1161260D02*
G01X1616190Y-1165010D01*
G01X1616190Y-1165010D02*
G01X1614320Y-1168760D01*
G01X1614320Y-1168760D02*
G01X1612440Y-1174380D01*
G01X1612440Y-1174380D02*
G01X1612440Y-1183750D01*
G01X1612440Y-1183750D02*
G01X1614320Y-1189380D01*
G01X1614320Y-1189380D02*
G01X1616190Y-1193130D01*
G01X1616190Y-1193130D02*
G01X1619940Y-1196870D01*
G01X1619940Y-1196870D02*
G01X1623690Y-1198750D01*
G01X1623690Y-1198750D02*
G01X1631190Y-1198750D01*
G01X1631190Y-1198750D02*
G01X1634930Y-1196870D01*
G01X1634930Y-1196870D02*
G01X1638680Y-1193130D01*
G01X1638680Y-1193130D02*
G01X1640560Y-1189380D01*
G01X1640560Y-1189380D02*
G01X1642430Y-1183750D01*
G01X1642430Y-1183750D02*
G01X1642430Y-1174380D01*
G01X1642430Y-1174380D02*
G01X1640560Y-1168760D01*
G01X1640560Y-1168760D02*
G01X1638680Y-1165010D01*
G01X1638680Y-1165010D02*
G01X1634930Y-1161260D01*
G01X1634930Y-1161260D02*
G01X1631190Y-1159390D01*
G01X1631190Y-1159390D02*
G01X1623690Y-1159390D01*
G01X1651620Y-1159390D02*
G01X1651620Y-1198750D01*
G01X1651620Y-1159390D02*
G01X1666610Y-1198750D01*
G01X1681610Y-1159390D02*
G01X1666610Y-1198750D01*
G01X1681610Y-1159390D02*
G01X1681610Y-1198750D01*
G01X1692850Y-1180000D02*
G01X1709720Y-1180000D01*
G01X1709720Y-1180000D02*
G01X1715340Y-1178130D01*
G01X1715340Y-1178130D02*
G01X1717220Y-1176260D01*
G01X1717220Y-1176260D02*
G01X1719090Y-1172510D01*
G01X1719090Y-1172510D02*
G01X1719090Y-1166880D01*
G01X1719090Y-1166880D02*
G01X1717220Y-1163140D01*
G01X1717220Y-1163140D02*
G01X1715340Y-1161260D01*
G01X1715340Y-1161260D02*
G01X1709720Y-1159390D01*
G01X1709720Y-1159390D02*
G01X1692850Y-1159390D01*
G01X1692850Y-1159390D02*
G01X1692850Y-1198750D01*
G01X1757890Y-1198750D02*
G01X1742900Y-1159390D01*
G01X1742900Y-1159390D02*
G01X1727900Y-1198750D01*
G01X1733530Y-1185630D02*
G01X1752270Y-1185630D01*
G01X1767080Y-1159390D02*
G01X1767080Y-1198750D01*
G01X1767080Y-1159390D02*
G01X1793320Y-1198750D01*
G01X1793320Y-1159390D02*
G01X1793320Y-1198750D01*
G01X1804190Y-1159390D02*
G01X1819180Y-1178130D01*
G01X1819180Y-1178130D02*
G01X1819180Y-1198750D01*
G01X1834180Y-1159390D02*
G01X1819180Y-1178130D01*
G01X1841110Y-1172510D02*
G01X1839240Y-1174380D01*
G01X1839240Y-1174380D02*
G01X1841110Y-1176260D01*
G01X1841110Y-1176260D02*
G01X1842990Y-1174380D01*
G01X1842990Y-1174380D02*
G01X1841110Y-1172510D01*
G01X1841110Y-1195000D02*
G01X1839240Y-1196870D01*
G01X1839240Y-1196870D02*
G01X1841110Y-1198750D01*
G01X1841110Y-1198750D02*
G01X1842990Y-1196870D01*
G01X1842990Y-1196870D02*
G01X1841110Y-1195000D01*
G01X1586390Y-1474350D02*
G01X1586390Y-1513710D01*
G01X1573270Y-1474350D02*
G01X1599510Y-1474350D01*
G01X1604190Y-1474350D02*
G01X1604190Y-1513710D01*
G01X1625560Y-1474350D02*
G01X1625560Y-1513710D01*
G01X1612440Y-1474350D02*
G01X1638680Y-1474350D01*
G01X1643370Y-1474350D02*
G01X1643370Y-1513710D01*
G01X1643370Y-1513710D02*
G01X1665860Y-1513710D01*
G01X1694540Y-1474350D02*
G01X1670170Y-1474350D01*
G01X1670170Y-1474350D02*
G01X1670170Y-1513710D01*
G01X1670170Y-1513710D02*
G01X1694540Y-1513710D01*
G01X1670170Y-1493090D02*
G01X1685170Y-1493090D01*
G01X1702970Y-1487470D02*
G01X1701100Y-1489340D01*
G01X1701100Y-1489340D02*
G01X1702970Y-1491220D01*
G01X1702970Y-1491220D02*
G01X1704850Y-1489340D01*
G01X1704850Y-1489340D02*
G01X1702970Y-1487470D01*
G01X1702970Y-1509960D02*
G01X1701100Y-1511830D01*
G01X1701100Y-1511830D02*
G01X1702970Y-1513710D01*
G01X1702970Y-1513710D02*
G01X1704850Y-1511830D01*
G01X1704850Y-1511830D02*
G01X1702970Y-1509960D01*
G01X1573270Y-1789310D02*
G01X1573270Y-1828670D01*
G01X1573270Y-1789310D02*
G01X1586390Y-1789310D01*
G01X1586390Y-1789310D02*
G01X1592010Y-1791180D01*
G01X1592010Y-1791180D02*
G01X1595760Y-1794930D01*
G01X1595760Y-1794930D02*
G01X1597630Y-1798680D01*
G01X1597630Y-1798680D02*
G01X1599510Y-1804300D01*
G01X1599510Y-1804300D02*
G01X1599510Y-1813670D01*
G01X1599510Y-1813670D02*
G01X1597630Y-1819300D01*
G01X1597630Y-1819300D02*
G01X1595760Y-1823050D01*
G01X1595760Y-1823050D02*
G01X1592010Y-1826790D01*
G01X1592010Y-1826790D02*
G01X1586390Y-1828670D01*
G01X1586390Y-1828670D02*
G01X1573270Y-1828670D01*
G01X1608320Y-1789310D02*
G01X1608320Y-1828670D01*
G01X1608320Y-1789310D02*
G01X1625190Y-1789310D01*
G01X1625190Y-1789310D02*
G01X1630810Y-1791180D01*
G01X1630810Y-1791180D02*
G01X1632680Y-1793060D01*
G01X1632680Y-1793060D02*
G01X1634560Y-1796810D01*
G01X1634560Y-1796810D02*
G01X1634560Y-1800550D01*
G01X1634560Y-1800550D02*
G01X1632680Y-1804300D01*
G01X1632680Y-1804300D02*
G01X1630810Y-1806180D01*
G01X1630810Y-1806180D02*
G01X1625190Y-1808050D01*
G01X1625190Y-1808050D02*
G01X1608320Y-1808050D01*
G01X1621440Y-1808050D02*
G01X1634560Y-1828670D01*
G01X1673360Y-1828670D02*
G01X1658360Y-1789310D01*
G01X1658360Y-1789310D02*
G01X1643370Y-1828670D01*
G01X1648990Y-1815550D02*
G01X1667740Y-1815550D01*
G01X1682540Y-1789310D02*
G01X1691920Y-1828670D01*
G01X1701290Y-1789310D02*
G01X1691920Y-1828670D01*
G01X1701290Y-1789310D02*
G01X1710660Y-1828670D01*
G01X1720030Y-1789310D02*
G01X1710660Y-1828670D01*
G01X1727900Y-1789310D02*
G01X1727900Y-1828670D01*
G01X1727900Y-1789310D02*
G01X1754140Y-1828670D01*
G01X1754140Y-1789310D02*
G01X1754140Y-1828670D01*
G01X1766890Y-1802430D02*
G01X1765020Y-1804300D01*
G01X1765020Y-1804300D02*
G01X1766890Y-1806180D01*
G01X1766890Y-1806180D02*
G01X1768760Y-1804300D01*
G01X1768760Y-1804300D02*
G01X1766890Y-1802430D01*
G01X1766890Y-1824920D02*
G01X1765020Y-1826790D01*
G01X1765020Y-1826790D02*
G01X1766890Y-1828670D01*
G01X1766890Y-1828670D02*
G01X1768760Y-1826790D01*
G01X1768760Y-1826790D02*
G01X1766890Y-1824920D01*
G01X1573270Y-2104270D02*
G01X1573270Y-2143630D01*
G01X1607760Y-2109890D02*
G01X1604010Y-2106140D01*
G01X1604010Y-2106140D02*
G01X1598380Y-2104270D01*
G01X1598380Y-2104270D02*
G01X1590890Y-2104270D01*
G01X1590890Y-2104270D02*
G01X1585260Y-2106140D01*
G01X1585260Y-2106140D02*
G01X1581510Y-2109890D01*
G01X1581510Y-2109890D02*
G01X1581510Y-2113640D01*
G01X1581510Y-2113640D02*
G01X1583390Y-2117390D01*
G01X1583390Y-2117390D02*
G01X1585260Y-2119260D01*
G01X1585260Y-2119260D02*
G01X1589010Y-2121140D01*
G01X1589010Y-2121140D02*
G01X1600260Y-2124890D01*
G01X1600260Y-2124890D02*
G01X1604010Y-2126760D01*
G01X1604010Y-2126760D02*
G01X1605880Y-2128630D01*
G01X1605880Y-2128630D02*
G01X1607760Y-2132380D01*
G01X1607760Y-2132380D02*
G01X1607760Y-2138010D01*
G01X1607760Y-2138010D02*
G01X1604010Y-2141760D01*
G01X1604010Y-2141760D02*
G01X1598380Y-2143630D01*
G01X1598380Y-2143630D02*
G01X1590890Y-2143630D01*
G01X1590890Y-2143630D02*
G01X1585260Y-2141760D01*
G01X1585260Y-2141760D02*
G01X1581510Y-2138010D01*
G01X1642810Y-2109890D02*
G01X1639060Y-2106140D01*
G01X1639060Y-2106140D02*
G01X1633440Y-2104270D01*
G01X1633440Y-2104270D02*
G01X1625940Y-2104270D01*
G01X1625940Y-2104270D02*
G01X1620310Y-2106140D01*
G01X1620310Y-2106140D02*
G01X1616560Y-2109890D01*
G01X1616560Y-2109890D02*
G01X1616560Y-2113640D01*
G01X1616560Y-2113640D02*
G01X1618440Y-2117390D01*
G01X1618440Y-2117390D02*
G01X1620310Y-2119260D01*
G01X1620310Y-2119260D02*
G01X1624060Y-2121140D01*
G01X1624060Y-2121140D02*
G01X1635310Y-2124890D01*
G01X1635310Y-2124890D02*
G01X1639060Y-2126760D01*
G01X1639060Y-2126760D02*
G01X1640930Y-2128630D01*
G01X1640930Y-2128630D02*
G01X1642810Y-2132380D01*
G01X1642810Y-2132380D02*
G01X1642810Y-2138010D01*
G01X1642810Y-2138010D02*
G01X1639060Y-2141760D01*
G01X1639060Y-2141760D02*
G01X1633440Y-2143630D01*
G01X1633440Y-2143630D02*
G01X1625940Y-2143630D01*
G01X1625940Y-2143630D02*
G01X1620310Y-2141760D01*
G01X1620310Y-2141760D02*
G01X1616560Y-2138010D01*
G01X1651620Y-2104270D02*
G01X1651620Y-2132380D01*
G01X1651620Y-2132380D02*
G01X1653490Y-2138010D01*
G01X1653490Y-2138010D02*
G01X1657240Y-2141760D01*
G01X1657240Y-2141760D02*
G01X1662860Y-2143630D01*
G01X1662860Y-2143630D02*
G01X1666610Y-2143630D01*
G01X1666610Y-2143630D02*
G01X1672230Y-2141760D01*
G01X1672230Y-2141760D02*
G01X1675980Y-2138010D01*
G01X1675980Y-2138010D02*
G01X1677860Y-2132380D01*
G01X1677860Y-2132380D02*
G01X1677860Y-2104270D01*
G01X1713090Y-2104270D02*
G01X1688730Y-2104270D01*
G01X1688730Y-2104270D02*
G01X1688730Y-2143630D01*
G01X1688730Y-2143630D02*
G01X1713090Y-2143630D01*
G01X1688730Y-2123010D02*
G01X1703720Y-2123010D01*
G01X1721530Y-2117390D02*
G01X1719660Y-2119260D01*
G01X1719660Y-2119260D02*
G01X1721530Y-2121140D01*
G01X1721530Y-2121140D02*
G01X1723400Y-2119260D01*
G01X1723400Y-2119260D02*
G01X1721530Y-2117390D01*
G01X1721530Y-2139880D02*
G01X1719660Y-2141760D01*
G01X1719660Y-2141760D02*
G01X1721530Y-2143630D01*
G01X1721530Y-2143630D02*
G01X1723400Y-2141760D01*
G01X1723400Y-2141760D02*
G01X1721530Y-2139880D01*
G01X2045710Y-2104270D02*
G01X2045710Y-2143630D01*
G01X2045710Y-2104270D02*
G01X2058830Y-2104270D01*
G01X2058830Y-2104270D02*
G01X2064450Y-2106140D01*
G01X2064450Y-2106140D02*
G01X2068200Y-2109890D01*
G01X2068200Y-2109890D02*
G01X2070080Y-2113640D01*
G01X2070080Y-2113640D02*
G01X2071950Y-2119260D01*
G01X2071950Y-2119260D02*
G01X2071950Y-2128630D01*
G01X2071950Y-2128630D02*
G01X2070080Y-2134260D01*
G01X2070080Y-2134260D02*
G01X2068200Y-2138010D01*
G01X2068200Y-2138010D02*
G01X2064450Y-2141760D01*
G01X2064450Y-2141760D02*
G01X2058830Y-2143630D01*
G01X2058830Y-2143630D02*
G01X2045710Y-2143630D01*
G01X2110750Y-2143630D02*
G01X2095750Y-2104270D01*
G01X2095750Y-2104270D02*
G01X2080760Y-2143630D01*
G01X2086380Y-2130510D02*
G01X2105130Y-2130510D01*
G01X2133050Y-2104270D02*
G01X2133050Y-2143630D01*
G01X2119930Y-2104270D02*
G01X2146170Y-2104270D01*
G01X2175230Y-2104270D02*
G01X2150860Y-2104270D01*
G01X2150860Y-2104270D02*
G01X2150860Y-2143630D01*
G01X2150860Y-2143630D02*
G01X2175230Y-2143630D01*
G01X2150860Y-2123010D02*
G01X2165850Y-2123010D01*
G01X2183660Y-2117390D02*
G01X2181790Y-2119260D01*
G01X2181790Y-2119260D02*
G01X2183660Y-2121140D01*
G01X2183660Y-2121140D02*
G01X2185540Y-2119260D01*
G01X2185540Y-2119260D02*
G01X2183660Y-2117390D01*
G01X2183660Y-2139880D02*
G01X2181790Y-2141760D01*
G01X2181790Y-2141760D02*
G01X2183660Y-2143630D01*
G01X2183660Y-2143630D02*
G01X2185540Y-2141760D01*
G01X2185540Y-2141760D02*
G01X2183660Y-2139880D01*
G01X1758860Y-1283450D02*
G01X1779950Y-1283450D01*
G01X1779950Y-1283450D02*
G01X1786970Y-1281110D01*
G01X1786970Y-1281110D02*
G01X1789320Y-1278770D01*
G01X1789320Y-1278770D02*
G01X1791660Y-1274080D01*
G01X1791660Y-1274080D02*
G01X1791660Y-1267050D01*
G01X1791660Y-1267050D02*
G01X1789320Y-1262370D01*
G01X1789320Y-1262370D02*
G01X1786970Y-1260020D01*
G01X1786970Y-1260020D02*
G01X1779950Y-1257680D01*
G01X1779950Y-1257680D02*
G01X1758860Y-1257680D01*
G01X1758860Y-1257680D02*
G01X1758860Y-1306880D01*
G01X1830790Y-1274080D02*
G01X1830790Y-1306880D01*
G01X1830790Y-1281110D02*
G01X1826100Y-1276420D01*
G01X1826100Y-1276420D02*
G01X1821410Y-1274080D01*
G01X1821410Y-1274080D02*
G01X1814390Y-1274080D01*
G01X1814390Y-1274080D02*
G01X1809700Y-1276420D01*
G01X1809700Y-1276420D02*
G01X1805010Y-1281110D01*
G01X1805010Y-1281110D02*
G01X1802670Y-1288140D01*
G01X1802670Y-1288140D02*
G01X1802670Y-1292820D01*
G01X1802670Y-1292820D02*
G01X1805010Y-1299850D01*
G01X1805010Y-1299850D02*
G01X1809700Y-1304540D01*
G01X1809700Y-1304540D02*
G01X1814390Y-1306880D01*
G01X1814390Y-1306880D02*
G01X1821410Y-1306880D01*
G01X1821410Y-1306880D02*
G01X1826100Y-1304540D01*
G01X1826100Y-1304540D02*
G01X1830790Y-1299850D01*
G01X1843910Y-1274080D02*
G01X1843910Y-1306880D01*
G01X1843910Y-1288140D02*
G01X1846250Y-1281110D01*
G01X1846250Y-1281110D02*
G01X1850940Y-1276420D01*
G01X1850940Y-1276420D02*
G01X1855620Y-1274080D01*
G01X1855620Y-1274080D02*
G01X1862650Y-1274080D01*
G01X1895220Y-1274080D02*
G01X1895220Y-1306880D01*
G01X1895220Y-1281110D02*
G01X1890530Y-1276420D01*
G01X1890530Y-1276420D02*
G01X1885850Y-1274080D01*
G01X1885850Y-1274080D02*
G01X1878820Y-1274080D01*
G01X1878820Y-1274080D02*
G01X1874130Y-1276420D01*
G01X1874130Y-1276420D02*
G01X1869450Y-1281110D01*
G01X1869450Y-1281110D02*
G01X1867100Y-1288140D01*
G01X1867100Y-1288140D02*
G01X1867100Y-1292820D01*
G01X1867100Y-1292820D02*
G01X1869450Y-1299850D01*
G01X1869450Y-1299850D02*
G01X1874130Y-1304540D01*
G01X1874130Y-1304540D02*
G01X1878820Y-1306880D01*
G01X1878820Y-1306880D02*
G01X1885850Y-1306880D01*
G01X1885850Y-1306880D02*
G01X1890530Y-1304540D01*
G01X1890530Y-1304540D02*
G01X1895220Y-1299850D01*
G01X1908340Y-1257680D02*
G01X1908340Y-1306880D01*
G01X1918650Y-1257680D02*
G01X1918650Y-1306880D01*
G01X1957070Y-1274080D02*
G01X1957070Y-1306880D01*
G01X1957070Y-1281110D02*
G01X1952390Y-1276420D01*
G01X1952390Y-1276420D02*
G01X1947700Y-1274080D01*
G01X1947700Y-1274080D02*
G01X1940670Y-1274080D01*
G01X1940670Y-1274080D02*
G01X1935990Y-1276420D01*
G01X1935990Y-1276420D02*
G01X1931300Y-1281110D01*
G01X1931300Y-1281110D02*
G01X1928960Y-1288140D01*
G01X1928960Y-1288140D02*
G01X1928960Y-1292820D01*
G01X1928960Y-1292820D02*
G01X1931300Y-1299850D01*
G01X1931300Y-1299850D02*
G01X1935990Y-1304540D01*
G01X1935990Y-1304540D02*
G01X1940670Y-1306880D01*
G01X1940670Y-1306880D02*
G01X1947700Y-1306880D01*
G01X1947700Y-1306880D02*
G01X1952390Y-1304540D01*
G01X1952390Y-1304540D02*
G01X1957070Y-1299850D01*
G01X1970190Y-1274080D02*
G01X1995970Y-1306880D01*
G01X1995970Y-1274080D02*
G01X1970190Y-1306880D01*
G01X2010960Y-1304540D02*
G01X2008620Y-1306880D01*
G01X2008620Y-1306880D02*
G01X2006270Y-1304540D01*
G01X2006270Y-1304540D02*
G01X2008620Y-1302200D01*
G01X2008620Y-1302200D02*
G01X2010960Y-1304540D01*
G01X2010960Y-1304540D02*
G01X2010960Y-1309220D01*
G01X2010960Y-1309220D02*
G01X2008620Y-1313910D01*
G01X2008620Y-1313910D02*
G01X2006270Y-1316250D01*
G01X2060400Y-1257680D02*
G01X2060400Y-1306880D01*
G01X2070710Y-1274080D02*
G01X2070710Y-1306880D01*
G01X2070710Y-1283450D02*
G01X2077730Y-1276420D01*
G01X2077730Y-1276420D02*
G01X2082420Y-1274080D01*
G01X2082420Y-1274080D02*
G01X2089450Y-1274080D01*
G01X2089450Y-1274080D02*
G01X2094140Y-1276420D01*
G01X2094140Y-1276420D02*
G01X2096480Y-1283450D01*
G01X2096480Y-1283450D02*
G01X2096480Y-1306880D01*
G01X2137480Y-1281110D02*
G01X2132790Y-1276420D01*
G01X2132790Y-1276420D02*
G01X2128110Y-1274080D01*
G01X2128110Y-1274080D02*
G01X2121080Y-1274080D01*
G01X2121080Y-1274080D02*
G01X2116390Y-1276420D01*
G01X2116390Y-1276420D02*
G01X2111710Y-1281110D01*
G01X2111710Y-1281110D02*
G01X2109360Y-1288140D01*
G01X2109360Y-1288140D02*
G01X2109360Y-1292820D01*
G01X2109360Y-1292820D02*
G01X2111710Y-1299850D01*
G01X2111710Y-1299850D02*
G01X2116390Y-1304540D01*
G01X2116390Y-1304540D02*
G01X2121080Y-1306880D01*
G01X2121080Y-1306880D02*
G01X2128110Y-1306880D01*
G01X2128110Y-1306880D02*
G01X2132790Y-1304540D01*
G01X2132790Y-1304540D02*
G01X2137480Y-1299850D01*
G01X2150370Y-1302200D02*
G01X2148020Y-1304540D01*
G01X2148020Y-1304540D02*
G01X2150370Y-1306880D01*
G01X2150370Y-1306880D02*
G01X2152710Y-1304540D01*
G01X2152710Y-1304540D02*
G01X2150370Y-1302200D01*
G01X1783320Y-1530680D02*
G01X1752860Y-1530680D01*
G01X1752860Y-1530680D02*
G01X1752860Y-1579880D01*
G01X1752860Y-1579880D02*
G01X1783320Y-1579880D01*
G01X1752860Y-1554110D02*
G01X1771600Y-1554110D01*
G01X1791520Y-1547080D02*
G01X1791520Y-1579880D01*
G01X1791520Y-1556450D02*
G01X1798550Y-1549420D01*
G01X1798550Y-1549420D02*
G01X1803230Y-1547080D01*
G01X1803230Y-1547080D02*
G01X1810260Y-1547080D01*
G01X1810260Y-1547080D02*
G01X1814950Y-1549420D01*
G01X1814950Y-1549420D02*
G01X1817290Y-1556450D01*
G01X1817290Y-1556450D02*
G01X1817290Y-1579880D01*
G01X1817290Y-1556450D02*
G01X1824320Y-1549420D01*
G01X1824320Y-1549420D02*
G01X1829000Y-1547080D01*
G01X1829000Y-1547080D02*
G01X1836030Y-1547080D01*
G01X1836030Y-1547080D02*
G01X1840720Y-1549420D01*
G01X1840720Y-1549420D02*
G01X1843060Y-1556450D01*
G01X1843060Y-1556450D02*
G01X1843060Y-1579880D01*
G01X1863210Y-1530680D02*
G01X1865550Y-1533020D01*
G01X1865550Y-1533020D02*
G01X1867900Y-1530680D01*
G01X1867900Y-1530680D02*
G01X1865550Y-1528340D01*
G01X1865550Y-1528340D02*
G01X1863210Y-1530680D01*
G01X1865550Y-1547080D02*
G01X1865550Y-1579880D01*
G01X1904680Y-1554110D02*
G01X1900000Y-1549420D01*
G01X1900000Y-1549420D02*
G01X1895310Y-1547080D01*
G01X1895310Y-1547080D02*
G01X1888280Y-1547080D01*
G01X1888280Y-1547080D02*
G01X1883590Y-1549420D01*
G01X1883590Y-1549420D02*
G01X1878910Y-1554110D01*
G01X1878910Y-1554110D02*
G01X1876570Y-1561140D01*
G01X1876570Y-1561140D02*
G01X1876570Y-1565820D01*
G01X1876570Y-1565820D02*
G01X1878910Y-1572850D01*
G01X1878910Y-1572850D02*
G01X1883590Y-1577540D01*
G01X1883590Y-1577540D02*
G01X1888280Y-1579880D01*
G01X1888280Y-1579880D02*
G01X1895310Y-1579880D01*
G01X1895310Y-1579880D02*
G01X1900000Y-1577540D01*
G01X1900000Y-1577540D02*
G01X1904680Y-1572850D01*
G01X1956230Y-1542390D02*
G01X1956230Y-1540050D01*
G01X1956230Y-1540050D02*
G01X1958570Y-1535370D01*
G01X1958570Y-1535370D02*
G01X1960910Y-1533020D01*
G01X1960910Y-1533020D02*
G01X1965600Y-1530680D01*
G01X1965600Y-1530680D02*
G01X1974970Y-1530680D01*
G01X1974970Y-1530680D02*
G01X1979660Y-1533020D01*
G01X1979660Y-1533020D02*
G01X1982000Y-1535370D01*
G01X1982000Y-1535370D02*
G01X1984340Y-1540050D01*
G01X1984340Y-1540050D02*
G01X1984340Y-1544740D01*
G01X1984340Y-1544740D02*
G01X1982000Y-1549420D01*
G01X1982000Y-1549420D02*
G01X1977310Y-1556450D01*
G01X1977310Y-1556450D02*
G01X1953880Y-1579880D01*
G01X1953880Y-1579880D02*
G01X1986690Y-1579880D01*
G01X2052760Y-1530680D02*
G01X2052760Y-1579880D01*
G01X2036360Y-1530680D02*
G01X2069160Y-1530680D01*
G01X2075020Y-1561140D02*
G01X2103130Y-1561140D01*
G01X2103130Y-1561140D02*
G01X2103130Y-1556450D01*
G01X2103130Y-1556450D02*
G01X2100790Y-1551770D01*
G01X2100790Y-1551770D02*
G01X2098440Y-1549420D01*
G01X2098440Y-1549420D02*
G01X2093760Y-1547080D01*
G01X2093760Y-1547080D02*
G01X2086730Y-1547080D01*
G01X2086730Y-1547080D02*
G01X2082040Y-1549420D01*
G01X2082040Y-1549420D02*
G01X2077360Y-1554110D01*
G01X2077360Y-1554110D02*
G01X2075020Y-1561140D01*
G01X2075020Y-1561140D02*
G01X2075020Y-1565820D01*
G01X2075020Y-1565820D02*
G01X2077360Y-1572850D01*
G01X2077360Y-1572850D02*
G01X2082040Y-1577540D01*
G01X2082040Y-1577540D02*
G01X2086730Y-1579880D01*
G01X2086730Y-1579880D02*
G01X2093760Y-1579880D01*
G01X2093760Y-1579880D02*
G01X2098440Y-1577540D01*
G01X2098440Y-1577540D02*
G01X2103130Y-1572850D01*
G01X2113670Y-1547080D02*
G01X2139450Y-1579880D01*
G01X2139450Y-1547080D02*
G01X2113670Y-1579880D01*
G01X2156780Y-1530680D02*
G01X2156780Y-1570510D01*
G01X2156780Y-1570510D02*
G01X2159130Y-1577540D01*
G01X2159130Y-1577540D02*
G01X2163810Y-1579880D01*
G01X2163810Y-1579880D02*
G01X2168500Y-1579880D01*
G01X2149760Y-1547080D02*
G01X2166160Y-1547080D01*
G01X2175530Y-1558790D02*
G01X2217700Y-1558790D01*
G01X2239260Y-1530680D02*
G01X2239260Y-1570510D01*
G01X2239260Y-1570510D02*
G01X2241600Y-1577540D01*
G01X2241600Y-1577540D02*
G01X2246280Y-1579880D01*
G01X2246280Y-1579880D02*
G01X2250970Y-1579880D01*
G01X2232230Y-1547080D02*
G01X2248630Y-1547080D01*
G01X2269720Y-1547080D02*
G01X2265030Y-1549420D01*
G01X2265030Y-1549420D02*
G01X2260340Y-1554110D01*
G01X2260340Y-1554110D02*
G01X2258000Y-1561140D01*
G01X2258000Y-1561140D02*
G01X2258000Y-1565820D01*
G01X2258000Y-1565820D02*
G01X2260340Y-1572850D01*
G01X2260340Y-1572850D02*
G01X2265030Y-1577540D01*
G01X2265030Y-1577540D02*
G01X2269720Y-1579880D01*
G01X2269720Y-1579880D02*
G01X2276740Y-1579880D01*
G01X2276740Y-1579880D02*
G01X2281430Y-1577540D01*
G01X2281430Y-1577540D02*
G01X2286110Y-1572850D01*
G01X2286110Y-1572850D02*
G01X2288460Y-1565820D01*
G01X2288460Y-1565820D02*
G01X2288460Y-1561140D01*
G01X2288460Y-1561140D02*
G01X2286110Y-1554110D01*
G01X2286110Y-1554110D02*
G01X2281430Y-1549420D01*
G01X2281430Y-1549420D02*
G01X2276740Y-1547080D01*
G01X2276740Y-1547080D02*
G01X2269720Y-1547080D01*
G01X2299240Y-1558790D02*
G01X2341410Y-1558790D01*
G01X2388740Y-1537710D02*
G01X2384050Y-1533020D01*
G01X2384050Y-1533020D02*
G01X2377020Y-1530680D01*
G01X2377020Y-1530680D02*
G01X2367650Y-1530680D01*
G01X2367650Y-1530680D02*
G01X2360620Y-1533020D01*
G01X2360620Y-1533020D02*
G01X2355940Y-1537710D01*
G01X2355940Y-1537710D02*
G01X2355940Y-1542390D01*
G01X2355940Y-1542390D02*
G01X2358280Y-1547080D01*
G01X2358280Y-1547080D02*
G01X2360620Y-1549420D01*
G01X2360620Y-1549420D02*
G01X2365310Y-1551770D01*
G01X2365310Y-1551770D02*
G01X2379360Y-1556450D01*
G01X2379360Y-1556450D02*
G01X2384050Y-1558790D01*
G01X2384050Y-1558790D02*
G01X2386390Y-1561140D01*
G01X2386390Y-1561140D02*
G01X2388740Y-1565820D01*
G01X2388740Y-1565820D02*
G01X2388740Y-1572850D01*
G01X2388740Y-1572850D02*
G01X2384050Y-1577540D01*
G01X2384050Y-1577540D02*
G01X2377020Y-1579880D01*
G01X2377020Y-1579880D02*
G01X2367650Y-1579880D01*
G01X2367650Y-1579880D02*
G01X2360620Y-1577540D01*
G01X2360620Y-1577540D02*
G01X2355940Y-1572850D01*
G01X2399750Y-1547080D02*
G01X2399750Y-1596280D01*
G01X2399750Y-1554110D02*
G01X2404430Y-1549420D01*
G01X2404430Y-1549420D02*
G01X2409120Y-1547080D01*
G01X2409120Y-1547080D02*
G01X2416150Y-1547080D01*
G01X2416150Y-1547080D02*
G01X2420840Y-1549420D01*
G01X2420840Y-1549420D02*
G01X2425520Y-1554110D01*
G01X2425520Y-1554110D02*
G01X2427860Y-1561140D01*
G01X2427860Y-1561140D02*
G01X2427860Y-1565820D01*
G01X2427860Y-1565820D02*
G01X2425520Y-1572850D01*
G01X2425520Y-1572850D02*
G01X2420840Y-1577540D01*
G01X2420840Y-1577540D02*
G01X2416150Y-1579880D01*
G01X2416150Y-1579880D02*
G01X2409120Y-1579880D01*
G01X2409120Y-1579880D02*
G01X2404430Y-1577540D01*
G01X2404430Y-1577540D02*
G01X2399750Y-1572850D01*
G01X2438410Y-1561140D02*
G01X2466520Y-1561140D01*
G01X2466520Y-1561140D02*
G01X2466520Y-1556450D01*
G01X2466520Y-1556450D02*
G01X2464180Y-1551770D01*
G01X2464180Y-1551770D02*
G01X2461840Y-1549420D01*
G01X2461840Y-1549420D02*
G01X2457150Y-1547080D01*
G01X2457150Y-1547080D02*
G01X2450120Y-1547080D01*
G01X2450120Y-1547080D02*
G01X2445440Y-1549420D01*
G01X2445440Y-1549420D02*
G01X2440750Y-1554110D01*
G01X2440750Y-1554110D02*
G01X2438410Y-1561140D01*
G01X2438410Y-1561140D02*
G01X2438410Y-1565820D01*
G01X2438410Y-1565820D02*
G01X2440750Y-1572850D01*
G01X2440750Y-1572850D02*
G01X2445440Y-1577540D01*
G01X2445440Y-1577540D02*
G01X2450120Y-1579880D01*
G01X2450120Y-1579880D02*
G01X2457150Y-1579880D01*
G01X2457150Y-1579880D02*
G01X2461840Y-1577540D01*
G01X2461840Y-1577540D02*
G01X2466520Y-1572850D01*
G01X2477070Y-1561140D02*
G01X2505180Y-1561140D01*
G01X2505180Y-1561140D02*
G01X2505180Y-1556450D01*
G01X2505180Y-1556450D02*
G01X2502840Y-1551770D01*
G01X2502840Y-1551770D02*
G01X2500500Y-1549420D01*
G01X2500500Y-1549420D02*
G01X2495810Y-1547080D01*
G01X2495810Y-1547080D02*
G01X2488780Y-1547080D01*
G01X2488780Y-1547080D02*
G01X2484100Y-1549420D01*
G01X2484100Y-1549420D02*
G01X2479410Y-1554110D01*
G01X2479410Y-1554110D02*
G01X2477070Y-1561140D01*
G01X2477070Y-1561140D02*
G01X2477070Y-1565820D01*
G01X2477070Y-1565820D02*
G01X2479410Y-1572850D01*
G01X2479410Y-1572850D02*
G01X2484100Y-1577540D01*
G01X2484100Y-1577540D02*
G01X2488780Y-1579880D01*
G01X2488780Y-1579880D02*
G01X2495810Y-1579880D01*
G01X2495810Y-1579880D02*
G01X2500500Y-1577540D01*
G01X2500500Y-1577540D02*
G01X2505180Y-1572850D01*
G01X2543840Y-1554110D02*
G01X2539160Y-1549420D01*
G01X2539160Y-1549420D02*
G01X2534470Y-1547080D01*
G01X2534470Y-1547080D02*
G01X2527440Y-1547080D01*
G01X2527440Y-1547080D02*
G01X2522750Y-1549420D01*
G01X2522750Y-1549420D02*
G01X2518070Y-1554110D01*
G01X2518070Y-1554110D02*
G01X2515720Y-1561140D01*
G01X2515720Y-1561140D02*
G01X2515720Y-1565820D01*
G01X2515720Y-1565820D02*
G01X2518070Y-1572850D01*
G01X2518070Y-1572850D02*
G01X2522750Y-1577540D01*
G01X2522750Y-1577540D02*
G01X2527440Y-1579880D01*
G01X2527440Y-1579880D02*
G01X2534470Y-1579880D01*
G01X2534470Y-1579880D02*
G01X2539160Y-1577540D01*
G01X2539160Y-1577540D02*
G01X2543840Y-1572850D01*
G01X2554380Y-1530680D02*
G01X2554380Y-1579880D01*
G01X2554380Y-1556450D02*
G01X2561410Y-1549420D01*
G01X2561410Y-1549420D02*
G01X2566100Y-1547080D01*
G01X2566100Y-1547080D02*
G01X2573130Y-1547080D01*
G01X2573130Y-1547080D02*
G01X2577810Y-1549420D01*
G01X2577810Y-1549420D02*
G01X2580160Y-1556450D01*
G01X2580160Y-1556450D02*
G01X2580160Y-1579880D01*
G01X2631700Y-1530680D02*
G01X2631700Y-1579880D01*
G01X2631700Y-1530680D02*
G01X2650440Y-1579880D01*
G01X2669190Y-1530680D02*
G01X2650440Y-1579880D01*
G01X2669190Y-1530680D02*
G01X2669190Y-1579880D01*
G01X2694960Y-1547080D02*
G01X2690270Y-1549420D01*
G01X2690270Y-1549420D02*
G01X2685590Y-1554110D01*
G01X2685590Y-1554110D02*
G01X2683250Y-1561140D01*
G01X2683250Y-1561140D02*
G01X2683250Y-1565820D01*
G01X2683250Y-1565820D02*
G01X2685590Y-1572850D01*
G01X2685590Y-1572850D02*
G01X2690270Y-1577540D01*
G01X2690270Y-1577540D02*
G01X2694960Y-1579880D01*
G01X2694960Y-1579880D02*
G01X2701990Y-1579880D01*
G01X2701990Y-1579880D02*
G01X2706680Y-1577540D01*
G01X2706680Y-1577540D02*
G01X2711360Y-1572850D01*
G01X2711360Y-1572850D02*
G01X2713710Y-1565820D01*
G01X2713710Y-1565820D02*
G01X2713710Y-1561140D01*
G01X2713710Y-1561140D02*
G01X2711360Y-1554110D01*
G01X2711360Y-1554110D02*
G01X2706680Y-1549420D01*
G01X2706680Y-1549420D02*
G01X2701990Y-1547080D01*
G01X2701990Y-1547080D02*
G01X2694960Y-1547080D01*
G01X2752600Y-1530680D02*
G01X2752600Y-1579880D01*
G01X2752600Y-1554110D02*
G01X2747910Y-1549420D01*
G01X2747910Y-1549420D02*
G01X2743230Y-1547080D01*
G01X2743230Y-1547080D02*
G01X2736200Y-1547080D01*
G01X2736200Y-1547080D02*
G01X2731510Y-1549420D01*
G01X2731510Y-1549420D02*
G01X2726820Y-1554110D01*
G01X2726820Y-1554110D02*
G01X2724480Y-1561140D01*
G01X2724480Y-1561140D02*
G01X2724480Y-1565820D01*
G01X2724480Y-1565820D02*
G01X2726820Y-1572850D01*
G01X2726820Y-1572850D02*
G01X2731510Y-1577540D01*
G01X2731510Y-1577540D02*
G01X2736200Y-1579880D01*
G01X2736200Y-1579880D02*
G01X2743230Y-1579880D01*
G01X2743230Y-1579880D02*
G01X2747910Y-1577540D01*
G01X2747910Y-1577540D02*
G01X2752600Y-1572850D01*
G01X2765720Y-1547080D02*
G01X2765720Y-1570510D01*
G01X2765720Y-1570510D02*
G01X2768060Y-1577540D01*
G01X2768060Y-1577540D02*
G01X2772750Y-1579880D01*
G01X2772750Y-1579880D02*
G01X2779780Y-1579880D01*
G01X2779780Y-1579880D02*
G01X2784460Y-1577540D01*
G01X2784460Y-1577540D02*
G01X2791490Y-1570510D01*
G01X2791490Y-1547080D02*
G01X2791490Y-1579880D01*
G01X2804380Y-1530680D02*
G01X2804380Y-1579880D01*
G01X2814690Y-1561140D02*
G01X2842800Y-1561140D01*
G01X2842800Y-1561140D02*
G01X2842800Y-1556450D01*
G01X2842800Y-1556450D02*
G01X2840460Y-1551770D01*
G01X2840460Y-1551770D02*
G01X2838120Y-1549420D01*
G01X2838120Y-1549420D02*
G01X2833430Y-1547080D01*
G01X2833430Y-1547080D02*
G01X2826400Y-1547080D01*
G01X2826400Y-1547080D02*
G01X2821720Y-1549420D01*
G01X2821720Y-1549420D02*
G01X2817030Y-1554110D01*
G01X2817030Y-1554110D02*
G01X2814690Y-1561140D01*
G01X2814690Y-1561140D02*
G01X2814690Y-1565820D01*
G01X2814690Y-1565820D02*
G01X2817030Y-1572850D01*
G01X2817030Y-1572850D02*
G01X2821720Y-1577540D01*
G01X2821720Y-1577540D02*
G01X2826400Y-1579880D01*
G01X2826400Y-1579880D02*
G01X2833430Y-1579880D01*
G01X2833430Y-1579880D02*
G01X2838120Y-1577540D01*
G01X2838120Y-1577540D02*
G01X2842800Y-1572850D01*
G01X1762740Y-1618800D02*
G01X1746340Y-1684400D01*
G01X1776800Y-1618800D02*
G01X1760400Y-1684400D01*
G01X1746340Y-1644570D02*
G01X1779140Y-1644570D01*
G01X1744000Y-1658630D02*
G01X1776800Y-1658630D01*
G01X1795080Y-1618800D02*
G01X1820850Y-1618800D01*
G01X1820850Y-1618800D02*
G01X1806790Y-1637540D01*
G01X1806790Y-1637540D02*
G01X1813820Y-1637540D01*
G01X1813820Y-1637540D02*
G01X1818510Y-1639880D01*
G01X1818510Y-1639880D02*
G01X1820850Y-1642230D01*
G01X1820850Y-1642230D02*
G01X1823190Y-1649260D01*
G01X1823190Y-1649260D02*
G01X1823190Y-1653940D01*
G01X1823190Y-1653940D02*
G01X1820850Y-1660970D01*
G01X1820850Y-1660970D02*
G01X1816160Y-1665660D01*
G01X1816160Y-1665660D02*
G01X1809130Y-1668000D01*
G01X1809130Y-1668000D02*
G01X1802100Y-1668000D01*
G01X1802100Y-1668000D02*
G01X1795080Y-1665660D01*
G01X1795080Y-1665660D02*
G01X1792730Y-1663310D01*
G01X1792730Y-1663310D02*
G01X1790390Y-1658630D01*
G01X1848260Y-1618800D02*
G01X1841230Y-1621140D01*
G01X1841230Y-1621140D02*
G01X1836550Y-1628170D01*
G01X1836550Y-1628170D02*
G01X1834200Y-1639880D01*
G01X1834200Y-1639880D02*
G01X1834200Y-1646910D01*
G01X1834200Y-1646910D02*
G01X1836550Y-1658630D01*
G01X1836550Y-1658630D02*
G01X1841230Y-1665660D01*
G01X1841230Y-1665660D02*
G01X1848260Y-1668000D01*
G01X1848260Y-1668000D02*
G01X1852950Y-1668000D01*
G01X1852950Y-1668000D02*
G01X1859980Y-1665660D01*
G01X1859980Y-1665660D02*
G01X1864660Y-1658630D01*
G01X1864660Y-1658630D02*
G01X1867000Y-1646910D01*
G01X1867000Y-1646910D02*
G01X1867000Y-1639880D01*
G01X1867000Y-1639880D02*
G01X1864660Y-1628170D01*
G01X1864660Y-1628170D02*
G01X1859980Y-1621140D01*
G01X1859980Y-1621140D02*
G01X1852950Y-1618800D01*
G01X1852950Y-1618800D02*
G01X1848260Y-1618800D01*
G01X1892070Y-1618800D02*
G01X1885050Y-1621140D01*
G01X1885050Y-1621140D02*
G01X1880360Y-1628170D01*
G01X1880360Y-1628170D02*
G01X1878020Y-1639880D01*
G01X1878020Y-1639880D02*
G01X1878020Y-1646910D01*
G01X1878020Y-1646910D02*
G01X1880360Y-1658630D01*
G01X1880360Y-1658630D02*
G01X1885050Y-1665660D01*
G01X1885050Y-1665660D02*
G01X1892070Y-1668000D01*
G01X1892070Y-1668000D02*
G01X1896760Y-1668000D01*
G01X1896760Y-1668000D02*
G01X1903790Y-1665660D01*
G01X1903790Y-1665660D02*
G01X1908480Y-1658630D01*
G01X1908480Y-1658630D02*
G01X1910820Y-1646910D01*
G01X1910820Y-1646910D02*
G01X1910820Y-1639880D01*
G01X1910820Y-1639880D02*
G01X1908480Y-1628170D01*
G01X1908480Y-1628170D02*
G01X1903790Y-1621140D01*
G01X1903790Y-1621140D02*
G01X1896760Y-1618800D01*
G01X1896760Y-1618800D02*
G01X1892070Y-1618800D01*
G01X1921830Y-1628170D02*
G01X1926520Y-1625830D01*
G01X1926520Y-1625830D02*
G01X1933540Y-1618800D01*
G01X1933540Y-1618800D02*
G01X1933540Y-1668000D01*
G01X1986030Y-1625830D02*
G01X1983680Y-1621140D01*
G01X1983680Y-1621140D02*
G01X1976660Y-1618800D01*
G01X1976660Y-1618800D02*
G01X1971970Y-1618800D01*
G01X1971970Y-1618800D02*
G01X1964940Y-1621140D01*
G01X1964940Y-1621140D02*
G01X1960260Y-1628170D01*
G01X1960260Y-1628170D02*
G01X1957910Y-1639880D01*
G01X1957910Y-1639880D02*
G01X1957910Y-1651600D01*
G01X1957910Y-1651600D02*
G01X1960260Y-1660970D01*
G01X1960260Y-1660970D02*
G01X1964940Y-1665660D01*
G01X1964940Y-1665660D02*
G01X1971970Y-1668000D01*
G01X1971970Y-1668000D02*
G01X1974310Y-1668000D01*
G01X1974310Y-1668000D02*
G01X1981340Y-1665660D01*
G01X1981340Y-1665660D02*
G01X1986030Y-1660970D01*
G01X1986030Y-1660970D02*
G01X1988370Y-1653940D01*
G01X1988370Y-1653940D02*
G01X1988370Y-1651600D01*
G01X1988370Y-1651600D02*
G01X1986030Y-1644570D01*
G01X1986030Y-1644570D02*
G01X1981340Y-1639880D01*
G01X1981340Y-1639880D02*
G01X1974310Y-1637540D01*
G01X1974310Y-1637540D02*
G01X1971970Y-1637540D01*
G01X1971970Y-1637540D02*
G01X1964940Y-1639880D01*
G01X1964940Y-1639880D02*
G01X1960260Y-1644570D01*
G01X1960260Y-1644570D02*
G01X1957910Y-1651600D01*
M02*
