%FSLAX25Y25*%
%MOIN*%
G70*
G01*
G75*
G04 Layer_Color=32768*
%ADD10O,0.01772X0.05512*%
%ADD11R,0.05118X0.08268*%
%ADD12O,0.00984X0.06102*%
%ADD13O,0.06102X0.00984*%
%ADD14R,0.08661X0.11024*%
%ADD15R,0.11024X0.11024*%
%ADD16R,0.02362X0.03740*%
%ADD17O,0.05512X0.01378*%
%ADD18R,0.06693X0.04134*%
%ADD19C,0.03500*%
%ADD20C,0.02000*%
%ADD21C,0.01200*%
%ADD22C,0.00800*%
%ADD23C,0.01500*%
%ADD24C,0.01400*%
%ADD25C,0.01000*%
%ADD26C,0.00492*%
%ADD27C,0.00787*%
%ADD28C,0.06693*%
%ADD29R,0.06200X0.06200*%
%ADD30C,0.02000*%
%ADD31C,0.00984*%
%ADD32C,0.00100*%
%ADD33C,0.00394*%
%ADD34C,0.02500*%
%ADD35R,0.03937X0.04331*%
%ADD36R,0.04331X0.03937*%
%ADD37R,0.06000X0.05000*%
%ADD38R,0.05000X0.06000*%
%ADD39R,0.07087X0.05512*%
%ADD40R,0.05906X0.05118*%
%ADD41R,0.06200X0.06200*%
%ADD42C,0.06200*%
%ADD43C,0.03000*%
%ADD44C,0.04000*%
%ADD45R,0.03700X0.17300*%
%ADD46O,0.02572X0.06312*%
%ADD47R,0.05918X0.09068*%
%ADD48O,0.01784X0.06902*%
%ADD49O,0.06902X0.01784*%
%ADD50R,0.09461X0.11824*%
%ADD51R,0.11824X0.11824*%
%ADD52R,0.03162X0.04540*%
%ADD53O,0.06312X0.02178*%
%ADD54R,0.07493X0.04934*%
%ADD55C,0.07493*%
%ADD56R,0.07000X0.07000*%
%ADD57R,0.04737X0.05131*%
%ADD58R,0.05131X0.04737*%
%ADD59R,0.06800X0.05800*%
%ADD60R,0.05800X0.06800*%
%ADD61R,0.07887X0.06312*%
%ADD62R,0.06706X0.05918*%
%ADD63R,0.07000X0.07000*%
%ADD64C,0.07000*%
%ADD65R,0.23600X0.08000*%
%ADD66C,0.00600*%
D25*
X126000Y0D02*
X147700D01*
X126000Y150000D02*
X147700D01*
X146700Y0D02*
Y48807D01*
Y97993D02*
Y150000D01*
Y0D02*
X148700Y6000D01*
X144700D02*
X146700Y0D01*
X144700Y144000D02*
X146700Y150000D01*
X148700Y144000D01*
X125000Y151500D02*
Y170900D01*
X0Y151000D02*
Y170900D01*
X85493Y169900D02*
X125000D01*
X0D02*
X36307D01*
X119000Y171900D02*
X125000Y169900D01*
X119000Y167900D02*
X125000Y169900D01*
X0D02*
X6000Y167900D01*
X0Y169900D02*
X6000Y171900D01*
X0Y0D02*
X125000D01*
X0Y150000D02*
X125000D01*
X0Y0D02*
Y150000D01*
X125000Y0D02*
Y150000D01*
D66*
X150299Y50407D02*
Y52407D01*
Y51407D01*
X144301D01*
X145301Y50407D01*
X150299Y55406D02*
X149299D01*
Y56406D01*
X150299D01*
Y55406D01*
X144301Y64403D02*
Y60404D01*
X147300D01*
X146300Y62404D01*
Y63403D01*
X147300Y64403D01*
X149299D01*
X150299Y63403D01*
Y61404D01*
X149299Y60404D01*
X145301Y66402D02*
X144301Y67402D01*
Y69401D01*
X145301Y70401D01*
X149299D01*
X150299Y69401D01*
Y67402D01*
X149299Y66402D01*
X145301D01*
X150299Y80398D02*
X148300Y78398D01*
X146300D01*
X144301Y80398D01*
X150299Y83397D02*
Y85396D01*
Y84396D01*
X146300D01*
Y83397D01*
X150299Y88395D02*
X146300D01*
Y91394D01*
X147300Y92394D01*
X150299D01*
Y94393D02*
X148300Y96393D01*
X146300D01*
X144301Y94393D01*
X37907Y166301D02*
X39907D01*
X38907D01*
Y172299D01*
X37907Y171299D01*
X42906Y166301D02*
Y167301D01*
X43905D01*
Y166301D01*
X42906D01*
X51903D02*
X47904D01*
X51903Y170300D01*
Y171299D01*
X50903Y172299D01*
X48904D01*
X47904Y171299D01*
X57901Y172299D02*
X53902D01*
Y169300D01*
X55902Y170300D01*
X56901D01*
X57901Y169300D01*
Y167301D01*
X56901Y166301D01*
X54902D01*
X53902Y167301D01*
X67898Y166301D02*
X65898Y168300D01*
Y170300D01*
X67898Y172299D01*
X70897Y166301D02*
X72896D01*
X71896D01*
Y170300D01*
X70897D01*
X75895Y166301D02*
Y170300D01*
X78894D01*
X79894Y169300D01*
Y166301D01*
X81893D02*
X83893Y168300D01*
Y170300D01*
X81893Y172299D01*
M02*
