%FSLAX25Y25*%
%MOIN*%
G70*
G01*
G75*
G04 Layer_Color=9555144*
%ADD10O,0.01772X0.05512*%
%ADD11R,0.05118X0.08268*%
%ADD12O,0.00984X0.06102*%
%ADD13O,0.06102X0.00984*%
%ADD14R,0.08661X0.11024*%
%ADD15R,0.11024X0.11024*%
%ADD16R,0.02362X0.03740*%
%ADD17O,0.05512X0.01378*%
%ADD18R,0.06693X0.04134*%
%ADD19C,0.03500*%
%ADD20C,0.02000*%
%ADD21C,0.01200*%
%ADD22C,0.00800*%
%ADD23C,0.01500*%
%ADD24C,0.01400*%
%ADD25C,0.01000*%
%ADD26C,0.00492*%
%ADD27C,0.00787*%
%ADD28C,0.06693*%
%ADD29R,0.06200X0.06200*%
%ADD30C,0.02000*%
%ADD31C,0.00984*%
%ADD32C,0.00100*%
%ADD33C,0.00394*%
%ADD34C,0.02500*%
%ADD35R,0.03937X0.04331*%
%ADD36R,0.04331X0.03937*%
%ADD37R,0.06000X0.05000*%
%ADD38R,0.05000X0.06000*%
%ADD39R,0.07087X0.05512*%
%ADD40R,0.05906X0.05118*%
%ADD41R,0.06200X0.06200*%
%ADD42C,0.06200*%
%ADD43C,0.03000*%
%ADD44C,0.04000*%
%ADD45R,0.03700X0.17300*%
%ADD46O,0.02572X0.06312*%
%ADD47R,0.05918X0.09068*%
%ADD48O,0.01784X0.06902*%
%ADD49O,0.06902X0.01784*%
%ADD50R,0.09461X0.11824*%
%ADD51R,0.11824X0.11824*%
%ADD52R,0.03162X0.04540*%
%ADD53O,0.06312X0.02178*%
%ADD54R,0.07493X0.04934*%
%ADD55C,0.07493*%
%ADD56R,0.07000X0.07000*%
%ADD57R,0.04737X0.05131*%
%ADD58R,0.05131X0.04737*%
%ADD59R,0.06800X0.05800*%
%ADD60R,0.05800X0.06800*%
%ADD61R,0.07887X0.06312*%
%ADD62R,0.06706X0.05918*%
%ADD63R,0.07000X0.07000*%
%ADD64C,0.07000*%
%ADD65R,0.23600X0.08000*%
D21*
X26978Y26527D02*
G03*
X26978Y26527I-9800J0D01*
G01*
D22*
X98300Y14300D02*
Y17799D01*
X100049D01*
X100633Y17216D01*
Y16049D01*
X100049Y15466D01*
X98300D01*
X99466D02*
X100633Y14300D01*
X103548D02*
X102382D01*
X101799Y14883D01*
Y16049D01*
X102382Y16633D01*
X103548D01*
X104131Y16049D01*
Y15466D01*
X101799D01*
X105298Y16633D02*
X106464Y14300D01*
X107630Y16633D01*
X108797Y14300D02*
Y14883D01*
X109380D01*
Y14300D01*
X108797D01*
X115211D02*
Y16633D01*
X116377Y17799D01*
X117544Y16633D01*
Y14300D01*
Y16049D01*
X115211D01*
X100533Y23799D02*
X98200D01*
Y20300D01*
X100533D01*
X98200Y22049D02*
X99366D01*
X101699Y20300D02*
Y22633D01*
X102282D01*
X102865Y22049D01*
Y20300D01*
Y22049D01*
X103448Y22633D01*
X104031Y22049D01*
Y20300D01*
X105198D02*
X106364D01*
X105781D01*
Y22633D01*
X105198D01*
X110446D02*
X108697D01*
X108114Y22049D01*
Y20883D01*
X108697Y20300D01*
X110446D01*
X117444D02*
X115111D01*
X117444Y22633D01*
Y23216D01*
X116861Y23799D01*
X115694D01*
X115111Y23216D01*
D25*
X86172Y16766D02*
X85791Y16385D01*
X85601Y15814D01*
Y15052D01*
X85791Y14481D01*
X86172Y14100D01*
X86553D01*
X86934Y14290D01*
X87124Y14481D01*
X87315Y14862D01*
X87696Y16004D01*
X87886Y16385D01*
X88077Y16576D01*
X88457Y16766D01*
X89029D01*
X89410Y16385D01*
X89600Y15814D01*
Y15052D01*
X89410Y14481D01*
X89029Y14100D01*
X87696Y17661D02*
Y19375D01*
X87505Y19946D01*
X87315Y20137D01*
X86934Y20327D01*
X86363D01*
X85982Y20137D01*
X85791Y19946D01*
X85601Y19375D01*
Y17661D01*
X89600D01*
X86172Y22936D02*
X89600D01*
X87886Y21222D02*
Y24650D01*
X76272Y16866D02*
X75891Y16485D01*
X75701Y15914D01*
Y15152D01*
X75891Y14581D01*
X76272Y14200D01*
X76653D01*
X77034Y14390D01*
X77224Y14581D01*
X77415Y14962D01*
X77796Y16104D01*
X77986Y16485D01*
X78176Y16676D01*
X78557Y16866D01*
X79129D01*
X79510Y16485D01*
X79700Y15914D01*
Y15152D01*
X79510Y14581D01*
X79129Y14200D01*
X77796Y17761D02*
Y19475D01*
X77605Y20046D01*
X77415Y20237D01*
X77034Y20427D01*
X76463D01*
X76082Y20237D01*
X75891Y20046D01*
X75701Y19475D01*
Y17761D01*
X79700D01*
X77986Y21322D02*
Y24750D01*
X45401Y16385D02*
Y14481D01*
X47115Y14290D01*
X46924Y14481D01*
X46734Y15052D01*
Y15623D01*
X46924Y16195D01*
X47305Y16576D01*
X47877Y16766D01*
X48257D01*
X48829Y16576D01*
X49210Y16195D01*
X49400Y15623D01*
Y15052D01*
X49210Y14481D01*
X49019Y14290D01*
X48638Y14100D01*
X45401Y17661D02*
X49400Y19185D01*
X45401Y20708D02*
X49400Y19185D01*
X56272Y16866D02*
X55891Y16485D01*
X55701Y15914D01*
Y15152D01*
X55891Y14581D01*
X56272Y14200D01*
X56653D01*
X57034Y14390D01*
X57224Y14581D01*
X57415Y14962D01*
X57796Y16104D01*
X57986Y16485D01*
X58176Y16676D01*
X58557Y16866D01*
X59129D01*
X59510Y16485D01*
X59700Y15914D01*
Y15152D01*
X59510Y14581D01*
X59129Y14200D01*
X55701Y18904D02*
X55891Y18523D01*
X56272Y18142D01*
X56653Y17952D01*
X57224Y17761D01*
X58176D01*
X58748Y17952D01*
X59129Y18142D01*
X59510Y18523D01*
X59700Y18904D01*
Y19666D01*
X59510Y20046D01*
X59129Y20427D01*
X58748Y20618D01*
X58176Y20808D01*
X57224D01*
X56653Y20618D01*
X56272Y20427D01*
X55891Y20046D01*
X55701Y19666D01*
Y18904D01*
Y21741D02*
X58557D01*
X59129Y21932D01*
X59510Y22312D01*
X59700Y22884D01*
Y23265D01*
X59510Y23836D01*
X59129Y24217D01*
X58557Y24407D01*
X55701D01*
Y26845D02*
X59700D01*
X55701Y25512D02*
Y28178D01*
X36553Y16757D02*
X36172Y16566D01*
X35791Y16185D01*
X35601Y15804D01*
Y15043D01*
X35791Y14662D01*
X36172Y14281D01*
X36553Y14090D01*
X37124Y13900D01*
X38076D01*
X38648Y14090D01*
X39029Y14281D01*
X39410Y14662D01*
X39600Y15043D01*
Y15804D01*
X39410Y16185D01*
X39029Y16566D01*
X38648Y16757D01*
X38076D01*
Y15804D02*
Y16757D01*
X35601Y17671D02*
X39600D01*
X35601D02*
X39600Y20337D01*
X35601D02*
X39600D01*
X35601Y21441D02*
X39600D01*
X35601D02*
Y22774D01*
X35791Y23346D01*
X36172Y23727D01*
X36553Y23917D01*
X37124Y24107D01*
X38076D01*
X38648Y23917D01*
X39029Y23727D01*
X39410Y23346D01*
X39600Y22774D01*
Y21441D01*
X66172Y16766D02*
X65791Y16385D01*
X65601Y15814D01*
Y15052D01*
X65791Y14481D01*
X66172Y14100D01*
X66553D01*
X66934Y14290D01*
X67124Y14481D01*
X67315Y14862D01*
X67696Y16004D01*
X67886Y16385D01*
X68076Y16576D01*
X68457Y16766D01*
X69029D01*
X69410Y16385D01*
X69600Y15814D01*
Y15052D01*
X69410Y14481D01*
X69029Y14100D01*
X65601Y17661D02*
X69600D01*
X65601Y18499D02*
X69600D01*
X65601D02*
X69600Y21165D01*
X65601D02*
X69600D01*
X0Y0D02*
X125000D01*
X0Y150000D02*
X125000D01*
X0Y0D02*
Y150000D01*
X125000Y0D02*
Y150000D01*
D26*
X529453Y-120057D02*
X528984Y-119589D01*
X528281Y-119355D01*
X527344D01*
X526641Y-119589D01*
X526172Y-120057D01*
Y-120526D01*
X526407Y-120995D01*
X526641Y-121229D01*
X527110Y-121463D01*
X528515Y-121932D01*
X528984Y-122166D01*
X529218Y-122400D01*
X529453Y-122869D01*
Y-123572D01*
X528984Y-124040D01*
X528281Y-124275D01*
X527344D01*
X526641Y-124040D01*
X526172Y-123572D01*
X530554Y-119355D02*
Y-124275D01*
X531585Y-119355D02*
Y-124275D01*
X534396D01*
X534935Y-119355D02*
Y-124275D01*
X538215Y-119355D02*
X534935Y-122635D01*
X536107Y-121463D02*
X538215Y-124275D01*
X542597Y-120057D02*
X542128Y-119589D01*
X541425Y-119355D01*
X540488D01*
X539785Y-119589D01*
X539316Y-120057D01*
Y-120526D01*
X539551Y-120995D01*
X539785Y-121229D01*
X540254Y-121463D01*
X541659Y-121932D01*
X542128Y-122166D01*
X542362Y-122400D01*
X542597Y-122869D01*
Y-123572D01*
X542128Y-124040D01*
X541425Y-124275D01*
X540488D01*
X539785Y-124040D01*
X539316Y-123572D01*
X547212Y-120526D02*
X546978Y-120057D01*
X546509Y-119589D01*
X546041Y-119355D01*
X545104D01*
X544635Y-119589D01*
X544166Y-120057D01*
X543932Y-120526D01*
X543698Y-121229D01*
Y-122400D01*
X543932Y-123103D01*
X544166Y-123572D01*
X544635Y-124040D01*
X545104Y-124275D01*
X546041D01*
X546509Y-124040D01*
X546978Y-123572D01*
X547212Y-123103D01*
X548595Y-119355D02*
Y-124275D01*
Y-119355D02*
X550703D01*
X551406Y-119589D01*
X551640Y-119823D01*
X551875Y-120292D01*
Y-120760D01*
X551640Y-121229D01*
X551406Y-121463D01*
X550703Y-121698D01*
X548595D01*
X550235D02*
X551875Y-124275D01*
X556022Y-119355D02*
X552976D01*
Y-124275D01*
X556022D01*
X552976Y-121698D02*
X554850D01*
X559888Y-119355D02*
X556842D01*
Y-124275D01*
X559888D01*
X556842Y-121698D02*
X558716D01*
X560708Y-119355D02*
Y-124275D01*
Y-119355D02*
X563988Y-124275D01*
Y-119355D02*
Y-124275D01*
X570853Y-119355D02*
Y-124275D01*
X569213Y-119355D02*
X572493D01*
X574484D02*
X574016Y-119589D01*
X573547Y-120057D01*
X573313Y-120526D01*
X573078Y-121229D01*
Y-122400D01*
X573313Y-123103D01*
X573547Y-123572D01*
X574016Y-124040D01*
X574484Y-124275D01*
X575421D01*
X575890Y-124040D01*
X576359Y-123572D01*
X576593Y-123103D01*
X576827Y-122400D01*
Y-121229D01*
X576593Y-120526D01*
X576359Y-120057D01*
X575890Y-119589D01*
X575421Y-119355D01*
X574484D01*
X577975Y-121932D02*
X580084D01*
X580787Y-121698D01*
X581021Y-121463D01*
X581255Y-120995D01*
Y-120292D01*
X581021Y-119823D01*
X580787Y-119589D01*
X580084Y-119355D01*
X577975D01*
Y-124275D01*
D32*
X16550Y34117D02*
X17450D01*
X16350Y34017D02*
X17650D01*
X16150Y33917D02*
X17850D01*
X16050Y33817D02*
X17950D01*
X15950Y33717D02*
X18050D01*
X15850Y33617D02*
X18050D01*
X15850Y33517D02*
X18150D01*
X15750Y33417D02*
X18250D01*
X15750Y33317D02*
X18250D01*
X15350Y33217D02*
X18550D01*
X15150Y33117D02*
X18850D01*
X14850Y33017D02*
X19150D01*
X14650Y32917D02*
X19350D01*
X14550Y32817D02*
X19550D01*
X14350Y32717D02*
X19650D01*
X14250Y32617D02*
X19850D01*
X14150Y32517D02*
X19950D01*
X13950Y32417D02*
X20150D01*
X13850Y32317D02*
X20250D01*
X13750Y32217D02*
X20350D01*
X13650Y32117D02*
X20450D01*
X13650Y32017D02*
X20450D01*
X13550Y31917D02*
X20550D01*
X13450Y31817D02*
X20650D01*
X13350Y31717D02*
X20750D01*
X13350Y31617D02*
X15450D01*
X15550D02*
X18450D01*
X18650D02*
X20750D01*
X13250Y31517D02*
X15250D01*
X15550D02*
X18450D01*
X18750D02*
X20850D01*
X13150Y31417D02*
X15150D01*
X15550D02*
X18450D01*
X18850D02*
X20850D01*
X13150Y31317D02*
X15050D01*
X15550D02*
X18350D01*
X18950D02*
X20950D01*
X13050Y31217D02*
X14950D01*
X15550D02*
X18350D01*
X19050D02*
X20950D01*
X13050Y31117D02*
X14950D01*
X15550D02*
X18350D01*
X19150D02*
X21050D01*
X13050Y31017D02*
X14850D01*
X15650D02*
X18350D01*
X19150D02*
X21050D01*
X12950Y30917D02*
X14750D01*
X15650D02*
X18350D01*
X19250D02*
X21050D01*
X12950Y30817D02*
X14750D01*
X15650D02*
X18350D01*
X19350D02*
X21150D01*
X12950Y30717D02*
X14650D01*
X15650D02*
X18350D01*
X19350D02*
X21150D01*
X12950Y30617D02*
X14650D01*
X15650D02*
X18350D01*
X19350D02*
X21150D01*
X12850Y30517D02*
X14650D01*
X15650D02*
X18250D01*
X19450D02*
X21150D01*
X12850Y30417D02*
X14550D01*
X15650D02*
X18250D01*
X19450D02*
X21250D01*
X12850Y30317D02*
X14550D01*
X15650D02*
X18250D01*
X19450D02*
X21250D01*
X12850Y30217D02*
X14550D01*
X15750D02*
X18250D01*
X19550D02*
X21250D01*
X12850Y30117D02*
X14550D01*
X15750D02*
X18250D01*
X19550D02*
X21250D01*
X12850Y30017D02*
X14550D01*
X15750D02*
X18250D01*
X19550D02*
X21250D01*
X12850Y29917D02*
X14550D01*
X15750D02*
X18250D01*
X19550D02*
X21250D01*
X12850Y29817D02*
X14550D01*
X15750D02*
X18250D01*
X19550D02*
X21250D01*
X12850Y29717D02*
X14550D01*
X15750D02*
X18250D01*
X19550D02*
X21250D01*
X12850Y29617D02*
X14550D01*
X15750D02*
X18150D01*
X19550D02*
X21250D01*
X12850Y29517D02*
X14550D01*
X15850D02*
X18150D01*
X19550D02*
X21250D01*
X12850Y29417D02*
X14550D01*
X15850D02*
X18150D01*
X19550D02*
X21250D01*
X12850Y29317D02*
X14550D01*
X15850D02*
X18150D01*
X19550D02*
X21250D01*
X12850Y29217D02*
X14650D01*
X15850D02*
X18150D01*
X19450D02*
X21150D01*
X12950Y29117D02*
X14650D01*
X15850D02*
X18150D01*
X19450D02*
X21150D01*
X12950Y29017D02*
X14650D01*
X15850D02*
X18150D01*
X19450D02*
X21150D01*
X12950Y28917D02*
X14750D01*
X15850D02*
X18150D01*
X19350D02*
X21150D01*
X13050Y28817D02*
X14750D01*
X15850D02*
X18050D01*
X19350D02*
X21050D01*
X13050Y28717D02*
X14850D01*
X15950D02*
X18050D01*
X19250D02*
X21050D01*
X13050Y28617D02*
X14850D01*
X15950D02*
X18050D01*
X19250D02*
X21050D01*
X13150Y28517D02*
X14950D01*
X15950D02*
X18050D01*
X19150D02*
X20950D01*
X13150Y28417D02*
X15050D01*
X15950D02*
X18050D01*
X19050D02*
X20950D01*
X13250Y28317D02*
X15150D01*
X15950D02*
X18050D01*
X18950D02*
X20850D01*
X13250Y28217D02*
X15250D01*
X15950D02*
X18050D01*
X18850D02*
X20850D01*
X13350Y28117D02*
X15350D01*
X15950D02*
X18050D01*
X18650D02*
X20750D01*
X13450Y28017D02*
X15550D01*
X16050D02*
X18050D01*
X18450D02*
X20650D01*
X13450Y27917D02*
X15650D01*
X16050D02*
X17950D01*
X18250D02*
X20650D01*
X13550Y27817D02*
X15950D01*
X16050D02*
X17950D01*
X18050D02*
X20550D01*
X13650Y27717D02*
X20450D01*
X13750Y27617D02*
X20350D01*
X13850Y27517D02*
X20250D01*
X13750Y27417D02*
X20150D01*
X13650Y27317D02*
X20050D01*
X13550Y27217D02*
X19950D01*
X13450Y27117D02*
X19850D01*
X13350Y27017D02*
X19750D01*
X13250Y26917D02*
X19550D01*
X13150Y26817D02*
X19350D01*
X13050Y26717D02*
X19150D01*
X13050Y26617D02*
X14950D01*
X15150D02*
X18950D01*
X12950Y26517D02*
X14850D01*
X15450D02*
X18650D01*
X12950Y26417D02*
X14650D01*
X15850D02*
X18350D01*
X12850Y26317D02*
X14550D01*
X16250D02*
X17850D01*
X12850Y26217D02*
X14450D01*
X16250D02*
X17750D01*
X12850Y26117D02*
X14450D01*
X16250D02*
X17750D01*
X12850Y26017D02*
X14450D01*
X16250D02*
X17750D01*
X12850Y25917D02*
X14450D01*
X16250D02*
X17750D01*
X12850Y25817D02*
X14650D01*
X16250D02*
X17750D01*
X12850Y25717D02*
X14850D01*
X16250D02*
X17750D01*
X12850Y25617D02*
X15250D01*
X16250D02*
X17750D01*
X12950Y25517D02*
X15950D01*
X16250D02*
X17750D01*
X12950Y25417D02*
X17750D01*
X12950Y25317D02*
X17950D01*
X13050Y25217D02*
X18850D01*
X13150Y25117D02*
X19550D01*
X13250Y25017D02*
X20050D01*
X13350Y24917D02*
X20450D01*
X13450Y24817D02*
X20650D01*
X13650Y24717D02*
X20950D01*
X13750Y24617D02*
X21150D01*
X13550Y24517D02*
X21250D01*
X13350Y24417D02*
X21450D01*
X13150Y24317D02*
X21550D01*
X13050Y24217D02*
X21650D01*
X12950Y24117D02*
X21750D01*
X12850Y24017D02*
X16250D01*
X16350D02*
X21850D01*
X12750Y23917D02*
X15450D01*
X16450D02*
X17550D01*
X18550D02*
X21950D01*
X12650Y23817D02*
X15150D01*
X16450D02*
X17550D01*
X19150D02*
X21950D01*
X12550Y23717D02*
X14850D01*
X16450D02*
X17550D01*
X19550D02*
X22050D01*
X12450Y23617D02*
X14650D01*
X16450D02*
X17450D01*
X19850D02*
X22050D01*
X12450Y23517D02*
X14450D01*
X16450D02*
X17450D01*
X20050D02*
X22150D01*
X12350Y23417D02*
X14350D01*
X16450D02*
X17450D01*
X20250D02*
X22150D01*
X12350Y23317D02*
X14150D01*
X16450D02*
X17450D01*
X20350D02*
X22150D01*
X12350Y23217D02*
X14050D01*
X16450D02*
X17450D01*
X20450D02*
X22250D01*
X12250Y23117D02*
X14050D01*
X16550D02*
X17450D01*
X20550D02*
X22250D01*
X12250Y23017D02*
X13950D01*
X20550D02*
X22250D01*
X12250Y22917D02*
X13950D01*
X20550D02*
X22250D01*
X12250Y22817D02*
X13850D01*
X20650D02*
X22250D01*
X12250Y22717D02*
X13850D01*
X20650D02*
X22250D01*
X12250Y22617D02*
X13850D01*
X20650D02*
X22250D01*
X12250Y22517D02*
X13850D01*
X20550D02*
X22250D01*
X12250Y22417D02*
X13850D01*
X20550D02*
X22250D01*
X12250Y22317D02*
X13850D01*
X20550D02*
X22250D01*
X12250Y22217D02*
X13950D01*
X20450D02*
X22250D01*
X12250Y22117D02*
X14050D01*
X20450D02*
X22250D01*
X12250Y22017D02*
X14050D01*
X16650D02*
X17350D01*
X20350D02*
X22150D01*
X12350Y21917D02*
X14250D01*
X16350D02*
X17650D01*
X20250D02*
X22150D01*
X12350Y21817D02*
X14350D01*
X16150D02*
X17850D01*
X20150D02*
X22150D01*
X12450Y21717D02*
X14550D01*
X16050D02*
X17950D01*
X19950D02*
X22050D01*
X12450Y21617D02*
X14850D01*
X15950D02*
X18050D01*
X19750D02*
X22050D01*
X12550Y21517D02*
X15150D01*
X15850D02*
X18150D01*
X19550D02*
X21950D01*
X12550Y21417D02*
X15650D01*
X15750D02*
X18150D01*
X19150D02*
X21850D01*
X12650Y21317D02*
X18250D01*
X18450D02*
X21850D01*
X12750Y21217D02*
X21750D01*
X12850Y21117D02*
X21650D01*
X12950Y21017D02*
X21550D01*
X13150Y20917D02*
X21350D01*
X13250Y20817D02*
X21250D01*
X13450Y20717D02*
X21050D01*
X13550Y20617D02*
X20950D01*
X13850Y20517D02*
X20750D01*
X14050Y20417D02*
X20550D01*
X14350Y20317D02*
X20250D01*
X14650Y20217D02*
X19950D01*
X15150Y20117D02*
X19450D01*
X15650Y20017D02*
X18850D01*
X15650Y19917D02*
X18250D01*
X15750Y19817D02*
X18250D01*
X15750Y19717D02*
X18150D01*
X15850Y19617D02*
X18050D01*
X15950Y19517D02*
X17950D01*
X16050Y19417D02*
X17850D01*
X16250Y19317D02*
X17650D01*
X16450Y19217D02*
X17450D01*
D65*
X107800Y8300D02*
D03*
M02*
