%FSLAX25Y25*%
%MOIN*%
G70*
G01*
G75*
G04 Layer_Color=128*
%ADD10O,0.01772X0.05512*%
%ADD11R,0.05118X0.08268*%
%ADD12O,0.00984X0.06102*%
%ADD13O,0.06102X0.00984*%
%ADD14R,0.08661X0.11024*%
%ADD15R,0.11024X0.11024*%
%ADD16R,0.02362X0.03740*%
%ADD17O,0.05512X0.01378*%
%ADD18R,0.06693X0.04134*%
%ADD19C,0.03500*%
%ADD20C,0.02000*%
%ADD21C,0.01200*%
%ADD22C,0.00800*%
%ADD23C,0.01500*%
%ADD24C,0.01400*%
%ADD25C,0.01000*%
%ADD26C,0.00492*%
%ADD27C,0.00787*%
%ADD28C,0.06693*%
%ADD29R,0.06200X0.06200*%
%ADD30C,0.02000*%
%ADD31C,0.00984*%
%ADD32C,0.00100*%
%ADD33C,0.00394*%
%ADD34C,0.02500*%
%ADD35R,0.03937X0.04331*%
%ADD36R,0.04331X0.03937*%
%ADD37R,0.06000X0.05000*%
%ADD38R,0.05000X0.06000*%
%ADD39R,0.07087X0.05512*%
%ADD40R,0.05906X0.05118*%
%ADD41R,0.06200X0.06200*%
%ADD42C,0.06200*%
%ADD43C,0.03000*%
%ADD44C,0.04000*%
%ADD45R,0.03700X0.17300*%
%ADD46O,0.02572X0.06312*%
%ADD47R,0.05918X0.09068*%
%ADD48O,0.01784X0.06902*%
%ADD49O,0.06902X0.01784*%
%ADD50R,0.09461X0.11824*%
%ADD51R,0.11824X0.11824*%
%ADD52R,0.03162X0.04540*%
%ADD53O,0.06312X0.02178*%
%ADD54R,0.07493X0.04934*%
%ADD55C,0.07493*%
%ADD56R,0.07000X0.07000*%
%ADD57R,0.04737X0.05131*%
%ADD58R,0.05131X0.04737*%
%ADD59R,0.06800X0.05800*%
%ADD60R,0.05800X0.06800*%
%ADD61R,0.07887X0.06312*%
%ADD62R,0.06706X0.05918*%
%ADD63R,0.07000X0.07000*%
%ADD64C,0.07000*%
D25*
X0Y0D02*
X125000D01*
X0Y150000D02*
X125000D01*
X0Y0D02*
Y150000D01*
X125000Y0D02*
Y150000D01*
D26*
X524202Y-215997D02*
X526310D01*
X527013Y-215763D01*
X527247Y-215529D01*
X527482Y-215060D01*
Y-214357D01*
X527247Y-213889D01*
X527013Y-213654D01*
X526310Y-213420D01*
X524202D01*
Y-218340D01*
X532332D02*
X530457Y-213420D01*
X528583Y-218340D01*
X529286Y-216700D02*
X531629D01*
X536760Y-214123D02*
X536291Y-213654D01*
X535588Y-213420D01*
X534651D01*
X533948Y-213654D01*
X533480Y-214123D01*
Y-214591D01*
X533714Y-215060D01*
X533948Y-215294D01*
X534417Y-215529D01*
X535823Y-215997D01*
X536291Y-216231D01*
X536525Y-216466D01*
X536760Y-216934D01*
Y-217637D01*
X536291Y-218106D01*
X535588Y-218340D01*
X534651D01*
X533948Y-218106D01*
X533480Y-217637D01*
X539501Y-213420D02*
Y-218340D01*
X537861Y-213420D02*
X541141D01*
X544773D02*
X541727D01*
Y-218340D01*
X544773D01*
X541727Y-215763D02*
X543601D01*
X549459Y-213420D02*
Y-218340D01*
Y-213420D02*
X551333Y-218340D01*
X553207Y-213420D02*
X551333Y-218340D01*
X553207Y-213420D02*
Y-218340D01*
X558362D02*
X556488Y-213420D01*
X554613Y-218340D01*
X555316Y-216700D02*
X557659D01*
X562790Y-214123D02*
X562322Y-213654D01*
X561619Y-213420D01*
X560681D01*
X559978Y-213654D01*
X559510Y-214123D01*
Y-214591D01*
X559744Y-215060D01*
X559978Y-215294D01*
X560447Y-215529D01*
X561853Y-215997D01*
X562322Y-216231D01*
X562556Y-216466D01*
X562790Y-216934D01*
Y-217637D01*
X562322Y-218106D01*
X561619Y-218340D01*
X560681D01*
X559978Y-218106D01*
X559510Y-217637D01*
X563891Y-213420D02*
Y-218340D01*
X567171Y-213420D02*
X563891Y-216700D01*
X565063Y-215529D02*
X567171Y-218340D01*
X572139Y-213420D02*
Y-218340D01*
Y-213420D02*
X574247D01*
X574950Y-213654D01*
X575184Y-213889D01*
X575419Y-214357D01*
Y-214826D01*
X575184Y-215294D01*
X574950Y-215529D01*
X574247Y-215763D01*
X572139D02*
X574247D01*
X574950Y-215997D01*
X575184Y-216231D01*
X575419Y-216700D01*
Y-217403D01*
X575184Y-217872D01*
X574950Y-218106D01*
X574247Y-218340D01*
X572139D01*
X577926Y-213420D02*
X577457Y-213654D01*
X576988Y-214123D01*
X576754Y-214591D01*
X576520Y-215294D01*
Y-216466D01*
X576754Y-217169D01*
X576988Y-217637D01*
X577457Y-218106D01*
X577926Y-218340D01*
X578863D01*
X579331Y-218106D01*
X579800Y-217637D01*
X580034Y-217169D01*
X580268Y-216466D01*
Y-215294D01*
X580034Y-214591D01*
X579800Y-214123D01*
X579331Y-213654D01*
X578863Y-213420D01*
X577926D01*
X583057D02*
Y-218340D01*
X581417Y-213420D02*
X584697D01*
X586923D02*
Y-218340D01*
X585283Y-213420D02*
X588563D01*
X590554D02*
X590086Y-213654D01*
X589617Y-214123D01*
X589383Y-214591D01*
X589148Y-215294D01*
Y-216466D01*
X589383Y-217169D01*
X589617Y-217637D01*
X590086Y-218106D01*
X590554Y-218340D01*
X591491D01*
X591960Y-218106D01*
X592428Y-217637D01*
X592663Y-217169D01*
X592897Y-216466D01*
Y-215294D01*
X592663Y-214591D01*
X592428Y-214123D01*
X591960Y-213654D01*
X591491Y-213420D01*
X590554D01*
X594045D02*
Y-218340D01*
Y-213420D02*
X595920Y-218340D01*
X597794Y-213420D02*
X595920Y-218340D01*
X597794Y-213420D02*
Y-218340D01*
D35*
X84000Y67847D02*
D03*
Y61154D02*
D03*
X91100Y61154D02*
D03*
Y67847D02*
D03*
X99300Y126854D02*
D03*
Y133546D02*
D03*
X92200D02*
D03*
Y126854D02*
D03*
X85100Y133546D02*
D03*
Y126854D02*
D03*
X97300Y30954D02*
D03*
Y37646D02*
D03*
X22300Y132846D02*
D03*
Y126154D02*
D03*
X37100Y132846D02*
D03*
Y126154D02*
D03*
X29100Y88346D02*
D03*
Y81654D02*
D03*
X36200Y88346D02*
D03*
Y81654D02*
D03*
X8500Y88346D02*
D03*
Y81654D02*
D03*
X16700Y88346D02*
D03*
Y81654D02*
D03*
X29400Y132846D02*
D03*
Y126154D02*
D03*
X43200Y88346D02*
D03*
Y81654D02*
D03*
X44200Y132846D02*
D03*
Y126154D02*
D03*
X8100Y102654D02*
D03*
Y109346D02*
D03*
X99300Y119346D02*
D03*
Y112654D02*
D03*
X73800Y126954D02*
D03*
Y133646D02*
D03*
X66700Y126954D02*
D03*
Y133646D02*
D03*
X51300Y132846D02*
D03*
Y126154D02*
D03*
X33800Y55246D02*
D03*
Y48554D02*
D03*
X26700D02*
D03*
Y55246D02*
D03*
X92200Y98554D02*
D03*
Y105246D02*
D03*
X67100D02*
D03*
Y98554D02*
D03*
X52900Y83545D02*
D03*
Y76853D02*
D03*
X59900D02*
D03*
Y83545D02*
D03*
D36*
X93753Y75100D02*
D03*
X100446D02*
D03*
X61846Y48400D02*
D03*
X55154D02*
D03*
X83354Y37800D02*
D03*
X90046D02*
D03*
X99454Y104000D02*
D03*
X106146D02*
D03*
X83354Y44900D02*
D03*
X90046D02*
D03*
X8254Y123700D02*
D03*
X14946D02*
D03*
X8254Y116600D02*
D03*
X14946D02*
D03*
X53054Y112600D02*
D03*
X59746D02*
D03*
X41054Y34300D02*
D03*
X47746D02*
D03*
X41054Y48400D02*
D03*
X47746D02*
D03*
X8254Y130800D02*
D03*
X14946D02*
D03*
X45546Y98300D02*
D03*
X38854D02*
D03*
X75946Y44900D02*
D03*
X69254D02*
D03*
X75946Y37800D02*
D03*
X69254D02*
D03*
X75946Y30800D02*
D03*
X69254D02*
D03*
X55154Y41300D02*
D03*
X61846D02*
D03*
X55154Y34300D02*
D03*
X61846D02*
D03*
X83354Y30700D02*
D03*
X90046D02*
D03*
X100754Y87900D02*
D03*
X107446D02*
D03*
X67254Y76700D02*
D03*
X73946D02*
D03*
X67254Y83800D02*
D03*
X73946D02*
D03*
X59746Y90899D02*
D03*
X53054D02*
D03*
X59746Y105500D02*
D03*
X53054D02*
D03*
Y98399D02*
D03*
X59746D02*
D03*
X67254Y90900D02*
D03*
X73946D02*
D03*
X40146Y74400D02*
D03*
X33454D02*
D03*
X40146Y67300D02*
D03*
X33454D02*
D03*
D37*
X77800Y52900D02*
D03*
X88800D02*
D03*
X100700Y96000D02*
D03*
X111700D02*
D03*
X42300Y56500D02*
D03*
X53300D02*
D03*
D38*
X16800Y97100D02*
D03*
Y108100D02*
D03*
X84100Y99900D02*
D03*
Y110900D02*
D03*
X75100Y99900D02*
D03*
Y110900D02*
D03*
D39*
X7100Y59480D02*
D03*
Y44520D02*
D03*
X16800Y59480D02*
D03*
Y44520D02*
D03*
X84100Y90980D02*
D03*
Y76020D02*
D03*
D40*
X25800Y97160D02*
D03*
Y104640D02*
D03*
M02*
