M48
;Layer_Color=9474304
;FILE_FORMAT=2:5
INCH,LZ
;TYPE=PLATED
T1F00S00C0.01000
T2F00S00C0.03543
;TYPE=NON_PLATED
T3F00S00C0.06693
%
T01
X00393Y00308
X00364Y00436
X00341
X00437
X00509Y00402
X00618Y00376
X006528Y003762
X00657Y00333
X00756Y00344
X00755Y00414
X00746Y00485
X00769
X00833Y00486
X00832Y00551
X00875Y0061
Y00714
X00802Y00679
X00851Y00804
X00832Y00829
X00977Y00802
X01001
X009Y0034
X00692Y00484
X00618Y00446
X00402Y00641
Y00707
X00292Y00715
Y00755
X00269Y00601
X00339Y0059
Y00613
X00072Y00641
Y00665
X00131Y00818
X00119Y00884
X00211Y00947
X0021Y00979
X00168Y01026
X00124Y01077
Y01104
X00025Y01124
Y01202
Y01242
Y01045
X00258Y01107
Y01131
X00251Y01168
X00291
Y01211
X00251
X00211
Y01168
X00369
X00409
Y01211
X00369
X00332Y01275
X00359Y01382
X00379Y01402
X00399Y01381
X0028Y01382
X00299Y01402
X0024Y01382
X00202
X00478Y01328
X00559Y01283
Y01222
X00667Y0123
X00645Y01128
X00638Y011
X00635Y01006
X00597Y01013
X00562Y01023
Y00948
X00612
X0074Y00942
X00792Y00999
X00885Y00985
X00957Y00951
X00995Y01003
X00994Y01083
X00916Y01092
X00899Y01109
X00904Y01217
X00944
X00864
X00824
X00781Y01283
X0062Y01349
Y01414
X0097Y01383
X0099Y01403
X0101Y01382
X01068
X01088Y01402
X01108Y01381
X01178Y01284
X01028Y0123
X01068Y00946
X01041Y00848
X0097884Y0084084
X0095Y00848
X00812Y00846
X0049Y0084
X00399Y00849
X00328Y0085
X0026
X00458Y00945
Y01025
Y01065
Y01124
X00432Y01104
T02
X00375Y00084
X00475
X00575
X00675
X00775
X00875
T03
X0073841Y00628
X01014
M30
