  0
SECTION
  2
HEADER
  9
$ACADVER
  1
AC1015
  9
$ACADMAINTVER
 70
     6
  9
$DWGCODEPAGE
  3
ANSI_1252
  9
$INSBASE
 10
0.0
 20
0.0
 30
0.0
  9
$EXTMIN
 10
-71.863262172
 20
-64.65
 30
0.0
  9
$EXTMAX
 10
70.3571247281
 20
64.65
 30
0.0
  9
$LIMMIN
 10
0.0
 20
0.0
  9
$LIMMAX
 10
420.0
 20
297.0
  9
$ORTHOMODE
 70
     0
  9
$REGENMODE
 70
     1
  9
$FILLMODE
 70
     1
  9
$QTEXTMODE
 70
     0
  9
$MIRRTEXT
 70
     1
  9
$LTSCALE
 40
1.0
  9
$ATTMODE
 70
     1
  9
$TEXTSIZE
 40
3.5
  9
$TRACEWID
 40
1.0
  9
$TEXTSTYLE
  7
Standard
  9
$CLAYER
  8
0
  9
$CELTYPE
  6
ByLayer
  9
$CECOLOR
 62
   256
  9
$CELTSCALE
 40
1.0
  9
$DISPSILH
 70
     0
  9
$DIMSCALE
 40
1.0
  9
$DIMASZ
 40
3.556
  9
$DIMEXO
 40
0.0
  9
$DIMDLI
 40
3.75
  9
$DIMRND
 40
0.0
  9
$DIMDLE
 40
0.0
  9
$DIMEXE
 40
1.0
  9
$DIMTP
 40
0.0
  9
$DIMTM
 40
0.0
  9
$DIMTXT
 40
3.5
  9
$DIMCEN
 40
2.5
  9
$DIMTSZ
 40
0.0
  9
$DIMTOL
 70
     0
  9
$DIMLIM
 70
     0
  9
$DIMTIH
 70
     1
  9
$DIMTOH
 70
     1
  9
$DIMSE1
 70
     0
  9
$DIMSE2
 70
     0
  9
$DIMTAD
 70
     1
  9
$DIMZIN
 70
     1
  9
$DIMBLK
  1

  9
$DIMASO
 70
     1
  9
$DIMSHO
 70
     1
  9
$DIMPOST
  1

  9
$DIMAPOST
  1

  9
$DIMALT
 70
     0
  9
$DIMALTD
 70
     3
  9
$DIMALTF
 40
0.0393700787
  9
$DIMLFAC
 40
1.0
  9
$DIMTOFL
 70
     1
  9
$DIMTVP
 40
0.0
  9
$DIMTIX
 70
     0
  9
$DIMSOXD
 70
     0
  9
$DIMSAH
 70
     0
  9
$DIMBLK1
  1

  9
$DIMBLK2
  1

  9
$DIMSTYLE
  2
ISO-25
  9
$DIMCLRD
 70
     0
  9
$DIMCLRE
 70
     0
  9
$DIMCLRT
 70
     0
  9
$DIMTFAC
 40
1.0
  9
$DIMGAP
 40
1.524
  9
$DIMJUST
 70
     0
  9
$DIMSD1
 70
     0
  9
$DIMSD2
 70
     0
  9
$DIMTOLJ
 70
     0
  9
$DIMTZIN
 70
     1
  9
$DIMALTZ
 70
     0
  9
$DIMALTTZ
 70
     0
  9
$DIMUPT
 70
     0
  9
$DIMDEC
 70
     2
  9
$DIMTDEC
 70
     2
  9
$DIMALTU
 70
     2
  9
$DIMALTTD
 70
     3
  9
$DIMTXSTY
  7
Standard
  9
$DIMAUNIT
 70
     0
  9
$DIMADEC
 70
     2
  9
$DIMALTRND
 40
0.0
  9
$DIMAZIN
 70
     0
  9
$DIMDSEP
 70
    44
  9
$DIMATFIT
 70
     3
  9
$DIMFRAC
 70
     0
  9
$DIMLDRBLK
  1

  9
$DIMLUNIT
 70
     2
  9
$DIMLWD
 70
    -2
  9
$DIMLWE
 70
    -2
  9
$DIMTMOVE
 70
     0
  9
$LUNITS
 70
     2
  9
$LUPREC
 70
     2
  9
$SKETCHINC
 40
1.0
  9
$FILLETRAD
 40
0.0
  9
$AUNITS
 70
     0
  9
$AUPREC
 70
     2
  9
$MENU
  1
.
  9
$ELEVATION
 40
0.0
  9
$PELEVATION
 40
0.0
  9
$THICKNESS
 40
0.0
  9
$LIMCHECK
 70
     0
  9
$CHAMFERA
 40
0.0
  9
$CHAMFERB
 40
0.0
  9
$CHAMFERC
 40
0.0
  9
$CHAMFERD
 40
0.0
  9
$SKPOLY
 70
     0
  9
$TDCREATE
 40
2460763.501430926
  9
$TDUCREATE
 40
2460763.668097593
  9
$TDUPDATE
 40
2460763.501530139
  9
$TDUUPDATE
 40
2460763.668196806
  9
$TDINDWG
 40
0.0000000116
  9
$TDUSRTIMER
 40
0.0000000116
  9
$USRTIMER
 70
     1
  9
$ANGBASE
 50
0.0
  9
$ANGDIR
 70
     0
  9
$PDMODE
 70
     0
  9
$PDSIZE
 40
-1.0
  9
$PLINEWID
 40
0.0
  9
$SPLFRAME
 70
     0
  9
$SPLINETYPE
 70
     6
  9
$SPLINESEGS
 70
     8
  9
$HANDSEED
  5
25A
  9
$SURFTAB1
 70
     6
  9
$SURFTAB2
 70
     6
  9
$SURFTYPE
 70
     6
  9
$SURFU
 70
     6
  9
$SURFV
 70
     6
  9
$UCSBASE
  2

  9
$UCSNAME
  2

  9
$UCSORG
 10
0.0
 20
0.0
 30
0.0
  9
$UCSXDIR
 10
1.0
 20
0.0
 30
0.0
  9
$UCSYDIR
 10
0.0
 20
1.0
 30
0.0
  9
$UCSORTHOREF
  2

  9
$UCSORTHOVIEW
 70
     0
  9
$UCSORGTOP
 10
0.0
 20
0.0
 30
0.0
  9
$UCSORGBOTTOM
 10
0.0
 20
0.0
 30
0.0
  9
$UCSORGLEFT
 10
0.0
 20
0.0
 30
0.0
  9
$UCSORGRIGHT
 10
0.0
 20
0.0
 30
0.0
  9
$UCSORGFRONT
 10
0.0
 20
0.0
 30
0.0
  9
$UCSORGBACK
 10
0.0
 20
0.0
 30
0.0
  9
$PUCSBASE
  2

  9
$PUCSNAME
  2

  9
$PUCSORG
 10
0.0
 20
0.0
 30
0.0
  9
$PUCSXDIR
 10
1.0
 20
0.0
 30
0.0
  9
$PUCSYDIR
 10
0.0
 20
1.0
 30
0.0
  9
$PUCSORTHOREF
  2

  9
$PUCSORTHOVIEW
 70
     0
  9
$PUCSORGTOP
 10
0.0
 20
0.0
 30
0.0
  9
$PUCSORGBOTTOM
 10
0.0
 20
0.0
 30
0.0
  9
$PUCSORGLEFT
 10
0.0
 20
0.0
 30
0.0
  9
$PUCSORGRIGHT
 10
0.0
 20
0.0
 30
0.0
  9
$PUCSORGFRONT
 10
0.0
 20
0.0
 30
0.0
  9
$PUCSORGBACK
 10
0.0
 20
0.0
 30
0.0
  9
$USERI1
 70
     0
  9
$USERI2
 70
     0
  9
$USERI3
 70
     0
  9
$USERI4
 70
     0
  9
$USERI5
 70
     0
  9
$USERR1
 40
0.0
  9
$USERR2
 40
0.0
  9
$USERR3
 40
0.0
  9
$USERR4
 40
0.0
  9
$USERR5
 40
0.0
  9
$WORLDVIEW
 70
     1
  9
$SHADEDGE
 70
     3
  9
$SHADEDIF
 70
    70
  9
$TILEMODE
 70
     1
  9
$MAXACTVP
 70
    64
  9
$PINSBASE
 10
0.0
 20
0.0
 30
0.0
  9
$PLIMCHECK
 70
     0
  9
$PEXTMIN
 10
1.0000000000E+20
 20
1.0000000000E+20
 30
1.0000000000E+20
  9
$PEXTMAX
 10
-1.0000000000E+20
 20
-1.0000000000E+20
 30
-1.0000000000E+20
  9
$PLIMMIN
 10
0.0
 20
0.0
  9
$PLIMMAX
 10
420.0
 20
297.0
  9
$UNITMODE
 70
     0
  9
$VISRETAIN
 70
     1
  9
$PLINEGEN
 70
     0
  9
$PSLTSCALE
 70
     1
  9
$TREEDEPTH
 70
  3020
  9
$CMLSTYLE
  2
Standard
  9
$CMLJUST
 70
     0
  9
$CMLSCALE
 40
20.0
  9
$PROXYGRAPHICS
 70
     1
  9
$MEASUREMENT
 70
     1
  9
$CELWEIGHT
370
    -1
  9
$ENDCAPS
280
     0
  9
$JOINSTYLE
280
     0
  9
$LWDISPLAY
290
     1
  9
$INSUNITS
 70
     4
  9
$HYPERLINKBASE
  1

  9
$STYLESHEET
  1

  9
$XEDIT
290
     1
  9
$CEPSNTYPE
380
     0
  9
$PSTYLEMODE
290
     1
  9
$FINGERPRINTGUID
  2
{8398f5e3-d4f1-4d84-8c1d-26fbd36e14f0}
  9
$VERSIONGUID
  2
{FAEB1C32-E019-11D5-929B-00C0DF256EC4}
  9
$EXTNAMES
290
     1
  9
$PSVPSCALE
 40
0.0
  9
$OLESTARTUP
290
     0
  0
ENDSEC
  0
SECTION
  2
CLASSES
  0
CLASS
  1
ACDBDICTIONARYWDFLT
  2
AcDbDictionaryWithDefault
  3
ObjectDBX Classes
 90
        0
280
     0
281
     0
  0
CLASS
  1
VISUALSTYLE
  2
AcDbVisualStyle
  3
ObjectDBX Classes
 90
     4095
280
     0
281
     0
  0
CLASS
  1
MATERIAL
  2
AcDbMaterial
  3
ObjectDBX Classes
 90
     1153
280
     0
281
     0
  0
CLASS
  1
SCALE
  2
AcDbScale
  3
ObjectDBX Classes
 90
     1153
280
     0
281
     0
  0
CLASS
  1
TABLESTYLE
  2
AcDbTableStyle
  3
ObjectDBX Classes
 90
     4095
280
     0
281
     0
  0
CLASS
  1
MLEADERSTYLE
  2
AcDbMLeaderStyle
  3
ACDB_MLEADERSTYLE_CLASS
 90
     4095
280
     0
281
     0
  0
CLASS
  1
SUN
  2
AcDbSun
  3
SCENEOE
 90
     1153
280
     0
281
     0
  0
CLASS
  1
ACDBPLACEHOLDER
  2
AcDbPlaceHolder
  3
ObjectDBX Classes
 90
        0
280
     0
281
     0
  0
CLASS
  1
LAYOUT
  2
AcDbLayout
  3
ObjectDBX Classes
 90
        0
280
     0
281
     0
  0
ENDSEC
  0
SECTION
  2
TABLES
  0
TABLE
  2
VPORT
  5
8
330
0
100
AcDbSymbolTable
 70
     1
  0
VPORT
  5
29
330
8
100
AcDbSymbolTableRecord
100
AcDbViewportTableRecord
  2
*Active
 70
     0
 10
0.0
 20
0.0
 11
1.0
 21
1.0
 12
-0.753068722
 22
0.0
 13
0.0
 23
0.0
 14
10.0
 24
10.0
 15
10.0
 25
10.0
 16
0.0
 26
0.0
 36
1.0
 17
0.0
 27
0.0
 37
0.0
 40
131.886
 41
1.0999256527
 42
50.0
 43
0.0
 44
0.0
 50
0.0
 51
0.0
 71
     0
 72
   100
 73
     1
 74
     3
 75
     0
 76
     0
 77
     0
 78
     0
281
     0
 65
     1
110
0.0
120
0.0
130
0.0
111
1.0
121
0.0
131
0.0
112
0.0
122
1.0
132
0.0
 79
     0
146
0.0
  0
ENDTAB
  0
TABLE
  2
LTYPE
  5
5
330
0
100
AcDbSymbolTable
 70
     6
  0
LTYPE
  5
14
330
5
100
AcDbSymbolTableRecord
100
AcDbLinetypeTableRecord
  2
ByBlock
 70
     0
  3

 72
    65
 73
     0
 40
0.0
  0
LTYPE
  5
15
330
5
100
AcDbSymbolTableRecord
100
AcDbLinetypeTableRecord
  2
ByLayer
 70
     0
  3

 72
    65
 73
     0
 40
0.0
  0
LTYPE
  5
16
330
5
100
AcDbSymbolTableRecord
100
AcDbLinetypeTableRecord
  2
Continuous
 70
     0
  3
Solid line
 72
    65
 73
     0
 40
0.0
  0
LTYPE
  5
5E
330
5
100
AcDbSymbolTableRecord
100
AcDbLinetypeTableRecord
  2
HIDDEN
 70
     0
  3
Hidden __ __ __ __ __ __ __ __ __ __ __ __ __ __
 72
    65
 73
     2
 40
1.905
 49
1.27
 74
     0
 49
-0.635
 74
     0
  0
LTYPE
  5
5F
330
5
100
AcDbSymbolTableRecord
100
AcDbLinetypeTableRecord
  2
PHANTOM
 70
     0
  3
Phantom ______  __  __  ______  __  __  ______
 72
    65
 73
     6
 40
12.7
 49
6.35
 74
     0
 49
-1.27
 74
     0
 49
1.27
 74
     0
 49
-1.27
 74
     0
 49
1.27
 74
     0
 49
-1.27
 74
     0
  0
LTYPE
  5
60
330
5
100
AcDbSymbolTableRecord
100
AcDbLinetypeTableRecord
  2
CENTER
 70
     0
  3
Center ____ _ ____ _ ____ _ ____ _ ____ _ ____
 72
    65
 73
     4
 40
10.16
 49
6.35
 74
     0
 49
-1.27
 74
     0
 49
1.27
 74
     0
 49
-1.27
 74
     0
  0
LTYPE
  5
61
330
5
100
AcDbSymbolTableRecord
100
AcDbLinetypeTableRecord
  2
CENTERX2
 70
     0
  3
Center (2x) ________  __  ________  __  _____
 72
    65
 73
     4
 40
20.32
 49
12.7
 74
     0
 49
-2.54
 74
     0
 49
2.54
 74
     0
 49
-2.54
 74
     0
  0
LTYPE
  5
62
330
5
100
AcDbSymbolTableRecord
100
AcDbLinetypeTableRecord
  2
DOT2
 70
     0
  3
Dot (.5x) ........................................
 72
    65
 73
     2
 40
0.635
 49
0.0
 74
     0
 49
-0.635
 74
     0
  0
ENDTAB
  0
TABLE
  2
LAYER
  5
2
330
0
100
AcDbSymbolTable
 70
     1
  0
LAYER
  5
10
330
2
100
AcDbSymbolTableRecord
100
AcDbLayerTableRecord
  2
0
 70
     0
 62
     7
  6
Continuous
370
    -3
390
F
  0
ENDTAB
  0
TABLE
  2
STYLE
  5
3
330
0
100
AcDbSymbolTable
 70
     2
  0
STYLE
  5
11
330
3
100
AcDbSymbolTableRecord
100
AcDbTextStyleTableRecord
  2
Standard
 70
     0
 40
0.0
 41
1.0
 50
0.0
 71
     0
 42
3.5
  3
txt
  4

  0
STYLE
  5
256
330
3
100
AcDbSymbolTableRecord
100
AcDbTextStyleTableRecord
  2
SLDTEXTSTYLE0
 70
     0
 40
0.0
 41
0.7
 50
0.0
 71
     0
 42
3.5
  3
TXT
  4

  0
ENDTAB
  0
TABLE
  2
VIEW
  5
6
330
0
100
AcDbSymbolTable
 70
     0
  0
ENDTAB
  0
TABLE
  2
UCS
  5
7
330
0
100
AcDbSymbolTable
 70
     0
  0
ENDTAB
  0
TABLE
  2
APPID
  5
9
330
0
100
AcDbSymbolTable
 70
     1
  0
APPID
  5
12
330
9
100
AcDbSymbolTableRecord
100
AcDbRegAppTableRecord
  2
ACAD
 70
     0
  0
ENDTAB
  0
TABLE
  2
DIMSTYLE
  5
A
330
0
100
AcDbSymbolTable
 70
     1
100
AcDbDimStyleTable
  0
DIMSTYLE
105
27
330
A
100
AcDbSymbolTableRecord
100
AcDbDimStyleTableRecord
  2
ISO-25
 70
     0
 41
2.5
 42
0.625
 43
3.75
 44
1.25
 73
     0
 74
     0
 77
     1
 78
     8
140
2.5
141
2.5
143
0.0393700787
147
0.625
171
     3
172
     1
178
     0
271
     2
272
     2
274
     3
278
    44
283
     0
284
     8
340
11
  0
ENDTAB
  0
TABLE
  2
BLOCK_RECORD
  5
1
330
0
100
AcDbSymbolTable
 70
     1
  0
BLOCK_RECORD
  5
1F
330
1
100
AcDbSymbolTableRecord
100
AcDbBlockTableRecord
  2
*Model_Space
340
22
  0
BLOCK_RECORD
  5
1B
330
1
100
AcDbSymbolTableRecord
100
AcDbBlockTableRecord
  2
*Paper_Space
340
1E
  0
BLOCK_RECORD
  5
23
330
1
100
AcDbSymbolTableRecord
100
AcDbBlockTableRecord
  2
*Paper_Space0
340
26
  0
ENDTAB
  0
ENDSEC
  0
SECTION
  2
BLOCKS
  0
BLOCK
  5
20
330
1F
100
AcDbEntity
  8
0
100
AcDbBlockBegin
  2
*Model_Space
 70
     0
 10
0.0
 20
0.0
 30
0.0
  3
*Model_Space
  1

  0
ENDBLK
  5
21
330
1F
100
AcDbEntity
  8
0
100
AcDbBlockEnd
  0
BLOCK
  5
1C
330
1B
100
AcDbEntity
 67
     1
  8
0
100
AcDbBlockBegin
  2
*Paper_Space
 70
     0
 10
0.0
 20
0.0
 30
0.0
  3
*Paper_Space
  1

  0
ENDBLK
  5
1D
330
1B
100
AcDbEntity
 67
     1
  8
0
100
AcDbBlockEnd
  0
BLOCK
  5
24
330
23
100
AcDbEntity
  8
0
100
AcDbBlockBegin
  2
*Paper_Space0
 70
     0
 10
0.0
 20
0.0
 30
0.0
  3
*Paper_Space0
  1

  0
ENDBLK
  5
25
330
23
100
AcDbEntity
  8
0
100
AcDbBlockEnd
  0
ENDSEC
  0
SECTION
  2
ENTITIES
  0
LWPOLYLINE
  5
67
330
1F
100
AcDbEntity
  8
0
  6
Continuous
 62
     7
370
    25
100
AcDbPolyline
 90
       30
 70
   128
 43
0.0
 10
47.9913372391
 20
-38.5
 10
48.5233619352
 20
-38.418171945
 10
49.0305097478
 20
-38.1765139688
 10
49.4890670089
 20
-37.78632573
 10
49.8775920905
 20
-37.2658519967
 10
50.1779179917
 20
-36.6394295424
 10
50.3760018072
 20
-35.9363491849
 10
50.4625813577
 20
-35.18948618
 10
50.4336082799
 20
-34.4337630121
 10
50.2904373226
 20
-33.7045164563
 10
50.0397630007
 20
-33.0358452712
 10
49.6933065668
 20
-32.4590157783
 10
49.2672679388
 20
-32.0009998834
 10
48.7815682093
 20
-31.6832139009
 10
48.258918158
 20
-31.52051715
 10
47.7237563203
 20
-31.52051715
 10
47.2011062689
 20
-31.6832139009
 10
46.7154065395
 20
-32.0009998834
 10
46.2893679114
 20
-32.4590157783
 10
45.9429114775
 20
-33.0358452712
 10
45.6922371556
 20
-33.7045164563
 10
45.5490661983
 20
-34.4337630121
 10
45.5200931205
 20
-35.18948618
 10
45.6066726711
 20
-35.9363491849
 10
45.8047564865
 20
-36.6394295424
 10
46.1050823877
 20
-37.2658519967
 10
46.4936074694
 20
-37.78632573
 10
46.9521647304
 20
-38.1765139688
 10
47.459312543
 20
-38.418171945
 10
47.9913372391
 20
-38.5
  0
LWPOLYLINE
  5
68
330
1F
100
AcDbEntity
  8
0
  6
Continuous
 62
     7
370
    25
100
AcDbPolyline
 90
       30
 70
   128
 43
0.0
 10
47.9913372391
 20
-3.5
 10
48.5233619352
 20
-3.418171945
 10
49.0305097478
 20
-3.1765139688
 10
49.4890670089
 20
-2.78632573
 10
49.8775920905
 20
-2.2658519967
 10
50.1779179917
 20
-1.6394295424
 10
50.3760018072
 20
-0.9363491849
 10
50.4625813577
 20
-0.18948618
 10
50.4336082799
 20
0.5662369879
 10
50.2904373226
 20
1.2954835437
 10
50.0397630007
 20
1.9641547288
 10
49.6933065668
 20
2.5409842217
 10
49.2672679388
 20
2.9990001166
 10
48.7815682093
 20
3.3167860991
 10
48.258918158
 20
3.47948285
 10
47.7237563203
 20
3.47948285
 10
47.2011062689
 20
3.3167860991
 10
46.7154065395
 20
2.9990001166
 10
46.2893679114
 20
2.5409842217
 10
45.9429114775
 20
1.9641547288
 10
45.6922371556
 20
1.2954835437
 10
45.5490661983
 20
0.5662369879
 10
45.5200931205
 20
-0.18948618
 10
45.6066726711
 20
-0.9363491849
 10
45.8047564865
 20
-1.6394295424
 10
46.1050823877
 20
-2.2658519967
 10
46.4936074694
 20
-2.78632573
 10
46.9521647304
 20
-3.1765139688
 10
47.459312543
 20
-3.418171945
 10
47.9913372391
 20
-3.5
  0
LWPOLYLINE
  5
71
330
1F
100
AcDbEntity
  8
0
  6
Continuous
 62
     7
370
    25
100
AcDbPolyline
 90
       30
 70
   128
 43
0.0
 10
47.9913372391
 20
31.5
 10
48.5233619352
 20
31.581828055
 10
49.0305097478
 20
31.8234860312
 10
49.4890670089
 20
32.21367427
 10
49.8775920905
 20
32.7341480033
 10
50.1779179917
 20
33.3605704576
 10
50.3760018072
 20
34.0636508151
 10
50.4625813577
 20
34.81051382
 10
50.4336082799
 20
35.5662369879
 10
50.2904373226
 20
36.2954835437
 10
50.0397630007
 20
36.9641547288
 10
49.6933065668
 20
37.5409842217
 10
49.2672679388
 20
37.9990001166
 10
48.7815682093
 20
38.3167860991
 10
48.258918158
 20
38.47948285
 10
47.7237563203
 20
38.47948285
 10
47.2011062689
 20
38.3167860991
 10
46.7154065395
 20
37.9990001166
 10
46.2893679114
 20
37.5409842217
 10
45.9429114775
 20
36.9641547288
 10
45.6922371556
 20
36.2954835437
 10
45.5490661983
 20
35.5662369879
 10
45.5200931205
 20
34.81051382
 10
45.6066726711
 20
34.0636508151
 10
45.8047564865
 20
33.3605704576
 10
46.1050823877
 20
32.7341480033
 10
46.4936074694
 20
32.21367427
 10
46.9521647304
 20
31.8234860312
 10
47.459312543
 20
31.581828055
 10
47.9913372391
 20
31.5
  0
LWPOLYLINE
  5
102
330
1F
100
AcDbEntity
  8
0
  6
Continuous
 62
     7
370
    25
100
AcDbPolyline
 90
       44
 70
   128
 43
0.0
 10
23.9497066788
 20
-52.9
 10
24.7630557059
 20
-52.8158126078
 10
25.5590696106
 20
-52.5650447393
 10
26.3207827385
 20
-52.1530410762
 10
27.0319604968
 20
-51.5885827613
 10
27.6774453662
 20
-50.8837002437
 10
28.2434799573
 20
-50.0534168703
 10
28.7180002257
 20
-49.1154286899
 10
29.0908925956
 20
-48.0897272919
 10
29.3542095135
 20
-46.9981737209
 10
29.5023388366
 20
-45.8640325462
 10
29.5321234454
 20
-44.7114760178
 10
29.4429285327
 20
-43.5650688773
 10
29.2366551333
 20
-42.4492448023
 10
28.9176996065
 20
-41.3877856459
 10
28.4928599357
 20
-40.4033145671
 10
27.9711908407
 20
-39.5168138578
 10
27.3638107928
 20
-38.7471777414
 10
26.6836650431
 20
-38.1108096757
 10
25.9452497173
 20
-37.621272741
 10
25.1643028563
 20
-37.2890005673
 10
24.3574689865
 20
-37.1210749591
 10
23.5419443711
 20
-37.1210749591
 10
22.7351105012
 20
-37.2890005673
 10
21.9541636402
 20
-37.621272741
 10
21.2157483145
 20
-38.1108096757
 10
20.5356025648
 20
-38.7471777414
 10
19.9282225168
 20
-39.5168138578
 10
19.4065534219
 20
-40.4033145671
 10
18.9817137511
 20
-41.3877856459
 10
18.6627582243
 20
-42.4492448023
 10
18.4564848249
 20
-43.5650688773
 10
18.3672899122
 20
-44.7114760178
 10
18.397074521
 20
-45.8640325462
 10
18.5452038441
 20
-46.9981737209
 10
18.808520762
 20
-48.0897272919
 10
19.1814131319
 20
-49.1154286899
 10
19.6559334003
 20
-50.0534168703
 10
20.2219679914
 20
-50.8837002437
 10
20.8674528608
 20
-51.5885827613
 10
21.578630619
 20
-52.1530410762
 10
22.340343747
 20
-52.5650447393
 10
23.1363576517
 20
-52.8158126078
 10
23.9497066788
 20
-52.9
  0
LWPOLYLINE
  5
106
330
1F
100
AcDbEntity
  8
0
  6
Continuous
 62
     7
370
    25
100
AcDbPolyline
 90
       44
 70
   128
 43
0.0
 10
23.9497066788
 20
-22.9
 10
24.7630557059
 20
-22.8158126078
 10
25.5590696106
 20
-22.5650447393
 10
26.3207827385
 20
-22.1530410762
 10
27.0319604968
 20
-21.5885827613
 10
27.6774453662
 20
-20.8837002437
 10
28.2434799573
 20
-20.0534168703
 10
28.7180002257
 20
-19.1154286899
 10
29.0908925956
 20
-18.0897272919
 10
29.3542095135
 20
-16.9981737209
 10
29.5023388366
 20
-15.8640325462
 10
29.5321234454
 20
-14.7114760178
 10
29.4429285327
 20
-13.5650688773
 10
29.2366551333
 20
-12.4492448023
 10
28.9176996065
 20
-11.3877856459
 10
28.4928599357
 20
-10.4033145671
 10
27.9711908407
 20
-9.5168138578
 10
27.3638107928
 20
-8.7471777414
 10
26.6836650431
 20
-8.1108096757
 10
25.9452497173
 20
-7.621272741
 10
25.1643028563
 20
-7.2890005673
 10
24.3574689865
 20
-7.1210749591
 10
23.5419443711
 20
-7.1210749591
 10
22.7351105012
 20
-7.2890005673
 10
21.9541636402
 20
-7.621272741
 10
21.2157483145
 20
-8.1108096757
 10
20.5356025648
 20
-8.7471777414
 10
19.9282225168
 20
-9.5168138578
 10
19.4065534219
 20
-10.4033145671
 10
18.9817137511
 20
-11.3877856459
 10
18.6627582243
 20
-12.4492448023
 10
18.4564848249
 20
-13.5650688773
 10
18.3672899122
 20
-14.7114760178
 10
18.397074521
 20
-15.8640325462
 10
18.5452038441
 20
-16.9981737209
 10
18.808520762
 20
-18.0897272919
 10
19.1814131319
 20
-19.1154286899
 10
19.6559334003
 20
-20.0534168703
 10
20.2219679914
 20
-20.8837002437
 10
20.8674528608
 20
-21.5885827613
 10
21.578630619
 20
-22.1530410762
 10
22.340343747
 20
-22.5650447393
 10
23.1363576517
 20
-22.8158126078
 10
23.9497066788
 20
-22.9
  0
LWPOLYLINE
  5
10A
330
1F
100
AcDbEntity
  8
0
  6
Continuous
 62
     7
370
    25
100
AcDbPolyline
 90
       44
 70
   128
 43
0.0
 10
23.9497066788
 20
7.1
 10
24.7630557059
 20
7.1841873922
 10
25.5590696106
 20
7.4349552607
 10
26.3207827385
 20
7.8469589238
 10
27.0319604968
 20
8.4114172387
 10
27.6774453662
 20
9.1162997563
 10
28.2434799573
 20
9.9465831297
 10
28.7180002257
 20
10.8845713101
 10
29.0908925956
 20
11.9102727081
 10
29.3542095135
 20
13.0018262791
 10
29.5023388366
 20
14.1359674538
 10
29.5321234454
 20
15.2885239822
 10
29.4429285327
 20
16.4349311227
 10
29.2366551333
 20
17.5507551977
 10
28.9176996065
 20
18.6122143541
 10
28.4928599357
 20
19.5966854329
 10
27.9711908407
 20
20.4831861422
 10
27.3638107928
 20
21.2528222586
 10
26.6836650431
 20
21.8891903243
 10
25.9452497173
 20
22.378727259
 10
25.1643028563
 20
22.7109994327
 10
24.3574689865
 20
22.8789250409
 10
23.5419443711
 20
22.8789250409
 10
22.7351105012
 20
22.7109994327
 10
21.9541636402
 20
22.378727259
 10
21.2157483145
 20
21.8891903243
 10
20.5356025648
 20
21.2528222586
 10
19.9282225168
 20
20.4831861422
 10
19.4065534219
 20
19.5966854329
 10
18.9817137511
 20
18.6122143541
 10
18.6627582243
 20
17.5507551977
 10
18.4564848249
 20
16.4349311227
 10
18.3672899122
 20
15.2885239822
 10
18.397074521
 20
14.1359674538
 10
18.5452038441
 20
13.0018262791
 10
18.808520762
 20
11.9102727081
 10
19.1814131319
 20
10.8845713101
 10
19.6559334003
 20
9.9465831297
 10
20.2219679914
 20
9.1162997563
 10
20.8674528608
 20
8.4114172387
 10
21.578630619
 20
7.8469589238
 10
22.340343747
 20
7.4349552607
 10
23.1363576517
 20
7.1841873922
 10
23.9497066788
 20
7.1
  0
LWPOLYLINE
  5
10E
330
1F
100
AcDbEntity
  8
0
  6
Continuous
 62
     7
370
    25
100
AcDbPolyline
 90
       44
 70
   128
 43
0.0
 10
23.9497066788
 20
37.1
 10
24.7630557059
 20
37.1841873922
 10
25.5590696106
 20
37.4349552607
 10
26.3207827385
 20
37.8469589238
 10
27.0319604968
 20
38.4114172387
 10
27.6774453662
 20
39.1162997563
 10
28.2434799573
 20
39.9465831297
 10
28.7180002257
 20
40.8845713101
 10
29.0908925956
 20
41.9102727081
 10
29.3542095135
 20
43.0018262791
 10
29.5023388366
 20
44.1359674538
 10
29.5321234454
 20
45.2885239822
 10
29.4429285327
 20
46.4349311227
 10
29.2366551333
 20
47.5507551977
 10
28.9176996065
 20
48.6122143541
 10
28.4928599357
 20
49.5966854329
 10
27.9711908407
 20
50.4831861422
 10
27.3638107928
 20
51.2528222586
 10
26.6836650431
 20
51.8891903243
 10
25.9452497173
 20
52.378727259
 10
25.1643028563
 20
52.7109994327
 10
24.3574689865
 20
52.8789250409
 10
23.5419443711
 20
52.8789250409
 10
22.7351105012
 20
52.7109994327
 10
21.9541636402
 20
52.378727259
 10
21.2157483145
 20
51.8891903243
 10
20.5356025648
 20
51.2528222586
 10
19.9282225168
 20
50.4831861422
 10
19.4065534219
 20
49.5966854329
 10
18.9817137511
 20
48.6122143541
 10
18.6627582243
 20
47.5507551977
 10
18.4564848249
 20
46.4349311227
 10
18.3672899122
 20
45.2885239822
 10
18.397074521
 20
44.1359674538
 10
18.5452038441
 20
43.0018262791
 10
18.808520762
 20
41.9102727081
 10
19.1814131319
 20
40.8845713101
 10
19.6559334003
 20
39.9465831297
 10
20.2219679914
 20
39.1162997563
 10
20.8674528608
 20
38.4114172387
 10
21.578630619
 20
37.8469589238
 10
22.340343747
 20
37.4349552607
 10
23.1363576517
 20
37.1841873922
 10
23.9497066788
 20
37.1
  0
LWPOLYLINE
  5
10F
330
1F
100
AcDbEntity
  8
0
  6
Continuous
 62
     7
370
    25
100
AcDbPolyline
 90
       23
 70
   128
 43
0.0
 10
24.3492220102
 20
-37.1202300161
 10
24.3409750338
 20
-37.1210749591
 10
23.534141164
 20
-37.2890005673
 10
22.753194303
 20
-37.621272741
 10
22.0147789773
 20
-38.1108096757
 10
21.3346332275
 20
-38.7471777414
 10
20.7272531796
 20
-39.5168138578
 10
20.2055840847
 20
-40.4033145671
 10
19.7807444138
 20
-41.3877856459
 10
19.461788887
 20
-42.4492448023
 10
19.2555154876
 20
-43.5650688773
 10
19.1663205749
 20
-44.7114760178
 10
19.1961051838
 20
-45.8640325462
 10
19.3442345068
 20
-46.9981737209
 10
19.6075514248
 20
-48.0897272919
 10
19.9804437946
 20
-49.1154286899
 10
20.454964063
 20
-50.0534168703
 10
21.0209986542
 20
-50.8837002437
 10
21.6664835235
 20
-51.5885827613
 10
22.3776612818
 20
-52.1530410762
 10
23.1393744097
 20
-52.5650447393
 10
23.9353883144
 20
-52.8158126078
 10
24.3492220102
 20
-52.879769984
  0
LWPOLYLINE
  5
110
330
1F
100
AcDbEntity
  8
0
  6
Continuous
 62
     7
370
    25
100
AcDbPolyline
 90
       23
 70
   128
 43
0.0
 10
24.3492220102
 20
-7.1202300161
 10
24.3409750338
 20
-7.1210749591
 10
23.534141164
 20
-7.2890005673
 10
22.753194303
 20
-7.621272741
 10
22.0147789773
 20
-8.1108096757
 10
21.3346332275
 20
-8.7471777414
 10
20.7272531796
 20
-9.5168138578
 10
20.2055840847
 20
-10.4033145671
 10
19.7807444138
 20
-11.3877856459
 10
19.461788887
 20
-12.4492448023
 10
19.2555154876
 20
-13.5650688773
 10
19.1663205749
 20
-14.7114760178
 10
19.1961051838
 20
-15.8640325462
 10
19.3442345068
 20
-16.9981737209
 10
19.6075514247
 20
-18.0897272919
 10
19.9804437946
 20
-19.1154286899
 10
20.454964063
 20
-20.0534168703
 10
21.0209986542
 20
-20.8837002437
 10
21.6664835235
 20
-21.5885827613
 10
22.3776612818
 20
-22.1530410762
 10
23.1393744097
 20
-22.5650447393
 10
23.9353883144
 20
-22.8158126078
 10
24.3492220102
 20
-22.879769984
  0
LWPOLYLINE
  5
111
330
1F
100
AcDbEntity
  8
0
  6
Continuous
 62
     7
370
    25
100
AcDbPolyline
 90
       23
 70
   128
 43
0.0
 10
24.3492220102
 20
52.879769984
 10
24.3409750338
 20
52.8789250409
 10
23.534141164
 20
52.7109994327
 10
22.753194303
 20
52.378727259
 10
22.0147789773
 20
51.8891903243
 10
21.3346332275
 20
51.2528222586
 10
20.7272531796
 20
50.4831861422
 10
20.2055840847
 20
49.5966854329
 10
19.7807444138
 20
48.6122143541
 10
19.461788887
 20
47.5507551977
 10
19.2555154876
 20
46.4349311227
 10
19.1663205749
 20
45.2885239822
 10
19.1961051838
 20
44.1359674538
 10
19.3442345068
 20
43.0018262791
 10
19.6075514247
 20
41.9102727081
 10
19.9804437946
 20
40.8845713101
 10
20.454964063
 20
39.9465831297
 10
21.0209986542
 20
39.1162997563
 10
21.6664835235
 20
38.4114172387
 10
22.3776612818
 20
37.8469589238
 10
23.1393744097
 20
37.4349552607
 10
23.9353883144
 20
37.1841873922
 10
24.3492220102
 20
37.120230016
  0
LWPOLYLINE
  5
112
330
1F
100
AcDbEntity
  8
0
  6
Continuous
 62
     7
370
    25
100
AcDbPolyline
 90
       23
 70
   128
 43
0.0
 10
24.3492220102
 20
22.879769984
 10
24.3409750338
 20
22.8789250409
 10
23.534141164
 20
22.7109994327
 10
22.753194303
 20
22.378727259
 10
22.0147789773
 20
21.8891903243
 10
21.3346332275
 20
21.2528222586
 10
20.7272531796
 20
20.4831861422
 10
20.2055840847
 20
19.5966854329
 10
19.7807444138
 20
18.6122143541
 10
19.461788887
 20
17.5507551977
 10
19.2555154876
 20
16.4349311227
 10
19.1663205749
 20
15.2885239822
 10
19.1961051838
 20
14.1359674538
 10
19.3442345068
 20
13.0018262791
 10
19.6075514247
 20
11.9102727081
 10
19.9804437946
 20
10.8845713101
 10
20.454964063
 20
9.9465831297
 10
21.0209986542
 20
9.1162997563
 10
21.6664835235
 20
8.4114172387
 10
22.3776612818
 20
7.8469589238
 10
23.1393744097
 20
7.4349552607
 10
23.9353883144
 20
7.1841873922
 10
24.3492220102
 20
7.120230016
  0
LWPOLYLINE
  5
11E
330
1F
100
AcDbEntity
  8
0
  6
Continuous
 62
     7
370
    25
100
AcDbPolyline
 90
       44
 70
   128
 43
0.0
 10
-0.7990306627
 20
-52.9
 10
0.0143183644
 20
-52.8158126078
 10
0.8103322691
 20
-52.5650447393
 10
1.572045397
 20
-52.1530410762
 10
2.2832231553
 20
-51.5885827613
 10
2.9287080246
 20
-50.8837002437
 10
3.4947426158
 20
-50.0534168703
 10
3.9692628842
 20
-49.1154286899
 10
4.342155254
 20
-48.0897272919
 10
4.605472172
 20
-46.9981737209
 10
4.753601495
 20
-45.8640325462
 10
4.7833861038
 20
-44.7114760178
 10
4.6941911912
 20
-43.5650688773
 10
4.4879177918
 20
-42.4492448023
 10
4.168962265
 20
-41.3877856459
 10
3.7441225941
 20
-40.4033145671
 10
3.2224534992
 20
-39.5168138578
 10
2.6150734513
 20
-38.7471777414
 10
1.9349277015
 20
-38.1108096757
 10
1.1965123758
 20
-37.621272741
 10
0.4155655148
 20
-37.2890005673
 10
-0.391268355
 20
-37.1210749591
 10
-1.2067929705
 20
-37.1210749591
 10
-2.0136268403
 20
-37.2890005673
 10
-2.7945737013
 20
-37.621272741
 10
-3.532989027
 20
-38.1108096757
 10
-4.2131347767
 20
-38.7471777414
 10
-4.8205148247
 20
-39.5168138578
 10
-5.3421839196
 20
-40.4033145671
 10
-5.7670235905
 20
-41.3877856459
 10
-6.0859791173
 20
-42.4492448023
 10
-6.2922525167
 20
-43.5650688773
 10
-6.3814474293
 20
-44.7114760178
 10
-6.3516628205
 20
-45.8640325462
 10
-6.2035334975
 20
-46.9981737209
 10
-5.9402165795
 20
-48.0897272919
 10
-5.5673242096
 20
-49.1154286899
 10
-5.0928039413
 20
-50.0534168703
 10
-4.5267693501
 20
-50.8837002437
 10
-3.8812844807
 20
-51.5885827613
 10
-3.1701067225
 20
-52.1530410762
 10
-2.4083935946
 20
-52.5650447393
 10
-1.6123796899
 20
-52.8158126078
 10
-0.7990306627
 20
-52.9
  0
LWPOLYLINE
  5
122
330
1F
100
AcDbEntity
  8
0
  6
Continuous
 62
     7
370
    25
100
AcDbPolyline
 90
       44
 70
   128
 43
0.0
 10
-0.7990306627
 20
-22.9
 10
0.0143183644
 20
-22.8158126078
 10
0.8103322691
 20
-22.5650447393
 10
1.572045397
 20
-22.1530410762
 10
2.2832231553
 20
-21.5885827613
 10
2.9287080246
 20
-20.8837002437
 10
3.4947426158
 20
-20.0534168703
 10
3.9692628842
 20
-19.1154286899
 10
4.342155254
 20
-18.0897272919
 10
4.605472172
 20
-16.9981737209
 10
4.753601495
 20
-15.8640325462
 10
4.7833861038
 20
-14.7114760178
 10
4.6941911912
 20
-13.5650688773
 10
4.4879177918
 20
-12.4492448023
 10
4.168962265
 20
-11.3877856459
 10
3.7441225941
 20
-10.4033145671
 10
3.2224534992
 20
-9.5168138578
 10
2.6150734513
 20
-8.7471777414
 10
1.9349277015
 20
-8.1108096757
 10
1.1965123758
 20
-7.621272741
 10
0.4155655148
 20
-7.2890005673
 10
-0.391268355
 20
-7.1210749591
 10
-1.2067929705
 20
-7.1210749591
 10
-2.0136268403
 20
-7.2890005673
 10
-2.7945737013
 20
-7.621272741
 10
-3.532989027
 20
-8.1108096757
 10
-4.2131347767
 20
-8.7471777414
 10
-4.8205148247
 20
-9.5168138578
 10
-5.3421839196
 20
-10.4033145671
 10
-5.7670235905
 20
-11.3877856459
 10
-6.0859791173
 20
-12.4492448023
 10
-6.2922525167
 20
-13.5650688773
 10
-6.3814474293
 20
-14.7114760178
 10
-6.3516628205
 20
-15.8640325462
 10
-6.2035334975
 20
-16.9981737209
 10
-5.9402165795
 20
-18.0897272919
 10
-5.5673242096
 20
-19.1154286899
 10
-5.0928039413
 20
-20.0534168703
 10
-4.5267693501
 20
-20.8837002437
 10
-3.8812844807
 20
-21.5885827613
 10
-3.1701067225
 20
-22.1530410762
 10
-2.4083935946
 20
-22.5650447393
 10
-1.6123796899
 20
-22.8158126078
 10
-0.7990306627
 20
-22.9
  0
LWPOLYLINE
  5
126
330
1F
100
AcDbEntity
  8
0
  6
Continuous
 62
     7
370
    25
100
AcDbPolyline
 90
       44
 70
   128
 43
0.0
 10
-0.7990306627
 20
7.1
 10
0.0143183644
 20
7.1841873922
 10
0.8103322691
 20
7.4349552607
 10
1.572045397
 20
7.8469589238
 10
2.2832231553
 20
8.4114172387
 10
2.9287080246
 20
9.1162997563
 10
3.4947426158
 20
9.9465831297
 10
3.9692628842
 20
10.8845713101
 10
4.342155254
 20
11.9102727081
 10
4.605472172
 20
13.0018262791
 10
4.753601495
 20
14.1359674538
 10
4.7833861038
 20
15.2885239822
 10
4.6941911912
 20
16.4349311227
 10
4.4879177918
 20
17.5507551977
 10
4.168962265
 20
18.6122143541
 10
3.7441225941
 20
19.5966854329
 10
3.2224534992
 20
20.4831861422
 10
2.6150734513
 20
21.2528222586
 10
1.9349277015
 20
21.8891903243
 10
1.1965123758
 20
22.378727259
 10
0.4155655148
 20
22.7109994327
 10
-0.391268355
 20
22.8789250409
 10
-1.2067929705
 20
22.8789250409
 10
-2.0136268403
 20
22.7109994327
 10
-2.7945737013
 20
22.378727259
 10
-3.532989027
 20
21.8891903243
 10
-4.2131347767
 20
21.2528222586
 10
-4.8205148247
 20
20.4831861422
 10
-5.3421839196
 20
19.5966854329
 10
-5.7670235905
 20
18.6122143541
 10
-6.0859791173
 20
17.5507551977
 10
-6.2922525167
 20
16.4349311227
 10
-6.3814474293
 20
15.2885239822
 10
-6.3516628205
 20
14.1359674538
 10
-6.2035334975
 20
13.0018262791
 10
-5.9402165795
 20
11.9102727081
 10
-5.5673242096
 20
10.8845713101
 10
-5.0928039413
 20
9.9465831297
 10
-4.5267693501
 20
9.1162997563
 10
-3.8812844807
 20
8.4114172387
 10
-3.1701067225
 20
7.8469589238
 10
-2.4083935946
 20
7.4349552607
 10
-1.6123796899
 20
7.1841873922
 10
-0.7990306627
 20
7.1
  0
LWPOLYLINE
  5
12A
330
1F
100
AcDbEntity
  8
0
  6
Continuous
 62
     7
370
    25
100
AcDbPolyline
 90
       44
 70
   128
 43
0.0
 10
-0.7990306627
 20
37.1
 10
0.0143183644
 20
37.1841873922
 10
0.8103322691
 20
37.4349552607
 10
1.572045397
 20
37.8469589238
 10
2.2832231553
 20
38.4114172387
 10
2.9287080246
 20
39.1162997563
 10
3.4947426158
 20
39.9465831297
 10
3.9692628842
 20
40.8845713101
 10
4.342155254
 20
41.9102727081
 10
4.605472172
 20
43.0018262791
 10
4.753601495
 20
44.1359674538
 10
4.7833861038
 20
45.2885239822
 10
4.6941911912
 20
46.4349311227
 10
4.4879177918
 20
47.5507551977
 10
4.168962265
 20
48.6122143541
 10
3.7441225941
 20
49.5966854329
 10
3.2224534992
 20
50.4831861422
 10
2.6150734513
 20
51.2528222586
 10
1.9349277015
 20
51.8891903243
 10
1.1965123758
 20
52.378727259
 10
0.4155655148
 20
52.7109994327
 10
-0.391268355
 20
52.8789250409
 10
-1.2067929705
 20
52.8789250409
 10
-2.0136268403
 20
52.7109994327
 10
-2.7945737013
 20
52.378727259
 10
-3.532989027
 20
51.8891903243
 10
-4.2131347767
 20
51.2528222586
 10
-4.8205148247
 20
50.4831861422
 10
-5.3421839196
 20
49.5966854329
 10
-5.7670235905
 20
48.6122143541
 10
-6.0859791173
 20
47.5507551977
 10
-6.2922525167
 20
46.4349311227
 10
-6.3814474293
 20
45.2885239822
 10
-6.3516628205
 20
44.1359674538
 10
-6.2035334975
 20
43.0018262791
 10
-5.9402165795
 20
41.9102727081
 10
-5.5673242096
 20
40.8845713101
 10
-5.0928039413
 20
39.9465831297
 10
-4.5267693501
 20
39.1162997563
 10
-3.8812844807
 20
38.4114172387
 10
-3.1701067225
 20
37.8469589238
 10
-2.4083935946
 20
37.4349552607
 10
-1.6123796899
 20
37.1841873922
 10
-0.7990306627
 20
37.1
  0
LWPOLYLINE
  5
12B
330
1F
100
AcDbEntity
  8
0
  6
Continuous
 62
     7
370
    25
100
AcDbPolyline
 90
       23
 70
   128
 43
0.0
 10
-0.3995153314
 20
-37.1202300161
 10
-0.4077623077
 20
-37.1210749591
 10
-1.2145961775
 20
-37.2890005673
 10
-1.9955430386
 20
-37.621272741
 10
-2.7339583643
 20
-38.1108096757
 10
-3.414104114
 20
-38.7471777414
 10
-4.0214841619
 20
-39.5168138578
 10
-4.5431532569
 20
-40.4033145671
 10
-4.9679929277
 20
-41.3877856459
 10
-5.2869484545
 20
-42.4492448023
 10
-5.4932218539
 20
-43.5650688773
 10
-5.5824167666
 20
-44.7114760178
 10
-5.5526321578
 20
-45.8640325462
 10
-5.4045028347
 20
-46.9981737209
 10
-5.1411859168
 20
-48.0897272919
 10
-4.7682935469
 20
-49.1154286899
 10
-4.2937732785
 20
-50.0534168703
 10
-3.7277386874
 20
-50.8837002437
 10
-3.082253818
 20
-51.5885827613
 10
-2.3710760597
 20
-52.1530410762
 10
-1.6093629318
 20
-52.5650447393
 10
-0.8133490271
 20
-52.8158126078
 10
-0.3995153314
 20
-52.879769984
  0
LWPOLYLINE
  5
12C
330
1F
100
AcDbEntity
  8
0
  6
Continuous
 62
     7
370
    25
100
AcDbPolyline
 90
       23
 70
   128
 43
0.0
 10
-0.3995153314
 20
-7.1202300161
 10
-0.4077623077
 20
-7.1210749591
 10
-1.2145961775
 20
-7.2890005673
 10
-1.9955430386
 20
-7.621272741
 10
-2.7339583643
 20
-8.1108096757
 10
-3.414104114
 20
-8.7471777414
 10
-4.0214841619
 20
-9.5168138578
 10
-4.5431532569
 20
-10.4033145671
 10
-4.9679929277
 20
-11.3877856459
 10
-5.2869484545
 20
-12.4492448023
 10
-5.4932218539
 20
-13.5650688773
 10
-5.5824167666
 20
-14.7114760178
 10
-5.5526321578
 20
-15.8640325462
 10
-5.4045028347
 20
-16.9981737209
 10
-5.1411859168
 20
-18.0897272919
 10
-4.7682935469
 20
-19.1154286899
 10
-4.2937732785
 20
-20.0534168703
 10
-3.7277386874
 20
-20.8837002437
 10
-3.082253818
 20
-21.5885827613
 10
-2.3710760597
 20
-22.1530410762
 10
-1.6093629318
 20
-22.5650447393
 10
-0.8133490271
 20
-22.8158126078
 10
-0.3995153314
 20
-22.879769984
  0
LWPOLYLINE
  5
12D
330
1F
100
AcDbEntity
  8
0
  6
Continuous
 62
     7
370
    25
100
AcDbPolyline
 90
       23
 70
   128
 43
0.0
 10
-0.3995153314
 20
52.879769984
 10
-0.4077623077
 20
52.8789250409
 10
-1.2145961775
 20
52.7109994327
 10
-1.9955430386
 20
52.378727259
 10
-2.7339583643
 20
51.8891903243
 10
-3.414104114
 20
51.2528222586
 10
-4.0214841619
 20
50.4831861422
 10
-4.5431532569
 20
49.5966854329
 10
-4.9679929277
 20
48.6122143541
 10
-5.2869484545
 20
47.5507551977
 10
-5.4932218539
 20
46.4349311227
 10
-5.5824167666
 20
45.2885239822
 10
-5.5526321578
 20
44.1359674538
 10
-5.4045028347
 20
43.0018262791
 10
-5.1411859168
 20
41.9102727081
 10
-4.7682935469
 20
40.8845713101
 10
-4.2937732785
 20
39.9465831297
 10
-3.7277386874
 20
39.1162997563
 10
-3.082253818
 20
38.4114172387
 10
-2.3710760598
 20
37.8469589238
 10
-1.6093629318
 20
37.4349552607
 10
-0.8133490271
 20
37.1841873922
 10
-0.3995153314
 20
37.120230016
  0
LWPOLYLINE
  5
12E
330
1F
100
AcDbEntity
  8
0
  6
Continuous
 62
     7
370
    25
100
AcDbPolyline
 90
       23
 70
   128
 43
0.0
 10
-0.3995153314
 20
22.879769984
 10
-0.4077623077
 20
22.8789250409
 10
-1.2145961775
 20
22.7109994327
 10
-1.9955430386
 20
22.378727259
 10
-2.7339583643
 20
21.8891903243
 10
-3.414104114
 20
21.2528222586
 10
-4.0214841619
 20
20.4831861422
 10
-4.5431532569
 20
19.5966854329
 10
-4.9679929277
 20
18.6122143541
 10
-5.2869484545
 20
17.5507551977
 10
-5.4932218539
 20
16.4349311227
 10
-5.5824167666
 20
15.2885239822
 10
-5.5526321578
 20
14.1359674538
 10
-5.4045028347
 20
13.0018262791
 10
-5.1411859168
 20
11.9102727081
 10
-4.7682935469
 20
10.8845713101
 10
-4.2937732785
 20
9.9465831297
 10
-3.7277386874
 20
9.1162997563
 10
-3.082253818
 20
8.4114172387
 10
-2.3710760598
 20
7.8469589238
 10
-1.6093629318
 20
7.4349552607
 10
-0.8133490271
 20
7.1841873922
 10
-0.3995153314
 20
7.120230016
  0
LWPOLYLINE
  5
13A
330
1F
100
AcDbEntity
  8
0
  6
Continuous
 62
     7
370
    25
100
AcDbPolyline
 90
       44
 70
   128
 43
0.0
 10
-25.5477680043
 20
-52.9
 10
-24.7344189771
 20
-52.8158126078
 10
-23.9384050724
 20
-52.5650447393
 10
-23.1766919445
 20
-52.1530410762
 10
-22.4655141863
 20
-51.5885827613
 10
-21.8200293169
 20
-50.8837002437
 10
-21.2539947257
 20
-50.0534168703
 10
-20.7794744574
 20
-49.1154286899
 10
-20.4065820875
 20
-48.0897272919
 10
-20.1432651695
 20
-46.9981737209
 10
-19.9951358465
 20
-45.8640325462
 10
-19.9653512377
 20
-44.7114760178
 10
-20.0545461503
 20
-43.5650688773
 10
-20.2608195498
 20
-42.4492448023
 10
-20.5797750765
 20
-41.3877856459
 10
-21.0046147474
 20
-40.4033145671
 10
-21.5262838423
 20
-39.5168138578
 10
-22.1336638903
 20
-38.7471777414
 10
-22.81380964
 20
-38.1108096757
 10
-23.5522249657
 20
-37.621272741
 10
-24.3331718267
 20
-37.2890005673
 10
-25.1400056965
 20
-37.1210749591
 10
-25.955530312
 20
-37.1210749591
 10
-26.7623641818
 20
-37.2890005673
 10
-27.5433110428
 20
-37.621272741
 10
-28.2817263685
 20
-38.1108096757
 10
-28.9618721183
 20
-38.7471777414
 10
-29.5692521662
 20
-39.5168138578
 10
-30.0909212611
 20
-40.4033145671
 10
-30.515760932
 20
-41.3877856459
 10
-30.8347164588
 20
-42.4492448023
 10
-31.0409898582
 20
-43.5650688773
 10
-31.1301847709
 20
-44.7114760178
 10
-31.100400162
 20
-45.8640325462
 10
-30.952270839
 20
-46.9981737209
 10
-30.688953921
 20
-48.0897272919
 10
-30.3160615512
 20
-49.1154286899
 10
-29.8415412828
 20
-50.0534168703
 10
-29.2755066916
 20
-50.8837002437
 10
-28.6300218223
 20
-51.5885827613
 10
-27.918844064
 20
-52.1530410762
 10
-27.1571309361
 20
-52.5650447393
 10
-26.3611170314
 20
-52.8158126078
 10
-25.5477680043
 20
-52.9
  0
LWPOLYLINE
  5
13E
330
1F
100
AcDbEntity
  8
0
  6
Continuous
 62
     7
370
    25
100
AcDbPolyline
 90
       44
 70
   128
 43
0.0
 10
-25.5477680043
 20
-22.9
 10
-24.7344189771
 20
-22.8158126078
 10
-23.9384050724
 20
-22.5650447393
 10
-23.1766919445
 20
-22.1530410762
 10
-22.4655141863
 20
-21.5885827613
 10
-21.8200293169
 20
-20.8837002437
 10
-21.2539947257
 20
-20.0534168703
 10
-20.7794744574
 20
-19.1154286899
 10
-20.4065820875
 20
-18.0897272919
 10
-20.1432651695
 20
-16.9981737209
 10
-19.9951358465
 20
-15.8640325462
 10
-19.9653512377
 20
-14.7114760178
 10
-20.0545461503
 20
-13.5650688773
 10
-20.2608195498
 20
-12.4492448023
 10
-20.5797750765
 20
-11.3877856459
 10
-21.0046147474
 20
-10.4033145671
 10
-21.5262838423
 20
-9.5168138578
 10
-22.1336638903
 20
-8.7471777414
 10
-22.81380964
 20
-8.1108096757
 10
-23.5522249657
 20
-7.621272741
 10
-24.3331718267
 20
-7.2890005673
 10
-25.1400056965
 20
-7.1210749591
 10
-25.955530312
 20
-7.1210749591
 10
-26.7623641818
 20
-7.2890005673
 10
-27.5433110428
 20
-7.621272741
 10
-28.2817263685
 20
-8.1108096757
 10
-28.9618721183
 20
-8.7471777414
 10
-29.5692521662
 20
-9.5168138578
 10
-30.0909212611
 20
-10.4033145671
 10
-30.515760932
 20
-11.3877856459
 10
-30.8347164588
 20
-12.4492448023
 10
-31.0409898582
 20
-13.5650688773
 10
-31.1301847709
 20
-14.7114760178
 10
-31.100400162
 20
-15.8640325462
 10
-30.952270839
 20
-16.9981737209
 10
-30.6889539211
 20
-18.0897272919
 10
-30.3160615512
 20
-19.1154286899
 10
-29.8415412828
 20
-20.0534168703
 10
-29.2755066916
 20
-20.8837002437
 10
-28.6300218223
 20
-21.5885827613
 10
-27.918844064
 20
-22.1530410762
 10
-27.1571309361
 20
-22.5650447393
 10
-26.3611170314
 20
-22.8158126078
 10
-25.5477680043
 20
-22.9
  0
LWPOLYLINE
  5
142
330
1F
100
AcDbEntity
  8
0
  6
Continuous
 62
     7
370
    25
100
AcDbPolyline
 90
       44
 70
   128
 43
0.0
 10
-25.5477680043
 20
7.1
 10
-24.7344189771
 20
7.1841873922
 10
-23.9384050724
 20
7.4349552607
 10
-23.1766919445
 20
7.8469589238
 10
-22.4655141863
 20
8.4114172387
 10
-21.8200293169
 20
9.1162997563
 10
-21.2539947257
 20
9.9465831297
 10
-20.7794744574
 20
10.8845713101
 10
-20.4065820875
 20
11.9102727081
 10
-20.1432651695
 20
13.0018262791
 10
-19.9951358465
 20
14.1359674538
 10
-19.9653512377
 20
15.2885239822
 10
-20.0545461503
 20
16.4349311227
 10
-20.2608195498
 20
17.5507551977
 10
-20.5797750765
 20
18.6122143541
 10
-21.0046147474
 20
19.5966854329
 10
-21.5262838423
 20
20.4831861422
 10
-22.1336638903
 20
21.2528222586
 10
-22.81380964
 20
21.8891903243
 10
-23.5522249657
 20
22.378727259
 10
-24.3331718267
 20
22.7109994327
 10
-25.1400056965
 20
22.8789250409
 10
-25.955530312
 20
22.8789250409
 10
-26.7623641818
 20
22.7109994327
 10
-27.5433110428
 20
22.378727259
 10
-28.2817263685
 20
21.8891903243
 10
-28.9618721183
 20
21.2528222586
 10
-29.5692521662
 20
20.4831861422
 10
-30.0909212611
 20
19.5966854329
 10
-30.515760932
 20
18.6122143541
 10
-30.8347164588
 20
17.5507551977
 10
-31.0409898582
 20
16.4349311227
 10
-31.1301847709
 20
15.2885239822
 10
-31.100400162
 20
14.1359674538
 10
-30.952270839
 20
13.0018262791
 10
-30.6889539211
 20
11.9102727081
 10
-30.3160615512
 20
10.8845713101
 10
-29.8415412828
 20
9.9465831297
 10
-29.2755066916
 20
9.1162997563
 10
-28.6300218223
 20
8.4114172387
 10
-27.918844064
 20
7.8469589238
 10
-27.1571309361
 20
7.4349552607
 10
-26.3611170314
 20
7.1841873922
 10
-25.5477680043
 20
7.1
  0
LWPOLYLINE
  5
146
330
1F
100
AcDbEntity
  8
0
  6
Continuous
 62
     7
370
    25
100
AcDbPolyline
 90
       44
 70
   128
 43
0.0
 10
-25.5477680043
 20
37.1
 10
-24.7344189771
 20
37.1841873922
 10
-23.9384050724
 20
37.4349552607
 10
-23.1766919445
 20
37.8469589238
 10
-22.4655141863
 20
38.4114172387
 10
-21.8200293169
 20
39.1162997563
 10
-21.2539947257
 20
39.9465831297
 10
-20.7794744574
 20
40.8845713101
 10
-20.4065820875
 20
41.9102727081
 10
-20.1432651695
 20
43.0018262791
 10
-19.9951358465
 20
44.1359674538
 10
-19.9653512377
 20
45.2885239822
 10
-20.0545461503
 20
46.4349311227
 10
-20.2608195498
 20
47.5507551977
 10
-20.5797750765
 20
48.6122143541
 10
-21.0046147474
 20
49.5966854329
 10
-21.5262838423
 20
50.4831861422
 10
-22.1336638903
 20
51.2528222586
 10
-22.81380964
 20
51.8891903243
 10
-23.5522249657
 20
52.378727259
 10
-24.3331718267
 20
52.7109994327
 10
-25.1400056965
 20
52.8789250409
 10
-25.955530312
 20
52.8789250409
 10
-26.7623641818
 20
52.7109994327
 10
-27.5433110428
 20
52.378727259
 10
-28.2817263685
 20
51.8891903243
 10
-28.9618721183
 20
51.2528222586
 10
-29.5692521662
 20
50.4831861422
 10
-30.0909212611
 20
49.5966854329
 10
-30.515760932
 20
48.6122143541
 10
-30.8347164588
 20
47.5507551977
 10
-31.0409898582
 20
46.4349311227
 10
-31.1301847709
 20
45.2885239822
 10
-31.100400162
 20
44.1359674538
 10
-30.952270839
 20
43.0018262791
 10
-30.6889539211
 20
41.9102727081
 10
-30.3160615512
 20
40.8845713101
 10
-29.8415412828
 20
39.9465831297
 10
-29.2755066916
 20
39.1162997563
 10
-28.6300218223
 20
38.4114172387
 10
-27.918844064
 20
37.8469589238
 10
-27.1571309361
 20
37.4349552607
 10
-26.3611170314
 20
37.1841873922
 10
-25.5477680043
 20
37.1
  0
LWPOLYLINE
  5
147
330
1F
100
AcDbEntity
  8
0
  6
Continuous
 62
     7
370
    25
100
AcDbPolyline
 90
       23
 70
   128
 43
0.0
 10
-25.1482526729
 20
-37.1202300161
 10
-25.1564996493
 20
-37.1210749591
 10
-25.9633335191
 20
-37.2890005673
 10
-26.7442803801
 20
-37.621272741
 10
-27.4826957058
 20
-38.1108096757
 10
-28.1628414555
 20
-38.7471777414
 10
-28.7702215035
 20
-39.5168138578
 10
-29.2918905984
 20
-40.4033145671
 10
-29.7167302693
 20
-41.3877856459
 10
-30.035685796
 20
-42.4492448023
 10
-30.2419591955
 20
-43.5650688773
 10
-30.3311541081
 20
-44.7114760178
 10
-30.3013694993
 20
-45.8640325462
 10
-30.1532401763
 20
-46.9981737209
 10
-29.8899232583
 20
-48.0897272919
 10
-29.5170308884
 20
-49.1154286899
 10
-29.0425106201
 20
-50.0534168703
 10
-28.4764760289
 20
-50.8837002437
 10
-27.8309911595
 20
-51.5885827613
 10
-27.1198134013
 20
-52.1530410762
 10
-26.3581002734
 20
-52.5650447393
 10
-25.5620863687
 20
-52.8158126078
 10
-25.1482526729
 20
-52.879769984
  0
LWPOLYLINE
  5
148
330
1F
100
AcDbEntity
  8
0
  6
Continuous
 62
     7
370
    25
100
AcDbPolyline
 90
       23
 70
   128
 43
0.0
 10
-25.1482526729
 20
-7.1202300161
 10
-25.1564996493
 20
-7.1210749591
 10
-25.9633335191
 20
-7.2890005673
 10
-26.7442803801
 20
-7.621272741
 10
-27.4826957058
 20
-8.1108096757
 10
-28.1628414555
 20
-8.7471777414
 10
-28.7702215035
 20
-9.5168138578
 10
-29.2918905984
 20
-10.4033145671
 10
-29.7167302693
 20
-11.3877856459
 10
-30.035685796
 20
-12.4492448023
 10
-30.2419591955
 20
-13.5650688773
 10
-30.3311541081
 20
-14.7114760178
 10
-30.3013694993
 20
-15.8640325462
 10
-30.1532401763
 20
-16.9981737209
 10
-29.8899232583
 20
-18.0897272919
 10
-29.5170308884
 20
-19.1154286899
 10
-29.0425106201
 20
-20.0534168703
 10
-28.4764760289
 20
-20.8837002437
 10
-27.8309911595
 20
-21.5885827613
 10
-27.1198134013
 20
-22.1530410762
 10
-26.3581002734
 20
-22.5650447393
 10
-25.5620863687
 20
-22.8158126078
 10
-25.1482526729
 20
-22.879769984
  0
LWPOLYLINE
  5
149
330
1F
100
AcDbEntity
  8
0
  6
Continuous
 62
     7
370
    25
100
AcDbPolyline
 90
       23
 70
   128
 43
0.0
 10
-25.1482526729
 20
52.879769984
 10
-25.1564996493
 20
52.8789250409
 10
-25.9633335191
 20
52.7109994327
 10
-26.7442803801
 20
52.378727259
 10
-27.4826957058
 20
51.8891903243
 10
-28.1628414555
 20
51.2528222586
 10
-28.7702215035
 20
50.4831861422
 10
-29.2918905984
 20
49.5966854329
 10
-29.7167302693
 20
48.6122143541
 10
-30.035685796
 20
47.5507551977
 10
-30.2419591955
 20
46.4349311227
 10
-30.3311541081
 20
45.2885239822
 10
-30.3013694993
 20
44.1359674538
 10
-30.1532401763
 20
43.0018262791
 10
-29.8899232583
 20
41.9102727081
 10
-29.5170308884
 20
40.8845713101
 10
-29.0425106201
 20
39.9465831297
 10
-28.4764760289
 20
39.1162997563
 10
-27.8309911595
 20
38.4114172387
 10
-27.1198134013
 20
37.8469589238
 10
-26.3581002734
 20
37.4349552607
 10
-25.5620863687
 20
37.1841873922
 10
-25.1482526729
 20
37.120230016
  0
LWPOLYLINE
  5
14A
330
1F
100
AcDbEntity
  8
0
  6
Continuous
 62
     7
370
    25
100
AcDbPolyline
 90
       23
 70
   128
 43
0.0
 10
-25.1482526729
 20
22.879769984
 10
-25.1564996493
 20
22.8789250409
 10
-25.9633335191
 20
22.7109994327
 10
-26.7442803801
 20
22.378727259
 10
-27.4826957058
 20
21.8891903243
 10
-28.1628414555
 20
21.2528222586
 10
-28.7702215035
 20
20.4831861422
 10
-29.2918905984
 20
19.5966854329
 10
-29.7167302693
 20
18.6122143541
 10
-30.035685796
 20
17.5507551977
 10
-30.2419591955
 20
16.4349311227
 10
-30.3311541081
 20
15.2885239822
 10
-30.3013694993
 20
14.1359674538
 10
-30.1532401763
 20
13.0018262791
 10
-29.8899232583
 20
11.9102727081
 10
-29.5170308884
 20
10.8845713101
 10
-29.0425106201
 20
9.9465831297
 10
-28.4764760289
 20
9.1162997563
 10
-27.8309911595
 20
8.4114172387
 10
-27.1198134013
 20
7.8469589238
 10
-26.3581002734
 20
7.4349552607
 10
-25.5620863687
 20
7.1841873922
 10
-25.1482526729
 20
7.120230016
  0
LWPOLYLINE
  5
156
330
1F
100
AcDbEntity
  8
0
  6
Continuous
 62
     7
370
    25
100
AcDbPolyline
 90
       44
 70
   128
 43
0.0
 10
-50.2965053458
 20
-52.9
 10
-49.4831563187
 20
-52.8158126078
 10
-48.687142414
 20
-52.5650447393
 10
-47.925429286
 20
-52.1530410762
 10
-47.2142515278
 20
-51.5885827613
 10
-46.5687666584
 20
-50.8837002437
 10
-46.0027320673
 20
-50.0534168703
 10
-45.5282117989
 20
-49.1154286899
 10
-45.155319429
 20
-48.0897272919
 10
-44.8920025111
 20
-46.9981737209
 10
-44.743873188
 20
-45.8640325462
 10
-44.7140885792
 20
-44.7114760178
 10
-44.8032834919
 20
-43.5650688773
 10
-45.0095568913
 20
-42.4492448023
 10
-45.3285124181
 20
-41.3877856459
 10
-45.7533520889
 20
-40.4033145671
 10
-46.2750211839
 20
-39.5168138578
 10
-46.8824012318
 20
-38.7471777414
 10
-47.5625469815
 20
-38.1108096757
 10
-48.3009623072
 20
-37.621272741
 10
-49.0819091682
 20
-37.2890005673
 10
-49.8887430381
 20
-37.1210749591
 10
-50.7042676535
 20
-37.1210749591
 10
-51.5111015233
 20
-37.2890005673
 10
-52.2920483844
 20
-37.621272741
 10
-53.0304637101
 20
-38.1108096757
 10
-53.7106094598
 20
-38.7471777414
 10
-54.3179895077
 20
-39.5168138578
 10
-54.8396586027
 20
-40.4033145671
 10
-55.2644982735
 20
-41.3877856459
 10
-55.5834538003
 20
-42.4492448023
 10
-55.7897271997
 20
-43.5650688773
 10
-55.8789221124
 20
-44.7114760178
 10
-55.8491375036
 20
-45.8640325462
 10
-55.7010081805
 20
-46.9981737209
 10
-55.4376912626
 20
-48.0897272919
 10
-55.0647988927
 20
-49.1154286899
 10
-54.5902786243
 20
-50.0534168703
 10
-54.0242440332
 20
-50.8837002437
 10
-53.3787591638
 20
-51.5885827613
 10
-52.6675814055
 20
-52.1530410762
 10
-51.9058682776
 20
-52.5650447393
 10
-51.1098543729
 20
-52.8158126078
 10
-50.2965053458
 20
-52.9
  0
LWPOLYLINE
  5
15A
330
1F
100
AcDbEntity
  8
0
  6
Continuous
 62
     7
370
    25
100
AcDbPolyline
 90
       44
 70
   128
 43
0.0
 10
-50.2965053458
 20
-22.9
 10
-49.4831563187
 20
-22.8158126078
 10
-48.687142414
 20
-22.5650447393
 10
-47.925429286
 20
-22.1530410762
 10
-47.2142515278
 20
-21.5885827613
 10
-46.5687666584
 20
-20.8837002437
 10
-46.0027320673
 20
-20.0534168703
 10
-45.5282117989
 20
-19.1154286899
 10
-45.155319429
 20
-18.0897272919
 10
-44.8920025111
 20
-16.9981737209
 10
-44.743873188
 20
-15.8640325462
 10
-44.7140885792
 20
-14.7114760178
 10
-44.8032834919
 20
-13.5650688773
 10
-45.0095568913
 20
-12.4492448023
 10
-45.3285124181
 20
-11.3877856459
 10
-45.7533520889
 20
-10.4033145671
 10
-46.2750211839
 20
-9.5168138578
 10
-46.8824012318
 20
-8.7471777414
 10
-47.5625469815
 20
-8.1108096757
 10
-48.3009623072
 20
-7.621272741
 10
-49.0819091683
 20
-7.2890005673
 10
-49.8887430381
 20
-7.1210749591
 10
-50.7042676535
 20
-7.1210749591
 10
-51.5111015233
 20
-7.2890005673
 10
-52.2920483844
 20
-7.621272741
 10
-53.0304637101
 20
-8.1108096757
 10
-53.7106094598
 20
-8.7471777414
 10
-54.3179895077
 20
-9.5168138578
 10
-54.8396586027
 20
-10.4033145671
 10
-55.2644982735
 20
-11.3877856459
 10
-55.5834538003
 20
-12.4492448023
 10
-55.7897271997
 20
-13.5650688773
 10
-55.8789221124
 20
-14.7114760178
 10
-55.8491375036
 20
-15.8640325462
 10
-55.7010081805
 20
-16.9981737209
 10
-55.4376912626
 20
-18.0897272919
 10
-55.0647988927
 20
-19.1154286899
 10
-54.5902786243
 20
-20.0534168703
 10
-54.0242440332
 20
-20.8837002437
 10
-53.3787591638
 20
-21.5885827613
 10
-52.6675814055
 20
-22.1530410762
 10
-51.9058682776
 20
-22.5650447393
 10
-51.1098543729
 20
-22.8158126078
 10
-50.2965053458
 20
-22.9
  0
LWPOLYLINE
  5
15E
330
1F
100
AcDbEntity
  8
0
  6
Continuous
 62
     7
370
    25
100
AcDbPolyline
 90
       44
 70
   128
 43
0.0
 10
-50.2965053458
 20
7.1
 10
-49.4831563187
 20
7.1841873922
 10
-48.687142414
 20
7.4349552607
 10
-47.925429286
 20
7.8469589238
 10
-47.2142515278
 20
8.4114172387
 10
-46.5687666584
 20
9.1162997563
 10
-46.0027320673
 20
9.9465831297
 10
-45.5282117989
 20
10.8845713101
 10
-45.155319429
 20
11.9102727081
 10
-44.8920025111
 20
13.0018262791
 10
-44.743873188
 20
14.1359674538
 10
-44.7140885792
 20
15.2885239822
 10
-44.8032834919
 20
16.4349311227
 10
-45.0095568913
 20
17.5507551977
 10
-45.3285124181
 20
18.6122143541
 10
-45.7533520889
 20
19.5966854329
 10
-46.2750211839
 20
20.4831861422
 10
-46.8824012318
 20
21.2528222586
 10
-47.5625469815
 20
21.8891903243
 10
-48.3009623072
 20
22.378727259
 10
-49.0819091683
 20
22.7109994327
 10
-49.8887430381
 20
22.8789250409
 10
-50.7042676535
 20
22.8789250409
 10
-51.5111015233
 20
22.7109994327
 10
-52.2920483844
 20
22.378727259
 10
-53.0304637101
 20
21.8891903243
 10
-53.7106094598
 20
21.2528222586
 10
-54.3179895077
 20
20.4831861422
 10
-54.8396586027
 20
19.5966854329
 10
-55.2644982735
 20
18.6122143541
 10
-55.5834538003
 20
17.5507551977
 10
-55.7897271997
 20
16.4349311227
 10
-55.8789221124
 20
15.2885239822
 10
-55.8491375036
 20
14.1359674538
 10
-55.7010081805
 20
13.0018262791
 10
-55.4376912626
 20
11.9102727081
 10
-55.0647988927
 20
10.8845713101
 10
-54.5902786243
 20
9.9465831297
 10
-54.0242440332
 20
9.1162997563
 10
-53.3787591638
 20
8.4114172387
 10
-52.6675814056
 20
7.8469589238
 10
-51.9058682776
 20
7.4349552607
 10
-51.1098543729
 20
7.1841873922
 10
-50.2965053458
 20
7.1
  0
LWPOLYLINE
  5
162
330
1F
100
AcDbEntity
  8
0
  6
Continuous
 62
     7
370
    25
100
AcDbPolyline
 90
       44
 70
   128
 43
0.0
 10
-50.2965053458
 20
37.1
 10
-49.4831563187
 20
37.1841873922
 10
-48.687142414
 20
37.4349552607
 10
-47.925429286
 20
37.8469589238
 10
-47.2142515278
 20
38.4114172387
 10
-46.5687666584
 20
39.1162997563
 10
-46.0027320673
 20
39.9465831297
 10
-45.5282117989
 20
40.8845713101
 10
-45.155319429
 20
41.9102727081
 10
-44.8920025111
 20
43.0018262791
 10
-44.743873188
 20
44.1359674538
 10
-44.7140885792
 20
45.2885239822
 10
-44.8032834919
 20
46.4349311227
 10
-45.0095568913
 20
47.5507551977
 10
-45.3285124181
 20
48.6122143541
 10
-45.7533520889
 20
49.5966854329
 10
-46.2750211839
 20
50.4831861422
 10
-46.8824012318
 20
51.2528222586
 10
-47.5625469815
 20
51.8891903243
 10
-48.3009623072
 20
52.378727259
 10
-49.0819091683
 20
52.7109994327
 10
-49.8887430381
 20
52.8789250409
 10
-50.7042676535
 20
52.8789250409
 10
-51.5111015233
 20
52.7109994327
 10
-52.2920483844
 20
52.378727259
 10
-53.0304637101
 20
51.8891903243
 10
-53.7106094598
 20
51.2528222586
 10
-54.3179895077
 20
50.4831861422
 10
-54.8396586027
 20
49.5966854329
 10
-55.2644982735
 20
48.6122143541
 10
-55.5834538003
 20
47.5507551977
 10
-55.7897271997
 20
46.4349311227
 10
-55.8789221124
 20
45.2885239822
 10
-55.8491375036
 20
44.1359674538
 10
-55.7010081805
 20
43.0018262791
 10
-55.4376912626
 20
41.9102727081
 10
-55.0647988927
 20
40.8845713101
 10
-54.5902786243
 20
39.9465831297
 10
-54.0242440332
 20
39.1162997563
 10
-53.3787591638
 20
38.4114172387
 10
-52.6675814056
 20
37.8469589238
 10
-51.9058682776
 20
37.4349552607
 10
-51.1098543729
 20
37.1841873922
 10
-50.2965053458
 20
37.1
  0
LWPOLYLINE
  5
163
330
1F
100
AcDbEntity
  8
0
  6
Continuous
 62
     7
370
    25
100
AcDbPolyline
 90
       23
 70
   128
 43
0.0
 10
-49.8969900144
 20
-37.1202300161
 10
-49.9052369908
 20
-37.1210749591
 10
-50.7120708606
 20
-37.2890005673
 10
-51.4930177216
 20
-37.621272741
 10
-52.2314330473
 20
-38.1108096757
 10
-52.9115787971
 20
-38.7471777414
 10
-53.518958845
 20
-39.5168138578
 10
-54.0406279399
 20
-40.4033145671
 10
-54.4654676108
 20
-41.3877856459
 10
-54.7844231376
 20
-42.4492448023
 10
-54.990696537
 20
-43.5650688773
 10
-55.0798914496
 20
-44.7114760178
 10
-55.0501068408
 20
-45.8640325462
 10
-54.9019775178
 20
-46.9981737209
 10
-54.6386605998
 20
-48.0897272919
 10
-54.2657682299
 20
-49.1154286899
 10
-53.7912479616
 20
-50.0534168703
 10
-53.2252133704
 20
-50.8837002437
 10
-52.5797285011
 20
-51.5885827613
 10
-51.8685507428
 20
-52.1530410762
 10
-51.1068376149
 20
-52.5650447393
 10
-50.3108237102
 20
-52.8158126078
 10
-49.8969900144
 20
-52.879769984
  0
LWPOLYLINE
  5
164
330
1F
100
AcDbEntity
  8
0
  6
Continuous
 62
     7
370
    25
100
AcDbPolyline
 90
       23
 70
   128
 43
0.0
 10
-49.8969900144
 20
-7.1202300161
 10
-49.9052369908
 20
-7.1210749591
 10
-50.7120708606
 20
-7.2890005673
 10
-51.4930177216
 20
-7.621272741
 10
-52.2314330473
 20
-8.1108096757
 10
-52.9115787971
 20
-8.7471777414
 10
-53.518958845
 20
-9.5168138578
 10
-54.0406279399
 20
-10.4033145671
 10
-54.4654676108
 20
-11.3877856459
 10
-54.7844231376
 20
-12.4492448023
 10
-54.990696537
 20
-13.5650688773
 10
-55.0798914496
 20
-14.7114760178
 10
-55.0501068408
 20
-15.8640325462
 10
-54.9019775178
 20
-16.9981737209
 10
-54.6386605998
 20
-18.0897272919
 10
-54.26576823
 20
-19.1154286899
 10
-53.7912479616
 20
-20.0534168703
 10
-53.2252133704
 20
-20.8837002437
 10
-52.5797285011
 20
-21.5885827613
 10
-51.8685507428
 20
-22.1530410762
 10
-51.1068376149
 20
-22.5650447393
 10
-50.3108237102
 20
-22.8158126078
 10
-49.8969900144
 20
-22.879769984
  0
LWPOLYLINE
  5
165
330
1F
100
AcDbEntity
  8
0
  6
Continuous
 62
     7
370
    25
100
AcDbPolyline
 90
       23
 70
   128
 43
0.0
 10
-49.8969900144
 20
52.879769984
 10
-49.9052369908
 20
52.8789250409
 10
-50.7120708606
 20
52.7109994327
 10
-51.4930177216
 20
52.378727259
 10
-52.2314330473
 20
51.8891903243
 10
-52.9115787971
 20
51.2528222586
 10
-53.518958845
 20
50.4831861422
 10
-54.0406279399
 20
49.5966854329
 10
-54.4654676108
 20
48.6122143541
 10
-54.7844231376
 20
47.5507551977
 10
-54.990696537
 20
46.4349311227
 10
-55.0798914496
 20
45.2885239822
 10
-55.0501068408
 20
44.1359674538
 10
-54.9019775178
 20
43.0018262791
 10
-54.6386605998
 20
41.9102727081
 10
-54.26576823
 20
40.8845713101
 10
-53.7912479616
 20
39.9465831297
 10
-53.2252133704
 20
39.1162997563
 10
-52.5797285011
 20
38.4114172387
 10
-51.8685507428
 20
37.8469589238
 10
-51.1068376149
 20
37.4349552607
 10
-50.3108237102
 20
37.1841873922
 10
-49.8969900144
 20
37.120230016
  0
LWPOLYLINE
  5
166
330
1F
100
AcDbEntity
  8
0
  6
Continuous
 62
     7
370
    25
100
AcDbPolyline
 90
       23
 70
   128
 43
0.0
 10
-49.8969900144
 20
22.879769984
 10
-49.9052369908
 20
22.8789250409
 10
-50.7120708606
 20
22.7109994327
 10
-51.4930177216
 20
22.378727259
 10
-52.2314330473
 20
21.8891903243
 10
-52.9115787971
 20
21.2528222586
 10
-53.518958845
 20
20.4831861422
 10
-54.0406279399
 20
19.5966854329
 10
-54.4654676108
 20
18.6122143541
 10
-54.7844231376
 20
17.5507551977
 10
-54.990696537
 20
16.4349311227
 10
-55.0798914496
 20
15.2885239822
 10
-55.0501068408
 20
14.1359674538
 10
-54.9019775178
 20
13.0018262791
 10
-54.6386605998
 20
11.9102727081
 10
-54.26576823
 20
10.8845713101
 10
-53.7912479616
 20
9.9465831297
 10
-53.2252133704
 20
9.1162997563
 10
-52.5797285011
 20
8.4114172387
 10
-51.8685507428
 20
7.8469589238
 10
-51.1068376149
 20
7.4349552607
 10
-50.3108237102
 20
7.1841873922
 10
-49.8969900144
 20
7.120230016
  0
LINE
  5
16F
330
1F
100
AcDbEntity
  8
0
  6
Continuous
 62
     7
370
    25
100
AcDbLine
 10
48.9282537242
 20
-27.5
 30
0.0
 11
48.9282537242
 21
-26.4
 31
0.0
  0
LINE
  5
170
330
1F
100
AcDbEntity
  8
0
  6
Continuous
 62
     7
370
    25
100
AcDbLine
 10
48.9282537242
 20
-26.4
 30
0.0
 11
47.0544207541
 21
-26.4
 31
0.0
  0
LINE
  5
171
330
1F
100
AcDbEntity
  8
0
  6
Continuous
 62
     7
370
    25
100
AcDbLine
 10
47.0544207541
 20
-26.4
 30
0.0
 11
47.0544207541
 21
-27.5
 31
0.0
  0
LINE
  5
172
330
1F
100
AcDbEntity
  8
0
  6
Continuous
 62
     7
370
    25
100
AcDbLine
 10
47.0544207541
 20
-27.5
 30
0.0
 11
48.9282537242
 21
-27.5
 31
0.0
  0
LINE
  5
173
330
1F
100
AcDbEntity
  8
0
  6
Continuous
 62
     7
370
    25
100
AcDbLine
 10
48.9282537242
 20
43.6
 30
0.0
 11
47.0544207541
 21
43.6
 31
0.0
  0
LINE
  5
174
330
1F
100
AcDbEntity
  8
0
  6
Continuous
 62
     7
370
    25
100
AcDbLine
 10
47.0544207541
 20
43.6
 30
0.0
 11
47.0544207541
 21
42.5
 31
0.0
  0
LINE
  5
175
330
1F
100
AcDbEntity
  8
0
  6
Continuous
 62
     7
370
    25
100
AcDbLine
 10
47.0544207541
 20
42.5
 30
0.0
 11
48.9282537242
 21
42.5
 31
0.0
  0
LINE
  5
176
330
1F
100
AcDbEntity
  8
0
  6
Continuous
 62
     7
370
    25
100
AcDbLine
 10
48.9282537242
 20
42.5
 30
0.0
 11
48.9282537242
 21
43.6
 31
0.0
  0
LINE
  5
177
330
1F
100
AcDbEntity
  8
0
  6
Continuous
 62
     7
370
    25
100
AcDbLine
 10
70.3571247281
 20
64.65
 30
0.0
 11
-71.863262172
 21
64.65
 31
0.0
  0
LINE
  5
178
330
1F
100
AcDbEntity
  8
0
  6
Continuous
 62
     7
370
    25
100
AcDbLine
 10
68.8509872841
 20
-64.65
 30
0.0
 11
68.8509872841
 21
64.65
 31
0.0
  0
LINE
  5
179
330
1F
100
AcDbEntity
  8
0
  6
Continuous
 62
     7
370
    25
100
AcDbLine
 10
-71.863262172
 20
-64.65
 30
0.0
 11
70.3571247281
 21
-64.65
 31
0.0
  0
LINE
  5
17A
330
1F
100
AcDbEntity
  8
0
  6
Continuous
 62
     7
370
    25
100
AcDbLine
 10
-71.863262172
 20
64.65
 30
0.0
 11
-71.863262172
 21
-64.65
 31
0.0
  0
LINE
  5
17B
330
1F
100
AcDbEntity
  8
0
  6
Continuous
 62
     7
370
    25
100
AcDbLine
 10
48.9282537242
 20
7.5
 30
0.0
 11
48.9282537242
 21
8.6
 31
0.0
  0
LINE
  5
17C
330
1F
100
AcDbEntity
  8
0
  6
Continuous
 62
     7
370
    25
100
AcDbLine
 10
48.9282537242
 20
8.6
 30
0.0
 11
47.0544207541
 21
8.6
 31
0.0
  0
LINE
  5
17D
330
1F
100
AcDbEntity
  8
0
  6
Continuous
 62
     7
370
    25
100
AcDbLine
 10
47.0544207541
 20
8.6
 30
0.0
 11
47.0544207541
 21
7.5
 31
0.0
  0
LINE
  5
17E
330
1F
100
AcDbEntity
  8
0
  6
Continuous
 62
     7
370
    25
100
AcDbLine
 10
47.0544207541
 20
7.5
 30
0.0
 11
48.9282537242
 21
7.5
 31
0.0
  0
LINE
  5
17F
330
1F
100
AcDbEntity
  8
0
  6
Continuous
 62
     7
370
    25
100
AcDbLine
 10
-44.6750064354
 20
38.55
 30
0.0
 11
-44.6750064354
 21
51.45
 31
0.0
  0
LINE
  5
180
330
1F
100
AcDbEntity
  8
0
  6
Continuous
 62
     7
370
    25
100
AcDbLine
 10
-46.4427733883
 20
53.95
 30
0.0
 11
-55.5644508656
 21
53.95
 31
0.0
  0
LINE
  5
181
330
1F
100
AcDbEntity
  8
0
  6
Continuous
 62
     7
370
    25
100
AcDbLine
 10
-57.3322178186
 20
51.45
 30
0.0
 11
-57.3322178186
 21
38.55
 31
0.0
  0
LINE
  5
182
330
1F
100
AcDbEntity
  8
0
  6
Continuous
 62
     7
370
    25
100
AcDbLine
 10
-55.5644508656
 20
36.05
 30
0.0
 11
-46.4427733883
 21
36.05
 31
0.0
  0
LINE
  5
183
330
1F
100
AcDbEntity
  8
0
  6
Continuous
 62
     7
370
    25
100
AcDbLine
 10
-44.6750064354
 20
-51.45
 30
0.0
 11
-44.6750064354
 21
-38.55
 31
0.0
  0
LINE
  5
184
330
1F
100
AcDbEntity
  8
0
  6
Continuous
 62
     7
370
    25
100
AcDbLine
 10
-46.4427733883
 20
-36.05
 30
0.0
 11
-55.5644508656
 21
-36.05
 31
0.0
  0
LINE
  5
185
330
1F
100
AcDbEntity
  8
0
  6
Continuous
 62
     7
370
    25
100
AcDbLine
 10
-57.3322178186
 20
-38.55
 30
0.0
 11
-57.3322178186
 21
-51.45
 31
0.0
  0
LINE
  5
186
330
1F
100
AcDbEntity
  8
0
  6
Continuous
 62
     7
370
    25
100
AcDbLine
 10
-55.5644508656
 20
-53.95
 30
0.0
 11
-46.4427733883
 21
-53.95
 31
0.0
  0
LINE
  5
187
330
1F
100
AcDbEntity
  8
0
  6
Continuous
 62
     7
370
    25
100
AcDbLine
 10
-44.6750064354
 20
-21.45
 30
0.0
 11
-44.6750064354
 21
-8.55
 31
0.0
  0
LINE
  5
188
330
1F
100
AcDbEntity
  8
0
  6
Continuous
 62
     7
370
    25
100
AcDbLine
 10
-46.4427733883
 20
-6.05
 30
0.0
 11
-55.5644508656
 21
-6.05
 31
0.0
  0
LINE
  5
189
330
1F
100
AcDbEntity
  8
0
  6
Continuous
 62
     7
370
    25
100
AcDbLine
 10
-57.3322178186
 20
-8.55
 30
0.0
 11
-57.3322178186
 21
-21.45
 31
0.0
  0
LINE
  5
18A
330
1F
100
AcDbEntity
  8
0
  6
Continuous
 62
     7
370
    25
100
AcDbLine
 10
-55.5644508656
 20
-23.95
 30
0.0
 11
-46.4427733883
 21
-23.95
 31
0.0
  0
LINE
  5
18B
330
1F
100
AcDbEntity
  8
0
  6
Continuous
 62
     7
370
    25
100
AcDbLine
 10
-44.6750064354
 20
8.55
 30
0.0
 11
-44.6750064354
 21
21.45
 31
0.0
  0
LINE
  5
18C
330
1F
100
AcDbEntity
  8
0
  6
Continuous
 62
     7
370
    25
100
AcDbLine
 10
-46.4427733883
 20
23.95
 30
0.0
 11
-55.5644508656
 21
23.95
 31
0.0
  0
LINE
  5
18D
330
1F
100
AcDbEntity
  8
0
  6
Continuous
 62
     7
370
    25
100
AcDbLine
 10
-57.3322178186
 20
21.45
 30
0.0
 11
-57.3322178186
 21
8.55
 31
0.0
  0
LINE
  5
18E
330
1F
100
AcDbEntity
  8
0
  6
Continuous
 62
     7
370
    25
100
AcDbLine
 10
-55.5644508656
 20
6.05
 30
0.0
 11
-46.4427733883
 21
6.05
 31
0.0
  0
LINE
  5
18F
330
1F
100
AcDbEntity
  8
0
  6
Continuous
 62
     7
370
    25
100
AcDbLine
 10
29.5712055892
 20
-21.45
 30
0.0
 11
29.5712055892
 21
-8.55
 31
0.0
  0
LINE
  5
190
330
1F
100
AcDbEntity
  8
0
  6
Continuous
 62
     7
370
    25
100
AcDbLine
 10
27.8034386363
 20
-6.05
 30
0.0
 11
18.6817611589
 21
-6.05
 31
0.0
  0
LINE
  5
191
330
1F
100
AcDbEntity
  8
0
  6
Continuous
 62
     7
370
    25
100
AcDbLine
 10
16.913994206
 20
-8.55
 30
0.0
 11
16.913994206
 21
-21.45
 31
0.0
  0
LINE
  5
192
330
1F
100
AcDbEntity
  8
0
  6
Continuous
 62
     7
370
    25
100
AcDbLine
 10
18.6817611589
 20
-23.95
 30
0.0
 11
27.8034386363
 21
-23.95
 31
0.0
  0
LINE
  5
193
330
1F
100
AcDbEntity
  8
0
  6
Continuous
 62
     7
370
    25
100
AcDbLine
 10
-19.9262690938
 20
-51.45
 30
0.0
 11
-19.9262690938
 21
-38.55
 31
0.0
  0
LINE
  5
194
330
1F
100
AcDbEntity
  8
0
  6
Continuous
 62
     7
370
    25
100
AcDbLine
 10
-21.6940360468
 20
-36.05
 30
0.0
 11
-30.8157135241
 21
-36.05
 31
0.0
  0
LINE
  5
195
330
1F
100
AcDbEntity
  8
0
  6
Continuous
 62
     7
370
    25
100
AcDbLine
 10
-32.5834804771
 20
-38.55
 30
0.0
 11
-32.5834804771
 21
-51.45
 31
0.0
  0
LINE
  5
196
330
1F
100
AcDbEntity
  8
0
  6
Continuous
 62
     7
370
    25
100
AcDbLine
 10
-30.8157135241
 20
-53.95
 30
0.0
 11
-21.6940360468
 21
-53.95
 31
0.0
  0
LINE
  5
197
330
1F
100
AcDbEntity
  8
0
  6
Continuous
 62
     7
370
    25
100
AcDbLine
 10
4.8224682477
 20
-51.45
 30
0.0
 11
4.8224682477
 21
-38.55
 31
0.0
  0
LINE
  5
198
330
1F
100
AcDbEntity
  8
0
  6
Continuous
 62
     7
370
    25
100
AcDbLine
 10
3.0547012947
 20
-36.05
 30
0.0
 11
-6.0669761826
 21
-36.05
 31
0.0
  0
LINE
  5
199
330
1F
100
AcDbEntity
  8
0
  6
Continuous
 62
     7
370
    25
100
AcDbLine
 10
-7.8347431355
 20
-38.55
 30
0.0
 11
-7.8347431355
 21
-51.45
 31
0.0
  0
LINE
  5
19A
330
1F
100
AcDbEntity
  8
0
  6
Continuous
 62
     7
370
    25
100
AcDbLine
 10
-6.0669761826
 20
-53.95
 30
0.0
 11
3.0547012947
 21
-53.95
 31
0.0
  0
LINE
  5
19B
330
1F
100
AcDbEntity
  8
0
  6
Continuous
 62
     7
370
    25
100
AcDbLine
 10
29.5712055892
 20
-51.45
 30
0.0
 11
29.5712055892
 21
-38.55
 31
0.0
  0
LINE
  5
19C
330
1F
100
AcDbEntity
  8
0
  6
Continuous
 62
     7
370
    25
100
AcDbLine
 10
27.8034386363
 20
-36.05
 30
0.0
 11
18.6817611589
 21
-36.05
 31
0.0
  0
LINE
  5
19D
330
1F
100
AcDbEntity
  8
0
  6
Continuous
 62
     7
370
    25
100
AcDbLine
 10
16.913994206
 20
-38.55
 30
0.0
 11
16.913994206
 21
-51.45
 31
0.0
  0
LINE
  5
19E
330
1F
100
AcDbEntity
  8
0
  6
Continuous
 62
     7
370
    25
100
AcDbLine
 10
18.6817611589
 20
-53.95
 30
0.0
 11
27.8034386363
 21
-53.95
 31
0.0
  0
LINE
  5
19F
330
1F
100
AcDbEntity
  8
0
  6
Continuous
 62
     7
370
    25
100
AcDbLine
 10
-19.9262690938
 20
8.55
 30
0.0
 11
-19.9262690938
 21
21.45
 31
0.0
  0
LINE
  5
1A0
330
1F
100
AcDbEntity
  8
0
  6
Continuous
 62
     7
370
    25
100
AcDbLine
 10
-21.6940360468
 20
23.95
 30
0.0
 11
-30.8157135241
 21
23.95
 31
0.0
  0
LINE
  5
1A1
330
1F
100
AcDbEntity
  8
0
  6
Continuous
 62
     7
370
    25
100
AcDbLine
 10
-32.5834804771
 20
21.45
 30
0.0
 11
-32.5834804771
 21
8.55
 31
0.0
  0
LINE
  5
1A2
330
1F
100
AcDbEntity
  8
0
  6
Continuous
 62
     7
370
    25
100
AcDbLine
 10
-30.8157135241
 20
6.05
 30
0.0
 11
-21.6940360468
 21
6.05
 31
0.0
  0
LINE
  5
1A3
330
1F
100
AcDbEntity
  8
0
  6
Continuous
 62
     7
370
    25
100
AcDbLine
 10
29.5712055892
 20
38.55
 30
0.0
 11
29.5712055892
 21
51.45
 31
0.0
  0
LINE
  5
1A4
330
1F
100
AcDbEntity
  8
0
  6
Continuous
 62
     7
370
    25
100
AcDbLine
 10
27.8034386363
 20
53.95
 30
0.0
 11
18.6817611589
 21
53.95
 31
0.0
  0
LINE
  5
1A5
330
1F
100
AcDbEntity
  8
0
  6
Continuous
 62
     7
370
    25
100
AcDbLine
 10
16.913994206
 20
51.45
 30
0.0
 11
16.913994206
 21
38.55
 31
0.0
  0
LINE
  5
1A6
330
1F
100
AcDbEntity
  8
0
  6
Continuous
 62
     7
370
    25
100
AcDbLine
 10
18.6817611589
 20
36.05
 30
0.0
 11
27.8034386363
 21
36.05
 31
0.0
  0
LINE
  5
1A7
330
1F
100
AcDbEntity
  8
0
  6
Continuous
 62
     7
370
    25
100
AcDbLine
 10
4.8224682477
 20
38.55
 30
0.0
 11
4.8224682477
 21
51.45
 31
0.0
  0
LINE
  5
1A8
330
1F
100
AcDbEntity
  8
0
  6
Continuous
 62
     7
370
    25
100
AcDbLine
 10
3.0547012947
 20
53.95
 30
0.0
 11
-6.0669761826
 21
53.95
 31
0.0
  0
LINE
  5
1A9
330
1F
100
AcDbEntity
  8
0
  6
Continuous
 62
     7
370
    25
100
AcDbLine
 10
-7.8347431355
 20
51.45
 30
0.0
 11
-7.8347431355
 21
38.55
 31
0.0
  0
LINE
  5
1AA
330
1F
100
AcDbEntity
  8
0
  6
Continuous
 62
     7
370
    25
100
AcDbLine
 10
-6.0669761826
 20
36.05
 30
0.0
 11
3.0547012947
 21
36.05
 31
0.0
  0
LINE
  5
1AB
330
1F
100
AcDbEntity
  8
0
  6
Continuous
 62
     7
370
    25
100
AcDbLine
 10
-19.9262690938
 20
38.55
 30
0.0
 11
-19.9262690938
 21
51.45
 31
0.0
  0
LINE
  5
1AC
330
1F
100
AcDbEntity
  8
0
  6
Continuous
 62
     7
370
    25
100
AcDbLine
 10
-21.6940360468
 20
53.95
 30
0.0
 11
-30.8157135241
 21
53.95
 31
0.0
  0
LINE
  5
1AD
330
1F
100
AcDbEntity
  8
0
  6
Continuous
 62
     7
370
    25
100
AcDbLine
 10
-32.5834804771
 20
51.45
 30
0.0
 11
-32.5834804771
 21
38.55
 31
0.0
  0
LINE
  5
1AE
330
1F
100
AcDbEntity
  8
0
  6
Continuous
 62
     7
370
    25
100
AcDbLine
 10
-30.8157135241
 20
36.05
 30
0.0
 11
-21.6940360468
 21
36.05
 31
0.0
  0
LINE
  5
1AF
330
1F
100
AcDbEntity
  8
0
  6
Continuous
 62
     7
370
    25
100
AcDbLine
 10
4.8224682477
 20
8.55
 30
0.0
 11
4.8224682477
 21
21.45
 31
0.0
  0
LINE
  5
1B0
330
1F
100
AcDbEntity
  8
0
  6
Continuous
 62
     7
370
    25
100
AcDbLine
 10
3.0547012947
 20
23.95
 30
0.0
 11
-6.0669761826
 21
23.95
 31
0.0
  0
LINE
  5
1B1
330
1F
100
AcDbEntity
  8
0
  6
Continuous
 62
     7
370
    25
100
AcDbLine
 10
-7.8347431355
 20
21.45
 30
0.0
 11
-7.8347431355
 21
8.55
 31
0.0
  0
LINE
  5
1B2
330
1F
100
AcDbEntity
  8
0
  6
Continuous
 62
     7
370
    25
100
AcDbLine
 10
-6.0669761826
 20
6.05
 30
0.0
 11
3.0547012947
 21
6.05
 31
0.0
  0
LINE
  5
1B3
330
1F
100
AcDbEntity
  8
0
  6
Continuous
 62
     7
370
    25
100
AcDbLine
 10
29.5712055892
 20
8.55
 30
0.0
 11
29.5712055892
 21
21.45
 31
0.0
  0
LINE
  5
1B4
330
1F
100
AcDbEntity
  8
0
  6
Continuous
 62
     7
370
    25
100
AcDbLine
 10
27.8034386363
 20
23.95
 30
0.0
 11
18.6817611589
 21
23.95
 31
0.0
  0
LINE
  5
1B5
330
1F
100
AcDbEntity
  8
0
  6
Continuous
 62
     7
370
    25
100
AcDbLine
 10
16.913994206
 20
21.45
 30
0.0
 11
16.913994206
 21
8.55
 31
0.0
  0
LINE
  5
1B6
330
1F
100
AcDbEntity
  8
0
  6
Continuous
 62
     7
370
    25
100
AcDbLine
 10
18.6817611589
 20
6.05
 30
0.0
 11
27.8034386363
 21
6.05
 31
0.0
  0
LINE
  5
1B7
330
1F
100
AcDbEntity
  8
0
  6
Continuous
 62
     7
370
    25
100
AcDbLine
 10
-19.9262690938
 20
-21.45
 30
0.0
 11
-19.9262690938
 21
-8.55
 31
0.0
  0
LINE
  5
1B8
330
1F
100
AcDbEntity
  8
0
  6
Continuous
 62
     7
370
    25
100
AcDbLine
 10
-21.6940360468
 20
-6.05
 30
0.0
 11
-30.8157135241
 21
-6.05
 31
0.0
  0
LINE
  5
1B9
330
1F
100
AcDbEntity
  8
0
  6
Continuous
 62
     7
370
    25
100
AcDbLine
 10
-32.5834804771
 20
-8.55
 30
0.0
 11
-32.5834804771
 21
-21.45
 31
0.0
  0
LINE
  5
1BA
330
1F
100
AcDbEntity
  8
0
  6
Continuous
 62
     7
370
    25
100
AcDbLine
 10
-30.8157135241
 20
-23.95
 30
0.0
 11
-21.6940360468
 21
-23.95
 31
0.0
  0
LINE
  5
1BB
330
1F
100
AcDbEntity
  8
0
  6
Continuous
 62
     7
370
    25
100
AcDbLine
 10
4.8224682477
 20
-21.45
 30
0.0
 11
4.8224682477
 21
-8.55
 31
0.0
  0
LINE
  5
1BC
330
1F
100
AcDbEntity
  8
0
  6
Continuous
 62
     7
370
    25
100
AcDbLine
 10
3.0547012947
 20
-6.05
 30
0.0
 11
-6.0669761826
 21
-6.05
 31
0.0
  0
LINE
  5
1BD
330
1F
100
AcDbEntity
  8
0
  6
Continuous
 62
     7
370
    25
100
AcDbLine
 10
-7.8347431355
 20
-8.55
 30
0.0
 11
-7.8347431355
 21
-21.45
 31
0.0
  0
LINE
  5
1BE
330
1F
100
AcDbEntity
  8
0
  6
Continuous
 62
     7
370
    25
100
AcDbLine
 10
-6.0669761826
 20
-23.95
 30
0.0
 11
3.0547012947
 21
-23.95
 31
0.0
  0
LINE
  5
1BF
330
1F
100
AcDbEntity
  8
0
  6
Continuous
 62
     7
370
    25
100
AcDbLine
 10
70.3571247281
 20
-64.65
 30
0.0
 11
70.3571247281
 21
64.65
 31
0.0
  0
LINE
  5
1C0
330
1F
100
AcDbEntity
  8
0
  6
Continuous
 62
     7
370
    25
100
AcDbLine
 10
48.560558198
 20
-26.4
 30
0.0
 11
48.560558198
 21
-27.5
 31
0.0
  0
LINE
  5
1C1
330
1F
100
AcDbEntity
  8
0
  6
Continuous
 62
     7
370
    25
100
AcDbLine
 10
48.560558198
 20
8.6
 30
0.0
 11
48.560558198
 21
7.5
 31
0.0
  0
LINE
  5
1C2
330
1F
100
AcDbEntity
  8
0
  6
Continuous
 62
     7
370
    25
100
AcDbLine
 10
48.560558198
 20
43.6
 30
0.0
 11
48.560558198
 21
42.5
 31
0.0
  0
LINE
  5
1C3
330
1F
100
AcDbEntity
  8
0
  6
Continuous
 62
     7
370
    25
100
AcDbLine
 10
17.6211009872
 20
-38.55
 30
0.0
 11
17.6211009872
 21
-51.45
 31
0.0
  0
LINE
  5
1C4
330
1F
100
AcDbEntity
  8
0
  6
Continuous
 62
     7
370
    25
100
AcDbLine
 10
17.6211009872
 20
-8.55
 30
0.0
 11
17.6211009872
 21
-21.45
 31
0.0
  0
LINE
  5
1C5
330
1F
100
AcDbEntity
  8
0
  6
Continuous
 62
     7
370
    25
100
AcDbLine
 10
17.6211009872
 20
21.45
 30
0.0
 11
17.6211009872
 21
8.55
 31
0.0
  0
LINE
  5
1C6
330
1F
100
AcDbEntity
  8
0
  6
Continuous
 62
     7
370
    25
100
AcDbLine
 10
17.6211009872
 20
51.45
 30
0.0
 11
17.6211009872
 21
38.55
 31
0.0
  0
LINE
  5
1C7
330
1F
100
AcDbEntity
  8
0
  6
Continuous
 62
     7
370
    25
100
AcDbLine
 10
17.6211009872
 20
-38.55
 30
0.0
 11
16.913994206
 21
-38.55
 31
0.0
  0
LINE
  5
1C8
330
1F
100
AcDbEntity
  8
0
  6
Continuous
 62
     7
370
    25
100
AcDbLine
 10
16.913994206
 20
-51.45
 30
0.0
 11
17.6211009872
 21
-51.45
 31
0.0
  0
LINE
  5
1C9
330
1F
100
AcDbEntity
  8
0
  6
Continuous
 62
     7
370
    25
100
AcDbLine
 10
17.6211009872
 20
-8.55
 30
0.0
 11
16.913994206
 21
-8.55
 31
0.0
  0
LINE
  5
1CA
330
1F
100
AcDbEntity
  8
0
  6
Continuous
 62
     7
370
    25
100
AcDbLine
 10
16.913994206
 20
-21.45
 30
0.0
 11
17.6211009872
 21
-21.45
 31
0.0
  0
LINE
  5
1CB
330
1F
100
AcDbEntity
  8
0
  6
Continuous
 62
     7
370
    25
100
AcDbLine
 10
17.6211009872
 20
21.45
 30
0.0
 11
16.913994206
 21
21.45
 31
0.0
  0
LINE
  5
1CC
330
1F
100
AcDbEntity
  8
0
  6
Continuous
 62
     7
370
    25
100
AcDbLine
 10
16.913994206
 20
8.55
 30
0.0
 11
17.6211009872
 21
8.55
 31
0.0
  0
LINE
  5
1CD
330
1F
100
AcDbEntity
  8
0
  6
Continuous
 62
     7
370
    25
100
AcDbLine
 10
17.6211009872
 20
51.45
 30
0.0
 11
16.913994206
 21
51.45
 31
0.0
  0
LINE
  5
1CE
330
1F
100
AcDbEntity
  8
0
  6
Continuous
 62
     7
370
    25
100
AcDbLine
 10
16.913994206
 20
38.55
 30
0.0
 11
17.6211009872
 21
38.55
 31
0.0
  0
LINE
  5
1CF
330
1F
100
AcDbEntity
  8
0
  6
Continuous
 62
     7
370
    25
100
AcDbLine
 10
-7.1276363544
 20
-38.55
 30
0.0
 11
-7.1276363544
 21
-51.45
 31
0.0
  0
LINE
  5
1D0
330
1F
100
AcDbEntity
  8
0
  6
Continuous
 62
     7
370
    25
100
AcDbLine
 10
-7.1276363544
 20
-8.55
 30
0.0
 11
-7.1276363544
 21
-21.45
 31
0.0
  0
LINE
  5
1D1
330
1F
100
AcDbEntity
  8
0
  6
Continuous
 62
     7
370
    25
100
AcDbLine
 10
-7.1276363544
 20
21.45
 30
0.0
 11
-7.1276363544
 21
8.55
 31
0.0
  0
LINE
  5
1D2
330
1F
100
AcDbEntity
  8
0
  6
Continuous
 62
     7
370
    25
100
AcDbLine
 10
-7.1276363544
 20
51.45
 30
0.0
 11
-7.1276363544
 21
38.55
 31
0.0
  0
LINE
  5
1D3
330
1F
100
AcDbEntity
  8
0
  6
Continuous
 62
     7
370
    25
100
AcDbLine
 10
-7.1276363544
 20
-38.55
 30
0.0
 11
-7.8347431355
 21
-38.55
 31
0.0
  0
LINE
  5
1D4
330
1F
100
AcDbEntity
  8
0
  6
Continuous
 62
     7
370
    25
100
AcDbLine
 10
-7.8347431355
 20
-51.45
 30
0.0
 11
-7.1276363544
 21
-51.45
 31
0.0
  0
LINE
  5
1D5
330
1F
100
AcDbEntity
  8
0
  6
Continuous
 62
     7
370
    25
100
AcDbLine
 10
-7.1276363544
 20
-8.55
 30
0.0
 11
-7.8347431355
 21
-8.55
 31
0.0
  0
LINE
  5
1D6
330
1F
100
AcDbEntity
  8
0
  6
Continuous
 62
     7
370
    25
100
AcDbLine
 10
-7.8347431355
 20
-21.45
 30
0.0
 11
-7.1276363544
 21
-21.45
 31
0.0
  0
LINE
  5
1D7
330
1F
100
AcDbEntity
  8
0
  6
Continuous
 62
     7
370
    25
100
AcDbLine
 10
-7.1276363544
 20
21.45
 30
0.0
 11
-7.8347431355
 21
21.45
 31
0.0
  0
LINE
  5
1D8
330
1F
100
AcDbEntity
  8
0
  6
Continuous
 62
     7
370
    25
100
AcDbLine
 10
-7.8347431355
 20
8.55
 30
0.0
 11
-7.1276363544
 21
8.55
 31
0.0
  0
LINE
  5
1D9
330
1F
100
AcDbEntity
  8
0
  6
Continuous
 62
     7
370
    25
100
AcDbLine
 10
-7.1276363544
 20
51.45
 30
0.0
 11
-7.8347431355
 21
51.45
 31
0.0
  0
LINE
  5
1DA
330
1F
100
AcDbEntity
  8
0
  6
Continuous
 62
     7
370
    25
100
AcDbLine
 10
-7.8347431355
 20
38.55
 30
0.0
 11
-7.1276363544
 21
38.55
 31
0.0
  0
LINE
  5
1DB
330
1F
100
AcDbEntity
  8
0
  6
Continuous
 62
     7
370
    25
100
AcDbLine
 10
-31.8763736959
 20
-38.55
 30
0.0
 11
-31.8763736959
 21
-51.45
 31
0.0
  0
LINE
  5
1DC
330
1F
100
AcDbEntity
  8
0
  6
Continuous
 62
     7
370
    25
100
AcDbLine
 10
-31.8763736959
 20
-8.55
 30
0.0
 11
-31.8763736959
 21
-21.45
 31
0.0
  0
LINE
  5
1DD
330
1F
100
AcDbEntity
  8
0
  6
Continuous
 62
     7
370
    25
100
AcDbLine
 10
-31.8763736959
 20
21.45
 30
0.0
 11
-31.8763736959
 21
8.55
 31
0.0
  0
LINE
  5
1DE
330
1F
100
AcDbEntity
  8
0
  6
Continuous
 62
     7
370
    25
100
AcDbLine
 10
-31.8763736959
 20
51.45
 30
0.0
 11
-31.8763736959
 21
38.55
 31
0.0
  0
LINE
  5
1DF
330
1F
100
AcDbEntity
  8
0
  6
Continuous
 62
     7
370
    25
100
AcDbLine
 10
-31.8763736959
 20
-38.55
 30
0.0
 11
-32.5834804771
 21
-38.55
 31
0.0
  0
LINE
  5
1E0
330
1F
100
AcDbEntity
  8
0
  6
Continuous
 62
     7
370
    25
100
AcDbLine
 10
-32.5834804771
 20
-51.45
 30
0.0
 11
-31.8763736959
 21
-51.45
 31
0.0
  0
LINE
  5
1E1
330
1F
100
AcDbEntity
  8
0
  6
Continuous
 62
     7
370
    25
100
AcDbLine
 10
-31.8763736959
 20
-8.55
 30
0.0
 11
-32.5834804771
 21
-8.55
 31
0.0
  0
LINE
  5
1E2
330
1F
100
AcDbEntity
  8
0
  6
Continuous
 62
     7
370
    25
100
AcDbLine
 10
-32.5834804771
 20
-21.45
 30
0.0
 11
-31.8763736959
 21
-21.45
 31
0.0
  0
LINE
  5
1E3
330
1F
100
AcDbEntity
  8
0
  6
Continuous
 62
     7
370
    25
100
AcDbLine
 10
-31.8763736959
 20
21.45
 30
0.0
 11
-32.5834804771
 21
21.45
 31
0.0
  0
LINE
  5
1E4
330
1F
100
AcDbEntity
  8
0
  6
Continuous
 62
     7
370
    25
100
AcDbLine
 10
-32.5834804771
 20
8.55
 30
0.0
 11
-31.8763736959
 21
8.55
 31
0.0
  0
LINE
  5
1E5
330
1F
100
AcDbEntity
  8
0
  6
Continuous
 62
     7
370
    25
100
AcDbLine
 10
-31.8763736959
 20
51.45
 30
0.0
 11
-32.5834804771
 21
51.45
 31
0.0
  0
LINE
  5
1E6
330
1F
100
AcDbEntity
  8
0
  6
Continuous
 62
     7
370
    25
100
AcDbLine
 10
-32.5834804771
 20
38.55
 30
0.0
 11
-31.8763736959
 21
38.55
 31
0.0
  0
LINE
  5
1E7
330
1F
100
AcDbEntity
  8
0
  6
Continuous
 62
     7
370
    25
100
AcDbLine
 10
-56.6251110374
 20
-38.55
 30
0.0
 11
-56.6251110374
 21
-51.45
 31
0.0
  0
LINE
  5
1E8
330
1F
100
AcDbEntity
  8
0
  6
Continuous
 62
     7
370
    25
100
AcDbLine
 10
-56.6251110374
 20
-8.55
 30
0.0
 11
-56.6251110374
 21
-21.45
 31
0.0
  0
LINE
  5
1E9
330
1F
100
AcDbEntity
  8
0
  6
Continuous
 62
     7
370
    25
100
AcDbLine
 10
-56.6251110374
 20
21.45
 30
0.0
 11
-56.6251110374
 21
8.55
 31
0.0
  0
LINE
  5
1EA
330
1F
100
AcDbEntity
  8
0
  6
Continuous
 62
     7
370
    25
100
AcDbLine
 10
-56.6251110374
 20
51.45
 30
0.0
 11
-56.6251110374
 21
38.55
 31
0.0
  0
LINE
  5
1EB
330
1F
100
AcDbEntity
  8
0
  6
Continuous
 62
     7
370
    25
100
AcDbLine
 10
-56.6251110374
 20
-38.55
 30
0.0
 11
-57.3322178186
 21
-38.55
 31
0.0
  0
LINE
  5
1EC
330
1F
100
AcDbEntity
  8
0
  6
Continuous
 62
     7
370
    25
100
AcDbLine
 10
-57.3322178186
 20
-51.45
 30
0.0
 11
-56.6251110374
 21
-51.45
 31
0.0
  0
LINE
  5
1ED
330
1F
100
AcDbEntity
  8
0
  6
Continuous
 62
     7
370
    25
100
AcDbLine
 10
-56.6251110374
 20
-8.55
 30
0.0
 11
-57.3322178186
 21
-8.55
 31
0.0
  0
LINE
  5
1EE
330
1F
100
AcDbEntity
  8
0
  6
Continuous
 62
     7
370
    25
100
AcDbLine
 10
-57.3322178186
 20
-21.45
 30
0.0
 11
-56.6251110374
 21
-21.45
 31
0.0
  0
LINE
  5
1EF
330
1F
100
AcDbEntity
  8
0
  6
Continuous
 62
     7
370
    25
100
AcDbLine
 10
-56.6251110374
 20
21.45
 30
0.0
 11
-57.3322178186
 21
21.45
 31
0.0
  0
LINE
  5
1F0
330
1F
100
AcDbEntity
  8
0
  6
Continuous
 62
     7
370
    25
100
AcDbLine
 10
-57.3322178186
 20
8.55
 30
0.0
 11
-56.6251110374
 21
8.55
 31
0.0
  0
LINE
  5
1F1
330
1F
100
AcDbEntity
  8
0
  6
Continuous
 62
     7
370
    25
100
AcDbLine
 10
-56.6251110374
 20
51.45
 30
0.0
 11
-57.3322178186
 21
51.45
 31
0.0
  0
LINE
  5
1F2
330
1F
100
AcDbEntity
  8
0
  6
Continuous
 62
     7
370
    25
100
AcDbLine
 10
-57.3322178186
 20
38.55
 30
0.0
 11
-56.6251110374
 21
38.55
 31
0.0
  0
ARC
  5
1F3
330
1F
100
AcDbEntity
  8
0
  6
Continuous
 62
     7
370
    25
100
AcDbCircle
 10
-46.8847151266
 20
38.2375
 30
0.0
 40
2.231696383919637
100
AcDbArc
 50
281.421753659
 51
8.0494669755
  0
ARC
  5
1F4
330
1F
100
AcDbEntity
  8
0
  6
Continuous
 62
     7
370
    25
100
AcDbCircle
 10
-46.8847151266
 20
51.7625
 30
0.0
 40
2.231696383919636
100
AcDbArc
 50
351.9505330245
 51
78.578246341
  0
ARC
  5
1F5
330
1F
100
AcDbEntity
  8
0
  6
Continuous
 62
     7
370
    25
100
AcDbCircle
 10
-55.1225091274
 20
51.7625
 30
0.0
 40
2.231696383919641
100
AcDbArc
 50
101.421753659
 51
188.0494669755
  0
ARC
  5
1F6
330
1F
100
AcDbEntity
  8
0
  6
Continuous
 62
     7
370
    25
100
AcDbCircle
 10
-55.1225091274
 20
38.2375
 30
0.0
 40
2.23169638391964
100
AcDbArc
 50
171.9505330245
 51
258.578246341
  0
ARC
  5
1F7
330
1F
100
AcDbEntity
  8
0
  6
Continuous
 62
     7
370
    25
100
AcDbCircle
 10
-46.8847151266
 20
-51.7625
 30
0.0
 40
2.231696383919661
100
AcDbArc
 50
281.421753659
 51
8.0494669755
  0
ARC
  5
1F8
330
1F
100
AcDbEntity
  8
0
  6
Continuous
 62
     7
370
    25
100
AcDbCircle
 10
-46.8847151266
 20
-38.2375
 30
0.0
 40
2.231696383919648
100
AcDbArc
 50
351.9505330245
 51
78.578246341
  0
ARC
  5
1F9
330
1F
100
AcDbEntity
  8
0
  6
Continuous
 62
     7
370
    25
100
AcDbCircle
 10
-55.1225091274
 20
-38.2375
 30
0.0
 40
2.231696383919648
100
AcDbArc
 50
101.421753659
 51
188.0494669755
  0
ARC
  5
1FA
330
1F
100
AcDbEntity
  8
0
  6
Continuous
 62
     7
370
    25
100
AcDbCircle
 10
-55.1225091274
 20
-51.7625
 30
0.0
 40
2.231696383919625
100
AcDbArc
 50
171.9505330245
 51
258.578246341
  0
ARC
  5
1FB
330
1F
100
AcDbEntity
  8
0
  6
Continuous
 62
     7
370
    25
100
AcDbCircle
 10
-46.8847151266
 20
-21.7625
 30
0.0
 40
2.231696383919645
100
AcDbArc
 50
281.421753659
 51
8.0494669755
  0
ARC
  5
1FC
330
1F
100
AcDbEntity
  8
0
  6
Continuous
 62
     7
370
    25
100
AcDbCircle
 10
-46.8847151266
 20
-8.2375
 30
0.0
 40
2.231696383919647
100
AcDbArc
 50
351.9505330245
 51
78.578246341
  0
ARC
  5
1FD
330
1F
100
AcDbEntity
  8
0
  6
Continuous
 62
     7
370
    25
100
AcDbCircle
 10
-55.1225091274
 20
-8.2375
 30
0.0
 40
2.231696383919648
100
AcDbArc
 50
101.421753659
 51
188.0494669755
  0
ARC
  5
1FE
330
1F
100
AcDbEntity
  8
0
  6
Continuous
 62
     7
370
    25
100
AcDbCircle
 10
-55.1225091274
 20
-21.7625
 30
0.0
 40
2.231696383919664
100
AcDbArc
 50
171.9505330245
 51
258.578246341
  0
ARC
  5
1FF
330
1F
100
AcDbEntity
  8
0
  6
Continuous
 62
     7
370
    25
100
AcDbCircle
 10
-46.8847151266
 20
8.2375
 30
0.0
 40
2.231696383919664
100
AcDbArc
 50
281.421753659
 51
8.0494669755
  0
ARC
  5
200
330
1F
100
AcDbEntity
  8
0
  6
Continuous
 62
     7
370
    25
100
AcDbCircle
 10
-46.8847151266
 20
21.7625
 30
0.0
 40
2.23169638391966
100
AcDbArc
 50
351.9505330245
 51
78.578246341
  0
ARC
  5
201
330
1F
100
AcDbEntity
  8
0
  6
Continuous
 62
     7
370
    25
100
AcDbCircle
 10
-55.1225091274
 20
21.7625
 30
0.0
 40
2.231696383919651
100
AcDbArc
 50
101.421753659
 51
188.0494669755
  0
ARC
  5
202
330
1F
100
AcDbEntity
  8
0
  6
Continuous
 62
     7
370
    25
100
AcDbCircle
 10
-55.1225091274
 20
8.2375
 30
0.0
 40
2.231696383919652
100
AcDbArc
 50
171.9505330245
 51
258.578246341
  0
ARC
  5
203
330
1F
100
AcDbEntity
  8
0
  6
Continuous
 62
     7
370
    25
100
AcDbCircle
 10
27.361496898
 20
-21.7625
 30
0.0
 40
2.231696383919641
100
AcDbArc
 50
281.421753659
 51
8.0494669755
  0
ARC
  5
204
330
1F
100
AcDbEntity
  8
0
  6
Continuous
 62
     7
370
    25
100
AcDbCircle
 10
27.361496898
 20
-8.2375
 30
0.0
 40
2.231696383919644
100
AcDbArc
 50
351.9505330245
 51
78.578246341
  0
ARC
  5
205
330
1F
100
AcDbEntity
  8
0
  6
Continuous
 62
     7
370
    25
100
AcDbCircle
 10
19.1237028972
 20
-8.2375
 30
0.0
 40
2.231696383919652
100
AcDbArc
 50
101.421753659
 51
188.0494669755
  0
ARC
  5
206
330
1F
100
AcDbEntity
  8
0
  6
Continuous
 62
     7
370
    25
100
AcDbCircle
 10
19.1237028972
 20
-21.7625
 30
0.0
 40
2.231696383919651
100
AcDbArc
 50
171.9505330245
 51
258.578246341
  0
ARC
  5
207
330
1F
100
AcDbEntity
  8
0
  6
Continuous
 62
     7
370
    25
100
AcDbCircle
 10
-22.135977785
 20
-51.7625
 30
0.0
 40
2.231696383919632
100
AcDbArc
 50
281.421753659
 51
8.0494669755
  0
ARC
  5
208
330
1F
100
AcDbEntity
  8
0
  6
Continuous
 62
     7
370
    25
100
AcDbCircle
 10
-22.135977785
 20
-38.2375
 30
0.0
 40
2.231696383919648
100
AcDbArc
 50
351.9505330245
 51
78.578246341
  0
ARC
  5
209
330
1F
100
AcDbEntity
  8
0
  6
Continuous
 62
     7
370
    25
100
AcDbCircle
 10
-30.3737717859
 20
-38.2375
 30
0.0
 40
2.231696383919656
100
AcDbArc
 50
101.421753659
 51
188.0494669755
  0
ARC
  5
20A
330
1F
100
AcDbEntity
  8
0
  6
Continuous
 62
     7
370
    25
100
AcDbCircle
 10
-30.3737717859
 20
-51.7625
 30
0.0
 40
2.231696383919634
100
AcDbArc
 50
171.9505330245
 51
258.578246341
  0
ARC
  5
20B
330
1F
100
AcDbEntity
  8
0
  6
Continuous
 62
     7
370
    25
100
AcDbCircle
 10
2.6127595565
 20
-51.7625
 30
0.0
 40
2.231696383919635
100
AcDbArc
 50
281.421753659
 51
8.0494669755
  0
ARC
  5
20C
330
1F
100
AcDbEntity
  8
0
  6
Continuous
 62
     7
370
    25
100
AcDbCircle
 10
2.6127595565
 20
-38.2375
 30
0.0
 40
2.231696383919657
100
AcDbArc
 50
351.9505330245
 51
78.578246341
  0
ARC
  5
20D
330
1F
100
AcDbEntity
  8
0
  6
Continuous
 62
     7
370
    25
100
AcDbCircle
 10
-5.6250344443
 20
-38.2375
 30
0.0
 40
2.231696383919658
100
AcDbArc
 50
101.421753659
 51
188.0494669755
  0
ARC
  5
20E
330
1F
100
AcDbEntity
  8
0
  6
Continuous
 62
     7
370
    25
100
AcDbCircle
 10
-5.6250344443
 20
-51.7625
 30
0.0
 40
2.231696383919634
100
AcDbArc
 50
171.9505330245
 51
258.578246341
  0
ARC
  5
20F
330
1F
100
AcDbEntity
  8
0
  6
Continuous
 62
     7
370
    25
100
AcDbCircle
 10
27.361496898
 20
-51.7625
 30
0.0
 40
2.231696383919631
100
AcDbArc
 50
281.421753659
 51
8.0494669755
  0
ARC
  5
210
330
1F
100
AcDbEntity
  8
0
  6
Continuous
 62
     7
370
    25
100
AcDbCircle
 10
27.361496898
 20
-38.2375
 30
0.0
 40
2.231696383919648
100
AcDbArc
 50
351.9505330245
 51
78.578246341
  0
ARC
  5
211
330
1F
100
AcDbEntity
  8
0
  6
Continuous
 62
     7
370
    25
100
AcDbCircle
 10
19.1237028972
 20
-38.2375
 30
0.0
 40
2.231696383919666
100
AcDbArc
 50
101.421753659
 51
188.0494669755
  0
ARC
  5
212
330
1F
100
AcDbEntity
  8
0
  6
Continuous
 62
     7
370
    25
100
AcDbCircle
 10
19.1237028972
 20
-51.7625
 30
0.0
 40
2.231696383919635
100
AcDbArc
 50
171.9505330245
 51
258.578246341
  0
ARC
  5
213
330
1F
100
AcDbEntity
  8
0
  6
Continuous
 62
     7
370
    25
100
AcDbCircle
 10
-22.135977785
 20
8.2375
 30
0.0
 40
2.231696383919638
100
AcDbArc
 50
281.421753659
 51
8.0494669755
  0
ARC
  5
214
330
1F
100
AcDbEntity
  8
0
  6
Continuous
 62
     7
370
    25
100
AcDbCircle
 10
-22.135977785
 20
21.7625
 30
0.0
 40
2.231696383919637
100
AcDbArc
 50
351.9505330245
 51
78.578246341
  0
ARC
  5
215
330
1F
100
AcDbEntity
  8
0
  6
Continuous
 62
     7
370
    25
100
AcDbCircle
 10
-30.3737717859
 20
21.7625
 30
0.0
 40
2.231696383919635
100
AcDbArc
 50
101.421753659
 51
188.0494669755
  0
ARC
  5
216
330
1F
100
AcDbEntity
  8
0
  6
Continuous
 62
     7
370
    25
100
AcDbCircle
 10
-30.3737717859
 20
8.2375
 30
0.0
 40
2.231696383919638
100
AcDbArc
 50
171.9505330245
 51
258.578246341
  0
ARC
  5
217
330
1F
100
AcDbEntity
  8
0
  6
Continuous
 62
     7
370
    25
100
AcDbCircle
 10
27.361496898
 20
38.2375
 30
0.0
 40
2.231696383919644
100
AcDbArc
 50
281.421753659
 51
8.0494669755
  0
ARC
  5
218
330
1F
100
AcDbEntity
  8
0
  6
Continuous
 62
     7
370
    25
100
AcDbCircle
 10
27.361496898
 20
51.7625
 30
0.0
 40
2.231696383919647
100
AcDbArc
 50
351.9505330245
 51
78.578246341
  0
ARC
  5
219
330
1F
100
AcDbEntity
  8
0
  6
Continuous
 62
     7
370
    25
100
AcDbCircle
 10
19.1237028972
 20
51.7625
 30
0.0
 40
2.231696383919658
100
AcDbArc
 50
101.421753659
 51
188.0494669755
  0
ARC
  5
21A
330
1F
100
AcDbEntity
  8
0
  6
Continuous
 62
     7
370
    25
100
AcDbCircle
 10
19.1237028972
 20
38.2375
 30
0.0
 40
2.231696383919638
100
AcDbArc
 50
171.9505330245
 51
258.578246341
  0
ARC
  5
21B
330
1F
100
AcDbEntity
  8
0
  6
Continuous
 62
     7
370
    25
100
AcDbCircle
 10
2.6127595565
 20
38.2375
 30
0.0
 40
2.23169638391964
100
AcDbArc
 50
281.421753659
 51
8.0494669755
  0
ARC
  5
21C
330
1F
100
AcDbEntity
  8
0
  6
Continuous
 62
     7
370
    25
100
AcDbCircle
 10
2.6127595565
 20
51.7625
 30
0.0
 40
2.231696383919642
100
AcDbArc
 50
351.9505330245
 51
78.578246341
  0
ARC
  5
21D
330
1F
100
AcDbEntity
  8
0
  6
Continuous
 62
     7
370
    25
100
AcDbCircle
 10
-5.6250344443
 20
51.7625
 30
0.0
 40
2.231696383919642
100
AcDbArc
 50
101.421753659
 51
188.0494669755
  0
ARC
  5
21E
330
1F
100
AcDbEntity
  8
0
  6
Continuous
 62
     7
370
    25
100
AcDbCircle
 10
-5.6250344443
 20
38.2375
 30
0.0
 40
2.231696383919638
100
AcDbArc
 50
171.9505330245
 51
258.578246341
  0
ARC
  5
21F
330
1F
100
AcDbEntity
  8
0
  6
Continuous
 62
     7
370
    25
100
AcDbCircle
 10
-22.135977785
 20
38.2375
 30
0.0
 40
2.23169638391964
100
AcDbArc
 50
281.421753659
 51
8.0494669755
  0
ARC
  5
220
330
1F
100
AcDbEntity
  8
0
  6
Continuous
 62
     7
370
    25
100
AcDbCircle
 10
-22.135977785
 20
51.7625
 30
0.0
 40
2.23169638391964
100
AcDbArc
 50
351.9505330245
 51
78.578246341
  0
ARC
  5
221
330
1F
100
AcDbEntity
  8
0
  6
Continuous
 62
     7
370
    25
100
AcDbCircle
 10
-30.3737717859
 20
51.7625
 30
0.0
 40
2.23169638391965
100
AcDbArc
 50
101.421753659
 51
188.0494669755
  0
ARC
  5
222
330
1F
100
AcDbEntity
  8
0
  6
Continuous
 62
     7
370
    25
100
AcDbCircle
 10
-30.3737717859
 20
38.2375
 30
0.0
 40
2.23169638391965
100
AcDbArc
 50
171.9505330245
 51
258.578246341
  0
ARC
  5
223
330
1F
100
AcDbEntity
  8
0
  6
Continuous
 62
     7
370
    25
100
AcDbCircle
 10
2.6127595565
 20
8.2375
 30
0.0
 40
2.231696383919639
100
AcDbArc
 50
281.421753659
 51
8.0494669755
  0
ARC
  5
224
330
1F
100
AcDbEntity
  8
0
  6
Continuous
 62
     7
370
    25
100
AcDbCircle
 10
2.6127595565
 20
21.7625
 30
0.0
 40
2.231696383919649
100
AcDbArc
 50
351.9505330245
 51
78.578246341
  0
ARC
  5
225
330
1F
100
AcDbEntity
  8
0
  6
Continuous
 62
     7
370
    25
100
AcDbCircle
 10
-5.6250344443
 20
21.7625
 30
0.0
 40
2.231696383919643
100
AcDbArc
 50
101.421753659
 51
188.0494669755
  0
ARC
  5
226
330
1F
100
AcDbEntity
  8
0
  6
Continuous
 62
     7
370
    25
100
AcDbCircle
 10
-5.6250344443
 20
8.2375
 30
0.0
 40
2.231696383919643
100
AcDbArc
 50
171.9505330245
 51
258.578246341
  0
ARC
  5
227
330
1F
100
AcDbEntity
  8
0
  6
Continuous
 62
     7
370
    25
100
AcDbCircle
 10
27.361496898
 20
8.2375
 30
0.0
 40
2.231696383919645
100
AcDbArc
 50
281.421753659
 51
8.0494669755
  0
ARC
  5
228
330
1F
100
AcDbEntity
  8
0
  6
Continuous
 62
     7
370
    25
100
AcDbCircle
 10
27.361496898
 20
21.7625
 30
0.0
 40
2.23169638391965
100
AcDbArc
 50
351.9505330245
 51
78.578246341
  0
ARC
  5
229
330
1F
100
AcDbEntity
  8
0
  6
Continuous
 62
     7
370
    25
100
AcDbCircle
 10
19.1237028972
 20
21.7625
 30
0.0
 40
2.231696383919652
100
AcDbArc
 50
101.421753659
 51
188.0494669755
  0
ARC
  5
22A
330
1F
100
AcDbEntity
  8
0
  6
Continuous
 62
     7
370
    25
100
AcDbCircle
 10
19.1237028972
 20
8.2375
 30
0.0
 40
2.231696383919643
100
AcDbArc
 50
171.9505330245
 51
258.578246341
  0
ARC
  5
22B
330
1F
100
AcDbEntity
  8
0
  6
Continuous
 62
     7
370
    25
100
AcDbCircle
 10
-22.135977785
 20
-21.7625
 30
0.0
 40
2.23169638391964
100
AcDbArc
 50
281.421753659
 51
8.0494669755
  0
ARC
  5
22C
330
1F
100
AcDbEntity
  8
0
  6
Continuous
 62
     7
370
    25
100
AcDbCircle
 10
-22.135977785
 20
-8.2375
 30
0.0
 40
2.231696383919638
100
AcDbArc
 50
351.9505330245
 51
78.578246341
  0
ARC
  5
22D
330
1F
100
AcDbEntity
  8
0
  6
Continuous
 62
     7
370
    25
100
AcDbCircle
 10
-30.3737717859
 20
-8.2375
 30
0.0
 40
2.231696383919628
100
AcDbArc
 50
101.421753659
 51
188.0494669755
  0
ARC
  5
22E
330
1F
100
AcDbEntity
  8
0
  6
Continuous
 62
     7
370
    25
100
AcDbCircle
 10
-30.3737717859
 20
-21.7625
 30
0.0
 40
2.231696383919635
100
AcDbArc
 50
171.9505330245
 51
258.578246341
  0
ARC
  5
22F
330
1F
100
AcDbEntity
  8
0
  6
Continuous
 62
     7
370
    25
100
AcDbCircle
 10
2.6127595565
 20
-21.7625
 30
0.0
 40
2.231696383919636
100
AcDbArc
 50
281.421753659
 51
8.0494669755
  0
ARC
  5
230
330
1F
100
AcDbEntity
  8
0
  6
Continuous
 62
     7
370
    25
100
AcDbCircle
 10
2.6127595565
 20
-8.2375
 30
0.0
 40
2.231696383919639
100
AcDbArc
 50
351.9505330245
 51
78.578246341
  0
ARC
  5
231
330
1F
100
AcDbEntity
  8
0
  6
Continuous
 62
     7
370
    25
100
AcDbCircle
 10
-5.6250344443
 20
-8.2375
 30
0.0
 40
2.231696383919645
100
AcDbArc
 50
101.421753659
 51
188.0494669755
  0
ARC
  5
232
330
1F
100
AcDbEntity
  8
0
  6
Continuous
 62
     7
370
    25
100
AcDbCircle
 10
-5.6250344443
 20
-21.7625
 30
0.0
 40
2.23169638391965
100
AcDbArc
 50
171.9505330245
 51
258.578246341
  0
ARC
  5
233
330
1F
100
AcDbEntity
  8
0
  6
Continuous
 62
     7
370
    25
100
AcDbCircle
 10
50.883920427
 20
35.0
 30
0.0
 40
3.961476637542601
100
AcDbArc
 50
122.6890877682
 51
237.3109122318
  0
ARC
  5
234
330
1F
100
AcDbEntity
  8
0
  6
Continuous
 62
     7
370
    25
100
AcDbCircle
 10
50.883920427
 20
0.0
 30
0.0
 40
3.961476637542381
100
AcDbArc
 50
122.6890877682
 51
237.3109122318
  0
ARC
  5
235
330
1F
100
AcDbEntity
  8
0
  6
Continuous
 62
     7
370
    25
100
AcDbCircle
 10
50.883920427
 20
-35.0
 30
0.0
 40
3.961476637542477
100
AcDbArc
 50
122.6890877682
 51
237.3109122318
  0
ARC
  5
236
330
1F
100
AcDbEntity
  8
0
  6
Continuous
 62
     7
370
    25
100
AcDbCircle
 10
19.8308096784
 20
-51.7625
 30
0.0
 40
2.231696383919658
100
AcDbArc
 50
171.9505330245
 51
258.578246341
  0
ARC
  5
237
330
1F
100
AcDbEntity
  8
0
  6
Continuous
 62
     7
370
    25
100
AcDbCircle
 10
19.8308096784
 20
-38.2375
 30
0.0
 40
2.231696383919657
100
AcDbArc
 50
101.421753659
 51
188.0494669755
  0
ARC
  5
238
330
1F
100
AcDbEntity
  8
0
  6
Continuous
 62
     7
370
    25
100
AcDbCircle
 10
19.8308096784
 20
-21.7625
 30
0.0
 40
2.231696383919643
100
AcDbArc
 50
171.9505330245
 51
258.578246341
  0
ARC
  5
239
330
1F
100
AcDbEntity
  8
0
  6
Continuous
 62
     7
370
    25
100
AcDbCircle
 10
19.8308096784
 20
-8.2375
 30
0.0
 40
2.231696383919639
100
AcDbArc
 50
101.421753659
 51
188.0494669755
  0
ARC
  5
23A
330
1F
100
AcDbEntity
  8
0
  6
Continuous
 62
     7
370
    25
100
AcDbCircle
 10
19.8308096784
 20
8.2375
 30
0.0
 40
2.231696383919652
100
AcDbArc
 50
171.9505330245
 51
258.578246341
  0
ARC
  5
23B
330
1F
100
AcDbEntity
  8
0
  6
Continuous
 62
     7
370
    25
100
AcDbCircle
 10
19.8308096784
 20
21.7625
 30
0.0
 40
2.231696383919656
100
AcDbArc
 50
101.421753659
 51
188.0494669755
  0
ARC
  5
23C
330
1F
100
AcDbEntity
  8
0
  6
Continuous
 62
     7
370
    25
100
AcDbCircle
 10
19.8308096784
 20
38.2375
 30
0.0
 40
2.23169638391965
100
AcDbArc
 50
171.9505330245
 51
258.578246341
  0
ARC
  5
23D
330
1F
100
AcDbEntity
  8
0
  6
Continuous
 62
     7
370
    25
100
AcDbCircle
 10
19.8308096784
 20
51.7625
 30
0.0
 40
2.231696383919633
100
AcDbArc
 50
101.421753659
 51
188.0494669755
  0
ARC
  5
23E
330
1F
100
AcDbEntity
  8
0
  6
Continuous
 62
     7
370
    25
100
AcDbCircle
 10
-4.9179276632
 20
-51.7625
 30
0.0
 40
2.231696383919637
100
AcDbArc
 50
171.9505330245
 51
258.578246341
  0
ARC
  5
23F
330
1F
100
AcDbEntity
  8
0
  6
Continuous
 62
     7
370
    25
100
AcDbCircle
 10
-4.9179276632
 20
-38.2375
 30
0.0
 40
2.231696383919657
100
AcDbArc
 50
101.421753659
 51
188.0494669755
  0
ARC
  5
240
330
1F
100
AcDbEntity
  8
0
  6
Continuous
 62
     7
370
    25
100
AcDbCircle
 10
-4.9179276632
 20
-8.2375
 30
0.0
 40
2.231696383919642
100
AcDbArc
 50
101.421753659
 51
188.0494669755
  0
ARC
  5
241
330
1F
100
AcDbEntity
  8
0
  6
Continuous
 62
     7
370
    25
100
AcDbCircle
 10
-4.9179276632
 20
-21.7625
 30
0.0
 40
2.23169638391964
100
AcDbArc
 50
171.9505330245
 51
258.578246341
  0
ARC
  5
242
330
1F
100
AcDbEntity
  8
0
  6
Continuous
 62
     7
370
    25
100
AcDbCircle
 10
-4.9179276632
 20
8.2375
 30
0.0
 40
2.231696383919643
100
AcDbArc
 50
171.9505330245
 51
258.578246341
  0
ARC
  5
243
330
1F
100
AcDbEntity
  8
0
  6
Continuous
 62
     7
370
    25
100
AcDbCircle
 10
-4.9179276632
 20
21.7625
 30
0.0
 40
2.231696383919646
100
AcDbArc
 50
101.421753659
 51
188.0494669755
  0
ARC
  5
244
330
1F
100
AcDbEntity
  8
0
  6
Continuous
 62
     7
370
    25
100
AcDbCircle
 10
-4.9179276632
 20
38.2375
 30
0.0
 40
2.231696383919643
100
AcDbArc
 50
171.9505330245
 51
258.578246341
  0
ARC
  5
245
330
1F
100
AcDbEntity
  8
0
  6
Continuous
 62
     7
370
    25
100
AcDbCircle
 10
-4.9179276632
 20
51.7625
 30
0.0
 40
2.231696383919641
100
AcDbArc
 50
101.421753659
 51
188.0494669755
  0
ARC
  5
246
330
1F
100
AcDbEntity
  8
0
  6
Continuous
 62
     7
370
    25
100
AcDbCircle
 10
-29.6666650047
 20
-51.7625
 30
0.0
 40
2.231696383919642
100
AcDbArc
 50
171.9505330245
 51
258.578246341
  0
ARC
  5
247
330
1F
100
AcDbEntity
  8
0
  6
Continuous
 62
     7
370
    25
100
AcDbCircle
 10
-29.6666650047
 20
-38.2375
 30
0.0
 40
2.231696383919664
100
AcDbArc
 50
101.421753659
 51
188.0494669755
  0
ARC
  5
248
330
1F
100
AcDbEntity
  8
0
  6
Continuous
 62
     7
370
    25
100
AcDbCircle
 10
-29.6666650047
 20
-8.2375
 30
0.0
 40
2.231696383919652
100
AcDbArc
 50
101.421753659
 51
188.0494669755
  0
ARC
  5
249
330
1F
100
AcDbEntity
  8
0
  6
Continuous
 62
     7
370
    25
100
AcDbCircle
 10
-29.6666650047
 20
-21.7625
 30
0.0
 40
2.231696383919655
100
AcDbArc
 50
171.9505330245
 51
258.578246341
  0
ARC
  5
24A
330
1F
100
AcDbEntity
  8
0
  6
Continuous
 62
     7
370
    25
100
AcDbCircle
 10
-29.6666650047
 20
8.2375
 30
0.0
 40
2.231696383919639
100
AcDbArc
 50
171.9505330245
 51
258.578246341
  0
ARC
  5
24B
330
1F
100
AcDbEntity
  8
0
  6
Continuous
 62
     7
370
    25
100
AcDbCircle
 10
-29.6666650047
 20
21.7625
 30
0.0
 40
2.231696383919652
100
AcDbArc
 50
101.421753659
 51
188.0494669755
  0
ARC
  5
24C
330
1F
100
AcDbEntity
  8
0
  6
Continuous
 62
     7
370
    25
100
AcDbCircle
 10
-29.6666650047
 20
38.2375
 30
0.0
 40
2.231696383919642
100
AcDbArc
 50
171.9505330245
 51
258.578246341
  0
ARC
  5
24D
330
1F
100
AcDbEntity
  8
0
  6
Continuous
 62
     7
370
    25
100
AcDbCircle
 10
-29.6666650047
 20
51.7625
 30
0.0
 40
2.231696383919644
100
AcDbArc
 50
101.421753659
 51
188.0494669755
  0
ARC
  5
24E
330
1F
100
AcDbEntity
  8
0
  6
Continuous
 62
     7
370
    25
100
AcDbCircle
 10
-54.4154023462
 20
-51.7625
 30
0.0
 40
2.231696383919625
100
AcDbArc
 50
171.9505330245
 51
258.578246341
  0
ARC
  5
24F
330
1F
100
AcDbEntity
  8
0
  6
Continuous
 62
     7
370
    25
100
AcDbCircle
 10
-54.4154023462
 20
-38.2375
 30
0.0
 40
2.23169638391964
100
AcDbArc
 50
101.421753659
 51
188.0494669755
  0
ARC
  5
250
330
1F
100
AcDbEntity
  8
0
  6
Continuous
 62
     7
370
    25
100
AcDbCircle
 10
-54.4154023462
 20
-21.7625
 30
0.0
 40
2.231696383919658
100
AcDbArc
 50
171.9505330245
 51
258.578246341
  0
ARC
  5
251
330
1F
100
AcDbEntity
  8
0
  6
Continuous
 62
     7
370
    25
100
AcDbCircle
 10
-54.4154023462
 20
-8.2375
 30
0.0
 40
2.231696383919657
100
AcDbArc
 50
101.421753659
 51
188.0494669755
  0
ARC
  5
252
330
1F
100
AcDbEntity
  8
0
  6
Continuous
 62
     7
370
    25
100
AcDbCircle
 10
-54.4154023462
 20
8.2375
 30
0.0
 40
2.231696383919658
100
AcDbArc
 50
171.9505330245
 51
258.578246341
  0
ARC
  5
253
330
1F
100
AcDbEntity
  8
0
  6
Continuous
 62
     7
370
    25
100
AcDbCircle
 10
-54.4154023462
 20
21.7625
 30
0.0
 40
2.231696383919661
100
AcDbArc
 50
101.421753659
 51
188.0494669755
  0
ARC
  5
254
330
1F
100
AcDbEntity
  8
0
  6
Continuous
 62
     7
370
    25
100
AcDbCircle
 10
-54.4154023462
 20
51.7625
 30
0.0
 40
2.231696383919637
100
AcDbArc
 50
101.421753659
 51
188.0494669755
  0
ARC
  5
255
330
1F
100
AcDbEntity
  8
0
  6
Continuous
 62
     7
370
    25
100
AcDbCircle
 10
-54.4154023462
 20
38.2375
 30
0.0
 40
2.23169638391964
100
AcDbArc
 50
171.9505330245
 51
258.578246341
  0
MTEXT
  5
257
330
1F
100
AcDbEntity
  8
0
  6
Continuous
 62
     7
100
AcDbMText
 10
-71.863262172
 20
-65.6695663917
 30
0.0
 40
4.83362
 41
0.0
 71
     1
 72
     1
  1
SOLIDWORKS Educational Product.
  7
SLDTEXTSTYLE0
 73
     1
 44
1.0
  0
MTEXT
  5
258
330
1F
100
AcDbEntity
  8
0
  6
Continuous
 62
     7
100
AcDbMText
 10
-71.863262172
 20
-72.9199963917
 30
0.0
 40
4.83362
 41
0.0
 71
     1
 72
     1
  1
For Instructional Use Only.
  7
SLDTEXTSTYLE0
 73
     1
 44
1.0
  0
ENDSEC
  0
SECTION
  2
OBJECTS
  0
DICTIONARY
  5
C
330
0
100
AcDbDictionary
281
     1
  3
ACAD_GROUP
350
D
  3
ACAD_LAYOUT
350
1A
  3
ACAD_MLINESTYLE
350
17
  3
ACAD_PLOTSETTINGS
350
19
  3
ACAD_PLOTSTYLENAME
350
E
  3
ACAD_SCALELIST
350
47
  3
DWGPROPS
350
259
  0
DICTIONARY
  5
D
102
{ACAD_REACTORS
330
C
102
}
330
C
100
AcDbDictionary
281
     1
  0
DICTIONARY
  5
1A
102
{ACAD_REACTORS
330
C
102
}
330
C
100
AcDbDictionary
281
     1
  3
Layout1
350
1E
  3
Layout2
350
26
  3
Model
350
22
  0
DICTIONARY
  5
17
102
{ACAD_REACTORS
330
C
102
}
330
C
100
AcDbDictionary
281
     1
  3
Standard
350
18
  0
DICTIONARY
  5
19
102
{ACAD_REACTORS
330
C
102
}
330
C
100
AcDbDictionary
281
     1
  0
ACDBDICTIONARYWDFLT
  5
E
102
{ACAD_REACTORS
330
C
102
}
330
C
100
AcDbDictionary
281
     1
  3
Normal
350
F
100
AcDbDictionaryWithDefault
340
F
  0
DICTIONARY
  5
47
102
{ACAD_REACTORS
330
C
102
}
330
C
100
AcDbDictionary
281
     1
  3
A0
350
48
  3
A1
350
49
  3
A2
350
4A
  3
A3
350
4B
  3
A4
350
4C
  3
A5
350
4D
  3
A6
350
4E
  3
A7
350
4F
  3
A8
350
50
  3
A9
350
51
  3
B0
350
52
  3
B1
350
53
  3
B2
350
54
  3
B3
350
55
  3
B4
350
56
  3
B5
350
57
  3
B6
350
58
  0
XRECORD
  5
259
102
{ACAD_REACTORS
330
C
102
}
330
C
100
AcDbXrecord
280
     1
  1
DWGPROPS COOKIE
  2

  3

  4

  6

  7

  8
huyhuong
  9

300
=
301
=
302
=
303
=
304
=
305
=
306
=
307
=
308
=
309
=
 40
0.0
 41
2460763.668097593
 42
2460763.668196806
  1

 90
        0
  0
LAYOUT
  5
1E
102
{ACAD_REACTORS
330
1A
102
}
330
1A
100
AcDbPlotSettings
  1

  2
none_device
  4

  6

 40
0.0
 41
0.0
 42
0.0
 43
0.0
 44
0.0
 45
0.0
 46
0.0
 47
0.0
 48
0.0
 49
0.0
140
0.0
141
0.0
142
1.0
143
1.0
 70
   688
 72
     1
 73
     0
 74
     5
  7

 75
    16
147
1.0
148
0.0
149
0.0
100
AcDbLayout
  1
Layout1
 70
     1
 71
     1
 10
0.0
 20
0.0
 11
420.0
 21
297.0
 12
0.0
 22
0.0
 32
0.0
 14
1.0000000000E+20
 24
1.0000000000E+20
 34
1.0000000000E+20
 15
-1.0000000000E+20
 25
-1.0000000000E+20
 35
-1.0000000000E+20
146
0.0
 13
0.0
 23
0.0
 33
0.0
 16
1.0
 26
0.0
 36
0.0
 17
0.0
 27
1.0
 37
0.0
 76
     0
330
1B
  0
LAYOUT
  5
26
102
{ACAD_REACTORS
330
1A
102
}
330
1A
100
AcDbPlotSettings
  1

  2
none_device
  4

  6

 40
0.0
 41
0.0
 42
0.0
 43
0.0
 44
0.0
 45
0.0
 46
0.0
 47
0.0
 48
0.0
 49
0.0
140
0.0
141
0.0
142
1.0
143
1.0
 70
   688
 72
     1
 73
     0
 74
     5
  7

 75
    16
147
1.0
148
0.0
149
0.0
100
AcDbLayout
  1
Layout2
 70
     1
 71
     2
 10
0.0
 20
0.0
 11
0.0
 21
0.0
 12
0.0
 22
0.0
 32
0.0
 14
0.0
 24
0.0
 34
0.0
 15
0.0
 25
0.0
 35
0.0
146
0.0
 13
0.0
 23
0.0
 33
0.0
 16
1.0
 26
0.0
 36
0.0
 17
0.0
 27
1.0
 37
0.0
 76
     0
330
23
  0
LAYOUT
  5
22
102
{ACAD_REACTORS
330
1A
102
}
330
1A
100
AcDbPlotSettings
  1

  2
none_device
  4
ANSI_A_(11.00_x_8.50_Inches)
  6

 40
6.35
 41
19.05
 42
6.35000508
 43
19.05000254
 44
279.4
 45
215.9
 46
134.5948672334
 47
88.89999873
 48
0.0
 49
0.0
140
0.0
141
0.0
142
0.0650812065
143
1.0
 70
  1696
 72
     0
 73
     0
 74
     0
  7

 75
     0
147
0.0179189148
148
-1300.4909072572
149
0.0
100
AcDbLayout
  1
Model
 70
     1
 71
     0
 10
0.0
 20
0.0
 11
420.0
 21
297.0
 12
0.0
 22
0.0
 32
0.0
 14
-71.863262172
 24
-64.65
 34
0.0
 15
70.3571247281
 25
64.65
 35
0.0
146
0.0
 13
0.0
 23
0.0
 33
0.0
 16
1.0
 26
0.0
 36
0.0
 17
0.0
 27
1.0
 37
0.0
 76
     0
330
1F
331
29
  0
MLINESTYLE
  5
18
102
{ACAD_REACTORS
330
17
102
}
330
17
100
AcDbMlineStyle
  2
Standard
 70
     0
  3

 62
   256
 51
90.0
 52
90.0
 71
     2
 49
0.5
 62
   256
  6
BYLAYER
 49
-0.5
 62
   256
  6
BYLAYER
  0
ACDBPLACEHOLDER
  5
F
102
{ACAD_REACTORS
330
E
102
}
330
E
  0
SCALE
  5
48
102
{ACAD_REACTORS
330
47
102
}
330
47
100
AcDbScale
 70
     0
300
1:1
140
1.0
141
1.0
290
     1
  0
SCALE
  5
49
102
{ACAD_REACTORS
330
47
102
}
330
47
100
AcDbScale
 70
     0
300
1:2
140
1.0
141
2.0
290
     0
  0
SCALE
  5
4A
102
{ACAD_REACTORS
330
47
102
}
330
47
100
AcDbScale
 70
     0
300
1:4
140
1.0
141
4.0
290
     0
  0
SCALE
  5
4B
102
{ACAD_REACTORS
330
47
102
}
330
47
100
AcDbScale
 70
     0
300
1:5
140
1.0
141
5.0
290
     0
  0
SCALE
  5
4C
102
{ACAD_REACTORS
330
47
102
}
330
47
100
AcDbScale
 70
     0
300
1:8
140
1.0
141
8.0
290
     0
  0
SCALE
  5
4D
102
{ACAD_REACTORS
330
47
102
}
330
47
100
AcDbScale
 70
     0
300
1:10
140
1.0
141
10.0
290
     0
  0
SCALE
  5
4E
102
{ACAD_REACTORS
330
47
102
}
330
47
100
AcDbScale
 70
     0
300
1:16
140
1.0
141
16.0
290
     0
  0
SCALE
  5
4F
102
{ACAD_REACTORS
330
47
102
}
330
47
100
AcDbScale
 70
     0
300
1:20
140
1.0
141
20.0
290
     0
  0
SCALE
  5
50
102
{ACAD_REACTORS
330
47
102
}
330
47
100
AcDbScale
 70
     0
300
1:30
140
1.0
141
30.0
290
     0
  0
SCALE
  5
51
102
{ACAD_REACTORS
330
47
102
}
330
47
100
AcDbScale
 70
     0
300
1:40
140
1.0
141
40.0
290
     0
  0
SCALE
  5
52
102
{ACAD_REACTORS
330
47
102
}
330
47
100
AcDbScale
 70
     0
300
1:50
140
1.0
141
50.0
290
     0
  0
SCALE
  5
53
102
{ACAD_REACTORS
330
47
102
}
330
47
100
AcDbScale
 70
     0
300
1:100
140
1.0
141
100.0
290
     0
  0
SCALE
  5
54
102
{ACAD_REACTORS
330
47
102
}
330
47
100
AcDbScale
 70
     0
300
2:1
140
2.0
141
1.0
290
     0
  0
SCALE
  5
55
102
{ACAD_REACTORS
330
47
102
}
330
47
100
AcDbScale
 70
     0
300
4:1
140
4.0
141
1.0
290
     0
  0
SCALE
  5
56
102
{ACAD_REACTORS
330
47
102
}
330
47
100
AcDbScale
 70
     0
300
8:1
140
8.0
141
1.0
290
     0
  0
SCALE
  5
57
102
{ACAD_REACTORS
330
47
102
}
330
47
100
AcDbScale
 70
     0
300
10:1
140
10.0
141
1.0
290
     0
  0
SCALE
  5
58
102
{ACAD_REACTORS
330
47
102
}
330
47
100
AcDbScale
 70
     0
300
100:1
140
100.0
141
1.0
290
     0
  0
ENDSEC
  0
EOF
